<svg width="53" height="50" viewBox="0 0 53 50" fill="none" xmlns="http://www.w3.org/2000/svg">
<path d="M15.8999 13.01L13.2899 14.66C12.973 14.8602 12.7187 15.1454 12.556 15.4831C12.3934 15.8208 12.3289 16.1974 12.3699 16.57L12.6199 18.77C12.6515 19.0426 12.7388 19.3058 12.8764 19.5432C13.014 19.7806 13.1991 19.9872 13.4199 20.15L16.2799 22.27C16.5887 22.4976 16.9565 22.6315 17.3393 22.6559C17.7221 22.6802 18.1039 22.594 18.439 22.4074C18.7742 22.2209 19.0486 21.9419 19.2297 21.6037C19.4107 21.2655 19.4906 20.8824 19.4599 20.5L18.9499 14.5C18.915 14.1622 18.7947 13.8388 18.6002 13.5604C18.4057 13.282 18.1436 13.0577 17.8384 12.9086C17.5333 12.7595 17.1952 12.6906 16.8561 12.7084C16.5169 12.7261 16.1879 12.8299 15.8999 13.01Z" fill="#B5C1C6"/>
<path d="M15.9 15.27L13.29 16.92C12.9437 17.1433 12.6747 17.4681 12.52 17.85L12.62 18.76C12.6516 19.0326 12.7389 19.2958 12.8765 19.5332C13.0141 19.7706 13.1991 19.9772 13.42 20.14L16.28 22.26C16.5278 22.444 16.8148 22.5682 17.1186 22.6228C17.4224 22.6774 17.7346 22.661 18.031 22.5748C18.3274 22.4886 18.5997 22.335 18.8268 22.1259C19.0539 21.9169 19.2296 21.6582 19.34 21.37L18.95 16.79C18.9197 16.4496 18.8027 16.1226 18.6101 15.8403C18.4176 15.558 18.1558 15.3297 17.85 15.1773C17.5441 15.0249 17.2043 14.9533 16.8629 14.9696C16.5216 14.9858 16.19 15.0892 15.9 15.27Z" fill="#9AACB2"/>
<path d="M15.8999 13.01L13.2899 14.66C12.973 14.8602 12.7187 15.1454 12.556 15.4831C12.3934 15.8208 12.3289 16.1974 12.3699 16.57L12.6199 18.77C12.6515 19.0426 12.7388 19.3058 12.8764 19.5432C13.014 19.7806 13.1991 19.9872 13.4199 20.15L16.2799 22.27C16.5887 22.4976 16.9565 22.6315 17.3393 22.6559C17.7221 22.6802 18.1039 22.594 18.439 22.4074C18.7742 22.2209 19.0486 21.9419 19.2297 21.6037C19.4107 21.2655 19.4906 20.8824 19.4599 20.5L18.9499 14.5C18.915 14.1622 18.7947 13.8388 18.6002 13.5604C18.4057 13.282 18.1436 13.0577 17.8384 12.9086C17.5333 12.7595 17.1952 12.6906 16.8561 12.7084C16.5169 12.7261 16.1879 12.8299 15.8999 13.01V13.01Z" stroke="#333333" stroke-width="1.5" stroke-linejoin="round"/>
<path d="M37.28 13.01L39.89 14.66C40.207 14.8602 40.4613 15.1454 40.6239 15.4831C40.7866 15.8208 40.8511 16.1974 40.81 16.57L40.56 18.77C40.5285 19.0426 40.4412 19.3058 40.3036 19.5432C40.1659 19.7806 39.9809 19.9872 39.76 20.15L36.9 22.27C36.5912 22.4976 36.2235 22.6315 35.8407 22.6559C35.4579 22.6802 35.0761 22.594 34.7409 22.4074C34.4058 22.2209 34.1313 21.9419 33.9503 21.6037C33.7693 21.2655 33.6894 20.8824 33.72 20.5L34.23 14.5C34.2649 14.1622 34.3853 13.8388 34.5798 13.5604C34.7742 13.282 35.0364 13.0577 35.3415 12.9086C35.6467 12.7595 35.9848 12.6906 36.3239 12.7084C36.6631 12.7261 36.9921 12.8299 37.28 13.01Z" fill="#B5C1C6"/>
<path d="M37.2801 15.27L39.8901 16.92C40.2364 17.1433 40.5054 17.4681 40.6601 17.85L40.5601 18.76C40.5286 19.0326 40.4412 19.2958 40.3036 19.5332C40.166 19.7706 39.981 19.9772 39.7601 20.14L36.9001 22.26C36.6523 22.444 36.3653 22.5682 36.0615 22.6228C35.7578 22.6774 35.4455 22.661 35.1491 22.5748C34.8528 22.4886 34.5804 22.335 34.3533 22.1259C34.1262 21.9169 33.9505 21.6582 33.8401 21.37L34.2301 16.79C34.2604 16.4496 34.3774 16.1226 34.57 15.8403C34.7626 15.558 35.0243 15.3297 35.3301 15.1773C35.636 15.0249 35.9758 14.9533 36.3172 14.9696C36.6586 14.9858 36.9901 15.0892 37.2801 15.27Z" fill="#9AACB2"/>
<path d="M37.28 13.01L39.89 14.66C40.207 14.8602 40.4613 15.1454 40.6239 15.4831C40.7866 15.8208 40.8511 16.1974 40.81 16.57L40.56 18.77C40.5285 19.0426 40.4412 19.3058 40.3036 19.5432C40.1659 19.7806 39.9809 19.9872 39.76 20.15L36.9 22.27C36.5912 22.4976 36.2235 22.6315 35.8407 22.6559C35.4579 22.6802 35.0761 22.594 34.7409 22.4074C34.4058 22.2209 34.1313 21.9419 33.9503 21.6037C33.7693 21.2655 33.6894 20.8824 33.72 20.5L34.23 14.5C34.2649 14.1622 34.3853 13.8388 34.5798 13.5604C34.7742 13.282 35.0364 13.0577 35.3415 12.9086C35.6467 12.7595 35.9848 12.6906 36.3239 12.7084C36.6631 12.7261 36.9921 12.8299 37.28 13.01V13.01Z" stroke="#333333" stroke-width="1.5" stroke-linejoin="round"/>
<path d="M51.85 41.16C51.6251 40.0262 51.0827 38.9797 50.286 38.1423C49.4894 37.3049 48.4711 36.7111 47.35 36.43L42.65 35.26C37.4182 33.9432 32.0449 33.2715 26.65 33.26H26.55C21.1551 33.2715 15.7818 33.9432 10.55 35.26L5.85 36.43C4.72886 36.7111 3.71065 37.3049 2.91396 38.1423C2.11727 38.9797 1.57489 40.0262 1.35 41.16L1 43.16L1.1 43.22C9.12139 46.7561 17.7938 48.575 26.56 48.56C35.3378 48.5825 44.0234 46.7704 52.06 43.24H52.11L51.85 41.16Z" fill="#8D77E8"/>
<path d="M47.35 39.19L42.64 38.01C37.4082 36.6932 32.0349 36.0215 26.64 36.01H26.54C21.145 36.0215 15.7718 36.6932 10.54 38.01L5.83997 39.18C4.80754 39.4394 3.86098 39.9645 3.09435 40.703C2.32771 41.4416 1.7677 42.3679 1.46997 43.39C9.38822 46.8244 17.929 48.5911 26.56 48.58C35.1942 48.5913 43.7383 46.8246 51.66 43.39C51.3642 42.3779 50.812 41.4595 50.0569 40.7236C49.3018 39.9878 48.3693 39.4595 47.35 39.19Z" fill="#8C5ACC"/>
<path opacity="0.18" d="M47.3501 36.43L42.6501 35.26C37.4183 33.9432 32.045 33.2715 26.6501 33.26H26.5501C23.0353 33.2771 19.5275 33.5747 16.0601 34.15V35.44C16.0836 38.2546 17.2121 40.9473 19.2024 42.9376C21.1927 44.9279 23.8854 46.0565 26.7001 46.08H44.3401C46.9729 45.3116 49.5519 44.3695 52.0601 43.26L51.7901 41.21C51.5773 40.0751 51.0472 39.0238 50.2614 38.1778C49.4756 37.3318 48.4662 36.7258 47.3501 36.43Z" fill="#7F7F7F"/>
<path d="M51.85 41.16C51.6251 40.0262 51.0827 38.9797 50.286 38.1423C49.4894 37.3049 48.4711 36.7111 47.35 36.43L42.65 35.26C37.4182 33.9432 32.0449 33.2715 26.65 33.26H26.55C21.1551 33.2715 15.7818 33.9432 10.55 35.26L5.85 36.43C4.72886 36.7111 3.71065 37.3049 2.91396 38.1423C2.11727 38.9797 1.57489 40.0262 1.35 41.16L1 43.16L1.1 43.22C9.12139 46.7561 17.7938 48.575 26.56 48.56C35.3378 48.5825 44.0234 46.7704 52.06 43.24H52.11L51.85 41.16Z" stroke="#333333" stroke-width="1.5" stroke-linejoin="round"/>
<path d="M33.63 34.14V25.33H19.55V34.14C19.5841 35.3345 20.0887 36.4671 20.9541 37.2913C21.8194 38.1154 22.9753 38.5642 24.17 38.54H29.06C30.247 38.5535 31.3915 38.0997 32.2466 37.2764C33.1017 36.4531 33.5986 35.3265 33.63 34.14Z" fill="#8C5ACC"/>
<path opacity="0.18" d="M33.63 30.85V26.31H19.55V30.84C20.55 31.98 21.61 32.69 22 33.22C23.55 35.32 25.36 34.93 26.59 34.92C27.82 34.91 29.59 35.32 31.18 33.22C31.57 32.7 32.61 32.01 33.63 30.85Z" fill="#4E5454"/>
<path opacity="0.18" d="M31.3701 39.51C32.0609 39.096 32.6324 38.5098 33.0286 37.8086C33.4247 37.1074 33.632 36.3153 33.63 35.51V26.42H19.55V28.01L30.1401 38.59C30.5042 38.9536 30.9184 39.2634 31.3701 39.51Z" fill="#4E5454"/>
<g opacity="0.45">
<path opacity="0.45" d="M33.15 29.89C31.34 31.7 21.85 31.7 20.04 29.89" stroke="#5D6268" stroke-width="0.5" stroke-linejoin="round"/>
</g>
<g opacity="0.45">
<path opacity="0.45" d="M33.15 31.58C31.34 33.39 21.85 33.39 20.04 31.58" stroke="#5D6268" stroke-width="0.5" stroke-linejoin="round"/>
</g>
<g opacity="0.45">
<path opacity="0.45" d="M33.15 33.27C31.34 35.08 21.85 35.08 20.04 33.27" stroke="#5D6268" stroke-width="0.5" stroke-linejoin="round"/>
</g>
<g opacity="0.45">
<path opacity="0.45" d="M33.15 35.01C31.34 36.82 21.85 36.82 20.04 35.01" stroke="#5D6268" stroke-width="0.5" stroke-linejoin="round"/>
</g>
<g opacity="0.45">
<path opacity="0.45" d="M33.15 36.65C31.34 38.46 21.85 38.46 20.04 36.65" stroke="#5D6268" stroke-width="0.5" stroke-linejoin="round"/>
</g>
<path d="M33.63 35.55V26.31H19.55V35.55" stroke="#333333" stroke-width="1.5" stroke-linejoin="round"/>
<path d="M26.5901 1.01001C18.4001 1.01001 15.5901 5.55001 15.6801 11.01C15.6763 11.7446 15.7097 12.4788 15.7801 13.21L16.7801 20.76C16.8801 26.43 20.9701 28.54 21.8501 29.76C23.4501 31.92 25.3001 31.52 26.5701 31.51C27.8401 31.5 29.6901 31.92 31.2901 29.76C32.1701 28.57 36.2901 26.46 36.3601 20.76L37.3601 13.21C37.4304 12.4788 37.4638 11.7446 37.4601 11.01C37.5501 5.55001 34.7901 1.01001 26.5901 1.01001Z" fill="#8C5ACC"/>
<path opacity="0.18" d="M31.3101 29.75C32.1901 28.56 36.3101 26.45 36.3801 20.75L37.3801 13.2C37.4505 12.4688 37.4838 11.7345 37.4801 11C37.5401 5.52 34.7801 1 26.5801 1V31.5C27.8601 31.51 29.7101 31.91 31.3101 29.75Z" fill="#7F7F7F"/>
<path d="M19.1901 22.52L18.1901 14.97C18.1197 14.2388 18.0863 13.5046 18.0901 12.77C18.0401 7.29001 20.8001 2.77001 29.0001 2.77001C31.1112 2.71091 33.2079 3.13504 35.1301 4.01001C33.4201 2.14001 30.6801 1.01001 26.5901 1.01001C18.4001 1.01001 15.5901 5.55001 15.6801 11.01C15.6763 11.7446 15.7097 12.4788 15.7801 13.21L16.7801 20.76C16.8801 26.43 20.9701 28.54 21.8501 29.76C22.3949 30.5759 23.2206 31.1631 24.1701 31.41C23.1801 30.19 19.2901 28.01 19.1901 22.52Z" fill="#8D77E8"/>
<path d="M26.5901 1.01001C18.4001 1.01001 15.5901 5.55001 15.6801 11.01C15.6763 11.7446 15.7097 12.4788 15.7801 13.21L16.7801 20.76C16.8801 26.43 20.9701 28.54 21.8501 29.76C23.4501 31.92 25.3001 31.52 26.5701 31.51C27.8401 31.5 29.6901 31.92 31.2901 29.76C32.1701 28.57 36.2901 26.46 36.3601 20.76L37.3601 13.21C37.4304 12.4788 37.4638 11.7446 37.4601 11.01C37.5501 5.55001 34.7901 1.01001 26.5901 1.01001Z" stroke="#333333" stroke-width="1.5" stroke-linejoin="round"/>
<path d="M16.76 21.51C17.8309 21.5004 18.8786 21.8217 19.76 22.43C20.6852 23.0408 21.4693 23.8419 22.06 24.78C23.1731 26.6711 23.7825 28.8161 23.83 31.01H22.83C22.9339 28.9349 22.4998 26.8681 21.57 25.01C21.0994 24.0824 20.4384 23.2646 19.63 22.61C18.8126 21.9511 17.8084 21.5662 16.76 21.51Z" fill="#333333"/>
<path d="M36.4201 21.51C35.3668 21.5739 34.3598 21.9655 33.5401 22.63C32.7339 23.2788 32.073 24.0896 31.6001 25.01C30.6749 26.8697 30.2412 28.9352 30.3401 31.01H29.3401C29.4028 28.8117 30.0295 26.6664 31.1601 24.78C31.7276 23.85 32.4839 23.0495 33.3801 22.43C34.2741 21.8168 35.3361 21.4954 36.4201 21.51Z" fill="#333333"/>
<path d="M21.1301 6.71001C21.1301 6.7377 21.1219 6.76476 21.1065 6.78779C21.0911 6.81081 21.0693 6.82875 21.0437 6.83935C21.0181 6.84995 20.9899 6.85272 20.9628 6.84732C20.9356 6.84191 20.9107 6.82858 20.8911 6.809C20.8715 6.78942 20.8582 6.76448 20.8528 6.73732C20.8474 6.71016 20.8502 6.68201 20.8608 6.65643C20.8714 6.63085 20.8893 6.60898 20.9123 6.5936C20.9353 6.57822 20.9624 6.57001 20.9901 6.57001C21.0272 6.57001 21.0628 6.58476 21.0891 6.61101C21.1153 6.63727 21.1301 6.67288 21.1301 6.71001Z" stroke="#333333" stroke-width="1.5" stroke-linejoin="round"/>
<path d="M32.3401 6.71001C32.3401 6.7377 32.3318 6.76476 32.3165 6.78779C32.3011 6.81081 32.2792 6.82875 32.2536 6.83935C32.2281 6.84995 32.1999 6.85272 32.1727 6.84732C32.1456 6.84191 32.1206 6.82858 32.1011 6.809C32.0815 6.78942 32.0682 6.76448 32.0627 6.73732C32.0573 6.71016 32.0601 6.68201 32.0707 6.65643C32.0813 6.63085 32.0993 6.60898 32.1223 6.5936C32.1453 6.57822 32.1724 6.57001 32.2001 6.57001C32.2372 6.57001 32.2728 6.58476 32.2991 6.61101C32.3253 6.63727 32.3401 6.67288 32.3401 6.71001Z" stroke="#333333" stroke-width="1.5" stroke-linejoin="round"/>
<path opacity="0.18" d="M26.59 25.42C30.0915 25.42 32.93 22.5815 32.93 19.08C32.93 15.5785 30.0915 12.74 26.59 12.74C23.0885 12.74 20.25 15.5785 20.25 19.08C20.25 22.5815 23.0885 25.42 26.59 25.42Z" fill="#7F7F7F"/>
<path d="M26.59 22.67C30.0915 22.67 32.93 19.8315 32.93 16.33C32.93 12.8285 30.0915 9.98999 26.59 9.98999C23.0885 9.98999 20.25 12.8285 20.25 16.33C20.25 19.8315 23.0885 22.67 26.59 22.67Z" fill="#B5C1C6"/>
<path d="M26.59 20.95C29.1415 20.95 31.21 18.8815 31.21 16.33C31.21 13.7784 29.1415 11.71 26.59 11.71C24.0384 11.71 21.97 13.7784 21.97 16.33C21.97 18.8815 24.0384 20.95 26.59 20.95Z" fill="#A1ACB2"/>
<path d="M26.59 22.67C30.0915 22.67 32.93 19.8315 32.93 16.33C32.93 12.8285 30.0915 9.98999 26.59 9.98999C23.0885 9.98999 20.25 12.8285 20.25 16.33C20.25 19.8315 23.0885 22.67 26.59 22.67Z" stroke="#333333" stroke-width="1.5" stroke-linejoin="round"/>
<path d="M29.7599 16.33C29.7599 16.957 29.574 17.5699 29.2257 18.0912C28.8774 18.6125 28.3823 19.0188 27.803 19.2587C27.2238 19.4986 26.5864 19.5614 25.9715 19.4391C25.3566 19.3168 24.7917 19.0149 24.3484 18.5715C23.9051 18.1282 23.6031 17.5634 23.4808 16.9484C23.3585 16.3335 23.4213 15.6961 23.6612 15.1169C23.9012 14.5377 24.3075 14.0426 24.8288 13.6942C25.3501 13.3459 25.963 13.16 26.5899 13.16C27.4307 13.16 28.237 13.494 28.8315 14.0885C29.4259 14.683 29.7599 15.4893 29.7599 16.33Z" fill="#333333"/>
<path d="M29.7599 16.33C29.7599 16.957 29.574 17.5699 29.2257 18.0912C28.8774 18.6125 28.3823 19.0188 27.803 19.2587C27.2238 19.4986 26.5864 19.5614 25.9715 19.4391C25.3566 19.3168 24.7917 19.0149 24.3484 18.5715C23.9051 18.1282 23.6031 17.5634 23.4808 16.9484C23.3585 16.3335 23.4213 15.6961 23.6612 15.1169C23.9012 14.5377 24.3075 14.0426 24.8288 13.6942C25.3501 13.3459 25.963 13.16 26.5899 13.16C27.4307 13.16 28.237 13.494 28.8315 14.0885C29.4259 14.683 29.7599 15.4893 29.7599 16.33V16.33Z" stroke="#333333" stroke-linejoin="round"/>
<path d="M26.27 16.01C26.1373 16.1433 25.9681 16.2343 25.7836 16.2714C25.5992 16.3084 25.408 16.2899 25.2341 16.2181C25.0602 16.1464 24.9115 16.0246 24.8069 15.8683C24.7023 15.712 24.6465 15.5281 24.6465 15.34C24.6465 15.1519 24.7023 14.968 24.8069 14.8117C24.9115 14.6553 25.0602 14.5336 25.2341 14.4618C25.408 14.3901 25.5992 14.3715 25.7836 14.4086C25.9681 14.4457 26.1373 14.5366 26.27 14.67C26.4471 14.848 26.5465 15.0889 26.5465 15.34C26.5465 15.5911 26.4471 15.832 26.27 16.01Z" fill="#E8EFEF"/>
<path d="M28.0599 17.8C27.9939 17.865 27.9101 17.909 27.8192 17.9265C27.7282 17.944 27.6341 17.9343 27.5486 17.8985C27.4632 17.8627 27.3903 17.8025 27.3389 17.7253C27.2876 17.6482 27.2603 17.5576 27.2603 17.465C27.2603 17.3724 27.2876 17.2818 27.3389 17.2047C27.3903 17.1275 27.4632 17.0673 27.5486 17.0315C27.6341 16.9957 27.7282 16.986 27.8192 17.0035C27.9101 17.021 27.9939 17.065 28.0599 17.13C28.1056 17.173 28.142 17.2249 28.1669 17.2825C28.1918 17.3401 28.2047 17.4022 28.2047 17.465C28.2047 17.5278 28.1918 17.5899 28.1669 17.6475C28.142 17.7051 28.1056 17.757 28.0599 17.8Z" fill="#E8EFEF"/>
<path d="M19.76 39.73V40.76" stroke="#333333" stroke-linejoin="round"/>
<path d="M23.1799 39.73V40.76" stroke="#333333" stroke-linejoin="round"/>
<path d="M26.5901 39.73V40.76" stroke="#333333" stroke-linejoin="round"/>
<path d="M30.01 39.73V40.76" stroke="#333333" stroke-linejoin="round"/>
<path d="M33.4199 39.73V40.76" stroke="#333333" stroke-linejoin="round"/>
<path d="M19.76 42.04V43.07" stroke="#333333" stroke-linejoin="round"/>
<path d="M23.1799 42.04V43.07" stroke="#333333" stroke-linejoin="round"/>
<path d="M26.5901 42.04V43.07" stroke="#333333" stroke-linejoin="round"/>
<path d="M30.01 42.04V43.07" stroke="#333333" stroke-linejoin="round"/>
<path d="M33.4199 42.04V43.07" stroke="#333333" stroke-linejoin="round"/>
<path d="M19.76 44.35V45.38" stroke="#333333" stroke-linejoin="round"/>
<path d="M23.1799 44.35V45.38" stroke="#333333" stroke-linejoin="round"/>
<path d="M26.5901 44.35V45.38" stroke="#333333" stroke-linejoin="round"/>
<path d="M30.01 44.35V45.38" stroke="#333333" stroke-linejoin="round"/>
<path d="M33.4199 44.35V45.38" stroke="#333333" stroke-linejoin="round"/>
</svg>
