<svg width="26" height="27" viewBox="0 0 26 27" fill="none" xmlns="http://www.w3.org/2000/svg">
<path d="M11.8881 0.0252104C9.92101 0.257361 8.82965 0.979698 9.07227 1.88682C9.24108 2.53535 10.0108 2.97845 11.3872 3.23153C12.099 3.35821 13.8499 3.35821 14.5775 3.2263C16.2279 2.93108 17.0877 2.26134 16.8662 1.43877C16.6341 0.563314 15.3106 0.0466902 13.2066 0.00428057C12.6845 -0.00645947 12.0938 0.00400567 11.8881 0.0252104ZM13.7233 1.13777C14.5775 1.22204 15.3527 1.41205 15.6587 1.61226C15.7589 1.68083 15.6956 1.7282 15.2949 1.8758C14.2823 2.26079 12.4367 2.32937 11.187 2.03415C10.7229 1.92345 10.2272 1.73343 10.2272 1.66513C10.2272 1.64393 10.3432 1.57536 10.4855 1.51229C11.2709 1.17467 12.5526 1.02706 13.7233 1.13777Z" fill="#4B4B4B"/>
<path d="M12.5999 4.49169C11.9618 4.60239 11.7878 4.64976 11.4557 4.78167C9.66812 5.52521 8.67673 7.50799 9.15122 9.39576L9.18289 9.52244L8.7979 9.33793C8.1177 9.02151 7.92768 8.99507 6.45657 9.00058C5.2859 9.00581 5.09616 8.99535 4.73761 8.90034C3.40336 8.54179 2.02698 7.48706 1.29418 6.24782C0.993458 5.75213 0.845851 5.62022 0.566334 5.62022C0.408262 5.62022 0.323719 5.65712 0.207781 5.76782C0.0654068 5.9102 0.0601745 5.94187 0.0232728 6.65374C-0.055763 8.09346 0.0706392 9.71218 0.339691 10.7143C0.719173 12.1485 1.53652 13.1082 2.60171 13.3773C2.81266 13.4299 2.84433 13.4563 2.86526 13.6039C3.00763 14.5953 3.11834 14.9908 3.38739 15.5077C3.70904 16.1193 4.43165 16.6836 5.00638 16.7786C5.18043 16.805 5.20687 16.8367 5.31234 17.1107C5.49685 17.58 5.91874 18.1811 6.3566 18.5821L6.75206 18.9511L6.21423 20.6808L5.6764 22.4157V23.0221C5.67117 24.0769 6.00851 24.9468 6.72589 25.7116C7.34276 26.3601 7.97036 26.7186 8.81415 26.8927C9.42055 27.0191 16.5183 27.0191 17.125 26.8927C18.7914 26.5498 20.0728 25.1473 20.2416 23.4809C20.3154 22.7374 20.2468 22.3841 19.693 20.6018L19.1813 18.9511L19.582 18.5821C20.0196 18.1814 20.4415 17.5802 20.626 17.1107C20.7315 16.8364 20.7579 16.8047 20.932 16.7786C21.2801 16.726 21.8548 16.3936 22.1291 16.0931C22.6564 15.5184 22.8831 14.9172 23.0731 13.6042C23.0943 13.4566 23.126 13.4302 23.3474 13.3721C24.1174 13.1823 24.824 12.5599 25.2351 11.7057C25.4987 11.1679 25.7413 10.2872 25.8311 9.54887C25.9206 8.8158 25.963 7.46585 25.9153 6.65374C25.8784 5.94187 25.8732 5.9102 25.7308 5.76782C25.6149 5.65189 25.5304 5.62022 25.3618 5.62022C25.0875 5.62022 24.9347 5.76782 24.518 6.43756C23.8219 7.55012 22.4667 8.55749 21.2065 8.90034C20.8427 9.00058 20.6687 9.01105 19.4821 9.00058C18.0107 8.99012 17.8209 9.02179 17.1407 9.33793L16.7557 9.52244L16.7874 9.39576C17.1881 7.79274 16.5396 6.09471 15.1684 5.15068C14.8255 4.9133 14.3037 4.68666 13.9027 4.59165C13.5491 4.51262 12.8161 4.45478 12.5999 4.49169ZM13.681 5.69925C14.1398 5.82042 14.5934 6.08424 14.9467 6.43756C16.3917 7.88251 15.8643 10.2924 13.9289 11.0569C13.6706 11.1624 13.5334 11.1781 12.9692 11.1781C12.4049 11.1781 12.2678 11.1624 12.0095 11.0569C10.3905 10.4188 9.69979 8.59411 10.5067 7.07563C10.8336 6.44803 11.5454 5.88899 12.2364 5.70448C12.6156 5.60424 13.2961 5.59901 13.681 5.69925ZM1.89507 8.63652C2.57004 9.19555 3.41383 9.66481 4.18904 9.90743C4.81141 10.1024 5.42828 10.1605 6.69918 10.1448L7.83295 10.1291L8.28651 10.3505C8.58172 10.4981 8.86124 10.6934 9.11432 10.9253C9.64168 11.4157 9.64691 11.4314 9.39907 11.7269C8.95625 12.2543 8.61862 12.8502 8.46578 13.3723C8.07033 14.7066 7.14751 17.6807 7.11584 17.7124C7.06847 17.7653 6.73608 17.3908 6.55158 17.0743L6.41443 16.8422L6.55158 16.7315C6.83632 16.4941 6.8523 16.1039 6.57801 15.8772C6.45684 15.7718 6.36183 15.7453 6.12445 15.7401C5.00115 15.7192 4.59 15.5027 4.26835 14.7699C4.15764 14.5116 4.0048 13.8628 4.0048 13.6414V13.4778H4.61644C5.09093 13.4778 5.25974 13.4566 5.37568 13.388C5.68163 13.2088 5.73423 12.7764 5.48638 12.5233L5.33354 12.3705L4.41596 12.3652C3.91503 12.36 3.38766 12.3495 3.24529 12.3388C2.36461 12.2807 1.79511 11.6955 1.45225 10.5036C1.28867 9.94983 1.15676 9.00085 1.15676 8.39969V7.97256L1.3834 8.18351C1.50485 8.2989 1.73672 8.50461 1.89507 8.63652ZM24.7075 9.41173C24.5018 10.9726 23.964 11.9852 23.21 12.2331C22.8726 12.3438 22.6457 12.365 21.5488 12.365L20.6048 12.3702L20.452 12.523C20.1884 12.7921 20.2622 13.2454 20.5996 13.4194C20.6629 13.4511 20.9793 13.4775 21.3219 13.4775H21.9335V13.6092C21.9335 13.8306 21.7755 14.5163 21.6752 14.7586C21.5012 15.1488 21.2745 15.4072 20.9686 15.5603C20.7207 15.6762 20.5836 15.7027 20.1036 15.7291C19.4815 15.7555 19.3284 15.8134 19.1965 16.0876C19.1015 16.2774 19.1912 16.5938 19.3865 16.7414L19.5236 16.8521L19.3496 17.1264C19.2601 17.2792 19.1017 17.4954 19.0067 17.6061L18.8327 17.8066L18.7481 17.5535C18.5055 16.794 17.6408 13.973 17.551 13.6353C17.3985 13.0661 17.0347 12.3542 16.6657 11.8954C16.4916 11.6793 16.344 11.4735 16.344 11.4419C16.344 11.405 16.5338 11.1993 16.7712 10.9779C17.0771 10.6931 17.3197 10.5138 17.6518 10.3555L18.1054 10.1288L19.2392 10.1445C20.6155 10.1605 21.1534 10.1024 21.8812 9.85979C22.7302 9.57504 23.495 9.11624 24.3068 8.40437L24.7551 8.00891L24.7708 8.39914C24.7813 8.61532 24.7496 9.06888 24.7075 9.41173ZM11.3397 11.9957C12.3785 12.4597 13.5546 12.4597 14.6143 11.9904L14.9676 11.8324L15.1786 11.9957C15.7902 12.4809 16.2386 13.1611 16.4652 13.952C16.539 14.1999 17.1666 16.246 17.868 18.5028C19.0651 22.3681 19.1389 22.6264 19.1389 23.0114C19.1389 24.2718 18.3532 25.3527 17.1614 25.7273C16.7924 25.8432 16.7712 25.8432 12.9692 25.8432C9.16719 25.8432 9.14599 25.8432 8.77697 25.7273C7.82771 25.4265 7.05801 24.5987 6.8523 23.6547C6.81539 23.4914 6.79942 23.159 6.81016 22.9164C6.83137 22.5102 6.95254 22.0833 8.05986 18.5132C8.73484 16.3355 9.36244 14.321 9.44671 14.0308C9.68382 13.2349 9.91046 12.8392 10.4431 12.3014C10.6909 12.0483 10.9228 11.8426 10.9492 11.8426C10.9809 11.8426 11.1549 11.9111 11.3397 11.9957Z" fill="#4B4B4B"/>
</svg>
