<svg width="52" height="59" viewBox="0 0 52 59" fill="none" xmlns="http://www.w3.org/2000/svg">
<path d="M50.42 49.5509C50.2956 48.804 49.9618 48.1077 49.4572 47.543C48.9527 46.9783 48.2983 46.5684 47.57 46.361L34.29 44.361C33.6598 44.2663 33.0837 43.9509 32.6643 43.4711C32.2449 42.9913 32.0095 42.3781 32 41.741V37.101H20V41.741C20 42.3851 19.7688 43.0078 19.3486 43.4959C18.9284 43.984 18.3469 44.3052 17.71 44.401L4.43 46.401C3.70171 46.6084 3.04727 47.0183 2.54275 47.583C2.03824 48.1477 1.70438 48.844 1.58 49.591L1 53.041C8.89436 56.4299 17.4094 58.1329 26 58.041C34.5906 58.1329 43.1056 56.4299 51 53.041L50.42 49.5509Z" fill="#F3CAC2"/>
<path d="M35.3601 47.041C34.6775 46.9587 34.0479 46.6316 33.5881 46.1204C33.1284 45.6092 32.8697 44.9485 32.8601 44.261V43.511C33.0429 43.9539 33.3351 44.3431 33.7094 44.6422C34.0837 44.9412 34.5278 45.1404 35.0001 45.221L48.1701 47.221C48.8661 47.42 49.4951 47.8041 49.9899 48.3324C50.4848 48.8608 50.827 49.5135 50.9801 50.221C50.4417 49.6524 49.7564 49.2439 49.0001 49.041L35.3601 47.041Z" fill="#F7DEDA"/>
<path d="M20 37.101V40.041L29.15 48.851C29.9518 49.6583 31.027 50.1359 32.1636 50.1895C33.3002 50.2432 34.4156 49.8691 35.29 49.1409C36.13 48.4409 37.97 46.7809 39.67 45.2109L34.29 44.401C33.6531 44.3052 33.0716 43.984 32.6514 43.4959C32.2312 43.0078 32 42.3851 32 41.741V37.101H20Z" fill="#E8BFBA"/>
<path d="M17.2601 46.721C17.9427 46.6387 18.5724 46.3116 19.0321 45.8004C19.4919 45.2891 19.7505 44.6285 19.7601 43.941V42.731C19.5725 43.1705 19.2756 43.5548 18.8975 43.8471C18.5194 44.1394 18.0727 44.3301 17.6001 44.401L4.43012 46.401C2.65012 46.401 1.93012 48.401 1.62012 49.861C2.16696 49.2908 2.85814 48.8796 3.62012 48.671L17.2601 46.721Z" fill="#F9D7D2"/>
<path d="M35.3601 47.041C34.6775 46.9587 34.0479 46.6316 33.5881 46.1204C33.1284 45.6091 32.8697 44.9485 32.8601 44.261V42.751C33.0483 43.1864 33.3429 43.5675 33.7168 43.8593C34.0907 44.1511 34.532 44.3443 35.0001 44.421L48.1701 46.421C49.5901 46.831 50.6701 48.781 50.9801 50.221C50.4417 49.6524 49.7564 49.2439 49.0001 49.041L35.3601 47.041Z" fill="#E8BFBA"/>
<path d="M50.42 49.5509C50.2956 48.804 49.9618 48.1077 49.4572 47.543C48.9527 46.9783 48.2983 46.5684 47.57 46.361L34.29 44.361C33.6598 44.2663 33.0837 43.9509 32.6643 43.4711C32.2449 42.9913 32.0095 42.3781 32 41.741V37.101H20V41.741C20 42.3851 19.7688 43.0078 19.3486 43.4959C18.9284 43.984 18.3469 44.3052 17.71 44.401L4.43 46.401C3.70171 46.6084 3.04727 47.0183 2.54275 47.583C2.03824 48.1477 1.70438 48.844 1.58 49.591L1 53.041C8.89436 56.4299 17.4094 58.1329 26 58.041C34.5906 58.1329 43.1056 56.4299 51 53.041L50.42 49.5509Z" stroke="#333333" stroke-width="1.5" stroke-miterlimit="10"/>
<path d="M25.9999 10.481C33.9999 10.481 36.4999 15.071 36.4999 20.481V22.481C38.2299 22.481 38.7799 24.191 38.4999 26.481C38.2599 28.431 37.4999 30.481 35.4999 30.481V32.981C35.4999 35.981 33.1099 37.341 30.3199 40.241C29.8067 40.8738 29.1409 41.3656 28.3851 41.67C27.6293 41.9744 26.8085 42.0814 25.9999 41.981C25.1905 42.0803 24.3691 41.9717 23.6132 41.6655C22.8574 41.3593 22.192 40.8656 21.6799 40.231C18.8899 37.331 16.4999 35.971 16.4999 32.971V30.471C14.4999 30.471 13.7399 28.421 13.4999 26.471C13.2199 24.181 13.7699 22.471 15.4999 22.471V20.471C15.4999 15.041 17.9999 10.481 25.9999 10.481Z" fill="#FBD3CA"/>
<path d="M36.4999 22.4809V20.4809C36.4999 15.0709 34.0399 10.4809 25.9999 10.4809C25.0789 10.4709 24.1587 10.5412 23.2499 10.6909V21.0409C23.2545 21.5832 23.1457 22.1204 22.9304 22.6181C22.7151 23.1157 22.3982 23.5629 21.9999 23.9309C21.9168 24.0167 21.8704 24.1315 21.8704 24.2509C21.8704 24.3704 21.9168 24.4851 21.9999 24.5709C22.0629 24.6349 22.1426 24.68 22.2299 24.7009C22.6816 24.8177 23.0936 25.0538 23.4226 25.3846C23.7516 25.7154 23.9856 26.1286 24.0999 26.5809C24.1287 26.707 24.2052 26.8169 24.3133 26.8878C24.4215 26.9586 24.5529 26.9849 24.6799 26.9609C24.7476 26.9413 24.8118 26.9109 24.8699 26.8709C25.0425 26.7271 25.2435 26.6214 25.4599 26.5609C25.5819 26.527 25.7123 26.5426 25.8229 26.6044C25.9334 26.6663 26.015 26.7692 26.0499 26.8909C26.0391 26.9427 26.0223 26.993 25.9999 27.0409V30.1109C26.0079 30.3092 26.0699 30.5015 26.1791 30.6672C26.2884 30.8328 26.4408 30.9655 26.6199 31.0509C27.1999 31.3609 26.7899 32.7409 25.9999 32.7409C25.6899 32.7409 25.4799 32.5109 25.2099 32.3509C24.4699 31.9809 24.2099 32.9009 24.2099 32.9009C24.9599 33.0909 25.0899 33.6909 26.0499 33.6909V37.2409C26.0434 37.3288 26.0693 37.416 26.1227 37.486C26.1762 37.556 26.2534 37.604 26.3399 37.6209C27.6499 37.9209 28.3399 40.1109 26.0299 40.6209C25.7501 40.678 25.4982 40.8292 25.3163 41.0494C25.1343 41.2695 25.0333 41.5453 25.0299 41.8309V42.0409H26.0299C26.8367 42.1205 27.6506 41.9944 28.3955 41.6744C29.1404 41.3544 29.7922 40.8509 30.2899 40.2109C33.0799 37.3109 35.4699 35.9509 35.4699 32.9509V30.4509C37.4699 30.4509 38.2299 28.4009 38.4699 26.4509C38.7799 24.2309 38.2299 22.4809 36.4999 22.4809Z" fill="#F3CAC2"/>
<path d="M26.0798 33.851V34.491" stroke="#EABDB7" stroke-width="0.75" stroke-miterlimit="10" stroke-linecap="round"/>
<path d="M22.9599 36.0809L22.6099 36.8309" stroke="#EABDB7" stroke-width="0.75" stroke-miterlimit="10" stroke-linecap="round"/>
<path d="M29.1099 36.0809L29.4599 36.8309" stroke="#EABDB7" stroke-width="0.75" stroke-miterlimit="10" stroke-linecap="round"/>
<path d="M26.9199 35.1409C26.6586 35.2714 26.3718 35.3431 26.0799 35.3509C25.8699 35.3509 25.8499 35.3509 25.3699 35.1409C24.5099 34.8009 24.4599 35.8409 22.8699 36.4209L23.8699 37.4209C24.3242 37.829 24.9196 38.0442 25.5299 38.0209H26.5999C27.2544 38.0282 27.8884 37.7931 28.3799 37.3609L29.2999 36.4109C27.7799 35.8909 27.7699 34.8109 26.9199 35.1409Z" fill="#C97388"/>
<path d="M29.2899 36.4309C28.2199 36.4309 27.6899 35.9009 26.0799 36.4309C24.4899 35.9009 23.9399 36.4309 22.8699 36.4309" stroke="#743F40" stroke-width="0.5" stroke-miterlimit="10" stroke-linecap="round"/>
<path d="M30.4699 27.431C30.9007 27.431 31.2499 27.0818 31.2499 26.651C31.2499 26.2202 30.9007 25.871 30.4699 25.871C30.0392 25.871 29.6899 26.2202 29.6899 26.651C29.6899 27.0818 30.0392 27.431 30.4699 27.431Z" fill="#333333"/>
<path d="M28.5801 27.0409C29.1901 26.6909 30.7401 24.6909 32.7601 26.6909C33.1378 26.4901 33.4241 26.1521 33.5599 25.7465C33.6957 25.3409 33.6707 24.8986 33.4901 24.5109C32.8101 25.3209 31.7401 25.4309 30.2901 25.9309" fill="#333333"/>
<path d="M28.5801 27.0409C29.1901 26.6909 30.7401 24.6909 32.7601 26.6909C33.1378 26.4901 33.4241 26.1521 33.5599 25.7465C33.6957 25.3409 33.6707 24.8986 33.4901 24.5109C32.8101 25.3209 31.7401 25.4309 30.2901 25.9309" stroke="#333333" stroke-width="0.525155" stroke-miterlimit="10" stroke-linecap="round"/>
<path d="M32.9201 23.7809C32.6417 23.6604 32.3433 23.5925 32.0401 23.5809C31.7573 23.5592 31.4739 23.6145 31.2201 23.7409C31.0701 23.8409 30.8201 24.0809 30.6001 24.2609C30.3767 24.4639 30.1395 24.651 29.8901 24.8209C29.3835 25.1924 28.8145 25.4701 28.2101 25.6409C28.1589 25.6544 28.1055 25.6576 28.053 25.6503C28.0005 25.643 27.95 25.6253 27.9045 25.5984C27.8589 25.5714 27.8191 25.5356 27.7875 25.4931C27.7558 25.4507 27.7329 25.4023 27.7201 25.3509C27.6955 25.2476 27.7121 25.1388 27.7661 25.0474C27.8202 24.956 27.9077 24.8892 28.0101 24.8609C28.5436 24.7633 29.0551 24.5702 29.5201 24.2909C29.7648 24.154 30.0018 24.0038 30.2301 23.8409C30.4802 23.6483 30.7442 23.4745 31.0201 23.3209C31.356 23.1857 31.7224 23.1442 32.0801 23.2009C32.4292 23.25 32.7674 23.3582 33.0801 23.5209C33.1033 23.5451 33.1163 23.5774 33.1163 23.6109C33.1163 23.6445 33.1033 23.6767 33.0801 23.7009C33.0687 23.7322 33.0458 23.758 33.016 23.7728C32.9863 23.7877 32.9519 23.7906 32.9201 23.7809Z" fill="#333333"/>
<path d="M21.6101 27.431C22.0409 27.431 22.3901 27.0818 22.3901 26.651C22.3901 26.2202 22.0409 25.871 21.6101 25.871C21.1793 25.871 20.8301 26.2202 20.8301 26.651C20.8301 27.0818 21.1793 27.431 21.6101 27.431Z" fill="#333333"/>
<path d="M23.5001 27.0409C22.8901 26.6909 21.3401 24.6909 19.3201 26.6909C18.9424 26.4901 18.6561 26.1521 18.5203 25.7465C18.3844 25.3409 18.4094 24.8986 18.5901 24.5109C19.2701 25.3209 20.3401 25.4309 21.7901 25.9309" fill="#333333"/>
<path d="M23.5001 27.0409C22.8901 26.6909 21.3401 24.6909 19.3201 26.6909C18.9424 26.4901 18.6561 26.1521 18.5203 25.7465C18.3844 25.3409 18.4094 24.8986 18.5901 24.5109C19.2701 25.3209 20.3401 25.4309 21.7901 25.9309" stroke="#333333" stroke-width="0.525155" stroke-miterlimit="10" stroke-linecap="round"/>
<path d="M19.0501 23.541C19.3628 23.3782 19.701 23.27 20.0501 23.221C20.4078 23.1643 20.7742 23.2057 21.1101 23.341C21.386 23.4945 21.65 23.6683 21.9001 23.861C22.1284 24.0238 22.3654 24.174 22.6101 24.311C23.0751 24.5902 23.5866 24.7833 24.1201 24.881C24.2247 24.8958 24.3192 24.9515 24.3829 25.0358C24.4466 25.1202 24.4744 25.2263 24.4601 25.331C24.4429 25.4364 24.3851 25.5309 24.2992 25.5944C24.2133 25.6579 24.106 25.6854 24.0001 25.671C23.3956 25.5001 22.8267 25.2224 22.3201 24.851C22.0707 24.6811 21.8335 24.4939 21.6101 24.291C21.3901 24.111 21.1401 23.871 20.9901 23.771C20.7363 23.6445 20.4529 23.5893 20.1701 23.611C19.8669 23.6226 19.5685 23.6904 19.2901 23.811C19.2581 23.8218 19.2233 23.8206 19.192 23.8078C19.1608 23.7949 19.1352 23.7712 19.1201 23.741C19.1014 23.7336 19.0845 23.7223 19.0706 23.7078C19.0566 23.6933 19.046 23.676 19.0394 23.657C19.0327 23.638 19.0302 23.6178 19.0321 23.5978C19.0339 23.5778 19.0401 23.5584 19.0501 23.541Z" fill="#333333"/>
<path d="M27.8901 32.861C27.5747 32.9745 27.2807 33.1402 27.0201 33.351C26.7717 33.5627 26.4564 33.6797 26.1301 33.681H26.0001C25.7123 33.6785 25.4352 33.572 25.2201 33.381C24.9496 33.1556 24.6416 32.9796 24.3101 32.861" stroke="#BA8D86" stroke-width="0.75" stroke-linecap="round" stroke-linejoin="round"/>
<path d="M21.6499 40.2309C22.8195 41.3541 24.3783 41.9814 25.9999 41.9814C27.6215 41.9814 29.1803 41.3541 30.3499 40.2309C32.8199 37.7709 35.1299 36.5609 35.4999 33.0309C35.5825 32.1996 35.5825 31.3622 35.4999 30.5309C37.4999 30.5309 38.2599 28.4809 38.4999 26.5309C38.7799 24.2409 38.2299 22.5309 36.4999 22.5309V20.5309C36.4999 15.0709 33.9999 10.5309 25.9999 10.5309C17.9999 10.5309 15.4999 15.0409 15.4999 20.5309V22.5309C13.7699 22.5309 13.2199 24.2409 13.4999 26.5309C13.7399 28.5309 14.4999 30.5309 16.4999 30.5309C16.4174 31.3622 16.4174 32.1996 16.4999 33.0309C16.8699 36.5609 19.1799 37.7709 21.6499 40.2309Z" stroke="#333333" stroke-width="1.5" stroke-linejoin="round"/>
<path d="M18 22.9209V23.9209H24C24.8939 23.8915 25.7572 23.5879 26.4728 23.0513C27.1883 22.5146 27.7215 21.7709 28 20.9209C29 17.9209 34 18.9209 34 18.9209V14.9209H18V22.9209Z" fill="#EABDB7"/>
<path d="M42.9001 55.9209C41.9623 54.6393 40.7265 53.6054 39.2996 52.9085C37.8726 52.2116 36.2974 51.8726 34.7101 51.9209C32.0843 51.8704 29.5392 52.8297 27.6001 54.6009C27.1676 55.0095 26.5951 55.2371 26.0001 55.2371C25.4051 55.2371 24.8326 55.0095 24.4001 54.6009C22.461 52.8297 19.9159 51.8704 17.2901 51.9209C15.7028 51.8726 14.1276 52.2116 12.7006 52.9085C11.2737 53.6054 10.0379 54.6393 9.1001 55.9209C14.6164 57.364 20.2983 58.0767 26.0001 58.0409C31.702 58.0773 37.3839 57.3645 42.9001 55.9209Z" fill="#333333"/>
<path d="M9.1001 55.8909L12.0001 44.9209" stroke="#333333" stroke-width="1.5" stroke-linejoin="round"/>
<path d="M43.0001 55.8909L40.1001 44.9209" stroke="#333333" stroke-width="1.5" stroke-linejoin="round"/>
<path d="M37 13.9209C38.6569 13.9209 40 12.5778 40 10.9209C40 9.26404 38.6569 7.9209 37 7.9209C35.3431 7.9209 34 9.26404 34 10.9209C34 12.5778 35.3431 13.9209 37 13.9209Z" fill="#333333"/>
<path d="M38 16.9209C39.6569 16.9209 41 15.5778 41 13.9209C41 12.264 39.6569 10.9209 38 10.9209C36.3431 10.9209 35 12.264 35 13.9209C35 15.5778 36.3431 16.9209 38 16.9209Z" fill="#333333"/>
<path d="M40.67 12.2909C40.4582 12.0787 40.299 11.8198 40.2052 11.535C40.1115 11.2502 40.0857 10.9474 40.13 10.6509C40.2889 9.68573 40.0774 8.69616 39.5378 7.88028C38.9982 7.06441 38.1704 6.48245 37.22 6.2509C37.1433 6.23476 37.0692 6.20783 37 6.1709C36.71 6.0109 36.48 5.4309 36.28 5.1709C36.0221 4.808 35.7272 4.47287 35.4 4.1709C34.7788 3.54125 33.9344 3.18193 33.05 3.1709C32.5512 3.16992 32.0575 3.27206 31.6 3.4709C31.2999 3.59056 30.9699 3.61344 30.6561 3.53635C30.3423 3.45925 30.0605 3.28603 29.85 3.0409C29.1433 2.30588 28.277 1.74322 27.3181 1.39642C26.3592 1.04963 25.3334 0.927985 24.32 1.0409C22.7477 1.27472 21.2943 2.01398 20.1793 3.14696C19.0644 4.27994 18.3485 5.74507 18.14 7.3209C18.0459 7.80521 17.999 8.29752 18 8.7909C18.0103 9.14435 17.94 9.4955 17.7945 9.81776C17.6489 10.14 17.432 10.4249 17.16 10.6509C15.29 12.1909 14 15.2309 14 18.7409C14 23.8109 17 23.6809 17 26.9209C17 26.9209 18 23.6009 20 23.6009H22C22.9595 23.5423 23.8606 23.1203 24.52 22.4209C25.1664 21.6508 25.6312 20.7451 25.88 19.7709C26.38 18.3709 27.13 17.3009 28.62 17.2609C29.14 17.2609 29.67 17.3109 30.19 17.2609C30.912 17.2016 31.6108 16.9779 32.233 16.607C32.8552 16.236 33.3844 15.7277 33.78 15.1209C33.78 15.3409 33.95 15.5709 33.99 15.8009C34.0431 16.1315 34.0666 16.4661 34.06 16.8009C34.0317 17.432 33.9582 18.0603 33.84 18.6809C33.5069 19.948 33.5627 21.2859 34 22.5209C34.5713 23.9231 34.9091 25.4095 35 26.9209C35 25.3709 35.69 25.3609 36.4 24.1809C36.8148 24.5314 37.3478 24.7103 37.89 24.6809C38.3104 24.6456 38.7124 24.4928 39.0502 24.2399C39.3879 23.9871 39.6477 23.6444 39.8 23.2509C40.0588 22.6593 40.0725 21.9893 39.8382 21.3876C39.6039 20.786 39.1407 20.3017 38.55 20.0409L38.28 19.9409H37.94C37.9806 19.5422 38.0006 19.1417 38 18.7409C38.0002 17.7929 37.8996 16.8476 37.7 15.9209C37.9141 16.154 38.1784 16.3355 38.4729 16.4515C38.7674 16.5676 39.0844 16.6152 39.4 16.5909C39.8191 16.5507 40.2187 16.3947 40.5543 16.1404C40.8898 15.8861 41.148 15.5435 41.3 15.1509C41.4903 14.6654 41.5321 14.1343 41.4199 13.6251C41.3077 13.1159 41.0467 12.6515 40.67 12.2909Z" fill="#333333"/>
<path d="M40.67 12.2909C40.4582 12.0787 40.299 11.8198 40.2052 11.535C40.1115 11.2502 40.0857 10.9474 40.13 10.6509C40.2889 9.68573 40.0774 8.69615 39.5378 7.88028C38.9982 7.06441 38.1704 6.48245 37.22 6.2509C37.1433 6.23476 37.0692 6.20783 37 6.1709C36.71 6.0109 36.48 5.4309 36.28 5.1709C36.0221 4.808 35.7272 4.47287 35.4 4.1709C34.7788 3.54125 33.9344 3.18193 33.05 3.1709C32.5512 3.16993 32.0575 3.27206 31.6 3.4709C31.2999 3.59056 30.9699 3.61344 30.6561 3.53635C30.3423 3.45925 30.0605 3.28603 29.85 3.0409C29.1433 2.30588 28.277 1.74322 27.3181 1.39642C26.3592 1.04963 25.3334 0.927985 24.32 1.0409C22.7477 1.27472 21.2943 2.01398 20.1793 3.14696C19.0644 4.27994 18.3485 5.74507 18.14 7.3209C18.0459 7.80521 17.999 8.29752 18 8.7909C18.0103 9.14435 17.94 9.4955 17.7945 9.81776C17.6489 10.14 17.432 10.4249 17.16 10.6509C15.29 12.1909 14 15.2309 14 18.7409C14 23.8109 17 23.6809 17 26.9209C17 26.9209 18 23.6009 20 23.6009H22C22.9595 23.5423 23.8606 23.1203 24.52 22.4209C25.1664 21.6508 25.6312 20.7451 25.88 19.7709C26.38 18.3709 27.13 17.3009 28.62 17.2609C29.14 17.2609 29.67 17.3109 30.19 17.2609C30.912 17.2016 31.6108 16.9779 32.233 16.607C32.8552 16.236 33.3844 15.7277 33.78 15.1209C33.78 15.3409 33.95 15.5709 33.99 15.8009C34.0431 16.1315 34.0666 16.4661 34.06 16.8009C34.0317 17.432 33.9582 18.0603 33.84 18.6809C33.5069 19.948 33.5627 21.2859 34 22.5209C34.5713 23.9231 34.9091 25.4095 35 26.9209C35 25.3709 35.69 25.3609 36.4 24.1809C36.8148 24.5314 37.3478 24.7103 37.89 24.6809C38.3104 24.6456 38.7124 24.4928 39.0502 24.2399C39.3879 23.9871 39.6477 23.6444 39.8 23.2509C40.0588 22.6593 40.0725 21.9893 39.8382 21.3876C39.6039 20.786 39.1407 20.3017 38.55 20.0409L38.28 19.9409H37.94C37.9806 19.5422 38.0006 19.1417 38 18.7409C38.0002 17.7929 37.8996 16.8476 37.7 15.9209C37.9141 16.154 38.1784 16.3355 38.4729 16.4515C38.7674 16.5676 39.0844 16.6152 39.4 16.5909C39.8191 16.5507 40.2187 16.3947 40.5543 16.1404C40.8898 15.8861 41.148 15.5435 41.3 15.1509C41.4903 14.6654 41.5321 14.1343 41.4199 13.6251C41.3077 13.1159 41.0467 12.6515 40.67 12.2909V12.2909Z" stroke="#333333" stroke-linecap="round" stroke-linejoin="round"/>
<path d="M37.75 14.2009C37.75 15.8709 36.96 17.2009 36 17.2009C35.04 17.2009 34.26 15.8609 34.26 14.2009C34.26 12.5409 35 11.9209 36 11.9209C37 11.9209 37.75 12.5509 37.75 14.2009Z" fill="#F7D2DF"/>
<path d="M37.75 14.2009C37.75 15.8709 36.96 17.2009 36 17.2009C35.04 17.2009 34.26 15.8609 34.26 14.2009C34.26 12.5409 35 11.9209 36 11.9209C37 11.9209 37.75 12.5509 37.75 14.2009Z" stroke="#333333" stroke-linejoin="round"/>
<path d="M34.26 20.6409C34.26 18.9709 35.03 17.6409 36 17.6409C36.97 17.6409 37.75 18.9809 37.75 20.6409C37.75 22.3009 37 22.9209 36 22.9209C35 22.9209 34.26 22.2909 34.26 20.6409Z" fill="#F7D2DF"/>
<path d="M34.26 20.6409C34.26 18.9709 35.03 17.6409 36 17.6409C36.97 17.6409 37.75 18.9809 37.75 20.6409C37.75 22.3009 37 22.9209 36 22.9209C35 22.9209 34.26 22.2909 34.26 20.6409Z" stroke="#333333" stroke-linejoin="round"/>
<path d="M34.13 14.2909C35.57 15.1209 36.34 16.4709 35.86 17.2909C35.38 18.1109 33.86 18.1409 32.4 17.2909C30.94 16.4409 30.77 15.5009 31.23 14.6609C31.69 13.8209 32.67 13.4709 34.13 14.2909Z" fill="#F7D2DF"/>
<path d="M34.13 14.2909C35.57 15.1209 36.34 16.4709 35.86 17.2909C35.38 18.1109 33.86 18.1409 32.4 17.2909C30.94 16.4409 30.77 15.5009 31.23 14.6609C31.69 13.8209 32.67 13.4709 34.13 14.2909Z" stroke="#333333" stroke-linejoin="round"/>
<path d="M37.8999 20.5409C36.4699 19.7109 35.6999 18.3609 36.1899 17.5409C36.6799 16.7209 38.1899 16.6909 39.6499 17.5409C41.1099 18.3909 41.2399 19.3609 40.7499 20.2009C40.2599 21.0409 39.3399 21.3709 37.8999 20.5409Z" fill="#F7D2DF"/>
<path d="M37.8999 20.5409C36.4699 19.7109 35.6999 18.3609 36.1899 17.5409C36.6799 16.7209 38.1899 16.6909 39.6499 17.5409C41.1099 18.3909 41.2399 19.3609 40.7499 20.2009C40.2599 21.0409 39.3399 21.3709 37.8999 20.5409Z" stroke="#333333" stroke-linejoin="round"/>
<path d="M32.3599 17.5108C33.7799 16.6808 35.3599 16.6908 35.8199 17.5108C36.2799 18.3308 35.5299 19.6908 34.0899 20.5108C32.6499 21.3308 31.7299 20.9808 31.2499 20.1408C30.7699 19.3008 30.9299 18.3408 32.3599 17.5108Z" fill="#F7D2DF"/>
<path d="M32.3599 17.5108C33.7799 16.6808 35.3599 16.6908 35.8199 17.5108C36.2799 18.3308 35.5299 19.6908 34.0899 20.5108C32.6499 21.3308 31.7299 20.9808 31.2499 20.1408C30.7699 19.3008 30.9299 18.3408 32.3599 17.5108Z" stroke="#333333" stroke-linejoin="round"/>
<path d="M39.65 17.331C38.21 18.161 36.65 18.151 36.19 17.331C35.73 16.511 36.47 15.151 37.9 14.331C39.33 13.511 40.28 13.861 40.75 14.701C41.22 15.541 41.08 16.501 39.65 17.331Z" fill="#F7D2DF"/>
<path d="M39.65 17.331C38.21 18.161 36.65 18.151 36.19 17.331C35.73 16.511 36.47 15.151 37.9 14.331C39.33 13.511 40.28 13.861 40.75 14.701C41.22 15.541 41.08 16.501 39.65 17.331Z" stroke="#333333" stroke-linejoin="round"/>
<path d="M37.36 17.4209C37.356 17.689 37.2729 17.9499 37.1211 18.1709C36.9693 18.3919 36.7556 18.5631 36.5067 18.663C36.2579 18.7629 35.9851 18.787 35.7226 18.7323C35.4601 18.6776 35.2197 18.5465 35.0315 18.3555C34.8433 18.1645 34.7157 17.9222 34.6648 17.6589C34.614 17.3957 34.642 17.1233 34.7455 16.8759C34.849 16.6286 35.0233 16.4174 35.2465 16.2688C35.4697 16.1202 35.7319 16.0409 36 16.0409C36.3607 16.0409 36.7066 16.1842 36.9617 16.4392C37.2167 16.6943 37.36 17.0402 37.36 17.4009V17.4209Z" fill="#D17196"/>
<path d="M37.7799 17.4209C37.776 17.689 37.6929 17.95 37.5411 18.171C37.3892 18.392 37.1755 18.5632 36.9267 18.6631C36.6778 18.7629 36.405 18.787 36.1425 18.7323C35.8801 18.6776 35.6396 18.5465 35.4514 18.3556C35.2632 18.1646 35.1356 17.9222 35.0848 17.659C35.0339 17.3957 35.062 17.1233 35.1655 16.876C35.269 16.6286 35.4433 16.4174 35.6665 16.2688C35.8897 16.1202 36.1518 16.041 36.4199 16.0409C36.5976 16.0396 36.7737 16.0736 36.9381 16.141C37.1025 16.2084 37.2518 16.3077 37.3775 16.4334C37.5031 16.559 37.6025 16.7083 37.6699 16.8727C37.7372 17.0371 37.7712 17.2133 37.7699 17.3909L37.7799 17.4209Z" fill="#D17196"/>
<path d="M37.36 17.4209C37.356 17.689 37.2729 17.9499 37.1211 18.1709C36.9693 18.3919 36.7556 18.5631 36.5067 18.663C36.2579 18.7629 35.9851 18.787 35.7226 18.7323C35.4601 18.6776 35.2197 18.5465 35.0315 18.3555C34.8433 18.1645 34.7157 17.9222 34.6648 17.6589C34.614 17.3957 34.642 17.1233 34.7455 16.8759C34.849 16.6286 35.0233 16.4174 35.2465 16.2688C35.4697 16.1202 35.7319 16.0409 36 16.0409C36.3607 16.0409 36.7066 16.1842 36.9617 16.4392C37.2167 16.6943 37.36 17.0402 37.36 17.4009V17.4209Z" stroke="#333333" stroke-linejoin="round"/>
<path d="M36 31.9209C36 31.9209 35.59 37.5609 30.8 40.2409C26.01 42.9209 26 49.9209 26 49.9209C26.5411 49.3802 27.2428 49.0294 28 48.9209C28 48.9209 26 52.9209 29 55.9209L38 54.9209C38 54.9209 35 51.9209 36 49.9209C36.39 50.7009 37 51.7909 38 51.9209C37.618 50.6669 37.7436 49.3131 38.35 48.1509C39.1833 46.5388 39.7089 44.7855 39.9 42.9809C39.9969 40.141 39.3415 37.3259 38 34.8209C37.7286 34.268 37.4213 33.7336 37.08 33.2209C36.92 33.0409 36 32.1109 36 31.9209Z" fill="#333333"/>
<path d="M36 31.9209C36 31.9209 35.59 37.5609 30.8 40.2409C26.01 42.9209 26 49.9209 26 49.9209C26.5411 49.3802 27.2428 49.0294 28 48.9209C28 48.9209 26 52.9209 29 55.9209L38 54.9209C38 54.9209 35 51.9209 36 49.9209C36.39 50.7009 37 51.7909 38 51.9209C37.618 50.6669 37.7436 49.3131 38.35 48.1509C39.1833 46.5388 39.7089 44.7855 39.9 42.9809C39.9969 40.141 39.3415 37.3259 38 34.8209C37.7286 34.268 37.4213 33.7336 37.08 33.2209C36.92 33.0409 36 32.1109 36 31.9209Z" stroke="#333333" stroke-linejoin="round"/>
<path d="M17 20.9209C18.0982 20.9518 19.187 20.7114 20.17 20.2209C21.0926 19.7243 21.8476 18.9658 22.34 18.0409C22.6183 17.5326 22.922 17.0387 23.25 16.5609C23.6161 16.0697 24.0623 15.6438 24.57 15.3009C25.06 14.9469 25.6325 14.7243 26.2329 14.6543C26.8333 14.5843 27.4417 14.6692 28 14.9009C27.4582 14.855 26.9128 14.9199 26.397 15.0919C25.8812 15.2638 25.4058 15.5391 25 15.9009C24.6111 16.2474 24.2743 16.6482 24 17.0909C23.68 17.5409 23.5 17.9809 23.17 18.5309C22.857 19.0687 22.4623 19.5545 22 19.9709C21.328 20.5624 20.5094 20.9626 19.6299 21.1297C18.7504 21.2968 17.8421 21.2247 17 20.9209Z" fill="#666666"/>
<path d="M36 36.9209C36.4814 38.6935 36.3583 40.5761 35.65 42.2709C35.2784 43.1349 34.7532 43.9243 34.1 44.6009C33.78 44.9209 33.35 45.2409 33.1 45.5009L32.64 45.9109L32.24 46.3809C31.2142 47.7164 30.665 49.3569 30.68 51.0409C30.6686 51.8884 30.7763 52.7333 31 53.5509C31.1706 54.4001 31.5107 55.2062 32 55.9209C30.683 54.6327 29.919 52.8825 29.87 51.0409C29.8094 50.109 29.9006 49.1735 30.14 48.2709C30.4105 47.3595 30.8517 46.5077 31.44 45.7609L31.91 45.2309C32.08 45.0609 32.27 44.9209 32.45 44.7609L33.45 43.9309C34.0607 43.3549 34.568 42.6784 34.95 41.9309C35.7287 40.3803 36.0906 38.6537 36 36.9209Z" fill="#666666"/>
</svg>
