<svg width="90" height="101" viewBox="0 0 90 101" fill="none" xmlns="http://www.w3.org/2000/svg">
<path d="M87.1787 83.5414C86.6012 81.6586 85.5018 79.9786 84.0081 78.6968C82.5145 77.415 80.6882 76.5841 78.7414 76.3008L55.8403 73.8872V65.9949H34.1446V73.8389L11.2435 76.2525C9.29678 76.5359 7.47041 77.3668 5.9768 78.6486C4.48319 79.9304 3.38372 81.6103 2.80627 83.4932L1.60095 90.7338C15.358 96.4192 30.1098 99.2993 44.9925 99.2054C59.8751 99.2993 74.6269 96.4192 88.384 90.7338L87.1787 83.5414Z" fill="#F3D2C9"/>
<path d="M88.3839 90.7821L87.1786 83.5414C86.6012 81.6586 85.5017 79.9786 84.0081 78.6968C82.5145 77.415 80.6881 76.5841 78.7414 76.3008L55.8403 73.8872V65.9949H34.1445V68.4084L48.2709 84.169C49.7936 85.7922 50.6537 87.9278 50.6815 90.1546V99.133C63.6413 98.5879 76.4038 95.7611 88.3839 90.7821Z" fill="#E7C8C1"/>
<path d="M87.1787 83.5414C86.6012 81.6586 85.5018 79.9786 84.0081 78.6968C82.5145 77.415 80.6882 76.5841 78.7414 76.3007C72.1122 75.3353 65.2901 74.6595 58.4197 74.2492C57.7523 77.2886 56.0451 79.9989 53.5933 81.9116C51.1415 83.8243 48.0992 84.8191 44.9925 84.724C41.5694 84.724 32.7464 82.3105 31.5411 74.2009C24.5985 74.5871 17.8005 75.287 11.2435 76.2766C9.29678 76.56 7.47041 77.3909 5.9768 78.6727C4.48319 79.9544 3.38372 81.6344 2.80627 83.5172L1.60095 90.7579C15.358 96.4433 30.1098 99.3234 44.9925 99.2295C59.8751 99.3234 74.6269 96.4433 88.384 90.7579L87.1787 83.5414Z" fill="#717171"/>
<path d="M79.6816 82.3104C71.9561 80.7969 64.1481 79.7411 56.2984 79.1487C54.9878 80.9079 53.2806 82.3322 51.3158 83.3053C49.351 84.2784 47.1844 84.7728 44.9925 84.7481C42.801 84.67 40.6501 84.1336 38.6781 83.1734C36.706 82.2132 34.9565 80.8505 33.5419 79.1728C25.7414 79.7778 17.9823 80.8334 10.3034 82.3346C8.14897 82.6552 6.1497 83.6456 4.5881 85.1658C3.02651 86.6859 1.98156 88.659 1.60095 90.8062C15.358 96.4916 30.1098 99.3716 44.9925 99.2777C59.8751 99.3716 74.6269 96.4916 88.384 90.8062C88.0011 88.6576 86.956 86.6829 85.3953 85.1593C83.8345 83.6356 81.8365 82.6394 79.6816 82.3104Z" fill="#606060"/>
<path d="M87.1787 83.5415C86.6012 81.6587 85.5017 79.9787 84.0081 78.6969C82.5145 77.4151 80.6881 76.5842 78.7414 76.3008C72.1122 75.3354 65.2901 74.6596 58.4197 74.2734C58.0008 76.3526 57.072 78.2949 55.717 79.9253C54.362 81.5558 52.6233 82.8234 50.6575 83.6139V99.1089C63.6241 98.5753 76.3951 95.7566 88.384 90.7822L87.1787 83.5415Z" fill="#606060"/>
<path d="M88.3839 90.8062C88.0033 88.6591 86.9584 86.686 85.3968 85.1658C83.8352 83.6456 81.8359 82.6552 79.6815 82.3346C71.9538 80.8347 64.1466 79.779 56.2983 79.1729C54.9853 80.9277 53.2769 82.3473 51.3122 83.3161C49.3476 84.2849 47.1823 84.7756 44.9924 84.7482V99.2295C59.8711 99.3303 74.6211 96.467 88.3839 90.8062Z" fill="#4D4D4D"/>
<path d="M29.1306 98.1676C34.3867 98.8948 39.6866 99.2577 44.9926 99.2537C50.3959 99.244 55.7922 98.865 61.1439 98.1194C60.2038 93.8715 53.4058 90.5649 45.1373 90.5649C36.8688 90.5649 30.0226 93.8957 29.1306 98.1676Z" fill="#EEBF76"/>
<path d="M61.1437 98.1194C60.2036 93.8715 53.4056 90.5649 45.1371 90.5649H44.9924V99.2537C50.3958 99.2478 55.7924 98.8688 61.1437 98.1194Z" fill="#E5B674"/>
<path d="M29.1306 98.1676C34.3867 98.8948 39.6866 99.2577 44.9926 99.2537C50.3959 99.244 55.7922 98.865 61.1439 98.1194C60.2038 93.8715 53.4058 90.5649 45.1373 90.5649C36.8688 90.5649 30.0226 93.8957 29.1306 98.1676Z" stroke="#333333" stroke-width="2" stroke-miterlimit="10" stroke-linecap="round"/>
<path d="M55.8403 73.8872L78.7414 76.3008C80.6882 76.5842 82.5145 77.4151 84.0081 78.6968C85.5018 79.9786 86.6012 81.6586 87.1787 83.5414L88.384 90.7821C74.6269 96.4675 59.8751 99.3476 44.9925 99.2537C30.1098 99.3476 15.358 96.4675 1.60095 90.7821L2.80627 83.5414C3.38372 81.6586 4.48319 79.9786 5.9768 78.6968C7.47041 77.4151 9.29678 76.5842 11.2435 76.3008L34.1446 73.8872" stroke="#333333" stroke-width="2" stroke-linejoin="round"/>
<path d="M58.2509 75.0698C57.345 77.8768 55.5737 80.3241 53.1915 82.0599C50.8092 83.7957 47.9387 84.7308 44.9924 84.7308C42.0461 84.7308 39.1756 83.7957 36.7934 82.0599C34.4111 80.3241 32.6398 77.8768 31.7339 75.0698" stroke="#333333" stroke-width="2" stroke-linejoin="round"/>
<path d="M44.9926 70.2178C46.7585 70.2961 48.5222 70.0181 50.1787 69.4003C51.8352 68.7825 53.3507 67.8376 54.6351 66.6216C57.2605 65.4451 59.5321 63.6004 61.2239 61.2714C62.9157 58.9424 63.9686 56.2102 64.2777 53.3471C68.0142 53.3471 69.8704 47.6028 70.3284 43.6929C70.8828 39.083 68.9784 36.4522 65.5071 36.4522V29.2115C65.5071 18.3264 61.1679 9.90308 45.0167 9.90308C28.8654 9.90308 24.5262 18.3505 24.5262 29.2115V36.4522C21.0549 36.4522 19.1505 39.083 19.7049 43.6929C20.1871 47.6028 22.1156 53.2264 25.7557 53.3471C26.0648 56.2102 27.1176 58.9424 28.8094 61.2714C30.5012 63.6004 32.7729 65.4451 35.3982 66.6216C36.6769 67.8316 38.1846 68.7732 39.8323 69.3908C41.4801 70.0084 43.2346 70.2896 44.9926 70.2178Z" fill="#F3D2C9"/>
<path d="M65.4831 36.4529V29.2123C65.4831 18.3271 61.1439 9.90381 44.9926 9.90381C28.8413 9.90381 24.5022 18.3513 24.5022 29.2123V36.4529C24.0313 36.4571 23.5623 36.5137 23.104 36.6219C23.9427 37.3471 24.611 38.2488 25.0611 39.2627C25.5112 40.2766 25.7319 41.3776 25.7075 42.4868C27.3708 42.4868 28.1181 41.7386 28.1181 40.0733V33.967C28.1181 27.8607 34.4581 24.6748 36.5554 23.2508L37.0375 30.057C37.054 30.2958 37.1335 30.5259 37.268 30.7239C37.4025 30.9218 37.587 31.0804 37.8028 31.1835C38.0186 31.2866 38.2578 31.3305 38.4961 31.3107C38.7343 31.2909 38.9631 31.208 39.1589 31.0707L51.0433 22.8405C51.395 22.5889 51.8164 22.4536 52.2486 22.4536C52.6809 22.4536 53.1023 22.5889 53.454 22.8405L59.3118 26.8952C60.1485 27.5059 60.8307 28.3042 61.3037 29.2262C61.7767 30.1483 62.0275 31.1685 62.0359 32.2051V39.7836C62.0359 41.449 62.6385 42.3661 64.3019 42.3661C64.2775 41.2569 64.4982 40.1559 64.9483 39.1421C65.3983 38.1282 66.0666 37.2264 66.9053 36.5012C66.4333 36.447 65.9577 36.4309 65.4831 36.4529Z" fill="#E7C8C1"/>
<path d="M65.4829 36.4529V29.2123C65.4829 18.3271 61.1437 9.90382 44.9925 9.90382C42.9986 9.89644 41.0074 10.0498 39.0382 10.3624V26.8953C39.0383 28.2033 38.7661 29.4969 38.2389 30.6937C37.7118 31.8905 36.9413 32.9642 35.9767 33.8463C35.8311 33.9796 35.7246 34.15 35.6686 34.3394C35.6126 34.5287 35.6092 34.7298 35.6587 34.9209C35.7083 35.112 35.809 35.286 35.95 35.4241C36.091 35.5622 36.2669 35.6592 36.4588 35.7047C37.5544 35.9779 38.5551 36.5446 39.3535 37.344C40.1519 38.1434 40.7179 39.1453 40.9908 40.2422C41.0327 40.4352 41.1222 40.6145 41.2511 40.764C41.38 40.9134 41.5442 41.0281 41.7287 41.0977C41.9133 41.1673 42.1123 41.1895 42.3076 41.1624C42.503 41.1352 42.6884 41.0595 42.847 40.9422C43.2597 40.5979 43.7343 40.3358 44.2452 40.1698C44.4204 40.1255 44.6035 40.122 44.7803 40.1597C44.9571 40.1973 45.1229 40.2751 45.265 40.387C45.407 40.4989 45.5215 40.642 45.5997 40.8052C45.6778 40.9684 45.7175 41.1474 45.7157 41.3283V46.3244C45.74 46.8016 45.8915 47.2637 46.1543 47.6626C46.4171 48.0615 46.7817 48.3828 47.2103 48.5931C48.5843 49.3655 47.596 51.9721 45.7157 51.9721V58.4887C45.7209 58.7029 45.7972 58.9093 45.9325 59.0754C46.0678 59.2414 46.2544 59.3577 46.463 59.4059C49.6209 60.1541 51.2842 65.4398 45.7157 66.6465C43.064 67.1775 39.5203 64.233 38.315 66.6465C38.0905 67.2206 37.9053 67.8092 37.7606 68.4084C39.9609 69.6617 42.462 70.2877 44.9925 70.2186C46.7584 70.2969 48.5221 70.0188 50.1786 69.4011C51.8351 68.7833 53.3506 67.8383 54.635 66.6224C57.2604 65.4458 59.532 63.6012 61.2238 61.2721C62.9156 58.9431 63.9685 56.211 64.2776 53.3478C68.0141 53.2271 69.8703 47.6036 70.3283 43.6936C70.8586 39.0596 68.9542 36.4529 65.4829 36.4529Z" fill="#E7C8C1"/>
<path d="M43.4257 9.90386H43.1846C41.7883 9.96765 40.3963 10.1046 39.0142 10.3142V26.847C39.0157 28.3625 38.6431 29.8549 37.9294 31.1914C38.1298 31.2578 38.3428 31.2771 38.5518 31.2478C38.7608 31.2185 38.9603 31.1414 39.1348 31.0225C43.9705 29.1783 48.2882 26.1887 51.7183 22.3095C52.2487 21.682 52.6585 22.0682 53.1406 22.3095L59.1913 26.7746C60.0578 27.3894 60.764 28.2035 61.2507 29.1486C61.7373 30.0936 61.99 31.1419 61.9876 32.2051V39.7837C61.9876 41.449 62.5903 42.3662 64.2536 42.3662C64.2293 41.2569 64.45 40.156 64.9001 39.1421C65.3501 38.1282 66.0184 37.2264 66.8571 36.5012C66.6402 36.5012 65.9411 36.5012 65.4831 36.5012C64.4465 32.0603 71.0034 8.89016 43.4257 9.90386Z" fill="#D4B8B2"/>
<path d="M44.9926 70.2178C46.7585 70.2961 48.5222 70.0181 50.1787 69.4003C51.8352 68.7825 53.3507 67.8376 54.6351 66.6216C57.2605 65.4451 59.5321 63.6004 61.2239 61.2714C62.9157 58.9424 63.9686 56.2102 64.2777 53.3471C68.0142 53.3471 69.8704 47.6028 70.3284 43.6929C70.8828 39.083 68.9784 36.4522 65.5071 36.4522V29.2115C65.5071 18.3264 61.1679 9.90308 45.0167 9.90308C28.8654 9.90308 24.5262 18.3505 24.5262 29.2115V36.4522C21.0549 36.4522 19.1505 39.083 19.7049 43.6929C20.1871 47.6028 22.1156 53.2264 25.7557 53.3471C26.0648 56.2102 27.1176 58.9424 28.8094 61.2714C30.5012 63.6004 32.7729 65.4451 35.3982 66.6216C36.6769 67.8316 38.1846 68.7732 39.8323 69.3908C41.4801 70.0084 43.2346 70.2896 44.9926 70.2178V70.2178Z" stroke="#333333" stroke-width="2" stroke-linejoin="round"/>
<path d="M34.1445 66.043V73.887" stroke="#333333" stroke-width="2" stroke-linecap="round" stroke-linejoin="round"/>
<path d="M55.8403 66.043V73.887" stroke="#333333" stroke-width="2" stroke-linecap="round" stroke-linejoin="round"/>
<path d="M40.822 52.0444C41.6002 51.9516 42.3845 52.1587 43.0157 52.6237C43.6292 52.9308 44.3066 53.0879 44.9924 53.0822V53.0822C45.677 53.0768 46.352 52.9203 46.9692 52.6237C47.6014 52.1609 48.3848 51.954 49.1628 52.0444" stroke="#AF8582" stroke-width="2" stroke-miterlimit="10" stroke-linecap="round"/>
<path d="M64.2776 42.4868V31.8913C64.2755 30.3493 63.9045 28.8304 63.1957 27.4614C62.4869 26.0925 61.4609 24.9135 60.2036 24.0231L52.2244 18.3512C48.0001 23.2369 42.6098 26.9732 36.5553 29.2122L38.5079 18.3512L29.9501 24.0231C28.6415 24.9086 27.5702 26.1025 26.8305 27.4997C26.0907 28.8969 25.705 30.4547 25.7074 32.0361V42.4868C25.5872 40.9684 25.0811 39.506 24.2373 38.2387C23.3934 36.9713 22.2398 35.9412 20.8861 35.2461L18.4755 19.558L28.9617 11.3036L24.5021 8.69698C31.0219 6.92213 37.7999 6.29333 44.5345 6.83854L41.3765 2.66309C53.261 4.15949 64.2776 13.5241 64.2776 13.5241L71.5095 9.90376L69.0989 17.1444V35.1496C67.732 35.853 66.5698 36.8982 65.7251 38.1837C64.8804 39.4693 64.3818 40.9515 64.2776 42.4868Z" fill="#735744"/>
<path d="M71.5096 9.90376L64.2776 13.5241C64.2776 13.5241 53.261 4.15949 41.3766 2.66309L45.8603 8.81766C45.9571 8.94076 46.0166 9.089 46.0319 9.24489C46.0472 9.40078 46.0176 9.55779 45.9466 9.69738C45.8756 9.83697 45.7662 9.9533 45.6313 10.0326C45.4965 10.112 45.3417 10.151 45.1854 10.1451C39.7529 10.2282 34.329 10.6069 28.9376 11.2795L31.3483 12.7759C31.4825 12.8665 31.5925 12.9887 31.6685 13.1317C31.7445 13.2748 31.7843 13.4344 31.7843 13.5965C31.7843 13.7586 31.7445 13.9182 31.6685 14.0612C31.5925 14.2043 31.4825 14.3265 31.3483 14.4171L22.6941 21.344C22.5261 21.4761 22.397 21.6514 22.3206 21.8512C22.2441 22.0509 22.2233 22.2677 22.2602 22.4784C22.2602 22.4784 22.7423 28.2951 22.8869 30.8776C22.8894 31.7004 22.7115 32.5137 22.3658 33.2602C22.0201 34.0067 21.515 34.6681 20.8861 35.1978C22.0661 35.742 23.1107 36.5417 23.9445 37.5393C24.7783 38.5369 25.3804 39.7073 25.7074 40.9662V31.9878C25.709 30.4105 26.0965 28.8576 26.8361 27.4649C27.5757 26.0722 28.6449 24.8822 29.9501 23.9989L38.5079 18.3271L36.5312 29.2122C43.4015 26.678 46.6559 23.83 52.2003 18.3512L60.1795 24.0231C61.4413 24.9109 62.4719 26.0887 63.185 27.4578C63.8981 28.8269 64.2728 30.3472 64.2776 31.8913V42.4868C64.3978 40.9684 64.9039 39.506 65.7478 38.2387C66.5916 36.9713 67.7452 35.9412 69.0989 35.2461V17.241L71.5096 9.90376Z" fill="#614938"/>
<path d="M24.8876 42.4868C24.8428 41.1358 24.37 39.8341 23.5377 38.7699C23.1203 38.2272 22.6432 37.7334 22.1154 37.2976C21.5915 36.8649 21.0263 36.485 20.4279 36.1632C20.2896 36.0888 20.1686 35.9857 20.073 35.8609C19.9774 35.736 19.9094 35.5923 19.8735 35.4392C18.9414 30.2259 18.0494 25.0126 17.1977 19.7993C17.1652 19.5758 17.1902 19.3476 17.2703 19.1364C17.3505 18.9253 17.4831 18.7381 17.6557 18.5926L28.1179 10.1451L28.2866 12.5587L23.8028 10.0244C23.4489 9.82195 23.1894 9.48745 23.081 9.09401C22.9726 8.70057 23.0241 8.28016 23.2243 7.92463C23.3222 7.7452 23.4563 7.58815 23.6182 7.46348C23.7801 7.33882 23.9661 7.24928 24.1644 7.20057C27.4998 6.32755 30.8905 5.68245 34.3132 5.26972C36.0248 5.07664 37.7604 4.95596 39.4961 4.88355C41.2732 4.81281 43.053 4.86119 44.8236 5.02836L43.1362 7.9005L39.93 3.74918C39.6761 3.37702 39.5699 2.92339 39.6323 2.47702C39.6947 2.03065 39.9212 1.62364 40.2675 1.33562C40.648 1.05177 41.1216 0.922451 41.5934 0.97359C46.0278 1.63239 50.3215 3.02726 54.2974 5.10077C56.2499 6.11204 58.1488 7.22376 59.9866 8.43148C61.8358 9.6489 63.6145 10.9704 65.3141 12.3897L63.5302 12.1725L70.7621 8.67284C70.9393 8.58671 71.1317 8.53649 71.3284 8.52508C71.525 8.51366 71.7219 8.54127 71.9079 8.60631C72.0938 8.67136 72.2651 8.77255 72.4118 8.90409C72.5586 9.03563 72.6779 9.1949 72.7629 9.37277C72.9058 9.74568 72.9058 10.1584 72.7629 10.5313L70.1594 17.7719V17.3375L69.8943 35.3426C69.8945 35.5347 69.8403 35.7228 69.7378 35.8852C69.6354 36.0476 69.489 36.1775 69.3157 36.2598C68.716 36.5697 68.1504 36.9418 67.6283 37.37C67.1005 37.8058 66.6234 38.2996 66.206 38.8423C65.3736 39.9065 64.9009 41.2082 64.856 42.5592C64.8225 42.7557 64.7206 42.934 64.5684 43.0626C64.4162 43.1911 64.2235 43.2616 64.0244 43.2616C63.8252 43.2616 63.6325 43.1911 63.4803 43.0626C63.3281 42.934 63.2262 42.7557 63.1927 42.5592C63.168 40.8323 63.6913 39.1421 64.6873 37.7321C65.1619 37.0453 65.7117 36.4139 66.3265 35.8495C66.9551 35.2799 67.6419 34.7783 68.3756 34.3531L67.797 35.2944L67.4113 17.2892C67.3981 17.1609 67.3981 17.0314 67.4113 16.9031L69.822 9.51758L71.9192 11.3519L64.6873 15.0929C64.4122 15.234 64.1024 15.293 63.7947 15.2631C63.4871 15.2332 63.1945 15.1154 62.9516 14.9239C61.333 13.6459 59.6428 12.4613 57.8893 11.376C56.1266 10.2767 54.3082 9.26969 52.4412 8.35907C48.8082 6.50204 44.9018 5.23907 40.8702 4.61806L42.5335 1.72179L45.9084 5.65589C46.1926 6.03922 46.3163 6.51838 46.2533 6.99158C46.1903 7.46477 45.9455 7.89473 45.5709 8.19012C45.1978 8.47024 44.7331 8.59948 44.2692 8.55216C42.6688 8.36978 41.0585 8.28917 39.4479 8.3108C37.8087 8.3108 36.1694 8.3108 34.6266 8.52802C31.3778 8.82214 28.155 9.35455 24.9841 10.121L25.3939 7.29711L29.8053 9.95202C29.9713 10.049 30.1162 10.1782 30.2317 10.3319C30.3472 10.4856 30.431 10.6608 30.4781 10.8473C30.5253 11.0338 30.5348 11.2279 30.5062 11.4181C30.4776 11.6083 30.4114 11.7909 30.3116 11.9553C30.2177 12.1135 30.0951 12.2526 29.95 12.3656L19.3673 20.4993L19.8494 19.2683C20.5887 24.5138 21.3038 29.7593 21.9949 35.0047L21.4404 34.2324C22.1792 34.6498 22.8668 35.152 23.4895 35.7288C24.1108 36.2868 24.6613 36.9191 25.1287 37.6114C26.1187 39.0244 26.6414 40.7126 26.6233 42.4385C26.617 42.6583 26.5254 42.867 26.3678 43.0203C26.2102 43.1735 25.9992 43.2592 25.7796 43.2591C25.5769 43.2259 25.3919 43.1238 25.2558 42.9699C25.1196 42.816 25.0407 42.6198 25.0323 42.4144L24.8876 42.4868Z" fill="#333333"/>
<path d="M24.8876 42.4868C24.8428 41.1358 24.37 39.8341 23.5377 38.7699C23.1203 38.2272 22.6432 37.7334 22.1154 37.2976C21.5915 36.8649 21.0263 36.485 20.4279 36.1632C20.2896 36.0888 20.1686 35.9857 20.073 35.8609C19.9774 35.736 19.9094 35.5923 19.8735 35.4392C18.9414 30.2259 18.0494 25.0126 17.1977 19.7993C17.1652 19.5758 17.1902 19.3476 17.2703 19.1364C17.3505 18.9253 17.4831 18.7381 17.6557 18.5926L28.1179 10.1451L28.2866 12.5587L23.8028 10.0244C23.4489 9.82195 23.1894 9.48745 23.081 9.09401C22.9726 8.70057 23.0241 8.28016 23.2243 7.92463C23.3222 7.7452 23.4563 7.58815 23.6182 7.46348C23.7801 7.33882 23.9661 7.24928 24.1644 7.20057C27.4998 6.32755 30.8905 5.68245 34.3132 5.26972C36.0248 5.07664 37.7604 4.95596 39.4961 4.88355C41.2732 4.81281 43.053 4.86119 44.8236 5.02836L43.1362 7.9005L39.93 3.74918C39.6761 3.37702 39.5699 2.92339 39.6323 2.47702C39.6947 2.03065 39.9212 1.62364 40.2675 1.33562C40.648 1.05177 41.1216 0.922451 41.5934 0.97359C46.0278 1.63239 50.3215 3.02726 54.2974 5.10077C56.2499 6.11204 58.1488 7.22376 59.9866 8.43148C61.8358 9.6489 63.6145 10.9704 65.3141 12.3897L63.5302 12.1725L70.7621 8.67284C70.9393 8.58671 71.1317 8.53649 71.3284 8.52508C71.525 8.51366 71.7219 8.54127 71.9079 8.60631C72.0938 8.67136 72.2651 8.77255 72.4118 8.90409C72.5586 9.03563 72.6779 9.1949 72.7629 9.37277C72.9058 9.74568 72.9058 10.1584 72.7629 10.5313L70.1594 17.7719V17.3375L69.8943 35.3426C69.8945 35.5347 69.8403 35.7228 69.7378 35.8852C69.6354 36.0476 69.489 36.1775 69.3157 36.2598C68.716 36.5697 68.1504 36.9418 67.6283 37.37C67.1005 37.8058 66.6234 38.2996 66.206 38.8423C65.3736 39.9065 64.9009 41.2082 64.856 42.5592C64.8225 42.7557 64.7206 42.934 64.5684 43.0626C64.4162 43.1911 64.2235 43.2616 64.0244 43.2616C63.8252 43.2616 63.6325 43.1911 63.4803 43.0626C63.3281 42.934 63.2262 42.7557 63.1927 42.5592C63.168 40.8323 63.6913 39.1421 64.6873 37.7321C65.1619 37.0453 65.7117 36.4139 66.3265 35.8495C66.9551 35.2799 67.6419 34.7783 68.3756 34.3531L67.797 35.2944L67.4113 17.2892C67.3981 17.1609 67.3981 17.0314 67.4113 16.9031L69.822 9.51758L71.9192 11.3519L64.6873 15.0929C64.4122 15.234 64.1024 15.293 63.7947 15.2631C63.4871 15.2332 63.1945 15.1154 62.9516 14.9239C61.333 13.6459 59.6428 12.4613 57.8893 11.376C56.1266 10.2767 54.3082 9.26969 52.4412 8.35907C48.8082 6.50204 44.9018 5.23907 40.8702 4.61806L42.5335 1.72179L45.9084 5.65589C46.1926 6.03922 46.3163 6.51838 46.2533 6.99158C46.1903 7.46477 45.9455 7.89473 45.5709 8.19012C45.1978 8.47024 44.7331 8.59948 44.2692 8.55216C42.6688 8.36978 41.0585 8.28917 39.4479 8.3108C37.8087 8.3108 36.1694 8.3108 34.6266 8.52802C31.3778 8.82214 28.155 9.35455 24.9841 10.121L25.3939 7.29711L29.8053 9.95202C29.9713 10.049 30.1162 10.1782 30.2317 10.3319C30.3472 10.4856 30.431 10.6608 30.4781 10.8473C30.5253 11.0338 30.5348 11.2279 30.5062 11.4181C30.4776 11.6083 30.4114 11.7909 30.3116 11.9553C30.2177 12.1135 30.0951 12.2526 29.95 12.3656L19.3673 20.4993L19.8494 19.2683C20.5887 24.5138 21.3038 29.7593 21.9949 35.0047L21.4404 34.2324C22.1792 34.6498 22.8668 35.152 23.4895 35.7288C24.1108 36.2868 24.6613 36.9191 25.1287 37.6114C26.1187 39.0244 26.6414 40.7126 26.6233 42.4385C26.617 42.6583 26.5254 42.867 26.3678 43.0203C26.2102 43.1735 25.9992 43.2592 25.7796 43.2591C25.5769 43.2259 25.3919 43.1238 25.2558 42.9699C25.1196 42.816 25.0407 42.6198 25.0323 42.4144L24.8876 42.4868Z" fill="#333333"/>
<path d="M63.7231 42.4869L63.5544 35.0773V31.4087C63.4855 30.2754 63.1904 29.1675 62.6866 28.1504C62.1977 27.137 61.5183 26.2274 60.6857 25.4713C59.8902 24.7472 58.7813 24.0956 57.793 23.3715L51.5976 19.1719L52.9958 19.0271C50.8575 21.534 48.4299 23.7781 45.7639 25.7127C43.0122 27.5095 40.0987 29.0448 37.0614 30.2984C36.8609 30.3852 36.6406 30.4158 36.424 30.3869C36.2075 30.358 36.0028 30.2707 35.832 30.1343C35.6612 29.998 35.5305 29.8177 35.4541 29.6128C35.3777 29.4079 35.3583 29.1861 35.3981 28.971L37.4713 18.1341L39.1587 19.2443L32.8187 23.3233C31.8063 23.999 30.6009 24.6748 29.7813 25.3506C28.889 26.0632 28.1509 26.9501 27.6117 27.9573C27.0731 28.9702 26.7297 30.0755 26.5993 31.2156C26.5993 32.3258 26.5993 33.6291 26.5993 34.9083L26.4064 42.4386C26.4065 42.5104 26.392 42.5815 26.3639 42.6476C26.3357 42.7136 26.2945 42.7732 26.2427 42.8229C26.1908 42.8725 26.1295 42.9111 26.0623 42.9363C25.9952 42.9615 25.9236 42.9729 25.852 42.9696C25.7113 42.9696 25.5764 42.9137 25.477 42.8141C25.3775 42.7145 25.3216 42.5794 25.3216 42.4386L25.1288 34.9083C25.1288 33.6291 25.1288 32.4948 25.1288 31.0708C25.2278 29.7036 25.5878 28.368 26.1895 27.1367C26.7712 25.9094 27.5906 24.8101 28.6001 23.9025C29.6145 23.1018 30.6685 22.3527 31.758 21.6579L37.9775 17.41C38.0958 17.3281 38.2293 17.2706 38.37 17.2408C38.5108 17.211 38.6561 17.2095 38.7974 17.2365C38.9388 17.2634 39.0733 17.3183 39.1933 17.3978C39.3133 17.4773 39.4162 17.5799 39.4962 17.6997C39.5753 17.8148 39.6309 17.9444 39.6598 18.0811C39.6888 18.2177 39.6905 18.3588 39.6649 18.4961L37.7605 29.4054L36.0972 28.078C38.9887 26.8807 41.7713 25.4353 44.4139 23.7577C46.9948 22.0381 49.3583 20.012 51.453 17.7238C51.6273 17.5384 51.8637 17.4237 52.117 17.4014C52.3704 17.3792 52.6231 17.451 52.827 17.6031L58.8054 21.9717C59.859 22.7126 60.8654 23.5187 61.8187 24.3852C62.8117 25.2264 63.6447 26.2403 64.2776 27.378C64.8307 28.6019 65.1417 29.9215 65.1936 31.2639C65.1936 32.5913 65.1936 33.6774 65.1936 35.0049L65.0249 42.4145C65.0249 42.4863 65.0105 42.5574 64.9823 42.6234C64.9542 42.6895 64.9129 42.7491 64.8611 42.7987C64.8093 42.8484 64.7479 42.887 64.6808 42.9122C64.6136 42.9374 64.5421 42.9487 64.4704 42.9455C64.3912 42.9669 64.3084 42.972 64.2272 42.9603C64.146 42.9486 64.068 42.9204 63.998 42.8775C63.9281 42.8346 63.8676 42.7778 63.8203 42.7106C63.773 42.6434 63.74 42.5673 63.7231 42.4869Z" fill="#423831"/>
<path d="M36.1213 11.7863C38.99 11.4091 41.8892 11.3202 44.7755 11.5208C46.2302 11.66 47.6675 11.943 49.0665 12.3655C50.491 12.7445 51.8724 13.2702 53.1887 13.9344C53.3157 14.0056 53.4097 14.124 53.4503 14.2639C53.4909 14.4039 53.4748 14.5543 53.4056 14.6826C53.3503 14.7899 53.2616 14.8763 53.1528 14.9285C53.044 14.9808 52.9212 14.9961 52.803 14.9722C51.4409 14.6906 50.0649 14.4811 48.6808 14.3447C47.3067 14.1998 45.9085 14.1516 44.5104 13.9585C41.7381 13.5482 38.9418 13.2586 36.1213 12.8965C36.0483 12.8876 35.9777 12.8642 35.9138 12.8277C35.8498 12.7912 35.7938 12.7423 35.7489 12.6839C35.704 12.6255 35.6712 12.5588 35.6524 12.4875C35.6335 12.4163 35.6291 12.342 35.6392 12.269C35.6695 12.1529 35.7302 12.047 35.8149 11.9622C35.8996 11.8774 36.0054 11.8167 36.1213 11.7863Z" fill="#423831"/>
<path d="M34.8677 46.6864C35.9328 46.6864 36.7962 45.8219 36.7962 44.7556C36.7962 43.6892 35.9328 42.8247 34.8677 42.8247C33.8026 42.8247 32.9392 43.6892 32.9392 44.7556C32.9392 45.8219 33.8026 46.6864 34.8677 46.6864Z" fill="#3A3A3A"/>
<path d="M37.7605 39.0271C36.9611 38.803 36.1382 38.6797 35.3098 38.66C34.5157 38.6288 33.7205 38.6398 32.9275 38.693C32.1325 38.7224 31.3396 38.8064 30.5425 38.8974C29.7163 38.9824 28.9026 39.1663 28.1179 39.4455C28.5853 38.614 29.3246 37.9799 30.204 37.6562C31.0446 37.2981 31.9387 37.0911 32.8475 37.044C33.7603 36.9915 34.6747 37.1116 35.5454 37.3985C36.4487 37.6529 37.2342 38.2304 37.7605 39.0271Z" fill="#333333"/>
<path d="M52.2244 39.0268C52.7507 38.2302 53.5362 37.6528 54.4395 37.3985C55.3101 37.1116 56.2246 36.9915 57.1374 37.044C58.0461 37.0911 58.9402 37.2982 59.7808 37.6562C60.6603 37.9799 61.3995 38.614 61.8669 39.4455C61.0822 39.1663 60.2685 38.9824 59.4423 38.8974C58.6452 38.8064 57.8517 38.7224 57.0574 38.693C56.2643 38.6398 55.4692 38.6288 54.675 38.66C53.8467 38.6796 53.0238 38.8028 52.2244 39.0268Z" fill="#333333"/>
<path d="M55.3582 46.6864C56.4233 46.6864 57.2867 45.8219 57.2867 44.7556C57.2867 43.6892 56.4233 42.8247 55.3582 42.8247C54.2931 42.8247 53.4297 43.6892 53.4297 44.7556C53.4297 45.8219 54.2931 46.6864 55.3582 46.6864Z" fill="#3A3A3A"/>
<path d="M47.4705 56.5344C46.6955 56.5248 45.9266 56.6613 45.2063 56.9362C44.9631 57.0313 44.6932 57.0415 44.4423 56.9653C43.6996 56.7152 42.9159 56.6029 42.1319 56.6343C40.3779 56.9497 40.3009 57.5762 37.7781 58.2422L40.684 60.3735C41.3875 60.7959 42.2011 61.0106 43.0256 60.9914L46.7907 60.8486C47.616 60.8137 48.41 60.5372 49.0689 60.0553L52.3282 57.7695C49.3252 57.3074 48.8992 56.6508 47.4705 56.5344Z" fill="#D7ACA4"/>
<path d="M37.7942 58.0442C40.1792 58.475 42.6033 58.5689 45.0273 58.3243C47.4998 58.187 49.968 57.7218 52.3959 56.9356" stroke="#6B4B4B" stroke-width="1.1" stroke-miterlimit="10" stroke-linecap="round"/>
</svg>
