<svg width="41" height="45" viewBox="0 0 41 45" fill="none" xmlns="http://www.w3.org/2000/svg">
<path d="M38.5413 36.1818C38.2879 35.3569 37.8056 34.6208 37.1504 34.0592C36.4952 33.4976 35.694 33.1335 34.84 33.0093L24.7938 31.9518V28.4938H15.2763V31.9307L5.23 32.9882C4.37601 33.1124 3.57481 33.4764 2.9196 34.038C2.26438 34.5997 1.78207 35.3357 1.52875 36.1607L1 39.3332C7.03495 41.8243 13.5063 43.0862 20.035 43.045C26.5637 43.0862 33.0351 41.8243 39.07 39.3332L38.5413 36.1818Z" fill="#F3D2C9"/>
<path d="M39.07 39.3543L38.5413 36.1818C38.2879 35.3569 37.8056 34.6208 37.1504 34.0592C36.4952 33.4976 35.694 33.1335 34.84 33.0093L24.7937 31.9518V28.4938H15.2762V29.5513L21.4732 36.4568C22.1412 37.168 22.5185 38.1037 22.5307 39.0794V43.0133C28.2159 42.7745 33.8146 41.5359 39.07 39.3543V39.3543Z" fill="#E7C8C1"/>
<path d="M38.5413 36.1819C38.2879 35.3569 37.8056 34.6208 37.1504 34.0592C36.4952 33.4976 35.694 33.1335 34.84 33.0094C31.9319 32.5864 28.9392 32.2903 25.9253 32.1105C25.6325 33.4422 24.8836 34.6297 23.808 35.4678C22.7325 36.3058 21.3979 36.7417 20.035 36.7C18.5334 36.7 14.6629 35.6425 14.1342 32.0893C11.0886 32.2585 8.1064 32.5652 5.23 32.9988C4.37601 33.1229 3.57481 33.487 2.9196 34.0486C2.26438 34.6102 1.78207 35.3463 1.52875 36.1713L1 39.3438C7.03495 41.8348 13.5063 43.0967 20.035 43.0556C26.5637 43.0967 33.0351 41.8348 39.07 39.3438L38.5413 36.1819Z" fill="#717171"/>
<path d="M35.2524 35.6426C31.8634 34.9794 28.4382 34.5168 24.9947 34.2573C24.4198 35.0281 23.6708 35.6521 22.8089 36.0785C21.947 36.5048 20.9965 36.7215 20.035 36.7107C19.0736 36.6764 18.1301 36.4414 17.265 36.0207C16.3999 35.6 15.6324 35.0029 15.0119 34.2678C11.5899 34.5329 8.18616 34.9954 4.81758 35.6532C3.87249 35.7936 2.99545 36.2276 2.3104 36.8936C1.62536 37.5597 1.16697 38.4242 1 39.365C7.03495 41.856 13.5063 43.118 20.035 43.0768C26.5637 43.118 33.0351 41.856 39.07 39.365C38.902 38.4236 38.4436 37.5584 37.7589 36.8908C37.0743 36.2232 36.1978 35.7867 35.2524 35.6426V35.6426Z" fill="#606060"/>
<path d="M38.5412 36.1819C38.2879 35.3569 37.8056 34.6208 37.1504 34.0592C36.4951 33.4976 35.694 33.1336 34.84 33.0094C31.9318 32.5864 28.9391 32.2903 25.9252 32.1211C25.7414 33.0321 25.334 33.8831 24.7396 34.5975C24.1452 35.3119 23.3825 35.8672 22.5201 36.2136V43.0028C28.2083 42.769 33.8107 41.5339 39.07 39.3544L38.5412 36.1819Z" fill="#606060"/>
<path d="M39.07 39.365C38.9031 38.4242 38.4447 37.5597 37.7596 36.8936C37.0746 36.2275 36.1976 35.7936 35.2525 35.6531C31.8625 34.9959 28.4376 34.5334 24.9947 34.2678V34.2678C24.4187 35.0367 23.6693 35.6587 22.8074 36.0832C21.9456 36.5077 20.9957 36.7226 20.035 36.7106V43.0556C26.562 43.0998 33.0325 41.8452 39.07 39.365Z" fill="#4D4D4D"/>
<path d="M13.0767 42.5903C15.3824 42.909 17.7074 43.068 20.035 43.0662C22.4053 43.062 24.7726 42.8959 27.1203 42.5692C26.7078 40.708 23.7257 39.2592 20.0985 39.2592C16.4712 39.2592 13.4679 40.7186 13.0767 42.5903Z" fill="#EEBF76"/>
<path d="M27.1203 42.5692C26.7079 40.708 23.7257 39.2592 20.0985 39.2592H20.035V43.0662C22.4054 43.0636 24.7728 42.8976 27.1203 42.5692V42.5692Z" fill="#E5B674"/>
<path d="M13.0767 42.5903C15.3824 42.909 17.7074 43.068 20.035 43.0662C22.4053 43.062 24.7726 42.8959 27.1203 42.5692C26.7078 40.708 23.7257 39.2592 20.0985 39.2592C16.4712 39.2592 13.4679 40.7186 13.0767 42.5903Z" stroke="#333333" stroke-width="2" stroke-miterlimit="10" stroke-linecap="round"/>
<path d="M24.7938 31.9519L34.84 33.0094C35.694 33.1336 36.4952 33.4976 37.1504 34.0592C37.8056 34.6208 38.2879 35.3569 38.5413 36.1819L39.07 39.3544C33.0351 41.8454 26.5637 43.1074 20.035 43.0662C13.5063 43.1074 7.03495 41.8454 1 39.3544L1.52875 36.1819C1.78207 35.3569 2.26438 34.6208 2.9196 34.0592C3.57481 33.4976 4.37601 33.1336 5.23 33.0094L15.2763 31.9519" stroke="#333333" stroke-width="2" stroke-linejoin="round"/>
<path d="M25.8513 32.4701C25.4538 33.6999 24.6768 34.7722 23.6318 35.5328C22.5867 36.2933 21.3275 36.703 20.035 36.703C18.7425 36.703 17.4833 36.2933 16.4382 35.5328C15.3932 34.7722 14.6162 33.6999 14.2188 32.4701" stroke="#333333" stroke-width="2" stroke-linejoin="round"/>
<path d="M20.035 30.345C20.8097 30.3793 21.5834 30.2575 22.3101 29.9868C23.0367 29.7161 23.7016 29.3021 24.265 28.7693C25.4167 28.2538 26.4133 27.4456 27.1554 26.4251C27.8976 25.4047 28.3594 24.2076 28.495 22.9531C30.1342 22.9531 30.9484 20.4362 31.1494 18.7231C31.3926 16.7033 30.5572 15.5506 29.0344 15.5506V12.3781C29.0344 7.60876 27.1309 3.91809 20.0456 3.91809C12.9604 3.91809 11.0569 7.61934 11.0569 12.3781V15.5506C9.53406 15.5506 8.69863 16.7033 8.94186 18.7231C9.15336 20.4362 9.99936 22.9002 11.5962 22.9531C11.7318 24.2076 12.1937 25.4047 12.9358 26.4251C13.678 27.4456 14.6745 28.2538 15.8262 28.7693C16.3871 29.2995 17.0485 29.712 17.7713 29.9826C18.4942 30.2532 19.2638 30.3765 20.035 30.345Z" fill="#F3D2C9"/>
<path d="M29.0238 15.55V12.3775C29.0238 7.60815 27.1203 3.91748 20.0351 3.91748C12.9498 3.91748 11.0463 7.61873 11.0463 12.3775V15.55C10.8398 15.5518 10.634 15.5766 10.433 15.624C10.8009 15.9417 11.0941 16.3369 11.2915 16.7811C11.489 17.2253 11.5858 17.7077 11.5751 18.1937C12.3048 18.1937 12.6326 17.8659 12.6326 17.1362V14.4608C12.6326 11.7853 15.4138 10.3894 16.3338 9.76545L16.5453 12.7476C16.5526 12.8522 16.5875 12.9531 16.6464 13.0398C16.7054 13.1265 16.7864 13.196 16.881 13.2412C16.9757 13.2864 17.0807 13.3056 17.1852 13.2969C17.2897 13.2882 17.39 13.2519 17.4759 13.1918L22.6894 9.58568C22.8437 9.47544 23.0285 9.41618 23.2182 9.41618C23.4078 9.41618 23.5926 9.47544 23.7469 9.58568L26.3166 11.3623C26.6837 11.6298 26.9829 11.9796 27.1904 12.3836C27.3979 12.7876 27.5079 13.2346 27.5116 13.6888V17.0093C27.5116 17.739 27.776 18.1409 28.5057 18.1409C28.495 17.6548 28.5918 17.1725 28.7892 16.7282C28.9867 16.284 29.2798 15.8889 29.6478 15.5711C29.4407 15.5474 29.232 15.5403 29.0238 15.55Z" fill="#E7C8C1"/>
<path d="M29.0237 15.55V12.3775C29.0237 7.60821 27.1202 3.91753 20.035 3.91753C19.1603 3.9143 18.2868 3.98149 17.423 4.11846V11.3623C17.423 11.9354 17.3036 12.5023 17.0723 13.0266C16.8411 13.551 16.5031 14.0215 16.0799 14.4079C16.0161 14.4663 15.9693 14.541 15.9448 14.624C15.9202 14.7069 15.9187 14.795 15.9405 14.8788C15.9622 14.9625 16.0064 15.0387 16.0682 15.0993C16.1301 15.1598 16.2072 15.2023 16.2914 15.2222C16.7721 15.3419 17.211 15.5902 17.5613 15.9404C17.9115 16.2907 18.1598 16.7297 18.2795 17.2103C18.2979 17.2948 18.3372 17.3734 18.3937 17.4389C18.4502 17.5044 18.5223 17.5547 18.6032 17.5851C18.6842 17.6156 18.7715 17.6254 18.8572 17.6135C18.9429 17.6016 19.0242 17.5684 19.0938 17.517C19.2748 17.3662 19.483 17.2513 19.7072 17.1786C19.784 17.1592 19.8643 17.1576 19.9419 17.1741C20.0195 17.1906 20.0922 17.2247 20.1545 17.2738C20.2168 17.3228 20.2671 17.3855 20.3013 17.457C20.3356 17.5285 20.353 17.6069 20.3522 17.6862V19.8752C20.3629 20.0843 20.4294 20.2868 20.5446 20.4615C20.6599 20.6363 20.8199 20.7771 21.0079 20.8693C21.6107 21.2077 21.1771 22.3498 20.3522 22.3498V25.205C20.3545 25.2989 20.388 25.3893 20.4473 25.4621C20.5067 25.5348 20.5886 25.5858 20.6801 25.6069C22.0654 25.9347 22.7951 28.2506 20.3522 28.7794C19.189 29.012 17.6345 27.7219 17.1057 28.7794C17.0072 29.0309 16.926 29.2888 16.8625 29.5513C17.8277 30.1004 18.9249 30.3747 20.035 30.3445C20.8097 30.3788 21.5833 30.2569 22.31 29.9863C23.0367 29.7156 23.7015 29.3015 24.265 28.7688C25.4167 28.2533 26.4132 27.445 27.1554 26.4246C27.8975 25.4041 28.3594 24.207 28.495 22.9525C30.1341 22.8997 30.9484 20.4357 31.1493 18.7225C31.382 16.6921 30.5465 15.55 29.0237 15.55Z" fill="#E7C8C1"/>
<path d="M19.3477 3.91756H19.242C18.6295 3.94551 18.0188 4.00552 17.4125 4.09733V11.3412C17.4132 12.0052 17.2497 12.6591 16.9366 13.2447C17.0245 13.2738 17.118 13.2823 17.2097 13.2694C17.3014 13.2566 17.3889 13.2228 17.4654 13.1707C19.5868 12.3626 21.4808 11.0528 22.9855 9.35311C23.2182 9.07816 23.398 9.24736 23.6095 9.35311L26.2638 11.3095C26.6439 11.5788 26.9537 11.9356 27.1672 12.3496C27.3807 12.7637 27.4916 13.223 27.4905 13.6889V17.0094C27.4905 17.7391 27.7549 18.1409 28.4846 18.1409C28.4739 17.6549 28.5707 17.1725 28.7681 16.7283C28.9656 16.2841 29.2587 15.889 29.6266 15.5712C29.5315 15.5712 29.2248 15.5712 29.0239 15.5712C28.5691 13.6254 31.4455 3.47341 19.3477 3.91756Z" fill="#D4B8B2"/>
<path d="M20.035 30.345C20.8097 30.3793 21.5834 30.2575 22.3101 29.9868C23.0367 29.7161 23.7016 29.3021 24.265 28.7693C25.4167 28.2538 26.4133 27.4456 27.1554 26.4251C27.8976 25.4047 28.3594 24.2076 28.495 22.9531C30.1342 22.9531 30.9484 20.4362 31.1494 18.7231C31.3926 16.7033 30.5572 15.5506 29.0344 15.5506V12.3781C29.0344 7.60876 27.1309 3.91809 20.0456 3.91809C12.9604 3.91809 11.0569 7.61934 11.0569 12.3781V15.5506C9.53406 15.5506 8.69863 16.7033 8.94186 18.7231C9.15336 20.4362 9.99936 22.9002 11.5962 22.9531C11.7318 24.2076 12.1937 25.4047 12.9358 26.4251C13.678 27.4456 14.6745 28.2538 15.8262 28.7693C16.3871 29.2995 17.0485 29.712 17.7713 29.9826C18.4942 30.2532 19.2638 30.3765 20.035 30.345V30.345Z" stroke="#333333" stroke-width="2" stroke-linejoin="round"/>
<path d="M15.2762 28.515V31.9518" stroke="#333333" stroke-width="2" stroke-linecap="round" stroke-linejoin="round"/>
<path d="M24.7937 28.515V31.9518" stroke="#333333" stroke-width="2" stroke-linecap="round" stroke-linejoin="round"/>
<path d="M18.2056 22.3815C18.5469 22.3408 18.891 22.4316 19.1679 22.6353C19.437 22.7699 19.7342 22.8387 20.035 22.8362V22.8362C20.3354 22.8339 20.6314 22.7653 20.9022 22.6353C21.1796 22.4325 21.5232 22.3419 21.8645 22.3815" stroke="#AF8582" stroke-miterlimit="10" stroke-linecap="round"/>
<path d="M28.495 18.1938V13.5514C28.494 12.8758 28.3313 12.2102 28.0204 11.6104C27.7094 11.0107 27.2593 10.4941 26.7078 10.1039L23.2075 7.61879C21.3543 9.75948 18.9897 11.3965 16.3337 12.3775L17.1903 7.61879L13.4362 10.1039C12.8621 10.4919 12.3922 11.015 12.0676 11.6272C11.7431 12.2394 11.5739 12.9219 11.575 13.6148V18.1938C11.5222 17.5285 11.3002 16.8878 10.9301 16.3325C10.5599 15.7772 10.0538 15.3258 9.45997 15.0213L8.40247 8.14754L13.0026 4.53089L11.0462 3.38879C13.9063 2.61114 16.8797 2.33563 19.834 2.57452L18.4487 0.745041C23.6622 1.40069 28.495 5.50379 28.495 5.50379L31.6675 3.91754L30.61 7.09004V14.979C30.0103 15.2872 29.5005 15.7452 29.13 16.3084C28.7594 16.8717 28.5407 17.5211 28.495 18.1938V18.1938Z" fill="#735744"/>
<path d="M31.6675 3.91754L28.495 5.50379C28.495 5.50379 23.6622 1.40069 18.4487 0.745041L20.4157 3.44167C20.4581 3.4956 20.4842 3.56056 20.4909 3.62886C20.4976 3.69716 20.4846 3.76596 20.4535 3.82712C20.4224 3.88828 20.3744 3.93925 20.3152 3.97401C20.256 4.00877 20.1881 4.02587 20.1196 4.02329C17.7365 4.05969 15.3571 4.22561 12.992 4.52032L14.0495 5.17597C14.1084 5.21565 14.1566 5.26919 14.19 5.33189C14.2233 5.39458 14.2408 5.46451 14.2408 5.53552C14.2408 5.60653 14.2233 5.67645 14.19 5.73915C14.1566 5.80184 14.1084 5.85538 14.0495 5.89507L10.2531 8.93009C10.1794 8.98798 10.1227 9.06478 10.0892 9.1523C10.0557 9.23983 10.0465 9.3348 10.0627 9.42712C10.0627 9.42712 10.2742 11.9757 10.3377 13.1072C10.3388 13.4677 10.2607 13.8241 10.1091 14.1512C9.95742 14.4782 9.73584 14.7681 9.45996 15.0001C9.97762 15.2386 10.4359 15.589 10.8016 16.0261C11.1674 16.4631 11.4315 16.976 11.575 17.5276V13.5937C11.5756 12.9026 11.7457 12.2222 12.0701 11.612C12.3946 11.0018 12.8636 10.4804 13.4362 10.0933L17.1903 7.60822L16.3231 12.3775C19.337 11.2672 20.7646 10.0193 23.1969 7.61879L26.6972 10.1039C27.2507 10.4929 27.7028 11.009 28.0157 11.6089C28.3285 12.2087 28.4928 12.8749 28.495 13.5514V18.1938C28.5477 17.5285 28.7697 16.8878 29.1399 16.3325C29.5101 15.7772 30.0161 15.3258 30.61 15.0213V7.13234L31.6675 3.91754Z" fill="#614938"/>
<path d="M11.2154 18.1938C11.1958 17.6019 10.9884 17.0315 10.6232 16.5652C10.4401 16.3275 10.2308 16.1111 9.99931 15.9202C9.76948 15.7306 9.52153 15.5641 9.25906 15.4231C9.19836 15.3905 9.14529 15.3454 9.10336 15.2907C9.06143 15.236 9.03159 15.173 9.01584 15.1059V15.1059C8.60694 12.8217 8.21566 10.5375 7.84201 8.2533C7.82774 8.15535 7.83871 8.05538 7.87387 7.96285C7.90903 7.87032 7.96722 7.7883 8.04294 7.72455V7.72455L12.6325 4.0233L12.7065 5.0808L10.7396 3.97042C10.5843 3.88171 10.4704 3.73515 10.4229 3.56276C10.3753 3.39037 10.3979 3.20617 10.4858 3.0504C10.5287 2.97178 10.5876 2.90296 10.6586 2.84834C10.7296 2.79372 10.8112 2.75449 10.8982 2.73315C12.3613 2.35063 13.8488 2.06798 15.3503 1.88715C16.1011 1.80255 16.8625 1.74967 17.6239 1.71795C18.4035 1.68695 19.1842 1.70815 19.961 1.78139L19.2207 3.03982L17.8142 1.22092C17.7028 1.05786 17.6563 0.859102 17.6836 0.663523C17.711 0.467945 17.8104 0.289616 17.9623 0.16342C18.1292 0.039051 18.337 -0.0176118 18.5439 0.0047951C20.4892 0.293446 22.3728 0.90461 24.1169 1.81312C24.9735 2.25621 25.8065 2.74331 26.6126 3.27247C27.4239 3.80588 28.2041 4.38492 28.9497 5.00677L28.1672 4.9116L31.3397 3.37822C31.4174 3.34048 31.5018 3.31848 31.5881 3.31348C31.6743 3.30848 31.7607 3.32057 31.8423 3.34907C31.9239 3.37757 31.999 3.42191 32.0634 3.47954C32.1277 3.53718 32.1801 3.60696 32.2174 3.6849C32.2801 3.84829 32.2801 4.0291 32.2174 4.1925L31.0753 7.365V7.17465L30.959 15.0636C30.9591 15.1477 30.9353 15.2302 30.8903 15.3013C30.8454 15.3725 30.7812 15.4294 30.7052 15.4654C30.4421 15.6012 30.194 15.7643 29.9649 15.9519C29.7334 16.1428 29.5241 16.3592 29.341 16.597C28.9759 17.0633 28.7685 17.6336 28.7488 18.2255C28.7341 18.3116 28.6894 18.3898 28.6226 18.4461C28.5558 18.5024 28.4713 18.5333 28.384 18.5333C28.2966 18.5333 28.2121 18.5024 28.1453 18.4461C28.0785 18.3898 28.0338 18.3116 28.0191 18.2255C28.0083 17.4689 28.2378 16.7283 28.6748 16.1105C28.883 15.8096 29.1242 15.533 29.3939 15.2857C29.6696 15.0361 29.9709 14.8164 30.2927 14.63L30.0389 15.0424L29.8697 7.1535C29.8639 7.09724 29.8639 7.04055 29.8697 6.9843V6.9843L30.9272 3.74835L31.8473 4.55205L28.6748 6.19117C28.5541 6.25299 28.4182 6.27887 28.2832 6.26575C28.1483 6.25262 28.0199 6.20105 27.9134 6.11715V6.11715C27.2033 5.55715 26.4618 5.03814 25.6926 4.56262C24.9194 4.08095 24.1216 3.63973 23.3027 3.24075C21.7089 2.42709 19.9953 1.87371 18.2267 1.60162L18.9563 0.33262L20.4368 2.05635C20.5615 2.2243 20.6158 2.43424 20.5881 2.64158C20.5605 2.84891 20.4531 3.03729 20.2888 3.16672C20.1251 3.28945 19.9213 3.34608 19.7177 3.32535V3.32535C19.0157 3.24544 18.3093 3.21012 17.6027 3.2196C16.8836 3.2196 16.1645 3.2196 15.4877 3.31477C14.0626 3.44364 12.6488 3.67691 11.2577 4.01272L11.4375 2.77545L13.3727 3.9387C13.4455 3.9812 13.5091 4.03778 13.5598 4.10514C13.6105 4.17249 13.6472 4.24926 13.6679 4.33098C13.6886 4.41269 13.6927 4.4977 13.6802 4.58105C13.6677 4.6644 13.6386 4.74442 13.5948 4.81642C13.5536 4.88573 13.4998 4.94671 13.4362 4.9962L8.79376 8.55997L9.00526 8.02065C9.32956 10.3189 9.64329 12.6172 9.94644 14.9155L9.70321 14.5771C10.0273 14.76 10.3289 14.9801 10.6021 15.2328C10.8746 15.4773 11.1161 15.7543 11.3212 16.0576C11.7555 16.6768 11.9848 17.4164 11.9768 18.1726C11.9741 18.269 11.9339 18.3604 11.8648 18.4276C11.7956 18.4947 11.7031 18.5322 11.6067 18.5322C11.5178 18.5177 11.4367 18.4729 11.3769 18.4055C11.3172 18.338 11.2826 18.2521 11.2789 18.1621L11.2154 18.1938Z" fill="#333333"/>
<path d="M11.2154 18.1938C11.1958 17.6019 10.9884 17.0315 10.6232 16.5652C10.4401 16.3275 10.2308 16.1111 9.99931 15.9202C9.76948 15.7306 9.52153 15.5641 9.25906 15.4231C9.19836 15.3905 9.14529 15.3454 9.10336 15.2907C9.06143 15.236 9.03159 15.173 9.01584 15.1059V15.1059C8.60694 12.8217 8.21566 10.5375 7.84201 8.2533C7.82774 8.15535 7.83871 8.05538 7.87387 7.96285C7.90903 7.87032 7.96722 7.7883 8.04294 7.72455V7.72455L12.6325 4.0233L12.7065 5.0808L10.7396 3.97042C10.5843 3.88171 10.4704 3.73515 10.4229 3.56276C10.3753 3.39037 10.3979 3.20617 10.4858 3.0504C10.5287 2.97178 10.5876 2.90296 10.6586 2.84834C10.7296 2.79372 10.8112 2.75449 10.8982 2.73315C12.3613 2.35063 13.8488 2.06798 15.3503 1.88715C16.1011 1.80255 16.8625 1.74967 17.6239 1.71795C18.4035 1.68695 19.1842 1.70815 19.961 1.78139L19.2207 3.03982L17.8142 1.22092C17.7028 1.05786 17.6563 0.859102 17.6836 0.663523C17.711 0.467945 17.8104 0.289616 17.9623 0.16342C18.1292 0.039051 18.337 -0.0176118 18.5439 0.0047951C20.4892 0.293446 22.3728 0.90461 24.1169 1.81312C24.9735 2.25621 25.8065 2.74331 26.6126 3.27247C27.4239 3.80588 28.2041 4.38492 28.9497 5.00677L28.1672 4.9116L31.3397 3.37822C31.4174 3.34048 31.5018 3.31848 31.5881 3.31348C31.6743 3.30848 31.7607 3.32057 31.8423 3.34907C31.9239 3.37757 31.999 3.42191 32.0634 3.47954C32.1277 3.53718 32.1801 3.60696 32.2174 3.6849C32.2801 3.84829 32.2801 4.0291 32.2174 4.1925L31.0753 7.365V7.17465L30.959 15.0636C30.9591 15.1477 30.9353 15.2302 30.8903 15.3013C30.8454 15.3725 30.7812 15.4294 30.7052 15.4654C30.4421 15.6012 30.194 15.7643 29.9649 15.9519C29.7334 16.1428 29.5241 16.3592 29.341 16.597C28.9759 17.0633 28.7685 17.6336 28.7488 18.2255C28.7341 18.3116 28.6894 18.3898 28.6226 18.4461C28.5558 18.5024 28.4713 18.5333 28.384 18.5333C28.2966 18.5333 28.2121 18.5024 28.1453 18.4461C28.0785 18.3898 28.0338 18.3116 28.0191 18.2255C28.0083 17.4689 28.2378 16.7283 28.6748 16.1105C28.883 15.8096 29.1242 15.533 29.3939 15.2857C29.6696 15.0361 29.9709 14.8164 30.2927 14.63L30.0389 15.0424L29.8697 7.1535C29.8639 7.09724 29.8639 7.04055 29.8697 6.9843V6.9843L30.9272 3.74835L31.8473 4.55205L28.6748 6.19117C28.5541 6.25299 28.4182 6.27887 28.2832 6.26575C28.1483 6.25262 28.0199 6.20105 27.9134 6.11715V6.11715C27.2033 5.55715 26.4618 5.03814 25.6926 4.56262C24.9194 4.08095 24.1216 3.63973 23.3027 3.24075C21.7089 2.42709 19.9953 1.87371 18.2267 1.60162L18.9563 0.33262L20.4368 2.05635C20.5615 2.2243 20.6158 2.43424 20.5881 2.64158C20.5605 2.84891 20.4531 3.03729 20.2888 3.16672C20.1251 3.28945 19.9213 3.34608 19.7177 3.32535V3.32535C19.0157 3.24544 18.3093 3.21012 17.6027 3.2196C16.8836 3.2196 16.1645 3.2196 15.4877 3.31477C14.0626 3.44364 12.6488 3.67691 11.2577 4.01272L11.4375 2.77545L13.3727 3.9387C13.4455 3.9812 13.5091 4.03778 13.5598 4.10514C13.6105 4.17249 13.6472 4.24926 13.6679 4.33098C13.6886 4.41269 13.6927 4.4977 13.6802 4.58105C13.6677 4.6644 13.6386 4.74442 13.5948 4.81642C13.5536 4.88573 13.4998 4.94671 13.4362 4.9962L8.79376 8.55997L9.00526 8.02065C9.32956 10.3189 9.64329 12.6172 9.94644 14.9155L9.70321 14.5771C10.0273 14.76 10.3289 14.9801 10.6021 15.2328C10.8746 15.4773 11.1161 15.7543 11.3212 16.0576C11.7555 16.6768 11.9848 17.4164 11.9768 18.1726C11.9741 18.269 11.9339 18.3604 11.8648 18.4276C11.7956 18.4947 11.7031 18.5322 11.6067 18.5322C11.5178 18.5177 11.4367 18.4729 11.3769 18.4055C11.3172 18.338 11.2826 18.2521 11.2789 18.1621L11.2154 18.1938Z" fill="#333333"/>
<path d="M28.2517 18.1938L28.1777 14.9473V13.3399C28.1475 12.8433 28.018 12.3579 27.797 11.9122C27.5826 11.4682 27.2845 11.0697 26.9193 10.7384C26.5703 10.4212 26.0839 10.1356 25.6503 9.8184L22.9325 7.97835L23.5459 7.9149C22.6079 9.01327 21.5429 9.99656 20.3734 10.8442C19.1663 11.6315 17.8882 12.3041 16.5558 12.8534C16.4678 12.8914 16.3712 12.9048 16.2762 12.8922C16.1812 12.8795 16.0914 12.8413 16.0165 12.7815C15.9415 12.7218 15.8842 12.6428 15.8507 12.553C15.8172 12.4632 15.8087 12.366 15.8261 12.2718L16.7356 7.52362L17.4758 8.01007L14.6946 9.79725C14.2504 10.0933 13.7217 10.3894 13.3621 10.6855C12.9707 10.9977 12.6469 11.3863 12.4104 11.8276C12.1741 12.2715 12.0234 12.7558 11.9662 13.2553C11.9662 13.7417 11.9662 14.3128 11.9662 14.8733L11.8816 18.1727C11.8817 18.2041 11.8753 18.2353 11.863 18.2642C11.8506 18.2931 11.8325 18.3193 11.8098 18.341C11.7871 18.3628 11.7602 18.3797 11.7307 18.3907C11.7012 18.4018 11.6698 18.4067 11.6384 18.4053C11.5767 18.4053 11.5175 18.3808 11.4739 18.3372C11.4303 18.2935 11.4058 18.2344 11.4058 18.1727L11.3212 14.8733C11.3212 14.3128 11.3212 13.8158 11.3212 13.1918C11.3646 12.5928 11.5225 12.0076 11.7865 11.4681C12.0417 10.9304 12.4011 10.4487 12.844 10.051C13.289 9.70023 13.7513 9.37199 14.2293 9.06757L16.9576 7.20637C17.0096 7.17048 17.0681 7.14527 17.1298 7.13221C17.1916 7.11916 17.2553 7.11851 17.3173 7.13032C17.3793 7.14213 17.4384 7.16616 17.491 7.201C17.5436 7.23584 17.5888 7.28081 17.6239 7.33327C17.6586 7.38371 17.683 7.4405 17.6957 7.50038C17.7084 7.56027 17.7091 7.62207 17.6979 7.68225V7.68225L16.8625 12.4621L16.1328 11.8805C17.4012 11.356 18.6219 10.7226 19.7812 9.9876C20.9133 9.23414 21.9502 8.34644 22.8691 7.34385V7.34385C22.9456 7.26262 23.0492 7.21235 23.1604 7.2026C23.2715 7.19285 23.3824 7.2243 23.4718 7.29097L26.0944 9.20505C26.5566 9.52971 26.9981 9.8829 27.4163 10.2625C27.8519 10.6311 28.2173 11.0754 28.495 11.5738C28.7376 12.1101 28.8741 12.6883 28.8968 13.2764C28.8968 13.8581 28.8968 14.3339 28.8968 14.9156L28.8228 18.1621C28.8228 18.1935 28.8165 18.2247 28.8041 18.2536C28.7918 18.2826 28.7737 18.3087 28.751 18.3304C28.7282 18.3522 28.7013 18.3691 28.6719 18.3801C28.6424 18.3912 28.611 18.3962 28.5796 18.3947C28.5448 18.4041 28.5085 18.4063 28.4729 18.4012C28.4372 18.3961 28.403 18.3838 28.3723 18.3649C28.3416 18.3461 28.3151 18.3212 28.2944 18.2918C28.2736 18.2624 28.2591 18.229 28.2517 18.1938Z" fill="#423831"/>
<path d="M16.1434 4.74239C17.4018 4.57714 18.6736 4.53817 19.9398 4.62606C20.5779 4.68706 21.2085 4.81104 21.8222 4.99619C22.4471 5.16223 23.0531 5.39259 23.6305 5.68356C23.6862 5.71477 23.7274 5.76664 23.7452 5.82797C23.7631 5.88931 23.756 5.95519 23.7257 6.01139C23.7014 6.05842 23.6625 6.09626 23.6148 6.11916C23.567 6.14206 23.5132 6.14878 23.4613 6.13829C22.8638 6.01491 22.2601 5.92314 21.653 5.86334C21.0502 5.79989 20.4368 5.77874 19.8235 5.69414C18.6074 5.51436 17.3807 5.38746 16.1434 5.22884C16.1113 5.22493 16.0804 5.21469 16.0523 5.1987C16.0243 5.1827 15.9997 5.16129 15.98 5.13569C15.9603 5.1101 15.9459 5.08084 15.9377 5.04963C15.9294 5.01842 15.9274 4.98587 15.9319 4.95389C15.9452 4.90303 15.9718 4.85664 16.009 4.81947C16.0461 4.7823 16.0925 4.7557 16.1434 4.74239Z" fill="#423831"/>
<path d="M15.5934 20.0339C16.0607 20.0339 16.4394 19.6551 16.4394 19.1879C16.4394 18.7206 16.0607 18.3419 15.5934 18.3419C15.1262 18.3419 14.7474 18.7206 14.7474 19.1879C14.7474 19.6551 15.1262 20.0339 15.5934 20.0339Z" fill="#3A3A3A"/>
<path d="M16.8626 16.678C16.5119 16.5799 16.1509 16.5258 15.7875 16.5172C15.4391 16.5035 15.0903 16.5084 14.7424 16.5317C14.3937 16.5446 14.0459 16.5813 13.6962 16.6212C13.3338 16.6584 12.9768 16.739 12.6326 16.8614C12.8376 16.497 13.1619 16.2192 13.5477 16.0774C13.9164 15.9205 14.3087 15.8298 14.7073 15.8091C15.1078 15.7861 15.5089 15.8388 15.8908 15.9645C16.2871 16.0759 16.6317 16.329 16.8626 16.678Z" fill="#333333"/>
<path d="M23.2075 16.6779C23.4384 16.3289 23.7829 16.0759 24.1792 15.9645C24.5611 15.8388 24.9623 15.7861 25.3627 15.8091C25.7613 15.8298 26.1536 15.9205 26.5223 16.0774C26.9081 16.2192 27.2324 16.497 27.4375 16.8614C27.0932 16.739 26.7363 16.6584 26.3738 16.6212C26.0242 16.5813 25.6761 16.5446 25.3276 16.5317C24.9797 16.5084 24.6309 16.5035 24.2825 16.5172C23.9191 16.5258 23.5581 16.5797 23.2075 16.6779V16.6779Z" fill="#333333"/>
<path d="M24.5823 20.0339C25.0495 20.0339 25.4283 19.6551 25.4283 19.1879C25.4283 18.7206 25.0495 18.3419 24.5823 18.3419C24.115 18.3419 23.7363 18.7206 23.7363 19.1879C23.7363 19.6551 24.115 20.0339 24.5823 20.0339Z" fill="#3A3A3A"/>
<path d="M21.1222 24.3488C20.7822 24.3446 20.4449 24.4044 20.1289 24.5248C20.0222 24.5665 19.9038 24.571 19.7937 24.5376C19.4679 24.428 19.1241 24.3788 18.7802 24.3925C18.0108 24.5308 17.977 24.8053 16.8703 25.0971L18.1451 26.0309C18.4536 26.216 18.8105 26.31 19.1723 26.3016L20.8239 26.2391C21.186 26.2237 21.5343 26.1026 21.8233 25.8915L23.2531 24.89C21.9358 24.6875 21.7489 24.3998 21.1222 24.3488Z" fill="#D7ACA4"/>
<path d="M16.8774 25.0103C17.9236 25.1991 18.987 25.2402 20.0504 25.133C21.135 25.0729 22.2178 24.8691 23.2828 24.5246" stroke="#6B4B4B" stroke-width="1.1" stroke-miterlimit="10" stroke-linecap="round"/>
</svg>
