<svg width="26" height="29" viewBox="0 0 26 29" fill="none" xmlns="http://www.w3.org/2000/svg">
<path d="M24.6394 23.41C24.4799 22.8762 24.1762 22.4 23.7636 22.0366C23.351 21.6733 22.8465 21.4377 22.3088 21.3574L15.9827 20.6732V18.4358H9.98964V20.6595L3.6636 21.3437C3.12585 21.424 2.62134 21.6596 2.20875 22.0229C1.79617 22.3863 1.49246 22.8626 1.33295 23.3963L1 25.4489C4.80016 27.0607 8.8751 27.8771 12.9862 27.8505C17.0973 27.8771 21.1722 27.0607 24.9724 25.4489L24.6394 23.41Z" fill="#F3D2C9"/>
<path d="M24.9723 25.4626L24.6394 23.41C24.4799 22.8762 24.1762 22.4 23.7636 22.0366C23.351 21.6733 22.8465 21.4377 22.3087 21.3574L15.9827 20.6732V18.4358H9.98962V19.12L13.8918 23.5879C14.3124 24.0481 14.55 24.6535 14.5577 25.2847V27.83C18.1376 27.6755 21.663 26.8741 24.9723 25.4626Z" fill="#E7C8C1"/>
<path d="M24.6394 23.41C24.4799 22.8762 24.1762 22.4 23.7636 22.0366C23.351 21.6732 22.8465 21.4377 22.3088 21.3573C20.4776 21.0837 18.5931 20.8921 16.6953 20.7758C16.5109 21.6374 16.0393 22.4057 15.362 22.948C14.6848 23.4902 13.8444 23.7722 12.9862 23.7452C12.0406 23.7452 9.60342 23.061 9.27047 20.7621C7.35268 20.8716 5.47484 21.07 3.6636 21.3505C3.12585 21.4308 2.62134 21.6664 2.20875 22.0298C1.79617 22.3931 1.49246 22.8694 1.33295 23.4031L1 25.4558C4.80016 27.0675 8.8751 27.884 12.9862 27.8573C17.0973 27.884 21.1722 27.0675 24.9724 25.4558L24.6394 23.41Z" fill="#717171"/>
<path d="M22.5685 23.061C20.4344 22.6319 18.2776 22.3326 16.1093 22.1647C15.7472 22.6634 15.2756 23.0672 14.7329 23.343C14.1902 23.6189 13.5917 23.759 12.9862 23.752C12.3808 23.7299 11.7867 23.5778 11.2419 23.3056C10.6972 23.0334 10.2139 22.6471 9.82317 22.1715C7.6684 22.343 5.52507 22.6423 3.4039 23.0678C2.80878 23.1587 2.25652 23.4395 1.82515 23.8704C1.39379 24.3014 1.10514 24.8607 1 25.4694C4.80016 27.0811 8.8751 27.8976 12.9862 27.871C17.0973 27.8976 21.1722 27.0811 24.9724 25.4694C24.8666 24.8603 24.5779 24.3005 24.1468 23.8686C23.7157 23.4367 23.1638 23.1542 22.5685 23.061Z" fill="#606060"/>
<path d="M24.6394 23.41C24.4799 22.8762 24.1762 22.4 23.7636 22.0366C23.351 21.6732 22.8465 21.4377 22.3087 21.3573C20.4775 21.0836 18.593 20.8921 16.6952 20.7826C16.5795 21.372 16.3229 21.9226 15.9486 22.3848C15.5743 22.8471 15.0941 23.2064 14.551 23.4305V27.8231C18.1328 27.6719 21.6606 26.8728 24.9723 25.4626L24.6394 23.41Z" fill="#606060"/>
<path d="M24.9724 25.4694C24.8672 24.8607 24.5786 24.3014 24.1472 23.8704C23.7159 23.4395 23.1636 23.1587 22.5685 23.0678C20.4338 22.6426 18.2772 22.3433 16.1093 22.1715C15.7466 22.669 15.2746 23.0714 14.7319 23.3461C14.1893 23.6207 13.5911 23.7598 12.9862 23.752V27.8573C17.0962 27.8859 21.1706 27.0742 24.9724 25.4694Z" fill="#4D4D4D"/>
<path d="M8.60461 27.5563C10.0565 27.7624 11.5205 27.8653 12.9862 27.8642C14.4788 27.8614 15.9694 27.754 17.4477 27.5426C17.188 26.3384 15.3102 25.401 13.0262 25.401C10.7421 25.401 8.851 26.3452 8.60461 27.5563Z" fill="#EEBF76"/>
<path d="M17.4477 27.5426C17.188 26.3384 15.3102 25.401 13.0262 25.401H12.9862V27.8642C14.4788 27.8625 15.9695 27.755 17.4477 27.5426Z" fill="#E5B674"/>
<path d="M8.60461 27.5563C10.0565 27.7624 11.5205 27.8653 12.9862 27.8642C14.4788 27.8614 15.9694 27.754 17.4477 27.5426C17.188 26.3384 15.3102 25.401 13.0262 25.401C10.7421 25.401 8.851 26.3452 8.60461 27.5563Z" stroke="#333333" stroke-width="0.8656" stroke-miterlimit="10" stroke-linecap="round"/>
<path d="M15.9827 20.6731L22.3088 21.3573C22.8465 21.4376 23.351 21.6732 23.7636 22.0366C24.1762 22.3999 24.4799 22.8762 24.6394 23.4099L24.9724 25.4626C21.1722 27.0743 17.0973 27.8908 12.9862 27.8641C8.8751 27.8908 4.80016 27.0743 1 25.4626L1.33295 23.4099C1.49246 22.8762 1.79617 22.3999 2.20875 22.0366C2.62134 21.6732 3.12585 21.4376 3.6636 21.3573L9.98964 20.6731" stroke="#333333" stroke-linejoin="round"/>
<path d="M16.6486 21.0084C16.3984 21.8042 15.9091 22.4979 15.251 22.99C14.593 23.4821 13.8001 23.7472 12.9862 23.7472C12.1723 23.7472 11.3794 23.4821 10.7213 22.99C10.0633 22.4979 9.57397 21.8042 9.32373 21.0084" stroke="#333333" stroke-linejoin="round"/>
<path d="M12.9862 19.6338C13.474 19.656 13.9612 19.5772 14.4188 19.4021C14.8763 19.2269 15.295 18.959 15.6498 18.6143C16.375 18.2808 17.0025 17.7579 17.4698 17.0976C17.9372 16.4374 18.228 15.6629 18.3134 14.8512C19.3455 14.8512 19.8583 13.2228 19.9848 12.1143C20.1379 10.8075 19.6119 10.0617 18.653 10.0617V8.00908C18.653 4.9233 17.4544 2.5354 12.9929 2.5354C8.53135 2.5354 7.33273 4.93014 7.33273 8.00908V10.0617C6.37384 10.0617 5.84778 10.8075 6.00094 12.1143C6.13412 13.2228 6.66683 14.817 7.67234 14.8512C7.75772 15.6629 8.04856 16.4374 8.51589 17.0976C8.98321 17.7579 9.61072 18.2808 10.3359 18.6143C10.6892 18.9574 11.1056 19.2243 11.5608 19.3994C12.0159 19.5744 12.5006 19.6542 12.9862 19.6338Z" fill="#F3D2C9"/>
<path d="M18.6463 10.061V8.00835C18.6463 4.92256 17.4477 2.53467 12.9862 2.53467C8.52466 2.53467 7.32604 4.9294 7.32604 8.00835V10.061C7.19597 10.0622 7.06643 10.0782 6.93982 10.1089C7.1715 10.3145 7.3561 10.5701 7.48043 10.8575C7.60475 11.145 7.66573 11.4571 7.65899 11.7715C8.11846 11.7715 8.32489 11.5594 8.32489 11.0873V9.35625C8.32489 7.62519 10.0762 6.72204 10.6555 6.31835L10.7887 8.24783C10.7933 8.31552 10.8152 8.38076 10.8524 8.43688C10.8895 8.49299 10.9405 8.53796 11.0001 8.56719C11.0597 8.59641 11.1258 8.60886 11.1916 8.60323C11.2574 8.59761 11.3206 8.57413 11.3747 8.5352L14.6576 6.20204C14.7547 6.13071 14.8711 6.09237 14.9905 6.09237C15.1099 6.09237 15.2264 6.13071 15.3235 6.20204L16.9416 7.35151C17.1727 7.52461 17.3612 7.75093 17.4918 8.01232C17.6225 8.27372 17.6918 8.56292 17.6941 8.85677V11.0052C17.6941 11.4773 17.8606 11.7373 18.32 11.7373C18.3133 11.4228 18.3743 11.1107 18.4986 10.8233C18.6229 10.5359 18.8075 10.2802 19.0392 10.0747C18.9088 10.0593 18.7774 10.0547 18.6463 10.061Z" fill="#E7C8C1"/>
<path d="M18.6464 10.0609V8.0083C18.6464 4.92251 17.4477 2.53462 12.9862 2.53462C12.4355 2.53253 11.8854 2.576 11.3415 2.66462V7.35146C11.3415 7.72226 11.2663 8.089 11.1207 8.42828C10.9751 8.76756 10.7622 9.07193 10.4958 9.32199C10.4556 9.35976 10.4261 9.40809 10.4107 9.46176C10.3952 9.51544 10.3942 9.57243 10.4079 9.62662C10.4216 9.6808 10.4495 9.73012 10.4884 9.76928C10.5273 9.80843 10.5759 9.83593 10.6289 9.84883C10.9316 9.92628 11.208 10.0869 11.4286 10.3135C11.6491 10.5401 11.8055 10.8242 11.8808 11.1351C11.8924 11.1898 11.9171 11.2407 11.9527 11.2831C11.9883 11.3254 12.0337 11.3579 12.0847 11.3777C12.1357 11.3974 12.1906 11.4037 12.2446 11.396C12.2985 11.3883 12.3498 11.3668 12.3936 11.3336C12.5076 11.236 12.6387 11.1617 12.7798 11.1146C12.8282 11.102 12.8788 11.1011 12.9276 11.1117C12.9765 11.1224 13.0223 11.1445 13.0615 11.1762C13.1007 11.2079 13.1324 11.2485 13.1539 11.2947C13.1755 11.341 13.1865 11.3917 13.186 11.443V12.8594C13.1927 12.9946 13.2346 13.1256 13.3072 13.2387C13.3797 13.3518 13.4805 13.4429 13.5988 13.5025C13.9784 13.7215 13.7054 14.4604 13.186 14.4604V16.3078C13.1874 16.3685 13.2085 16.427 13.2459 16.4741C13.2833 16.5212 13.3348 16.5541 13.3924 16.5678C14.2647 16.7799 14.7242 18.2783 13.186 18.6204C12.4535 18.7709 11.4746 17.9362 11.1417 18.6204C11.0797 18.7831 11.0285 18.95 10.9885 19.1199C11.5963 19.4752 12.2872 19.6526 12.9862 19.633C13.474 19.6552 13.9612 19.5764 14.4188 19.4013C14.8764 19.2261 15.295 18.9583 15.6498 18.6136C16.375 18.28 17.0025 17.7571 17.4699 17.0968C17.9372 16.4366 18.228 15.6621 18.3134 14.8504C19.3456 14.8162 19.8583 13.222 19.9848 12.1136C20.1313 10.7999 19.6053 10.0609 18.6464 10.0609Z" fill="#E7C8C1"/>
<path d="M12.5534 2.53466H12.4868C12.1011 2.55275 11.7166 2.59157 11.3348 2.65098V7.33782C11.3352 7.76745 11.2323 8.19052 11.0352 8.5694C11.0905 8.58823 11.1493 8.5937 11.2071 8.58539C11.2648 8.57709 11.3199 8.55523 11.3681 8.5215C12.7039 7.9987 13.8966 7.1512 14.8441 6.0515C14.9906 5.87361 15.1038 5.98308 15.237 6.0515L16.9084 7.31729C17.1477 7.49157 17.3428 7.72237 17.4772 7.99028C17.6116 8.25818 17.6815 8.55535 17.6808 8.85677V11.0052C17.6808 11.4773 17.8473 11.7373 18.3067 11.7373C18.3 11.4228 18.361 11.1107 18.4853 10.8233C18.6096 10.5359 18.7942 10.2802 19.0259 10.0747C18.966 10.0747 18.7729 10.0747 18.6463 10.0747C18.36 8.81572 20.1713 2.24729 12.5534 2.53466Z" fill="#D4B8B2"/>
<path d="M13.1216 19.6338C13.6094 19.656 13.9612 19.5772 14.4188 19.4021C14.8763 19.2269 15.295 18.959 15.6498 18.6143C16.375 18.2808 17.0025 17.7579 17.4698 17.0976C17.9372 16.4374 18.228 15.6629 18.3134 14.8512C19.3455 14.8512 19.8583 13.2228 19.9848 12.1143C20.1379 10.8075 19.6119 10.0617 18.653 10.0617V8.00908C18.653 4.9233 17.4544 2.5354 12.9929 2.5354C8.53135 2.5354 7.33273 4.93014 7.33273 8.00908V10.0617C6.37384 10.0617 5.84778 10.8075 6.00094 12.1143C6.13412 13.2228 6.66683 14.817 7.67234 14.8512C7.75772 15.6629 8.04856 16.4374 8.51589 17.0976C8.98321 17.7579 9.61072 18.2808 10.3359 18.6143C10.6892 18.9574 11.1056 19.2243 11.5608 19.3994C12.0159 19.5744 12.3469 19.6542 12.8325 19.6338H13.1216Z" stroke="#333333" stroke-linejoin="round"/>
<path d="M9.98962 18.4495V20.6731" stroke="#333333" stroke-linecap="round" stroke-linejoin="round"/>
<path d="M15.9827 18.4495V20.6731" stroke="#333333" stroke-linecap="round" stroke-linejoin="round"/>
<path d="M11.8342 14.481C12.0492 14.4547 12.2658 14.5134 12.4402 14.6452C12.6097 14.7323 12.7968 14.7768 12.9862 14.7752V14.7752C13.1753 14.7737 13.3618 14.7293 13.5323 14.6452C13.7069 14.514 13.9233 14.4554 14.1382 14.481" stroke="#AF8582" stroke-width="0.6" stroke-miterlimit="10" stroke-linecap="round"/>
<path d="M18.3134 11.7715V8.76785C18.3128 8.33073 18.2103 7.90012 18.0145 7.51205C17.8188 7.12399 17.5353 6.78975 17.188 6.53732L14.9839 4.92942C13.817 6.31446 12.328 7.37364 10.6556 8.00837L11.195 4.92942L8.83104 6.53732C8.46957 6.78837 8.17365 7.12681 7.96929 7.5229C7.76494 7.91899 7.65841 8.36059 7.65907 8.8089V11.7715C7.62587 11.3411 7.48607 10.9265 7.25297 10.5673C7.01987 10.208 6.7012 9.91594 6.32727 9.7189L5.66138 5.27153L8.55803 2.93153L7.32612 2.19258C9.12711 1.68944 10.9994 1.51118 12.8597 1.66574L11.9874 0.482056C15.2703 0.906266 18.3134 3.561 18.3134 3.561L20.3111 2.53469L19.6452 4.58732V9.69153C19.2676 9.89095 18.9466 10.1872 18.7132 10.5517C18.4799 10.9161 18.3422 11.3363 18.3134 11.7715Z" fill="#735744"/>
<path d="M20.3111 2.53469L18.3134 3.561C18.3134 3.561 15.2702 0.906266 11.9873 0.482056L13.2259 2.22679C13.2526 2.26169 13.2691 2.30372 13.2733 2.34791C13.2775 2.3921 13.2694 2.43661 13.2497 2.47618C13.2301 2.51575 13.1999 2.54873 13.1627 2.57122C13.1254 2.59372 13.0826 2.60478 13.0395 2.60311C11.5388 2.62666 10.0406 2.73401 8.55131 2.92469L9.21721 3.3489C9.25429 3.37457 9.28466 3.40922 9.30566 3.44978C9.32666 3.49034 9.33765 3.53558 9.33765 3.58153C9.33765 3.62748 9.32666 3.67272 9.30566 3.71328C9.28466 3.75384 9.25429 3.78848 9.21721 3.81416L6.82663 5.77784C6.78022 5.8153 6.74456 5.86498 6.72345 5.92161C6.70234 5.97824 6.69658 6.03969 6.70677 6.09942C6.70677 6.09942 6.83995 7.74837 6.8799 8.48048C6.88059 8.71374 6.83145 8.94431 6.73595 9.15592C6.64046 9.36754 6.50093 9.55505 6.32721 9.70521C6.65317 9.85948 6.94173 10.0862 7.17204 10.369C7.40236 10.6518 7.56868 10.9836 7.65901 11.3405V8.79521C7.65944 8.34807 7.76649 7.90784 7.9708 7.51304C8.1751 7.11823 8.47044 6.78088 8.83099 6.53048L11.1949 4.92258L10.6489 8.00837C12.5467 7.28995 13.4457 6.48258 14.9772 4.92942L17.1813 6.53732C17.5299 6.789 17.8146 7.12291 18.0116 7.51102C18.2085 7.89914 18.312 8.33013 18.3134 8.76785V11.7715C18.3466 11.3411 18.4864 10.9265 18.7195 10.5673C18.9526 10.208 19.2712 9.91594 19.6452 9.7189V4.61469L20.3111 2.53469Z" fill="#614938"/>
<path d="M7.4326 11.7715C7.42022 11.3885 7.28963 11.0195 7.0597 10.7178C6.9444 10.564 6.81261 10.424 6.66682 10.3005C6.5221 10.1778 6.36597 10.0701 6.20069 9.97889C6.16247 9.95778 6.12905 9.92856 6.10265 9.89317C6.07624 9.85779 6.05746 9.81704 6.04754 9.77363C5.79006 8.29573 5.54367 6.81784 5.30839 5.33994C5.29941 5.27657 5.30631 5.21189 5.32845 5.15202C5.35059 5.09216 5.38723 5.03909 5.43491 4.99784L8.3249 2.6031L8.37152 3.28731L7.13295 2.56889C7.03518 2.51149 6.96349 2.41667 6.93354 2.30513C6.9036 2.1936 6.91783 2.07442 6.97313 1.97363C7.00018 1.92276 7.03723 1.87824 7.08195 1.8429C7.12666 1.80756 7.17805 1.78218 7.23283 1.76837C8.15416 1.52088 9.0908 1.338 10.0363 1.221C10.509 1.16626 10.9885 1.13205 11.4679 1.11152C11.9588 1.09147 12.4505 1.10518 12.9396 1.15258L12.4734 1.96679L11.5878 0.789944C11.5176 0.684443 11.4883 0.555845 11.5056 0.429304C11.5228 0.302764 11.5854 0.187384 11.681 0.105734C11.7861 0.0252663 11.917 -0.0113949 12.0473 0.00310246C13.2722 0.189862 14.4583 0.58529 15.5565 1.1731C16.0959 1.45978 16.6204 1.77494 17.1281 2.11731C17.6389 2.46243 18.1302 2.83707 18.5997 3.23942L18.1069 3.17784L20.1046 2.18573C20.1536 2.16132 20.2067 2.14708 20.261 2.14385C20.3154 2.14061 20.3698 2.14844 20.4211 2.16687C20.4725 2.18531 20.5198 2.214 20.5603 2.25129C20.6009 2.28858 20.6338 2.33373 20.6573 2.38415C20.6968 2.48987 20.6968 2.60686 20.6573 2.71258L19.9381 4.76521V4.64205L19.8649 9.74626C19.865 9.8007 19.85 9.85404 19.8217 9.90007C19.7934 9.9461 19.753 9.98293 19.7051 10.0063C19.5394 10.0941 19.3832 10.1996 19.239 10.321C19.0932 10.4445 18.9614 10.5845 18.8461 10.7384C18.6161 11.0401 18.4856 11.4091 18.4732 11.7921C18.4639 11.8478 18.4358 11.8983 18.3937 11.9348C18.3517 11.9712 18.2984 11.9912 18.2434 11.9912C18.1884 11.9912 18.1352 11.9712 18.0932 11.9348C18.0511 11.8983 18.023 11.8478 18.0137 11.7921C18.0069 11.3025 18.1514 10.8234 18.4266 10.4236C18.5577 10.2289 18.7095 10.0499 18.8794 9.88995C19.053 9.72848 19.2427 9.58629 19.4454 9.46573L19.2856 9.73258L19.179 4.62837C19.1754 4.59197 19.1754 4.55529 19.179 4.51889L19.8449 2.42521L20.4242 2.94521L18.4266 4.00573C18.3506 4.04573 18.265 4.06247 18.18 4.05398C18.095 4.04549 18.0142 4.01213 17.9471 3.95784C17.5 3.59552 17.0331 3.25971 16.5487 2.95205C16.0618 2.64041 15.5595 2.35493 15.0438 2.09679C14.0402 1.57034 12.9612 1.21231 11.8475 1.03626L12.307 0.215207L13.2392 1.33047C13.3177 1.43914 13.3519 1.57497 13.3345 1.70912C13.3171 1.84326 13.2495 1.96515 13.146 2.04889C13.0429 2.1283 12.9146 2.16494 12.7864 2.15152C12.3443 2.09982 11.8995 2.07697 11.4546 2.0831C11.0018 2.0831 10.549 2.0831 10.1228 2.14468C9.22541 2.22806 8.33516 2.37899 7.45924 2.59626L7.57244 1.79573L8.79103 2.54837C8.83686 2.57587 8.8769 2.61248 8.90881 2.65605C8.94072 2.69963 8.96386 2.74931 8.97688 2.80217C8.9899 2.85504 8.99254 2.91005 8.98464 2.96397C8.97674 3.0179 8.95846 3.06967 8.93087 3.11626C8.90494 3.1611 8.87106 3.20056 8.83099 3.23258L5.9077 5.53837L6.04088 5.18942C6.24509 6.67643 6.44263 8.16345 6.63353 9.65047L6.48037 9.43152C6.68443 9.54986 6.87439 9.69222 7.04638 9.85573C7.21801 10.0139 7.37008 10.1932 7.49919 10.3894C7.77267 10.79 7.91705 11.2686 7.91205 11.7578C7.91031 11.8202 7.885 11.8793 7.84147 11.9228C7.79795 11.9662 7.73966 11.9905 7.67898 11.9905C7.62301 11.9811 7.5719 11.9521 7.53429 11.9085C7.49668 11.8649 7.47488 11.8092 7.47256 11.751L7.4326 11.7715Z" fill="#333333"/>
<path d="M7.4326 11.7715C7.42022 11.3885 7.28963 11.0195 7.0597 10.7178C6.9444 10.564 6.81261 10.424 6.66682 10.3005C6.5221 10.1778 6.36597 10.0701 6.20069 9.97889C6.16247 9.95778 6.12905 9.92856 6.10265 9.89317C6.07624 9.85779 6.05746 9.81704 6.04754 9.77363C5.79006 8.29573 5.54367 6.81784 5.30839 5.33994C5.29941 5.27657 5.30631 5.21189 5.32845 5.15202C5.35059 5.09216 5.38723 5.03909 5.43491 4.99784L8.3249 2.6031L8.37152 3.28731L7.13295 2.56889C7.03518 2.51149 6.96349 2.41667 6.93354 2.30513C6.9036 2.1936 6.91783 2.07442 6.97313 1.97363C7.00018 1.92276 7.03723 1.87824 7.08195 1.8429C7.12666 1.80756 7.17805 1.78218 7.23283 1.76837C8.15416 1.52088 9.0908 1.338 10.0363 1.221C10.509 1.16626 10.9885 1.13205 11.4679 1.11152C11.9588 1.09147 12.4505 1.10518 12.9396 1.15258L12.4734 1.96679L11.5878 0.789944C11.5176 0.684443 11.4883 0.555845 11.5056 0.429304C11.5228 0.302764 11.5854 0.187384 11.681 0.105734C11.7861 0.0252663 11.917 -0.0113949 12.0473 0.00310246C13.2722 0.189862 14.4583 0.58529 15.5565 1.1731C16.0959 1.45978 16.6204 1.77494 17.1281 2.11731C17.6389 2.46243 18.1302 2.83707 18.5997 3.23942L18.1069 3.17784L20.1046 2.18573C20.1536 2.16132 20.2067 2.14708 20.261 2.14385C20.3154 2.14061 20.3698 2.14844 20.4211 2.16687C20.4725 2.18531 20.5198 2.214 20.5603 2.25129C20.6009 2.28858 20.6338 2.33373 20.6573 2.38415C20.6968 2.48987 20.6968 2.60686 20.6573 2.71258L19.9381 4.76521V4.64205L19.8649 9.74626C19.865 9.8007 19.85 9.85404 19.8217 9.90007C19.7934 9.9461 19.753 9.98293 19.7051 10.0063C19.5394 10.0941 19.3832 10.1996 19.239 10.321C19.0932 10.4445 18.9614 10.5845 18.8461 10.7384C18.6161 11.0401 18.4856 11.4091 18.4732 11.7921C18.4639 11.8478 18.4358 11.8983 18.3937 11.9348C18.3517 11.9712 18.2984 11.9912 18.2434 11.9912C18.1884 11.9912 18.1352 11.9712 18.0932 11.9348C18.0511 11.8983 18.023 11.8478 18.0137 11.7921C18.0069 11.3025 18.1514 10.8234 18.4266 10.4236C18.5577 10.2289 18.7095 10.0499 18.8794 9.88995C19.053 9.72848 19.2427 9.58629 19.4454 9.46573L19.2856 9.73258L19.179 4.62837C19.1754 4.59197 19.1754 4.55529 19.179 4.51889L19.8449 2.42521L20.4242 2.94521L18.4266 4.00573C18.3506 4.04573 18.265 4.06247 18.18 4.05398C18.095 4.04549 18.0142 4.01213 17.9471 3.95784C17.5 3.59552 17.0331 3.25971 16.5487 2.95205C16.0618 2.64041 15.5595 2.35493 15.0438 2.09679C14.0402 1.57034 12.9612 1.21231 11.8475 1.03626L12.307 0.215207L13.2392 1.33047C13.3177 1.43914 13.3519 1.57497 13.3345 1.70912C13.3171 1.84326 13.2495 1.96515 13.146 2.04889C13.0429 2.1283 12.9146 2.16494 12.7864 2.15152C12.3443 2.09982 11.8995 2.07697 11.4546 2.0831C11.0018 2.0831 10.549 2.0831 10.1228 2.14468C9.22541 2.22806 8.33516 2.37899 7.45924 2.59626L7.57244 1.79573L8.79103 2.54837C8.83686 2.57587 8.8769 2.61248 8.90881 2.65605C8.94072 2.69963 8.96386 2.74931 8.97688 2.80217C8.9899 2.85504 8.99254 2.91005 8.98464 2.96397C8.97674 3.0179 8.95846 3.06967 8.93087 3.11626C8.90494 3.1611 8.87106 3.20056 8.83099 3.23258L5.9077 5.53837L6.04088 5.18942C6.24509 6.67643 6.44263 8.16345 6.63353 9.65047L6.48037 9.43152C6.68443 9.54986 6.87439 9.69222 7.04638 9.85573C7.21801 10.0139 7.37008 10.1932 7.49919 10.3894C7.77267 10.79 7.91705 11.2686 7.91205 11.7578C7.91031 11.8202 7.885 11.8793 7.84147 11.9228C7.79795 11.9662 7.73966 11.9905 7.67898 11.9905C7.62301 11.9811 7.5719 11.9521 7.53429 11.9085C7.49668 11.8649 7.47488 11.8092 7.47256 11.751L7.4326 11.7715Z" fill="#333333"/>
<path d="M18.1602 11.7715L18.1136 9.67097V8.63097C18.0946 8.30971 18.013 7.99563 17.8739 7.70729C17.7388 7.42001 17.5512 7.16215 17.3212 6.94782C17.1014 6.74255 16.7951 6.55782 16.5221 6.35255L14.8108 5.16203L15.197 5.12097C14.6063 5.83163 13.9357 6.46783 13.1993 7.01624C12.4392 7.52561 11.6344 7.96084 10.7954 8.31624C10.74 8.34084 10.6791 8.3495 10.6193 8.34131C10.5595 8.33312 10.503 8.30837 10.4558 8.26972C10.4086 8.23107 10.3725 8.17997 10.3514 8.12188C10.3303 8.06379 10.3249 8.00089 10.3359 7.93992L10.9086 4.86782L11.3747 5.18255L9.62342 6.33887C9.34374 6.53045 9.01079 6.72203 8.78439 6.91361C8.5379 7.1156 8.334 7.36702 8.18508 7.65255C8.03629 7.9397 7.94142 8.25304 7.9054 8.57624C7.9054 8.89097 7.9054 9.26045 7.9054 9.62308L7.85213 11.7578C7.85215 11.7782 7.84815 11.7983 7.84038 11.817C7.8326 11.8358 7.82121 11.8527 7.8069 11.8667C7.79258 11.8808 7.77563 11.8918 7.75708 11.8989C7.73853 11.9061 7.71877 11.9093 7.69897 11.9083C7.66012 11.9083 7.62286 11.8925 7.59539 11.8643C7.56791 11.836 7.55248 11.7977 7.55248 11.7578L7.49921 9.62308C7.49921 9.26045 7.49921 8.93887 7.49921 8.53518C7.52655 8.1476 7.62601 7.769 7.7922 7.41992C7.95289 7.07202 8.17924 6.76037 8.4581 6.50308C8.73832 6.2761 9.02946 6.06372 9.33042 5.86676L11.0484 4.66255C11.0811 4.63933 11.118 4.62302 11.1569 4.61457C11.1958 4.60612 11.2359 4.60571 11.2749 4.61335C11.314 4.62099 11.3511 4.63653 11.3843 4.65908C11.4174 4.68162 11.4459 4.71071 11.4679 4.74466C11.4898 4.77729 11.5052 4.81404 11.5132 4.85278C11.5212 4.89153 11.5216 4.93151 11.5146 4.97045L10.9885 8.06308L10.529 7.68676C11.3278 7.34737 12.0964 6.9376 12.8264 6.46203C13.5393 5.97453 14.1922 5.40018 14.7708 4.7515C14.819 4.69895 14.8842 4.66642 14.9542 4.66011C15.0242 4.6538 15.094 4.67415 15.1504 4.71729L16.8018 5.95571C17.0928 6.16577 17.3708 6.39428 17.6342 6.63992C17.9084 6.87839 18.1385 7.16582 18.3134 7.48834C18.4661 7.8353 18.5521 8.20938 18.5664 8.58992C18.5664 8.96624 18.5664 9.27413 18.5664 9.65045L18.5198 11.751C18.5198 11.7713 18.5158 11.7915 18.508 11.8102C18.5003 11.8289 18.4889 11.8458 18.4746 11.8599C18.4602 11.874 18.4433 11.8849 18.4247 11.8921C18.4062 11.8992 18.3864 11.9024 18.3666 11.9015C18.3448 11.9076 18.3219 11.909 18.2995 11.9057C18.277 11.9024 18.2555 11.8944 18.2361 11.8822C18.2168 11.8701 18.2001 11.854 18.1871 11.8349C18.174 11.8159 18.1649 11.7943 18.1602 11.7715Z" fill="#423831"/>
<path d="M10.5356 3.06833C11.3281 2.96141 12.1289 2.9362 12.9262 2.99307C13.328 3.03253 13.7251 3.11274 14.1115 3.23254C14.505 3.33997 14.8866 3.48901 15.2502 3.67728C15.2853 3.69746 15.3113 3.73103 15.3225 3.77071C15.3337 3.8104 15.3293 3.85302 15.3101 3.88938C15.2949 3.91981 15.2704 3.94429 15.2403 3.95911C15.2103 3.97393 15.1763 3.97827 15.1437 3.97149C14.7674 3.89166 14.3873 3.83228 14.005 3.79359C13.6254 3.75254 13.2392 3.73886 12.853 3.68412C12.0872 3.5678 11.3147 3.4857 10.5356 3.38307C10.5155 3.38054 10.496 3.37391 10.4783 3.36356C10.4606 3.35322 10.4452 3.33936 10.4328 3.3228C10.4204 3.30624 10.4113 3.28731 10.4061 3.26712C10.4009 3.24692 10.3997 3.22586 10.4025 3.20517C10.4108 3.17227 10.4276 3.14225 10.451 3.1182C10.4744 3.09415 10.5036 3.07694 10.5356 3.06833Z" fill="#423831"/>
<path d="M10.1895 12.962C10.4837 12.962 10.7222 12.717 10.7222 12.4147C10.7222 12.1124 10.4837 11.8673 10.1895 11.8673C9.89524 11.8673 9.65674 12.1124 9.65674 12.4147C9.65674 12.717 9.89524 12.962 10.1895 12.962Z" fill="#3A3A3A"/>
<path d="M10.9885 10.7908C10.7677 10.7273 10.5404 10.6923 10.3115 10.6867C10.0922 10.6779 9.87252 10.681 9.65345 10.6961C9.43385 10.7044 9.21483 10.7282 8.99465 10.754C8.76642 10.7781 8.54164 10.8303 8.32489 10.9094C8.454 10.6737 8.6582 10.4939 8.90114 10.4022C9.13334 10.3007 9.38033 10.242 9.63135 10.2286C9.8835 10.2137 10.1361 10.2478 10.3766 10.3291C10.6261 10.4012 10.8431 10.565 10.9885 10.7908Z" fill="#333333"/>
<path d="M14.9839 10.7907C15.1293 10.5649 15.3462 10.4012 15.5958 10.3291C15.8363 10.2478 16.0889 10.2137 16.341 10.2286C16.592 10.242 16.839 10.3007 17.0712 10.4022C17.3142 10.4939 17.5183 10.6737 17.6475 10.9094C17.4307 10.8303 17.2059 10.7781 16.9777 10.754C16.7575 10.7282 16.5383 10.7044 16.3189 10.6961C16.0999 10.681 15.8802 10.6779 15.6608 10.6867C15.432 10.6923 15.2047 10.7272 14.9839 10.7907Z" fill="#333333"/>
<path d="M15.8496 12.962C16.1438 12.962 16.3823 12.717 16.3823 12.4147C16.3823 12.1124 16.1438 11.8673 15.8496 11.8673C15.5553 11.8673 15.3168 12.1124 15.3168 12.4147C15.3168 12.717 15.5553 12.962 15.8496 12.962Z" fill="#3A3A3A"/>
<path d="M13.6707 15.7538C13.4566 15.7511 13.2443 15.7898 13.0453 15.8678C12.9781 15.8947 12.9035 15.8976 12.8342 15.876C12.6291 15.8051 12.4126 15.7733 12.196 15.7822C11.7115 15.8716 11.6903 16.0492 10.9934 16.238L11.7961 16.8422C11.9904 16.9619 12.2151 17.0228 12.4429 17.0174L13.4829 16.9769C13.7109 16.967 13.9302 16.8886 14.1123 16.752L15.0126 16.104C14.183 15.973 14.0654 15.7868 13.6707 15.7538Z" fill="#D7ACA4"/>
<path d="M10.9978 16.1819C11.6566 16.304 12.3262 16.3306 12.9958 16.2613C13.6788 16.2223 14.3606 16.0905 15.0313 15.8676" stroke="#6B4B4B" stroke-width="0.4" stroke-miterlimit="10" stroke-linecap="round"/>
</svg>
