<svg width="56" height="56" viewBox="0 0 56 56" fill="none" xmlns="http://www.w3.org/2000/svg">
<path d="M54.7008 47.0583C54.4627 45.8591 53.8889 44.7521 53.0462 43.8663C52.2035 42.9805 51.1266 42.3522 49.9407 42.0546C44.8051 40.7758 34.9297 38.279 34.9297 38.279V33.4783L21.1162 33.6407V38.2689L6.07473 42.0546C4.88888 42.3522 3.81195 42.9805 2.96925 43.8663C2.12655 44.7521 1.55275 45.8591 1.31463 47.0583L1 49.1897L1.11164 49.2506C9.59161 52.9907 18.7599 54.9163 28.028 54.9038C37.2921 54.9187 46.4569 52.9965 54.9343 49.2607L54.7008 47.0583Z" fill="#A98265"/>
<path d="M54.7008 47.0583C54.4627 45.8591 53.8889 44.7522 53.0462 43.8663C52.2035 42.9805 51.1266 42.3522 49.9407 42.0546L44.9675 40.8164C41.3455 39.9096 37.6559 39.2987 33.935 38.9895C32.5534 40.4059 30.9044 41.534 29.0836 42.3083H26.8507C25.0561 41.502 23.42 40.3815 22.0195 38.9996C18.333 39.3104 14.6775 39.918 11.0886 40.8164L6.07473 42.0546C4.88888 42.3522 3.81195 42.9805 2.96925 43.8663C2.12655 44.7522 1.55275 45.8591 1.31463 47.0583L1 49.1897L1.11164 49.2506C9.59161 52.9907 18.7599 54.9163 28.028 54.9038C37.2921 54.9187 46.4569 52.9965 54.9343 49.2607L54.7008 47.0583Z" fill="#485668"/>
<path d="M49.9408 44.9675L44.9675 43.7293C40.1813 42.5378 35.2821 41.8574 30.3523 41.6994C29.9565 41.9125 29.5302 42.1256 29.0836 42.3185H26.8609C26.4346 42.1155 26.0286 41.9024 25.6531 41.6994C20.7404 41.8616 15.8585 42.5421 11.0886 43.7293L6.07479 44.9675C4.98338 45.243 3.98299 45.7992 3.1729 46.5808C2.36282 47.3624 1.77121 48.3423 1.45679 49.4231C9.83139 53.0486 18.8618 54.9141 27.9875 54.9038C37.1132 54.9141 46.1436 53.0486 54.5182 49.4231C54.2073 48.3472 53.6218 47.3706 52.8193 46.5894C52.0167 45.8082 51.0247 45.2493 49.9408 44.9675Z" fill="#3B485B"/>
<path d="M28.028 54.9038C29.679 54.9038 31.3131 54.8429 32.9302 54.7211C30.0376 45.9114 30.4842 47.2511 30.0884 46.0738L31.6717 43.9729C31.8267 43.7608 31.9103 43.5048 31.9103 43.2421C31.9103 42.9794 31.8267 42.7234 31.6717 42.5113C31.5463 42.3427 31.3822 42.2066 31.1932 42.1148C31.0041 42.0229 30.7958 41.9779 30.5857 41.9836H27.2973C27.047 41.9831 26.8025 42.0586 26.5959 42.1999C26.3894 42.3412 26.2305 42.5418 26.1402 42.7752C26.0668 42.9837 26.0469 43.2072 26.0824 43.4253C26.1179 43.6434 26.2075 43.8492 26.3432 44.0236L27.8656 46.0535L24.8208 54.8226C25.8966 54.8734 26.9522 54.9038 28.028 54.9038Z" fill="#D1D0BD"/>
<path d="M33.935 38.9895C32.5534 40.4059 30.9044 41.534 29.0836 42.3083H26.8507C25.063 41.4994 23.4313 40.3829 22.0297 39.0098C20.9031 39.1011 19.7663 39.2229 18.6499 39.3752C18.8427 46.1854 19.746 50.5396 21.6135 54.5994C23.6434 54.7922 25.8966 54.9038 28.0179 54.9038C30.0478 54.9038 32.1994 54.8023 34.3511 54.5994C36.2186 50.6005 37.1219 46.1956 37.3249 39.3752C36.0968 39.1925 34.9601 39.0707 33.935 38.9895Z" fill="#EEEEEE"/>
<path d="M21.1162 33.6509L21.1365 38.2791" stroke="#333333" stroke-width="1.5" stroke-linejoin="round"/>
<path d="M34.9297 33.4885V38.279" stroke="#333333" stroke-width="1.5" stroke-linejoin="round"/>
<path d="M33.9148 48.1747L34.5644 49.0374C34.6208 49.0991 34.6901 49.1476 34.7674 49.1795C34.8912 49.23 35.03 49.2295 35.1536 49.1782C35.2771 49.1269 35.3754 49.0289 35.4271 48.9054L37.6599 40.0044L33.9148 48.1747Z" fill="#D1D0BD"/>
<path d="M26.8509 42.3083L22.2532 48.2559C22.2532 48.2559 22.446 48.5807 22.6592 48.9866C23.0042 49.6261 23.4001 49.1592 23.4102 49.149C23.9786 48.398 27.9876 42.7447 27.9876 42.7447L26.8509 42.3083Z" fill="#D1D0BD"/>
<path d="M24.8106 44.0033L27.1247 47.0481C27.204 47.1644 27.3067 47.263 27.4262 47.3375C27.5457 47.412 27.6793 47.4608 27.8187 47.4808C27.9581 47.5009 28.1001 47.4917 28.2357 47.4539C28.3713 47.4161 28.4976 47.3505 28.6065 47.2612C28.6842 47.2004 28.7526 47.1286 28.8095 47.0481L31.1743 44.0033C31.2631 43.8937 31.328 43.7669 31.3651 43.6308C31.4021 43.4948 31.4103 43.3525 31.3893 43.2131C31.3683 43.0737 31.3185 42.9402 31.243 42.8211C31.1676 42.702 31.0681 42.6 30.951 42.5214C30.7726 42.3876 30.555 42.3162 30.3319 42.3185H25.6835C25.479 42.2949 25.2722 42.334 25.0904 42.4307C24.9087 42.5274 24.7607 42.6771 24.666 42.8598C24.5713 43.0426 24.5344 43.2499 24.5603 43.4541C24.5861 43.6583 24.6734 43.8498 24.8106 44.0033Z" fill="#2F62AB" stroke="#333333" stroke-width="1.5" stroke-miterlimit="10"/>
<path d="M24.4048 54.7922C25.6024 54.8531 26.8102 54.8835 28.0281 54.8835C29.2461 54.8835 30.4437 54.8531 31.6211 54.7922L28.5762 47.0481H27.3887L24.4048 54.7922Z" fill="#2F62AB" stroke="#333333" stroke-width="1.5" stroke-miterlimit="10"/>
<path d="M19.7664 36.0664L18.3252 40.0247L22.1312 48.4082L26.8609 42.3185C23.8924 41.0403 21.4077 38.8506 19.7664 36.0664Z" fill="#EEEEEE" stroke="#333333" stroke-width="1.5" stroke-linejoin="round"/>
<path d="M26.8508 42.3083C23.8719 41.0475 21.38 38.8582 19.7462 36.0664L18.3049 40.0247L22.111 48.4082L26.8406 42.3185" stroke="#333333" stroke-width="1.5" stroke-linecap="round" stroke-linejoin="round"/>
<path d="M36.2188 36.0664L37.66 40.0044L33.8134 48.398L29.0837 42.3083C32.0658 41.0401 34.5654 38.8534 36.2188 36.0664Z" fill="#EEEEEE" stroke="#333333" stroke-width="1.5" stroke-linejoin="round"/>
<path d="M29.0837 42.3185C32.0559 41.0421 34.5444 38.8523 36.1883 36.0664L37.6295 40.0044L33.7829 48.4082L29.0532 42.3185" stroke="#333333" stroke-width="1.5" stroke-linecap="round" stroke-linejoin="round"/>
<path d="M40.1365 53.7772C42.3024 50.8241 43.6978 47.3776 44.1963 43.7495L41.5473 40.999L43.019 39.4563L37.3962 37.6497C37.3048 45.4648 36.3812 50.2553 34.3513 54.579C36.4015 54.3963 38.3401 54.1121 40.1365 53.7772Z" fill="#3B485B" stroke="#333333" stroke-width="1.5" stroke-linecap="round" stroke-linejoin="round"/>
<path d="M15.9096 53.7772C13.7392 50.8267 12.3433 47.379 11.8499 43.7496L14.4989 40.9991L13.0576 39.4665L18.6804 37.6599C18.7718 45.475 19.6954 50.2655 21.7253 54.5892C19.6548 54.3964 17.7162 54.1122 15.9096 53.7772Z" fill="#3B485B" stroke="#333333" stroke-width="1.5" stroke-linecap="round" stroke-linejoin="round"/>
<path d="M13.8289 40.2683C13.8289 40.2683 11.251 40.7859 6.11533 42.0546C4.92782 42.3488 3.84902 42.976 3.00577 43.8624C2.16253 44.7488 1.5899 45.8576 1.35523 47.0583L1 49.1896C9.5033 52.9861 18.7158 54.9337 28.028 54.9038C37.3144 54.9354 46.5019 52.9983 54.985 49.2201L54.7008 47.0583C54.4638 45.8585 53.8904 44.751 53.0476 43.865C52.2047 42.979 51.1271 42.3511 49.9407 42.0546C47.5962 41.4659 42.288 40.2074 42.288 40.2074" stroke="#333333" stroke-width="1.5" stroke-linejoin="round"/>
<path d="M29.0836 54.0005C29.3807 54.0005 29.6215 53.7597 29.6215 53.4626C29.6215 53.1655 29.3807 52.9247 29.0836 52.9247C28.7865 52.9247 28.5457 53.1655 28.5457 53.4626C28.5457 53.7597 28.7865 54.0005 29.0836 54.0005Z" fill="#5C8FCC"/>
<path d="M26.9218 52.8232C27.2133 52.8232 27.4496 52.5869 27.4496 52.2954C27.4496 52.004 27.2133 51.7677 26.9218 51.7677C26.6303 51.7677 26.394 52.004 26.394 52.2954C26.394 52.5869 26.6303 52.8232 26.9218 52.8232Z" fill="#5C8FCC"/>
<path d="M28.2311 50.4583C28.5226 50.4583 28.7589 50.2221 28.7589 49.9306C28.7589 49.6391 28.5226 49.4028 28.2311 49.4028C27.9397 49.4028 27.7034 49.6391 27.7034 49.9306C27.7034 50.2221 27.9397 50.4583 28.2311 50.4583Z" fill="#5C8FCC"/>
<path d="M28.0282 45.2212C28.3252 45.2212 28.5661 44.9804 28.5661 44.6833C28.5661 44.3862 28.3252 44.1454 28.0282 44.1454C27.7311 44.1454 27.4902 44.3862 27.4902 44.6833C27.4902 44.9804 27.7311 45.2212 28.0282 45.2212Z" fill="#5C8FCC"/>
<path d="M41.8008 44.7442H38.6038V46.8756H41.8008V44.7442Z" fill="white"/>
<path d="M41.8008 44.7442H38.6038V45.1705H41.8008V44.7442Z" fill="#BA362A"/>
<path d="M41.8008 45.5968H38.6038V46.0231H41.8008V45.5968Z" fill="#BA362A"/>
<path d="M39.8826 44.7442H38.6038V46.023H39.8826V44.7442Z" fill="#2F62AB"/>
<path d="M41.8008 46.4493H38.6038V46.8756H41.8008V46.4493Z" fill="#BA362A"/>
<path d="M41.2629 18.0308C40.9009 17.7058 40.454 17.4903 39.9742 17.4094C39.4945 17.3286 39.0016 17.3857 38.553 17.5741V13.4229C38.553 7.88134 36.1476 3.16183 28.028 3.16183C19.9084 3.16183 17.5538 7.88134 17.5538 13.3722V17.5233C17.1105 17.3432 16.6257 17.2905 16.154 17.3712C15.6824 17.4519 15.2427 17.6628 14.8845 17.9801C13.6767 18.9443 13.8695 20.7407 14.2247 22.7199C14.6409 25.2065 16.1633 27.3379 18.4165 26.2823C18.4212 26.276 18.4273 26.2709 18.4344 26.2674C18.4414 26.2638 18.4492 26.262 18.4571 26.262C18.465 26.262 18.4727 26.2638 18.4798 26.2674C18.4868 26.2709 18.4929 26.276 18.4977 26.2823C18.4368 27.0965 18.4368 27.9141 18.4977 28.7283C18.7007 31.7732 20.3347 32.7881 23.1461 35.7315C24.3945 37.0915 26.191 37.1828 28.0179 37.1828C29.8448 37.1828 31.6818 37.0915 32.9302 35.7619C35.7416 32.8287 37.3757 31.7935 37.5685 28.7588C37.6163 27.9641 37.6061 27.1669 37.5381 26.3737C37.5381 26.3575 37.5445 26.342 37.5559 26.3306C37.5673 26.3192 37.5828 26.3128 37.599 26.3128C39.8522 27.3277 41.3746 25.2369 41.7907 22.7503C42.2068 20.7407 42.42 18.9443 41.2629 18.0308Z" fill="#AD8165"/>
<path d="M38.5531 17.5741V13.423C38.5531 7.88137 36.1477 3.16187 28.0281 3.16187C27.0069 3.15904 25.9876 3.25078 24.9833 3.4359V16.6302C24.9476 17.1568 24.7223 17.6527 24.3491 18.0259C23.9759 18.3992 23.48 18.6245 22.9534 18.6601C23.9476 18.6725 24.9116 19.0033 25.7039 19.604C26.07 19.9572 26.5554 20.16 27.0639 20.1724H27.3887C27.5717 20.1724 27.7473 20.2451 27.8767 20.3745C28.0061 20.5039 28.0788 20.6795 28.0788 20.8625V23.3086C28.0784 23.5396 28.1324 23.7675 28.2365 23.9738C28.3405 24.1801 28.4916 24.359 28.6777 24.496C28.8517 24.622 28.9812 24.7999 29.0476 25.0042C29.1141 25.2084 29.114 25.4285 29.0475 25.6327C28.9809 25.8369 28.8512 26.0148 28.6772 26.1406C28.5031 26.2665 28.2936 26.3339 28.0788 26.3331C27.3278 26.3331 27.0639 25.8256 26.049 25.8256C25.4501 25.8256 25.5415 26.6071 25.5212 26.5868C25.8758 26.5922 26.2239 26.6827 26.5361 26.8507C27.0041 27.1027 27.5271 27.2352 28.0586 27.2364V32.0371C28.3211 32.0157 28.5852 32.0497 28.8337 32.137C29.0822 32.2243 29.3096 32.3629 29.501 32.5438C29.6925 32.7247 29.8437 32.9439 29.9449 33.1871C30.0461 33.4303 30.095 33.692 30.0884 33.9553C30.0884 35.4473 25.5212 35.2849 25.0645 37.0002C25.0645 37.0611 25.0645 36.9393 25.0645 37.0002C26.0189 37.3141 27.0306 37.4146 28.0281 37.2945C29.855 37.2945 31.6921 37.2032 32.9404 35.8736C35.7518 32.9404 37.3859 31.9052 37.5787 28.8705C37.6287 28.0384 37.6151 27.2037 37.5382 26.3737C37.5382 26.3575 37.5446 26.3421 37.556 26.3306C37.5674 26.3192 37.5829 26.3128 37.599 26.3128C39.8522 27.3277 41.3746 25.237 41.7908 22.7503C42.1359 20.7204 42.349 18.9443 41.192 18.0308C40.8367 17.7193 40.4024 17.5118 39.9368 17.4312C39.4712 17.3506 38.9924 17.4001 38.5531 17.5741Z" fill="#A0775C"/>
<path d="M41.2629 18.0308C40.9009 17.7058 40.454 17.4903 39.9742 17.4094C39.4945 17.3286 39.0016 17.3857 38.553 17.5741V13.4229C38.553 7.88134 36.1476 3.16183 28.028 3.16183C19.9084 3.16183 17.5538 7.88134 17.5538 13.3722V17.5233C17.1105 17.3432 16.6257 17.2905 16.154 17.3712C15.6824 17.4519 15.2427 17.6628 14.8845 17.9801C13.6767 18.9443 13.8695 20.7407 14.2247 22.7199C14.6409 25.2065 16.1633 27.3379 18.4165 26.2823C18.4212 26.276 18.4273 26.2709 18.4344 26.2674C18.4414 26.2639 18.4492 26.262 18.4571 26.262C18.465 26.262 18.4727 26.2639 18.4798 26.2674C18.4868 26.2709 18.4929 26.276 18.4977 26.2823C18.4977 26.2823 18.4977 26.2823 18.4977 26.2823C18.4368 27.0965 18.4368 27.9141 18.4977 28.7283C18.7007 31.7732 20.3347 32.6257 23.1461 35.5589C23.7633 36.2076 24.5302 36.6949 25.3796 36.978C26.229 37.2612 27.1349 37.3315 28.0179 37.1828C28.9039 37.3066 29.8064 37.2274 30.6574 36.9514C31.5084 36.6753 32.2855 36.2096 32.9302 35.5894C35.7416 32.6562 37.3757 31.7935 37.5685 28.7588C37.6163 27.9641 37.6061 27.1669 37.5381 26.3737C37.5381 26.3575 37.5445 26.342 37.5559 26.3306C37.5673 26.3192 37.5828 26.3128 37.599 26.3128C39.8522 27.3277 41.3746 25.2369 41.7907 22.7503C42.2068 20.7407 42.42 18.9443 41.2629 18.0308Z" stroke="#343433" stroke-width="1.5" stroke-miterlimit="10"/>
<path d="M23.207 22.4256C23.6274 22.4256 23.9682 22.0848 23.9682 21.6644C23.9682 21.244 23.6274 20.9032 23.207 20.9032C22.7866 20.9032 22.4458 21.244 22.4458 21.6644C22.4458 22.0848 22.7866 22.4256 23.207 22.4256Z" fill="#333333"/>
<path d="M32.4328 22.4256C32.8532 22.4256 33.1941 22.0848 33.1941 21.6644C33.1941 21.244 32.8532 20.9032 32.4328 20.9032C32.0124 20.9032 31.6716 21.244 31.6716 21.6644C31.6716 22.0848 32.0124 22.4256 32.4328 22.4256Z" fill="#333333"/>
<path d="M20.8931 19.4213C21.183 19.0507 21.5979 18.7982 22.0603 18.7109C22.5029 18.6098 22.9602 18.5891 23.4101 18.65C24.2901 18.7645 25.111 19.1555 25.7547 19.7664C24.9244 19.834 24.0889 19.7965 23.268 19.6548L22.1212 19.4924C21.7139 19.4411 21.3036 19.4174 20.8931 19.4213Z" fill="#333333"/>
<path d="M35.1123 19.4213C34.7018 19.4174 34.2915 19.4411 33.8842 19.4924L32.7374 19.6548C31.9164 19.7962 31.081 19.8337 30.2507 19.7664C30.8915 19.1513 31.7139 18.7597 32.5953 18.65C33.045 18.5845 33.5031 18.6051 33.9451 18.7109C34.4069 18.7999 34.8212 19.0521 35.1123 19.4213Z" fill="#333333"/>
<path d="M25.4907 26.8609L23.5927 28.3021C23.4063 28.4434 23.2552 28.626 23.1513 28.8356C23.0474 29.0451 22.9935 29.276 22.9939 29.5099V31.1845" stroke="#A0775C" stroke-miterlimit="10" stroke-linecap="round"/>
<path d="M30.606 26.8609L32.4633 28.3021C32.6499 28.4455 32.801 28.63 32.9049 28.8412C33.0087 29.0524 33.0625 29.2847 33.0621 29.52V31.1947" stroke="#AD8165" stroke-miterlimit="10" stroke-linecap="round"/>
<path d="M28.0483 27.5511V28.3732" stroke="#936B55" stroke-width="0.75" stroke-miterlimit="10" stroke-linecap="round"/>
<path d="M25.511 26.7695C25.9542 26.7712 26.3901 26.8828 26.7797 27.0943V27.0943C27.1679 27.3094 27.6045 27.4222 28.0484 27.4222C28.4922 27.4222 28.9288 27.3094 29.317 27.0943V27.0943C29.7066 26.8828 30.1425 26.7712 30.5857 26.7695" stroke="#674848" stroke-width="0.75" stroke-miterlimit="10" stroke-linecap="round"/>
<path d="M28.0686 1C16.9854 1 14.8743 11.6163 16.9042 16.6911C17.9191 16.6911 18.934 17.4523 18.934 20.4565V16.8027C18.934 15.7878 18.5382 14.5292 18.934 13.6056C19.3503 12.8224 19.5828 11.9547 19.6141 11.0683C19.6851 10.0026 19.7054 8.44971 20.761 7.71895C22.8517 6.24727 24.1306 7.587 28.0686 7.587C32.0066 7.587 33.2854 6.24727 35.3762 7.71895C36.3911 8.44971 36.4419 10.0026 36.5231 11.0683C36.5543 11.9547 36.7869 12.8224 37.2031 13.6056C37.5989 14.5292 37.2031 15.7878 37.2031 16.8027V20.4565C37.2031 17.4117 38.218 16.6911 39.233 16.6911C41.2629 11.6163 39.1518 1 28.0686 1Z" fill="#333333" stroke="#333333" stroke-width="0.977549" stroke-linecap="round" stroke-linejoin="round"/>
<path d="M27.9163 34.8789H28.17" stroke="#7F5E47" stroke-width="0.75" stroke-miterlimit="10" stroke-linecap="round"/>
<path d="M29.2968 29.6215C29.1145 29.5888 28.9265 29.6137 28.7589 29.6926L28.3326 29.8854C28.1735 29.9311 28.0046 29.9311 27.8455 29.8854L27.5308 29.8144C27.1904 29.7383 26.8345 29.7739 26.5159 29.9159L24.4048 30.8699C25.5212 31.0526 26.2114 32.2198 27.2771 32.2096C27.9091 32.2489 28.543 32.2489 29.175 32.2096C30.2712 32.098 30.7888 31.3063 31.8849 29.855C31.0155 29.9009 30.144 29.8223 29.2968 29.6215Z" fill="#916953"/>
<path d="M24.3944 30.5045L24.0291 31.4281" stroke="#936B55" stroke-width="0.5" stroke-miterlimit="10" stroke-linecap="round"/>
<path d="M31.6819 29.4794L32.0473 30.3015" stroke="#936B55" stroke-width="0.5" stroke-miterlimit="10" stroke-linecap="round"/>
<path d="M24.3946 30.7481C25.6734 30.6263 26.9624 30.5755 28.2412 30.5552C28.8373 30.592 29.4351 30.5233 30.0072 30.3523C30.5655 30.1594 31.1744 29.8448 31.7631 29.6316C31.8063 29.6142 31.8546 29.614 31.898 29.631C31.9413 29.648 31.9766 29.6809 31.9965 29.723C32.0101 29.7614 32.0105 29.8032 31.9976 29.8418C31.9848 29.8804 31.9594 29.9136 31.9255 29.9361C31.3673 30.2914 30.9105 30.6161 30.2407 30.9511C29.6058 31.2431 28.9081 31.3722 28.2108 31.3266C26.9218 31.3266 25.643 31.2353 24.3641 31.1033C24.3409 31.1023 24.3181 31.0962 24.2973 31.0856C24.2766 31.075 24.2584 31.06 24.2439 31.0417C24.2295 31.0234 24.2191 31.0022 24.2136 30.9796C24.2081 30.9569 24.2075 30.9334 24.2119 30.9105C24.2117 30.8873 24.2165 30.8644 24.2259 30.8433C24.2353 30.8221 24.2491 30.8032 24.2664 30.7878C24.2837 30.7725 24.3041 30.761 24.3262 30.7541C24.3483 30.7472 24.3716 30.7452 24.3946 30.7481Z" fill="#674848"/>
</svg>
