<svg width="62" height="59" viewBox="0 0 62 59" fill="none" xmlns="http://www.w3.org/2000/svg">
<path d="M38.3501 34.3315V40.9415" stroke="#333333" stroke-width="1.5" stroke-linejoin="round"/>
<path d="M23.25 40.9415V34.3315" stroke="#333333" stroke-width="1.5" stroke-linejoin="round"/>
<path d="M40.72 21.8415V19.8415C40.72 14.4215 38.82 8.84149 30.72 8.84149C22.62 8.84149 20.72 14.4215 20.72 19.8415V21.8415C20.64 21.8415 18.72 21.8415 19.72 26.8415C20.03 28.3415 20.21 29.5215 21.72 29.8415C21.72 33.3915 22.72 33.8415 26.1 37.3215C27.4 39.0015 29 38.8415 30.72 38.8415C32.44 38.8415 34 39.0015 35.34 37.3215C38.72 33.8415 39.72 33.3915 39.72 29.8415C41.22 29.5215 41.4 28.3415 41.72 26.8415C42.72 21.8415 40.8 21.8115 40.72 21.8415Z" fill="#EFC8A5"/>
<path d="M30.88 30.6515C30.5184 30.6508 30.167 30.5313 29.88 30.3115L27.8 28.7915H21.72C21.5211 28.7915 21.3303 28.7125 21.1896 28.5718C21.049 28.4312 20.97 28.2404 20.97 28.0415C20.97 27.8426 21.049 27.6518 21.1896 27.5112C21.3303 27.3705 21.5211 27.2915 21.72 27.2915H28.28L30.79 29.1115C30.8113 29.1285 30.8377 29.1378 30.865 29.1378C30.8922 29.1378 30.9187 29.1285 30.94 29.1115L33.47 27.2815H39.72C39.9189 27.2815 40.1097 27.3605 40.2503 27.5012C40.391 27.6418 40.47 27.8326 40.47 28.0315C40.47 28.2304 40.391 28.4212 40.2503 28.5618C40.1097 28.7025 39.9189 28.7815 39.72 28.7815H34L31.89 30.3115C31.6041 30.5406 31.2462 30.6611 30.88 30.6515Z" fill="#E6B790"/>
<path d="M28.27 28.3715L26.4 29.7915C26.2136 29.9327 26.063 30.1158 25.9605 30.326C25.858 30.5362 25.8065 30.7676 25.81 31.0015" stroke="#E6B790" stroke-width="0.75" stroke-miterlimit="10" stroke-linecap="round"/>
<path d="M19.72 26.8415C20.03 28.3415 20.21 29.5215 21.72 29.8415C21.72 32.8415 22.44 33.6315 24.72 35.9215V32.8415C24.7802 32.0947 24.665 31.3441 24.3838 30.6496C24.1025 29.9551 23.6629 29.336 23.1 28.8415C22.6282 28.5053 22.2527 28.0515 22.0106 27.5252C21.7685 26.9989 21.6683 26.4185 21.72 25.8415V22.8415C21.6225 22.0809 21.2699 21.3759 20.72 20.8415V21.8415C20.64 21.8415 18.72 21.8415 19.72 26.8415Z" fill="#E6B790"/>
<path d="M40.72 21.8415V19.8415C40.72 14.4215 38.82 8.84147 30.72 8.84147C29.714 8.83279 28.7095 8.91985 27.72 9.10147V18.8415C27.6808 19.3589 27.4575 19.8452 27.0906 20.2121C26.7237 20.579 26.2374 20.8023 25.72 20.8415C25.72 20.8415 28.72 20.8415 29.72 22.8415H30.72V25.8415C30.7179 26.068 30.7704 26.2917 30.8731 26.4936C30.9758 26.6955 31.1257 26.8697 31.31 27.0015C31.4374 27.0946 31.5409 27.2165 31.6122 27.3573C31.6834 27.498 31.7204 27.6537 31.72 27.8115C31.72 28.0767 31.6146 28.331 31.4271 28.5186C31.2395 28.7061 30.9852 28.8115 30.72 28.8115C29.98 28.8115 29.72 28.3115 28.72 28.3115C28.13 28.3115 28.22 29.0815 28.2 29.0615C28.5498 29.0635 28.8935 29.1529 29.2 29.3215C29.6589 29.5764 30.175 29.7106 30.7 29.7115V34.2415C30.7 34.2415 32.7 33.8215 32.7 35.8115C32.7 38.5615 27.7 35.5415 27.7 38.5315C28.6606 38.7896 29.6579 38.8842 30.65 38.8115C32.38 38.8115 33.97 38.9515 35.27 37.2915C38.67 33.8315 39.67 33.3815 39.67 29.8315C41.17 29.5115 41.35 28.3315 41.67 26.8315C42.72 21.8415 40.8 21.8115 40.72 21.8415Z" fill="#E6B790"/>
<path d="M33.3101 28.3715L35.1801 29.7915C35.3639 29.9327 35.5128 30.1145 35.6151 30.3226C35.7174 30.5307 35.7705 30.7596 35.7701 30.9915" stroke="#EFC8A5" stroke-width="0.75" stroke-miterlimit="10" stroke-linecap="round"/>
<path d="M39.72 29.8415C41.22 29.5215 41.4 28.3415 41.72 26.8415C42.72 21.8415 40.8 21.8415 40.72 21.8415V20.8415C40.1668 21.3735 39.8137 22.0797 39.72 22.8415V25.8415C39.7677 26.418 39.6657 26.9971 39.424 27.5227C39.1822 28.0483 38.8088 28.5025 38.34 28.8415C37.7733 29.333 37.3311 29.9516 37.0495 30.6469C36.7679 31.3421 36.655 32.0942 36.72 32.8415V35.9215C39 33.6315 39.72 32.8415 39.72 29.8415Z" fill="#DDAD8A"/>
<path d="M30.5701 36.7314H30.8201" stroke="#C6916D" stroke-width="0.81163" stroke-miterlimit="10" stroke-linecap="round"/>
<path d="M32.1501 31.8115C31.7578 31.7961 31.3665 31.8607 31.0001 32.0015C30.8629 32.0415 30.7172 32.0415 30.5801 32.0015C30.2012 31.8712 29.7989 31.8235 29.4001 31.8615C28.7301 31.9615 28.6601 32.3915 27.3101 33.1215L28.5001 33.8515C28.871 34.1158 29.3146 34.259 29.7701 34.2615H31.8001C32.2555 34.259 32.6991 34.1158 33.0701 33.8515L34.3001 33.1515C33.0001 32.3615 32.8101 31.9115 32.1501 31.8115Z" fill="#DDAB85"/>
<path d="M34.3 33.1015C33.3 33.1015 33.04 32.7115 32.06 32.7115C31.6264 32.73 31.195 32.7836 30.77 32.8715C30.3453 32.782 29.9137 32.7285 29.48 32.7115C28.54 32.7115 28.34 33.0715 27.27 33.0715" stroke="#C6916D" stroke-width="0.81163" stroke-miterlimit="10" stroke-linecap="round"/>
<path d="M23.35 21.5514C23.8075 21.3062 24.2949 21.1213 24.8 21.0014C25.3197 20.8965 25.8517 20.8662 26.38 20.9114C27.3659 21.0972 28.3172 21.4346 29.2 21.9114C29.2554 21.9356 29.2991 21.9807 29.3215 22.0368C29.344 22.093 29.3434 22.1557 29.32 22.2114C29.3 22.2551 29.2675 22.2918 29.2265 22.3167C29.1855 22.3417 29.1379 22.3538 29.09 22.3514C28.5918 22.2951 28.0975 22.2083 27.61 22.0914C27.14 22.0014 26.68 21.9514 26.24 21.8814C25.3278 21.727 24.3946 21.7474 23.49 21.9414C23.4306 21.9507 23.3699 21.9373 23.3199 21.904C23.2699 21.8707 23.2343 21.8198 23.22 21.7614C23.2216 21.7182 23.2344 21.6761 23.2572 21.6393C23.28 21.6025 23.312 21.5722 23.35 21.5514Z" fill="#333333"/>
<path d="M38.2899 22.0015C37.3854 21.8072 36.4521 21.7868 35.5399 21.9415C35.0899 22.0115 34.6399 22.0615 34.1699 22.1515C33.6824 22.2683 33.1881 22.3552 32.6899 22.4115C32.6594 22.4143 32.6286 22.4107 32.5996 22.4009C32.5705 22.3911 32.5439 22.3753 32.5213 22.3546C32.4987 22.3339 32.4806 22.3087 32.4684 22.2806C32.4561 22.2525 32.4498 22.2222 32.4499 22.1915C32.4461 22.1433 32.4576 22.0952 32.4828 22.0539C32.5079 22.0126 32.5454 21.9803 32.5899 21.9615C33.4727 21.4846 34.4239 21.1473 35.4099 20.9615C35.9395 20.909 36.4736 20.9224 36.9999 21.0015C37.5081 21.111 37.9969 21.2964 38.4499 21.5515C38.4782 21.5627 38.5039 21.5793 38.5257 21.6004C38.5475 21.6215 38.565 21.6467 38.5771 21.6746C38.5891 21.7024 38.5956 21.7324 38.5961 21.7628C38.5966 21.7931 38.5911 21.8233 38.5799 21.8515C38.5688 21.8797 38.5521 21.9055 38.531 21.9273C38.5099 21.9491 38.4847 21.9666 38.4569 21.9786C38.429 21.9907 38.399 21.9972 38.3687 21.9977C38.3383 21.9982 38.3082 21.9927 38.2799 21.9815L38.2899 22.0015Z" fill="#333333"/>
<path d="M26.3099 24.7515C26.6689 24.7515 26.9599 24.4605 26.9599 24.1015C26.9599 23.7425 26.6689 23.4515 26.3099 23.4515C25.9509 23.4515 25.6599 23.7425 25.6599 24.1015C25.6599 24.4605 25.9509 24.7515 26.3099 24.7515Z" fill="#333333"/>
<path d="M35.2701 24.7515C35.6291 24.7515 35.9201 24.4605 35.9201 24.1015C35.9201 23.7425 35.6291 23.4515 35.2701 23.4515C34.9111 23.4515 34.6201 23.7425 34.6201 24.1015C34.6201 24.4605 34.9111 24.7515 35.2701 24.7515Z" fill="#333333"/>
<path d="M60.52 49.4815C60.278 48.089 59.6545 46.7909 58.7188 45.7317C57.7831 44.6724 56.572 43.8935 55.22 43.4815L39.6 40.0015H22.23L6.61 43.4915C5.25805 43.9035 4.04688 44.6824 3.1112 45.7417C2.17551 46.8009 1.552 48.099 1.31 49.4915L1 51.3715C10.4136 55.5441 20.5931 57.7101 30.89 57.7315H30.94C41.2369 57.7101 51.4164 55.5441 60.83 51.3715L60.52 49.4815Z" fill="#656E70"/>
<path d="M60.5199 49.4815C60.2758 48.0899 59.6515 46.7929 58.7161 45.734C57.7808 44.6751 56.5707 43.8955 55.2199 43.4815L39.5999 40.0015H28.9099L45.5199 56.2615C50.7828 55.1814 55.9153 53.5421 60.8299 51.3715L60.5199 49.4815Z" fill="#5E6668"/>
<path d="M6.61011 43.4915C5.45693 43.84 4.40267 44.4567 3.53362 45.291C2.66457 46.1252 2.00541 47.1535 1.61011 48.2915C2.18473 48.5012 2.80973 48.5303 3.40134 48.3748C3.99294 48.2193 4.52288 47.8866 4.92011 47.4215C5.37239 46.9386 5.95093 46.5922 6.59011 46.4215L20.1501 42.7515C20.7419 42.5928 21.2647 42.243 21.6373 41.7565C22.0098 41.2701 22.2112 40.6742 22.2101 40.0615L6.61011 43.4915Z" fill="#787F80"/>
<path d="M38.35 38.0015L55.22 43.4615C56.572 43.8735 57.7831 44.6524 58.7188 45.7117C59.6545 46.771 60.278 48.069 60.52 49.4615L60.83 51.3415C51.4164 55.5141 41.2369 57.6801 30.94 57.7015H30.89C20.5952 57.6895 10.4158 55.5338 1 51.3715L1.31 49.4615C1.552 48.069 2.17551 46.771 3.1112 45.7117C4.04688 44.6524 5.25805 43.8735 6.61 43.4615L23.26 38.3515" stroke="#333333" stroke-width="1.5" stroke-linejoin="round"/>
<path d="M45.0001 37.2715C44.5387 36.9879 44.1577 36.5908 43.8934 36.1182C43.629 35.6455 43.4902 35.113 43.4901 34.5715V18.8015C43.4901 13.3815 43.0601 11.1015 41.8501 0.631472C41.8356 0.481234 41.7723 0.339889 41.6698 0.229097C41.5673 0.118306 41.4313 0.04418 41.2826 0.0180792C41.1339 -0.00802158 40.9808 0.0153426 40.8467 0.0845913C40.7126 0.15384 40.6049 0.265153 40.5401 0.401472L38.6301 4.86147C36.2667 3.52434 33.5847 2.85383 30.8701 2.92147C28.1584 2.85162 25.479 3.52233 23.1201 4.86147L21.2201 0.401472C21.1419 0.235564 21.0016 0.106988 20.8296 0.043404C20.6575 -0.0201802 20.4674 -0.0136923 20.3001 0.0614721C20.1961 0.110352 20.1059 0.184432 20.0378 0.276987C19.9697 0.369542 19.9258 0.477641 19.9101 0.591472C18.7001 11.1215 18.2701 13.4015 18.2701 18.8015V34.5715C18.27 35.113 18.1311 35.6455 17.8668 36.1182C17.6025 36.5908 17.2214 36.9879 16.7601 37.2715L6.59009 43.5215L9.48009 43.2215C12.6852 42.8798 15.9184 43.5216 18.7501 45.0615C30.1601 51.2415 31.5801 51.2315 43.0801 45.0615C45.8978 43.544 49.107 42.9098 52.2901 43.2415L55.2001 43.5415L45.0001 37.2715ZM39.7401 29.8415C39.7401 33.3915 38.7401 33.8415 35.3601 37.3215C34.0001 39.0015 32.4501 38.8415 30.7201 38.8415C28.9901 38.8415 27.4001 39.0015 26.1001 37.3215C22.7201 33.8415 21.7201 33.3915 21.7201 29.8415V28.4015H28.0001L30.3101 30.0815C30.456 30.1857 30.6308 30.2418 30.8101 30.2418C30.9894 30.2418 31.1642 30.1857 31.3101 30.0815L33.6201 28.4015H39.6201L39.7401 29.8415Z" fill="#333333"/>
<path d="M43.4701 36.3415V34.6015V18.8015C43.4701 13.3415 43.0101 10.8715 41.8301 0.631474C41.8176 0.512754 41.774 0.399424 41.7038 0.302877C41.6336 0.206331 41.5392 0.129971 41.4301 0.0814739C41.3497 0.0410601 41.2619 0.0172787 41.172 0.0115502C41.0822 0.00582181 40.9921 0.018264 40.9071 0.0481334C40.8222 0.0780028 40.7441 0.124687 40.6776 0.185396C40.6111 0.246105 40.5576 0.319595 40.5201 0.401474L38.6301 4.86147C36.3667 3.58275 33.8098 2.91423 31.2101 2.92147C29.6192 7.77222 28.4646 12.7553 27.7601 17.8115C27.6301 18.6615 27.3401 19.9615 26.1401 20.3315C26.1166 20.3392 26.0949 20.3517 26.0764 20.3683C26.0579 20.3848 26.0431 20.4049 26.0327 20.4275C26.0224 20.45 26.0168 20.4744 26.0164 20.4992C26.0159 20.524 26.0206 20.5486 26.0301 20.5715L28.1401 21.4215C28.3941 21.4981 28.6158 21.6561 28.7712 21.8711C28.9266 22.0861 29.007 22.3463 29.0001 22.6115C29.0001 23.5015 27.8901 23.4415 27.7601 23.4415H26.5301C25.8613 25.0299 25.469 26.7209 25.3701 28.4415H28.0001L30.4601 22.2315C30.5483 22.2962 30.6204 22.3804 30.6707 22.4775C30.721 22.5746 30.7482 22.6821 30.7501 22.7915V30.2915H30.8301C31.3801 30.2915 31.8301 29.6815 33.6701 28.4315H39.6701C39.4001 30.2315 40.6101 31.9315 37.2201 35.4315C34.0201 38.6915 34.2201 38.9215 30.8201 38.9115C27.6901 38.8415 29.5201 38.9115 27.7401 38.8015L31.2401 42.2915C32.4883 43.5389 34.1275 44.3191 35.8828 44.5012C37.638 44.6833 39.4025 44.2562 40.8801 43.2915L47.4701 38.8515L43.4701 36.3415ZM40.0001 20.7715L39.0001 22.8815C38.9192 23.0617 38.7868 23.2138 38.6195 23.3188C38.4522 23.4238 38.2576 23.477 38.0601 23.4715H33.8601C33.7301 23.4715 32.6301 23.5315 32.6301 22.6415C32.6176 22.3834 32.6887 22.1282 32.8328 21.9138C32.977 21.6994 33.1864 21.5373 33.4301 21.4515C34.0001 21.2315 38.6601 19.3315 38.6601 19.3315C38.7958 19.2659 38.9445 19.2319 39.0951 19.2319C39.2458 19.2319 39.3945 19.2659 39.5301 19.3315C39.6628 19.3869 39.7819 19.4703 39.8794 19.576C39.9769 19.6817 40.0504 19.8071 40.095 19.9438C40.1396 20.0805 40.1542 20.2252 40.1379 20.368C40.1215 20.5108 40.0745 20.6484 40.0001 20.7715Z" fill="#222222"/>
<path d="M22 20.6215C22.1374 20.5623 22.2854 20.5318 22.435 20.5318C22.5846 20.5318 22.7326 20.5623 22.87 20.6215L28.1 22.7415C28.3463 22.8274 28.5583 22.9907 28.7043 23.207C28.8502 23.4232 28.9224 23.6809 28.91 23.9415C28.91 24.8315 27.8 24.7615 27.67 24.7615H23.47C23.2726 24.7669 23.0779 24.7138 22.9106 24.6088C22.7433 24.5038 22.6109 24.3516 22.53 24.1715L21.53 22.0615C21.4556 21.9384 21.4086 21.8008 21.3923 21.658C21.3759 21.5151 21.3905 21.3705 21.4351 21.2338C21.4797 21.0971 21.5533 20.9717 21.6507 20.866C21.7482 20.7603 21.8674 20.6769 22 20.6215Z" fill="#777777"/>
<path d="M40 22.0015L39 24.1115C38.9191 24.2916 38.7866 24.4438 38.6193 24.5488C38.452 24.6538 38.2574 24.7069 38.06 24.7015H33.86C33.73 24.7015 32.63 24.7715 32.63 23.8815C32.6169 23.6221 32.6876 23.3654 32.8316 23.1493C32.9757 22.9332 33.1855 22.7691 33.43 22.6815C34 22.4615 38.66 20.5615 38.66 20.5615C38.7974 20.5023 38.9454 20.4718 39.095 20.4718C39.2445 20.4718 39.3926 20.5023 39.53 20.5615C39.6626 20.6169 39.7817 20.7003 39.8792 20.806C39.9767 20.9117 40.0502 21.0371 40.0949 21.1738C40.1395 21.3105 40.1541 21.4551 40.1377 21.598C40.1213 21.7408 40.0743 21.8784 40 22.0015Z" fill="#777777"/>
</svg>
