<svg width="61" height="62" viewBox="0 0 61 62" fill="none" xmlns="http://www.w3.org/2000/svg">
<path d="M33.5875 1.00039C33.7626 1.43561 33.8534 1.90016 33.8551 2.36929C33.8551 4.42619 32.1877 5.52729 30.1308 5.52729C28.0739 5.52729 26.4066 4.42619 26.4066 2.36929C26.4082 1.90005 26.4991 1.4354 26.6743 1.00009C12.5709 2.82289 22.0191 16.2748 1.94238 16.2748C8.45928 30.2143 20.4775 31.9026 30.1309 31.9026C39.7843 31.9026 51.8024 30.2143 58.3194 16.2748C38.2673 16.2748 47.6823 2.82429 33.5875 1.00039Z" fill="#333333"/>
<path d="M39.1653 27.2005C39.1706 27.1062 39.2074 27.0164 39.2697 26.9455C39.332 26.8745 39.4163 26.8265 39.5091 26.809C39.602 26.7915 39.6979 26.8056 39.7818 26.849C39.8657 26.8925 39.9326 26.9627 39.9719 27.0486C40.3344 27.8447 41.1045 28.1741 41.861 28.9105C42.2022 28.0239 43.102 26.7533 43.3249 26.0205C43.3556 25.9335 43.4125 25.8581 43.4876 25.8045C43.5628 25.751 43.6526 25.7219 43.7449 25.7212C43.8381 25.7248 43.9276 25.7591 43.9994 25.8187C44.0712 25.8784 44.1212 25.9601 44.1418 26.0512C44.5668 27.4734 44.5866 28.9861 44.1989 30.419C44.5381 30.9743 44.8126 31.5667 45.017 32.1845C45.5988 32.6835 46.0568 33.311 46.3547 34.0173C46.6526 34.7236 46.7823 35.4895 46.7336 36.2545L47.7883 37.1899C47.8483 37.2489 47.8862 37.3269 47.8954 37.4106C48.8721 37.6528 49.755 38.1794 50.4322 38.9237C51.1095 39.6681 51.5507 40.5966 51.6999 41.5918C51.7158 41.6911 51.7014 41.7929 51.6586 41.8838C51.6158 41.9748 51.5465 42.0508 51.4599 42.1018C50.9516 42.3503 50.396 42.4869 49.8304 42.5024C49.2649 42.5178 48.7026 42.4118 48.1815 42.1914C47.6604 41.9711 47.1927 41.6415 46.8098 41.2249C46.427 40.8084 46.1379 40.3146 45.9622 39.7768C45.8953 39.8152 45.818 39.8315 45.7414 39.8232C45.6647 39.8149 45.5927 39.7825 45.5356 39.7307L44.4729 38.7887C44.3984 38.7226 44.3533 38.6296 44.3474 38.5303C44.3414 38.4309 44.3752 38.3332 44.4412 38.2587L44.4976 38.195C42.6911 37.9842 41.3182 37.6324 40.4085 34.3061C40.0287 33.9589 39.7216 33.5398 39.5052 33.073C39.2888 32.6061 39.1672 32.101 39.1477 31.5868C39.1361 31.5183 39.1397 31.4481 39.1583 31.3812C39.1768 31.3143 39.2098 31.2523 39.2549 31.1995C39.3 31.1467 39.3561 31.1044 39.4194 31.0757C39.4826 31.047 39.5513 31.0325 39.6208 31.0332C39.1626 29.8109 39.0064 28.4961 39.1653 27.2005Z" fill="#333333"/>
<path d="M46.5083 37.0581L45.251 38.4761L45.7525 38.9208L47.0098 37.5028L46.5083 37.0581Z" fill="#666666"/>
<path d="M43.547 27.5194C43.8104 28.6832 43.6206 29.9036 43.0163 30.9324C42.9093 30.5021 42.7381 30.0904 42.5085 29.7111C42.6929 29.0487 42.9792 28.419 43.3571 27.8445C43.4215 27.7352 43.4848 27.6269 43.547 27.5194Z" fill="#3A3A3A"/>
<path d="M44.1065 33.6957C43.9099 33.2481 43.6199 32.8478 43.2559 32.5215C43.2682 32.4852 43.2751 32.4473 43.2765 32.409C43.2399 32.1614 43.3449 31.9861 43.5856 31.6136C43.6056 31.5823 43.6281 31.5452 43.649 31.5126C44.0634 32.1598 44.2262 32.9365 44.1065 33.6957Z" fill="#3A3A3A"/>
<path d="M39.9839 28.4407C40.1783 28.619 40.3833 28.7786 40.586 28.9359C41.0709 29.2373 41.4798 29.6465 41.7809 30.1316C42.0819 30.6168 42.267 31.1649 42.3218 31.7332C42.19 31.7015 42.0562 31.6795 41.9273 31.6585C41.0772 31.5179 40.0415 31.3475 39.9839 28.4407Z" fill="#3A3A3A"/>
<path d="M45.0916 33.8038C45.6587 34.6958 45.8845 35.7627 45.7274 36.808L45.5565 37.0006C45.3566 36.4439 45.0411 35.9359 44.6309 35.5098C44.849 34.9606 45.0036 34.3882 45.0916 33.8038Z" fill="#3A3A3A"/>
<path d="M44.8149 37.2687C44.5328 36.583 44.058 35.9939 43.4481 35.5724C42.8381 35.1509 42.119 34.9153 41.3779 34.8939C41.5827 35.6292 42.0387 36.2694 42.6667 36.7033C43.2946 37.1372 44.0548 37.3372 44.8149 37.2687Z" fill="#3A3A3A"/>
<path d="M40.9133 32.5418C41.4621 32.588 41.9852 32.7949 42.4171 33.1366C42.8491 33.4783 43.1707 33.9397 43.342 34.4632C42.9932 34.3098 42.6338 34.1816 42.2668 34.0794C41.3455 33.8011 40.6819 33.6004 40.3245 32.3807C40.5198 32.4412 40.718 32.4915 40.9133 32.5418Z" fill="#3A3A3A"/>
<path d="M49.1383 39.0872C48.6091 38.6794 47.9805 38.4205 47.3176 38.3372C47.666 38.8929 48.1317 39.3656 48.682 39.7223C48.3194 39.7818 47.9495 39.7818 47.5869 39.7223C48.2914 40.1342 49.053 40.4393 49.8469 40.6278C49.17 40.7591 48.4771 40.7875 47.7917 40.712C47.876 40.7972 47.965 40.8775 48.0583 40.9526C48.4173 41.2365 48.842 41.4255 49.2932 41.5021C49.7445 41.5787 50.2077 41.5405 50.6403 41.3911C50.4227 40.4719 49.8916 39.6572 49.1383 39.0872Z" fill="#3A3A3A"/>
<path d="M21.0968 27.2005C21.0914 27.1062 21.0546 27.0164 20.9923 26.9455C20.93 26.8745 20.8457 26.8265 20.7529 26.809C20.6601 26.7915 20.5641 26.8056 20.4802 26.849C20.3964 26.8925 20.3295 26.9627 20.2902 27.0486C19.9276 27.8447 19.1576 28.1741 18.4011 28.9105C18.0598 28.0239 17.1601 26.7533 16.9371 26.0205C16.9063 25.9335 16.8495 25.858 16.7744 25.8045C16.6992 25.7509 16.6094 25.7218 16.5171 25.7212C16.4238 25.7248 16.3343 25.7591 16.2625 25.8187C16.1907 25.8784 16.1406 25.9601 16.1201 26.0512C15.6951 27.4735 15.6753 28.9861 16.0631 30.419C15.7239 30.9743 15.4494 31.5667 15.245 32.1845C14.6631 32.6836 14.2052 33.311 13.9072 34.0173C13.6093 34.7236 13.4796 35.4895 13.5283 36.2545L12.4736 37.1899C12.4135 37.2489 12.3757 37.3269 12.3665 37.4106C11.3897 37.6528 10.5068 38.1794 9.82959 38.9237C9.15234 39.6681 8.71118 40.5966 8.56197 41.5918C8.54605 41.6911 8.56044 41.7929 8.60326 41.8838C8.64607 41.9748 8.71532 42.0508 8.80197 42.1018C9.31022 42.3503 9.86587 42.4869 10.4314 42.5024C10.997 42.5178 11.5592 42.4118 12.0803 42.1914C12.6014 41.9711 13.0691 41.6415 13.452 41.2249C13.8348 40.8084 14.1238 40.3146 14.2996 39.7768C14.3664 39.8152 14.4437 39.8315 14.5204 39.8232C14.5971 39.8149 14.6692 39.7825 14.7263 39.7307L15.7888 38.7883C15.8632 38.7222 15.9083 38.6292 15.9142 38.5298C15.9202 38.4305 15.8865 38.3328 15.8205 38.2583L15.7641 38.1946C17.5705 37.9838 18.9435 37.632 19.8532 34.3057C20.233 33.9585 20.54 33.5394 20.7564 33.0726C20.9729 32.6057 21.0944 32.1006 21.114 31.5864C21.1255 31.5179 21.1219 31.4477 21.1034 31.3808C21.0848 31.3139 21.0519 31.2519 21.0068 31.1991C20.9616 31.1463 20.9055 31.104 20.8423 31.0753C20.7791 31.0466 20.7103 31.0321 20.6409 31.0328C21.0991 29.8107 21.2555 28.496 21.0968 27.2005Z" fill="#333333"/>
<path d="M13.7535 37.058L13.252 37.5027L14.5093 38.9206L15.0108 38.4759L13.7535 37.058Z" fill="#666666"/>
<path d="M16.7149 27.5194C16.4515 28.6832 16.6413 29.9036 17.2456 30.9324C17.3526 30.5021 17.5238 30.0904 17.7534 29.7111C17.5689 29.0487 17.2827 28.419 16.9048 27.8445C16.8402 27.7352 16.7769 27.6269 16.7149 27.5194Z" fill="#3A3A3A"/>
<path d="M16.1554 33.6957C16.352 33.2482 16.642 32.8478 17.0059 32.5215C16.9939 32.4852 16.9871 32.4473 16.9859 32.409C17.0225 32.1614 16.9175 31.9861 16.6768 31.6136C16.6568 31.5823 16.6342 31.5452 16.6134 31.5126C16.1988 32.1598 16.0359 32.9365 16.1554 33.6957Z" fill="#3A3A3A"/>
<path d="M20.2777 28.4407C20.0834 28.619 19.8783 28.7786 19.6757 28.9359C19.1908 29.2373 18.7819 29.6465 18.4808 30.1316C18.1798 30.6168 17.9947 31.1649 17.9399 31.7332C18.0717 31.7015 18.2055 31.6795 18.3344 31.6585C19.1845 31.5179 20.2201 31.3475 20.2777 28.4407Z" fill="#3A3A3A"/>
<path d="M15.1704 33.8038C14.6032 34.6958 14.3774 35.7627 14.5346 36.808L14.7054 37.0006C14.9054 36.4439 15.221 35.9358 15.6314 35.5098C15.4132 34.9606 15.2585 34.3882 15.1704 33.8038Z" fill="#3A3A3A"/>
<path d="M15.4468 37.2687C15.7289 36.5831 16.2037 35.9939 16.8137 35.5724C17.4236 35.1509 18.1427 34.9153 18.8838 34.8939C18.679 35.6292 18.223 36.2694 17.5951 36.7033C16.9671 37.1372 16.207 37.3372 15.4468 37.2687Z" fill="#3A3A3A"/>
<path d="M19.9375 32.3807C19.7422 32.4407 19.544 32.4915 19.3486 32.5418C18.7998 32.588 18.2767 32.7949 17.8448 33.1366C17.4129 33.4783 17.0912 33.9397 16.9199 34.4632C17.2687 34.3099 17.628 34.1816 17.9951 34.0794C18.9165 33.8011 19.5801 33.6004 19.9375 32.3807Z" fill="#3A3A3A"/>
<path d="M11.1236 39.0872C11.6528 38.6794 12.2813 38.4205 12.9442 38.3372C12.5959 38.8928 12.1302 39.3656 11.5799 39.7223C11.9425 39.7818 12.3124 39.7818 12.675 39.7223C11.9706 40.1342 11.2089 40.4393 10.415 40.6278C11.0919 40.7591 11.7848 40.7875 12.4702 40.712C12.386 40.7972 12.297 40.8775 12.2037 40.9526C11.8447 41.2365 11.42 41.4254 10.9687 41.5021C10.5175 41.5787 10.0542 41.5405 9.62158 41.3911C9.83921 40.4719 10.3703 39.6572 11.1236 39.0872Z" fill="#3A3A3A"/>
<path d="M30.0793 58.8564C39.2202 58.8297 48.257 56.9146 56.6229 53.2311L55.9556 49.8011L55.9547 49.7974C55.837 49.0078 55.5018 48.2665 54.9865 47.6568C54.4712 47.047 53.7963 46.5928 53.0374 46.3451L52.9994 46.3343C50.7061 45.6843 29.3494 38.5862 7.21437 46.3811L7.21197 46.3821C6.47134 46.6339 5.81121 47.0785 5.2996 47.6703C4.78798 48.262 4.44337 48.9795 4.30127 49.7487C4.29847 49.7629 4.29317 49.7761 4.29047 49.7904L3.63867 53.2449L3.64137 53.246C11.9754 56.9114 20.9749 58.8212 30.0793 58.8564Z" fill="#75402E"/>
<path d="M39.5376 35.1519C42.1758 36.6807 44.3761 38.8627 45.927 41.488C47.4779 44.1133 48.327 47.0935 48.3928 50.1419L41.7154 53.1553L44.7643 57.0514" stroke="#D09C69" stroke-width="1.18593" stroke-linejoin="round"/>
<path d="M20.044 34.9787C13.044 38.9104 11.0305 46.7999 10.9502 50.2655L17.3291 53.1344L14.341 56.9934" stroke="#D09C69" stroke-width="1.18593" stroke-linejoin="round"/>
<path d="M7.22215 50.5371C6.54428 50.7774 5.93409 51.177 5.44297 51.7024C4.95186 52.2278 4.5942 52.8636 4.40015 53.5561C12.5242 57.0153 21.2573 58.8173 30.087 58.8561C38.9467 58.8251 47.7104 57.0205 55.8615 53.5487C55.6716 52.8517 55.3165 52.2108 54.8262 51.6804C54.3359 51.1499 53.7249 50.7454 53.045 50.5013L50.5385 49.7862C36.593 45.792 21.7827 45.9722 7.93855 50.3046C7.60755 50.4081 7.36375 50.4872 7.22215 50.5371Z" fill="#47210D"/>
<path d="M44.7644 57.0509L41.7155 53.1548L48.3929 50.1414C48.1371 42.6614 42.9008 32.8322 29.8062 32.8322C12.574 32.8322 10.9872 48.6713 10.9502 50.2657L17.3291 53.1346L14.341 56.9934C19.3764 58.1319 24.5143 58.7561 29.6758 58.8565C34.7537 58.7703 39.8095 58.1653 44.7644 57.0509Z" fill="#444444"/>
<path d="M48.3929 50.1414C48.2405 45.9907 46.7075 42.0096 44.0368 38.8287C40.6008 36.1942 36.3572 34.8335 32.03 34.9787C16.8122 34.9787 13.7974 47.3249 13.2747 51.311L17.3291 53.1344L14.341 56.9933C19.3767 58.1298 24.5144 58.754 29.6758 58.8564C34.7536 58.7702 39.8094 58.1652 44.7643 57.0509L41.7154 53.1548L48.3929 50.1414Z" fill="#333333"/>
<path d="M37.3386 39.3349C35.2179 42.046 32.8003 44.5111 30.131 46.6843C27.4617 44.5111 25.0442 42.046 22.9234 39.3349L20.5791 42.951C20.5869 48.3886 21.8752 53.748 24.3397 58.595C26.3697 58.7731 28.3909 58.8564 30.131 58.8564C31.8711 58.8564 33.8925 58.7731 35.9223 58.595C38.3868 53.748 39.6751 48.3886 39.6829 42.951L37.3386 39.3349Z" fill="#D1D8DB"/>
<path d="M10.763 45.3211C10.763 45.3211 9.39942 45.6805 7.21442 46.3816C6.46611 46.6354 5.79985 47.0857 5.28547 47.6855C4.77109 48.2853 4.42753 49.0125 4.29082 49.7907L3.63892 53.2453C11.9665 56.9334 20.9717 58.8445 30.0795 58.8565C39.2238 58.8621 48.2672 56.9455 56.6231 53.2311L55.9558 49.8011C55.8386 49.0108 55.5035 48.2687 54.988 47.6582C54.4726 47.0478 53.7972 46.5931 53.0376 46.3451C51.4527 45.8929 49.6412 45.3819 49.6412 45.3819" stroke="#333333" stroke-width="1.5852" stroke-linejoin="round"/>
<path d="M44.1694 56.2905L41.7155 53.1548L48.3929 50.1414C48.1371 42.6614 42.9008 32.8322 29.8062 32.8322C12.574 32.8322 10.9872 48.6713 10.9502 50.2657L17.3291 53.1346L14.8854 56.2905" stroke="#D09C69" stroke-width="1.5" stroke-linecap="round" stroke-linejoin="round"/>
<path d="M37.3465 38.0118L39.5985 41.5011C37.1052 48.0581 29.9612 56.1031 26.3299 60.2426C26.1502 60.4466 25.9125 60.5909 25.6487 60.6563C25.3848 60.7217 25.1073 60.7051 24.8531 60.6087C24.5989 60.5123 24.3802 60.3407 24.2261 60.1168C24.072 59.8928 23.9898 59.6273 23.9905 59.3554V52.181C23.9899 51.5836 24.2179 51.0086 24.6277 50.5739C29.2666 45.6987 33.6824 42.7946 37.3465 38.0118Z" fill="white" stroke="#333333" stroke-width="1.77889" stroke-linejoin="round"/>
<path d="M22.9153 38.0118L20.6633 41.5011C23.446 47.8325 30.3033 56.1011 33.9319 60.2426C34.1117 60.4466 34.3493 60.5909 34.6131 60.6563C34.877 60.7217 35.1545 60.7051 35.4087 60.6087C35.6629 60.5123 35.8816 60.3407 36.0357 60.1168C36.1899 59.8928 36.272 59.6273 36.2713 59.3554V52.181C36.2719 51.5836 36.044 51.0086 35.6341 50.5739C30.9952 45.6987 26.5794 42.7946 22.9153 38.0118Z" fill="white" stroke="#333333" stroke-width="1.77889" stroke-linejoin="round"/>
<g style="mix-blend-mode:multiply" opacity="0.3">
<path d="M38.3199 51.4506L38.3194 51.4527C38.3176 51.4612 38.3184 51.4576 38.3199 51.4506Z" fill="#535C63"/>
</g>
<path d="M10.3644 48.6937C10.2848 48.6226 10.182 48.583 10.0752 48.5825L10.3916 48.2376C10.4315 48.1946 10.4625 48.1442 10.4829 48.0892C10.5032 48.0342 10.5124 47.9757 10.5101 47.9172C10.5077 47.8586 10.4938 47.801 10.4691 47.7478C10.4445 47.6946 10.4095 47.6469 10.3663 47.6072C10.3231 47.5676 10.2725 47.5369 10.2173 47.5169C10.1622 47.4969 10.1037 47.4881 10.0451 47.4908C9.98655 47.4935 9.9291 47.5078 9.87607 47.5328C9.82304 47.5578 9.77547 47.593 9.73612 47.6365L9.26022 48.1554C9.20229 48.2178 9.16362 48.2956 9.14885 48.3794C9.13408 48.4633 9.14383 48.5496 9.17695 48.628C9.21006 48.7065 9.26511 48.7737 9.3355 48.8215C9.40589 48.8694 9.48861 48.896 9.57372 48.898L9.26022 49.2398C9.20229 49.3022 9.16362 49.38 9.14885 49.4638C9.13408 49.5477 9.14383 49.634 9.17695 49.7124C9.21006 49.7909 9.26511 49.8581 9.3355 49.9059C9.40589 49.9538 9.48861 49.9804 9.57372 49.9824L9.26022 50.3242C9.20231 50.3866 9.16365 50.4644 9.14888 50.5482C9.13411 50.6321 9.14387 50.7184 9.17698 50.7968C9.21009 50.8753 9.26514 50.9425 9.33551 50.9904C9.40589 51.0383 9.48861 51.0649 9.57372 51.0669L9.26022 51.4087C9.20229 51.4711 9.16362 51.5489 9.14885 51.6327C9.13408 51.7166 9.14383 51.8029 9.17695 51.8813C9.21006 51.9598 9.26511 52.027 9.3355 52.0748C9.40589 52.1227 9.48861 52.1493 9.57372 52.1513L9.26022 52.4931C9.20229 52.5555 9.16362 52.6333 9.14885 52.7171C9.13408 52.801 9.14383 52.8873 9.17695 52.9657C9.21006 53.0442 9.26511 53.1114 9.3355 53.1592C9.40589 53.2071 9.48861 53.2337 9.57372 53.2357L9.26022 53.5775C9.21977 53.6204 9.18824 53.6708 9.16746 53.726C9.14669 53.7811 9.13708 53.8399 9.1392 53.8988C9.14133 53.9576 9.15514 54.0155 9.17983 54.069C9.20452 54.1226 9.2396 54.1706 9.28303 54.2105C9.32647 54.2503 9.37739 54.2811 9.43283 54.3011C9.48827 54.3211 9.54713 54.3298 9.60599 54.3269C9.66485 54.3239 9.72254 54.3093 9.77569 54.2838C9.82884 54.2584 9.87641 54.2226 9.91562 54.1786L10.3916 53.6598C10.4311 53.6168 10.4618 53.5664 10.4818 53.5115C10.5018 53.4566 10.5108 53.3984 10.5083 53.34C10.5058 53.2816 10.4918 53.2244 10.4671 53.1714C10.4424 53.1185 10.4075 53.0709 10.3644 53.0315C10.2849 52.9604 10.1822 52.9207 10.0755 52.9199L10.3916 52.5753C10.4311 52.5323 10.4618 52.4819 10.4818 52.427C10.5018 52.3721 10.5108 52.3139 10.5083 52.2555C10.5058 52.1971 10.4918 52.1399 10.4671 52.0869C10.4424 52.034 10.4075 51.9864 10.3644 51.947C10.2849 51.8759 10.1822 51.8362 10.0755 51.8355L10.3916 51.4909C10.4311 51.4479 10.4618 51.3975 10.4818 51.3426C10.5018 51.2877 10.5108 51.2295 10.5083 51.1711C10.5058 51.1127 10.4918 51.0555 10.4671 51.0025C10.4424 50.9496 10.4075 50.902 10.3644 50.8626C10.2849 50.7915 10.1822 50.7518 10.0755 50.751L10.3916 50.4065C10.4311 50.3635 10.4618 50.3131 10.4818 50.2582C10.5018 50.2033 10.5108 50.1451 10.5083 50.0867C10.5058 50.0283 10.4918 49.9711 10.4671 49.9181C10.4424 49.8652 10.4075 49.8176 10.3644 49.7782C10.2849 49.7071 10.1822 49.6674 10.0755 49.6666L10.3916 49.322C10.4311 49.279 10.4618 49.2286 10.4818 49.1737C10.5018 49.1188 10.5108 49.0606 10.5083 49.0022C10.5058 48.9438 10.4918 48.8866 10.4671 48.8336C10.4424 48.7807 10.4075 48.7331 10.3644 48.6937Z" fill="#DDAA7C"/>
<path d="M8.58568 47.6093C8.49859 47.5299 8.38364 47.4882 8.26592 47.4933C8.14821 47.4984 8.03729 47.5499 7.95738 47.6365L7.48128 48.1554C7.4234 48.2178 7.38476 48.2956 7.37002 48.3794C7.35528 48.4633 7.36505 48.5496 7.39816 48.628C7.43128 48.7064 7.48633 48.7736 7.55671 48.8215C7.62708 48.8694 7.70978 48.8959 7.79488 48.898L7.48128 49.2398C7.4234 49.3022 7.38476 49.38 7.37002 49.4638C7.35528 49.5477 7.36505 49.634 7.39816 49.7124C7.43128 49.7908 7.48633 49.858 7.55671 49.9059C7.62708 49.9538 7.70978 49.9803 7.79488 49.9824L7.48128 50.3242C7.42341 50.3866 7.38479 50.4644 7.37005 50.5483C7.35531 50.6321 7.36508 50.7184 7.3982 50.7968C7.43131 50.8752 7.48635 50.9424 7.55672 50.9903C7.62708 51.0382 7.70978 51.0648 7.79488 51.0669L7.48098 51.4087C7.4231 51.4711 7.38446 51.5489 7.36972 51.6327C7.35498 51.7166 7.36475 51.8029 7.39786 51.8813C7.43098 51.9597 7.48603 52.0269 7.55641 52.0748C7.62678 52.1227 7.70948 52.1492 7.79458 52.1513L7.48098 52.4931C7.4231 52.5555 7.38446 52.6333 7.36972 52.7171C7.35498 52.801 7.36475 52.8873 7.39786 52.9657C7.43098 53.0441 7.48603 53.1113 7.55641 53.1592C7.62678 53.2071 7.70948 53.2336 7.79458 53.2357L7.48098 53.5775C7.44151 53.6205 7.41091 53.6709 7.39092 53.7258C7.37093 53.7807 7.36194 53.839 7.36447 53.8973C7.367 53.9557 7.381 54.0129 7.40567 54.0659C7.43033 54.1188 7.46518 54.1664 7.50823 54.2058C7.55128 54.2453 7.60168 54.2759 7.65655 54.2959C7.71143 54.3159 7.7697 54.3249 7.82805 54.3223C7.8864 54.3198 7.94368 54.3058 7.99661 54.2811C8.04955 54.2565 8.09711 54.2216 8.13658 54.1786L8.61258 53.6598C8.65209 53.6168 8.68272 53.5664 8.70274 53.5115C8.72275 53.4566 8.73175 53.3983 8.72923 53.34C8.7267 53.2816 8.7127 53.2244 8.68801 53.1714C8.66333 53.1185 8.62846 53.0709 8.58538 53.0315C8.50584 52.9603 8.40309 52.9207 8.29638 52.9199L8.61258 52.5753C8.65209 52.5323 8.68272 52.4819 8.70274 52.427C8.72275 52.3721 8.73175 52.3138 8.72923 52.2555C8.7267 52.1971 8.7127 52.1399 8.68801 52.0869C8.66333 52.034 8.62846 51.9864 8.58538 51.947C8.50587 51.8759 8.40315 51.8362 8.29648 51.8355L8.61258 51.4909C8.65209 51.4479 8.68272 51.3975 8.70274 51.3426C8.72275 51.2877 8.73175 51.2294 8.72923 51.1711C8.7267 51.1127 8.7127 51.0555 8.68801 51.0025C8.66333 50.9496 8.62846 50.902 8.58538 50.8626C8.50582 50.7915 8.40308 50.7518 8.29638 50.751L8.61258 50.4065C8.65209 50.3635 8.68272 50.3131 8.70274 50.2582C8.72275 50.2033 8.73175 50.145 8.72923 50.0867C8.7267 50.0283 8.7127 49.9711 8.68801 49.9181C8.66333 49.8652 8.62846 49.8176 8.58538 49.7782C8.50582 49.7071 8.40308 49.6674 8.29638 49.6666L8.61258 49.322C8.65209 49.279 8.68272 49.2286 8.70274 49.1737C8.72275 49.1188 8.73175 49.0605 8.72923 49.0022C8.7267 48.9438 8.7127 48.8866 8.68801 48.8336C8.66333 48.7807 8.62846 48.7331 8.58538 48.6937C8.50577 48.6226 8.40292 48.583 8.29618 48.5825L8.61258 48.2376C8.6521 48.1946 8.68276 48.1442 8.7028 48.0893C8.72284 48.0345 8.73187 47.9762 8.72937 47.9179C8.72688 47.8595 8.7129 47.8022 8.68824 47.7493C8.66359 47.6963 8.62874 47.6487 8.58568 47.6093Z" fill="#DDAA7C"/>
<path d="M6.80653 47.6093C6.71945 47.53 6.60452 47.4883 6.48682 47.4934C6.36912 47.4985 6.25821 47.5499 6.17832 47.6365L5.70232 48.1554C5.6444 48.2178 5.60573 48.2956 5.59096 48.3794C5.57619 48.4633 5.58594 48.5496 5.61905 48.628C5.65216 48.7065 5.70722 48.7737 5.77761 48.8216C5.84799 48.8695 5.93071 48.896 6.01583 48.898L5.70232 49.2398C5.6444 49.3022 5.60572 49.38 5.59096 49.4639C5.57619 49.5477 5.58595 49.634 5.61907 49.7125C5.6522 49.7909 5.70727 49.8581 5.77767 49.906C5.84807 49.9539 5.93081 49.9804 6.01592 49.9824L5.70232 50.3242C5.64441 50.3866 5.60575 50.4644 5.59099 50.5483C5.57622 50.6321 5.58598 50.7184 5.61909 50.7969C5.65219 50.8753 5.70724 50.9425 5.77762 50.9904C5.848 51.0383 5.93071 51.0649 6.01583 51.0669L5.70232 51.4087C5.6444 51.4711 5.60573 51.5489 5.59096 51.6327C5.57619 51.7166 5.58594 51.8029 5.61905 51.8813C5.65216 51.9598 5.70722 52.027 5.77761 52.0749C5.84799 52.1227 5.93071 52.1493 6.01583 52.1513L5.70232 52.4931C5.6444 52.5555 5.60572 52.6333 5.59096 52.7172C5.57619 52.801 5.58595 52.8873 5.61907 52.9658C5.6522 53.0442 5.70727 53.1114 5.77767 53.1593C5.84807 53.2072 5.93081 53.2337 6.01592 53.2357L5.70232 53.5775C5.66243 53.6205 5.63142 53.6709 5.61109 53.7259C5.59076 53.7809 5.5815 53.8394 5.58385 53.8979C5.58621 53.9565 5.60012 54.0141 5.6248 54.0673C5.64948 54.1204 5.68443 54.1682 5.72764 54.2079C5.77085 54.2475 5.82148 54.2782 5.8766 54.2982C5.93172 54.3182 5.99025 54.327 6.04882 54.3243C6.10739 54.3216 6.16484 54.3073 6.21787 54.2823C6.27091 54.2573 6.31847 54.2221 6.35783 54.1786L6.83373 53.6598C6.87324 53.6168 6.90389 53.5664 6.92391 53.5115C6.94393 53.4567 6.95294 53.3984 6.95041 53.34C6.94789 53.2817 6.93388 53.2244 6.90919 53.1714C6.8845 53.1185 6.84961 53.0709 6.80653 53.0315C6.72703 52.9604 6.6243 52.9207 6.51762 52.9199L6.83373 52.5753C6.87324 52.5323 6.90389 52.4819 6.92391 52.427C6.94393 52.3722 6.95294 52.3139 6.95041 52.2555C6.94789 52.1972 6.93388 52.1399 6.90919 52.0869C6.8845 52.034 6.84961 51.9864 6.80653 51.947C6.727 51.8759 6.62428 51.8363 6.51762 51.8355L6.83373 51.4909C6.87324 51.4479 6.90389 51.3975 6.92391 51.3426C6.94393 51.2878 6.95294 51.2295 6.95041 51.1711C6.94789 51.1128 6.93388 51.0555 6.90919 51.0025C6.8845 50.9496 6.84961 50.902 6.80653 50.8626C6.72698 50.7915 6.62428 50.7519 6.51762 50.751L6.83373 50.4065C6.87324 50.3635 6.90389 50.3131 6.92391 50.2582C6.94393 50.2034 6.95294 50.1451 6.95041 50.0867C6.94789 50.0284 6.93388 49.9711 6.90919 49.9181C6.8845 49.8652 6.84961 49.8176 6.80653 49.7782C6.72701 49.7071 6.62429 49.6674 6.51762 49.6666L6.83373 49.322C6.87324 49.279 6.90389 49.2286 6.92391 49.1737C6.94393 49.1189 6.95294 49.0606 6.95041 49.0022C6.94789 48.9439 6.93388 48.8866 6.90919 48.8336C6.8845 48.7807 6.84961 48.7331 6.80653 48.6937C6.72691 48.6226 6.62406 48.5831 6.51733 48.5825L6.83373 48.2376C6.87324 48.1946 6.90389 48.1442 6.92391 48.0893C6.94393 48.0345 6.95294 47.9762 6.95041 47.9178C6.94789 47.8595 6.93388 47.8022 6.90919 47.7492C6.8845 47.6963 6.84961 47.6487 6.80653 47.6093Z" fill="#DDAA7C"/>
<path d="M5.02777 47.6093C4.94067 47.5299 4.82572 47.4882 4.70801 47.4933C4.59029 47.4984 4.47937 47.5499 4.39947 47.6365L3.92337 48.1554C3.86548 48.2178 3.82685 48.2956 3.8121 48.3794C3.79736 48.4633 3.80713 48.5496 3.84025 48.628C3.87336 48.7064 3.92841 48.7736 3.99879 48.8215C4.06916 48.8694 4.15187 48.8959 4.23697 48.898L3.92337 49.2398C3.86548 49.3022 3.82685 49.38 3.8121 49.4638C3.79736 49.5477 3.80713 49.634 3.84025 49.7124C3.87336 49.7908 3.92841 49.858 3.99879 49.9059C4.06916 49.9538 4.15187 49.9803 4.23697 49.9824L3.92337 50.3242C3.86549 50.3866 3.82687 50.4644 3.81213 50.5483C3.79739 50.6321 3.80717 50.7184 3.84028 50.7968C3.87339 50.8752 3.92844 50.9424 3.9988 50.9903C4.06917 51.0382 4.15187 51.0648 4.23697 51.0669L3.92337 51.4087C3.86548 51.4711 3.82685 51.5489 3.8121 51.6327C3.79736 51.7166 3.80713 51.8029 3.84025 51.8813C3.87336 51.9597 3.92841 52.0269 3.99879 52.0748C4.06916 52.1227 4.15187 52.1492 4.23697 52.1513L3.92337 52.4931C3.86548 52.5555 3.82685 52.6333 3.8121 52.7171C3.79736 52.801 3.80713 52.8873 3.84025 52.9657C3.87336 53.0441 3.92841 53.1113 3.99879 53.1592C4.06916 53.2071 4.15187 53.2336 4.23697 53.2357L3.92337 53.5775C3.8839 53.6205 3.85329 53.6709 3.8333 53.7258C3.81331 53.7807 3.80432 53.839 3.80685 53.8973C3.80939 53.9557 3.82338 54.0129 3.84805 54.0659C3.87272 54.1188 3.90757 54.1664 3.95062 54.2058C3.99366 54.2453 4.04406 54.2759 4.09894 54.2959C4.15381 54.3159 4.21209 54.3249 4.27043 54.3223C4.32878 54.3198 4.38606 54.3058 4.439 54.2811C4.49194 54.2565 4.5395 54.2216 4.57897 54.1786L5.05497 53.6598C5.09447 53.6168 5.12511 53.5664 5.14512 53.5115C5.16514 53.4566 5.17414 53.3983 5.17161 53.34C5.16908 53.2816 5.15508 53.2244 5.1304 53.1714C5.10572 53.1185 5.07084 53.0709 5.02777 53.0315C4.94822 52.9603 4.84547 52.9207 4.73877 52.9199L5.05497 52.5753C5.09447 52.5323 5.12511 52.4819 5.14512 52.427C5.16514 52.3721 5.17414 52.3138 5.17161 52.2555C5.16908 52.1971 5.15508 52.1399 5.1304 52.0869C5.10572 52.034 5.07084 51.9864 5.02777 51.947C4.94825 51.8759 4.84553 51.8362 4.73886 51.8355L5.05497 51.4909C5.09447 51.4479 5.12511 51.3975 5.14512 51.3426C5.16514 51.2877 5.17414 51.2294 5.17161 51.1711C5.16908 51.1127 5.15508 51.0555 5.1304 51.0025C5.10572 50.9496 5.07084 50.902 5.02777 50.8626C4.9482 50.7915 4.84546 50.7518 4.73877 50.751L5.05497 50.4065C5.09447 50.3635 5.12511 50.3131 5.14512 50.2582C5.16514 50.2033 5.17414 50.145 5.17161 50.0867C5.16908 50.0283 5.15508 49.9711 5.1304 49.9181C5.10572 49.8652 5.07084 49.8176 5.02777 49.7782C4.9482 49.7071 4.84546 49.6674 4.73877 49.6666L5.05497 49.322C5.09447 49.279 5.12511 49.2286 5.14512 49.1737C5.16514 49.1188 5.17414 49.0605 5.17161 49.0022C5.16908 48.9438 5.15508 48.8866 5.1304 48.8336C5.10572 48.7807 5.07084 48.7331 5.02777 48.6937C4.94816 48.6226 4.8453 48.583 4.73857 48.5825L5.05497 48.2376C5.09447 48.1946 5.12511 48.1442 5.14512 48.0893C5.16514 48.0344 5.17414 47.9761 5.17161 47.9178C5.16908 47.8594 5.15508 47.8022 5.1304 47.7492C5.10572 47.6963 5.07084 47.6487 5.02777 47.6093Z" fill="#DDAA7C"/>
<path d="M3.24901 47.6093C3.16192 47.5299 3.04696 47.4882 2.92925 47.4933C2.81153 47.4984 2.70061 47.5499 2.62071 47.6365L2.14471 48.1554C2.08678 48.2178 2.04811 48.2956 2.03334 48.3794C2.01857 48.4633 2.02832 48.5496 2.06144 48.628C2.09455 48.7064 2.1496 48.7736 2.21999 48.8215C2.29038 48.8694 2.3731 48.896 2.45821 48.898L2.14471 49.2398C2.08678 49.3022 2.04811 49.38 2.03334 49.4638C2.01857 49.5477 2.02833 49.634 2.06146 49.7125C2.09458 49.7909 2.14965 49.8581 2.22005 49.906C2.29045 49.9539 2.37319 49.9804 2.45831 49.9824L2.14471 50.3242C2.0868 50.3866 2.04814 50.4644 2.03337 50.5482C2.0186 50.6321 2.02836 50.7184 2.06147 50.7968C2.09458 50.8753 2.14963 50.9425 2.22 50.9904C2.29038 51.0383 2.3731 51.0648 2.45821 51.0669L2.14471 51.4087C2.08678 51.4711 2.04811 51.5489 2.03334 51.6327C2.01857 51.7166 2.02832 51.8029 2.06144 51.8813C2.09455 51.9597 2.1496 52.0269 2.21999 52.0748C2.29038 52.1227 2.3731 52.1493 2.45821 52.1513L2.14471 52.4931C2.08678 52.5555 2.04811 52.6333 2.03334 52.7171C2.01857 52.801 2.02833 52.8873 2.06146 52.9658C2.09458 53.0442 2.14965 53.1114 2.22005 53.1593C2.29045 53.2072 2.37319 53.2337 2.45831 53.2357L2.14471 53.5775C2.10481 53.6204 2.0738 53.6709 2.05347 53.7259C2.03314 53.7809 2.02388 53.8393 2.02624 53.8979C2.02859 53.9565 2.0425 54.0141 2.06718 54.0672C2.09186 54.1204 2.12681 54.1682 2.17002 54.2078C2.21324 54.2475 2.26386 54.2782 2.31898 54.2981C2.3741 54.3181 2.43263 54.327 2.4912 54.3243C2.54977 54.3216 2.60722 54.3073 2.66026 54.2823C2.71329 54.2573 2.76085 54.222 2.80021 54.1786L3.27621 53.6598C3.31571 53.6168 3.34635 53.5664 3.36636 53.5115C3.38638 53.4566 3.39538 53.3983 3.39285 53.34C3.39033 53.2816 3.37632 53.2244 3.35164 53.1714C3.32696 53.1185 3.29208 53.0709 3.24901 53.0315C3.16947 52.9603 3.06671 52.9207 2.96001 52.9199L3.27621 52.5753C3.31571 52.5323 3.34635 52.4819 3.36636 52.427C3.38638 52.3721 3.39538 52.3138 3.39285 52.2555C3.39033 52.1971 3.37632 52.1399 3.35164 52.0869C3.32696 52.034 3.29208 51.9864 3.24901 51.947C3.1695 51.8759 3.06677 51.8362 2.96011 51.8355L3.27621 51.4909C3.31571 51.4479 3.34635 51.3975 3.36636 51.3426C3.38638 51.2877 3.39538 51.2294 3.39285 51.1711C3.39033 51.1127 3.37632 51.0555 3.35164 51.0025C3.32696 50.9496 3.29208 50.902 3.24901 50.8626C3.16944 50.7915 3.0667 50.7518 2.96001 50.751L3.27621 50.4065C3.35584 50.3196 3.3977 50.2047 3.3926 50.087C3.3875 49.9692 3.33585 49.8583 3.24901 49.7787C3.16944 49.7076 3.0667 49.6679 2.96001 49.6671L3.27621 49.3225C3.31571 49.2795 3.34635 49.2291 3.36636 49.1742C3.38638 49.1193 3.39538 49.061 3.39285 49.0027C3.39033 48.9443 3.37632 48.8871 3.35164 48.8341C3.32696 48.7812 3.29208 48.7336 3.24901 48.6942C3.16941 48.6231 3.06655 48.5835 2.95981 48.583L3.27621 48.2381C3.31579 48.195 3.34649 48.1446 3.36655 48.0897C3.38661 48.0348 3.39563 47.9764 3.3931 47.918C3.39058 47.8596 3.37655 47.8023 3.35182 47.7493C3.32709 47.6963 3.29216 47.6487 3.24901 47.6093Z" fill="#DDAA7C"/>
<path d="M3.08234 46.4039L10.4923 44.5532L11.1838 47.3216L1.69145 49.6924L1.52008 49.0063C1.38215 48.454 1.46925 47.8696 1.76223 47.3815C2.05521 46.8935 2.53007 46.5418 3.08234 46.4039Z" fill="#D09C69" stroke="#D09C69" stroke-width="1.5" stroke-linejoin="round"/>
<path d="M49.8975 48.6937C49.9771 48.6226 50.0799 48.583 50.1867 48.5825L49.8703 48.2376C49.7914 48.1505 49.7502 48.0358 49.7557 47.9185C49.7611 47.8011 49.8128 47.6907 49.8993 47.6113C49.9859 47.5319 50.1004 47.49 50.2178 47.4947C50.3351 47.4995 50.4459 47.5504 50.5258 47.6365L51.0017 48.1554C51.0596 48.2178 51.0983 48.2956 51.113 48.3794C51.1278 48.4633 51.1181 48.5496 51.085 48.628C51.0518 48.7064 50.9968 48.7736 50.9264 48.8215C50.856 48.8694 50.7733 48.896 50.6882 48.898L51.0017 49.2398C51.0596 49.3022 51.0983 49.38 51.113 49.4638C51.1278 49.5477 51.1181 49.634 51.085 49.7124C51.0518 49.7908 50.9968 49.858 50.9264 49.9059C50.856 49.9538 50.7733 49.9804 50.6882 49.9824L51.0017 50.3242C51.0596 50.3866 51.0982 50.4644 51.113 50.5482C51.1278 50.6321 51.118 50.7184 51.0849 50.7968C51.0518 50.8753 50.9968 50.9425 50.9264 50.9904C50.856 51.0383 50.7733 51.0649 50.6882 51.0669L51.0017 51.4087C51.0596 51.4711 51.0983 51.5489 51.113 51.6327C51.1278 51.7166 51.1181 51.8029 51.085 51.8813C51.0518 51.9598 50.9968 52.0269 50.9264 52.0748C50.856 52.1227 50.7733 52.1493 50.6882 52.1513L51.0017 52.4931C51.0596 52.5555 51.0983 52.6333 51.113 52.7171C51.1278 52.801 51.1181 52.8873 51.085 52.9657C51.0518 53.0442 50.9968 53.1114 50.9264 53.1592C50.856 53.2071 50.7733 53.2337 50.6882 53.2357L51.0017 53.5775C51.0421 53.6203 51.0737 53.6708 51.0944 53.726C51.1152 53.7811 51.1248 53.8399 51.1227 53.8987C51.1206 53.9576 51.1068 54.0155 51.0821 54.069C51.0574 54.1226 51.0223 54.1706 50.9789 54.2105C50.9354 54.2503 50.8845 54.2811 50.8291 54.3011C50.7736 54.3211 50.7148 54.3298 50.6559 54.3269C50.597 54.3239 50.5394 54.3093 50.4862 54.2838C50.4331 54.2584 50.3855 54.2226 50.3463 54.1786L49.8703 53.6598C49.8308 53.6168 49.8001 53.5664 49.7801 53.5115C49.7601 53.4566 49.7511 53.3984 49.7536 53.34C49.7561 53.2816 49.7701 53.2244 49.7948 53.1714C49.8195 53.1185 49.8544 53.0709 49.8975 53.0315C49.977 52.9603 50.0797 52.9207 50.1864 52.9199L49.8703 52.5753C49.8308 52.5323 49.8001 52.4819 49.7801 52.427C49.7601 52.3721 49.7511 52.3139 49.7536 52.2555C49.7561 52.1971 49.7701 52.1399 49.7948 52.0869C49.8195 52.034 49.8544 51.9864 49.8975 51.947C49.977 51.8759 50.0797 51.8362 50.1864 51.8355L49.8703 51.4909C49.8308 51.4479 49.8001 51.3975 49.7801 51.3426C49.7601 51.2877 49.7511 51.2295 49.7536 51.1711C49.7561 51.1127 49.7701 51.0555 49.7948 51.0025C49.8195 50.9496 49.8544 50.902 49.8975 50.8626C49.977 50.7915 50.0797 50.7518 50.1864 50.751L49.8703 50.4065C49.8308 50.3635 49.8001 50.3131 49.7801 50.2582C49.7601 50.2033 49.7511 50.1451 49.7536 50.0867C49.7561 50.0283 49.7701 49.9711 49.7948 49.9181C49.8195 49.8652 49.8544 49.8176 49.8975 49.7782C49.977 49.7071 50.0797 49.6674 50.1864 49.6666L49.8703 49.322C49.8308 49.279 49.8001 49.2286 49.7801 49.1737C49.7601 49.1188 49.7511 49.0606 49.7536 49.0022C49.7561 48.9438 49.7701 48.8866 49.7948 48.8336C49.8195 48.7807 49.8544 48.7331 49.8975 48.6937Z" fill="#DDAA7C"/>
<path d="M51.6762 47.6093C51.7633 47.5299 51.8783 47.4882 51.996 47.4933C52.1137 47.4984 52.2246 47.5499 52.3045 47.6365L52.7806 48.1554C52.8385 48.2178 52.8772 48.2956 52.8919 48.3794C52.9067 48.4633 52.8969 48.5496 52.8638 48.628C52.8306 48.7064 52.7756 48.7736 52.7052 48.8215C52.6348 48.8694 52.5521 48.8959 52.467 48.898L52.7806 49.2398C52.8385 49.3022 52.8772 49.38 52.8919 49.4638C52.9067 49.5477 52.8969 49.634 52.8638 49.7124C52.8306 49.7908 52.7756 49.858 52.7052 49.9059C52.6348 49.9538 52.5521 49.9803 52.467 49.9824L52.7806 50.3242C52.8385 50.3866 52.8771 50.4644 52.8919 50.5483C52.9066 50.6321 52.8968 50.7184 52.8637 50.7968C52.8306 50.8752 52.7756 50.9424 52.7052 50.9903C52.6348 51.0382 52.5521 51.0648 52.467 51.0669L52.7806 51.4087C52.8385 51.4711 52.8772 51.5489 52.8919 51.6327C52.9067 51.7166 52.8969 51.8029 52.8638 51.8813C52.8306 51.9597 52.7756 52.0269 52.7052 52.0748C52.6348 52.1227 52.5521 52.1492 52.467 52.1513L52.7806 52.4931C52.8385 52.5555 52.8772 52.6333 52.8919 52.7171C52.9067 52.801 52.8969 52.8873 52.8638 52.9657C52.8306 53.0441 52.7756 53.1113 52.7052 53.1592C52.6348 53.2071 52.5521 53.2336 52.467 53.2357L52.7806 53.5775C52.8201 53.6205 52.8507 53.6709 52.8707 53.7258C52.8907 53.7807 52.8997 53.839 52.8972 53.8973C52.8946 53.9557 52.8806 54.0129 52.856 54.0659C52.8313 54.1188 52.7964 54.1664 52.7534 54.2058C52.7103 54.2453 52.6599 54.2759 52.6051 54.2959C52.5502 54.3159 52.4919 54.3249 52.4336 54.3223C52.3752 54.3198 52.3179 54.3058 52.265 54.2811C52.2121 54.2565 52.1645 54.2216 52.125 54.1786L51.649 53.6598C51.6095 53.6168 51.5789 53.5664 51.5589 53.5115C51.5389 53.4566 51.5299 53.3983 51.5324 53.34C51.5349 53.2816 51.5489 53.2244 51.5736 53.1714C51.5983 53.1185 51.6332 53.0709 51.6762 53.0315C51.7558 52.9603 51.8585 52.9207 51.9652 52.9199L51.649 52.5753C51.6095 52.5323 51.5789 52.4819 51.5589 52.427C51.5389 52.3721 51.5299 52.3138 51.5324 52.2555C51.5349 52.1971 51.5489 52.1399 51.5736 52.0869C51.5983 52.034 51.6332 51.9864 51.6762 51.947C51.7558 51.8759 51.8585 51.8362 51.9651 51.8355L51.649 51.4909C51.6095 51.4479 51.5789 51.3975 51.5589 51.3426C51.5389 51.2877 51.5299 51.2294 51.5324 51.1711C51.5349 51.1127 51.5489 51.0555 51.5736 51.0025C51.5983 50.9496 51.6332 50.902 51.6762 50.8626C51.7558 50.7915 51.8585 50.7518 51.9652 50.751L51.649 50.4065C51.6095 50.3635 51.5789 50.3131 51.5589 50.2582C51.5389 50.2033 51.5299 50.145 51.5324 50.0867C51.5349 50.0283 51.5489 49.9711 51.5736 49.9181C51.5983 49.8652 51.6332 49.8176 51.6762 49.7782C51.7558 49.7071 51.8585 49.6674 51.9652 49.6666L51.649 49.322C51.6095 49.279 51.5789 49.2286 51.5589 49.1737C51.5389 49.1188 51.5299 49.0605 51.5324 49.0022C51.5349 48.9438 51.5489 48.8866 51.5736 48.8336C51.5983 48.7807 51.6332 48.7331 51.6762 48.6937C51.7559 48.6226 51.8587 48.583 51.9654 48.5825L51.649 48.2376C51.6095 48.1946 51.5789 48.1442 51.5589 48.0893C51.5389 48.0344 51.5299 47.9761 51.5324 47.9178C51.5349 47.8594 51.5489 47.8022 51.5736 47.7492C51.5983 47.6963 51.6332 47.6487 51.6762 47.6093Z" fill="#DDAA7C"/>
<path d="M53.4551 47.6093C53.5422 47.53 53.6571 47.4883 53.7748 47.4934C53.8925 47.4985 54.0034 47.5499 54.0833 47.6365L54.5593 48.1554C54.6172 48.2178 54.6559 48.2956 54.6707 48.3794C54.6854 48.4633 54.6757 48.5496 54.6426 48.628C54.6095 48.7065 54.5544 48.7737 54.484 48.8216C54.4136 48.8695 54.3309 48.896 54.2458 48.898L54.5593 49.2398C54.6172 49.3022 54.6559 49.38 54.6707 49.4639C54.6854 49.5477 54.6757 49.634 54.6425 49.7125C54.6094 49.7909 54.5543 49.8581 54.4839 49.906C54.4135 49.9539 54.3308 49.9804 54.2457 49.9824L54.5593 50.3242C54.6172 50.3866 54.6559 50.4644 54.6706 50.5483C54.6854 50.6321 54.6756 50.7184 54.6425 50.7969C54.6094 50.8753 54.5544 50.9425 54.484 50.9904C54.4136 51.0383 54.3309 51.0649 54.2458 51.0669L54.5593 51.4087C54.6172 51.4711 54.6559 51.5489 54.6707 51.6327C54.6854 51.7166 54.6757 51.8029 54.6426 51.8813C54.6095 51.9598 54.5544 52.027 54.484 52.0749C54.4136 52.1227 54.3309 52.1493 54.2458 52.1513L54.5593 52.4931C54.6172 52.5555 54.6559 52.6333 54.6707 52.7172C54.6854 52.801 54.6757 52.8873 54.6425 52.9658C54.6094 53.0442 54.5543 53.1114 54.4839 53.1593C54.4135 53.2072 54.3308 53.2337 54.2457 53.2357L54.5593 53.5775C54.5992 53.6205 54.6302 53.6709 54.6505 53.7259C54.6709 53.7809 54.6801 53.8394 54.6778 53.8979C54.6754 53.9565 54.6615 54.0141 54.6368 54.0673C54.6121 54.1204 54.5772 54.1682 54.534 54.2079C54.4908 54.2475 54.4401 54.2782 54.385 54.2982C54.3299 54.3182 54.2714 54.327 54.2128 54.3243C54.1542 54.3216 54.0968 54.3073 54.0437 54.2823C53.9907 54.2573 53.9432 54.2221 53.9038 54.1786L53.4279 53.6598C53.3884 53.6168 53.3577 53.5664 53.3377 53.5115C53.3177 53.4567 53.3087 53.3984 53.3112 53.34C53.3137 53.2817 53.3277 53.2244 53.3524 53.1714C53.3771 53.1185 53.412 53.0709 53.4551 53.0315C53.5346 52.9604 53.6373 52.9207 53.744 52.9199L53.4279 52.5753C53.3884 52.5323 53.3577 52.4819 53.3377 52.427C53.3177 52.3722 53.3087 52.3139 53.3112 52.2555C53.3137 52.1972 53.3277 52.1399 53.3524 52.0869C53.3771 52.034 53.412 51.9864 53.4551 51.947C53.5346 51.8759 53.6373 51.8363 53.744 51.8355L53.4279 51.4909C53.3884 51.4479 53.3577 51.3975 53.3377 51.3426C53.3177 51.2878 53.3087 51.2295 53.3112 51.1711C53.3137 51.1128 53.3277 51.0555 53.3524 51.0025C53.3771 50.9496 53.412 50.902 53.4551 50.8626C53.5346 50.7915 53.6373 50.7519 53.744 50.751L53.4279 50.4065C53.3884 50.3635 53.3577 50.3131 53.3377 50.2582C53.3177 50.2034 53.3087 50.1451 53.3112 50.0867C53.3137 50.0284 53.3277 49.9711 53.3524 49.9181C53.3771 49.8652 53.412 49.8176 53.4551 49.7782C53.5346 49.7071 53.6373 49.6674 53.744 49.6666L53.4279 49.322C53.3884 49.279 53.3577 49.2286 53.3377 49.1737C53.3177 49.1189 53.3087 49.0606 53.3112 49.0022C53.3137 48.9439 53.3277 48.8866 53.3524 48.8336C53.3771 48.7807 53.412 48.7331 53.4551 48.6937C53.5347 48.6226 53.6376 48.5831 53.7443 48.5825L53.4279 48.2376C53.3884 48.1946 53.3577 48.1442 53.3377 48.0893C53.3177 48.0345 53.3087 47.9762 53.3112 47.9178C53.3137 47.8595 53.3277 47.8022 53.3524 47.7492C53.3771 47.6963 53.412 47.6487 53.4551 47.6093Z" fill="#DDAA7C"/>
<path d="M55.2341 47.6093C55.3212 47.5299 55.4361 47.4882 55.5539 47.4933C55.6716 47.4984 55.7825 47.5499 55.8624 47.6365L56.3385 48.1554C56.3964 48.2178 56.435 48.2956 56.4498 48.3794C56.4645 48.4633 56.4547 48.5496 56.4216 48.628C56.3885 48.7064 56.3335 48.7736 56.2631 48.8215C56.1927 48.8694 56.11 48.8959 56.0249 48.898L56.3385 49.2398C56.3964 49.3022 56.435 49.38 56.4498 49.4638C56.4645 49.5477 56.4547 49.634 56.4216 49.7124C56.3885 49.7908 56.3335 49.858 56.2631 49.9059C56.1927 49.9538 56.11 49.9803 56.0249 49.9824L56.3385 50.3242C56.3964 50.3866 56.435 50.4644 56.4497 50.5483C56.4645 50.6321 56.4547 50.7184 56.4216 50.7968C56.3885 50.8752 56.3334 50.9424 56.2631 50.9903C56.1927 51.0382 56.11 51.0648 56.0249 51.0669L56.3385 51.4087C56.3964 51.4711 56.435 51.5489 56.4498 51.6327C56.4645 51.7166 56.4547 51.8029 56.4216 51.8813C56.3885 51.9597 56.3335 52.0269 56.2631 52.0748C56.1927 52.1227 56.11 52.1492 56.0249 52.1513L56.3385 52.4931C56.3964 52.5555 56.435 52.6333 56.4498 52.7171C56.4645 52.801 56.4547 52.8873 56.4216 52.9657C56.3885 53.0441 56.3335 53.1113 56.2631 53.1592C56.1927 53.2071 56.11 53.2336 56.0249 53.2357L56.3385 53.5775C56.378 53.6205 56.4086 53.6709 56.4286 53.7258C56.4486 53.7807 56.4575 53.839 56.455 53.8973C56.4525 53.9557 56.4385 54.0129 56.4138 54.0659C56.3892 54.1188 56.3543 54.1664 56.3113 54.2058C56.2682 54.2453 56.2178 54.2759 56.1629 54.2959C56.1081 54.3159 56.0498 54.3249 55.9914 54.3223C55.9331 54.3198 55.8758 54.3058 55.8229 54.2811C55.7699 54.2565 55.7224 54.2216 55.6829 54.1786L55.2069 53.6598C55.1674 53.6168 55.1368 53.5664 55.1167 53.5115C55.0967 53.4566 55.0877 53.3983 55.0903 53.34C55.0928 53.2816 55.1068 53.2244 55.1315 53.1714C55.1562 53.1185 55.191 53.0709 55.2341 53.0315C55.3136 52.9603 55.4164 52.9207 55.5231 52.9199L55.2069 52.5753C55.1674 52.5323 55.1368 52.4819 55.1167 52.427C55.0967 52.3721 55.0877 52.3138 55.0903 52.2555C55.0928 52.1971 55.1068 52.1399 55.1315 52.0869C55.1562 52.034 55.191 51.9864 55.2341 51.947C55.3136 51.8759 55.4163 51.8362 55.523 51.8355L55.2069 51.4909C55.1674 51.4479 55.1368 51.3975 55.1167 51.3426C55.0967 51.2877 55.0877 51.2294 55.0903 51.1711C55.0928 51.1127 55.1068 51.0555 55.1315 51.0025C55.1562 50.9496 55.191 50.902 55.2341 50.8626C55.3137 50.7915 55.4164 50.7518 55.5231 50.751L55.2069 50.4065C55.1674 50.3635 55.1368 50.3131 55.1167 50.2582C55.0967 50.2033 55.0877 50.145 55.0903 50.0867C55.0928 50.0283 55.1068 49.9711 55.1315 49.9181C55.1562 49.8652 55.191 49.8176 55.2341 49.7782C55.3137 49.7071 55.4164 49.6674 55.5231 49.6666L55.2069 49.322C55.1674 49.279 55.1368 49.2286 55.1167 49.1737C55.0967 49.1188 55.0877 49.0605 55.0903 49.0022C55.0928 48.9438 55.1068 48.8866 55.1315 48.8336C55.1562 48.7807 55.191 48.7331 55.2341 48.6937C55.3137 48.6226 55.4166 48.583 55.5233 48.5825L55.2069 48.2376C55.1674 48.1946 55.1368 48.1442 55.1167 48.0893C55.0967 48.0344 55.0877 47.9761 55.0903 47.9178C55.0928 47.8594 55.1068 47.8022 55.1315 47.7492C55.1562 47.6963 55.191 47.6487 55.2341 47.6093Z" fill="#DDAA7C"/>
<path d="M57.0129 47.6093C57.1 47.5299 57.215 47.4882 57.3327 47.4933C57.4504 47.4984 57.5613 47.5499 57.6412 47.6365L58.1172 48.1554C58.1751 48.2178 58.2138 48.2956 58.2286 48.3794C58.2434 48.4633 58.2336 48.5496 58.2005 48.628C58.1674 48.7064 58.1123 48.7736 58.0419 48.8215C57.9715 48.8694 57.8888 48.896 57.8037 48.898L58.1172 49.2398C58.1751 49.3022 58.2138 49.38 58.2286 49.4638C58.2433 49.5477 58.2336 49.634 58.2005 49.7125C58.1673 49.7909 58.1123 49.8581 58.0419 49.906C57.9715 49.9539 57.8887 49.9804 57.8036 49.9824L58.1172 50.3242C58.1751 50.3866 58.2138 50.4644 58.2286 50.5482C58.2433 50.6321 58.2336 50.7184 58.2005 50.7968C58.1673 50.8753 58.1123 50.9425 58.0419 50.9904C57.9715 51.0383 57.8888 51.0648 57.8037 51.0669L58.1172 51.4087C58.1751 51.4711 58.2138 51.5489 58.2286 51.6327C58.2434 51.7166 58.2336 51.8029 58.2005 51.8813C58.1674 51.9597 58.1123 52.0269 58.0419 52.0748C57.9715 52.1227 57.8888 52.1493 57.8037 52.1513L58.1172 52.4931C58.1751 52.5555 58.2138 52.6333 58.2286 52.7171C58.2433 52.801 58.2336 52.8873 58.2005 52.9658C58.1673 53.0442 58.1123 53.1114 58.0419 53.1593C57.9715 53.2072 57.8887 53.2337 57.8036 53.2357L58.1172 53.5775C58.1571 53.6204 58.1881 53.6709 58.2084 53.7259C58.2288 53.7809 58.238 53.8393 58.2357 53.8979C58.2333 53.9565 58.2194 54.0141 58.1947 54.0672C58.1701 54.1204 58.1351 54.1682 58.0919 54.2078C58.0487 54.2475 57.9981 54.2782 57.9429 54.2981C57.8878 54.3181 57.8293 54.327 57.7707 54.3243C57.7121 54.3216 57.6547 54.3073 57.6017 54.2823C57.5486 54.2573 57.5011 54.222 57.4617 54.1786L56.9857 53.6598C56.9462 53.6168 56.9156 53.5664 56.8956 53.5115C56.8755 53.4566 56.8665 53.3983 56.8691 53.34C56.8716 53.2816 56.8856 53.2244 56.9103 53.1714C56.935 53.1185 56.9698 53.0709 57.0129 53.0315C57.0925 52.9603 57.1952 52.9207 57.3019 52.9199L56.9857 52.5753C56.9462 52.5323 56.9156 52.4819 56.8956 52.427C56.8755 52.3721 56.8665 52.3138 56.8691 52.2555C56.8716 52.1971 56.8856 52.1399 56.9103 52.0869C56.935 52.034 56.9698 51.9864 57.0129 51.947C57.0924 51.8759 57.1951 51.8362 57.3018 51.8355L56.9857 51.4909C56.9462 51.4479 56.9156 51.3975 56.8956 51.3426C56.8755 51.2877 56.8665 51.2294 56.8691 51.1711C56.8716 51.1127 56.8856 51.0555 56.9103 51.0025C56.935 50.9496 56.9698 50.902 57.0129 50.8626C57.0925 50.7915 57.1952 50.7518 57.3019 50.751L56.9857 50.4065C56.9462 50.3635 56.9156 50.3131 56.8956 50.2582C56.8755 50.2033 56.8665 50.145 56.8691 50.0867C56.8716 50.0283 56.8856 49.9711 56.9103 49.9181C56.935 49.8652 56.9698 49.8176 57.0129 49.7782C57.0925 49.7071 57.1952 49.6674 57.3019 49.6666L56.9857 49.322C56.9462 49.279 56.9156 49.2286 56.8956 49.1737C56.8755 49.1188 56.8665 49.0605 56.8691 49.0022C56.8716 48.9438 56.8856 48.8866 56.9103 48.8336C56.935 48.7807 56.9698 48.7331 57.0129 48.6937C57.0925 48.6226 57.1954 48.583 57.3021 48.5825L56.9857 48.2376C56.9462 48.1946 56.9156 48.1442 56.8956 48.0893C56.8755 48.0344 56.8665 47.9761 56.8691 47.9178C56.8716 47.8594 56.8856 47.8022 56.9103 47.7492C56.935 47.6963 56.9698 47.6487 57.0129 47.6093Z" fill="#DDAA7C"/>
<path d="M58.5701 49.6924L49.0777 47.3216L49.7691 44.5531L57.1792 46.4038C57.7314 46.5418 58.2063 46.8934 58.4993 47.3815C58.7923 47.8695 58.8794 48.454 58.7414 49.0063L58.5701 49.6924Z" fill="#D09C69" stroke="#D09C69" stroke-width="1.5" stroke-linejoin="round"/>
<path d="M41.1365 23.3951V21.1993C41.1365 15.2487 39.0505 9.12231 30.1575 9.12231C21.2645 9.12231 19.1784 15.2487 19.1784 21.1993V23.3951C15.8559 23.3951 15.5471 31.1772 20.2763 32.1783C20.2763 36.0759 21.3742 36.57 25.0852 40.3907C26.5124 42.2132 28.2581 42.0595 30.1575 42.0595C32.0569 42.0595 33.8025 42.2132 35.2298 40.3907C38.9407 36.57 40.0386 36.0759 40.0386 32.1783C40.8475 32.0071 41.5894 31.6047 42.174 31.02C42.7587 30.4354 43.1611 29.6935 43.3323 28.8846C44.4302 23.3951 41.2243 23.3622 41.1365 23.3951Z" fill="#AC8164"/>
<path d="M41.11 23.3951V21.1993C41.11 15.2487 39.0239 9.1223 30.1309 9.1223C29.0265 9.1137 27.9237 9.20929 26.8372 9.4078V20.1014C26.8099 20.5062 26.6786 20.8971 26.4562 21.2365C26.2337 21.5758 25.9276 21.8521 25.5672 22.0386C25.5222 22.059 25.4846 22.0931 25.4598 22.1359C25.4351 22.1788 25.4243 22.2283 25.4291 22.2776C25.4339 22.3268 25.4539 22.3734 25.4865 22.4107C25.519 22.448 25.5624 22.4742 25.6105 22.4856C26.7699 22.6818 27.8448 23.2184 28.6983 24.0272C28.7657 24.1129 28.8593 24.1742 28.9649 24.2017C29.0704 24.2291 29.182 24.2213 29.2826 24.1793L29.3887 24.1349C29.4701 24.1008 29.5586 24.0874 29.6465 24.0958C29.7343 24.1042 29.8187 24.1341 29.8921 24.183C29.9656 24.2319 30.0258 24.2981 30.0675 24.3759C30.1091 24.4536 30.1309 24.5405 30.1309 24.6287V27.4299C30.1309 28.915 31.2315 28.6955 31.2288 29.7269C31.2289 29.8711 31.2005 30.0139 31.1453 30.1471C31.0902 30.2803 31.0093 30.4014 30.9073 30.5033C30.8054 30.6053 30.6843 30.6862 30.5511 30.7413C30.4179 30.7965 30.2751 30.8249 30.1309 30.8249C29.3185 30.8249 29.0626 30.3833 27.9646 30.3833C27.3169 30.3833 27.3862 31.1214 27.3646 31.0994C27.7482 31.1052 28.1247 31.2031 28.4625 31.3848C28.966 31.6656 29.5329 31.813 30.1094 31.813V35.3566C30.1156 35.7419 30.2385 36.1162 30.4619 36.4301C30.6854 36.744 30.9989 36.9826 31.3609 37.1145C31.6753 37.2448 31.9381 37.4749 32.1087 37.7694C32.2793 38.0638 32.3483 38.4063 32.3049 38.7438C32.3049 41.763 26.8702 38.4474 26.8702 41.7301C27.924 42.0188 29.0199 42.1228 30.1091 42.0375C32.0084 42.0375 33.7541 42.1912 35.1814 40.3687C38.9142 36.57 40.0122 36.0759 40.0122 32.1787C45.273 31.0646 44.0777 23.3799 41.11 23.3951Z" fill="#A0775C"/>
<path d="M26.0695 29.8751L24.8849 30.7726C24.7003 30.9126 24.5506 31.0934 24.4475 31.3009C24.3445 31.5084 24.2909 31.737 24.291 31.9687V33.6173" stroke="#A0775C" stroke-width="0.75" stroke-miterlimit="10" stroke-linecap="round"/>
<path d="M34.1924 29.8751L35.377 30.7726C35.5616 30.9126 35.7113 31.0934 35.8144 31.3009C35.9174 31.5084 35.971 31.737 35.9709 31.9687V33.6173" stroke="#AC8164" stroke-width="0.75" stroke-miterlimit="10" stroke-linecap="round"/>
<path d="M38.441 31.0804C38.9581 30.7105 39.3698 30.2122 39.6355 29.6346C39.9012 29.057 40.0117 28.4201 39.9561 27.7867V25.5909C39.9561 24.6849 40.3003 23.3951 41.054 23.3951C44.3764 23.3951 44.6853 31.1771 39.9561 32.1783C39.9561 35.481 39.1609 36.3464 36.6624 38.8563V35.4721C36.5936 34.6519 36.7188 33.827 37.0278 33.0641C37.3368 32.3012 37.8209 31.6217 38.441 31.0804Z" fill="#936B55"/>
<path d="M41.1365 23.3951V21.1993C41.1365 15.2487 39.0505 9.12231 30.1575 9.12231C21.2645 9.12231 19.1784 15.2487 19.1784 21.1993V23.3951C15.8559 23.3951 15.5471 31.1772 20.2763 32.1783C20.2763 36.0759 21.3742 36.57 25.0852 40.3907C26.5124 42.2132 28.2581 42.0595 30.1575 42.0595C32.0569 42.0595 33.8025 42.2132 35.2298 40.3907C39.0816 37.6534 40.3631 36.3067 40.0386 32.1783C40.8475 32.0071 41.5894 31.6047 42.174 31.02C42.7587 30.4354 43.1611 29.6935 43.3323 28.8846C44.4302 23.3951 41.2243 23.3622 41.1365 23.3951Z" stroke="#333333" stroke-width="1.5" stroke-linejoin="round"/>
<path d="M31.0077 33.7733C30.677 33.8668 30.368 34.0248 30.0984 34.238C29.7661 34.0582 29.3946 33.9633 29.0168 33.9617C28.0979 34.2642 27.2307 34.7056 26.4453 35.2704C27.9153 36.0004 28.5553 36.7327 29.2773 36.7098C29.2773 36.7098 30.3782 36.6298 31.1473 36.5398C32.2322 36.4133 32.7418 35.6947 33.8164 34.0819C32.8878 34.3239 31.756 33.6618 31.0077 33.7733Z" fill="#936B55"/>
<path d="M33.754 34.2296C33.4031 34.5496 32.9876 34.7904 32.5355 34.9358C32.5238 34.9387 26.5127 35.261 26.5078 35.2586" stroke="#7F5B4B" stroke-width="0.75" stroke-miterlimit="10" stroke-linecap="round"/>
<path d="M21.8129 31.0804C21.2957 30.7105 20.884 30.2122 20.6183 29.6346C20.3526 29.057 20.2421 28.4201 20.2978 27.7867V25.5909C20.2978 24.6849 19.9535 23.3951 19.1999 23.3951C15.8774 23.3951 15.5686 31.1771 20.2978 32.1783C20.2978 35.481 21.093 36.3464 23.5915 38.8563V35.4721C23.6602 34.6519 23.535 33.827 23.226 33.0641C22.9171 32.3012 22.433 31.6217 21.8129 31.0804Z" fill="#A0775C"/>
<path d="M20.2655 32.1646C19.4568 31.9922 18.7156 31.5888 18.1317 31.0034C17.5478 30.4179 17.1465 29.6755 16.9763 28.8664C15.8863 23.3753 19.0919 23.3798 19.1797 23.3799H19.5708V22.7449" stroke="#333333" stroke-width="1.5" stroke-linejoin="round"/>
<path d="M42.0073 23.587C42.9 24 44.0665 25.2409 43.3324 28.8846C43.1601 29.6933 42.7567 30.4346 42.1712 31.0185C41.5857 31.6023 40.8433 32.0037 40.0342 32.1738" stroke="#333333" stroke-width="1.5" stroke-linejoin="round"/>
<path d="M18.7787 29.5775C18.16 29.5775 17.6587 30.6189 17.6587 31.9035C17.6587 33.1881 18.1602 34.2296 18.7787 34.2296C19.3972 34.2296 19.8987 33.1882 19.8987 31.9035" stroke="#D09C69" stroke-linecap="round" stroke-linejoin="round"/>
<path d="M41.4833 29.5775C42.102 29.5775 42.6033 30.6189 42.6033 31.9035C42.6033 33.1881 42.1018 34.2296 41.4833 34.2296C40.8648 34.2296 40.3633 33.1882 40.3633 31.9035" stroke="#D09C69" stroke-linecap="round" stroke-linejoin="round"/>
<path d="M25.5132 27.0902C25.9274 27.0902 26.2632 26.7544 26.2632 26.3402C26.2632 25.926 25.9274 25.5902 25.5132 25.5902C25.099 25.5902 24.7632 25.926 24.7632 26.3402C24.7632 26.7544 25.099 27.0902 25.5132 27.0902Z" fill="#333333"/>
<path d="M26.9301 26.3402C25.5134 26.1764 25.0501 25.1468 23.1309 26.0902" stroke="#333333" stroke-width="0.75" stroke-miterlimit="10" stroke-linecap="round"/>
<path d="M34.7441 27.0902C35.1584 27.0902 35.4941 26.7544 35.4941 26.3402C35.4941 25.926 35.1584 25.5902 34.7441 25.5902C34.3299 25.5902 33.9941 25.926 33.9941 26.3402C33.9941 26.7544 34.3299 27.0902 34.7441 27.0902Z" fill="#333333"/>
<path d="M33.3274 26.3402C34.7442 26.1764 35.2074 25.1468 37.1267 26.0902" stroke="#333333" stroke-width="0.75" stroke-miterlimit="10" stroke-linecap="round"/>
<path d="M28.0078 24.5387C27.4817 24.6913 26.9283 24.7259 26.3872 24.6402C25.8627 24.5911 25.3652 24.4858 24.8778 24.4073C24.4088 24.3099 23.9344 24.2406 23.4571 24.1998C22.9655 24.1565 22.4704 24.221 22.0063 24.3889C22.1484 24.1346 22.346 23.9156 22.5845 23.7483C22.823 23.5811 23.0962 23.4698 23.3837 23.4229C23.9356 23.3129 24.5037 23.3132 25.0554 23.4238C25.5763 23.5267 26.0855 23.6815 26.5754 23.8859C27.0641 24.0787 27.5032 24.3144 28.0078 24.5387Z" fill="#333333"/>
<path d="M32.2539 24.5387C32.7585 24.3143 33.1976 24.0787 33.6863 23.8859C34.1763 23.6815 34.6855 23.5267 35.2063 23.4238C35.758 23.3132 36.3262 23.3129 36.878 23.4229C37.1655 23.4698 37.4387 23.5811 37.6772 23.7483C37.9157 23.9156 38.1134 24.1346 38.2554 24.3889C37.7913 24.221 37.2962 24.1565 36.8046 24.1998C36.3273 24.2406 35.8529 24.3099 35.3839 24.4073C34.8965 24.4858 34.399 24.5911 33.8745 24.6402C33.3334 24.7259 32.7801 24.6913 32.2539 24.5387Z" fill="#333333"/>
<path d="M40.8932 43.2498L41.8898 44.262C41.9245 44.3016 41.9677 44.3327 42.0162 44.3531C42.0648 44.3734 42.1173 44.3823 42.1698 44.3792C42.2256 44.3784 42.2805 44.3657 42.3309 44.3418C42.3661 44.5006 42.3898 44.6099 42.3898 44.6099C42.5436 45.3157 42.891 45.9646 43.393 46.484C44.0043 47.0541 44.767 47.4359 45.5898 47.5836C46.4125 47.7312 47.2604 47.6385 48.0318 47.3166C47.5398 42.9818 44.4495 42.4204 44.4495 42.4204C44.4031 42.4111 44.3748 42.411 44.3338 42.4047C44.4062 42.3315 44.4469 42.2328 44.4469 42.1298C44.447 42.0269 44.4066 41.928 44.3343 41.8547L43.3377 40.8425L43.3295 40.8375C43.4026 40.1706 43.3259 39.4957 43.105 38.8622C40.455 32.3503 40.6083 31.0114 40.6083 22.6881H39.1903C39.1903 32.3841 37.9203 33.4214 37.2685 34.6188C35.9778 33.0514 34.401 30.5287 30.131 31.7832C25.8587 30.5281 24.2822 33.0549 22.991 34.6225C21.6265 31.9035 21.0718 30.2319 21.0718 22.6886H19.6542C19.6542 31.1098 19.7866 32.4017 17.1576 38.8627C16.9141 39.5999 16.8494 40.3843 16.9687 41.1514L15.973 42.129C15.9277 42.1639 15.8901 42.2078 15.8626 42.258C15.835 42.3081 15.8182 42.3634 15.813 42.4204C15.813 42.4204 12.723 42.9818 12.2307 47.3166C13.0021 47.6385 13.85 47.7312 14.6727 47.5836C15.4954 47.4359 16.2581 47.0541 16.8694 46.484C17.3714 45.9646 17.7189 45.3157 17.8727 44.6099C17.9056 44.6422 17.9446 44.6676 17.9875 44.6845C18.0304 44.7014 18.0762 44.7095 18.1223 44.7083C18.1684 44.7071 18.2138 44.6966 18.2557 44.6774C18.2976 44.6583 18.3353 44.6309 18.3664 44.5969C18.6564 44.3508 19.3364 43.5991 19.3364 43.5991C19.3816 43.5578 19.4173 43.5071 19.4408 43.4506C19.4644 43.3941 19.4753 43.3331 19.4728 43.2719C19.4703 43.2108 19.4545 43.1509 19.4264 43.0964C19.3984 43.042 19.3587 42.9944 19.3103 42.9569C20.2013 42.8218 21.0664 42.5515 21.8757 42.1552C21.3809 42.5831 20.4118 43.8259 20.6752 46.4052L19.7014 47.4132C19.6649 47.447 19.6358 47.4879 19.616 47.5336C19.5962 47.5792 19.5861 47.6284 19.5863 47.6781C19.5863 47.6781 16.3663 48.4469 16.1474 52.7481C16.7046 52.9463 17.2964 53.0289 17.8866 52.9909C18.4768 52.9529 19.0531 52.7951 19.5803 52.5271C20.1075 52.2591 20.5746 51.8865 20.9531 51.4321C21.3317 50.9777 21.6136 50.4509 21.7819 49.8839C21.8624 49.9177 21.9518 49.9238 22.0361 49.9013C22.1204 49.8787 22.1949 49.8288 22.2477 49.7593C22.4522 49.5114 23.0036 48.9339 23.2026 48.7348C23.3704 48.5672 23.4245 48.4412 23.1113 48.1348C23.9767 48.0361 24.7994 47.7055 25.4925 47.1778C26.1855 46.6502 26.7231 45.9451 27.0485 45.1371C27.0675 46.0342 27.4161 46.893 28.0278 47.5495C27.984 47.6221 27.9599 47.7048 27.9578 47.7895V49.5972C27.9583 49.7002 27.9908 49.8004 28.0508 49.8841C28.1109 49.9677 28.1955 50.0306 28.2929 50.0639H28.4596L28.2929 50.3539C28.2929 50.3539 26.3858 53.666 30.131 56.1419C33.8763 53.666 31.9685 50.3519 31.9685 50.3519L31.8045 50.067H31.9685C32.0711 50.0377 32.1613 49.9759 32.2258 49.8909C32.2903 49.8059 32.3255 49.7024 32.3262 49.5957V47.7887C32.3238 47.6981 32.2961 47.6099 32.2462 47.5342C32.8506 46.8799 33.1944 46.0269 33.2128 45.1364C33.5374 45.944 34.0741 46.6489 34.7664 47.1765C35.4586 47.7041 36.2806 48.0348 37.1453 48.1337C37.1004 48.2039 37.0793 48.2868 37.0851 48.3699C37.0909 48.4531 37.1234 48.5322 37.1777 48.5954L38.1108 49.6654C38.1447 49.7045 38.1861 49.7365 38.2324 49.7595C38.2787 49.7825 38.3292 49.7961 38.3808 49.7995H38.3925C38.4122 49.7981 38.4318 49.7951 38.451 49.7906C38.4675 49.8443 38.48 49.8825 38.48 49.8825C38.6483 50.4495 38.9303 50.9763 39.3088 51.4307C39.6873 51.8851 40.1544 52.2577 40.6816 52.5257C41.2088 52.7937 41.7851 52.9515 42.3753 52.9895C42.9655 53.0275 43.5573 52.9449 44.1145 52.7467C43.9194 48.9179 41.352 47.8906 40.7895 47.7107C40.7958 47.6572 40.7909 47.603 40.7751 47.5515C40.7593 47.4999 40.7329 47.4523 40.6977 47.4115L39.7647 46.341C39.7308 46.302 39.6896 46.2702 39.6434 46.2472C39.5971 46.2242 39.5468 46.2105 39.4953 46.207C39.4654 46.2076 39.4356 46.2116 39.4065 46.2189C39.6258 43.7421 38.8714 42.5742 38.3865 42.1546C39.1438 42.5323 39.9539 42.7934 40.7892 42.9289C40.781 42.9868 40.7862 43.0458 40.8042 43.1014C40.8222 43.157 40.8526 43.2077 40.8932 43.2498ZM34.1297 37.1972C34.1202 37.3732 34.0414 37.5382 33.9105 37.6563C33.7797 37.7743 33.6074 37.8358 33.4314 37.8272C33.0497 37.8742 32.6622 37.8296 32.3012 37.6969C31.9402 37.5642 31.616 37.3473 31.3556 37.0643C31.3088 37.001 31.2484 36.9491 31.1789 36.9122C31.1094 36.8754 31.0324 36.8546 30.9538 36.8514H29.3084C29.2298 36.8546 29.1529 36.8754 29.0834 36.9122C29.0139 36.9491 28.9535 37.001 28.9067 37.0643C28.6463 37.3473 28.3221 37.5642 27.9611 37.6969C27.6001 37.8295 27.2126 37.8742 26.8309 37.8272C26.6549 37.8358 26.4826 37.7744 26.3517 37.6563C26.2209 37.5383 26.1421 37.3732 26.1326 37.1972V34.6772C26.1386 34.5232 26.2055 34.3779 26.3184 34.2732C26.4314 34.1684 26.5813 34.1127 26.7353 34.1183H27.8927C28.3093 34.1219 28.7223 34.0412 29.1069 33.8812C29.4915 33.7212 29.8399 33.4852 30.131 33.1872C30.4221 33.4853 30.7705 33.7214 31.1551 33.8815C31.5398 34.0415 31.9528 34.1222 32.3694 34.1187H33.527C33.681 34.1131 33.8309 34.1688 33.9439 34.2736C34.0569 34.3783 34.1237 34.5236 34.1297 34.6776V37.1972Z" fill="#333333"/>
<path d="M38.8428 36.0149C38.3599 35.9794 37.9083 35.7624 37.579 35.4075C37.2644 35.0999 36.9679 34.7742 36.691 34.4322C36.1825 33.7657 35.5817 33.175 34.9066 32.6781C34.2424 32.2118 33.4576 31.9473 32.6466 31.9164C32.241 31.8941 31.8342 31.9147 31.433 31.9777C30.9973 32.0808 30.5548 32.1526 30.1089 32.1926C29.6635 32.1497 29.221 32.0817 28.7833 31.9889C28.3822 31.9342 27.977 31.9166 27.5727 31.9364C26.7655 31.9691 25.9842 32.2306 25.32 32.6904C24.6425 33.1827 24.0386 33.7692 23.5268 34.4321C23.2519 34.7759 22.9565 35.1027 22.6422 35.4108C22.3114 35.7652 21.8587 35.9813 21.3752 36.0156C21.3315 36.0154 21.2895 35.9985 21.2579 35.9684C21.2262 35.9383 21.2073 35.8972 21.2051 35.8535C21.2028 35.8099 21.2173 35.767 21.2456 35.7338C21.274 35.7005 21.3139 35.6793 21.3574 35.6746L21.3752 35.6727C22.1215 35.5891 22.613 34.7681 23.1393 34.1204C23.6511 33.3916 24.2645 32.7398 24.961 32.1848C25.7007 31.6216 26.5879 31.2852 27.5151 31.2162C27.9702 31.1722 28.429 31.1816 28.882 31.2444C29.323 31.3088 29.8051 31.4379 30.109 31.4423C30.4123 31.4363 30.8955 31.3094 31.3374 31.2555C31.79 31.2012 32.2472 31.1947 32.7012 31.2362C33.6244 31.307 34.5082 31.6404 35.2482 32.1971C35.9468 32.7477 36.5632 33.3953 37.0787 34.1203C37.5987 34.7718 38.0943 35.5932 38.8427 35.6733L38.86 35.6751C38.9051 35.6774 38.9474 35.6975 38.9777 35.731C39.0079 35.7645 39.0236 35.8087 39.0213 35.8538C39.019 35.8988 38.9989 35.9412 38.9654 35.9714C38.9319 36.0017 38.8878 36.0174 38.8427 36.0151L38.8428 36.0149Z" fill="#444444"/>
<path d="M31.391 52.7228C31.1523 53.242 30.765 53.6788 30.2781 53.978C30.6978 53.3065 30.9319 52.5358 30.9567 51.7444C30.8483 51.9755 30.685 52.1765 30.4811 52.33C30.2771 52.4835 30.0388 52.5848 29.7867 52.6251C30.2665 51.8747 30.4671 50.9794 30.3533 50.096H29.5361C29.2555 50.4447 29.0479 50.8463 28.9257 51.2768C28.8035 51.7074 28.7691 52.1581 28.8246 52.6022C28.8801 53.0463 29.0244 53.4747 29.2488 53.8619C29.4732 54.2492 29.7732 54.5873 30.131 54.8562C30.8313 54.3244 31.2921 53.5366 31.4123 52.6655C31.4042 52.6842 31.3996 52.7043 31.391 52.7228Z" fill="#444444"/>
<path d="M28.5243 44.5208C28.3529 44.3685 28.1796 44.2147 28.0143 44.0535C27.8593 45.9468 28.6126 46.5068 29.3529 46.9382C29.3248 46.4876 29.3984 46.0365 29.5683 45.6182C29.2685 45.2094 28.9177 44.8406 28.5243 44.5208Z" fill="#444444"/>
<path d="M30.3839 47.2493C30.5026 47.1722 30.6271 47.1009 30.7506 47.0306C31.5367 46.5819 32.4132 46.0819 32.2472 44.0535C32.0821 44.2147 31.9088 44.369 31.7372 44.5213C30.8893 45.2747 30.1393 45.9417 30.3839 47.2493Z" fill="#444444"/>
<path d="M28.5243 41.2567C28.3529 41.1043 28.1796 40.9505 28.0143 40.7894C27.8578 42.7015 28.6275 43.2538 29.3749 43.6869C29.3424 43.2146 29.3907 42.7402 29.5176 42.2841C29.2261 41.9055 28.8929 41.5608 28.5243 41.2567Z" fill="#444444"/>
<path d="M30.4076 44.1395C30.4882 44.0765 30.5717 44.0145 30.6557 43.9515C31.2069 43.6297 31.6505 43.1519 31.9305 42.5784C32.2106 42.0048 32.3146 41.3612 32.2294 40.7287C32.0717 40.8572 31.9071 40.9758 31.7445 41.093C31.2081 41.3727 30.7832 41.8271 30.5401 42.3811C30.297 42.935 30.2502 43.5554 30.4076 44.1395Z" fill="#444444"/>
<path d="M38.1235 43.2096C37.9746 43.8372 37.7514 44.4448 37.4587 45.0196C37.9266 45.5995 38.2475 46.2837 38.3941 47.0142L38.5141 46.9097C38.5336 45.59 38.9808 44.7353 38.1235 43.2096Z" fill="#444444"/>
<path d="M34.8692 44.5174C34.7246 44.4593 34.582 44.4022 34.4434 44.3421C35.0772 46.3944 36.1143 46.5916 37.0459 46.7689C37.1397 46.7864 37.2344 46.8045 37.3286 46.8245C37.1494 46.2621 36.8294 45.7549 36.3989 45.3511C35.9685 44.9472 35.4418 44.6603 34.8692 44.5174Z" fill="#444444"/>
<path d="M36.7819 40.4813C36.7052 40.3113 36.628 40.1385 36.5563 39.9598C36.2898 40.4998 36.1903 41.1069 36.2703 41.7037C36.6621 42.1164 36.9524 42.6146 37.1182 43.1589C37.3653 42.2571 37.2444 41.294 36.7819 40.4813Z" fill="#444444"/>
<path d="M33.8617 41.4896C33.6435 41.4124 33.4217 41.3338 33.2065 41.2435C33.4696 42.6341 34.1884 42.9235 35.1239 43.3006C35.5235 43.4505 35.9105 43.6321 36.2812 43.8436C35.9237 42.2205 34.9169 41.8636 33.8617 41.4896Z" fill="#444444"/>
<path d="M41.8546 38.2866C41.7314 38.872 41.5394 39.4408 41.2827 39.9811C41.6651 40.4206 41.9491 40.9368 42.1156 41.4951L42.2935 41.3199C42.5258 40.2892 42.3696 39.2091 41.8546 38.2866Z" fill="#444444"/>
<path d="M38.7876 39.596C38.6704 39.5516 38.5542 39.5081 38.4409 39.4627C38.5529 40.0442 38.8556 40.5716 39.3012 40.9616C39.7468 41.3515 40.3098 41.5817 40.9009 41.6155C40.9737 41.6277 41.0464 41.64 41.1197 41.6531C40.9343 41.1424 40.6236 40.6864 40.2162 40.327C39.8087 39.9675 39.3175 39.7162 38.7876 39.596Z" fill="#444444"/>
<path d="M40.4894 35.7387C40.423 35.6 40.3561 35.4594 40.2926 35.3144C40.0759 35.8054 40.005 36.3483 40.0885 36.8785C40.4426 37.234 40.7142 37.6631 40.884 38.1353C41.0611 37.3153 40.9201 36.4586 40.4894 35.7387Z" fill="#444444"/>
<path d="M37.7764 36.765C37.5845 36.7015 37.3906 36.6375 37.2002 36.5643C37.4741 37.806 38.1226 38.0506 39.023 38.3904C39.3823 38.5171 39.7322 38.6694 40.0698 38.846C39.9345 38.3121 39.6447 37.8299 39.2368 37.4597C38.8289 37.0896 38.3209 36.848 37.7764 36.765Z" fill="#444444"/>
<path d="M35.2128 41.24C35.1973 40.5732 35.8975 39.5873 35.6317 38.7685C35.4437 38.1892 34.9817 38.0699 34.9258 37.5058C35.0427 38.0469 34.5829 38.7451 34.4881 39.3129C34.4684 40.0253 34.7286 40.7171 35.2128 41.24Z" fill="#444444"/>
<path d="M39.4304 47.1536L38.0286 48.3752L38.4455 48.8536L39.8473 47.6321L39.4304 47.1536Z" fill="#B72525"/>
<path d="M43.0528 41.6737L41.7285 42.9793L42.1743 43.4315L43.4986 42.1258L43.0528 41.6737Z" fill="#B72525"/>
<path d="M22.1383 43.2096C22.2872 43.8372 22.5103 44.4448 22.803 45.0196C22.3352 45.5995 22.0143 46.2837 21.8676 47.0142L21.7476 46.9097C21.7281 45.59 21.281 44.7353 22.1383 43.2096Z" fill="#444444"/>
<path d="M25.3926 44.5174C25.5371 44.4593 25.6797 44.4022 25.8184 44.3421C25.1846 46.3944 24.1475 46.5916 23.2158 46.7689C23.1221 46.7864 23.0274 46.8045 22.9331 46.8245C23.1122 46.2621 23.4323 45.7549 23.8628 45.351C24.2933 44.9472 24.8199 44.6602 25.3926 44.5174Z" fill="#444444"/>
<path d="M23.4801 40.4813C23.5568 40.3113 23.6339 40.1385 23.7057 39.9598C23.9721 40.4998 24.0716 41.1069 23.9917 41.7037C23.5999 42.1163 23.3096 42.6146 23.1438 43.1589C22.8966 42.2571 23.0176 41.294 23.4801 40.4813Z" fill="#444444"/>
<path d="M26.3999 41.4896C26.6182 41.4124 26.8399 41.3338 27.0552 41.2435C26.792 42.6341 26.0733 42.9235 25.1377 43.3006C24.7381 43.4506 24.3512 43.6321 23.9805 43.8436C24.3379 42.2205 25.3447 41.8636 26.3999 41.4896Z" fill="#444444"/>
<path d="M18.4071 38.2866C18.5303 38.872 18.7223 39.4408 18.9791 39.9811C18.5967 40.4206 18.3127 40.9368 18.1461 41.4951L17.9682 41.3199C17.736 40.2892 17.8923 39.2092 18.4071 38.2866Z" fill="#444444"/>
<path d="M21.4741 39.596C21.5913 39.5516 21.7075 39.5081 21.8208 39.4627C21.7089 40.0442 21.4061 40.5716 20.9605 40.9616C20.5149 41.3515 19.952 41.5817 19.3608 41.6155C19.2881 41.6277 19.2153 41.64 19.1421 41.6531C19.3275 41.1424 19.6381 40.6864 20.0456 40.327C20.453 39.9676 20.9442 39.7162 21.4741 39.596Z" fill="#444444"/>
<path d="M19.7725 35.7387C19.8389 35.6 19.9058 35.4594 19.9693 35.3144C20.186 35.8054 20.2568 36.3483 20.1734 36.8785C19.8192 37.234 19.5476 37.6631 19.3779 38.1353C19.2006 37.3153 19.3417 36.4586 19.7725 35.7387Z" fill="#444444"/>
<path d="M22.4854 36.765C22.6773 36.7015 22.8711 36.6375 23.0615 36.5643C22.7876 37.806 22.1392 38.0506 21.2388 38.3904C20.8794 38.5171 20.5295 38.6694 20.1919 38.846C20.3272 38.3121 20.617 37.8299 21.0249 37.4598C21.4329 37.0896 21.9409 36.848 22.4854 36.765Z" fill="#444444"/>
<path d="M25.0489 41.24C25.0644 40.5732 24.3641 39.5873 24.6299 38.7685C24.818 38.1892 25.2799 38.0699 25.3359 37.5058C25.219 38.0469 25.6787 38.7451 25.7736 39.3129C25.7933 40.0253 25.5331 40.7171 25.0489 41.24Z" fill="#444444"/>
<path d="M20.9958 47.2494L20.5789 47.7278L21.9807 48.9494L22.3976 48.471L20.9958 47.2494Z" fill="#B72525"/>
<path d="M17.209 41.6737L16.7632 42.1259L18.0875 43.4315L18.5333 42.9794L17.209 41.6737Z" fill="#B72525"/>
<path d="M31.7623 38.2875C31.7529 38.2642 31.7374 38.2437 31.7174 38.2283C31.6975 38.2129 31.6739 38.203 31.6489 38.1997C31.6239 38.1964 31.5985 38.1998 31.5753 38.2095C31.552 38.2192 31.5317 38.2349 31.5165 38.255C31.1831 38.6966 30.1309 39.0077 30.1309 39.545C30.1309 39.0079 29.0788 38.6968 28.7453 38.255C28.7301 38.2349 28.7099 38.2192 28.6867 38.2094C28.6634 38.1997 28.638 38.1963 28.613 38.1996C28.588 38.2029 28.5644 38.2128 28.5444 38.2282C28.5245 38.2437 28.5091 38.2641 28.4996 38.2875C27.7844 40.0497 30.1309 40.8115 30.1309 41.3263C30.1309 40.8115 32.4774 40.0497 31.7623 38.2875Z" fill="#444444"/>
<path d="M26.9077 31.1257C27.4609 31.1244 28.0088 31.2335 28.5193 31.4464V31.4464C29.0303 31.6581 29.5779 31.7671 30.131 31.7671C30.6841 31.7671 31.2318 31.6581 31.7427 31.4464V31.4464C32.2533 31.2335 32.8011 31.1244 33.3543 31.1257" stroke="#674848" stroke-width="0.75" stroke-miterlimit="10" stroke-linecap="round"/>
<path d="M18.545 49.5115C19.0384 49.05 19.6455 48.7276 20.3042 48.5773L20.6732 48.8991L20.6519 48.926C20.1376 49.5326 19.5562 50.0789 18.919 50.5546L20.0841 50.2437C19.538 50.9533 18.7564 51.4444 17.8802 51.6287C18.2686 51.7033 18.6635 51.7391 19.059 51.7356C19.0699 51.7351 19.0805 51.7311 19.0913 51.7305C18.5267 52.0263 17.8722 52.1012 17.2554 51.9405C17.3897 51.0055 17.8457 50.1466 18.545 49.5115Z" fill="#444444"/>
<path d="M18.545 49.5115C19.0384 49.05 19.6455 48.7276 20.3042 48.5773L20.6732 48.8991L20.6519 48.926C20.1376 49.5326 19.5562 50.0789 18.919 50.5546L20.0841 50.2437C19.538 50.9533 18.7564 51.4444 17.8802 51.6287C18.2686 51.7033 18.6635 51.7391 19.059 51.7356C19.0699 51.7351 19.0805 51.7311 19.0913 51.7305C18.5267 52.0263 17.8722 52.1012 17.2554 51.9405C17.3897 51.0055 17.8457 50.1466 18.545 49.5115Z" fill="#444444"/>
<path d="M16.8034 43.2687L16.8152 43.2803C16.3499 43.7864 15.8041 44.2122 15.1999 44.5403L16.5016 44.4744C15.7587 45.1522 14.9145 45.7098 13.9996 46.1272L15.623 46.1894C15.3028 46.4202 14.9352 46.5767 14.5469 46.6475C14.1587 46.7184 13.7595 46.7017 13.3784 46.5988C13.5141 45.7487 13.9209 44.9653 14.5381 44.3652C15.1553 43.7651 15.9499 43.3805 16.8034 43.2687Z" fill="#444444"/>
<path d="M41.7168 49.5115C41.2234 49.05 40.6164 48.7276 39.9577 48.5773L39.5886 48.8991L39.6099 48.926C40.1242 49.5325 40.7056 50.0789 41.3428 50.5546L40.1777 50.2437C40.7238 50.9533 41.5054 51.4444 42.3816 51.6287C41.9932 51.7033 41.5983 51.7392 41.2028 51.7356C41.1919 51.7351 41.1814 51.7311 41.1705 51.7305C41.7351 52.0263 42.3896 52.1012 43.0064 51.9405C42.8721 51.0055 42.4161 50.1466 41.7168 49.5115Z" fill="#444444"/>
<path d="M43.4583 43.2687L43.4465 43.2803C43.9119 43.7864 44.4577 44.2121 45.0618 44.5403L43.7602 44.4744C44.5031 45.1522 45.3472 45.7098 46.2621 46.1272L44.6387 46.1894C44.9589 46.4202 45.3265 46.5767 45.7148 46.6475C46.1031 46.7183 46.5023 46.7017 46.8833 46.5988C46.7476 45.7487 46.3409 44.9652 45.7237 44.3651C45.1065 43.765 44.3119 43.3805 43.4583 43.2687Z" fill="#444444"/>
<path d="M31.4197 27.541V25.978" stroke="#936B55" stroke-width="0.75" stroke-miterlimit="10" stroke-linecap="round"/>
<path d="M24.7959 27.6733H26.4159" stroke="#936B55" stroke-width="0.75" stroke-miterlimit="10" stroke-linecap="round"/>
<path d="M35.422 27.6733H33.802" stroke="#936B55" stroke-width="0.75" stroke-miterlimit="10" stroke-linecap="round"/>
<path d="M33.5874 1C34.7333 3.89 32.4338 5.5273 30.1309 5.5273C27.828 5.5273 25.5285 3.89 26.6744 1C12.5709 2.8229 22.0191 16.2748 1.94238 16.2748C5.46238 23.8036 10.5871 27.7569 16.0772 29.8021C16.1984 29.8472 16.3299 29.8574 16.4566 29.8314C16.5834 29.8054 16.7002 29.7443 16.7939 29.655C16.8876 29.5658 16.9543 29.452 16.9864 29.3267C17.0185 29.2014 17.0147 29.0696 16.9755 28.9463C16.208 26.4247 17.1047 23.3951 19.1784 23.3951C21.0216 21.6277 25.2273 20.3998 30.1309 20.3998C35.0345 20.3998 39.2402 21.6277 41.0833 23.3951C43.157 23.3951 44.0533 26.4251 43.2863 28.9463C43.2471 29.0696 43.2433 29.2014 43.2754 29.3267C43.3075 29.452 43.3742 29.5658 43.4679 29.655C43.5615 29.7443 43.6784 29.8054 43.8051 29.8314C43.9319 29.8574 44.0633 29.8472 44.1846 29.8021C49.6746 27.7569 54.7996 23.8036 58.3194 16.2748C38.2425 16.2748 47.6909 2.8229 33.5874 1Z" fill="#333333"/>
<path d="M44.7898 29.5702C50.0498 27.4625 54.9292 23.5264 58.3198 16.2748" stroke="#D09C69" stroke-width="1.4122" stroke-linecap="round" stroke-linejoin="round"/>
<path d="M1.94238 16.2748C5.36668 23.5994 10.3099 27.5413 15.6309 29.6332" stroke="#D09C69" stroke-width="1.4122" stroke-linecap="round" stroke-linejoin="round"/>
<path d="M58.3194 16.2748C38.2673 16.2748 47.6823 2.82479 33.5875 1.00039C33.7626 1.43561 33.8534 1.90016 33.8551 2.36929C33.8551 4.42619 32.1877 5.52729 30.1308 5.52729C28.0739 5.52729 26.4066 4.42619 26.4066 2.36929C26.4082 1.90005 26.4991 1.4354 26.6743 1.00009C12.5709 2.82289 22.0191 16.2748 1.94238 16.2748" stroke="#D09C69" stroke-width="1.4122" stroke-linecap="round" stroke-linejoin="round"/>
<path d="M55.3182 17.557C38.9162 16.7993 44.3982 6.17699 35.4443 3.49899C35.2619 5.40899 32.9903 7.43709 30.1091 7.32779C27.2278 7.43709 24.9562 5.40929 24.7738 3.49899C15.8199 6.17669 21.3019 16.799 4.8999 17.557C9.1128 18.463 12.9221 18.7855 17.918 16.667C16.898 18.0383 16.0954 20.507 15.4249 24.1663C15.4249 24.1663 19.5509 19.4928 30.1091 19.4928C40.6673 19.4928 44.7932 24.1663 44.7932 24.1663C44.1232 20.507 43.3202 18.0383 42.3002 16.667C47.2961 18.7855 51.1053 18.463 55.3182 17.557Z" fill="#444444"/>
<path d="M30.4058 22.1087C36.6964 22.1087 41.7436 23.5242 43.5158 25.8279C43.9076 25.3544 44.1289 24.763 44.1442 24.1487C44.1442 20.1231 37.8702 18.0387 30.1308 18.0387C22.3914 18.0387 16.1174 20.1233 16.1174 24.1487C16.1328 24.763 16.354 25.3544 16.7457 25.8279C18.518 23.5239 24.1151 22.1087 30.4058 22.1087Z" fill="#B72525" stroke="#333333" stroke-width="1.5" stroke-linejoin="round"/>
<path d="M34.112 11.5987C34.1279 11.5915 34.1453 11.5882 34.1627 11.5893C34.1802 11.5904 34.1971 11.5957 34.212 11.6048C34.4283 11.7417 34.666 11.8415 34.9153 11.9C34.9641 11.909 35.0144 11.8988 35.0558 11.8714C35.2245 11.7381 35.3507 11.5585 35.4187 11.3545C35.4282 11.3209 35.4283 11.2853 35.4191 11.2516C35.4099 11.2179 35.3917 11.1873 35.3665 11.1632C35.1528 10.9836 34.9072 10.846 34.6425 10.7575C34.6389 10.7562 34.6358 10.7537 34.6337 10.7505C34.6316 10.7472 34.6306 10.7434 34.6309 10.7395C34.6312 10.7357 34.6327 10.732 34.6352 10.7291C34.6377 10.7262 34.6411 10.7242 34.6449 10.7234C34.7647 10.6977 34.8883 10.6951 35.0091 10.7156C35.0276 10.7189 35.0466 10.7147 35.0621 10.704C35.0775 10.6933 35.0881 10.677 35.0915 10.6585C35.1172 10.5177 35.1293 10.3747 35.1276 10.2315C35.1266 10.1602 35.1012 10.0914 35.0558 10.0364C35.0103 9.98151 34.9474 9.94374 34.8776 9.9294C34.7757 9.90928 34.6715 9.90389 34.5681 9.9134C34.5193 9.91763 34.4722 9.93323 34.4305 9.95895C34.3888 9.98466 34.3537 10.0198 34.3281 10.0615C34.2071 10.255 34.1101 10.4626 34.0395 10.6797C34.035 10.694 34.0275 10.7071 34.0176 10.7183C34.0076 10.7294 33.9954 10.7384 33.9818 10.7445L33.3105 11.0476C33.2465 11.3529 33.1503 11.6506 33.0236 11.9357L33.0215 11.9409C33.0333 11.9886 33.0422 12.037 33.048 12.0858L34.112 11.5987Z" fill="#AAAAAA"/>
<path d="M26.5709 14.0906C26.5488 14.1006 26.5239 14.1028 26.5004 14.0967C26.2317 14.0313 25.9547 14.0066 25.6787 14.0235C25.6787 14.0235 25.505 14.0603 25.3807 14.4789C25.3752 14.4972 25.3748 14.5166 25.3794 14.5351C25.384 14.5536 25.3936 14.5705 25.407 14.584C25.5962 14.7707 25.927 14.7902 26.1095 15.0152C26.1118 15.0181 26.1132 15.0216 26.1134 15.0252C26.1137 15.0289 26.1128 15.0326 26.1109 15.0357C26.109 15.0389 26.1062 15.0413 26.1028 15.0428C26.0995 15.0443 26.0957 15.0447 26.0921 15.044C26.0112 15.028 25.9289 15.0205 25.8464 15.0215C25.8321 15.0218 25.8182 15.0265 25.8066 15.0348C25.795 15.0431 25.7861 15.0548 25.7812 15.0682C25.7198 15.2398 25.6887 15.4207 25.6893 15.6029C25.6893 15.6235 25.6953 15.6437 25.7065 15.661C25.7176 15.6783 25.7336 15.692 25.7523 15.7005C25.8919 15.7628 26.0433 15.7939 26.1961 15.7918C26.3489 15.7897 26.4994 15.7543 26.6371 15.6882C26.6497 15.6823 26.6611 15.674 26.6705 15.6637C26.6799 15.6534 26.6871 15.6413 26.6918 15.6282C26.7675 15.4177 26.8226 15.2002 26.8561 14.979C26.8585 14.9611 26.8654 14.944 26.8761 14.9294C26.8868 14.9148 26.9011 14.9032 26.9175 14.8956L27.8207 14.4818C27.7241 14.3155 27.6383 14.1431 27.564 13.9657C27.5332 13.8972 27.5014 13.8263 27.4676 13.7534C27.459 13.7347 27.4513 13.7158 27.4444 13.6967L26.5709 14.0906Z" fill="#AAAAAA"/>
<path d="M25.3968 11.8329C25.6358 11.7353 25.8696 11.6255 26.0974 11.5039C26.1117 11.4965 26.1276 11.4925 26.1437 11.4921C26.1598 11.4918 26.1758 11.4951 26.1905 11.5018L27.4245 12.0672C27.4325 11.9977 27.4463 11.929 27.4656 11.8618L27.4442 11.8106C27.3297 11.5641 27.2422 11.3059 27.1832 11.0406L26.3764 10.6745C26.357 10.6657 26.3406 10.6514 26.3295 10.6332C26.3184 10.6151 26.3129 10.594 26.3139 10.5727C26.3322 10.3073 26.2994 10.0409 26.2172 9.78789C26.1997 9.73541 26.1646 9.69054 26.1179 9.66083C26.0713 9.63112 26.0158 9.61836 25.9608 9.6247C25.7651 9.65043 25.5748 9.70749 25.3972 9.7937C25.3623 9.81036 25.3319 9.83518 25.3086 9.86605C25.2852 9.89692 25.2697 9.93295 25.2632 9.97109C25.2359 10.1322 25.2183 10.2703 25.2069 10.3811C25.2062 10.3884 25.207 10.3957 25.2094 10.4026C25.2118 10.4095 25.2156 10.4158 25.2206 10.421C25.2257 10.4263 25.2318 10.4304 25.2386 10.4331C25.2453 10.4358 25.2526 10.437 25.2599 10.4366C25.407 10.4277 25.5546 10.4316 25.701 10.4482C25.7063 10.4493 25.711 10.4521 25.7145 10.4563C25.718 10.4604 25.7199 10.4656 25.72 10.471C25.7201 10.4764 25.7184 10.4817 25.7151 10.4859C25.7119 10.4902 25.7072 10.4933 25.702 10.4946C25.48 10.5627 25.2647 10.6508 25.0586 10.7578C25.002 10.7854 24.9535 10.8271 24.9177 10.8789C24.8819 10.9308 24.8602 10.991 24.8545 11.0537C24.819 11.2648 24.8266 11.4809 24.8768 11.689C24.9441 11.7552 25.0272 11.8031 25.1182 11.8283C25.2092 11.8535 25.305 11.855 25.3968 11.8329Z" fill="#AAAAAA"/>
<path d="M32.6523 14.4622L33.2709 14.7457C33.2898 14.7544 33.3058 14.7683 33.3169 14.7859C33.3279 14.8035 33.3336 14.8239 33.3332 14.8447C33.319 15.0756 33.3519 15.307 33.4301 15.5247C33.4408 15.5503 33.4591 15.572 33.4824 15.5871C33.5058 15.6021 33.5331 15.6096 33.5608 15.6087C33.8121 15.6041 34.0603 15.5526 34.2927 15.4569C34.3173 15.4462 34.3382 15.4286 34.3529 15.4062C34.3675 15.3838 34.3754 15.3576 34.3753 15.3308V14.9924C34.3754 14.9831 34.3718 14.9742 34.3653 14.9675C34.3588 14.9609 34.35 14.957 34.3407 14.9568C34.2344 14.9533 34.128 14.9591 34.0227 14.974C34.0188 14.9746 34.0148 14.9739 34.0113 14.972C34.0079 14.9701 34.0051 14.967 34.0036 14.9634C34.002 14.9597 34.0017 14.9556 34.0028 14.9518C34.0038 14.948 34.0061 14.9446 34.0092 14.9422C34.4498 14.6039 34.5492 14.7477 34.8771 14.5186C34.898 14.5039 34.9144 14.4837 34.9245 14.4602C34.9346 14.4367 34.938 14.4109 34.9343 14.3856C34.9071 14.1645 34.7937 13.963 34.6187 13.825C34.6046 13.8127 34.5881 13.8034 34.5703 13.7977C34.5524 13.7919 34.5336 13.7898 34.5149 13.7914C34.2841 13.8366 34.0609 13.9146 33.8522 14.0232C33.8381 14.0301 33.8227 14.0338 33.807 14.034C33.7913 14.0342 33.7757 14.0309 33.7614 14.0244L33.0196 13.6879C33.012 13.7097 33.0034 13.7313 32.9936 13.7525C32.9599 13.8254 32.928 13.8962 32.8973 13.9647C32.8255 14.1352 32.7437 14.3013 32.6523 14.4622Z" fill="#AAAAAA"/>
<path d="M28.6799 10.7657C28.9099 10.7357 29.2546 11.2597 29.5129 11.5777C29.5205 11.5867 29.5247 11.5982 29.5247 11.61C29.5246 11.6218 29.5204 11.6333 29.5128 11.6423C29.5051 11.6513 29.4945 11.6573 29.4829 11.6593C29.4712 11.6612 29.4592 11.6589 29.4491 11.6529C29.2116 11.5129 29.0551 11.2681 28.8364 11.1296C28.7792 11.0935 28.7119 11.0767 28.6444 11.0817C28.5769 11.0867 28.5128 11.1132 28.4616 11.1574C28.2327 11.3395 28.038 11.5608 27.8864 11.811C27.4564 12.7517 28.4964 13.2743 28.5139 13.2849C28.5234 13.29 28.5308 13.2983 28.535 13.3083C28.5391 13.3182 28.5396 13.3293 28.5365 13.3397C28.5334 13.35 28.5267 13.359 28.5178 13.365C28.5088 13.371 28.498 13.3737 28.4873 13.3727C28.2672 13.3602 28.0523 13.3006 27.8573 13.1978C27.8069 13.251 27.7736 13.3181 27.7617 13.3904C27.7498 13.4627 27.7599 13.537 27.7906 13.6035C28.0254 14.1107 28.1621 14.5044 28.3943 14.5044H28.6531C28.6739 14.5044 28.6944 14.4993 28.7127 14.4896C28.7311 14.4799 28.7469 14.4659 28.7586 14.4487C28.8728 14.2903 29.0126 14.1521 29.1722 14.0395C29.1867 14.029 29.2044 14.0237 29.2223 14.0246C29.2402 14.0256 29.2572 14.0326 29.2706 14.0446C29.2839 14.0566 29.2927 14.0728 29.2955 14.0905C29.2984 14.1082 29.295 14.1264 29.2861 14.1419C29.1642 14.3614 29.0794 14.5996 29.0351 14.8467C29.0942 14.8315 29.1567 14.8366 29.2126 14.8612C29.2709 14.8928 29.3222 14.9358 29.3636 14.9877C29.4049 15.0396 29.4354 15.0992 29.4532 15.1631C29.4919 15.0876 29.5478 15.0222 29.6163 14.9721C29.6849 14.9221 29.7642 14.8888 29.848 14.875C29.9272 14.8714 30.006 14.888 30.0771 14.9232C30.1482 14.9583 30.2092 15.011 30.2544 15.0761C30.287 14.9996 30.338 14.9323 30.4028 14.8803C30.4677 14.8283 30.5444 14.7931 30.6262 14.7779C30.7133 14.7805 30.7984 14.8047 30.8738 14.8483C30.9492 14.892 31.0126 14.9537 31.0583 15.0279C31.0875 14.9778 31.1195 14.9294 31.1543 14.8829C31.211 14.7886 31.3005 14.7184 31.4057 14.6858C31.3697 14.52 31.3114 14.3599 31.2325 14.2097C31.2225 14.1906 31.2194 14.1686 31.2237 14.1474C31.228 14.1263 31.2394 14.1073 31.2561 14.0935C31.2727 14.0798 31.2936 14.0722 31.3152 14.0721C31.3367 14.0719 31.3577 14.0791 31.3746 14.0926C31.5052 14.1941 31.6203 14.3142 31.7163 14.449C31.728 14.4662 31.7438 14.4803 31.7622 14.49C31.7806 14.4997 31.8011 14.5048 31.8219 14.5048H32.0673C32.2994 14.5048 32.4361 14.1111 32.6709 13.6039C32.7003 13.5402 32.7108 13.4693 32.7011 13.3998C32.6914 13.3303 32.662 13.265 32.6163 13.2117C32.4261 13.3051 32.2193 13.3599 32.0079 13.3731C31.9971 13.3741 31.9863 13.3714 31.9773 13.3654C31.9683 13.3594 31.9617 13.3505 31.9586 13.3401C31.9554 13.3298 31.956 13.3187 31.9601 13.3087C31.9642 13.2987 31.9717 13.2904 31.9812 13.2853C32.12 13.2293 32.246 13.1456 32.3515 13.0394C32.457 12.9331 32.5398 12.8065 32.5949 12.6673C32.65 12.5281 32.6761 12.3791 32.6718 12.2294C32.6675 12.0798 32.6328 11.9325 32.5699 11.7967C32.4278 11.5518 32.2417 11.3352 32.021 11.1578C31.9697 11.1136 31.9056 11.0871 31.8382 11.0821C31.7707 11.0771 31.7034 11.0939 31.6462 11.13C31.4276 11.2685 31.271 11.5137 31.0335 11.6533C31.0233 11.6593 31.0113 11.6616 30.9997 11.6597C30.988 11.6577 30.9774 11.6517 30.9698 11.6427C30.9621 11.6337 30.9579 11.6222 30.9579 11.6104C30.9579 11.5986 30.9621 11.5871 30.9697 11.5781C31.228 11.2601 31.5729 10.7359 31.8027 10.7661C32.2078 10.8763 32.5634 11.1212 32.8107 11.4605L32.8124 11.4618C32.943 11.1829 32.9907 10.8723 32.9498 10.567C32.7562 10.0039 32.3917 9.51538 31.9071 9.16951C31.4224 8.82364 30.8419 8.63773 30.2465 8.63773C29.6511 8.63773 29.0706 8.82364 28.586 9.16951C28.1014 9.51538 27.7368 10.0039 27.5433 10.567C27.4825 10.8679 27.5315 11.1806 27.6814 11.4485C27.9278 11.115 28.2797 10.8744 28.6799 10.7657ZM30.5166 12.3217C30.8857 12.5407 31.1049 12.0083 31.5041 11.6461C31.541 11.5948 31.5888 11.5523 31.6441 11.5216C31.6994 11.491 31.7608 11.473 31.8239 11.4688C31.8869 11.4647 31.9502 11.4745 32.009 11.4977C32.0678 11.5209 32.1208 11.5568 32.1641 11.6028C32.0951 11.5881 32.0231 11.5978 31.9604 11.6301C32.1263 11.706 32.2571 11.8423 32.3262 12.0112C32.3953 12.1801 32.3975 12.3689 32.3324 12.5394C32.2959 12.4572 32.2492 12.3799 32.1934 12.3094C32.2695 13.1886 31.2534 13.5535 30.9744 12.6627C30.7144 12.7371 30.5488 12.5121 30.471 12.365C30.4678 12.3587 30.4667 12.3515 30.4679 12.3446C30.4691 12.3376 30.4725 12.3312 30.4776 12.3263C30.4828 12.3215 30.4893 12.3184 30.4963 12.3176C30.5034 12.3167 30.5105 12.3182 30.5166 12.3217ZM30.3599 12.7584C30.447 12.8934 30.564 13.0066 30.7019 13.0892C30.7446 13.1218 30.7746 13.1683 30.7868 13.2206C30.799 13.2729 30.7926 13.3279 30.7687 13.376L30.6987 13.5225C30.6922 13.5417 30.6816 13.5592 30.6676 13.5737C30.6536 13.5883 30.6365 13.5996 30.6176 13.6068C30.5987 13.614 30.5784 13.6169 30.5583 13.6154C30.5381 13.6138 30.5185 13.6078 30.501 13.5978L30.3076 13.4785C30.2878 13.4658 30.2647 13.4591 30.2412 13.4591C30.2176 13.4591 30.1946 13.4658 30.1748 13.4785L29.9814 13.5979C29.9638 13.6079 29.9442 13.6139 29.9241 13.6154C29.9039 13.617 29.8836 13.614 29.8647 13.6068C29.8459 13.5996 29.8288 13.5883 29.8148 13.5737C29.8008 13.5592 29.7901 13.5417 29.7837 13.5225L29.7137 13.376C29.6897 13.3279 29.6833 13.2729 29.6955 13.2206C29.7077 13.1682 29.7377 13.1218 29.7805 13.0892C29.9183 13.0067 30.0353 12.8935 30.1224 12.7584C30.1336 12.7366 30.1507 12.7183 30.1716 12.7055C30.1926 12.6928 30.2167 12.686 30.2412 12.686C30.2658 12.6861 30.2898 12.6929 30.3108 12.7057C30.3317 12.7185 30.3487 12.7369 30.3599 12.7587V12.7584ZM29.9658 12.3217C29.9719 12.318 29.9791 12.3164 29.9862 12.3172C29.9933 12.318 30 12.3211 30.0052 12.326C30.0104 12.3309 30.0138 12.3374 30.015 12.3445C30.0162 12.3515 30.015 12.3588 30.0117 12.3651C29.934 12.5122 29.7684 12.7372 29.5084 12.6628C29.2291 13.5536 28.2133 13.1887 28.2894 12.3095C28.2336 12.38 28.1868 12.4573 28.1503 12.5395C28.0852 12.369 28.0874 12.1802 28.1566 12.0113C28.2257 11.8424 28.3565 11.7061 28.5224 11.6302C28.4596 11.5979 28.3876 11.5882 28.3186 11.6029C28.3619 11.5569 28.4149 11.521 28.4737 11.4978C28.5325 11.4746 28.5957 11.4648 28.6588 11.4689C28.7219 11.4731 28.7833 11.4911 28.8385 11.5217C28.8938 11.5524 28.9416 11.5949 28.9786 11.6462C29.3775 12.0087 29.5968 12.5407 29.9658 12.3217Z" fill="#AAAAAA"/>
<path d="M31.4809 15.0256C31.4747 15.0254 31.4685 15.0265 31.4627 15.0289C31.457 15.0314 31.4519 15.0351 31.4477 15.0397C31.2325 15.2829 31.1377 15.7358 31.2432 15.7289C31.6998 15.6937 31.7796 15.7184 31.7813 15.6428C31.784 15.5374 31.5809 15.0296 31.4809 15.0256Z" fill="#AAAAAA"/>
<path d="M29.8525 15.211C29.6777 15.4296 29.5259 15.9759 29.6525 15.9767C30.1325 15.9798 30.1703 15.9979 30.1656 15.9347C30.1332 15.5027 29.9314 15.1123 29.8525 15.211Z" fill="#AAAAAA"/>
<path d="M30.5762 15.1287C30.4008 15.3995 30.3151 15.9249 30.4262 15.9187C30.9435 15.8852 30.9333 15.9015 30.9547 15.876C30.9585 15.8717 30.9614 15.8666 30.9631 15.8611C30.9648 15.8556 30.9654 15.8498 30.9647 15.844C30.9186 15.466 30.6458 15.0213 30.5762 15.1287Z" fill="#AAAAAA"/>
<path d="M29.0558 15.1487C28.9075 15.3375 28.8097 15.5609 28.7717 15.7979C28.7747 15.8028 28.7787 15.807 28.7833 15.8104C28.788 15.8137 28.7933 15.816 28.7989 15.8172C29.2401 15.9042 29.2343 15.9215 29.2622 15.8985C29.3314 15.8415 29.1747 15.02 29.0558 15.1487Z" fill="#AAAAAA"/>
<path d="M31.4488 48.4447H28.8127V49.0957H31.4488V48.4447Z" fill="#B72525"/>
</svg>
