<svg width="51" height="47" viewBox="0 0 51 47" fill="none" xmlns="http://www.w3.org/2000/svg">
<path d="M48.5471 38.5549C47.4197 35.1728 43.631 34.5074 31.9136 31.1623V28.39H18.9764V31.1623C7.23131 34.5167 3.46105 35.182 2.34291 38.5549L1.41882 41.3272C2.50924 41.9833 12.5078 45.9476 25.445 45.9476C38.3822 45.9476 48.3808 42.0018 49.4712 41.3272L48.5471 38.5549Z" fill="#E6B790"/>
<path d="M48.5471 38.555C47.623 35.7827 44.8508 34.8586 38.3822 33.0105C37.8554 30.46 35.3142 28.3901 31.9136 27.1795V35.7827C31.9136 35.7827 30.0654 37.6309 25.445 39.4791C20.8246 37.6309 18.9764 35.7827 18.9764 35.7827V27.1795C15.5758 28.3901 13.0346 30.46 12.5078 33.0105C6.03924 34.8586 3.26699 35.7827 2.34291 38.555L1.41882 41.3272C2.50924 41.9833 12.5078 45.9476 25.445 45.9476C38.3822 45.9476 48.3808 42.0018 49.4712 41.3272L48.5471 38.555Z" fill="#EF9D52"/>
<path d="M49.4712 41.3272C48.9075 39.4236 46.7729 38.1484 44.8508 37.6309C42.1709 36.9009 38.3822 35.7827 38.3822 35.7827C37.4581 33.0105 33.7618 31.1623 31.9136 31.1623V35.7827C31.9136 35.7827 30.0654 37.6309 25.445 39.479C20.8246 37.6309 18.9764 35.7827 18.9764 35.7827V31.1623C17.1282 31.1623 13.4319 33.0105 12.5078 35.7827C12.5078 35.7827 8.71909 36.8916 6.03924 37.6309C4.11715 38.1484 1.98251 39.4236 1.41882 41.3272C9.04746 44.4267 17.2109 45.9966 25.445 45.9476C33.6791 45.9966 41.8425 44.4267 49.4712 41.3272Z" fill="#E2872B"/>
<path d="M31.7935 6.67407C32.5882 9.33544 28.9474 11.7565 25.4451 11.7565C21.9428 11.7565 18.2927 9.33544 19.1151 6.67407C20.0299 3.6246 21.9243 1.59161 25.4451 1.59161C28.9658 1.59161 30.8879 3.6246 31.7935 6.67407Z" fill="#AFBABC"/>
<path d="M30.8971 6.67405C31.5717 8.36512 28.4483 9.90834 25.445 9.90834C22.4417 9.90834 19.3091 8.36512 19.9929 6.67405C20.7691 4.73348 22.4325 3.43976 25.445 3.43976C28.4575 3.43976 30.1116 4.73348 30.8971 6.67405Z" fill="#A2A7AA"/>
<path d="M31.7935 6.67407C32.5882 9.33544 28.9474 11.7565 25.4451 11.7565C21.9428 11.7565 18.2927 9.33544 19.1151 6.67407C20.0299 3.6246 21.9243 1.59161 25.4451 1.59161C28.9658 1.59161 30.8879 3.6246 31.7935 6.67407Z" stroke="#333333" stroke-width="1.5" stroke-linejoin="round"/>
<path d="M12.5078 35.7827V34.4151C12.5078 29.9517 18.2926 26.3386 25.445 26.3386C32.5974 26.3386 38.3822 29.9332 38.3822 34.4151V35.7827" stroke="#333333" stroke-width="1.5" stroke-linecap="round" stroke-linejoin="round"/>
<path d="M25.3618 39.0632L25.75 38.9246L26.0826 38.7952L26.7202 38.5087C27.142 38.3203 27.5523 38.1074 27.9493 37.8711C28.7103 37.4127 29.4198 36.8736 30.0654 36.2632C30.7415 35.683 31.3604 35.0394 31.9136 34.3411C32.4617 33.5961 32.9381 32.8009 33.3367 31.9662C33.3842 31.8791 33.4606 31.8113 33.5528 31.7747C33.645 31.738 33.7472 31.7347 33.8415 31.7655C33.9359 31.7962 34.0165 31.8589 34.0695 31.9429C34.1224 32.0268 34.1443 32.1266 34.1314 32.225C33.9901 33.2552 33.6778 34.2547 33.2073 35.182C32.7538 36.1192 32.1121 36.9528 31.3222 37.6309C30.4898 38.3019 29.5534 38.8325 28.5499 39.2018C28.0606 39.3805 27.5606 39.5286 27.0529 39.6454C26.8034 39.7008 26.5539 39.7378 26.2952 39.7747H25.9163C25.8089 39.7879 25.7003 39.7879 25.5929 39.7747L25.251 39.553C25.1805 39.5059 25.1314 39.433 25.1141 39.3501C25.0968 39.2671 25.1128 39.1807 25.1585 39.1094C25.2188 39.0706 25.2907 39.0542 25.3618 39.0632Z" fill="#333333"/>
<path d="M13.7184 38.4071C14.2705 39.2089 14.8887 39.9631 15.5665 40.6619C16.2374 41.3692 16.9669 42.0184 17.7474 42.6025C18.4954 43.2166 19.2825 43.7815 20.1038 44.2935C20.9443 44.8071 21.8215 45.258 22.7282 45.6427C22.7666 45.6588 22.8015 45.6824 22.8307 45.7121C22.86 45.7418 22.883 45.7771 22.8985 45.8158C22.9139 45.8545 22.9216 45.8959 22.9209 45.9375C22.9202 45.9792 22.9113 46.0203 22.8945 46.0585C22.8648 46.124 22.8142 46.1777 22.7506 46.2111C22.687 46.2446 22.6141 46.2559 22.5434 46.2433C21.5112 46.0593 20.5057 45.7489 19.5494 45.3193C18.5783 44.906 17.67 44.3585 16.851 43.6929C16.0513 43.0075 15.3265 42.2393 14.6887 41.4011C14.0463 40.5696 13.5122 39.6598 13.0992 38.6936C13.0685 38.6151 13.0697 38.5276 13.1025 38.45C13.1353 38.3723 13.1971 38.3105 13.2748 38.2777C13.3411 38.2501 13.4149 38.2461 13.4838 38.2663C13.5528 38.2864 13.6127 38.3296 13.6537 38.3886L13.7184 38.4071Z" fill="#333333"/>
<path d="M12.5078 33.0104C6.03924 34.8586 3.26699 35.7827 2.34291 38.5549L1.41882 41.3272C2.50924 41.9833 12.5078 45.9476 25.445 45.9476" stroke="#333333" stroke-width="1.5" stroke-linejoin="round"/>
<path d="M38.3822 33.0104C44.8508 34.8586 47.6231 35.7827 48.5472 38.5549L49.4712 41.3272C48.3808 41.9833 38.3822 45.9476 25.4451 45.9476" stroke="#333333" stroke-width="1.5" stroke-linejoin="round"/>
<path d="M34.6858 17.375V15.4529C34.6858 10.2226 33.2535 5.28796 25.445 5.28796C17.6365 5.28796 16.2042 10.2133 16.2042 15.4529V17.3842C16.1302 17.3842 13.3857 17.0978 14.356 21.9307C14.7533 23.9267 15.7883 24.8139 16.2042 24.703C16.2042 28.1313 17.5256 28.732 20.8246 32.0956C22.0813 33.7035 23.7539 33.9438 25.445 33.9438C27.1361 33.9438 28.8087 33.722 30.0654 32.0956C33.3274 28.732 34.6858 28.1313 34.6858 24.703C35.1017 24.8139 36.1274 23.899 36.534 21.9307C37.4581 17.0885 34.7598 17.3473 34.6858 17.375Z" fill="#EFC8A5"/>
<path d="M37.0331 22.2079C38.0033 17.375 35.1849 17.3472 35.1017 17.375V15.4529C35.1017 10.2226 33.2536 4.83515 25.445 4.83515C24.5144 4.83235 23.5857 4.92212 22.6728 5.10313V15.2681C22.6511 15.5949 22.5486 15.9113 22.3744 16.1887C22.2002 16.4661 21.9598 16.6959 21.6748 16.8575C21.641 16.8791 21.6143 16.9102 21.5982 16.9469C21.582 16.9836 21.5771 17.0243 21.584 17.0638C21.5909 17.1034 21.6093 17.14 21.637 17.169C21.6647 17.1981 21.7003 17.2183 21.7395 17.2271C22.2532 17.3139 22.7409 17.515 23.1664 17.8158C23.5919 18.1165 23.9443 18.509 24.1975 18.9644H24.7058C24.9018 18.9644 25.0899 19.0423 25.2285 19.1809C25.3672 19.3196 25.445 19.5076 25.445 19.7037V20.5815C25.4571 20.8018 25.517 21.0169 25.6208 21.2116C25.7245 21.4063 25.8696 21.5761 26.0457 21.7089C26.1731 21.8348 26.2612 21.995 26.2992 22.17C26.3373 22.345 26.3237 22.5272 26.26 22.6946C26.1964 22.862 26.0855 23.0074 25.9408 23.1129C25.7961 23.2184 25.6239 23.2796 25.445 23.2891C24.7612 23.2891 24.521 22.8271 23.5969 22.8271C23.0517 22.8271 23.1348 23.5386 23.1164 23.5201C23.4385 23.5297 23.7544 23.6118 24.0404 23.7604C24.4629 23.9998 24.9409 24.1241 25.4266 24.1208V28.3069C25.4266 28.3069 27.2747 27.9188 27.2747 29.7577C27.2932 32.2989 22.6728 29.5082 22.6728 32.2712C22.676 32.7098 22.7038 33.1479 22.756 33.5834C23.6292 33.7753 24.5251 33.8438 25.4173 33.7867C27.1084 33.7867 28.6239 33.9345 29.8806 32.3266C33.1427 28.963 34.113 28.5287 34.113 25.1003C34.5565 25.2112 36.6357 24.1762 37.0331 22.2079Z" fill="#E6B790"/>
<path d="M18.1262 24.1392C17.6717 23.8126 17.31 23.3734 17.0767 22.8646C16.8434 22.3559 16.7465 21.7952 16.7956 21.2376C16.7956 18.3822 17.0451 18.1881 15.8253 17.3749C15.6589 17.3749 12.9514 17.4581 13.9032 22.2079C14.3005 24.2039 16.3797 25.2112 16.8048 25.1003C16.8048 28.0111 17.4979 28.7966 19.6972 30.9775V28.0019C19.7564 27.28 19.6451 26.5542 19.3722 25.8833C19.0994 25.2123 18.6725 24.6149 18.1262 24.1392Z" fill="#E6B790"/>
<path d="M35.1017 17.375V17.301C34.5288 17.5875 34.1776 18.0033 34.1776 18.3914V21.2838C34.2202 21.835 34.1191 22.3878 33.8843 22.8883C33.6494 23.3887 33.2888 23.8197 32.8377 24.1392C32.2931 24.6158 31.868 25.2136 31.5967 25.8846C31.3255 26.5555 31.2156 27.2808 31.276 28.0019V30.9497C33.4753 28.7412 34.1776 27.9834 34.1776 25.0726C34.5935 25.1835 36.6726 24.1485 37.07 22.1802C38.0033 17.375 35.1756 17.3472 35.1017 17.375Z" fill="#DDAD8A"/>
<path d="M34.6858 17.375V15.4529C34.6858 10.2226 33.2535 5.28796 25.445 5.28796C17.6365 5.28796 16.2042 10.2133 16.2042 15.4529V17.3842C16.1302 17.3842 13.3857 17.0978 14.356 21.9307C14.7533 23.9267 15.7883 24.8139 16.2042 24.703C16.2042 28.1313 17.5256 28.732 20.8246 32.0956C22.0813 33.7035 23.7539 33.9438 25.445 33.9438C27.1361 33.9438 28.8087 33.722 30.0654 32.0956C33.3274 28.732 34.6858 28.1313 34.6858 24.703C35.1017 24.8139 36.1274 23.899 36.534 21.9307C37.4581 17.0885 34.7598 17.3473 34.6858 17.375Z" stroke="#333333" stroke-width="1.5" stroke-linejoin="round"/>
<path d="M20.6121 20.9881C21.1224 20.9881 21.5362 20.7482 21.5362 20.4522C21.5362 20.1562 21.1224 19.9162 20.6121 19.9162C20.1017 19.9162 19.688 20.1562 19.688 20.4522C19.688 20.7482 20.1017 20.9881 20.6121 20.9881Z" fill="#333333"/>
<path d="M29.3446 20.9881C29.855 20.9881 30.2687 20.7482 30.2687 20.4522C30.2687 20.1562 29.855 19.9162 29.3446 19.9162C28.8343 19.9162 28.4205 20.1562 28.4205 20.4522C28.4205 20.7482 28.8343 20.9881 29.3446 20.9881Z" fill="#333333"/>
<path d="M17.96 18.373C18.9117 17.9776 19.9517 17.8436 20.9725 17.9849C21.4825 18.0681 21.9755 18.2335 22.4325 18.4746C22.885 18.7049 23.3072 18.9905 23.6893 19.3248C23.7263 19.3669 23.7468 19.4211 23.7468 19.4772C23.7468 19.5334 23.7263 19.5876 23.6893 19.6297C23.6586 19.6607 23.6197 19.6824 23.5772 19.6922C23.5347 19.702 23.4902 19.6996 23.449 19.6852C23.0284 19.475 22.5929 19.2959 22.1461 19.1492C21.7118 19.0198 21.222 18.9551 20.8154 18.8627C20.3719 18.7647 19.9202 18.7091 19.4662 18.6964C18.9934 18.68 18.52 18.7079 18.0524 18.7796C18.0244 18.7835 17.996 18.7817 17.9687 18.7745C17.9414 18.7673 17.9159 18.7547 17.8935 18.7375C17.8712 18.7203 17.8524 18.6988 17.8385 18.6743C17.8245 18.6498 17.8155 18.6228 17.8121 18.5947C17.8094 18.5468 17.8223 18.4992 17.849 18.4592C17.8757 18.4192 17.9146 18.3889 17.96 18.373Z" fill="#A1AEAF"/>
<path d="M32.7453 18.7796C32.2887 18.7225 31.8278 18.707 31.3684 18.7334C30.9145 18.746 30.4627 18.8017 30.0193 18.8997C29.5757 18.9921 29.0952 19.0568 28.6886 19.1862C28.2436 19.3195 27.8083 19.4831 27.3856 19.676C27.3328 19.6947 27.2748 19.6927 27.2234 19.6704C27.172 19.6481 27.1309 19.6072 27.1084 19.5558C27.0915 19.515 27.0878 19.4699 27.0977 19.4268C27.1077 19.3838 27.1308 19.3449 27.1639 19.3156C27.546 18.9813 27.9681 18.6957 28.4206 18.4654C28.8776 18.2243 29.3707 18.0589 29.8807 17.9756C30.9015 17.8344 31.9415 17.9684 32.8932 18.3638C32.9451 18.388 32.9856 18.4313 33.0062 18.4847C33.0269 18.5381 33.0261 18.5974 33.0041 18.6502C32.9848 18.6913 32.9528 18.7251 32.9129 18.7467C32.873 18.7684 32.8272 18.7766 32.7823 18.7703L32.7453 18.7796Z" fill="#A1AEAF"/>
<path d="M28.2173 11.1282C28.2173 11.2997 28.1491 11.4642 28.0278 11.5856C27.9065 11.7069 27.742 11.775 27.5704 11.775H23.3566C23.185 11.775 23.0205 11.7069 22.8992 11.5856C22.7779 11.4642 22.7097 11.2997 22.7097 11.1282C22.7097 10.9566 22.7779 10.7921 22.8992 10.6708C23.0205 10.5495 23.185 10.4813 23.3566 10.4813H27.5334C27.6211 10.4776 27.7087 10.4915 27.7909 10.5222C27.8731 10.553 27.9483 10.5999 28.0121 10.6602C28.0758 10.7205 28.1269 10.793 28.1621 10.8734C28.1973 10.9538 28.2161 11.0404 28.2173 11.1282Z" fill="#EFCB67"/>
<path d="M28.2173 13.3275C28.2173 13.499 28.1492 13.6636 28.0279 13.7849C27.9066 13.9062 27.742 13.9743 27.5705 13.9743H23.3751C23.2036 13.9743 23.039 13.9062 22.9177 13.7849C22.7964 13.6636 22.7283 13.499 22.7283 13.3275C22.7283 13.1559 22.7964 12.9914 22.9177 12.8701C23.039 12.7488 23.2036 12.6806 23.3751 12.6806H27.552C27.6382 12.6794 27.7237 12.6951 27.8038 12.727C27.8839 12.7588 27.9569 12.8062 28.0186 12.8662C28.0804 12.9263 28.1298 12.9979 28.1639 13.0771C28.198 13.1562 28.2161 13.2413 28.2173 13.3275Z" fill="#EFCB67"/>
<path d="M28.2173 15.6284C28.2173 15.8 28.1491 15.9645 28.0278 16.0858C27.9065 16.2071 27.742 16.2753 27.5704 16.2753H23.3566C23.185 16.2753 23.0205 16.2071 22.8992 16.0858C22.7779 15.9645 22.7097 15.8 22.7097 15.6284C22.7097 15.4569 22.7779 15.2923 22.8992 15.171C23.0205 15.0497 23.185 14.9816 23.3566 14.9816H27.5334C27.705 14.9816 27.8695 15.0497 27.9908 15.171C28.1121 15.2923 28.1803 15.4569 28.1803 15.6284H28.2173Z" fill="#EFCB67"/>
<path d="M26.369 13.9374C26.3083 14.1223 26.1907 14.2833 26.0331 14.3974C25.8754 14.5115 25.6858 14.5729 25.4912 14.5729C25.2965 14.5729 25.1069 14.5115 24.9493 14.3974C24.7916 14.2833 24.674 14.1223 24.6133 13.9374C24.6133 13.4476 25.0014 12.043 25.4912 12.043C25.9809 12.043 26.369 13.4476 26.369 13.9374Z" fill="#AF3323"/>
<path d="M16.2041 10.8325C16.2041 15.4529 17.1282 14.5288 17.1282 16.377C17.1282 18.8905 16.2041 18.2251 16.2041 20.2674C16.2041 20.2674 15.2801 18.2251 14.356 18.2251C14.356 16.8667 13.4319 16.5156 13.4319 14.4733C13.4319 13.2443 14.1157 11.8952 16.2041 10.8325Z" fill="#BAB9B6"/>
<path d="M16.5184 10.8325C16.6386 11.6272 16.731 12.4312 16.8973 13.1889C16.964 13.5482 17.0629 13.9008 17.193 14.2424C17.2669 14.3995 17.3409 14.5473 17.4333 14.7229C17.5552 14.9356 17.6514 15.162 17.7197 15.3975C17.8358 15.8597 17.8578 16.3405 17.7844 16.8113C17.745 17.2957 17.6361 17.7718 17.461 18.2252C17.2485 18.6964 16.9435 19.0199 16.8141 19.2786C16.6628 19.6063 16.5631 19.9554 16.5184 20.3136C16.5048 20.3956 16.4593 20.4689 16.3917 20.5174C16.3242 20.5659 16.2401 20.5857 16.158 20.5723C16.0883 20.5641 16.0235 20.532 15.9747 20.4815C15.9258 20.4309 15.896 20.3651 15.8901 20.2951C15.8172 19.8432 15.836 19.3812 15.9455 18.9367C16.0841 18.4285 16.3151 18.105 16.3706 17.8093C16.4421 17.4724 16.4701 17.1277 16.4537 16.7836C16.4469 16.4461 16.4161 16.1095 16.3613 15.7763C16.3207 15.6227 16.2713 15.4715 16.2135 15.3235C16.1239 15.1158 16.0468 14.9028 15.9825 14.6859C15.8651 14.2542 15.7939 13.8112 15.7699 13.3645C15.7333 12.5186 15.7735 11.6711 15.8901 10.8325C15.9016 10.7482 15.9459 10.6718 16.0133 10.6199C16.0808 10.568 16.166 10.5448 16.2504 10.5553C16.3182 10.5647 16.381 10.5959 16.4294 10.6443C16.4778 10.6927 16.509 10.7555 16.5184 10.8233V10.8325Z" fill="#A1AEAF"/>
<path d="M15.9177 20.3967C15.6815 20.0109 15.4125 19.6461 15.1138 19.3063C14.9801 19.1561 14.8315 19.0198 14.6702 18.8997C14.5224 18.7888 14.3745 18.7519 14.356 18.7796C14.3103 18.839 14.243 18.8781 14.1687 18.8885C14.0944 18.8989 14.019 18.8797 13.9587 18.835C13.8985 18.7867 13.8589 18.7174 13.8478 18.641L13.8016 18.2251C13.7715 17.9358 13.6902 17.6542 13.5613 17.3935C13.4319 17.107 13.2287 16.7743 13.0716 16.3955C12.9074 16.0071 12.8045 15.5956 12.7666 15.1757C12.7119 14.7585 12.7119 14.336 12.7666 13.9189C12.9562 13.0786 13.4095 12.3209 14.0603 11.7566C14.6482 11.2419 15.3245 10.838 16.0563 10.5645C16.1287 10.5418 16.2067 10.5452 16.2767 10.5741C16.3468 10.6031 16.4045 10.6557 16.4397 10.7228C16.4749 10.7899 16.4854 10.8673 16.4694 10.9414C16.4534 11.0155 16.4118 11.0816 16.3521 11.1282C15.7761 11.4949 15.2589 11.9467 14.8181 12.4681C14.4211 12.9352 14.1761 13.5122 14.1158 14.1222C14.1038 14.431 14.1193 14.7402 14.162 15.0463C14.1985 15.3588 14.2603 15.6678 14.3468 15.9704C14.43 16.2661 14.5778 16.5803 14.7164 16.9776C14.8634 17.3764 14.9294 17.8005 14.9105 18.2251L14.356 17.6614C14.7248 17.6926 15.0697 17.8568 15.3263 18.1235C15.5201 18.3178 15.6935 18.5315 15.8438 18.7611C16.1095 19.1948 16.3264 19.6566 16.4907 20.138C16.5175 20.2177 16.5123 20.3047 16.4761 20.3806C16.4398 20.4565 16.3755 20.5154 16.2966 20.5446C16.2295 20.5681 16.1563 20.568 16.0892 20.5445C16.022 20.521 15.9648 20.4754 15.927 20.4152L15.9177 20.3967Z" fill="#333333"/>
<path d="M34.6859 10.8324C34.6859 15.4528 33.7618 14.5287 33.7618 16.3769C33.7618 18.8904 34.6859 18.2251 34.6859 20.2673C34.6859 20.2673 35.61 18.2251 36.5341 18.2251C36.5341 16.8667 37.4582 16.5155 37.4582 14.4733C37.4582 13.2443 36.7744 11.8951 34.6859 10.8324Z" fill="#A1AEAF"/>
<path d="M35 10.8324C35.1195 11.6615 35.1597 12.5 35.1202 13.3367C35.0962 13.7834 35.025 14.2264 34.9076 14.6581C34.8429 14.8799 34.7598 15.1017 34.6858 15.2957C34.6255 15.4438 34.5731 15.5949 34.5287 15.7485C34.474 16.0817 34.4431 16.4183 34.4363 16.7558C34.4292 17.0996 34.457 17.4433 34.5195 17.7815C34.5749 18.0772 34.806 18.4006 34.9538 18.9089C35.0633 19.3534 35.0822 19.8154 35.0093 20.2673C34.9977 20.3523 34.9538 20.4296 34.8866 20.4829C34.8195 20.5363 34.7343 20.5617 34.6489 20.5538C34.58 20.5448 34.5159 20.5139 34.466 20.4656C34.416 20.4173 34.383 20.3543 34.3717 20.2858C34.3356 19.9259 34.2355 19.5754 34.0759 19.2508C33.8441 18.9213 33.6312 18.5788 33.4383 18.2251C33.2603 17.7882 33.1481 17.3273 33.1057 16.8574C33.0416 16.3861 33.0635 15.9071 33.1703 15.4436C33.2387 15.2081 33.3349 14.9817 33.4568 14.769C33.5585 14.5934 33.6231 14.4456 33.6971 14.2885C33.8303 13.9472 33.9324 13.5947 34.002 13.235C34.1591 12.4773 34.2515 11.6733 34.3717 10.8786C34.3853 10.796 34.4305 10.7218 34.4978 10.6719C34.565 10.6219 34.649 10.5999 34.732 10.6106C34.7936 10.6171 34.8519 10.6416 34.8995 10.681C34.9472 10.7205 34.9822 10.7732 35 10.8324Z" fill="#A1AEAF"/>
<path d="M34.3994 20.1379C34.5675 19.6581 34.7843 19.1967 35.0463 18.7611C35.197 18.5292 35.3737 18.3152 35.573 18.1234C35.8165 17.8647 36.144 17.7009 36.4971 17.6614L35.9427 18.2251C35.9175 17.7851 35.9836 17.3446 36.1367 16.9314C36.2753 16.534 36.4232 16.2198 36.5064 15.9241C36.5974 15.6227 36.6593 15.3133 36.6912 15C36.7184 14.6926 36.7184 14.3834 36.6912 14.076C36.6308 13.466 36.3858 12.8889 35.9889 12.4218C35.5513 11.9007 35.0372 11.4489 34.4641 11.0819C34.429 11.0587 34.3989 11.0287 34.3757 10.9936C34.3524 10.9585 34.3364 10.9191 34.3286 10.8778C34.3209 10.8364 34.3215 10.7939 34.3305 10.7528C34.3395 10.7116 34.3566 10.6727 34.381 10.6384C34.4193 10.5764 34.4786 10.5301 34.5481 10.5081C34.6176 10.4861 34.6928 10.4897 34.7598 10.5182C35.5214 10.7976 36.2235 11.2176 36.8298 11.7565C37.4669 12.3323 37.9039 13.0962 38.0773 13.9373C38.1366 14.3542 38.1366 14.7773 38.0773 15.1941C38.0504 15.5991 37.9632 15.9977 37.8186 16.3769C37.6615 16.7558 37.4674 17.0885 37.3288 17.3749C37.2028 17.6362 37.1245 17.9178 37.0978 18.2066L37.0423 18.6225C37.0389 18.6598 37.028 18.6961 37.0102 18.7291C36.9923 18.7621 36.968 18.7911 36.9386 18.8145C36.9093 18.8378 36.8755 18.8549 36.8393 18.8648C36.8031 18.8747 36.7653 18.8771 36.7281 18.872C36.6548 18.8642 36.5863 18.8316 36.5341 18.7795C36.5341 18.7795 36.3677 18.7795 36.2199 18.8997C36.0586 19.0198 35.91 19.156 35.7763 19.3063C35.4805 19.6484 35.2118 20.013 34.9724 20.3967C34.927 20.4665 34.8558 20.5154 34.7743 20.5328C34.6929 20.5501 34.6079 20.5344 34.5381 20.4891C34.4811 20.4525 34.4371 20.3989 34.4122 20.3358C34.3873 20.2728 34.3829 20.2036 34.3994 20.1379Z" fill="#333333"/>
<path d="M17.4794 32.7702C18.5296 34.154 19.7221 35.4239 21.0371 36.559C22.3349 37.6494 23.8319 38.4779 25.445 38.9986C27.0592 39.5683 28.7194 39.998 30.4073 40.283C32.1261 40.5695 33.8911 40.7266 35.6561 40.9022C35.7674 40.9138 35.8695 40.9689 35.9405 41.0554C36.0114 41.1419 36.0454 41.2528 36.035 41.3642C36.0283 41.4641 35.985 41.5579 35.9134 41.6278C35.8418 41.6977 35.7469 41.7388 35.6469 41.7431C33.8429 41.8973 32.0301 41.922 30.2225 41.817C28.366 41.7248 26.5326 41.3637 24.7797 40.7451C23.0086 40.0635 21.4001 39.0184 20.0576 37.6771C18.7715 36.3599 17.6794 34.8664 16.8141 33.2415C16.7646 33.1486 16.7513 33.0406 16.7769 32.9385C16.8024 32.8364 16.865 32.7473 16.9524 32.6887C17.0398 32.63 17.1459 32.6059 17.2501 32.621C17.3543 32.636 17.4492 32.6892 17.5164 32.7702H17.4794Z" fill="#333333"/>
<path d="M26.7017 26.3386C26.3339 26.3056 25.9631 26.3465 25.6113 26.4587C25.486 26.5047 25.3485 26.5047 25.2232 26.4587C24.8711 26.3477 24.5006 26.3068 24.1328 26.3386C23.5136 26.431 23.4489 26.8284 22.2014 27.5029L23.3011 28.1775C23.6439 28.4217 24.0538 28.5541 24.4747 28.5564H26.369C26.7899 28.5541 27.1998 28.4217 27.5426 28.1775L28.6792 27.5307C27.441 26.8468 27.2931 26.431 26.7017 26.3386Z" fill="#DDAB85"/>
<path d="M28.6885 27.5306C27.7644 27.5306 27.5334 27.1702 26.6185 27.1702C26.2209 27.1871 25.8253 27.2366 25.4357 27.3181C25.043 27.2368 24.6443 27.1874 24.2436 27.1702C23.3658 27.1702 23.1809 27.5029 22.2014 27.5029" stroke="#C6916D" stroke-width="0.81163" stroke-miterlimit="10" stroke-linecap="round"/>
<path d="M34.6858 21.9214C34.0899 23.3897 33.7764 24.9573 33.7617 26.5419C32.8158 27.5168 31.803 28.4246 30.7307 29.2587V27.5491C30.7258 27.1302 30.5955 26.7224 30.3567 26.3781C30.1179 26.0339 29.7815 25.7691 29.3908 25.6178L27.2931 24.7491C26.1362 24.2873 24.8461 24.2873 23.6892 24.7491L21.4991 25.6178C21.1041 25.7708 20.7646 26.0399 20.5255 26.3896C20.2863 26.7393 20.1586 27.1532 20.1592 27.5768V29.2864C19.0861 28.4434 18.0732 27.5263 17.1282 26.5419C17.1046 24.9583 16.7914 23.3923 16.2041 21.9214C16.2041 27.466 13.4319 31.1623 20.8246 36.7068C21.7486 39.479 23.5968 40.4031 25.445 41.3272C27.2931 40.4031 29.1413 39.479 30.0654 36.7068C37.4581 31.1623 34.6858 27.466 34.6858 21.9214ZM28.2172 30.2382C28.0527 30.2485 27.8887 30.2102 27.7458 30.128C27.6029 30.0459 27.4872 29.9235 27.4133 29.7762C27.3311 29.6338 27.2124 29.5159 27.0694 29.4347C26.9265 29.3534 26.7645 29.3118 26.6001 29.3141H24.2991C24.1332 29.3102 23.9692 29.351 23.8245 29.4323C23.6798 29.5136 23.5596 29.6324 23.4767 29.7762C23.4057 29.9259 23.2907 30.0504 23.147 30.133C23.0033 30.2156 22.8378 30.2523 22.6727 30.2382C22.2692 30.2579 21.866 30.1918 21.4899 30.0441V27.5491C21.4913 27.394 21.5385 27.2428 21.6257 27.1146C21.7128 26.9863 21.836 26.8867 21.9797 26.8283L24.1235 25.9874C24.9731 25.6546 25.9169 25.6546 26.7664 25.9874L28.9103 26.8283C29.054 26.8867 29.1771 26.9863 29.2643 27.1146C29.3514 27.2428 29.3987 27.394 29.4001 27.5491V30.0441C29.0239 30.1918 28.6208 30.2579 28.2172 30.2382Z" fill="#AFBABC"/>
<path d="M30.0654 36.7068C37.458 31.1623 34.6858 27.466 34.6858 21.9214C34.0898 23.3897 33.7763 24.9573 33.7617 26.5419C32.8157 27.5168 31.8029 28.4246 30.7307 29.2587V27.5491C30.7258 27.1302 30.5955 26.7224 30.3567 26.3781C30.1179 26.0339 29.7815 25.7691 29.3908 25.6178L27.2931 24.7491C26.7051 24.5162 26.0774 24.4001 25.4449 24.4072V25.7287C25.8973 25.7359 26.3447 25.8235 26.7664 25.9874L28.9103 26.8283C29.0539 26.8867 29.1771 26.9863 29.2643 27.1146C29.3514 27.2428 29.3987 27.394 29.4 27.5491V30.0441C29.0239 30.1918 28.6208 30.2579 28.2172 30.2382C28.0527 30.2485 27.8887 30.2102 27.7458 30.128C27.6028 30.0459 27.4872 29.9235 27.4132 29.7762C27.3311 29.6338 27.2124 29.5159 27.0694 29.4347C26.9265 29.3534 26.7644 29.3118 26.6001 29.3141H25.4449V30.423C25.4467 30.87 25.5998 31.3032 25.8793 31.652C26.6771 32.5449 27.172 33.6674 27.2931 34.8586C27.2583 37.1401 26.6207 39.3717 25.4449 41.3272C27.3393 40.4031 29.1413 39.479 30.0654 36.7068Z" fill="#A1AEAF"/>
<path d="M16.4907 21.9214C16.4946 23.3234 16.4144 24.7244 16.2504 26.1168C16.072 27.4441 16.1032 28.7912 16.3428 30.1088C16.6765 31.3799 17.3103 32.5525 18.191 33.5279C19.0907 34.5253 20.0944 35.4237 21.185 36.2078C21.2822 36.2865 21.3584 36.3881 21.4068 36.5035C21.7313 37.4734 22.2974 38.3448 23.0517 39.0355C23.8769 39.7047 24.7835 40.2667 25.75 40.7081L25.445 40.6341L25.1309 40.7081C26.1021 40.2771 27.0074 39.7108 27.8199 39.0262C28.5606 38.3276 29.119 37.4583 29.4463 36.4942C29.4902 36.3688 29.5707 36.2593 29.6774 36.18C30.7637 35.3941 31.7669 34.4993 32.6714 33.5094C33.5495 32.5393 34.1831 31.3734 34.5196 30.1088C34.7669 28.7922 34.8013 27.4443 34.6212 26.1168C34.4495 24.725 34.3662 23.3237 34.3717 21.9214C34.3717 21.8381 34.4048 21.7582 34.4637 21.6993C34.5226 21.6403 34.6026 21.6072 34.6859 21.6072C34.7692 21.6072 34.8491 21.6403 34.9081 21.6993C34.967 21.7582 35.0001 21.8381 35.0001 21.9214C35.0779 23.2966 35.2322 24.6663 35.4621 26.0244C35.6934 27.4473 35.6934 28.8984 35.4621 30.3213C35.1462 31.7686 34.487 33.1188 33.54 34.2579C32.616 35.3599 31.5714 36.3549 30.4259 37.2243L30.6476 36.9101C30.2907 38.1039 29.6282 39.1837 28.7255 40.0427C27.821 40.8181 26.8095 41.4592 25.7223 41.9463C25.6239 41.9927 25.5168 42.0179 25.4081 42.0203C25.2991 42.02 25.1916 41.9947 25.0939 41.9463C24.0103 41.4563 23.0071 40.8051 22.1183 40.015C21.2323 39.1517 20.5749 38.0815 20.2055 36.9008L20.418 37.1965C19.2769 36.3254 18.2328 35.334 17.3039 34.2395C16.355 33.1061 15.6898 31.763 15.3633 30.3213C15.1227 28.8991 15.1227 27.4466 15.3633 26.0244C15.6103 24.6677 15.7769 23.2977 15.8623 21.9214C15.8647 21.8373 15.8998 21.7574 15.9602 21.6987C16.0206 21.64 16.1015 21.6072 16.1857 21.6072C16.2667 21.6118 16.343 21.6467 16.3995 21.7049C16.4559 21.7631 16.4885 21.8404 16.4907 21.9214Z" fill="#333333"/>
<path d="M29.3539 31.5689C29.9466 32.4151 30.3385 33.3853 30.4997 34.4058C30.6342 35.461 30.4842 36.5329 30.0654 37.5107C29.6013 38.4531 28.9758 39.3069 28.2172 40.0335C27.4943 40.7526 26.6804 41.3739 25.7961 41.8817C25.6969 41.9358 25.5857 41.9643 25.4727 41.9643C25.3597 41.9643 25.2485 41.9358 25.1493 41.8817C24.2528 41.384 23.4315 40.7617 22.7097 40.0335C21.9696 39.2965 21.3631 38.4367 20.917 37.4923C20.4856 36.5179 20.3228 35.4458 20.4457 34.3873C20.6018 33.3639 20.9976 32.3918 21.6008 31.5504C21.6216 31.5154 21.6493 31.4849 21.6821 31.4608C21.7149 31.4366 21.7522 31.4193 21.7919 31.4099C21.8315 31.4004 21.8726 31.3989 21.9128 31.4056C21.953 31.4123 21.9914 31.427 22.0259 31.4488C22.0893 31.4904 22.1361 31.553 22.1581 31.6256C22.1801 31.6983 22.1758 31.7763 22.146 31.8461C21.7016 32.6417 21.4367 33.5248 21.3698 34.4335C21.3286 35.3149 21.53 36.1907 21.9519 36.9655C22.3822 37.7635 22.9375 38.4873 23.5968 39.1094C24.2699 39.7149 25.0003 40.2534 25.7776 40.7173H25.1215C25.915 40.272 26.6558 39.7388 27.3301 39.1279C27.9983 38.521 28.5632 37.8094 29.0027 37.021C29.4203 36.2445 29.6214 35.3699 29.5849 34.489C29.5206 33.5797 29.2555 32.696 28.8086 31.9016C28.7737 31.8267 28.7696 31.7411 28.7973 31.6633C28.8249 31.5855 28.8821 31.5217 28.9565 31.4857C29.0223 31.4521 29.0976 31.4421 29.1698 31.4572C29.2421 31.4723 29.3071 31.5117 29.3539 31.5689Z" fill="#333333"/>
<path d="M23.1071 23.899C23.5112 23.8961 23.9092 23.9979 24.2622 24.1947V24.1947C24.6173 24.3856 25.0141 24.4855 25.4173 24.4855C25.8204 24.4855 26.2173 24.3856 26.5724 24.1947C26.9254 23.9979 27.3234 23.8961 27.7275 23.899" stroke="#C6916D" stroke-width="0.81163" stroke-miterlimit="10" stroke-linecap="round"/>
</svg>
