<svg width="41" height="49" viewBox="0 0 41 49" fill="none" xmlns="http://www.w3.org/2000/svg">
<path fill-rule="evenodd" clip-rule="evenodd" d="M22.5429 0C32.7362 0 41 8.3282 41 18.6014C41 28.3984 36.0196 27.549 36.7869 40.062C28.5154 39.9811 18.91 49 18.91 49C17.3979 41.7524 14.6411 42.5581 10.8161 43.1218C7.27297 43.6441 4.89242 43.6915 4.7147 40.3998C4.56253 37.5761 3.97884 32.2268 1.74452 31.0833C-1.32314 29.5132 0.588423 27.298 0.588423 27.298C2.95411 24.7103 3.51284 22.8257 3.38266 21.43C2.41499 11.0789 10.4363 0 22.5429 0ZM21.7191 14.4981C25.3146 14.4981 28.2301 17.4357 28.2301 21.0604C28.2301 24.4395 26.3559 24.5605 25.3342 27.936H18.1034C17.0816 24.5611 15.2075 24.4395 15.2075 21.0604C15.2075 17.4357 18.123 14.4981 21.7191 14.4981ZM25.0221 29.2227C24.8967 29.8864 24.8004 30.6496 24.744 31.5391H18.6936C18.6372 30.6496 18.5403 29.8864 18.4155 29.2227H25.0221ZM24.6928 32.8252C24.6893 33.0265 24.6875 33.2325 24.6875 33.4452C24.6875 35.0901 23.3519 36.4361 21.7191 36.4361H21.7185C20.0857 36.4361 18.7501 35.0901 18.7501 33.4452C18.7501 33.2325 18.7483 33.0265 18.7447 32.8252H24.6928ZM22.534 10.432V12.4213C22.534 13.5079 20.9036 13.5079 20.9036 12.4213V10.432C20.9036 9.34474 22.534 9.34474 22.534 10.432ZM15.0244 12.8862L16.4201 14.2927C17.1827 15.0612 16.0296 16.2233 15.267 15.4548L13.8713 14.0483C13.1087 13.2797 14.2618 12.1176 15.0244 12.8862ZM11.4361 19.9732H13.4101C14.4883 19.9732 14.4883 21.6163 13.4101 21.6163H11.4361C10.3573 21.6163 10.3573 19.9732 11.4361 19.9732ZM32.0021 21.6163H30.0275C28.9493 21.6163 28.9493 19.9732 30.0275 19.9732H32.0021C33.0803 19.9732 33.0803 21.6163 32.0021 21.6163ZM29.5669 14.0483L28.1706 15.4548C27.408 16.2233 26.2549 15.0612 27.0175 14.2927L28.4137 12.8862C29.1763 12.1176 30.3289 13.2791 29.5669 14.0483Z" fill="#4B4B4B"/>
</svg>
