<svg width="51" height="50" viewBox="0 0 51 50" fill="none" xmlns="http://www.w3.org/2000/svg">
<path d="M44.2301 36.3C44.0458 35.9037 43.9504 35.472 43.9504 35.035C43.9504 34.598 44.0458 34.1663 44.2301 33.77L44.3901 33.42C44.6235 32.904 44.706 32.3324 44.6281 31.7714C44.5503 31.2105 44.3152 30.683 43.9501 30.25L43.6901 29.94C43.3425 29.5448 43.105 29.0651 43.0014 28.549C42.8979 28.033 42.9319 27.4987 43.1001 27L43.5301 25.69C43.7114 25.1449 43.7323 24.5593 43.5905 24.0027C43.4487 23.4461 43.1501 22.9419 42.7301 22.55L41.4701 21.36C41.1065 21.0207 40.833 20.5962 40.6741 20.1249C40.5153 19.6536 40.4761 19.1502 40.5601 18.66L40.9201 16.48C41.0096 15.9567 40.9587 15.419 40.7725 14.9218C40.5862 14.4246 40.2714 13.9857 39.8601 13.65L38.0501 12.2C37.6399 11.8645 37.3259 11.4263 37.1401 10.93L36.0001 8C35.7669 7.3724 35.3304 6.84086 34.7601 6.49L31.3601 4.39C30.761 4.02571 30.0552 3.87749 29.3601 3.97L26.7501 4.36C26.2691 4.42986 25.7784 4.38182 25.3201 4.22L23.9001 3.73C23.3879 3.55816 22.8387 3.52784 22.3107 3.64225C21.7826 3.75666 21.2953 4.01155 20.9001 4.38L20.0401 5.19C19.7158 5.49175 19.3304 5.72025 18.9101 5.86L16.6101 6.61C16.2043 6.74253 15.8309 6.95876 15.5139 7.24471C15.197 7.53065 14.9436 7.87995 14.7701 8.27L14.3601 9.27C14.1704 9.69213 13.8905 10.0676 13.5401 10.37L11.5901 12.01C11.2118 12.326 10.9171 12.7304 10.7322 13.1874C10.5474 13.6443 10.4779 14.1398 10.5301 14.63L10.6001 15.31C10.649 15.7646 10.5933 16.2244 10.4374 16.6542C10.2814 17.0841 10.0292 17.4726 9.70011 17.79L8.21011 19.23C7.84908 19.5784 7.58119 20.0117 7.43095 20.4904C7.28071 20.9691 7.25291 21.4778 7.35011 21.97L7.97011 25.19C8.04894 25.5948 8.04345 26.0116 7.95398 26.4142C7.86451 26.8168 7.69298 27.1967 7.45011 27.53L6.69011 28.53C6.33136 29.025 6.13242 29.6178 6.11991 30.229C6.1074 30.8403 6.28192 31.4407 6.62011 31.95C6.93643 32.4366 7.1048 33.0046 7.1048 33.585C7.1048 34.1654 6.93643 34.7334 6.62011 35.22L6.11011 36.56C6.87011 40.46 11.6201 46.12 24.2701 47.1C24.5601 47 38.4101 47.07 44.2301 36.3Z" fill="#3A3A3A"/>
<path d="M16.3398 24.7C16.4102 24.9688 16.4102 25.2512 16.3398 25.52C16.2784 25.7743 16.1772 26.0173 16.0398 26.24C15.8256 26.5626 15.6286 26.8964 15.4498 27.24C15.3836 27.4856 15.3836 27.7444 15.4498 27.99C15.5015 28.254 15.6343 28.4952 15.8298 28.68C16.2206 29.0074 16.5433 29.4083 16.7798 29.86C16.8883 30.1313 16.9524 30.4183 16.9698 30.71C16.9936 30.9985 16.97 31.2891 16.8998 31.57C16.7229 32.1286 16.35 32.6045 15.8498 32.91C15.5777 33.0512 15.3416 33.253 15.1598 33.5C15.0704 33.7454 15.0704 34.0145 15.1598 34.26C15.2686 34.5878 15.442 34.8904 15.6698 35.15C15.9673 35.5038 16.2193 35.8935 16.4198 36.31C16.5308 36.5377 16.6082 36.7802 16.6498 37.03C16.6756 37.1519 16.6923 37.2756 16.6998 37.4C16.7153 37.5429 16.7153 37.6871 16.6998 37.83C16.577 38.3545 16.2723 38.8186 15.8398 39.14C15.5785 39.344 15.3751 39.613 15.2498 39.92C15.0898 40.43 15.5498 41.21 16.0398 41.81L15.5298 42.27C15.2188 41.9667 14.9406 41.6315 14.6998 41.27C14.4078 40.8317 14.2869 40.3015 14.3598 39.78C14.4874 39.2879 14.7549 38.8433 15.1298 38.5C15.4298 38.19 15.6398 37.91 15.6198 37.75C15.6195 37.6013 15.5993 37.4533 15.5598 37.31C15.5288 37.1452 15.4714 36.9865 15.3898 36.84C15.209 36.5162 14.9871 36.2171 14.7298 35.95C14.3972 35.5814 14.1361 35.1541 13.9598 34.69C13.8777 34.4307 13.8306 34.1617 13.8198 33.89C13.8061 33.5809 13.8643 33.2728 13.9898 32.99C14.2159 32.5059 14.5639 32.0889 14.9998 31.78C15.3298 31.54 15.4598 31.38 15.4798 31.21C15.5002 31.0808 15.5002 30.9492 15.4798 30.82C15.4702 30.6958 15.4398 30.5741 15.3898 30.46C15.3098 30.26 15.1098 30.1 14.7298 29.74C14.3352 29.3369 14.0794 28.8184 13.9998 28.26V27.87C13.9849 27.717 13.9849 27.5629 13.9998 27.41C14.0517 27.1105 14.164 26.8247 14.3298 26.57C14.9498 25.64 15.6698 25.42 15.7298 24.8L16.3398 24.7Z" fill="#333333"/>
<path d="M12.6099 29.72C12.6502 30.1314 12.54 30.5435 12.2999 30.88C12.0931 31.1509 11.8728 31.4112 11.6399 31.66C11.4648 31.8153 11.325 32.0062 11.2299 32.22C11.1761 32.3947 11.1524 32.5773 11.1599 32.76C11.1599 33.22 11.2599 33.37 11.7399 34C11.9917 34.3607 12.1435 34.7816 12.1799 35.22C12.2027 35.6445 12.1415 36.0692 11.9999 36.47C11.8151 36.8945 11.4952 37.2461 11.0899 37.47C10.7399 37.67 10.4399 37.78 10.2299 37.89C10.0654 37.9563 9.92802 38.0761 9.83987 38.23C9.75646 38.4118 9.71542 38.6101 9.71987 38.81C9.78423 39.3493 9.95776 39.8699 10.2299 40.34C10.5328 40.9856 10.617 41.7123 10.4699 42.41L9.78988 42.32C9.80661 41.7751 9.64896 41.2391 9.33987 40.79C8.9091 40.2373 8.61757 39.589 8.48987 38.9C8.42769 38.4798 8.48306 38.0506 8.64987 37.66C8.83778 37.2375 9.15689 36.8868 9.55987 36.66C9.87987 36.47 10.1699 36.35 10.3499 36.23C10.4905 36.1554 10.5977 36.0304 10.6499 35.88C10.7029 35.6881 10.7198 35.4881 10.6999 35.29C10.6802 35.1082 10.611 34.9352 10.4999 34.79C10.2837 34.523 10.0897 34.2387 9.91987 33.94C9.73155 33.5505 9.63572 33.1227 9.63987 32.69C9.64543 32.2705 9.7703 31.8612 9.99987 31.51C10.2206 31.1887 10.4986 30.9108 10.8199 30.69C11.3899 30.31 11.8199 30.14 11.9299 29.69L12.6099 29.72Z" fill="#333333"/>
<path d="M10.45 21.08C10.6398 20.662 10.9542 20.3127 11.35 20.08C11.6624 19.9349 11.9548 19.75 12.2199 19.53C12.3983 19.3092 12.5084 19.0412 12.5368 18.7588C12.5652 18.4764 12.5107 18.1919 12.3799 17.94C12.241 17.53 12.1602 17.1025 12.1399 16.67C12.1326 16.1072 12.3483 15.5643 12.74 15.16C13.1013 14.8384 13.5328 14.6056 14 14.48C14.2414 14.4094 14.4591 14.2746 14.6299 14.09C14.7823 13.9208 14.886 13.7134 14.93 13.49C14.93 13.25 14.9299 12.9 14.9799 12.42C15.023 11.8989 15.2316 11.4053 15.5752 11.0113C15.9189 10.6172 16.3796 10.3435 16.8899 10.23C17.7799 10.04 18.53 10.13 19.17 9.97999C19.4871 9.91204 19.7876 9.78153 20.0537 9.59609C20.3199 9.41065 20.5463 9.174 20.7199 8.89999L21.32 9.21999C21.1469 9.62387 20.8897 9.9862 20.5655 10.2828C20.2413 10.5794 19.8576 10.8034 19.44 10.94C18.62 11.21 17.8099 11.21 17.2299 11.43C16.9975 11.4969 16.793 11.6374 16.6469 11.8302C16.5009 12.0231 16.4213 12.2581 16.42 12.5C16.4567 12.9025 16.4567 13.3075 16.42 13.71C16.3466 14.2417 16.1048 14.7359 15.7299 15.12C15.3778 15.4919 14.9268 15.7556 14.43 15.88C14.1619 15.9212 13.904 16.0129 13.67 16.15C13.5927 16.2181 13.5299 16.3009 13.4853 16.3937C13.4406 16.4864 13.415 16.5872 13.41 16.69C13.4161 17.0271 13.4597 17.3625 13.54 17.69C13.6523 18.1171 13.6829 18.5616 13.6299 19C13.5278 19.4972 13.2599 19.945 12.87 20.27C12.5191 20.4972 12.1389 20.6755 11.74 20.8C11.4552 20.9218 11.2145 21.1276 11.0499 21.39L10.45 21.08Z" fill="#333333"/>
<path d="M6.52992 40.5C6.41696 40.1272 6.26967 39.7656 6.08992 39.42C5.89331 39.0297 5.72618 38.6252 5.58992 38.21C5.44428 37.7572 5.40014 37.2778 5.46063 36.806C5.52112 36.3342 5.68476 35.8814 5.93992 35.48C6.38145 34.9718 6.62954 34.3241 6.64052 33.6509C6.65149 32.9778 6.42465 32.3223 5.99992 31.8C5.59946 31.0294 5.50997 30.1346 5.74992 29.3C6.02835 28.5697 6.43095 27.8931 6.93992 27.3C7.33177 26.8126 7.5215 26.1933 7.46992 25.57C7.38992 24.94 7.17992 24.17 7.02992 23.46C6.82859 22.6964 6.72774 21.9097 6.72992 21.12C6.73256 20.6666 6.8243 20.218 6.99992 19.8C7.19133 19.4031 7.44826 19.0414 7.75992 18.73C8.52992 17.86 9.38992 17.32 9.75992 16.57C9.93352 16.2266 10.0162 15.8444 9.99992 15.46C9.89556 14.9064 9.86863 14.341 9.91992 13.78C9.98985 13.1534 10.2245 12.5565 10.5999 12.05C10.7865 11.8088 10.9977 11.5876 11.2299 11.39L11.8199 10.89C12.5999 10.2 13.4899 9.60999 13.7399 8.88999V8.83999C13.7999 8.72999 13.9299 8.34999 14.0599 8.05999C14.2071 7.73 14.3917 7.41797 14.6099 7.12999C15.0725 6.53494 15.7085 6.09818 16.4299 5.87999L18.1699 5.30999C18.4499 5.20999 18.7199 5.10999 18.9399 5.00999C19.146 4.91034 19.335 4.77871 19.4999 4.61999L19.5699 4.55999L20.0099 4.11999C20.2042 3.93316 20.4078 3.75627 20.6199 3.58999C21.0834 3.23028 21.6189 2.97449 22.1899 2.83999C22.791 2.71381 23.4144 2.74481 23.9999 2.92999C24.5199 3.08999 24.9399 3.25999 25.3699 3.39999C25.7268 3.53758 26.1076 3.60219 26.4899 3.58999C26.8499 3.58999 27.3799 3.45999 27.8299 3.37999C28.8777 3.12237 29.9722 3.12237 31.0199 3.37999C31.3041 3.47397 31.576 3.60154 31.8299 3.75999L32.4399 4.12999L33.6599 4.86999C34.0699 5.11999 34.4799 5.36999 34.8899 5.64999C35.3545 5.92297 35.7786 6.25956 36.1499 6.64999C36.4928 7.09567 36.7504 7.6008 36.9099 8.13999L37.3899 9.48999C37.5499 9.93999 37.6999 10.39 37.8799 10.77C38.018 11.1196 38.2415 11.429 38.5299 11.67C39.0599 12.2 39.8699 12.67 40.5299 13.41C40.901 13.7984 41.1901 14.2575 41.3799 14.76C41.5593 15.2802 41.6074 15.8367 41.5199 16.38C41.3899 17.33 41.1399 18.17 41.0999 18.96C41.0495 19.3372 41.0934 19.721 41.2278 20.077C41.3622 20.4331 41.5828 20.7502 41.8699 21C42.4875 21.5389 43.0564 22.1312 43.5699 22.77C43.8418 23.159 44.0354 23.5971 44.1399 24.06C44.2451 24.5309 44.2451 25.0191 44.1399 25.49C43.8796 26.231 43.6593 26.9854 43.4799 27.75C43.4226 28.0761 43.4395 28.4109 43.5296 28.7294C43.6196 29.048 43.7804 29.3422 43.9999 29.59V29.65C43.9999 29.58 43.9999 29.65 43.9999 29.65L44.0699 29.72L44.1899 29.88C44.2799 29.99 44.3499 30.1 44.4299 30.21C44.5756 30.4398 44.6963 30.6845 44.7899 30.94C44.9879 31.466 45.0531 32.0327 44.9799 32.59C44.8998 33.0758 44.7587 33.5495 44.5599 34C44.3969 34.382 44.3184 34.7948 44.3299 35.21C44.4238 35.6472 44.5646 36.073 44.7499 36.48C44.9186 36.9992 44.9598 37.5515 44.8699 38.09C44.791 38.63 44.5663 39.1382 44.2199 39.56C43.8999 39.97 43.5399 40.29 43.2799 40.64C43.2269 40.7143 43.1465 40.7644 43.0565 40.7794C42.9665 40.7944 42.8742 40.773 42.7999 40.72C42.7257 40.667 42.6755 40.5866 42.6605 40.4966C42.6455 40.4065 42.6669 40.3143 42.7199 40.24C43.0299 39.81 43.3899 39.47 43.6399 39.12C43.8963 38.7968 44.0589 38.4094 44.1099 38C44.1661 37.5902 44.1285 37.1731 43.9999 36.78C43.7693 36.3237 43.5979 35.8398 43.4899 35.34C43.3399 34.17 44.0799 33.19 44.1399 32.47C44.1983 32.0679 44.15 31.6576 43.9999 31.28C43.9253 31.0859 43.8279 30.9013 43.7099 30.73C43.7099 30.65 43.5899 30.56 43.5299 30.48L43.2599 30.17C42.9536 29.819 42.7192 29.4113 42.5699 28.97C42.4315 28.5136 42.3906 28.0332 42.4499 27.56C42.6151 26.7643 42.8288 25.9795 43.0899 25.21C43.1608 24.892 43.1608 24.5623 43.0899 24.2443C43.0191 23.9263 42.8791 23.6278 42.6799 23.37C42.1609 22.7952 41.5994 22.2603 40.9999 21.77V21.82C40.597 21.4595 40.2822 21.0113 40.0799 20.51C39.9263 20.0224 39.8719 19.509 39.9199 19C39.9199 18 40.2099 17.12 40.2999 16.31C40.3452 15.9627 40.3061 15.6096 40.186 15.2806C40.0659 14.9516 39.8683 14.6564 39.6099 14.42C39.0799 13.86 38.3199 13.42 37.6099 12.73C37.1726 12.3551 36.83 11.8823 36.6099 11.35C36.3899 10.87 36.2199 10.42 36.0499 9.96999L35.5499 8.62999C35.4324 8.25231 35.246 7.89969 34.9999 7.58999C34.3376 7.01739 33.613 6.52095 32.8399 6.10999L31.6099 5.36999L30.9999 4.99999C30.8489 4.90848 30.6878 4.83466 30.5199 4.77999C29.7007 4.61827 28.8552 4.64908 28.0499 4.86999C27.5499 4.94999 27.1499 5.03999 26.5499 5.09999C25.9774 5.12444 25.4059 5.03259 24.8699 4.82999C24.3999 4.67999 23.9199 4.48999 23.5299 4.37999C23.2067 4.2776 22.8631 4.25698 22.5299 4.31999C22.1657 4.40011 21.824 4.5607 21.5299 4.78999C21.3627 4.91437 21.2024 5.04791 21.0499 5.18999C20.8699 5.34999 20.7599 5.48999 20.4599 5.73999L20.5199 5.68999C20.2407 5.95166 19.9196 6.16462 19.5699 6.31999C19.2632 6.45365 18.9494 6.57049 18.6299 6.66999L16.8799 7.21999C16.4171 7.34368 16.0066 7.6138 15.7099 7.98999C15.5525 8.18536 15.4214 8.40053 15.3199 8.62999C15.1994 8.94036 15.0626 9.24412 14.9099 9.53999L14.9599 9.45999C14.7025 10.0199 14.3192 10.5127 13.8399 10.9C13.4299 11.25 13.0299 11.57 12.6299 11.9L12.0399 12.39C11.8756 12.5212 11.7248 12.6686 11.5899 12.83C11.3478 13.1556 11.1928 13.5377 11.1399 13.94C11.0922 14.4071 11.1124 14.8787 11.1999 15.34C11.2475 15.9747 11.1122 16.6098 10.8099 17.17C10.1913 18.0529 9.4582 18.8499 8.62992 19.54C8.40816 19.7434 8.22866 19.9885 8.10168 20.2613C7.97471 20.5342 7.90275 20.8293 7.88992 21.13C7.88922 21.8039 7.9698 22.4754 8.12992 23.13C8.27992 23.87 8.45992 24.53 8.55992 25.38C8.61876 26.2456 8.35118 27.1019 7.80992 27.78C7.35829 28.2978 6.99357 28.8855 6.72992 29.52C6.54976 30.1164 6.59972 30.7586 6.86992 31.32C7.06553 31.6413 7.23926 31.9754 7.38992 32.32C7.53342 32.7203 7.59464 33.1455 7.56992 33.57C7.56123 33.9937 7.4695 34.4116 7.29992 34.8C7.1359 35.1495 6.94183 35.4841 6.71992 35.8C6.48029 36.107 6.31795 36.4671 6.2466 36.85C6.17524 37.2329 6.19696 37.6273 6.30992 38C6.42259 38.3812 6.56641 38.7524 6.73992 39.11C6.92957 39.5158 7.08349 39.9374 7.19992 40.37C7.22473 40.4562 7.21448 40.5487 7.1714 40.6273C7.12833 40.706 7.05591 40.7645 6.96992 40.79C6.88515 40.8104 6.79584 40.7994 6.71859 40.7589C6.64135 40.7184 6.58141 40.6513 6.54992 40.57L6.52992 40.5Z" fill="#333333"/>
<path d="M9.76001 28.55C10.2665 28.492 10.7439 28.283 11.13 27.95C11.5 27.59 11.48 27.33 11.55 26.6C11.6024 26.2445 11.7284 25.9039 11.92 25.6C12.1169 25.275 12.3875 25.0009 12.71 24.8C13.36 24.43 13.71 24.33 13.81 23.97C13.8939 23.7723 13.9371 23.5597 13.9371 23.345C13.9371 23.1302 13.8939 22.9177 13.81 22.72C13.7161 22.4118 13.6426 22.0978 13.59 21.78C13.5284 21.3672 13.5803 20.9455 13.74 20.56C13.9119 20.1399 14.2178 19.7884 14.61 19.56C14.902 19.4078 15.2065 19.2807 15.52 19.18C15.702 19.1256 15.8672 19.0258 16 18.89C16.1281 18.7666 16.2271 18.6163 16.29 18.45C16.44 18.17 16.29 17.71 16.39 16.9C16.4415 16.4941 16.5939 16.1075 16.8332 15.7757C17.0725 15.4438 17.3912 15.1771 17.76 15C18.3956 14.7495 19.078 14.6404 19.76 14.68C20.3141 14.6963 20.8686 14.6762 21.42 14.62C21.9332 14.5626 22.4297 14.4027 22.88 14.15C23.3299 13.8856 23.7321 13.5476 24.07 13.15C24.7489 12.3273 25.0823 11.2734 25 10.21L25.68 10.08C25.7879 10.7115 25.7701 11.3581 25.6277 11.9827C25.4852 12.6073 25.221 13.1977 24.85 13.72C24.4528 14.2279 23.9686 14.6613 23.42 15C22.8743 15.3622 22.2627 15.6136 21.62 15.74C20.39 16.01 19.07 15.86 18.37 16.23C18.2181 16.3111 18.0885 16.4283 17.9926 16.5713C17.8967 16.7143 17.8374 16.8787 17.82 17.05C17.8878 17.7032 17.8404 18.3632 17.68 19C17.5328 19.3809 17.3002 19.723 17 20C16.7113 20.2663 16.3709 20.4705 16 20.6C15.7555 20.6658 15.5151 20.7459 15.28 20.84C15.1554 20.904 15.054 21.0054 14.99 21.13C14.8799 21.5476 14.908 21.9896 15.07 22.39C15.1516 22.7175 15.1985 23.0527 15.21 23.39C15.2184 23.7924 15.1182 24.1897 14.92 24.54C14.7294 24.8936 14.4413 25.1851 14.09 25.38C13.76 25.57 13.48 25.65 13.29 25.76C13.0993 25.8602 12.9337 26.0021 12.8056 26.1753C12.6774 26.3485 12.5901 26.5483 12.55 26.76C12.5014 27.067 12.4346 27.3709 12.35 27.67C12.2154 28.0214 11.9872 28.3292 11.69 28.56C11.1548 28.9531 10.5137 29.1761 9.85001 29.2L9.76001 28.55Z" fill="#333333"/>
<path d="M34.86 24.8C34.92 25.42 35.64 25.64 36.26 26.57C36.4258 26.8247 36.5381 27.1105 36.59 27.41C36.6099 27.5627 36.6099 27.7173 36.59 27.87V28.26C36.4858 28.8252 36.2058 29.3432 35.79 29.74C35.41 30.1 35.22 30.26 35.14 30.46C35.0818 30.5717 35.0478 30.6943 35.04 30.82C35.0196 30.9492 35.0196 31.0808 35.04 31.21C35.04 31.38 35.19 31.54 35.52 31.78C35.9664 32.0657 36.3315 32.4618 36.58 32.93C36.7055 33.2128 36.7637 33.5209 36.75 33.83C36.7392 34.1017 36.6921 34.3708 36.61 34.63C36.4338 35.0941 36.1726 35.5214 35.84 35.89C35.5827 36.1571 35.3609 36.4562 35.18 36.78C35.0984 36.9265 35.041 37.0852 35.01 37.25C34.9755 37.3943 34.9554 37.5417 34.95 37.69C34.95 37.85 35.14 38.13 35.44 38.44C35.815 38.7833 36.0824 39.2279 36.21 39.72C36.283 40.2415 36.162 40.7717 35.87 41.21C35.6292 41.5715 35.351 41.9067 35.04 42.21L34.53 41.75C35.02 41.15 35.53 40.37 35.32 39.86C35.1948 39.553 34.9914 39.284 34.73 39.08C34.298 38.76 33.9962 38.2948 33.88 37.77C33.8605 37.6273 33.8605 37.4827 33.88 37.34C33.8709 37.2168 33.8709 37.0932 33.88 36.97C33.926 36.7212 34.0033 36.4793 34.11 36.25C34.3105 35.8335 34.5625 35.4438 34.86 35.09C35.0879 34.8304 35.2613 34.5278 35.37 34.2C35.4594 33.9545 35.4594 33.6854 35.37 33.44C35.1911 33.1942 34.9586 32.9924 34.69 32.85C34.1842 32.5485 33.807 32.0716 33.63 31.51C33.5598 31.2291 33.5362 30.9386 33.56 30.65C33.5774 30.3583 33.6416 30.0713 33.75 29.8C33.9865 29.3483 34.3092 28.9474 34.7 28.62C34.8989 28.4379 35.0324 28.1954 35.08 27.93C35.1462 27.6844 35.1462 27.4256 35.08 27.18C34.9012 26.8364 34.7043 26.5026 34.49 26.18C34.3526 25.9573 34.2514 25.7143 34.19 25.46C34.1197 25.1912 34.1197 24.9088 34.19 24.64L34.86 24.8Z" fill="#333333"/>
<path d="M38.61 29.7C38.76 30.14 39.15 30.31 39.72 30.7C40.0422 30.923 40.3231 31.2005 40.55 31.52C40.7835 31.8911 40.905 32.3216 40.9 32.76C40.9026 33.1893 40.8068 33.6135 40.62 34C40.4538 34.3009 40.2596 34.5855 40.04 34.85C39.9289 34.9952 39.8597 35.1682 39.84 35.35C39.8037 35.545 39.8037 35.745 39.84 35.94C39.8922 36.0904 39.9994 36.2154 40.14 36.29C40.33 36.41 40.61 36.53 40.93 36.72C41.333 36.9468 41.6521 37.2975 41.84 37.72C42.0068 38.1106 42.0622 38.5398 42 38.96C41.8723 39.649 41.5808 40.2972 41.15 40.85C40.8409 41.2991 40.6833 41.8351 40.7 42.38L40.02 42.47C39.8729 41.7722 39.9571 41.0455 40.26 40.4C40.5321 39.9299 40.7057 39.4093 40.77 38.87C40.7745 38.6701 40.7334 38.4717 40.65 38.29C40.5619 38.1361 40.4245 38.0163 40.26 37.95C40.05 37.84 39.75 37.73 39.4 37.53C38.9947 37.3061 38.6748 36.9545 38.49 36.53C38.342 36.1308 38.2806 35.7047 38.31 35.28C38.3454 34.8148 38.5157 34.3699 38.8 34C39.27 33.37 39.36 33.22 39.38 32.76C39.3799 32.577 39.3529 32.3951 39.3 32.22C39.2049 32.0062 39.0651 31.8153 38.89 31.66C38.6571 31.4112 38.4368 31.1509 38.23 30.88C37.9899 30.5435 37.8797 30.1314 37.92 29.72L38.61 29.7Z" fill="#333333"/>
<path d="M39.4799 21.41C39.3154 21.1476 39.0746 20.9418 38.7899 20.82C38.3909 20.6955 38.0107 20.5172 37.6599 20.29C37.2653 19.9622 36.9995 19.5051 36.9099 19C36.8278 18.5537 36.8278 18.0962 36.9099 17.65C36.9901 17.3225 37.0337 16.9871 37.0399 16.65C37.0348 16.5472 37.0092 16.4464 36.9646 16.3537C36.9199 16.2609 36.8571 16.178 36.7799 16.11C36.5458 15.9728 36.288 15.8812 36.0199 15.84C35.523 15.7156 35.072 15.4519 34.7199 15.08C34.345 14.6958 34.1032 14.2017 34.0299 13.67C34.0033 13.2671 34.0033 12.8629 34.0299 12.46C34.0285 12.2181 33.9489 11.9831 33.8029 11.7902C33.6569 11.5974 33.4523 11.4569 33.2199 11.39C32.6399 11.17 31.8299 11.17 31.0099 10.9C30.5922 10.7634 30.2085 10.5394 29.8843 10.2428C29.5601 9.94619 29.3029 9.58387 29.1299 9.17999L29.7299 8.85999C29.903 9.15051 30.1346 9.40188 30.4101 9.59813C30.6855 9.79438 30.9987 9.93123 31.3299 9.99999C31.9699 10.15 32.7199 10.06 33.6099 10.25C34.1203 10.3635 34.581 10.6372 34.9246 11.0312C35.2683 11.4253 35.4769 11.9189 35.5199 12.44C35.5199 12.92 35.5199 13.27 35.5199 13.51C35.5638 13.7334 35.6675 13.9408 35.8199 14.11C35.9907 14.2946 36.2085 14.4294 36.4499 14.5C36.9277 14.6212 37.3699 14.8543 37.7399 15.18C38.1315 15.5843 38.3473 16.1271 38.3399 16.69C38.3197 17.1225 38.2389 17.55 38.0999 17.96C37.9691 18.2119 37.9146 18.4964 37.943 18.7788C37.9715 19.0612 38.0816 19.3292 38.2599 19.55C38.525 19.77 38.8174 19.9549 39.1299 20.1C39.5278 20.3301 39.8428 20.6801 40.0299 21.1L39.4799 21.41Z" fill="#333333"/>
<path d="M40.6799 29.23C40.0162 29.2061 39.3751 28.9831 38.8399 28.59C38.5427 28.3592 38.3144 28.0514 38.1799 27.7C38.0953 27.4009 38.0285 27.097 37.9799 26.79C37.9398 26.5784 37.8524 26.3785 37.7243 26.2053C37.5962 26.0322 37.4306 25.8902 37.2399 25.79C37.0499 25.68 36.7699 25.6 36.4399 25.41C36.0905 25.2125 35.8031 24.9217 35.6099 24.57C35.4116 24.2197 35.3114 23.8224 35.3199 23.42C35.3314 23.0827 35.3783 22.7475 35.4599 22.42C35.6099 21.82 35.6799 21.42 35.5399 21.16C35.4759 21.0354 35.3745 20.934 35.2499 20.87C35.0148 20.776 34.7744 20.6958 34.5299 20.63C34.159 20.5005 33.8186 20.2963 33.5299 20.03C33.2333 19.752 33.0042 19.41 32.8599 19.03C32.7029 18.4029 32.6555 17.7533 32.7199 17.11C32.7024 16.9387 32.6432 16.7743 32.5473 16.6313C32.4513 16.4883 32.3217 16.3711 32.1699 16.29C31.4699 15.92 30.1699 16.07 28.9199 15.8C28.2772 15.6736 27.6656 15.4222 27.1199 15.06C26.5822 14.7056 26.1116 14.2587 25.7299 13.74C25.3589 13.2177 25.0946 12.6273 24.9522 12.0027C24.8098 11.3781 24.792 10.7315 24.8999 10.1L25.5799 10.23C25.4838 11.2914 25.8028 12.3488 26.4699 13.18C26.8077 13.5776 27.21 13.9156 27.6599 14.18C28.1107 14.4315 28.6069 14.5913 29.1199 14.65C29.6713 14.7062 30.2258 14.7263 30.7799 14.71C31.4618 14.6704 32.1443 14.7796 32.7799 15.03C33.1549 15.201 33.4807 15.4638 33.7272 15.7942C33.9737 16.1246 34.1328 16.5118 34.1899 16.92C34.2699 17.73 34.1899 18.19 34.2899 18.47C34.3527 18.6363 34.4518 18.7866 34.5799 18.91C34.7127 19.0458 34.8779 19.1456 35.0599 19.2C35.3734 19.3007 35.6778 19.4278 35.9699 19.58C36.3621 19.8084 36.6679 20.1599 36.8399 20.58C36.9994 20.9585 37.0546 21.3729 36.9999 21.78C36.9473 22.0978 36.8738 22.4119 36.7799 22.72C36.696 22.9177 36.6527 23.1303 36.6527 23.345C36.6527 23.5598 36.696 23.7723 36.7799 23.97C36.9099 24.33 37.2299 24.43 37.8799 24.8C38.2045 24.9982 38.4758 25.2728 38.6699 25.6C38.8615 25.9039 38.9875 26.2445 39.0399 26.6C39.1099 27.33 39.0899 27.6 39.4599 27.95C39.846 28.283 40.3233 28.492 40.8299 28.55L40.6799 29.23Z" fill="#333333"/>
<path d="M49 41.16C48.7863 40.1227 48.2739 39.1705 47.5258 38.4207C46.7778 37.6709 45.8268 37.1562 44.79 36.94L31.41 34V30.54H19.07V34C13.91 35.12 7.62 36.51 5.74 36.92C4.70317 37.1362 3.75219 37.6509 3.00416 38.4007C2.25613 39.1505 1.74372 40.1027 1.53 41.14L1 43.27C1.29 43.5 11.17 48.54 25.24 48.54C39.31 48.54 49.19 43.54 49.48 43.27L49 41.16Z" fill="#555555"/>
<path d="M23.3401 36.11C23.439 36.2084 23.508 36.3328 23.5393 36.4688C23.5705 36.6048 23.5627 36.7468 23.5167 36.8785C23.4707 37.0103 23.3884 37.1263 23.2793 37.2132C23.1702 37.3002 23.0387 37.3546 22.9001 37.37C16.2401 38.23 7.79006 39.78 5.74006 40.37C4.87505 40.5835 4.07072 40.993 3.38927 41.567C2.70781 42.1409 2.16748 42.8639 1.81006 43.68C9.19155 46.9291 17.1752 48.5852 25.2401 48.54C33.3079 48.5833 41.2945 46.9274 48.6801 43.68C48.3393 42.8512 47.803 42.1172 47.1169 41.5408C46.4307 40.9644 45.6152 40.5627 44.7401 40.37C41.4801 39.67 37.0301 38.67 33.1501 37.82C32.6562 37.7106 32.2145 37.4359 31.8981 37.0413C31.5817 36.6467 31.4095 36.1558 31.4101 35.65V30.54H19.0701V31.69L23.3401 36.11Z" fill="#444444"/>
<path d="M18.92 34.21C18.99 34.21 10.36 35.92 5.74 36.94C4.70317 37.1562 3.75219 37.6708 3.00416 38.4207C2.25613 39.1705 1.74372 40.1227 1.53 41.16L1 43.27C1.29 43.5 11.17 48.54 25.24 48.54C39.31 48.54 49.19 43.54 49.48 43.27L49 41.16C48.7863 40.1227 48.2739 39.1705 47.5258 38.4207C46.7778 37.6708 45.8268 37.1562 44.79 36.94C34.95 34.8 31.61 34.21 31.61 34.21" stroke="#333333" stroke-width="1.5" stroke-linejoin="round"/>
<path d="M19.0701 36.13V30.57H31.4101V36.13" stroke="#333333" stroke-width="1.5" stroke-linejoin="round"/>
<path d="M35.2699 13.66C35.2699 8.24999 33.2699 3.14999 25.2699 3.14999C17.2699 3.14999 15.2699 8.24999 15.2699 13.66C15.1638 18.0181 15.5157 22.3754 16.3199 26.66C16.6066 28.2167 17.4532 29.6147 18.6999 30.59L21.2599 32.59C22.4025 33.482 23.8104 33.9665 25.2599 33.9665C26.7094 33.9665 28.1174 33.482 29.2599 32.59L31.8199 30.59C33.0666 29.6147 33.9132 28.2167 34.1999 26.66L34.7499 23.66C34.8599 23.65 35.2699 15.45 35.2699 13.66Z" fill="#AA8064"/>
<path d="M25.2699 3.15001C24.3413 3.14703 23.4142 3.22735 22.4999 3.39001V13.76C22.4952 14.6282 22.1994 15.4698 21.6599 16.15C22.2772 16.5213 22.8115 17.0156 23.2296 17.6023C23.6476 18.1889 23.9405 18.8553 24.0899 19.56C24.2561 19.4257 24.4461 19.3239 24.6499 19.26C24.7231 19.2419 24.7995 19.2406 24.8733 19.2562C24.9471 19.2718 25.0164 19.3039 25.076 19.35C25.1357 19.3962 25.1841 19.4553 25.2177 19.5228C25.2512 19.5903 25.2691 19.6646 25.2699 19.74V21.81C25.2775 22.0071 25.3394 22.1983 25.4488 22.3624C25.5582 22.5265 25.7109 22.6572 25.8899 22.74C26.4599 23.06 26.0499 24.15 25.2699 24.15C24.9545 24.1573 24.6431 24.0778 24.3699 23.92C23.6399 23.55 22.9399 24.31 23.0999 24.6C23.2599 24.89 23.4399 24.6 24.1799 24.94C24.5226 25.1184 24.9035 25.2111 25.2899 25.21V28.89C25.2903 28.9766 25.3202 29.0606 25.3747 29.1279C25.4293 29.1951 25.5052 29.2418 25.5899 29.26C26.9099 29.57 27.5899 31.76 25.2899 32.26C25.0084 32.3136 24.7544 32.4638 24.5718 32.6848C24.3892 32.9057 24.2895 33.1834 24.2899 33.47V33.92C25.1679 34.0578 26.0649 34.0135 26.9251 33.7898C27.7852 33.5662 28.5902 33.168 29.2899 32.62L31.8499 30.62C33.0966 29.6447 33.9432 28.2467 34.2299 26.69L34.7799 23.69C34.8799 23.69 35.2899 15.48 35.2899 13.69C35.2699 8.25001 33.2999 3.15001 25.2699 3.15001Z" fill="#A0775C"/>
<path d="M25.2699 22.78C28.9499 24.68 31.5299 24.78 33.0699 23.97V29.25C33.6377 28.4784 34.0271 27.5904 34.2099 26.65L34.7599 23.65C34.8599 23.65 35.2699 15.45 35.2699 13.65C35.2699 8.24001 33.2699 3.14001 25.2699 3.14001C17.2699 3.14001 15.2699 8.24001 15.2699 13.65C15.1638 18.0082 15.5157 22.3654 16.3199 26.65C16.5719 27.9554 17.2175 29.1524 18.1699 30.08V24C19.7199 24.82 21.9399 24.35 25.2699 22.78ZM17.1299 21.11C14.7599 18.24 16.8499 15.11 18.3699 14.11C18.3959 14.0905 18.4274 14.08 18.4599 14.08C18.4924 14.08 18.5239 14.0905 18.5499 14.11C18.5766 14.1287 18.5975 14.1546 18.6099 14.1847C18.6223 14.2149 18.6258 14.2479 18.6199 14.28C18.5399 14.54 18.4399 14.94 18.3099 15.51C19.9999 15.51 23.7699 16.51 23.9699 20.72C23.9711 20.7511 23.9632 20.7818 23.9472 20.8084C23.9312 20.835 23.9078 20.8564 23.8799 20.87C23.8549 20.8872 23.8253 20.8964 23.7949 20.8964C23.7646 20.8964 23.7349 20.8872 23.7099 20.87L23.3299 20.59C23.3299 20.59 19.0999 23.51 17.1299 21.11Z" fill="#A0775C"/>
<path d="M25.2699 3.15001C24.3413 3.14703 23.4142 3.22735 22.4999 3.39001V13.76C22.4952 14.6282 22.1994 15.4698 21.6599 16.15C22.2772 16.5213 22.8115 17.0156 23.2296 17.6023C23.6476 18.1889 23.9405 18.8553 24.0899 19.56C24.2561 19.4257 24.4461 19.3239 24.6499 19.26C24.7231 19.2419 24.7995 19.2406 24.8733 19.2562C24.9471 19.2718 25.0164 19.3039 25.076 19.35C25.1357 19.3962 25.1841 19.4553 25.2177 19.5228C25.2512 19.5903 25.2691 19.6646 25.2699 19.74V21.81C25.2775 22.0071 25.3394 22.1983 25.4488 22.3624C25.5582 22.5265 25.7109 22.6572 25.8899 22.74C25.969 22.788 26.0345 22.8555 26.08 22.936C26.1255 23.0166 26.1496 23.1075 26.1499 23.2C29.3599 24.68 31.6499 24.73 33.0699 23.97V29.25C33.6377 28.4784 34.0271 27.5904 34.2099 26.65L34.7599 23.65C34.8599 23.65 35.2699 15.44 35.2699 13.65C35.2699 8.25001 33.2999 3.15001 25.2699 3.15001ZM33.2699 21.06C31.5099 23.2 27.9199 21.06 27.2699 20.62C27.2362 20.5963 27.1961 20.5836 27.1549 20.5836C27.1137 20.5836 27.0736 20.5963 27.0399 20.62L26.7799 20.81C26.7541 20.8249 26.7248 20.8328 26.6949 20.8328C26.6651 20.8328 26.6358 20.8249 26.6099 20.81C26.5812 20.7948 26.5574 20.7716 26.5415 20.7432C26.5255 20.7148 26.518 20.6825 26.5199 20.65C26.5798 19.2941 27.15 18.0108 28.1162 17.0576C29.0825 16.1044 30.3733 15.5516 31.7299 15.51C31.7796 15.5032 31.8273 15.4865 31.8703 15.4607C31.9133 15.4349 31.9506 15.4006 31.9799 15.36C32.0091 15.3202 32.0295 15.2747 32.0399 15.2264C32.0502 15.1782 32.0502 15.1283 32.0399 15.08L31.8299 14.27C31.8217 14.2389 31.823 14.2061 31.8337 14.1758C31.8444 14.1454 31.864 14.119 31.8899 14.1C31.918 14.0811 31.9511 14.071 31.9849 14.071C32.0188 14.071 32.0518 14.0811 32.0799 14.1C33.5599 15.12 35.6399 18.21 33.2899 21.06H33.2699Z" fill="#966D56"/>
<path d="M22.3499 27.72L22.1299 28.64" stroke="#9C6F57" stroke-width="0.75" stroke-miterlimit="10" stroke-linecap="round"/>
<path d="M16.3201 26.65C16.6068 28.2067 17.4534 29.6047 18.7001 30.58L21.2601 32.58C22.4026 33.472 23.8105 33.9565 25.2601 33.9565C26.7096 33.9565 28.1175 33.472 29.2601 32.58L31.8201 30.58C33.0668 29.6047 33.9134 28.2067 34.2001 26.65" stroke="#333333" stroke-width="1.5" stroke-linejoin="round"/>
<path d="M25.22 25.51V26.25" stroke="#9C6F57" stroke-width="0.75" stroke-miterlimit="10" stroke-linecap="round"/>
<path d="M28.4399 27.03L28.8099 27.76" stroke="#9C6F57" stroke-width="0.75" stroke-miterlimit="10" stroke-linecap="round"/>
<path d="M26.08 27C25.8367 27.0858 25.5779 27.1185 25.321 27.0961C25.064 27.0737 24.8148 26.9966 24.59 26.87C23.75 26.7 23.27 27.87 22.26 28.07L23.18 29.01C23.6035 29.3923 24.16 29.5933 24.73 29.57H25.73C26.3369 29.5857 26.9294 29.3835 27.4 29C27.8521 28.5085 28.2666 27.9837 28.64 27.43C27 27.42 26.9 26.76 26.08 27Z" fill="#744D6F"/>
<path d="M28.64 27.42C27.14 28.35 26.77 27.6 25.27 28.1C23.79 27.6 23.27 28.1 22.27 28.1" stroke="#333333" stroke-width="0.65" stroke-miterlimit="10" stroke-linecap="round"/>
<path d="M23.27 24.66C24.27 24.66 24.27 25.16 25.27 25.16C26.27 25.16 26.27 24.66 27.27 24.66" stroke="#BA8D86" stroke-width="0.75" stroke-miterlimit="10" stroke-linecap="round"/>
<path d="M20.8 20.56C21.2143 20.56 21.55 20.2242 21.55 19.81C21.55 19.3958 21.2143 19.06 20.8 19.06C20.3858 19.06 20.05 19.3958 20.05 19.81C20.05 20.2242 20.3858 20.56 20.8 20.56Z" fill="#333333"/>
<path d="M17.12 17.19C17.12 17.19 15.82 18.1 16.51 18.74C17.2 19.38 19.61 18.48 20.66 18.99C21.2503 19.2696 21.8128 19.6044 22.34 19.99C22.466 19.9253 22.5717 19.8272 22.6455 19.7063C22.7193 19.5855 22.7583 19.4466 22.7583 19.305C22.7583 19.1634 22.7193 19.0245 22.6455 18.9037C22.5717 18.7828 22.466 18.6847 22.34 18.62C21 17.83 18.87 15.89 17.12 17.19Z" fill="#CEA182"/>
<path d="M33.41 17.19C33.41 17.19 34.58 18.1 33.89 18.73C33.2 19.36 30.89 18.48 29.89 18.99C29.3015 19.2728 28.7392 19.6075 28.21 19.99C28.21 19.99 27.02 19.81 28.21 18.62C29.56 17.83 31.66 15.89 33.41 17.19Z" fill="#CEA182"/>
<path d="M22.6099 20.18C22.0299 19.85 20.5399 17.93 18.6099 19.85C18.1299 19.69 17.4699 19.85 16.9299 18.93C18.0699 19.06 19.9299 18.57 20.9299 19.11" fill="#333333"/>
<path d="M22.6099 20.18C22.0299 19.85 20.5399 17.93 18.6099 19.85C18.1299 19.69 17.4699 19.85 16.9299 18.93C18.0699 19.06 19.9299 18.57 20.9299 19.11" stroke="#333333" stroke-width="0.503601" stroke-miterlimit="10" stroke-linecap="round"/>
<path d="M29.73 20.56C30.1442 20.56 30.48 20.2242 30.48 19.81C30.48 19.3958 30.1442 19.06 29.73 19.06C29.3158 19.06 28.98 19.3958 28.98 19.81C28.98 20.2242 29.3158 20.56 29.73 20.56Z" fill="#333333"/>
<path d="M27.9199 20.18C28.4999 19.85 29.9899 17.93 31.9199 19.85C32.4099 19.69 33.0599 19.85 33.5999 18.93C32.4599 19.06 30.5999 18.57 29.5999 19.11" fill="#333333"/>
<path d="M27.9199 20.18C28.4999 19.85 29.9899 17.93 31.9199 19.85C32.4099 19.69 33.0599 19.85 33.5999 18.93C32.4599 19.06 30.5999 18.57 29.5999 19.11" stroke="#333333" stroke-width="0.503601" stroke-miterlimit="10" stroke-linecap="round"/>
<path d="M33.3 17.33C33.1006 17.1768 32.8707 17.068 32.6257 17.0111C32.3808 16.9541 32.1265 16.9504 31.88 17C31.3727 17.0969 30.89 17.2941 30.46 17.58C30.0045 17.8639 29.564 18.171 29.14 18.5C28.673 18.8993 28.1377 19.211 27.56 19.42C27.4943 19.4397 27.4254 19.4463 27.3572 19.4394C27.289 19.4324 27.2228 19.4121 27.1625 19.3796C27.0406 19.314 26.9497 19.2026 26.91 19.07C26.8702 18.9374 26.8847 18.7944 26.9503 18.6725C27.016 18.5506 27.1273 18.4598 27.26 18.42H27.38C27.8434 18.2799 28.2845 18.0745 28.69 17.81C29.1688 17.5143 29.6628 17.2439 30.17 17C30.6929 16.7434 31.2594 16.5874 31.84 16.54C32.4397 16.5175 33.0301 16.6932 33.52 17.04C33.5372 17.0559 33.551 17.0753 33.5604 17.0968C33.5699 17.1183 33.5747 17.1415 33.5747 17.165C33.5747 17.1885 33.5699 17.2117 33.5604 17.2332C33.551 17.2548 33.5372 17.2741 33.52 17.29C33.5049 17.307 33.4865 17.3207 33.4658 17.33C33.4451 17.3393 33.4227 17.3442 33.4 17.3442C33.3773 17.3442 33.3548 17.3393 33.3341 17.33C33.3134 17.3207 33.295 17.307 33.28 17.29L33.3 17.33Z" fill="#333333"/>
<path d="M13.2599 1.71999C13.6499 2.20999 13.9699 2.71999 14.2599 3.18999C14.5499 3.65999 14.8899 4.18999 15.1599 4.72999C15.7433 5.78482 16.1009 6.9495 16.2099 8.14999C16.2127 8.21467 16.1903 8.27792 16.1474 8.32641C16.1045 8.37491 16.0444 8.40487 15.9799 8.40999C15.9219 8.40932 15.8658 8.38927 15.8205 8.35303C15.7752 8.31679 15.7433 8.26644 15.7299 8.20999C15.4697 7.13758 14.9858 6.13227 14.3099 5.25999C13.9985 4.80703 13.6647 4.36983 13.3099 3.94999C12.9399 3.53999 12.5399 3.11999 12.1599 2.75999C12.043 2.62101 11.9805 2.44435 11.984 2.26279C11.9875 2.08124 12.0568 1.90711 12.1789 1.77275C12.3011 1.63838 12.4678 1.5529 12.6482 1.53216C12.8286 1.51142 13.0104 1.55684 13.1599 1.65999L13.2599 1.71999Z" fill="#333333"/>
<path d="M38.3701 2.75C37.9901 3.11 37.5901 3.53 37.2301 3.94C36.8725 4.35761 36.5386 4.79496 36.2301 5.25C35.5541 6.12228 35.0702 7.12759 34.8101 8.2C34.8042 8.23185 34.7918 8.26217 34.7739 8.28914C34.7559 8.31611 34.7327 8.33916 34.7056 8.35691C34.6785 8.37467 34.6481 8.38675 34.6162 8.39244C34.5843 8.39812 34.5516 8.39729 34.5201 8.39C34.4636 8.3781 34.4134 8.34629 34.3785 8.30038C34.3436 8.25448 34.3264 8.19754 34.3301 8.14C34.4236 6.94316 34.7641 5.77869 35.3301 4.72C35.6001 4.19 35.9101 3.72 36.2301 3.18C36.5501 2.64 36.8901 2.18 37.2301 1.71C37.3556 1.55481 37.5371 1.45523 37.7355 1.43277C37.9338 1.41032 38.133 1.4668 38.2901 1.59C38.368 1.65137 38.433 1.7276 38.4813 1.81428C38.5296 1.90096 38.5602 1.99635 38.5714 2.09494C38.5826 2.19353 38.574 2.29336 38.5464 2.38864C38.5187 2.48392 38.4723 2.57275 38.4101 2.65L38.3401 2.73L38.3701 2.75Z" fill="#333333"/>
<path d="M17.3501 29.4C17.2801 27.29 17.2201 25.17 17.2001 23.06C17.1988 23.0106 17.2073 22.9614 17.2253 22.9153C17.2433 22.8693 17.2704 22.8273 17.3049 22.7919C17.3393 22.7565 17.3806 22.7283 17.4261 22.7091C17.4717 22.6899 17.5206 22.68 17.5701 22.68C17.6229 22.6695 17.6773 22.6695 17.7301 22.68C18.9054 23.1328 20.1998 23.1716 21.4001 22.79C22.6469 22.441 23.8536 21.9617 25.0001 21.36C25.0718 21.3254 25.1504 21.3075 25.2301 21.3075C25.3097 21.3075 25.3883 21.3254 25.4601 21.36C26.6275 21.9795 27.8623 22.4626 29.1401 22.8C30.3537 23.1792 31.6612 23.1262 32.8401 22.65C32.9333 22.6078 33.0392 22.6029 33.136 22.6364C33.2327 22.6699 33.3129 22.7392 33.3601 22.83C33.3741 22.8892 33.3741 22.9508 33.3601 23.01C33.3101 25.09 33.2701 27.17 33.2001 29.25C33.1988 29.2802 33.1916 29.3099 33.1788 29.3373C33.166 29.3647 33.148 29.3893 33.1257 29.4098C33.1034 29.4302 33.0773 29.446 33.0489 29.4564C33.0205 29.4667 32.9903 29.4713 32.9601 29.47C32.9017 29.47 32.8458 29.4468 32.8045 29.4056C32.7633 29.3643 32.7401 29.3083 32.7401 29.25C32.6601 27.17 32.6201 25.09 32.5801 23.01L33.1501 23.35C31.816 23.9879 30.2975 24.1262 28.8701 23.74C27.5196 23.4175 26.2181 22.9165 25.0001 22.25H25.4601C24.233 22.8948 22.9293 23.382 21.5801 23.7C20.1798 24.0871 18.6887 23.9776 17.3601 23.39L17.9101 23.06C17.9101 25.17 17.8301 27.29 17.7601 29.4C17.7601 29.4298 17.7541 29.4592 17.7424 29.4866C17.7308 29.5139 17.7137 29.5386 17.6922 29.5592C17.6707 29.5798 17.6452 29.5958 17.6173 29.6062C17.5895 29.6167 17.5598 29.6214 17.5301 29.62C17.4789 29.6105 17.4327 29.5833 17.3998 29.543C17.3668 29.5027 17.3492 29.452 17.3501 29.4Z" fill="#333333"/>
<path d="M23.27 24.66C24.27 24.66 24.27 25.16 25.27 25.16C26.27 25.16 26.27 24.66 27.27 24.66" stroke="#674848" stroke-width="0.779111" stroke-miterlimit="10" stroke-linecap="round"/>
<path d="M35.0901 24.27L36.1701 11.87C40.3201 9.11 38.0601 5.7 38.9201 1C37.2501 1.56 34.5201 1.35 32.5401 3.31C30.2702 2.21868 27.7838 1.65203 25.2651 1.65203C22.7464 1.65203 20.2601 2.21868 17.9901 3.31C15.9901 1.31 13.2801 1.56 11.6101 1C12.4701 5.7 10.6801 9.45 14.4401 11.9L15.4401 24.23C15.5906 25.9769 16.3435 27.6171 17.5701 28.87V23.06C19.1301 23.85 21.6701 23.67 25.2701 21.81C28.9501 23.71 31.5301 23.81 33.0701 23V28.78C34.2316 27.5467 34.9433 25.9578 35.0901 24.27ZM24.2601 20.71C24.2599 20.7433 24.2504 20.7759 24.2327 20.8042C24.2151 20.8324 24.1899 20.8552 24.1601 20.87C24.1341 20.8895 24.1026 20.9 24.0701 20.9C24.0377 20.9 24.0061 20.8895 23.9801 20.87L23.8101 20.74C23.7387 20.6935 23.6553 20.6688 23.5701 20.6688C23.4849 20.6688 23.4015 20.6935 23.3301 20.74C22.3301 21.34 18.7401 23.36 16.9201 21.15C14.3801 18.07 16.6201 14.72 18.2501 13.65C18.2797 13.6302 18.3145 13.6197 18.3501 13.6197C18.3857 13.6197 18.4205 13.6302 18.4501 13.65C18.4777 13.6722 18.4981 13.7021 18.5088 13.7359C18.5195 13.7697 18.5199 13.8059 18.5101 13.84L18.3001 14.66C18.2881 14.7185 18.2881 14.7787 18.3002 14.8372C18.3122 14.8956 18.336 14.951 18.3701 15C18.4063 15.0501 18.4525 15.092 18.5059 15.123C18.5594 15.154 18.6187 15.1734 18.6801 15.18C20.1321 15.2405 21.5092 15.841 22.5414 16.864C23.5736 17.887 24.1866 19.2586 24.2601 20.71ZM27.1101 20.71C27.0397 20.661 26.9559 20.6347 26.8701 20.6347C26.7843 20.6347 26.7005 20.661 26.6301 20.71L26.4601 20.83C26.432 20.8489 26.399 20.859 26.3651 20.859C26.3313 20.859 26.2982 20.8489 26.2701 20.83C26.2414 20.8147 26.2176 20.7916 26.2017 20.7632C26.1857 20.7348 26.1782 20.7025 26.1801 20.67C26.3801 16.43 30.0501 15.21 31.9601 15.1C31.9955 15.0971 32.0298 15.0866 32.0609 15.0694C32.0919 15.0522 32.1189 15.0285 32.1401 15C32.1545 14.9686 32.1619 14.9345 32.1619 14.9C32.1619 14.8655 32.1545 14.8314 32.1401 14.8C32.0401 14.34 31.9501 14 31.8801 13.8C31.873 13.7657 31.8761 13.73 31.8891 13.6974C31.902 13.6648 31.9241 13.6367 31.9528 13.6165C31.9815 13.5963 32.0154 13.5849 32.0505 13.5838C32.0855 13.5826 32.1202 13.5917 32.1501 13.61C33.7801 14.68 36.0201 18.03 33.4801 21.11C31.7001 23.33 28.0801 21.32 27.1101 20.71Z" fill="#555555"/>
<path d="M30.8899 23.49C31.646 23.51 32.3952 23.3416 33.07 23V28.78C34.2242 27.5439 34.9287 25.9553 35.07 24.27L36.15 11.87C40.32 9.11 38.0599 5.7 38.9199 1C37.2499 1.56 34.52 1.35 32.54 3.31C29.4307 1.82327 25.9379 1.33427 22.54 1.91V13.76C22.5263 14.6266 22.2315 15.4654 21.7 16.15C22.3173 16.5213 22.8516 17.0156 23.2696 17.6023C23.6877 18.1889 23.9805 18.8553 24.1299 19.56C24.2961 19.4257 24.4861 19.3239 24.69 19.26C24.7632 19.2419 24.8395 19.2406 24.9133 19.2562C24.9871 19.2718 25.0564 19.3038 25.1161 19.35C25.1757 19.3962 25.2241 19.4553 25.2577 19.5228C25.2913 19.5903 25.3091 19.6646 25.31 19.74V21.81C27.0144 22.7953 28.9248 23.3704 30.8899 23.49ZM31.8899 15.14C31.9397 15.137 31.9881 15.1232 32.0319 15.0994C32.0756 15.0757 32.1136 15.0426 32.1432 15.0025C32.1728 14.9625 32.1932 14.9164 32.203 14.8676C32.2128 14.8187 32.2118 14.7684 32.2 14.72C32.12 14.39 32.04 14.05 31.9799 13.84C31.9729 13.8057 31.976 13.77 31.9889 13.7374C32.0018 13.7048 32.024 13.6767 32.0527 13.6565C32.0813 13.6363 32.1153 13.6249 32.1503 13.6238C32.1854 13.6226 32.22 13.6317 32.25 13.65C34.93 15.43 35.69 19.51 33.18 21.54C30.84 23.44 27.18 20.39 26.72 20.74L26.52 20.89C26.4919 20.9089 26.4588 20.919 26.4249 20.919C26.3911 20.919 26.358 20.9089 26.33 20.89C26.3012 20.8747 26.2775 20.8516 26.2615 20.8232C26.2455 20.7948 26.2381 20.7625 26.24 20.73C26.2992 19.2647 26.9085 17.8756 27.9464 16.8395C28.9843 15.8035 30.3746 15.1967 31.84 15.14H31.8899Z" fill="#444444"/>
<path d="M13.2599 1.69001C13.6174 2.16312 13.9512 2.65373 14.2599 3.16001C14.587 3.657 14.8875 4.17106 15.1599 4.70001C15.7461 5.75369 16.1038 6.91896 16.2099 8.12001C16.2112 8.15154 16.2064 8.18302 16.1955 8.21265C16.1847 8.24228 16.1681 8.26949 16.1467 8.29271C16.1254 8.31593 16.0997 8.33471 16.071 8.34797C16.0424 8.36124 16.0114 8.36873 15.9799 8.37001C15.9228 8.37168 15.8668 8.35373 15.8214 8.31916C15.7759 8.28459 15.7436 8.23548 15.7299 8.18001C15.4697 7.1076 14.9858 6.1023 14.3099 5.23001C13.9899 4.78001 13.6299 4.34001 13.3099 3.92001C12.9899 3.50001 12.5399 3.09001 12.1599 2.73001C12.0188 2.58769 11.9397 2.3954 11.9397 2.19501C11.9397 1.99462 12.0188 1.80234 12.1599 1.66001C12.3005 1.51956 12.4912 1.44067 12.6899 1.44067C12.8887 1.44067 13.0793 1.51956 13.2199 1.66001L13.2599 1.69001Z" fill="#333333"/>
<path d="M38.3699 2.71C37.9899 3.07 37.5899 3.49 37.2299 3.9C36.8747 4.31949 36.5409 4.75672 36.2299 5.21C35.554 6.08228 35.0701 7.08759 34.8099 8.16C34.7955 8.22302 34.7573 8.27801 34.7032 8.31344C34.6492 8.34886 34.5835 8.36197 34.5199 8.35C34.4645 8.33631 34.4154 8.30404 34.3808 8.25855C34.3462 8.21307 34.3283 8.15711 34.3299 8.1C34.4206 6.90264 34.7612 5.73758 35.3299 4.68C35.6024 4.15105 35.9028 3.63699 36.2299 3.14C36.5599 2.63 36.8899 2.14 37.2299 1.67C37.2913 1.59204 37.3675 1.52703 37.4542 1.47874C37.5409 1.43045 37.6363 1.39983 37.7349 1.38867C37.8335 1.37751 37.9333 1.38602 38.0286 1.41372C38.1239 1.44141 38.2127 1.48773 38.2899 1.55C38.4325 1.67076 38.5241 1.84096 38.5463 2.02644C38.5686 2.21191 38.5199 2.39895 38.4099 2.55C38.3921 2.58104 38.3683 2.60824 38.3399 2.63L38.3699 2.71Z" fill="#333333"/>
<path d="M36.1701 11.83C40.3201 9.11 38.0601 5.7 38.9201 1C37.2501 1.56 34.5201 1.35 32.5401 3.31C30.2702 2.21868 27.7838 1.65203 25.2651 1.65203C22.7464 1.65203 20.2601 2.21868 17.9901 3.31C15.9901 1.31 13.2801 1.56 11.6101 1C12.4701 5.7 10.6801 9.45 14.4401 11.9L15.4401 24.23C15.6401 27.36 17.7001 29.05 20.6101 32.08C21.2051 32.719 21.9269 33.2269 22.7293 33.5713C23.5316 33.9156 24.397 34.0889 25.2701 34.08C26.139 34.0903 27.0003 33.9175 27.798 33.5729C28.5958 33.2284 29.312 32.7197 29.9001 32.08C32.8101 29.08 34.9001 27.34 35.0901 24.21L36.1701 11.81V11.83Z" stroke="#333333" stroke-width="1.5" stroke-linejoin="round"/>
<path d="M23.33 20.71C22.2806 21.5073 21.063 22.0545 19.77 22.31C19.0974 22.4414 18.4007 22.3682 17.77 22.1C17.4489 21.9466 17.1603 21.7327 16.92 21.47C16.7046 21.2071 16.5075 20.9298 16.33 20.64C16.0027 20.0454 15.7985 19.391 15.7298 18.7157C15.6611 18.0405 15.7292 17.3583 15.93 16.71C16.3109 15.431 17.1422 14.3333 18.27 13.62C17.2831 14.4454 16.583 15.5621 16.27 16.81C15.9433 18.0161 16.105 19.3023 16.72 20.39C16.9803 20.9341 17.3984 21.3871 17.92 21.69C18.4806 21.9301 19.095 22.0164 19.7 21.94C20.9732 21.7478 22.2023 21.3314 23.33 20.71Z" fill="#333333"/>
<path d="M32.1899 13.62C33.3022 14.3432 34.121 15.4385 34.4999 16.71C34.7052 17.3551 34.7774 18.0352 34.7121 18.709C34.6468 19.3828 34.4453 20.0364 34.1199 20.63C33.9461 20.923 33.7523 21.2036 33.5399 21.47C33.3084 21.7405 33.0221 21.9586 32.6999 22.11C32.068 22.3726 31.3749 22.4523 30.6999 22.34C29.4022 22.0822 28.183 21.5239 27.1399 20.71C28.2644 21.3166 29.486 21.7227 30.7499 21.91C31.3507 22.0042 31.9659 21.9208 32.5199 21.67C32.7782 21.5378 33.0117 21.3619 33.2099 21.15C33.4057 20.9141 33.5829 20.6633 33.7399 20.4C34.3567 19.3061 34.5252 18.0156 34.2099 16.8C33.8909 15.5526 33.1835 14.4389 32.1899 13.62Z" fill="#333333"/>
<path d="M18.6799 15.15C19.4164 15.1303 20.1497 15.2525 20.8399 15.51C21.5482 15.7594 22.1981 16.1508 22.7499 16.66C23.3097 17.1748 23.7383 17.8159 23.9999 18.53C24.2356 19.2312 24.3307 19.972 24.2799 20.71C24.1403 20.022 23.9257 19.3513 23.6399 18.71C23.3439 18.0661 22.9263 17.4854 22.4099 17C21.3462 16.0731 20.0616 15.4359 18.6799 15.15Z" fill="#333333"/>
<path d="M26.1801 20.71C26.1242 19.9719 26.2194 19.2301 26.4601 18.53C26.716 17.8179 27.1376 17.177 27.6901 16.66C28.2404 16.1487 28.8908 15.7571 29.6001 15.51C30.2903 15.2525 31.0237 15.1303 31.7601 15.15C30.3679 15.431 29.0723 16.0685 28.0001 17C27.4971 17.4695 27.0867 18.0292 26.7901 18.65C26.5013 19.3084 26.2963 20.0005 26.1801 20.71Z" fill="#333333"/>
<path d="M17.0001 17.05C17.4899 16.7032 18.0803 16.5275 18.6801 16.55C19.2606 16.5974 19.8271 16.7534 20.3501 17.01C20.8573 17.2539 21.3513 17.5243 21.8301 17.82C22.2356 18.0845 22.6767 18.2899 23.1401 18.43C23.206 18.4386 23.2696 18.4602 23.327 18.4936C23.3845 18.5271 23.4347 18.5716 23.4748 18.6247C23.5148 18.6778 23.5439 18.7383 23.5602 18.8027C23.5766 18.8672 23.5799 18.9342 23.5701 19C23.5503 19.132 23.4795 19.251 23.3729 19.3314C23.2663 19.4118 23.1325 19.4472 23.0001 19.43H22.9201C22.3423 19.221 21.807 18.9093 21.3401 18.51C20.9161 18.181 20.4755 17.8739 20.0201 17.59C19.6059 17.3066 19.1406 17.1062 18.6501 17C18.4035 16.951 18.1494 16.9551 17.9045 17.012C17.6597 17.0689 17.4298 17.1773 17.2301 17.33C17.2133 17.3502 17.1923 17.3665 17.1686 17.3777C17.1449 17.3889 17.119 17.3948 17.0927 17.395C17.0665 17.3951 17.0405 17.3896 17.0167 17.3786C16.9928 17.3677 16.9716 17.3517 16.9546 17.3317C16.9376 17.3117 16.9251 17.2883 16.9181 17.263C16.9111 17.2377 16.9098 17.2111 16.9141 17.1853C16.9184 17.1594 16.9284 17.1347 16.9432 17.1131C16.9581 17.0915 16.9775 17.0733 17.0001 17.06V17.05Z" fill="#333333"/>
</svg>
