<svg width="42" height="42" viewBox="0 0 42 42" fill="none" xmlns="http://www.w3.org/2000/svg">
<path d="M20.8616 38.2857C11.3726 38.2857 3.65381 30.523 3.65381 20.9801C3.65679 11.4401 11.3726 3.67749 20.8616 3.67749C30.3477 3.67749 38.0665 11.4401 38.0665 20.9801C38.0665 30.523 30.3507 38.2857 20.8616 38.2857Z" fill="white"/>
<path d="M20.8616 38.2857C11.3726 38.2857 3.65381 30.523 3.65381 20.9801C3.65679 11.4401 11.3726 3.67749 20.8616 3.67749C30.3477 3.67749 38.0665 11.4401 38.0665 20.9801C38.0665 30.523 30.3507 38.2857 20.8616 38.2857Z" fill="url(#paint0_linear)"/>
<path d="M20.8616 1.82825C10.3623 1.82825 1.81799 10.4211 1.81799 20.9801C1.81799 31.5421 10.3623 40.132 20.8616 40.132C31.361 40.132 39.9053 31.5421 39.9053 20.9801C39.9053 10.4211 31.364 1.82825 20.8616 1.82825ZM20.8616 38.2857C11.3726 38.2857 3.65381 30.5231 3.65381 20.9801C3.65679 11.4401 11.3726 3.6775 20.8616 3.6775C30.3477 3.6775 38.0665 11.4401 38.0665 20.9801C38.0665 30.5231 30.3507 38.2857 20.8616 38.2857Z" fill="#484848"/>
<path d="M20.8616 1.82825C10.3623 1.82825 1.81799 10.4211 1.81799 20.9801C1.81799 31.5421 10.3623 40.132 20.8616 40.132C31.361 40.132 39.9053 31.5421 39.9053 20.9801C39.9053 10.4211 31.364 1.82825 20.8616 1.82825ZM20.8616 38.2857C11.3726 38.2857 3.65381 30.5231 3.65381 20.9801C3.65679 11.4401 11.3726 3.6775 20.8616 3.6775C30.3477 3.6775 38.0665 11.4401 38.0665 20.9801C38.0665 30.5231 30.3507 38.2857 20.8616 38.2857Z" fill="url(#paint1_linear)"/>
<path d="M20.8616 0C9.35996 0 0 9.41314 0 20.9801C0 32.5504 9.35996 41.9602 20.8616 41.9602C32.3632 41.9602 41.7232 32.5504 41.7232 20.9801C41.7232 9.41314 32.3665 0 20.8616 0ZM20.8616 39.9377C10.4667 39.9377 2.01107 31.4341 2.01107 20.9801C2.01433 10.5295 10.4667 2.02578 20.8616 2.02578C31.2532 2.02578 39.7088 10.5295 39.7088 20.9801C39.7088 31.4341 31.2565 39.9377 20.8616 39.9377Z" fill="#575757"/>
<path d="M20.8616 0C9.35996 0 0 9.41314 0 20.9801C0 32.5504 9.35996 41.9602 20.8616 41.9602C32.3632 41.9602 41.7232 32.5504 41.7232 20.9801C41.7232 9.41314 32.3665 0 20.8616 0ZM20.8616 39.9377C10.4667 39.9377 2.01107 31.4341 2.01107 20.9801C2.01433 10.5295 10.4667 2.02578 20.8616 2.02578C31.2532 2.02578 39.7088 10.5295 39.7088 20.9801C39.7088 31.4341 31.2565 39.9377 20.8616 39.9377Z" fill="url(#paint2_linear)"/>
<path d="M22.2354 18.6723V16.6343L21.6561 6.96922C21.6302 6.53741 21.2226 6.23229 20.801 6.32905C20.5032 6.3974 20.2842 6.65106 20.26 6.95564L19.4907 16.6343V18.6723C18.8052 19.2058 17.9469 20.0361 17.9469 20.9772C17.9469 22.5986 19.2493 23.9114 20.8616 23.9114C22.4709 23.9114 23.7762 22.5986 23.7762 20.9772C23.7792 20.0361 22.9209 19.2088 22.2354 18.6723ZM19.9496 21.5946C19.9287 21.5646 19.9138 21.5317 19.8989 21.4987C19.8155 21.3458 19.7648 21.169 19.7648 20.9802C19.7648 20.7943 19.8155 20.6175 19.8989 20.4647C19.9917 20.2878 20.1305 20.1396 20.3007 20.0361C20.4708 19.9327 20.6657 19.8777 20.8645 19.8772C21.2848 19.8772 21.6454 20.12 21.8301 20.4677C21.9106 20.6205 21.9642 20.7943 21.9642 20.9802C21.9642 21.169 21.9136 21.3428 21.8301 21.4957C21.8123 21.5317 21.7974 21.5646 21.7795 21.5946C21.6603 21.7714 21.4963 21.9123 21.2997 21.9962L21.2818 22.0052C21.1536 22.0562 21.0135 22.0861 20.8675 22.0861C20.7185 22.0861 20.5784 22.0562 20.4503 22.0052L20.4324 21.9962C20.2327 21.9093 20.0658 21.7714 19.9496 21.5946Z" fill="#2F2F2F"/>
<path d="M35.7418 19.8771C35.5246 19.8768 35.3122 19.9413 35.1314 20.0624C34.9506 20.1836 34.8097 20.3559 34.7263 20.5576C34.6429 20.7593 34.6208 20.9813 34.6629 21.1956C34.705 21.4099 34.8093 21.6069 34.9627 21.7615C35.1161 21.9162 35.3116 22.0217 35.5246 22.0646C35.7376 22.1075 35.9584 22.0859 36.1592 22.0026C36.36 21.9193 36.5317 21.7779 36.6526 21.5965C36.7735 21.415 36.8382 21.2016 36.8385 20.9831C36.8392 20.8379 36.8114 20.694 36.7565 20.5597C36.7017 20.4254 36.621 20.3033 36.5191 20.2005C36.4171 20.0977 36.296 20.0162 36.1626 19.9607C36.0292 19.9052 35.8862 19.8768 35.7418 19.8771Z" fill="#2F2F2F"/>
<path d="M34.2964 14.4552C34.5483 14.308 34.732 14.0665 34.8074 13.7834C34.8828 13.5004 34.8437 13.1989 34.6987 12.9447C34.5528 12.6916 34.3132 12.507 34.0323 12.4312C33.7513 12.3554 33.452 12.3945 33.1997 12.5401C32.9478 12.6873 32.7641 12.9289 32.6887 13.2119C32.6133 13.4949 32.6524 13.7965 32.7973 14.0506C32.9432 14.3037 33.1829 14.4883 33.4638 14.5641C33.7447 14.64 34.0441 14.6008 34.2964 14.4552Z" fill="#2F2F2F"/>
<path d="M28.8516 7.06427C28.7268 6.99139 28.589 6.94403 28.446 6.92493C28.303 6.90582 28.1577 6.91535 28.0183 6.95295C27.879 6.99056 27.7485 7.0555 27.6342 7.14405C27.5199 7.23259 27.4242 7.34299 27.3525 7.46889C27.2441 7.65795 27.1939 7.8751 27.2082 8.09287C27.2225 8.31064 27.3007 8.51926 27.4329 8.69233C27.5651 8.86541 27.7454 8.99519 27.9509 9.06525C28.1564 9.13531 28.378 9.1425 28.5876 9.08593C28.7972 9.02936 28.9854 8.91156 29.1284 8.74742C29.2714 8.58328 29.3629 8.38018 29.3911 8.16379C29.4194 7.9474 29.3832 7.72745 29.2872 7.53174C29.1911 7.33603 29.0395 7.17335 28.8516 7.06427Z" fill="#2F2F2F"/>
<path d="M12.8716 7.06122C12.7467 7.13362 12.6373 7.23006 12.5495 7.34501C12.4617 7.45997 12.3973 7.5912 12.3599 7.7312C12.3225 7.8712 12.313 8.01723 12.3317 8.16095C12.3505 8.30467 12.3972 8.44326 12.4693 8.56881C12.5409 8.69471 12.6367 8.80511 12.7509 8.89366C12.8652 8.98221 12.9958 9.04715 13.1351 9.08476C13.2744 9.12237 13.4198 9.13189 13.5628 9.11279C13.7058 9.09368 13.8436 9.04632 13.9683 8.97344C14.4958 8.67072 14.6717 7.99335 14.3677 7.46584C14.0696 6.94133 13.3991 6.7585 12.8716 7.06122Z" fill="#2F2F2F"/>
<path d="M8.92379 14.0468C9.22658 13.5193 9.04677 12.8447 8.52218 12.5403C7.99759 12.2358 7.32686 12.4166 7.02408 12.9441C6.72129 13.4717 6.9011 14.1462 7.42569 14.4507C7.95028 14.7552 8.621 14.5744 8.92379 14.0468Z" fill="#2F2F2F"/>
<path d="M5.98124 19.8771C5.37626 19.8771 4.88452 20.3717 4.88452 20.9801C4.88452 21.5886 5.37626 22.0831 5.98124 22.0831C6.58623 22.0861 7.07797 21.5886 7.07797 20.9801C7.07797 20.3717 6.58623 19.8771 5.98124 19.8771Z" fill="#2F2F2F"/>
<path d="M7.42373 27.505C7.17209 27.6517 6.98849 27.8927 6.91309 28.1752C6.83769 28.4577 6.87663 28.7588 7.02139 29.0125C7.09313 29.1384 7.18889 29.2487 7.30317 29.3372C7.41744 29.4257 7.54798 29.4906 7.68729 29.5282C7.82659 29.5658 7.97191 29.5754 8.11489 29.5563C8.25787 29.5372 8.3957 29.4899 8.52045 29.4171C8.64564 29.345 8.75541 29.2488 8.84346 29.1339C8.9315 29.0189 8.99608 28.8876 9.03348 28.7475C9.07087 28.6074 9.08034 28.4613 9.06134 28.3174C9.04235 28.1736 8.99526 28.035 8.92278 27.9096C8.62178 27.3821 7.95123 27.2023 7.42373 27.505Z" fill="#2F2F2F"/>
<path d="M13.9683 32.9837C13.8436 32.9108 13.7058 32.8634 13.5628 32.8443C13.4198 32.8252 13.2744 32.8347 13.1351 32.8723C12.9958 32.9099 12.8652 32.9749 12.7509 33.0634C12.6367 33.152 12.5409 33.2624 12.4693 33.3883C12.3245 33.642 12.2856 33.9431 12.361 34.2256C12.4364 34.5082 12.62 34.7492 12.8716 34.8959C12.9964 34.9685 13.1342 35.0155 13.2772 35.0344C13.4201 35.0534 13.5653 35.0437 13.7045 35.0062C13.8438 34.9686 13.9743 34.9038 14.0886 34.8154C14.2029 34.7271 14.2987 34.6169 14.3707 34.4913C14.6746 33.9668 14.4928 33.2894 13.9683 32.9837Z" fill="#2F2F2F"/>
<path d="M20.8586 34.8419C20.2506 34.8419 19.7648 35.3364 19.7618 35.9478C19.7618 36.5562 20.2536 37.0477 20.8586 37.0507C21.4636 37.0507 21.9583 36.5562 21.9553 35.9478C21.956 35.8026 21.9281 35.6587 21.8733 35.5244C21.8185 35.3901 21.7378 35.2681 21.6358 35.1653C21.5339 35.0625 21.4127 34.981 21.2793 34.9255C21.1459 34.87 21.0029 34.8415 20.8586 34.8419Z" fill="#2F2F2F"/>
<path d="M27.7519 32.9837C27.6269 33.056 27.5174 33.1525 27.4297 33.2675C27.3419 33.3825 27.2776 33.5139 27.2405 33.654C27.2034 33.7941 27.1942 33.9402 27.2134 34.0839C27.2326 34.2276 27.2799 34.3661 27.3526 34.4913C27.4246 34.6169 27.5204 34.727 27.6347 34.8153C27.7491 34.9036 27.8795 34.9684 28.0187 35.0059C28.1579 35.0435 28.3031 35.0531 28.4461 35.0343C28.589 35.0154 28.7268 34.9684 28.8516 34.8959C28.9765 34.8236 29.086 34.7272 29.1739 34.6122C29.2617 34.4973 29.3262 34.366 29.3636 34.226C29.4009 34.086 29.4105 33.9399 29.3917 33.7962C29.3729 33.6525 29.3261 33.5139 29.2539 33.3883C29.1069 33.1357 28.8667 32.9516 28.5855 32.8758C28.3044 32.8001 28.0049 32.8389 27.7519 32.9837Z" fill="#2F2F2F"/>
<path d="M34.2964 27.5079C34.1716 27.435 34.0338 27.3876 33.8908 27.3685C33.7478 27.3494 33.6024 27.3589 33.4631 27.3966C33.3238 27.4342 33.1932 27.4991 33.079 27.5877C32.9647 27.6762 32.869 27.7866 32.7973 27.9125C32.7249 28.0377 32.6778 28.1761 32.6588 28.3197C32.6398 28.4633 32.6493 28.6092 32.6867 28.7491C32.7241 28.889 32.7887 29.02 32.8767 29.1347C32.9648 29.2493 33.0745 29.3453 33.1996 29.4171C33.3243 29.4897 33.4619 29.537 33.6047 29.5561C33.7475 29.5752 33.8927 29.5659 34.0319 29.5286C34.1711 29.4913 34.3016 29.4268 34.416 29.3387C34.5305 29.2507 34.6265 29.1408 34.6987 29.0155C35.0027 28.491 34.8239 27.8136 34.2964 27.5079Z" fill="#2F2F2F"/>
<defs>
<linearGradient id="paint0_linear" x1="20.8601" y1="3.67749" x2="20.8601" y2="38.2857" gradientUnits="userSpaceOnUse">
<stop stop-color="#F9F9F9"/>
<stop offset="1" stop-color="#8F8E8E" stop-opacity="0"/>
</linearGradient>
<linearGradient id="paint1_linear" x1="20.8616" y1="1.82825" x2="20.8616" y2="40.132" gradientUnits="userSpaceOnUse">
<stop stop-color="#2B2B2B"/>
<stop offset="1" stop-color="#5F5F5F"/>
</linearGradient>
<linearGradient id="paint2_linear" x1="20.8616" y1="0" x2="20.8616" y2="41.9602" gradientUnits="userSpaceOnUse">
<stop offset="0.255208" stop-color="#4D4D4D"/>
<stop offset="1" stop-color="#2D2D2D" stop-opacity="0"/>
</linearGradient>
</defs>
</svg>
