<svg width="49" height="55" viewBox="0 0 49 55" fill="none" xmlns="http://www.w3.org/2000/svg">
<path d="M34.5 28.2001H14.5C12.78 31.9901 12.85 34.6301 12.5 38.2001C13.2188 37.5302 14.0706 37.0191 15 36.7001C15.3218 38.432 16.1995 40.0118 17.5 41.2001H31.5C32.8005 40.0118 33.6782 38.432 34 36.7001C34.9294 37.0191 35.7812 37.5302 36.5 38.2001C36.15 34.6301 36.22 31.9901 34.5 28.2001Z" fill="#933228"/>
<path d="M14.5 28.2001C12.78 31.9901 12.85 34.6301 12.5 38.2001C13.2188 37.5302 14.0706 37.0191 15 36.7001C15.3218 38.432 16.1995 40.0118 17.5 41.2001" stroke="#333333" stroke-width="1.5" stroke-linecap="round" stroke-linejoin="round"/>
<path d="M34.5 28.2001C36.22 31.9901 36.15 34.6301 36.5 38.2001C35.7812 37.5302 34.9294 37.0191 34 36.7001C33.6782 38.432 32.8005 40.0118 31.5 41.2001" stroke="#333333" stroke-width="1.5" stroke-linecap="round" stroke-linejoin="round"/>
<path d="M47.61 47.4201C47.3991 46.38 46.8986 45.4207 46.1661 44.6529C45.4336 43.885 44.499 43.3398 43.47 43.0801L31 40.2301V34.7001H17.5V40.2301L5.43 43.0801C4.40072 43.337 3.46582 43.8816 2.7345 44.6501C2.00317 45.4186 1.50563 46.3793 1.3 47.4201L1 49.2801C3 50.3501 12.12 54.2201 24.5 54.2201C32.5291 54.2327 40.4723 52.5671 47.82 49.3301L47.61 47.4201Z" fill="#EFE0E7"/>
<path d="M36.21 45.4501L39.21 42.1201L31 40.2301V34.7001H17.5V37.2001L25.64 45.4301C27.0407 46.8297 28.9399 47.6159 30.92 47.6159C32.9001 47.6159 34.7993 46.8297 36.2 45.4301L36.21 45.4501Z" fill="#EACACF"/>
<path d="M17.5 40.2301L5.43 43.0801C4.40072 43.3371 3.46582 43.8816 2.7345 44.6501C2.00317 45.4186 1.50563 46.3794 1.3 47.4201L1 49.2801L1.1 49.3301C8.47508 52.5707 16.4444 54.2395 24.5 54.2301C32.5287 54.2284 40.4696 52.5599 47.82 49.3301L47.61 47.4201C47.3991 46.38 46.8986 45.4208 46.1661 44.6529C45.4336 43.885 44.499 43.3398 43.47 43.0801L31 40.2301" stroke="#333333" stroke-width="1.5" stroke-linejoin="round"/>
<path d="M17.5 35.2001V42.7001" stroke="#333333" stroke-width="1.5" stroke-linejoin="round"/>
<path d="M31 35.7001V42.7001" stroke="#333333" stroke-width="1.5" stroke-linejoin="round"/>
<path d="M24.5 39.2001C27.33 39.6601 28.36 38.6801 29.43 37.3701C32.21 34.1901 32.12 35.2601 32.91 31.8001C33.1815 30.7824 33.3787 29.7463 33.5 28.7001C35 28.7001 35.76 26.7901 36.5 24.2001C37.15 21.9501 36.96 20.3501 35 20.7001V17.7001C35 12.2401 32.57 7.12006 24.5 7.12006C16.43 7.12006 14 12.2401 14 17.7001V20.7001C12 20.3501 11.85 21.9501 12.5 24.2001C13.24 26.7901 14 28.7001 15.5 28.7001C15.6212 29.7463 15.8184 30.7824 16.09 31.8001C16.88 35.2601 16.79 34.1901 19.57 37.3701C20.64 38.7001 21.67 39.7001 24.5 39.2001Z" fill="#EDBED2"/>
<path d="M22.6801 7.23005C22.1701 7.29005 21.6801 7.37005 21.2301 7.47005V19.4701C21.1801 20.2301 20.7701 20.3801 20.1701 20.7701C20.1195 20.7991 20.0793 20.8432 20.055 20.8962C20.0307 20.9492 20.0236 21.0085 20.0346 21.0657C20.0456 21.123 20.0742 21.1754 20.1164 21.2156C20.1586 21.2558 20.2124 21.2818 20.2701 21.2901C21.2701 21.4901 22.6901 21.8801 23.2701 22.8201C23.2888 22.8397 23.3112 22.8554 23.3362 22.8661C23.3611 22.8768 23.3879 22.8823 23.4151 22.8823C23.4422 22.8823 23.469 22.8768 23.494 22.8661C23.5189 22.8554 23.5414 22.8397 23.5601 22.8201C24.0801 22.2201 24.5601 22.3701 24.5601 22.7001V26.7001C24.5601 26.7001 25.0701 26.7001 25.1801 27.5301C25.2701 28.1301 25.1801 28.5301 24.5601 28.5301C23.7501 28.5301 23.6401 27.8201 22.5601 28.0101C22.1301 28.0901 22.4101 28.9601 22.3901 28.9401C22.5997 28.8569 22.8289 28.836 23.0501 28.8801C23.5701 29.1301 23.9601 29.5101 24.5401 29.5101V32.5101C24.5305 32.6098 24.5305 32.7103 24.5401 32.8101H21.7601C21.6393 32.8028 21.5188 32.8279 21.411 32.8828C21.3031 32.9377 21.2119 33.0204 21.1467 33.1223C21.0815 33.2242 21.0446 33.3417 21.0399 33.4626C21.0353 33.5835 21.0629 33.7034 21.1201 33.8101L21.4601 34.5801C21.5546 34.8073 21.7245 34.9951 21.9413 35.1116C22.158 35.2282 22.4084 35.2665 22.6501 35.2201C23.2606 35.1105 23.8798 35.057 24.5001 35.0601C25.1706 35.0549 25.8401 35.1118 26.5001 35.2301C26.5399 35.225 26.5802 35.225 26.6201 35.2301C26.7014 35.4613 26.742 35.7049 26.7401 35.9501C26.7401 39.3701 21.3001 36.2501 21.3001 38.9501C22.3134 39.4074 23.4515 39.5096 24.5301 39.2401C27.3601 39.7001 28.3901 38.7201 29.4601 37.4101C32.2401 34.2301 32.1501 35.3001 32.9401 31.8401C33.2034 30.8085 33.3906 29.759 33.5001 28.7001C35.0001 28.7001 35.7601 26.7901 36.5001 24.2001C37.1501 21.9501 36.9601 20.3501 35.0001 20.7001V17.7001C35.0001 12.2401 32.5701 7.12005 24.5001 7.12005C23.9355 7.1185 23.3713 7.14855 22.8101 7.21005L22.6801 7.23005Z" fill="#F1AEB7"/>
<path d="M35 11.4501L31.91 17.7001C31.7642 17.9731 31.6859 18.277 31.6816 18.5864C31.6772 18.8958 31.747 19.2018 31.885 19.4788C32.023 19.7558 32.2252 19.9957 32.4749 20.1786C32.7245 20.3615 33.0143 20.482 33.32 20.5301C33.4328 20.5451 33.5471 20.5451 33.66 20.5301L35 20.4201V17.7001C35 14.3501 37.58 13.4401 35 11.4501Z" fill="#E5A3AE"/>
<path d="M21.05 32.8101L21.03 33.6301" stroke="#D89AA4" stroke-width="0.75" stroke-miterlimit="10" stroke-linecap="round"/>
<path d="M27.8999 32.8101L27.9199 33.6301" stroke="#D89AA4" stroke-width="0.75" stroke-miterlimit="10" stroke-linecap="round"/>
<path d="M24.48 29.6301V30.8701" stroke="#D89AA4" stroke-width="0.75" stroke-miterlimit="10" stroke-linecap="round"/>
<path d="M26.5999 28.91C25.5999 28.35 25.4299 29.48 24.4799 29.48C23.5299 29.48 23.2999 28.36 22.3499 28.91" stroke="#C17C87" stroke-width="0.75" stroke-miterlimit="10" stroke-linecap="round"/>
<path d="M32.9999 14.0201V12.3701C33.0001 12.2806 32.966 12.1945 32.9046 12.1294C32.8432 12.0643 32.7592 12.0252 32.6699 12.0201C32.5945 12.0221 32.5214 12.0464 32.4599 12.0901C29.0802 14.9802 25.0584 17.0203 20.7299 18.0401C20.6725 18.0513 20.6191 18.0776 20.5751 18.1162C20.5312 18.1549 20.4983 18.2045 20.4799 18.2601L20.0699 19.5401C20.0559 19.5828 20.0505 19.6278 20.054 19.6725C20.0575 19.7173 20.0698 19.761 20.0903 19.8009C20.1107 19.8409 20.1389 19.8764 20.1732 19.9055C20.2074 19.9345 20.2471 19.9565 20.2899 19.9701C20.3456 19.9854 20.4043 19.9854 20.4599 19.9701C24.9565 19.0138 29.1869 17.0779 32.8499 14.3001C32.8971 14.2705 32.9358 14.2291 32.9621 14.18C32.9884 14.1309 33.0015 14.0758 32.9999 14.0201Z" fill="#DBA2AC"/>
<path d="M27.23 14.7001H18.36L15.29 26.0501H18.32L17.74 33.0301L25.89 21.7901H23.35L27.23 14.7001Z" fill="#4E9DBC"/>
<path d="M28.6699 14.7001H19.9499L16.4299 26.0501H19.4699L17.7399 33.0301L27.0599 21.7901H24.5199L28.6699 14.7001Z" fill="#ED7368"/>
<path d="M19.47 26.05L17.74 33.0301" stroke="#333333" stroke-width="0.5" stroke-linecap="round" stroke-linejoin="round"/>
<path d="M19.9499 14.7001L16.4299 26.0501" stroke="#333333" stroke-width="0.5" stroke-linecap="round" stroke-linejoin="round"/>
<path d="M20.7299 18.0401C20.6725 18.0513 20.6191 18.0776 20.5751 18.1162C20.5312 18.1549 20.4983 18.2045 20.4799 18.2601L20.0699 19.5401C20.0559 19.5827 20.0505 19.6278 20.054 19.6725C20.0575 19.7173 20.0698 19.761 20.0903 19.8009C20.1107 19.8409 20.1389 19.8764 20.1732 19.9055C20.2074 19.9345 20.2471 19.9565 20.2899 19.9701C20.3456 19.9854 20.4043 19.9854 20.4599 19.9701C22.6379 19.504 24.76 18.8067 26.7899 17.8901L28.5699 14.8901C26.1476 16.3641 23.4987 17.4284 20.7299 18.0401Z" fill="#CE635D"/>
<path d="M14.5 17.2001V18.7001C16.5336 18.47 18.5181 17.9199 20.38 17.0701L21 15.2001C19.5 16.2001 17.5 16.7001 14.5 17.2001Z" fill="#DBA2AC"/>
<path d="M17.8599 16.5101L17.4199 18.1201C18.4612 17.9014 19.4696 17.5485 20.4199 17.0701L20.9999 15.2001C20.033 15.8076 18.9719 16.2503 17.8599 16.5101Z" fill="#428EA5"/>
<path d="M19.55 15.9501L19 17.7001C19.4661 17.5342 19.9205 17.3371 20.36 17.1101L21 15.2001C20.5435 15.4989 20.0576 15.7502 19.55 15.9501Z" fill="#CE635D"/>
<path d="M24.5 39.2001C27.33 39.6601 28.36 38.6801 29.43 37.3701C32.21 34.1901 32.12 35.2601 32.91 31.8001C33.1815 30.7824 33.3787 29.7463 33.5 28.7001C35 28.7001 35.76 26.7901 36.5 24.2001C37.15 21.9501 36.96 20.3501 35 20.7001V17.7001C35 12.2401 32.57 7.12006 24.5 7.12006C16.43 7.12006 14 12.2401 14 17.7001V20.7001C12 20.3501 11.85 21.9501 12.5 24.2001C13.24 26.7901 14 28.7001 15.5 28.7001C15.6212 29.7463 15.8184 30.7824 16.09 31.8001C16.88 35.2601 16.79 34.1901 19.57 37.3701C20.64 38.7001 21.67 39.7001 24.5 39.2001Z" stroke="#333333" stroke-width="1.5" stroke-linecap="round" stroke-linejoin="round"/>
<path d="M36.4999 10.2001L38.4999 7.70007C37.5658 7.01127 36.4404 6.63032 35.2799 6.61007L35.7599 5.35007C34.8522 5.18947 33.9178 5.28291 33.0599 5.62007C31.9999 2.53007 27.4999 0.700073 27.4999 0.700073V2.70007C25.6999 0.900073 21.5499 1.16007 19.5599 2.15007C17.5889 2.73191 15.5534 3.0678 13.4999 3.15007L14.9999 5.15007C13.9004 6.08856 12.7302 6.94107 11.4999 7.70007C12.049 8.22956 12.7469 8.5785 13.4999 8.70007C12.8392 9.24263 12.3143 9.93199 11.9671 10.7133C11.6198 11.4945 11.4599 12.3461 11.4999 13.2001L12.9999 12.7001C12.4999 17.2001 14.4999 22.2001 14.4999 22.2001V17.2001C16.2699 17.3901 19.9999 16.3101 20.9999 15.2001L19.9999 18.2001C28.5299 15.4501 31.5299 13.0301 32.9999 11.7001V14.7001C34.0929 17.044 34.6073 19.6161 34.4999 22.2001C35.4505 19.8117 35.9588 17.2703 35.9999 14.7001L37.9999 13.7001C37.6628 12.4701 37.1581 11.2924 36.4999 10.2001Z" fill="#9E542B"/>
<path d="M36.4999 10.2001L38.4999 7.70007C36.4495 7.56434 34.3955 7.90667 32.4999 8.70007C31.8517 6.86044 30.6234 5.28118 28.9999 4.20007L28.4999 6.20007C26.6999 4.40007 22.4999 3.71007 20.4999 4.70007C18.1521 5.56282 15.7231 6.18599 13.2499 6.56007C13.5599 7.29007 14.2499 7.38007 14.9999 7.75007C14.0926 8.62771 13.1414 9.45878 12.1499 10.2401C12.304 10.502 12.5209 10.7215 12.781 10.8786C13.0412 11.0357 13.3363 11.1256 13.6399 11.1401C11.9099 12.8301 13.4599 19.6101 14.4999 22.2001V17.2001C17.4999 16.7001 19.4999 16.2001 20.9999 15.2001L19.9999 18.2001C27.4999 16.7001 31.3499 12.8001 32.9999 11.7001V14.7001C34.0869 17.046 34.6011 19.6165 34.4999 22.2001C36.4999 17.2001 35.9999 14.7001 35.9999 14.7001L37.9999 13.7001C38.0499 13.2001 37.5399 12.2801 36.4999 10.2001Z" fill="#933228"/>
<path d="M34.1801 22.0701C35.0795 19.7173 35.5371 17.2189 35.5301 14.7001C35.5311 14.6168 35.5537 14.5352 35.5958 14.4633C35.6379 14.3914 35.698 14.3317 35.7701 14.2901L37.7701 13.2901L37.5101 13.8701C37.1692 12.6745 36.6608 11.5332 36.0001 10.4801C35.9358 10.3914 35.9012 10.2846 35.9012 10.1751C35.9012 10.0655 35.9358 9.95879 36.0001 9.87007L38.0001 7.35007L38.1101 8.17007C37.2652 7.56918 36.2568 7.24116 35.2201 7.23007C35.1404 7.23008 35.0616 7.21424 34.9881 7.18346C34.9147 7.15269 34.8481 7.10759 34.7922 7.05081C34.7364 6.99404 34.6924 6.92671 34.6629 6.85275C34.6333 6.7788 34.6188 6.6997 34.6201 6.62007C34.6051 6.55425 34.6051 6.48589 34.6201 6.42007L35.0901 5.16007L35.5601 5.99007C34.7677 5.8602 33.9549 5.95012 33.2101 6.25007C33.132 6.28272 33.0482 6.29956 32.9636 6.29961C32.879 6.29966 32.7952 6.28293 32.717 6.25038C32.6389 6.21783 32.568 6.17011 32.5085 6.10998C32.4489 6.04985 32.4019 5.9785 32.3701 5.90007C31.9089 4.84558 31.1776 3.93148 30.2501 3.25007C29.7746 2.88141 29.2733 2.54722 28.7501 2.25007C28.2334 1.9484 27.6991 1.67792 27.1501 1.44007L28.1501 0.770071V2.77007C28.1501 2.96726 28.0725 3.15653 27.934 3.2969C27.7955 3.43727 27.6073 3.51744 27.4101 3.52007C27.2459 3.47527 27.1016 3.37667 27.0001 3.24007C26.0467 2.48529 24.8553 2.09527 23.6401 2.14007C22.3645 2.09505 21.0946 2.33059 19.9201 2.83007H19.8101C17.781 3.42697 15.6841 3.76301 13.5701 3.83007L14.0601 2.70007L15.5401 4.70007C15.6408 4.83734 15.6855 5.0078 15.6651 5.17683C15.6446 5.34585 15.5606 5.50076 15.4301 5.61007C14.2978 6.56242 13.0906 7.42187 11.8201 8.18007L11.9201 7.18007C12.3776 7.63 12.9592 7.93295 13.5901 8.05007C13.6659 8.0633 13.7383 8.09147 13.8031 8.13295C13.8678 8.17442 13.9237 8.22837 13.9675 8.29166C14.0112 8.35494 14.0419 8.42629 14.0578 8.50156C14.0737 8.57683 14.0745 8.6545 14.0601 8.73007C14.0315 8.86987 13.9577 8.99637 13.8501 9.09007C13.2507 9.56657 12.7706 10.1761 12.4477 10.8704C12.1249 11.5647 11.9682 12.3247 11.9901 13.0901L11.3301 12.7001L12.8401 12.2201C12.9031 12.2 12.9695 12.1926 13.0354 12.1983C13.1013 12.2041 13.1654 12.2228 13.224 12.2535C13.2826 12.2842 13.3345 12.3262 13.3768 12.3771C13.419 12.428 13.4507 12.4868 13.4701 12.5501C13.4853 12.6192 13.4853 12.6909 13.4701 12.7601C13.3088 14.3234 13.3626 15.9014 13.6301 17.4501C13.8688 19.0235 14.2573 20.5705 14.7901 22.0701C14.8219 22.1549 14.8187 22.249 14.7812 22.3315C14.7437 22.414 14.675 22.4782 14.5901 22.5101C14.5052 22.5419 14.4112 22.5387 14.3287 22.5012C14.2462 22.4637 14.1819 22.3949 14.1501 22.3101C13.5583 20.7842 13.1064 19.2077 12.8001 17.6001C12.4656 15.9558 12.3646 14.2726 12.5001 12.6001L13.1601 13.1401L11.6701 13.7001C11.5401 13.7448 11.3977 13.7362 11.2741 13.6763C11.1504 13.6163 11.0555 13.5098 11.0101 13.3801C11.0007 13.3339 11.0007 13.2863 11.0101 13.2401C10.9518 12.2975 11.115 11.3543 11.4866 10.486C11.8582 9.61781 12.4279 8.84863 13.1501 8.24007L13.4301 9.24007C12.5578 9.10506 11.7462 8.71142 11.1001 8.11007C10.9859 7.99409 10.9219 7.83784 10.9219 7.67507C10.9219 7.5123 10.9859 7.35606 11.1001 7.24007L11.2201 7.14007C12.4142 6.38618 13.5476 5.54028 14.6101 4.61007L14.5101 5.53007L12.9901 3.53007C12.9313 3.45657 12.8879 3.37196 12.8625 3.2813C12.8371 3.19063 12.8303 3.09579 12.8424 3.00243C12.8546 2.90907 12.8854 2.81912 12.9331 2.73796C12.9808 2.65679 13.0444 2.58609 13.1201 2.53007C13.2333 2.44566 13.3691 2.39692 13.5101 2.39007C15.5036 2.29845 17.4784 1.96261 19.3901 1.39007H19.2701C19.9644 1.06133 20.7017 0.832393 21.4601 0.710071C22.1958 0.578609 22.9429 0.521654 23.6901 0.540071C24.455 0.555136 25.2146 0.669424 25.9501 0.880071C26.7264 1.14063 27.4293 1.58291 28.0001 2.17007L26.7501 2.70007V0.700071C26.7514 0.60683 26.7711 0.514759 26.8079 0.429116C26.8448 0.343473 26.8982 0.265936 26.9651 0.200933C27.032 0.135931 27.111 0.0847352 27.1976 0.0502709C27.2843 0.0158067 27.3769 -0.00125109 27.4701 7.14134e-05C27.5668 -0.00133346 27.6625 0.0191799 27.7501 0.0600714C28.3636 0.329714 28.9583 0.640418 29.5301 0.990071C30.1031 1.33435 30.6512 1.71864 31.1701 2.14007C32.2865 2.98908 33.1451 4.13156 33.6501 5.44007L32.8001 5.05007C33.7555 4.68341 34.7933 4.58654 35.8001 4.77007C35.8805 4.78314 35.9575 4.81246 36.0262 4.85625C36.0949 4.90003 36.154 4.95736 36.1999 5.02473C36.2457 5.0921 36.2774 5.16811 36.2929 5.24811C36.3084 5.32812 36.3074 5.41045 36.2901 5.49007C36.2959 5.52651 36.2959 5.56363 36.2901 5.60007L35.8001 6.86007L35.2401 6.03007C36.5221 6.07238 37.7606 6.50499 38.7901 7.27007C38.85 7.31529 38.9003 7.37189 38.9382 7.43661C38.9762 7.50133 39.001 7.57291 39.0112 7.64723C39.0214 7.72156 39.0169 7.79717 38.9978 7.86973C38.9787 7.94229 38.9455 8.01037 38.9001 8.07007L36.9001 10.5501V9.93007C37.5772 11.0698 38.0921 12.2982 38.4301 13.5801C38.4601 13.6905 38.4506 13.8079 38.4031 13.9121C38.3556 14.0162 38.2732 14.1004 38.1701 14.1501L36.1701 15.1501L36.4301 14.7401C36.3507 17.3596 35.7914 19.9423 34.7801 22.3601C34.7368 22.4309 34.6698 22.4841 34.5909 22.5101C34.5121 22.5361 34.4266 22.5332 34.3496 22.5019C34.2727 22.4707 34.2094 22.4131 34.171 22.3395C34.1327 22.2659 34.1217 22.181 34.1401 22.1001L34.1801 22.0701Z" fill="#333333"/>
<path d="M14.1599 22.2L13.9999 17.2C13.9973 17.1362 14.0074 17.0724 14.0297 17.0125C14.052 16.9526 14.086 16.8978 14.1298 16.8512C14.1735 16.8046 14.2262 16.7673 14.2846 16.7413C14.343 16.7154 14.406 16.7013 14.4699 16.7H14.5499C15.6424 16.6988 16.7271 16.5163 17.7599 16.16C18.2829 15.9948 18.794 15.7943 19.2899 15.56C19.7415 15.3634 20.1571 15.0931 20.5199 14.76C20.6414 14.641 20.8048 14.5742 20.9749 14.5742C21.1451 14.5742 21.3084 14.641 21.4299 14.76C21.5212 14.8426 21.5867 14.9497 21.6186 15.0685C21.6505 15.1874 21.6475 15.3129 21.6099 15.43L20.6599 18.43L19.7899 17.55C22.0699 16.76 24.3399 15.91 26.5199 14.91C28.6864 13.9823 30.7073 12.7462 32.5199 11.24C32.5823 11.1855 32.6548 11.1437 32.7333 11.1172C32.8117 11.0906 32.8947 11.0798 32.9774 11.0854C33.0601 11.091 33.1408 11.1128 33.215 11.1496C33.2893 11.1865 33.3555 11.2376 33.4099 11.3C33.4627 11.3579 33.5031 11.4258 33.5289 11.4997C33.5547 11.5736 33.5652 11.652 33.5599 11.73L33.4899 14.73L33.4399 14.49C34.5134 16.9248 34.9702 19.5867 34.7699 22.24C34.7699 22.3302 34.7341 22.4167 34.6704 22.4805C34.6066 22.5442 34.5201 22.58 34.4299 22.58C34.3398 22.58 34.2533 22.5442 34.1895 22.4805C34.1258 22.4167 34.0899 22.3302 34.0899 22.24C34.1007 19.7268 33.5291 17.2453 32.4199 14.99C32.3893 14.9241 32.3723 14.8527 32.3699 14.78L32.2999 11.78L33.3599 12.25C31.5027 13.9481 29.3817 15.3329 27.0799 16.35C24.8302 17.3752 22.5112 18.2406 20.1399 18.94C19.9649 18.9903 19.7772 18.9704 19.6166 18.8845C19.4561 18.7986 19.3353 18.6535 19.2799 18.48C19.2396 18.3395 19.2396 18.1906 19.2799 18.05L20.3299 15.05L21.4199 15.68C20.9507 16.1212 20.4006 16.4676 19.7999 16.7C19.2415 16.935 18.6666 17.1289 18.0799 17.28C17.4979 17.4389 16.9068 17.5624 16.3099 17.65C15.6922 17.7257 15.0676 17.7257 14.4499 17.65L14.9999 17.2L14.8399 22.2C14.8399 22.2902 14.8041 22.3767 14.7403 22.4405C14.6766 22.5042 14.5901 22.54 14.4999 22.54C14.4098 22.54 14.3233 22.5042 14.2595 22.4405C14.1958 22.3767 14.1599 22.2902 14.1599 22.2Z" fill="#772A26"/>
<path d="M14.4899 14.5401C15.7069 14.1556 16.9021 13.7049 18.0699 13.1901C19.2399 12.6901 20.3699 12.1101 21.4799 11.5001C22.5899 10.8901 23.6799 10.2801 24.7399 9.59009C25.797 8.87881 26.7998 8.08997 27.7399 7.23009C27.8037 7.16658 27.89 7.13092 27.9799 7.13092C28.0699 7.13092 28.1562 7.16658 28.2199 7.23009C28.2678 7.29155 28.2937 7.3672 28.2937 7.44509C28.2937 7.52297 28.2678 7.59863 28.2199 7.66009C27.4112 8.72368 26.4891 9.69608 25.4699 10.5601C24.4588 11.4357 23.3518 12.1939 22.1699 12.8201C20.9798 13.4131 19.7462 13.9146 18.4799 14.3201C17.2176 14.7239 15.9228 15.0184 14.6099 15.2001C14.519 15.2089 14.4281 15.1828 14.3557 15.1271C14.2833 15.0714 14.2347 14.9902 14.2199 14.9001C14.2094 14.82 14.2278 14.7387 14.2718 14.6709C14.3158 14.6031 14.3825 14.5532 14.4599 14.5301L14.4899 14.5401Z" fill="#772A26"/>
<path d="M22.9399 14.6201C24.1699 13.5701 25.4199 12.5501 26.5899 11.4801C27.1799 10.9601 27.8299 10.4801 28.4299 9.98006C29.0299 9.48006 29.6099 8.98006 30.1799 8.37006C30.2117 8.3371 30.2497 8.31087 30.2918 8.29296C30.3339 8.27504 30.3792 8.26581 30.4249 8.26581C30.4707 8.26581 30.516 8.27504 30.5581 8.29296C30.6002 8.31087 30.6382 8.3371 30.6699 8.37006C30.7223 8.42311 30.7564 8.49149 30.7671 8.56523C30.7779 8.63898 30.7649 8.71424 30.7299 8.78006C30.3301 9.52393 29.8542 10.2243 29.31 10.8701C28.7878 11.5358 28.2017 12.1487 27.56 12.7001C26.2407 13.7186 24.8037 14.5748 23.2799 15.2501C23.2386 15.2682 23.1941 15.2779 23.149 15.2786C23.1039 15.2793 23.0591 15.2711 23.0172 15.2543C22.9754 15.2376 22.9372 15.2126 22.9051 15.181C22.8729 15.1494 22.8474 15.1117 22.8299 15.0701C22.8005 15.0016 22.7943 14.9254 22.8124 14.8532C22.8305 14.7809 22.8718 14.7166 22.9299 14.6701L22.9399 14.6201Z" fill="#772A26"/>
<path d="M25.55 31.9401L24.55 32.2601L23.49 31.9401C22.6564 32.0915 21.8692 32.4337 21.19 32.9401C21.1281 33.0067 21.0938 33.0942 21.0938 33.1851C21.0938 33.2759 21.1281 33.3635 21.19 33.4301C21.6483 33.8305 22.1837 34.1329 22.7633 34.3186C23.3428 34.5043 23.9543 34.5695 24.56 34.5101C25.7633 34.5956 26.9531 34.2122 27.88 33.4401C27.9148 33.4073 27.9425 33.3678 27.9615 33.324C27.9805 33.2801 27.9902 33.2328 27.9902 33.1851C27.9902 33.1373 27.9805 33.09 27.9615 33.0462C27.9425 33.0023 27.9148 32.9628 27.88 32.9301C27.2011 32.4056 26.3987 32.0647 25.55 31.9401Z" fill="#CF7C91"/>
<path d="M27.9301 33.3901C27.3401 33.4501 26.7601 33.3901 26.2001 33.4401H24.4901C23.9101 33.4401 23.3401 33.4401 22.7801 33.4401C22.2201 33.4401 21.6301 33.4401 21.0401 33.3901C20.995 33.3901 20.9518 33.3722 20.9199 33.3403C20.888 33.3084 20.8701 33.2652 20.8701 33.2201C20.8701 33.175 20.888 33.1317 20.9199 33.0999C20.9518 33.068 20.995 33.0501 21.0401 33.0501C22.1804 32.8523 23.3333 32.7354 24.4901 32.7001C25.0601 32.7001 25.6401 32.7001 26.2201 32.8001C26.8001 32.9001 27.3701 32.9701 27.9301 33.0201C27.9525 33.0225 27.9742 33.0295 27.9939 33.0404C28.0136 33.0513 28.0309 33.066 28.0449 33.0837C28.0588 33.1014 28.0691 33.1217 28.0752 33.1433C28.0812 33.165 28.0829 33.1877 28.0801 33.2101C28.0829 33.2319 28.0812 33.254 28.075 33.2751C28.0688 33.2962 28.0584 33.3159 28.0443 33.3327C28.0302 33.3496 28.0128 33.3634 27.9932 33.3733C27.9735 33.3832 27.9521 33.3889 27.9301 33.3901Z" fill="#855048"/>
<path d="M27.5701 22.8001C27.5701 22.8001 31.1001 20.7001 33.0001 21.9001C34.9001 23.1001 33.0001 23.7001 33.0001 23.7001L30.6901 22.9301L27.8601 23.1901L27.5701 22.8001Z" fill="#FBC0E9"/>
<path d="M32.9999 23.7001C30.1599 22.5301 29.8899 21.7601 27.5699 22.7701C26.7599 23.1201 25.5699 24.0001 26.2099 24.7701C26.9299 25.7101 27.6199 23.4301 29.0299 23.4301C29.7195 23.4467 30.3883 23.6696 30.9499 24.0701C30.9965 24.1004 31.0346 24.1419 31.0608 24.1909C31.087 24.2398 31.1005 24.2946 31.0999 24.3501C31.117 24.412 31.1166 24.4774 31.099 24.5391C31.0814 24.6008 31.0471 24.6565 30.9999 24.7001C30.8299 24.8501 30.5999 25.0401 30.3499 25.2201C30.328 25.2469 30.316 25.2805 30.316 25.3151C30.316 25.3497 30.328 25.3833 30.3499 25.4101C30.3671 25.4437 30.3956 25.4701 30.4303 25.4848C30.4651 25.4994 30.5039 25.5013 30.5399 25.4901C31.4599 25.1601 32.7699 24.6201 32.9999 23.7001Z" fill="#D77178"/>
<path d="M29.03 24.9501C29.4442 24.9501 29.78 24.6143 29.78 24.2001C29.78 23.7859 29.4442 23.4501 29.03 23.4501C28.6158 23.4501 28.28 23.7859 28.28 24.2001C28.28 24.6143 28.6158 24.9501 29.03 24.9501Z" fill="#333333"/>
<path d="M27.21 24.6201C27.81 24.2701 29.37 22.2701 31.38 24.2701C31.6392 24.1516 31.8761 23.9892 32.08 23.7901C31.0987 23.2934 29.965 23.1897 28.91 23.5001" fill="#3A3A3A"/>
<path d="M27.21 24.6201C27.81 24.2701 29.37 22.2701 31.38 24.2701C31.6392 24.1516 31.8761 23.9892 32.08 23.7901C31.0987 23.2934 29.965 23.1897 28.91 23.5001" stroke="#333333" stroke-width="0.5252" stroke-miterlimit="10" stroke-linecap="round"/>
<path d="M21.4699 22.8001C21.4699 22.8001 17.9999 20.7001 16.0699 21.9001C14.1399 23.1001 15.9999 23.7001 15.9999 23.7001L18.3099 22.9301L21.1499 23.1901L21.4699 22.8001Z" fill="#FBC0E9"/>
<path d="M16 23.7001C18.84 22.5301 19.11 21.7601 21.43 22.7701C22.24 23.1201 23.43 24.0001 22.8 24.7701C22.07 25.7101 21.38 23.4301 19.97 23.4301C19.2834 23.4462 18.6177 23.6693 18.06 24.0701C18.0139 24.1017 17.9756 24.1432 17.9479 24.1917C17.9202 24.2402 17.9038 24.2944 17.9 24.3501C17.898 24.4052 17.9087 24.4599 17.9313 24.5102C17.9538 24.5605 17.9876 24.6049 18.03 24.6401C18.2 24.7901 18.42 24.9801 18.67 25.1601C18.6998 25.1804 18.7213 25.2109 18.7304 25.2458C18.7396 25.2807 18.7359 25.3177 18.72 25.3501C18.7047 25.3829 18.6781 25.4091 18.645 25.4238C18.6119 25.4385 18.5746 25.4407 18.54 25.4301C17.58 25.1601 16.27 24.6201 16 23.7001Z" fill="#D77178"/>
<path d="M21.8299 24.6201C21.2299 24.2701 19.6699 22.2701 17.6599 24.2701C17.926 24.6415 18.2775 24.9434 18.6847 25.1505C19.092 25.3576 19.543 25.4638 19.9999 25.4601C20.3488 25.4688 20.695 25.3976 21.0122 25.252C21.3294 25.1064 21.609 24.8903 21.8299 24.6201Z" fill="#F1AEB7"/>
<path d="M20.01 24.9501C20.4242 24.9501 20.76 24.6143 20.76 24.2001C20.76 23.7859 20.4242 23.4501 20.01 23.4501C19.5958 23.4501 19.26 23.7859 19.26 24.2001C19.26 24.6143 19.5958 24.9501 20.01 24.9501Z" fill="#333333"/>
<path d="M21.83 24.6201C21.23 24.2701 19.67 22.2701 17.66 24.2701C17.4007 24.1516 17.1639 23.9892 16.96 23.7901C17.9412 23.2934 19.0749 23.1897 20.13 23.5001" fill="#3A3A3A"/>
<path d="M21.83 24.6201C21.23 24.2701 19.67 22.2701 17.66 24.2701C17.4007 24.1516 17.1639 23.9892 16.96 23.7901C17.9412 23.2934 19.0749 23.1897 20.13 23.5001" stroke="#333333" stroke-width="0.5252" stroke-miterlimit="10" stroke-linecap="round"/>
</svg>
