<svg width="60" height="54" viewBox="0 0 60 54" fill="none" xmlns="http://www.w3.org/2000/svg">
<path d="M9.40997 18.08H9.51997C9.73519 17.9945 9.96524 17.9526 10.1968 17.9567C10.4283 17.9608 10.6568 18.0108 10.8688 18.1038C11.0809 18.1968 11.2724 18.331 11.4322 18.4986C11.5921 18.6661 11.7171 18.8638 11.8 19.08L18.55 35.97C18.5742 36.027 18.5867 36.0883 18.5866 36.1502C18.5866 36.2121 18.5741 36.2734 18.5498 36.3303C18.5255 36.3873 18.49 36.4388 18.4453 36.4817C18.4007 36.5246 18.3479 36.558 18.29 36.58L15.79 37.58C15.7322 37.6026 15.6706 37.6135 15.6086 37.6121C15.5466 37.6107 15.4855 37.5971 15.4288 37.572C15.3721 37.5469 15.3209 37.5108 15.2782 37.4659C15.2355 37.4209 15.2021 37.3679 15.18 37.31L8.41997 20.37C8.33449 20.1548 8.29258 19.9247 8.29666 19.6932C8.30074 19.4616 8.35074 19.2332 8.44376 19.0211C8.53677 18.8091 8.67096 18.6176 8.83853 18.4577C9.0061 18.2979 9.20373 18.1729 9.41997 18.09L9.40997 18.08Z" fill="#333333"/>
<path d="M9.83989 20.82C9.69486 20.439 9.7047 20.0164 9.8673 19.6427C10.0299 19.2689 10.3323 18.9736 10.7099 18.82L11.1899 18.63C11.3086 18.5815 11.4329 18.548 11.5599 18.53C11.3552 18.2475 11.0617 18.0418 10.7263 17.9457C10.391 17.8496 10.0331 17.8687 9.70989 18L9.22989 18.19C8.85233 18.3436 8.54989 18.6389 8.3873 19.0127C8.2247 19.3864 8.21486 19.809 8.35989 20.19L15.2099 37.32C15.25 37.4205 15.3282 37.5011 15.4275 37.5442C15.5268 37.5873 15.6391 37.5893 15.7399 37.55L16.4099 37.28L9.83989 20.82Z" fill="#515151"/>
<path d="M9.40997 18.08H9.51997C9.73519 17.9945 9.96524 17.9526 10.1968 17.9567C10.4283 17.9608 10.6568 18.0108 10.8688 18.1038C11.0809 18.1968 11.2724 18.331 11.4322 18.4986C11.5921 18.6661 11.7171 18.8638 11.8 19.08L18.55 35.97C18.5742 36.027 18.5867 36.0883 18.5866 36.1502C18.5866 36.2121 18.5741 36.2734 18.5498 36.3303C18.5255 36.3873 18.49 36.4388 18.4453 36.4817C18.4007 36.5246 18.3479 36.558 18.29 36.58L15.79 37.58C15.7322 37.6026 15.6706 37.6135 15.6086 37.6121C15.5466 37.6107 15.4855 37.5971 15.4288 37.572C15.3721 37.5469 15.3209 37.5108 15.2782 37.4659C15.2355 37.4209 15.2021 37.3679 15.18 37.31L8.41997 20.37C8.33449 20.1548 8.29258 19.9247 8.29666 19.6932C8.30074 19.4616 8.35074 19.2332 8.44376 19.0211C8.53677 18.8091 8.67096 18.6176 8.83853 18.4577C9.0061 18.2979 9.20373 18.1729 9.41997 18.09V18.09L9.40997 18.08Z" stroke="#333333" stroke-width="1.5" stroke-linejoin="round"/>
<path d="M9.70989 18L9.22989 18.19C8.85233 18.3436 8.54989 18.6389 8.3873 19.0127C8.2247 19.3864 8.21486 19.809 8.35989 20.19L9.19989 22.3L12.5799 21L11.7299 18.89C11.6569 18.698 11.5465 18.5224 11.405 18.3735C11.2636 18.2246 11.094 18.1052 10.906 18.0224C10.7181 17.9396 10.5156 17.895 10.3102 17.8911C10.1049 17.8873 9.90081 17.9243 9.70989 18Z" fill="#7C7779"/>
<path d="M9.84014 20.82C9.69512 20.4391 9.70496 20.0165 9.86755 19.6427C10.0301 19.2689 10.3326 18.9736 10.7101 18.82L11.1901 18.63C11.3089 18.5816 11.4332 18.548 11.5601 18.53C11.4609 18.3909 11.3393 18.2692 11.2001 18.17L11.0501 18.07L11.0001 18H10.0001C9.90409 18.016 9.81016 18.0429 9.72014 18.08L9.24014 18.27C8.86258 18.4236 8.56015 18.7189 8.39755 19.0927C8.23496 19.4665 8.22512 19.8891 8.37014 20.27L9.21014 22.38L10.2701 22L9.84014 20.82Z" fill="#9B9B9B"/>
<path d="M9.70989 18L9.22989 18.19C8.85233 18.3436 8.54989 18.6389 8.3873 19.0127C8.2247 19.3864 8.21486 19.809 8.35989 20.19L9.19989 22.3L12.5799 21L11.7299 18.89C11.6569 18.698 11.5465 18.5224 11.405 18.3735C11.2636 18.2246 11.094 18.1052 10.906 18.0224C10.7181 17.9396 10.5156 17.895 10.3102 17.8911C10.1049 17.8873 9.90081 17.9243 9.70989 18V18Z" stroke="#333333" stroke-width="1.5" stroke-linejoin="round"/>
<path d="M11.1718 23.3765L11.0891 23.5695C10.9694 23.8487 11.0986 24.1721 11.3778 24.2918L11.5708 24.3745C11.85 24.4942 12.1733 24.365 12.293 24.0858L12.3758 23.8928C12.4955 23.6136 12.3663 23.2903 12.0871 23.1706L11.8941 23.0878C11.6149 22.9681 11.2915 23.0973 11.1718 23.3765Z" fill="#515151"/>
<path d="M12.0129 25.4821L11.9301 25.6751C11.8104 25.9543 11.9397 26.2776 12.2189 26.3974L12.4119 26.4801C12.691 26.5998 13.0144 26.4706 13.1341 26.1914L13.2169 25.9984C13.3366 25.7192 13.2073 25.3959 12.9281 25.2761L12.7351 25.1934C12.456 25.0737 12.1326 25.2029 12.0129 25.4821Z" fill="#515151"/>
<path d="M12.854 27.5877L12.7712 27.7807C12.6515 28.0599 12.7808 28.3832 13.0599 28.503L13.2529 28.5857C13.5321 28.7054 13.8555 28.5762 13.9752 28.297L14.0579 28.104C14.1777 27.8248 14.0484 27.5014 13.7692 27.3817L13.5762 27.299C13.297 27.1793 12.9737 27.3085 12.854 27.5877Z" fill="#515151"/>
<path d="M13.6943 29.6973L13.6115 29.8903C13.4918 30.1694 13.6211 30.4928 13.9003 30.6125L14.0933 30.6953C14.3724 30.815 14.6958 30.6857 14.8155 30.4065L14.8983 30.2135C15.018 29.9344 14.8887 29.611 14.6095 29.4913L14.4165 29.4085C14.1374 29.2888 13.814 29.4181 13.6943 29.6973Z" fill="#515151"/>
<path d="M14.5344 31.8068L14.4516 31.9998C14.3319 32.2789 14.4612 32.6023 14.7403 32.722L14.9334 32.8048C15.2125 32.9245 15.5359 32.7952 15.6556 32.516L15.7384 32.323C15.8581 32.0439 15.7288 31.7205 15.4496 31.6008L15.2566 31.518C14.9775 31.3983 14.6541 31.5276 14.5344 31.8068Z" fill="#515151"/>
<path d="M15.3796 33.8932L15.2968 34.0862C15.1771 34.3654 15.3064 34.6887 15.5856 34.8084L15.7786 34.8912C16.0577 35.0109 16.3811 34.8816 16.5008 34.6025L16.5836 34.4095C16.7033 34.1303 16.574 33.8069 16.2948 33.6872L16.1018 33.6045C15.8227 33.4847 15.4993 33.614 15.3796 33.8932Z" fill="#515151"/>
<path d="M43.71 37.51L41.2 36.51C41.0849 36.4633 40.9929 36.3729 40.9441 36.2586C40.8954 36.1443 40.8939 36.0154 40.94 35.9L47.7 19C47.7828 18.7813 47.9085 18.5815 48.0698 18.4122C48.231 18.243 48.4246 18.1077 48.639 18.0145C48.8534 17.9213 49.0843 17.872 49.318 17.8695C49.5518 17.867 49.7837 17.9114 50 18H50.11C50.3263 18.0829 50.5239 18.2078 50.6915 18.3677C50.8591 18.5275 50.9932 18.719 51.0863 18.9311C51.1793 19.1432 51.2293 19.3716 51.2333 19.6031C51.2374 19.8347 51.1955 20.0647 51.11 20.28L44.35 37.18C44.3034 37.2951 44.213 37.3871 44.0987 37.4359C43.9844 37.4846 43.8554 37.4861 43.74 37.44L43.71 37.51Z" fill="#333333"/>
<path d="M43.71 37.51L41.2 36.51C41.0849 36.4633 40.9929 36.3729 40.9441 36.2586C40.8954 36.1443 40.8939 36.0154 40.94 35.9V35.9L47.7 19C47.7828 18.7813 47.9085 18.5815 48.0698 18.4122C48.231 18.243 48.4246 18.1077 48.639 18.0145C48.8534 17.9213 49.0843 17.872 49.318 17.8695C49.5518 17.867 49.7837 17.9114 50 18H50.11C50.3263 18.0829 50.5239 18.2078 50.6915 18.3677C50.8591 18.5275 50.9932 18.719 51.0863 18.9311C51.1793 19.1432 51.2293 19.3716 51.2333 19.6031C51.2374 19.8347 51.1955 20.0647 51.11 20.28L44.35 37.18C44.3034 37.2951 44.213 37.3871 44.0987 37.4359C43.9844 37.4846 43.8554 37.4861 43.74 37.44L43.71 37.51Z" stroke="#333333" stroke-width="1.5" stroke-linejoin="round"/>
<path d="M49.7799 18L50.2699 18.19C50.6442 18.3477 50.9434 18.6434 51.1054 19.0158C51.2674 19.3882 51.2797 19.8087 51.1399 20.19L50.2899 22.3L46.9199 21L47.7599 18.89C47.834 18.6989 47.9451 18.5242 48.0867 18.376C48.2284 18.2278 48.3979 18.109 48.5855 18.0263C48.7731 17.9437 48.9751 17.8988 49.1801 17.8943C49.385 17.8898 49.5889 17.9257 49.7799 18Z" fill="#7C7779"/>
<path d="M49.7799 18L50.2699 18.19C50.6442 18.3477 50.9434 18.6434 51.1054 19.0158C51.2674 19.3882 51.2797 19.8087 51.1399 20.19L50.2899 22.3L46.9199 21L47.7599 18.89C47.834 18.6989 47.9451 18.5242 48.0867 18.376C48.2284 18.2278 48.3979 18.109 48.5855 18.0263C48.7731 17.9437 48.9751 17.8988 49.1801 17.8943C49.385 17.8898 49.5889 17.9257 49.7799 18V18Z" stroke="#333333" stroke-width="1.5" stroke-linejoin="round"/>
<path d="M47.6003 23.0935L47.4073 23.1763C47.1282 23.296 46.9989 23.6194 47.1186 23.8986L47.2014 24.0916C47.3211 24.3707 47.6444 24.5 47.9236 24.3803L48.1166 24.2975C48.3958 24.1778 48.5251 23.8545 48.4053 23.5753L48.3226 23.3823C48.2029 23.1031 47.8795 22.9738 47.6003 23.0935Z" fill="#515151"/>
<path d="M46.7598 25.2038L46.5668 25.2865C46.2876 25.4063 46.1583 25.7296 46.278 26.0088L46.3608 26.2018C46.4805 26.481 46.8039 26.6102 47.083 26.4905L47.276 26.4078C47.5552 26.288 47.6845 25.9647 47.5648 25.6855L47.482 25.4925C47.3623 25.2133 47.0389 25.0841 46.7598 25.2038Z" fill="#515151"/>
<path d="M45.9253 27.3049L45.7323 27.3876C45.4531 27.5073 45.3239 27.8307 45.4436 28.1099L45.5263 28.3029C45.646 28.582 45.9694 28.7113 46.2486 28.5916L46.4416 28.5088C46.7207 28.3891 46.85 28.0658 46.7303 27.7866L46.6475 27.5936C46.5278 27.3144 46.2045 27.1851 45.9253 27.3049Z" fill="#515151"/>
<path d="M45.0757 29.4091L44.8827 29.4919C44.6035 29.6116 44.4742 29.9349 44.594 30.2141L44.6767 30.4071C44.7964 30.6863 45.1198 30.8155 45.399 30.6958L45.592 30.6131C45.8711 30.4934 46.0004 30.17 45.8807 29.8908L45.7979 29.6978C45.6782 29.4187 45.3549 29.2894 45.0757 29.4091Z" fill="#515151"/>
<path d="M44.2312 31.5102L44.0382 31.5929C43.759 31.7126 43.6298 32.036 43.7495 32.3152L43.8322 32.5082C43.9519 32.7874 44.2753 32.9166 44.5545 32.7969L44.7475 32.7142C45.0267 32.5944 45.1559 32.2711 45.0362 31.9919L44.9534 31.7989C44.8337 31.5197 44.5104 31.3905 44.2312 31.5102Z" fill="#515151"/>
<path d="M43.3909 33.6205L43.1979 33.7032C42.9187 33.8229 42.7894 34.1463 42.9091 34.4255L42.9919 34.6185C43.1116 34.8976 43.435 35.0269 43.7141 34.9072L43.9071 34.8244C44.1863 34.7047 44.3156 34.3814 44.1959 34.1022L44.1131 33.9092C43.9934 33.63 43.67 33.5008 43.3909 33.6205Z" fill="#515151"/>
<path d="M48.85 37.65C47.3141 36.6629 45.6906 35.8194 44 35.13C40.9599 33.8867 37.7045 33.2546 34.42 33.27H25.09C21.8021 33.2533 18.5433 33.8854 15.5 35.13C13.8094 35.8194 12.1859 36.6629 10.65 37.65C10.4526 37.7993 10.2334 37.9174 10 38C4.76 39.26 2.17 39.79 1 46.71C10.0216 50.7131 19.7801 52.7874 29.65 52.8H29.85C39.7228 52.7652 49.4801 50.6741 58.5 46.66C57.36 39.74 54.77 39.21 49.5 37.95C49.2671 37.8899 49.0469 37.7883 48.85 37.65Z" fill="#BA3555"/>
<path d="M9.89999 41.33C9.68311 41.3285 9.47258 41.2566 9.30015 41.125C9.12772 40.9935 9.00273 40.8094 8.94405 40.6006C8.88536 40.3918 8.89614 40.1696 8.97478 39.9675C9.05341 39.7653 9.19563 39.5942 9.37999 39.48C9.67999 39.29 16.84 34.94 21.38 34.56C21.5113 34.5488 21.6435 34.5637 21.7691 34.6036C21.8947 34.6435 22.0112 34.7078 22.112 34.7928C22.2127 34.8778 22.2958 34.9817 22.3563 35.0988C22.4169 35.2158 22.4538 35.3437 22.465 35.475C22.4762 35.6063 22.4613 35.7386 22.4214 35.8642C22.3815 35.9898 22.3172 36.1063 22.2322 36.207C22.1472 36.3078 22.0433 36.3908 21.9262 36.4514C21.8092 36.5119 21.6813 36.5488 21.55 36.56C17.48 36.9 10.55 41.15 10.44 41.19C10.2786 41.2908 10.0901 41.3397 9.89999 41.33Z" fill="#CE5174"/>
<path d="M8.50999 47.81L12.65 43.81C14.1178 42.3025 16.0529 41.3367 18.14 41.07C19.1379 40.9917 20.1395 40.9683 21.14 41H38.38C39.3805 40.9683 40.382 40.9917 41.38 41.07C43.4682 41.3329 45.4045 42.2993 46.87 43.81L51.01 47.81C51.1278 47.9281 51.194 48.0881 51.194 48.255C51.194 48.4218 51.1278 48.5819 51.01 48.7C50.89 48.8103 50.733 48.8716 50.57 48.8716C50.407 48.8716 50.25 48.8103 50.13 48.7L45.83 44.87C44.579 43.6206 42.938 42.8372 41.18 42.65C40.35 42.58 39.34 42.65 38.39 42.65H18.33C16.5697 42.8397 14.9264 43.6226 13.67 44.87L9.36999 48.7C9.24666 48.814 9.08308 48.8744 8.91524 48.8678C8.74739 48.8613 8.58903 48.7883 8.47499 48.665C8.36094 48.5417 8.30056 48.3781 8.30712 48.2102C8.31369 48.0424 8.38666 47.884 8.50999 47.77V47.81Z" fill="#8E2346"/>
<path d="M20.1899 42.19L17.3699 35.84C17.3163 35.7016 17.3168 35.5481 17.3714 35.4101C17.426 35.272 17.5305 35.1597 17.6643 35.0953C17.798 35.031 17.9511 35.0194 18.093 35.0629C18.2349 35.1064 18.3551 35.2017 18.4299 35.33L21.6799 41.46C21.7833 41.6549 21.8051 41.8829 21.7404 42.0939C21.6757 42.3049 21.5298 42.4815 21.3349 42.585C21.1399 42.6884 20.9119 42.7102 20.7009 42.6455C20.4899 42.5808 20.3133 42.4349 20.2099 42.24C20.2059 42.2223 20.1991 42.2055 20.1899 42.19Z" fill="#8E2346"/>
<path d="M37.8199 41.46L41.0599 35.33C41.0934 35.2597 41.1404 35.1967 41.1982 35.1446C41.256 35.0926 41.3235 35.0524 41.3969 35.0264C41.4702 35.0004 41.548 34.9891 41.6257 34.9931C41.7035 34.9972 41.7796 35.0165 41.8499 35.05C41.9201 35.0835 41.9831 35.1305 42.0352 35.1883C42.0873 35.2461 42.1275 35.3136 42.1535 35.387C42.1795 35.4603 42.1908 35.5381 42.1867 35.6158C42.1827 35.6935 42.1634 35.7697 42.1299 35.84L39.3099 42.19C39.2182 42.3902 39.0515 42.5464 38.8458 42.625C38.64 42.7035 38.4117 42.6981 38.2099 42.61C38.0114 42.5163 37.8569 42.3495 37.7786 42.1445C37.7003 41.9394 37.7043 41.7121 37.7899 41.51L37.8199 41.46Z" fill="#8E2346"/>
<path d="M30.4999 42.83L30.1199 51.58C30.1148 51.6772 30.0725 51.7688 30.0018 51.8358C29.9311 51.9028 29.8373 51.9401 29.7399 51.94C29.6467 51.933 29.5591 51.8929 29.4931 51.8268C29.427 51.7607 29.3868 51.6731 29.3799 51.58L28.9999 42.83C28.9945 42.7328 29.0084 42.6354 29.0406 42.5436C29.0729 42.4517 29.123 42.3671 29.188 42.2947C29.2531 42.2222 29.3318 42.1633 29.4196 42.1213C29.5074 42.0793 29.6027 42.0551 29.6999 42.05C29.8972 42.0418 30.0898 42.1118 30.2358 42.2447C30.3818 42.3776 30.4696 42.5628 30.4799 42.76L30.4999 42.83Z" fill="#8E2346"/>
<path d="M48.85 37.65C47.3141 36.6629 45.6906 35.8194 44 35.13C40.9599 33.8867 37.7045 33.2546 34.42 33.27H25.09C21.8021 33.2533 18.5433 33.8854 15.5 35.13C13.8094 35.8194 12.1859 36.6629 10.65 37.65C10.4526 37.7993 10.2334 37.9174 10 38C4.76 39.26 2.17 39.79 1 46.71C10.0216 50.7131 19.7801 52.7874 29.65 52.8H29.85C39.7228 52.7652 49.4801 50.6741 58.5 46.66C57.36 39.74 54.77 39.21 49.5 37.95C49.2671 37.8899 49.0469 37.7883 48.85 37.65V37.65Z" stroke="#333333" stroke-width="1.5" stroke-linecap="round" stroke-linejoin="round"/>
<path d="M37.75 25.8H21.75V39.52H37.75V25.8Z" fill="#BA3555"/>
<path d="M21.75 25.8V30.89C23.1279 32.831 24.9214 34.4401 27 35.6C28.0846 35.992 29.2402 36.1488 30.39 36.06C31.5398 36.1488 32.6954 35.992 33.78 35.6C35.2696 34.7983 36.6203 33.7616 37.78 32.53V25.8H21.75Z" fill="#A8224E"/>
<path d="M21.75 27.71V35.83" stroke="#333333" stroke-width="1.5" stroke-linecap="round" stroke-linejoin="round"/>
<path d="M37.75 27.71V35.83" stroke="#333333" stroke-width="1.5" stroke-linecap="round" stroke-linejoin="round"/>
<path d="M10 38C10 38 11.54 44.72 7.79 49.3L1 46.66L1.55 44.15C1.55 44.15 2.83 39.94 6.74 38.8C10.65 37.66 10 38 10 38Z" fill="#333333"/>
<path d="M1.93994 44.84C2.2067 43.5949 2.79893 42.4427 3.65622 41.5011C4.51351 40.5595 5.60519 39.8621 6.81994 39.48L7.40994 39.31C7.66322 39.2319 7.93715 39.2576 8.17154 39.3813C8.40593 39.5051 8.58159 39.7168 8.65994 39.97C8.66471 40.0466 8.66471 40.1234 8.65994 40.2C8.75048 40.5845 8.68575 40.9891 8.47981 41.3261C8.27387 41.6631 7.94333 41.9052 7.55994 42H7.49994C5.36711 42.2529 3.39503 43.2603 1.93994 44.84Z" fill="#515151"/>
<path d="M49.5301 38C49.5301 38 48.0001 44.67 51.7501 49.25L58.5001 46.66L57.9401 44.15C57.9401 44.15 56.6701 39.94 52.7601 38.8C48.8501 37.66 49.5301 38 49.5301 38Z" fill="#333333"/>
<path d="M57.56 44.84C57.2932 43.5949 56.701 42.4427 55.8437 41.5011C54.9864 40.5595 53.8947 39.8621 52.68 39.48L52.09 39.31C51.8367 39.2319 51.5628 39.2576 51.3284 39.3813C51.094 39.5051 50.9183 39.7168 50.84 39.97C50.8352 40.0466 50.8352 40.1234 50.84 40.2C50.7495 40.5845 50.8142 40.9891 51.0201 41.3261C51.2261 41.6631 51.5566 41.9052 51.94 42H52C54.1328 42.2529 56.1049 43.2603 57.56 44.84Z" fill="#515151"/>
<path d="M29.8301 32.06C28.6802 32.1488 27.5247 31.992 26.4401 31.6C23.1001 29.84 19.8301 25.97 19.8301 23.66V21.66C19.4901 18.99 19.0001 16.88 18.8301 14.07V11.07C18.8301 6.07 21.8901 1 29.8301 1C37.7701 1 40.8301 6.1 40.8301 11.07V14.07C40.9006 15.3889 40.7895 16.7113 40.5001 18C40.2601 19.61 40.2601 19.61 39.8301 21.66V23.66C39.8301 25.98 36.5601 29.85 33.2201 31.6C32.1355 31.992 30.9799 32.1488 29.8301 32.06Z" fill="#BA3555"/>
<path d="M40.9101 14.41V11.41C40.9101 6.40999 37.8501 1.33999 29.9101 1.33999C29.3958 1.32837 28.8813 1.35175 28.3701 1.40999C26.0012 8.1063 24.83 15.1675 24.9101 22.27C24.9016 25.2772 25.0686 28.2823 25.4101 31.27C25.7701 31.51 26.1401 31.73 26.5101 31.93C27.5947 32.322 28.7503 32.4788 29.9001 32.39C31.0499 32.4788 32.2055 32.322 33.2901 31.93C36.6401 30.19 39.9101 26.31 39.9101 24V22C40.1701 20.07 40.8301 16.12 40.9101 14.41Z" fill="#A8224E"/>
<path d="M25.25 21.83L26.72 31.67C26.7638 31.9113 26.7099 32.1601 26.5701 32.3617C26.4304 32.5634 26.2163 32.7012 25.975 32.745C25.7337 32.7887 25.4848 32.7348 25.2832 32.5951C25.0816 32.4554 24.9438 32.2413 24.9 32V31.91L24.25 21.98C24.2538 21.9129 24.2708 21.8473 24.3001 21.7869C24.3293 21.7265 24.3702 21.6724 24.4203 21.6278C24.4705 21.5832 24.529 21.549 24.5924 21.5271C24.6559 21.5051 24.723 21.4959 24.79 21.5C24.891 21.502 24.9891 21.5347 25.0712 21.5936C25.1533 21.6525 25.2157 21.7349 25.25 21.83Z" fill="#8E2346"/>
<path d="M35.2499 21.94L34.5999 31.87C34.5911 31.9923 34.5581 32.1116 34.503 32.2211C34.4479 32.3305 34.3717 32.4281 34.2787 32.508C34.1858 32.5879 34.078 32.6487 33.9615 32.6868C33.845 32.7249 33.7221 32.7396 33.5999 32.73C33.354 32.7096 33.126 32.5933 32.9651 32.4062C32.8042 32.2191 32.7233 31.9762 32.7399 31.73V31.65L34.2199 21.81C34.2262 21.7442 34.2454 21.6804 34.2765 21.622C34.3076 21.5637 34.3499 21.5122 34.4011 21.4703C34.4522 21.4285 34.5111 21.3972 34.5745 21.3783C34.6378 21.3593 34.7042 21.3531 34.7699 21.36C34.9036 21.3751 35.026 21.4425 35.1103 21.5474C35.1945 21.6523 35.234 21.7862 35.2199 21.92L35.2499 21.94Z" fill="#8E2346"/>
<path d="M40.7201 14.07L40.66 14.91C40.49 17.15 40.25 19.38 39.92 21.6C39.8125 23.5489 39.2873 25.4519 38.3801 27.18C37.6119 28.3274 36.6824 29.358 35.62 30.24C34.8906 30.8889 34.0846 31.4464 33.2201 31.9C32.1355 32.2921 30.9799 32.4489 29.83 32.36C28.6802 32.4489 27.5246 32.2921 26.4401 31.9C25.3335 31.4091 24.3189 30.7327 23.4401 29.9C22.4651 29.0818 21.6395 28.1006 21 27C20.3611 25.8381 19.9791 24.5524 19.88 23.23C19.3102 19.2081 18.9497 15.1593 18.8 11.1C18.8 6.10003 21.86 1.03003 29.8 1.03003C34.2 1.03003 38.5101 2.90003 40.1301 7.24003C40.8141 9.44806 41.0154 11.7774 40.7201 14.07Z" stroke="#333333" stroke-width="1.5" stroke-linejoin="round"/>
<path d="M27.75 21.73H28.39C28.8067 21.9753 29.2814 22.1047 29.765 22.1047C30.2486 22.1047 30.7233 21.9753 31.14 21.73H31.75" stroke="#8E2346" stroke-linecap="round" stroke-linejoin="round"/>
<path d="M25.6101 13.39C25.283 12.7408 24.7547 12.2147 24.1041 11.8902C23.4535 11.5658 22.7154 11.4605 22 11.59C21.5479 11.671 21.1167 11.842 20.7319 12.0928C20.3471 12.3436 20.0167 12.6691 19.76 13.05L18.55 14.05C18.55 14.05 19.55 21.4 19.55 21.64L21.38 22.86C22.026 23.1286 22.7394 23.1901 23.4218 23.0361C24.1043 22.882 24.7221 22.52 25.1901 22L26.8601 20.18C27.281 19.7216 27.5517 19.1454 27.6357 18.5287C27.7197 17.912 27.6131 17.2844 27.33 16.73L25.6101 13.39Z" fill="#333333"/>
<path d="M33.7199 13.39C34.0455 12.7463 34.5689 12.2241 35.2133 11.9001C35.8577 11.5761 36.5891 11.4674 37.2999 11.59C37.752 11.671 38.1833 11.8419 38.568 12.0927C38.9528 12.3435 39.2833 12.669 39.5399 13.05L40.7499 14.05C40.7499 14.05 39.7499 21.4 39.7499 21.64L37.9199 22.86C37.2782 23.1247 36.5702 23.1841 35.8934 23.0301C35.2165 22.8761 34.604 22.5162 34.1399 22L32.4699 20.18C32.0489 19.7277 31.7778 19.1565 31.6937 18.5444C31.6096 17.9322 31.7165 17.3091 31.9999 16.76L33.7199 13.39Z" fill="#333333"/>
<path d="M25.687 17.7833C25.8051 17.3518 25.4689 16.8839 24.9362 16.7382C24.4035 16.5924 23.876 16.8241 23.7579 17.2556C23.6399 17.6871 23.976 18.155 24.5087 18.3007C25.0415 18.4465 25.569 18.2148 25.687 17.7833Z" fill="white"/>
<path d="M35.157 18.3229C35.6921 18.1863 36.0362 17.7242 35.9256 17.2908C35.8149 16.8573 35.2914 16.6167 34.7563 16.7533C34.2212 16.8899 33.8771 17.352 33.9877 17.7854C34.0983 18.2189 34.6218 18.4595 35.157 18.3229Z" fill="white"/>
</svg>
