<svg width="61" height="56" viewBox="0 0 61 56" fill="none" xmlns="http://www.w3.org/2000/svg">
<path d="M16.8037 25.2322V30.5C16.8037 32.6072 17.8573 33.6607 19.9644 33.6607H41.0359C43.143 33.6607 44.1966 32.6072 44.1966 30.5V25.2322H16.8037Z" fill="#AF844B" stroke="#333333" stroke-width="2" stroke-miterlimit="10"/>
<path d="M60 48.4108C59.6681 46.4406 58.4196 40.9199 53.6786 38.9286C45.7768 35.573 40.9146 33.6608 30.5 33.6608C20.0854 33.6608 15.2232 35.573 7.32143 38.9286C2.58036 40.9304 1.33187 46.4511 1 48.4108C1.885 48.9376 14.5331 54.7322 30.5 54.7322C44.5704 54.7322 57.6137 49.8805 60 48.4108Z" fill="#44566B"/>
<path d="M54.1264 43.5116C46.2246 40.1507 40.9146 38.2438 30.5 38.2438C20.0855 38.2438 14.786 40.1613 6.87367 43.5116C4.16072 44.6706 2.83849 46.8936 2.15894 48.9375C5.24063 50.3493 16.4401 54.7322 30.5 54.7322C43.4273 54.7322 55.1694 50.7549 58.8463 48.9797C58.1721 46.9094 56.8709 44.6758 54.1264 43.5116Z" fill="#3B485B"/>
<path d="M16.3662 35.4834C17.6744 41.8141 19.4188 48.0468 21.5867 54.1369C24.5421 54.5239 27.5192 54.7227 30.4999 54.7322C33.8834 54.7185 37.2617 54.4633 40.6089 53.9684C42.1768 47.8544 43.4374 41.6657 44.3859 35.4255C40.5088 34.2718 36.3893 33.6608 30.4999 33.6608C24.484 33.6608 20.3276 34.2982 16.3662 35.4834Z" fill="#D1D8DB"/>
<path d="M41.0358 32.6071C39.329 35.4254 34.9198 41.5625 31.5536 43.1429H29.4465C26.0803 41.5625 21.6711 35.4254 19.9644 32.6071V30.5H41.0358V32.6071Z" fill="#DDB8AF"/>
<path d="M26.686 54.6005C27.9345 54.6742 29.2041 54.7164 30.5 54.7164C31.7959 54.7164 33.0549 54.6742 34.3139 54.6005L31.5535 47.3572H29.4464L26.686 54.6005Z" fill="#BA362A" stroke="#333333" stroke-width="2" stroke-linejoin="round"/>
<path d="M31.5484 47.3677L33.6608 43.1587H27.3394L29.4518 47.3677H31.5484Z" fill="#BA362A" stroke="#333333" stroke-width="2" stroke-linejoin="round"/>
<path d="M19.9643 32.6072L17.8572 36.8215L25.2322 49.4643L29.4465 43.1429C26.0803 41.5625 21.6711 35.436 19.9643 32.6072Z" fill="#EBF0F2" stroke="#333333" stroke-width="2" stroke-linejoin="round"/>
<path d="M41.0359 32.6072L43.143 36.8215L35.768 49.4643L31.5537 43.1429C34.9199 41.5625 39.3291 35.436 41.0359 32.6072Z" fill="#EBF0F2" stroke="#333333" stroke-width="2" stroke-linejoin="round"/>
<path d="M30.5001 37.875C32.0119 37.875 35.7679 37.875 37.8751 35.7679C39.9822 33.6607 42.0894 29.4465 42.0894 26.2857C44.2439 26.1804 45.2501 24.147 45.5293 22.161C46.3932 16.3137 43.8119 16.5297 43.1429 16.8036C43.1429 16.8036 43.1429 14.1697 43.1429 12.5893C43.1903 7.62172 40.2719 2.15369 30.5001 2.15369C20.7282 2.15369 17.8098 7.63226 17.8572 12.5893C17.8572 14.1697 17.8572 16.8036 17.8572 16.8036C17.1777 16.5244 14.6122 16.2031 15.5025 22.2453C15.7975 24.2313 16.772 26.1804 18.9266 26.2857C18.9266 29.4465 21.0337 33.6607 23.1409 35.7679C25.248 37.875 28.9882 37.9014 30.5001 37.875Z" fill="#EDCCC3"/>
<path d="M42.0895 26.2857C44.244 26.1804 45.2502 24.147 45.5294 22.161C46.3933 16.3137 43.8121 16.5297 43.143 16.8036C43.143 16.8036 43.143 14.1697 43.143 12.5893C43.1904 7.62172 40.2721 2.15369 30.5002 2.15369C30.1525 2.15369 29.8312 2.15369 29.494 2.19056C27.1762 10.7087 25.5958 19.9643 25.717 27.1497C25.717 29.6466 25.9909 33.5607 26.3649 37.4694C27.7207 37.7787 29.1102 37.915 30.5002 37.875C32.0121 37.875 35.768 37.875 37.8752 35.7679C39.9823 33.6607 42.0895 29.4465 42.0895 26.2857Z" fill="#E5C2BA"/>
<path d="M43.3694 16.2768C43.3694 16.2768 43.4958 13.9853 43.4958 12.4313C43.5432 7.45843 40.2719 2.1853 30.4789 2.1853C20.686 2.1853 17.4146 7.45316 17.4621 12.4313C17.4621 14.0116 17.5885 16.2768 17.5885 16.2768C16.8404 15.966 16.6824 15.966 15.75 16.8352C18.1521 18.6526 18.9107 20.4542 18.9107 22.1031C19.2746 22.1371 19.6374 22.0271 19.9211 21.7966C20.2047 21.5661 20.3867 21.2336 20.4279 20.8704L20.9072 17.5358L22.0398 16.3295V15.434C22.5173 15.6095 23.0045 15.7573 23.499 15.8765C29.0619 17.1408 36.6529 14.9282 39.9821 13.6429V15.75L41.0357 16.8036V22.0715H42.2631C42.4553 22.0686 42.6422 22.0077 42.7992 21.8968C42.9562 21.7859 43.076 21.6301 43.1429 21.4499C43.5696 20.2857 44.4124 18.9582 45.6872 18.4314C45.6108 17.8279 45.3279 17.2695 44.8865 16.851C43.9699 16.0082 44.1174 15.9449 43.3694 16.2768Z" fill="#E5C2BA"/>
<path d="M26.5386 16.2241C31.5536 16.398 37.2323 14.6965 39.9821 13.6429V15.75L41.0357 16.8036V22.0715H42.2631C42.4553 22.0686 42.6422 22.0077 42.7992 21.8968C42.9562 21.7859 43.076 21.6301 43.1429 21.4498C43.5423 20.2088 44.3917 19.1621 45.5239 18.5157C45.0709 16.4559 43.617 16.614 43.1429 16.8036C43.1429 16.8036 43.1429 14.1697 43.1429 12.5893C43.1903 7.62172 40.2719 2.15369 30.5 2.15369C30.1523 2.15369 29.831 2.15369 29.4938 2.19056C28.2351 6.80659 27.2483 11.4925 26.5386 16.2241Z" fill="#DBB8B2"/>
<path d="M17.5885 15.3549L17.5569 15.3865C17.5569 15.8711 17.5885 16.1977 17.5885 16.2399" stroke="#333333" stroke-width="3" stroke-linecap="round" stroke-linejoin="round"/>
<path d="M43.4168 16.2399H43.3694C43.3694 16.2399 43.3694 15.8922 43.401 15.3707L43.3694 15.3391" stroke="#333333" stroke-width="3" stroke-linecap="round" stroke-linejoin="round"/>
<path d="M45.25 9.42857C44.3229 6.45223 38.1595 1 30.5 1C19.3111 1 15.9712 9.91321 15.75 10.4821L16.8036 11.5357C16.0661 14.9229 15.75 16.8036 15.75 16.8036C17.7571 18.8159 18.9107 19.4849 18.9107 22.0714H19.9643V16.8036L21.0179 15.75V13.6429C23.5043 14.2223 29.5149 16.5138 39.9821 11.5357V15.75L41.0357 16.8036V22.0714H42.0893C42.0893 19.4744 45.1446 16.7193 45.25 16.8036C45.6855 14.6461 45.2964 12.4037 44.1596 10.519C44.6515 10.3119 45.0428 9.92049 45.25 9.42857Z" fill="#E2B886"/>
<path d="M18.9109 22.0714H19.9644V16.8036L21.018 15.75V13.6428C23.5044 14.2223 29.515 16.5138 39.9823 11.5357V15.75L41.0359 16.8036V22.0714H42.0894C42.0894 21.5446 42.3054 19.7272 44.1966 17.8203C44.0965 17.4568 44.1966 13.6428 42.0894 10.4821L45.2501 9.42856C44.1966 6.07821 35.9313 0.578562 27.9926 2.71204C24.6634 3.63392 19.406 6.20463 17.8573 10.4821L18.9109 11.7095C18.0424 13.698 17.3377 15.754 16.8037 17.8571C17.6782 18.7421 18.9109 19.5797 18.9109 22.0714Z" fill="#D8A766"/>
<path d="M40.7354 11.5357L40.4562 15.75L40.3192 15.4181L41.2938 16.5507L41.3254 16.5929C41.3514 16.6222 41.3713 16.6564 41.384 16.6934C41.3967 16.7305 41.4018 16.7698 41.3991 16.8089L41.0357 22.0714L40.6722 16.8036L40.7775 17.0564L39.6449 16.0819C39.5656 16.014 39.5163 15.9174 39.508 15.8132V15.75L39.2288 11.5357C39.2162 11.3359 39.2835 11.1393 39.4159 10.9892C39.5483 10.839 39.7349 10.7476 39.9347 10.735C40.1345 10.7224 40.3311 10.7897 40.4812 10.9221C40.6314 11.0545 40.7228 11.2411 40.7354 11.4409V11.5357Z" fill="#AF844B"/>
<path d="M21.7713 12.5893L21.5448 15.75V15.8396C21.542 15.8976 21.5269 15.9543 21.5006 16.0061C21.4742 16.0578 21.4372 16.1034 21.392 16.1399L20.2383 17.0881L20.3542 16.8089L19.9644 22.0715L19.5641 16.8036C19.5558 16.7204 19.5804 16.6372 19.6325 16.5718L19.6799 16.5191L20.6334 15.3602L20.4912 15.75L20.2805 12.5893C20.2743 12.4904 20.2876 12.3912 20.3197 12.2974C20.3518 12.2037 20.402 12.1171 20.4676 12.0428C20.5331 11.9684 20.6127 11.9077 20.7017 11.8641C20.7907 11.8205 20.8874 11.7948 20.9864 11.7886C21.0853 11.7824 21.1845 11.7957 21.2783 11.8278C21.372 11.8599 21.4586 11.9102 21.5329 11.9757C21.6073 12.0413 21.668 12.1208 21.7116 12.2098C21.7552 12.2988 21.7809 12.3956 21.7871 12.4945L21.7713 12.5893Z" fill="#AF844B"/>
<path d="M30.616 26.9811V28.0136" stroke="#D1A9A3" stroke-miterlimit="10" stroke-linecap="round"/>
<path d="M28.3928 26.2858C29.4464 26.6018 29.5939 27.0233 30.5 27.0233C31.406 27.0233 31.5535 26.5913 32.6071 26.2858" stroke="#AF8582" stroke-width="1.5" stroke-miterlimit="10" stroke-linecap="round"/>
<path d="M17.8572 10.4821C21.0179 13.6428 25.2322 17.8571 41.0357 10.4821C41.0357 10.4821 25.2322 3.10712 17.8572 10.4821Z" fill="#D8A766"/>
<path d="M41.4465 11.2618C39.6189 12.1103 37.7357 12.8337 35.8099 13.4269C33.9052 14.0257 31.9523 14.4592 29.9731 14.7228C27.9798 15.0068 25.9526 14.9498 23.9783 14.5542C21.9933 14.158 20.2044 13.0924 18.9106 11.5357C20.2739 12.9568 22.0829 13.8678 24.0363 14.117C25.9688 14.3586 27.9283 14.2695 29.8309 13.8536C31.7333 13.4585 33.5981 12.8998 35.4043 12.1837C37.2139 11.4818 38.9739 10.6581 40.6722 9.71832L41.4465 11.2618Z" fill="#AF844B"/>
<path d="M18.9107 22.0714C18.7662 21.0414 18.3167 20.0782 17.6201 19.3058C17.2899 18.9217 16.9249 18.569 16.5297 18.2522C16.3295 18.0994 16.1293 17.9467 15.9186 17.8097L15.6025 17.599L15.4392 17.4989L15.3497 17.441L15.2917 17.3988C15.2917 17.3988 15.2917 17.3988 15.2338 17.3514L15.1758 17.3303V17.2987C15.1292 17.2368 15.0936 17.1673 15.0705 17.0933C15.0359 17.0007 15.0204 16.9022 15.0249 16.8035C15.0295 16.7048 15.0539 16.6081 15.0968 16.5191C15.1397 16.428 15.2005 16.3466 15.2757 16.2796C15.3508 16.2126 15.4387 16.1615 15.534 16.1293C15.6018 16.0958 15.6749 16.0744 15.75 16.066C15.8539 16.0573 15.9584 16.0703 16.057 16.1041C16.1556 16.1378 16.2462 16.1917 16.3229 16.2622C16.3996 16.3328 16.4609 16.4185 16.5027 16.514C16.5446 16.6094 16.5663 16.7125 16.5663 16.8167C16.5663 16.921 16.5446 17.024 16.5027 17.1195C16.4609 17.2149 16.3996 17.3006 16.3229 17.3712C16.2462 17.4417 16.1556 17.4956 16.057 17.5294C15.9584 17.5632 15.8539 17.5761 15.75 17.5674C15.8323 17.5688 15.9142 17.5563 15.9923 17.5305C16.0877 17.4983 16.1756 17.4472 16.2507 17.3802C16.3258 17.3132 16.3867 17.2317 16.4296 17.1407C16.4725 17.0517 16.4969 16.955 16.5014 16.8563C16.506 16.7576 16.4905 16.659 16.4559 16.5665C16.4335 16.4954 16.3978 16.4292 16.3506 16.3716L16.2768 16.3031C16.2347 16.2662 16.2768 16.3031 16.2768 16.3031L16.3453 16.3663L16.4875 16.5191L16.7773 16.8246C16.9669 17.0353 17.1513 17.2513 17.304 17.4726C17.6659 17.919 17.9819 18.4008 18.247 18.9107C18.7771 19.875 19.0082 20.9753 18.9107 22.0714Z" fill="#333333"/>
<path d="M42.0892 22.0714C41.9917 20.9753 42.2228 19.875 42.7529 18.9107C43.0103 18.4056 43.3174 17.9274 43.6695 17.4831C43.8434 17.2618 44.0277 17.0459 44.1963 16.8352L44.486 16.5296L44.6283 16.3768L44.6968 16.3136L44.6599 16.3558C44.6127 16.4134 44.5769 16.4796 44.5545 16.5507C44.5158 16.6415 44.4959 16.7391 44.4959 16.8378C44.4959 16.9365 44.5158 17.0341 44.5545 17.1249C44.5974 17.2159 44.6583 17.2974 44.7334 17.3644C44.8085 17.4314 44.8964 17.4825 44.9918 17.5147C45.0699 17.5405 45.1518 17.553 45.2341 17.5516C45.1302 17.5603 45.0257 17.5473 44.9271 17.5136C44.8285 17.4798 44.7379 17.4259 44.6612 17.3554C44.5845 17.2848 44.5232 17.1991 44.4814 17.1037C44.4395 17.0082 44.4178 16.9051 44.4178 16.8009C44.4178 16.6967 44.4395 16.5936 44.4814 16.4981C44.5232 16.4027 44.5845 16.317 44.6612 16.2464C44.7379 16.1759 44.8285 16.122 44.9271 16.0882C45.0257 16.0545 45.1302 16.0415 45.2341 16.0502C45.3168 16.0487 45.3991 16.063 45.4764 16.0924C45.5718 16.1246 45.6596 16.1757 45.7348 16.2427C45.8099 16.3097 45.8707 16.3912 45.9136 16.4822C45.9523 16.573 45.9723 16.6706 45.9723 16.7693C45.9723 16.868 45.9523 16.9656 45.9136 17.0564C45.8905 17.1304 45.8549 17.1999 45.8083 17.2618V17.2935L45.7503 17.3514C45.6976 17.4041 45.7082 17.3883 45.6924 17.3988L45.6344 17.441L45.5449 17.4989L45.3816 17.599L45.0655 17.8097C44.8548 17.9467 44.6546 18.0994 44.4544 18.2522C44.0592 18.569 43.6942 18.9217 43.364 19.3058C42.6731 20.0801 42.2292 21.0431 42.0892 22.0714Z" fill="#333333"/>
<path d="M45.2501 16.8036C45.5351 15.7396 45.5852 14.6264 45.3969 13.5412C45.2086 12.456 44.7864 11.4247 44.1596 10.519L45.2501 9.42857C44.3176 6.4417 38.2175 1 30.5001 1C18.4525 1 15.8554 10.2187 15.7501 10.4821L16.3769 11.109C15.5867 15.4287 15.7501 16.8036 15.7501 16.8036" stroke="#333333" stroke-width="2" stroke-linecap="round" stroke-linejoin="round"/>
<path d="M15.75 35.7678C12.8799 36.6521 10.0653 37.7075 7.32143 38.9285C2.58036 40.9303 1.33188 46.451 1 48.4107C1.885 48.9375 14.5331 54.7321 30.5 54.7321C44.5704 54.7321 57.6137 49.8962 60 48.4107C59.6681 46.4405 58.4196 40.9198 53.6786 38.9285C50.9307 37.7173 48.1167 36.662 45.25 35.7678" stroke="#333333" stroke-width="2" stroke-linejoin="round"/>
<path d="M31.5733 28.7155L30.8464 29.0421L30.0457 28.8419C29.6873 28.755 29.3092 28.8117 28.9921 29L26.9692 29.9798C28.4548 30.2853 28.2441 30.9702 29.7296 31.0966C29.7296 31.0966 31.173 31.0966 31.9316 31.0228C32.9851 30.8964 33.6278 30.6752 34.6076 29.0527C33.8327 29.0605 33.0624 28.9321 32.3319 28.6734C32.0826 28.5926 31.8122 28.6076 31.5733 28.7155Z" fill="#CEA080"/>
<path d="M26.3578 30.5541C26.3131 30.5541 26.2689 30.5452 26.2277 30.5278C26.1861 30.5107 26.1483 30.4855 26.1164 30.4538C26.0845 30.422 26.0592 30.3843 26.0419 30.3428C26.0247 30.3013 26.0157 30.2568 26.0156 30.2118C26.0155 30.1668 26.0243 30.1223 26.0415 30.0807L26.2627 29.5436C26.2974 29.4597 26.364 29.3929 26.4478 29.358C26.5317 29.3232 26.626 29.323 26.71 29.3577C26.794 29.3923 26.8607 29.4589 26.8956 29.5428C26.9305 29.6267 26.9306 29.721 26.8959 29.805L26.6747 30.342C26.6489 30.4048 26.6049 30.4585 26.5485 30.4963C26.4921 30.534 26.4257 30.5542 26.3578 30.5541Z" fill="#CEA080"/>
<path d="M34.7341 29.7851C34.6627 29.7851 34.5932 29.7627 34.5351 29.7212C34.4771 29.6797 34.4334 29.6211 34.4103 29.5536L34.1574 28.8164C34.1428 28.7738 34.1368 28.7288 34.1396 28.684C34.1424 28.6391 34.154 28.5952 34.1738 28.5548C34.1935 28.5144 34.2211 28.4782 34.2548 28.4485C34.2885 28.4187 34.3278 28.3959 34.3703 28.3813C34.4129 28.3667 34.4579 28.3607 34.5027 28.3635C34.5476 28.3663 34.5915 28.3779 34.6319 28.3976C34.6723 28.4174 34.7084 28.4449 34.7382 28.4787C34.768 28.5124 34.7908 28.5516 34.8054 28.5942L35.0582 29.3314C35.0877 29.4173 35.0818 29.5114 35.0419 29.593C35.002 29.6746 34.9314 29.737 34.8455 29.7666C34.8096 29.7788 34.772 29.785 34.7341 29.7851Z" fill="#CEA080"/>
<path d="M34.6497 29.1686C34.3734 29.4203 34.0515 29.6169 33.7015 29.748L32.6479 29.885C31.942 29.9587 31.2361 30.043 30.5408 30.0852C29.8454 30.1273 29.1185 30.1379 28.4336 30.1379H26.3265C26.2886 30.1362 26.2527 30.1207 26.2255 30.0943C26.1984 30.0678 26.1819 30.0323 26.1793 29.9945C26.1767 29.9567 26.1881 29.9193 26.2114 29.8893C26.2347 29.8594 26.2681 29.8391 26.3054 29.8323H26.4845L28.539 29.5479C29.2133 29.4636 29.877 29.3687 30.5302 29.3371C31.1835 29.3055 31.8472 29.3371 32.511 29.3371H33.5645C33.8743 29.2683 34.17 29.1472 34.439 28.9789C34.4763 28.9544 34.5219 28.9456 34.5657 28.9546C34.6095 28.9637 34.6479 28.9897 34.6725 29.0271L34.6813 29.0421C34.6853 29.0642 34.6846 29.087 34.6792 29.1088C34.6737 29.1306 34.6637 29.151 34.6497 29.1686Z" fill="#B78767"/>
<path d="M35.3978 21.6988C35.8284 21.6988 36.1774 21.3498 36.1774 20.9192C36.1774 20.4886 35.8284 20.1395 35.3978 20.1395C34.9672 20.1395 34.6182 20.4886 34.6182 20.9192C34.6182 21.3498 34.9672 21.6988 35.3978 21.6988Z" fill="#333333"/>
<path d="M25.8524 21.6988C26.283 21.6988 26.632 21.3498 26.632 20.9192C26.632 20.4886 26.283 20.1395 25.8524 20.1395C25.4218 20.1395 25.0728 20.4886 25.0728 20.9192C25.0728 21.3498 25.4218 21.6988 25.8524 21.6988Z" fill="#333333"/>
<path d="M22.6916 18.5064C23.1237 18.2208 23.6065 18.0205 24.1139 17.9164C24.6271 17.8374 25.1494 17.8374 25.6627 17.9164C26.1684 18.0007 26.653 18.1272 27.1271 18.2536C27.5649 18.3886 28.0122 18.4907 28.4652 18.5591C28.5385 18.5602 28.6109 18.5757 28.6782 18.6048C28.7456 18.6338 28.8065 18.6759 28.8576 18.7285C28.9087 18.7811 28.9489 18.8433 28.976 18.9114C29.003 18.9796 29.0164 19.0524 29.0153 19.1258C29.0142 19.1991 28.9987 19.2715 28.9697 19.3388C28.9406 19.4062 28.8986 19.4671 28.8459 19.5182C28.7933 19.5693 28.7312 19.6095 28.663 19.6366C28.5948 19.6636 28.522 19.677 28.4487 19.6759C28.4153 19.6754 28.382 19.6719 28.3493 19.6654H28.3282C27.8335 19.5208 27.3509 19.3376 26.8848 19.1175C26.455 18.9228 26.0155 18.7505 25.5678 18.6013C25.1328 18.4582 24.6773 18.3871 24.2193 18.3906C23.7646 18.3875 23.3211 18.5317 22.955 18.8014C22.9362 18.825 22.9124 18.8441 22.8852 18.8572C22.8581 18.8702 22.8283 18.877 22.7982 18.877C22.768 18.877 22.7383 18.8702 22.7112 18.857C22.684 18.8439 22.6602 18.8248 22.6415 18.8012C22.6228 18.7776 22.6096 18.7501 22.603 18.7207C22.5964 18.6913 22.5965 18.6607 22.6034 18.6314C22.6102 18.602 22.6236 18.5746 22.6425 18.5511C22.6614 18.5277 22.6854 18.5088 22.7127 18.4959C22.7127 18.4959 22.6916 18.517 22.6916 18.5064Z" fill="#333333"/>
<path d="M38.7165 18.833C38.3534 18.5576 37.9079 18.4128 37.4522 18.4221C36.9972 18.4232 36.5453 18.4979 36.1142 18.6434C35.6717 18.7804 35.2397 18.97 34.7867 19.1596C34.3149 19.3805 33.8249 19.5602 33.3222 19.697C33.1916 19.7082 33.0612 19.6723 32.9548 19.5956C32.8484 19.5189 32.773 19.4065 32.7424 19.279C32.7118 19.1515 32.728 19.0172 32.788 18.9005C32.848 18.7839 32.9478 18.6927 33.0694 18.6434H33.1642C33.6142 18.5827 34.0583 18.484 34.4917 18.3484C34.9658 18.222 35.4504 18.085 35.9562 18.0007C36.469 17.9164 36.9921 17.9164 37.5049 18.0007C38.0193 18.0977 38.5097 18.2946 38.9483 18.5802C38.9865 18.6109 39.0121 18.6545 39.0203 18.7028C39.0285 18.7512 39.0187 18.8008 38.9927 18.8424C38.9667 18.8839 38.9264 18.9145 38.8794 18.9283C38.8324 18.9421 38.7819 18.9382 38.7376 18.9173L38.7165 18.833Z" fill="#333333"/>
<path d="M29.9731 32.6177L31.0267 32.6072" stroke="#AF8582" stroke-width="1.5" stroke-miterlimit="10" stroke-linecap="round"/>
<path d="M17.1038 53.4258C19.1477 53.8103 21.3181 54.1369 23.6201 54.3687C21.7501 49.0271 20.0959 38.5651 19.9643 33.6608L14.6964 35.7679L13.6428 41.0358L16.8035 44.1965L13.6428 47.3572L17.1038 53.4258Z" fill="#3B485B" stroke="#333333" stroke-width="2" stroke-linejoin="round"/>
<path d="M43.9121 53.3994L47.3573 47.3572L44.1966 44.1965L47.3573 41.0358L46.3037 35.7679L41.0359 33.6608C40.9042 38.5493 39.2553 48.9955 37.3853 54.3371C39.6504 54.1159 41.8419 53.7892 43.9121 53.3994Z" fill="#3B485B" stroke="#333333" stroke-width="2" stroke-linejoin="round"/>
<path d="M44.1964 46.3141H41.0356V48.4212H44.1964V46.3141Z" fill="white"/>
<path d="M44.1964 46.3141H41.0356V46.7355H44.1964V46.3141Z" fill="#BA362A"/>
<path d="M44.1964 47.157H41.0356V47.5784H44.1964V47.157Z" fill="#BA362A"/>
<path d="M44.1964 47.9999H41.0356V48.4213H44.1964V47.9999Z" fill="#BA362A"/>
<path d="M42.2999 46.3141H41.0356V47.5784H42.2999V46.3141Z" fill="#2F62AB"/>
<path d="M16.3715 17.2355C16.1287 17.5564 15.9524 17.9225 15.8529 18.3124C15.7534 18.7022 15.7327 19.108 15.792 19.506C15.8673 20.4208 15.9975 21.3303 16.1818 22.2295C16.318 23.049 16.6486 23.8239 17.1459 24.4894C17.3591 24.7667 17.6325 24.9918 17.9455 25.1479C18.2586 25.304 18.603 25.3868 18.9527 25.3902C19.1629 25.397 19.3639 25.4779 19.5201 25.6187C19.6763 25.7594 19.7776 25.951 19.8061 26.1593V26.2014C19.9472 27.4589 20.1831 28.7039 20.512 29.9258C20.8621 31.0629 21.4312 32.1205 22.1872 33.0391C22.5665 33.529 22.9932 34.0084 23.4094 34.5036L23.7307 34.8671L23.8887 35.0514C23.9229 35.0909 23.9599 35.1279 23.9993 35.1621C24.1841 35.3332 24.3873 35.4834 24.6052 35.6098C25.6489 36.1655 26.7867 36.5227 27.9608 36.6634H27.9871C28.0516 36.6736 28.1151 36.6895 28.1768 36.7108C28.8257 36.9834 29.5105 37.1608 30.2102 37.2376C30.5353 37.2646 30.8625 37.2522 31.1847 37.2007C31.5219 37.148 31.8748 37.0638 32.2383 36.9637C32.2977 36.956 32.3579 36.956 32.4174 36.9637C33.661 36.9481 34.8859 36.6585 36.0048 36.1155C36.2599 35.9761 36.5031 35.8157 36.7318 35.6362C36.9634 35.4421 37.18 35.2308 37.3797 35.004C37.8433 34.4772 38.291 33.9979 38.7177 33.4869C39.5621 32.5246 40.1987 31.3983 40.5878 30.1787C40.9482 28.8926 41.1967 27.5777 41.3306 26.2488V26.2172C41.3538 26.054 41.4334 25.9041 41.5556 25.7934C41.6778 25.6828 41.8349 25.6184 41.9996 25.6114C42.3747 25.607 42.7434 25.514 43.0757 25.3401C43.408 25.1662 43.6945 24.9162 43.9118 24.6105C44.3994 23.9116 44.7186 23.1092 44.8443 22.2663C45.0208 21.3621 45.1352 20.4469 45.1867 19.5271C45.2389 19.1257 45.2079 18.7179 45.0955 18.329C44.9831 17.9402 44.7918 17.5787 44.5335 17.2671C44.4843 17.2201 44.445 17.1639 44.4176 17.1016C44.3902 17.0393 44.3754 16.9723 44.3739 16.9043C44.3724 16.8363 44.3844 16.7687 44.409 16.7053C44.4337 16.6419 44.4706 16.584 44.5177 16.5349C44.5647 16.4858 44.6209 16.4464 44.6832 16.4191C44.7455 16.3917 44.8125 16.3768 44.8805 16.3754C44.9485 16.3739 45.0161 16.3858 45.0795 16.4105C45.1429 16.4352 45.2008 16.4721 45.2499 16.5191C45.6759 16.9032 45.9845 17.3999 46.1402 17.952C46.2831 18.4558 46.3558 18.977 46.3561 19.5007C46.3493 20.4813 46.2719 21.4602 46.1244 22.4296C46.0107 23.479 45.6496 24.4865 45.0708 25.3691C44.742 25.8405 44.3141 26.2343 43.817 26.5228C43.3082 26.8098 42.7408 26.9774 42.1577 27.0127L42.8319 26.3753C42.7354 27.7965 42.515 29.2066 42.1735 30.5896C41.7626 32.0217 41.0615 33.354 40.1137 34.5036C39.6712 35.0672 39.2129 35.6098 38.7546 36.1313C38.5077 36.4308 38.2364 36.7092 37.9434 36.9637C37.6376 37.2219 37.3097 37.4528 36.9635 37.6538C35.617 38.3752 34.1232 38.7788 32.5965 38.8338L32.7914 38.8022C32.3792 38.9261 31.9607 39.0281 31.5377 39.1077C31.0722 39.193 30.5983 39.2231 30.1259 39.1972C29.2247 39.1379 28.3372 38.9462 27.4919 38.6283L27.7027 38.681C26.255 38.5284 24.8497 38.1011 23.5621 37.422C23.2062 37.221 22.874 36.9807 22.5718 36.7055C22.4927 36.6371 22.3979 36.5317 22.3347 36.4632L22.1503 36.2946L21.8132 35.9259C21.3654 35.3991 20.9229 34.9145 20.5015 34.3455C19.6039 33.202 18.9561 31.883 18.5998 30.4737C18.2944 29.1361 18.0971 27.7761 18.0098 26.4069L18.8685 27.2181C18.2548 27.1772 17.6585 26.997 17.1248 26.6913C16.609 26.3858 16.1651 25.9725 15.8236 25.4797C15.2244 24.5755 14.8521 23.5401 14.7385 22.4613C14.601 21.4824 14.5411 20.4943 14.5594 19.506C14.5675 18.9702 14.6508 18.4382 14.8069 17.9256C14.9814 17.3768 15.3085 16.889 15.7499 16.5191C15.7962 16.4762 15.8506 16.4429 15.9098 16.421C15.969 16.3991 16.032 16.3891 16.0951 16.3915C16.1582 16.394 16.2202 16.4088 16.2776 16.4352C16.3349 16.4617 16.3865 16.4991 16.4294 16.5455C16.4723 16.5918 16.5057 16.6461 16.5276 16.7054C16.5494 16.7646 16.5595 16.8276 16.557 16.8907C16.5546 16.9538 16.5397 17.0158 16.5133 17.0732C16.4869 17.1305 16.4494 17.1821 16.4031 17.225L16.3715 17.2355Z" fill="#333333"/>
<path d="M24.7053 33.9136C25.3059 34.974 26.1957 35.8418 27.2708 36.4158C28.2798 36.8882 29.3866 37.1139 30.5 37.0743C31.6107 37.1091 32.7138 36.8798 33.7186 36.4053C34.7936 35.8323 35.6862 34.9689 36.2946 33.9136C36.3464 34.6394 36.2249 35.3671 35.94 36.0366C35.6552 36.7062 35.2152 37.2984 34.6563 37.7644C33.4847 38.7182 32.0102 39.2209 30.5 39.1814C28.9868 39.2249 27.5082 38.724 26.3331 37.7696C25.7727 37.3043 25.3323 36.7111 25.049 36.0401C24.7658 35.369 24.6479 34.6397 24.7053 33.9136Z" fill="#333333"/>
</svg>
