<svg width="54" height="56" viewBox="0 0 54 56" fill="none" xmlns="http://www.w3.org/2000/svg">
<path d="M48.84 25.34C47.5601 23.01 46.84 20.91 45.05 19L48.05 17C46.8777 15.8051 45.8689 14.4601 45.05 13C44.0613 10.7708 42.2792 8.98877 40.05 8L43.05 6C39.9026 4.61156 36.4894 3.92892 33.05 4L34.05 1C29.13 2 28.05 4 28.05 4C28.05 4 21.05 1 12.05 5L16.05 6.5C10.05 8.5 11.68 11.13 6.63005 15.08L10.05 15.5C7.05005 19.5 8.05005 21.5 5.05005 25.5L9.05005 26.5C7.05005 30.58 8.05005 31.5 7.05005 34.5L11.05 33.5C11.05 33.5 10.55 37.63 10.28 39.79L15.28 38.62C15.28 49.42 28.19 50.81 28.19 50.81C38.1 46.12 39.6101 41.11 39.8601 39L43.2701 39.66L42.18 33.11L45.6301 33.91C45.7422 31.4139 45.6183 28.9128 45.26 26.44L48.84 25.34Z" fill="#AAAAAA"/>
<path d="M28.61 9.94004C32.18 7.32004 37.89 5.78004 43.05 6.00004C42.64 6.46004 40.37 7.83004 39.96 8.29004C40.96 8.29004 42.46 9.49004 43.19 10.21C45.4 12.41 45.05 13 48.05 17C47.0014 17.5908 45.9986 18.2593 45.05 19C44.97 19.42 46.91 20.71 48.58 25.25C47.71 25.58 45.25 26.42 45.25 26.42C45.47 28.92 45.56 31.42 45.53 33.95C44.53 33.61 42.22 33.09 42.22 33.09C42.22 33.09 43.14 37.66 43.31 39.64C40.31 39.06 38.1 39.22 35.14 36.02C35.14 36.02 35.73 33.79 36.9 30.66C37.0197 30.2975 37.2025 29.959 37.44 29.66C37.8515 29.3164 38.3011 29.0211 38.78 28.78C39.1604 28.5 39.4798 28.1455 39.7188 27.738C39.9577 27.3306 40.1113 26.8787 40.17 26.41C40.2854 25.4732 40.2448 24.5237 40.05 23.6C39.999 22.955 39.759 22.3394 39.36 21.83C39.1518 21.5834 38.8556 21.4277 38.5345 21.396C38.2133 21.3643 37.8924 21.459 37.64 21.66C37.35 19.26 37.88 16.77 37.23 14.44C36.9838 13.5326 36.5663 12.6806 36 11.93C35.64 11.3903 35.1077 10.9884 34.49 10.79C33.9508 10.707 33.3991 10.7798 32.9 11C32.2242 11.2457 31.585 11.5821 31 12C30 12.73 29.1 13.74 27.88 13.84C26.97 13.92 24.88 12.95 25.25 11.76C25.46 11.07 26.25 11.29 26.8 11.11C27.4627 10.8206 28.0739 10.4254 28.61 9.94004Z" fill="#888888"/>
<path d="M41.7399 22.49L43.6199 22.89C42.8285 20.9977 41.7894 19.2189 40.5299 17.6L43.8899 17.25C42.8899 14.16 35.5999 11.09 35.5999 11.09L19.3999 11C17.1399 11.34 15.8499 15.16 12.4499 16.26L13.1599 16.36C13.4307 16.4117 13.6834 16.5325 13.8938 16.7107C14.1041 16.8888 14.2648 17.1183 14.3604 17.3768C14.456 17.6354 14.4831 17.9142 14.4393 18.1863C14.3954 18.4584 14.2819 18.7146 14.1099 18.93C12.6499 20.77 11.8799 22.58 9.74992 24.93L14.1099 23.43C13.8913 27.6762 12.0302 31.671 8.91992 34.57L14.7899 33C14.9306 32.9661 15.0775 32.9678 15.2173 33.005C15.3571 33.0422 15.4855 33.1137 15.5907 33.213C15.696 33.3123 15.7748 33.4362 15.82 33.5736C15.8653 33.7111 15.8756 33.8576 15.8499 34C15.5903 35.7419 15.1581 37.4536 14.5599 39.11H40.0599C40.4599 36.1233 40.4599 33.0967 40.0599 30.11H43.6199C43.5299 27.45 41.7399 22.49 41.7399 22.49Z" fill="#888888"/>
<path d="M42.9001 22.38C43.2893 23.9622 43.9021 25.4808 44.7201 26.89C43.5563 24.807 41.8215 23.1 39.7201 21.97C41.6501 25.2029 42.74 28.8677 42.8901 32.63C42.2823 30.6504 41.2596 28.8232 39.8901 27.27C39.5527 30.1669 39.4324 33.0851 39.5301 36C38.9501 33.41 37.3601 31.13 36.7101 28.55C36.3307 26.6516 36.2096 24.7108 36.3501 22.78C36.2438 20.68 36.6059 18.5827 37.4101 16.64C37.5501 16.36 40.4101 18.29 40.7401 18.58C41.7707 19.643 42.514 20.9506 42.9001 22.38Z" fill="#AAAAAA"/>
<path d="M42.9099 17.89C44.3099 19.21 45.1799 21.89 45.4799 23.75C45.3612 23.0377 45.0742 22.364 44.6429 21.7848C44.2116 21.2057 43.6483 20.7378 42.9999 20.42C41.6789 19.8109 40.3232 19.2799 38.9399 18.83C37.5899 18.29 38.0799 17.32 37.4599 16.01C37.0299 15.1701 36.7299 14.2698 36.5699 13.34C36.3278 12.3203 35.8443 11.3737 35.1599 10.58C35.2599 10.7 36.1599 10.7 36.3299 10.74C36.7352 10.8295 37.133 10.9499 37.5199 11.1C38.3599 11.42 38.0399 11.98 38.4499 12.71C39.6727 14.6474 41.1756 16.393 42.9099 17.89Z" fill="#AAAAAA"/>
<path d="M52 45C51.36 42.46 49.52 41.39 47.06 40.46L34.47 37.85V35.19H19.9V37.73L7 40.43C4.52 41.34 2.65 42.43 2 44.99L1 48.76C9.1477 52.5321 18.0215 54.4775 27 54.46C35.9785 54.4775 44.8523 52.5321 53 48.76L52 45Z" fill="#D8B3AD"/>
<path d="M19.8999 35.19V37.28L29.2599 45.66L36.7599 38.33L34.4699 37.85V35.19H19.8999Z" fill="#CCA6A2"/>
<path d="M52.0001 45C51.3601 42.46 49.5901 41.15 47.0601 40.46C44.7001 39.82 37.0601 38.29 34.4301 37.82L30.4301 43.7L27.1801 48.49L23.9401 43.7L19.9401 37.7C16.4401 38.44 8.94008 39.89 7.08008 40.4C4.53008 41.1 2.73008 42.4 2.08008 44.96L1.08008 48.73C9.22778 52.5021 18.1016 54.4475 27.0801 54.43C36.0586 54.4475 44.9324 52.5021 53.0801 48.73L52.0001 45Z" fill="white"/>
<path d="M35.0699 35.73C34.1604 38.7186 32.5724 41.4565 30.4299 43.73L27.1799 48.52L30.6799 46.41L35.5799 49C35.7609 49.08 35.9658 49.0872 36.152 49.0202C36.3382 48.9531 36.4914 48.817 36.5799 48.64C36.631 48.5338 36.6583 48.4178 36.6599 48.3V37.38L35.0699 35.73Z" fill="#CCCCCC"/>
<path d="M26.69 47.73L23.94 43.73L19.53 37.13L18 38.52V48.18C18 48.2566 18.0153 48.3324 18.0452 48.4029C18.0751 48.4733 18.1189 48.5371 18.174 48.5903C18.229 48.6435 18.2942 48.6851 18.3657 48.7125C18.4372 48.7399 18.5135 48.7527 18.59 48.75C18.6659 48.7651 18.7441 48.7651 18.82 48.75L24 46.23L26.69 47.73Z" fill="#CCCCCC"/>
<path d="M52 45C51.36 42.46 49.52 41.39 47.06 40.46L37.76 38.46C38.02 43.9 34.39 50.7 27.14 50.7C20.14 50.7 16.28 43.96 16.53 38.47L7 40.5C4.52 41.41 2.65 42.5 2 45.06L1 48.83C9.1477 52.6021 18.0215 54.5475 27 54.53C35.9785 54.5475 44.8523 52.6021 53 48.83L52 45Z" fill="#8999B2"/>
<path d="M36.6999 48.2599V44.2599C36.0601 45.7513 35.1167 47.0931 33.9299 48.2L35.5799 48.99C35.7609 49.0699 35.9658 49.0772 36.152 49.0101C36.3382 48.9431 36.4914 48.807 36.5799 48.63C36.6498 48.5184 36.691 48.3913 36.6999 48.2599Z" fill="#748399"/>
<path d="M18 44.79V48.18C18 48.2565 18.0153 48.3323 18.0452 48.4028C18.0751 48.4733 18.1189 48.5371 18.174 48.5903C18.229 48.6435 18.2942 48.685 18.3657 48.7125C18.4372 48.7399 18.5135 48.7527 18.59 48.75C18.6659 48.7651 18.7441 48.7651 18.82 48.75L20.32 48C19.37 47.0695 18.5855 45.9839 18 44.79Z" fill="#748399"/>
<path d="M37.8 39.79C38.06 45.21 32.59 50.79 27.18 50.79C21.7701 50.79 16.3201 45.29 16.5301 39.79" stroke="#333333" stroke-width="1.5" stroke-linejoin="round"/>
<path d="M27.0601 8.72998C31.4701 8.72998 37.2901 9.99998 37.2901 16.52V20.52C39.2901 20.52 39.8101 21.52 39.8101 24.65C39.8101 27.04 39.4701 28.65 37.1501 29.48C37.0576 30.9515 36.6914 32.3928 36.0701 33.73C35.1918 35.6277 33.6678 37.1517 31.7701 38.03C31.2601 39.03 29.2601 40.28 27.0601 40.28C24.8601 40.28 22.8601 39 22.3501 38C20.4523 37.1217 18.9284 35.5977 18.0501 33.7C17.437 32.3651 17.0808 30.9267 17.0001 29.46C14.6801 28.63 14.3401 27.02 14.3401 24.63C14.3401 21.5 14.8601 20.5 16.8601 20.5V16.5C16.8301 9.99998 22.6501 8.72998 27.0601 8.72998Z" fill="#EDCCC3"/>
<path d="M39.81 24.63C39.81 21.5 39.29 20.5 37.29 20.5V16.5C37.29 9.97996 31.47 8.70996 27.06 8.70996C26.174 8.71148 25.2889 8.76826 24.41 8.87996V18.88C24.4047 19.4166 24.2892 19.9465 24.0708 20.4368C23.8523 20.927 23.5355 21.3672 23.14 21.73C22.8521 21.66 22.5561 21.6297 22.26 21.64C19.56 21.64 19.26 24.3 19.65 24.57C20.59 25.22 20.91 23.39 24.81 23.52C25.17 23.52 25.23 23.9 25.22 24.23C25.21 24.56 24.94 26 22.71 26.7C22.6653 26.7176 22.628 26.7501 22.6043 26.792C22.5806 26.8338 22.5721 26.8825 22.58 26.93C22.5872 26.9777 22.6115 27.0211 22.6482 27.0524C22.685 27.0836 22.7318 27.1005 22.78 27.1C23.4338 27.1243 24.0814 26.9659 24.6501 26.6427C25.2189 26.3194 25.6864 25.8441 26 25.27C26.31 24.72 26.36 24.27 26.78 24.27C27.2 24.27 27.23 24.61 27.23 24.81V26.87C27.2389 27.0693 27.3024 27.2624 27.4135 27.4281C27.5246 27.5939 27.679 27.726 27.86 27.81C28.43 28.12 28.02 29.21 27.23 29.21C26.9175 29.2191 26.6089 29.1394 26.34 28.98C25.6 28.61 24.91 29.36 25.07 29.65C25.23 29.94 25.4 29.65 26.15 30C26.4926 30.1691 26.868 30.2612 27.25 30.27V33.94C27.2504 34.0292 27.2814 34.1156 27.3378 34.1848C27.3942 34.2539 27.4726 34.3017 27.56 34.32C28.88 34.62 29.56 36.81 27.25 37.32C26.9693 37.3714 26.7155 37.5197 26.5328 37.7389C26.3501 37.9582 26.25 38.2346 26.25 38.52V40.24H27.17C29.37 40.24 31.37 38.99 31.88 37.99C33.7778 37.1117 35.3017 35.5877 36.18 33.69C36.8071 32.3478 37.1736 30.8988 37.26 29.42C39.47 28.63 39.81 27 39.81 24.63Z" fill="#E5C2BA"/>
<path d="M28.5301 33.4C28.0964 33.4183 27.665 33.4718 27.2401 33.56C26.8315 33.4744 26.4169 33.4209 26.0001 33.4C25.0601 33.4 24.8501 33.75 23.8101 33.76L25.0001 34.59C25.3603 34.882 25.8066 35.0471 26.2701 35.06H28.3401C28.7924 35.0457 29.2278 34.8842 29.5801 34.6L30.8101 33.8C29.7501 33.78 29.5301 33.4 28.5301 33.4Z" fill="#DDBAB6"/>
<path d="M30.7702 34C30.438 34.04 30.1023 34.04 29.7702 34C29.4944 33.9242 29.2137 33.8674 28.9302 33.83C28.3737 33.8079 27.8171 33.872 27.2802 34.02H27.1202C26.6024 33.872 26.0684 33.788 25.5302 33.77C25.2436 33.7995 24.9595 33.8497 24.6802 33.92C24.3688 33.9694 24.0516 33.9694 23.7402 33.92C23.7178 33.9175 23.6961 33.9106 23.6764 33.8997C23.6567 33.8888 23.6394 33.874 23.6254 33.8564C23.6115 33.8387 23.6012 33.8184 23.5951 33.7967C23.5891 33.775 23.5874 33.7523 23.5902 33.73C23.5902 33.6902 23.606 33.6521 23.6341 33.6239C23.6622 33.5958 23.7004 33.58 23.7402 33.58C24.0192 33.5498 24.2942 33.4895 24.5602 33.4C24.8502 33.29 25.1402 33.2 25.4302 33.12C26.0579 33.0079 26.7024 33.0318 27.3202 33.19H27.1602C27.4657 33.1206 27.7771 33.0804 28.0902 33.07C28.4216 33.02 28.7587 33.02 29.0902 33.07C29.6413 33.2832 30.2101 33.4472 30.7902 33.56C30.8344 33.5649 30.8752 33.5861 30.9047 33.6193C30.9343 33.6525 30.9504 33.6955 30.9502 33.74C30.9442 33.7803 30.9254 33.8176 30.8966 33.8464C30.8678 33.8752 30.8305 33.894 30.7902 33.9L30.7702 34Z" fill="#AF8582"/>
<path d="M32.0001 22.18C34.1601 22.18 35.0801 24.44 34.7001 24.71C33.7001 25.4 33.3701 23.45 30.0301 23.71C29.7801 23.71 29.6001 23.25 29.7601 23.04C30.039 22.7299 30.3874 22.4903 30.7767 22.3408C31.1661 22.1913 31.5853 22.1362 32.0001 22.18Z" fill="#EDCCC3"/>
<path d="M33.8799 24.73C33.0427 24.0711 32.0053 23.7182 30.9399 23.73" stroke="#D8B5AF" stroke-width="0.5" stroke-miterlimit="10" stroke-linecap="round"/>
<path d="M20.5801 24.73C21.4346 24.0601 22.4946 23.7068 23.5801 23.73" stroke="#D8B5AF" stroke-width="0.5" stroke-miterlimit="10" stroke-linecap="round"/>
<path d="M19.37 28.88C18.8998 28.5424 18.5253 28.0884 18.2834 27.5625C18.0414 27.0365 17.9404 26.4567 17.99 25.88V21.48C17.99 21.2148 17.8847 20.9604 17.6971 20.7729C17.5096 20.5853 17.2553 20.48 16.99 20.48C15.43 20.48 14.54 20.95 14.54 24.61C14.54 27 14.88 28.61 17.2 29.44C17.2805 30.9239 17.6402 32.3793 18.26 33.73C18.8899 35.0796 19.8493 36.2488 21.05 37.13C18.06 31.49 21.29 30.37 19.37 28.88Z" fill="#E5C2BA"/>
<path d="M35.0001 28.88C35.4704 28.5424 35.8448 28.0884 36.0868 27.5625C36.3287 27.0365 36.4298 26.4567 36.3801 25.88V21.48C36.3801 21.2148 36.4854 20.9604 36.673 20.7729C36.8605 20.5853 37.1149 20.48 37.3801 20.48C38.9401 20.48 39.8401 20.95 39.8401 24.61C39.8401 27 39.5001 28.61 37.1801 29.44C37.0922 30.9239 36.7294 32.3786 36.1101 33.73C35.4803 35.0796 34.5208 36.2488 33.3201 37.13C36.3101 31.49 33.0701 30.37 35.0001 28.88Z" fill="#D8B3AD"/>
<path d="M31.3601 25.61C31.7743 25.61 32.1101 25.2742 32.1101 24.86C32.1101 24.4458 31.7743 24.11 31.3601 24.11C30.9459 24.11 30.6101 24.4458 30.6101 24.86C30.6101 25.2742 30.9459 25.61 31.3601 25.61Z" fill="#333333"/>
<path d="M22.8601 25.61C23.2743 25.61 23.6101 25.2742 23.6101 24.86C23.6101 24.4458 23.2743 24.11 22.8601 24.11C22.4459 24.11 22.1101 24.4458 22.1101 24.86C22.1101 25.2742 22.4459 25.61 22.8601 25.61Z" fill="#333333"/>
<path d="M32.06 31.35C31.6529 30.8588 31.0941 30.5166 30.4715 30.3772C29.8489 30.2379 29.1977 30.3092 28.62 30.58C27.7283 30.9403 26.7316 30.9403 25.84 30.58C25.2623 30.3092 24.611 30.2379 23.9884 30.3772C23.3658 30.5166 22.8071 30.8588 22.4 31.35C22 31.84 21.71 32.21 21.54 32.43C21.5254 32.4631 21.5178 32.4989 21.5178 32.535C21.5178 32.5712 21.5254 32.6069 21.54 32.64C21.5501 32.6753 21.5679 32.708 21.5921 32.7356C21.6163 32.7633 21.6463 32.7853 21.68 32.8C23.4657 33.4898 25.3563 33.8687 27.27 33.92C29.1842 33.8745 31.0759 33.4955 32.86 32.8C32.8936 32.7853 32.9236 32.7633 32.9478 32.7356C32.972 32.708 32.9898 32.6753 33 32.64C33.015 32.6088 33.0228 32.5746 33.0228 32.54C33.0228 32.5054 33.015 32.4712 33 32.44C32.6626 32.0981 32.3486 31.7339 32.06 31.35Z" fill="#9B9695"/>
<path d="M25 33.8C25.1123 33.4541 25.2562 33.1194 25.43 32.8C25.5906 32.4507 25.7813 32.1161 26 31.8C25.9382 32.1498 25.9114 32.5049 25.92 32.86C25.9184 33.1946 25.9418 33.5289 25.99 33.86L25 33.8Z" fill="#A8A7A7"/>
<path d="M23.0801 33.1C23.2373 32.8928 23.4113 32.6989 23.6001 32.52C24.1129 31.9983 24.7116 31.5687 25.3701 31.25C25.0457 31.583 24.7605 31.9521 24.5201 32.35C24.4101 32.55 24.3001 32.75 24.2101 32.95C24.1096 33.1412 24.0292 33.3423 23.9701 33.55L23.0801 33.1Z" fill="#A8A7A7"/>
<path d="M21.78 32.73C22.0884 32.2919 22.4589 31.9011 22.88 31.57C23.287 31.2406 23.7731 31.0234 24.29 30.94C23.8854 31.1866 23.5344 31.512 23.2579 31.8967C22.9813 32.2815 22.7848 32.7179 22.68 33.18L21.78 32.73Z" fill="#A8A7A7"/>
<path d="M21.6401 32.8C23.7548 33.3009 25.9297 33.4995 28.1001 33.39C29.1689 33.2905 30.2287 33.1099 31.2701 32.85L32.0601 32.64L32.4501 32.53L32.6401 32.47C32.7101 32.76 32.5101 32.31 32.3601 32.13L31.9101 31.43C31.6786 31.0084 31.3318 30.6615 30.9101 30.43C31.4164 30.5113 31.8772 30.7701 32.2101 31.16C32.4101 31.35 32.6101 31.55 32.8001 31.76L33.0901 32.06C33.161 32.1312 33.2216 32.212 33.2701 32.3C33.3287 32.418 33.3437 32.5529 33.3126 32.681C33.2815 32.809 33.2063 32.922 33.1001 33L32.9301 33.09L32.7401 33.17L32.3501 33.34C32.0901 33.45 31.8201 33.54 31.5501 33.63C30.4707 33.9975 29.3479 34.2228 28.2101 34.3C27.0648 34.3809 25.9138 34.2796 24.8001 34C23.6966 33.7474 22.6332 33.3436 21.6401 32.8Z" fill="#8C8584"/>
<path d="M28.9999 31.07C29.0813 31.0713 29.1622 31.0566 29.2379 31.0267C29.3137 30.9967 29.3828 30.9522 29.4413 30.8955C29.4998 30.8389 29.5465 30.7713 29.5789 30.6965C29.6113 30.6218 29.6286 30.5414 29.6299 30.46C29.6349 30.4168 29.6349 30.3732 29.6299 30.33C28.5599 30.42 28.4799 30.89 27.2599 30.85C26.0399 30.81 25.9199 30.38 24.7899 30.33C24.7608 30.4944 24.7982 30.6637 24.8938 30.8006C24.9895 30.9374 25.1355 31.0308 25.2999 31.06H25.4099C25.9822 31.3001 26.5843 31.4616 27.1999 31.54C27.8188 31.4674 28.4246 31.3093 28.9999 31.07Z" fill="#827D7D"/>
<path d="M25.0701 30.1C25.4414 30.132 25.8005 30.2483 26.1201 30.44V30.44C26.4507 30.5931 26.8107 30.6725 27.1751 30.6725C27.5394 30.6725 27.8994 30.5931 28.2301 30.44C28.5534 30.2484 28.9157 30.1322 29.2901 30.1" stroke="#BA8D86" stroke-width="0.75" stroke-miterlimit="10" stroke-linecap="round"/>
<path d="M26.3301 36.19H28.1801" stroke="#BA8D86" stroke-width="0.75" stroke-miterlimit="10" stroke-linecap="round"/>
<path d="M19.3 35.73L16.53 38.52V47.27L23.94 43.73C22.05 41.48 19.53 37.9 19.3 35.73Z" fill="white"/>
<path d="M23.9399 43.73L27.1799 48.52" stroke="#333333" stroke-width="1.5" stroke-linejoin="round"/>
<path d="M27.0601 8.72998C31.4701 8.72998 37.2901 9.99998 37.2901 16.52V20.52C39.2901 20.52 39.8101 21.52 39.8101 24.65C39.8101 27.04 39.4701 28.65 37.1501 29.48C37.0576 30.9515 36.6914 32.3928 36.0701 33.73C35.1918 35.6277 33.6678 37.1517 31.7701 38.03C31.2601 39.03 29.2601 40.28 27.0601 40.28C24.8601 40.28 22.8601 39 22.3501 38C20.4523 37.1217 18.9284 35.5977 18.0501 33.7C17.437 32.3651 17.0808 30.9267 17.0001 29.46C14.6801 28.63 14.3401 27.02 14.3401 24.63C14.3401 21.5 14.8601 20.5 16.8601 20.5V16.5C16.8301 9.99998 22.6501 8.72998 27.0601 8.72998Z" stroke="#333333" stroke-width="1.5" stroke-linejoin="round"/>
<path d="M10.28 39.79C10.55 37.63 11.05 33.5 11.05 33.5L7.05005 34.5C8.05005 31.5 7.05005 30.58 9.05005 26.5L5.05005 25.5C8.05005 21.5 7.05005 19.5 10.05 15.5L6.63005 15.08C11.63 11.08 10.05 8.5 16.05 6.5L12.05 5C21.05 1 28.05 4 28.05 4C28.05 4 29.13 2 34.05 1L33.05 4C36.4894 3.92892 39.9026 4.61156 43.05 6L40.05 8C42.2792 8.98877 44.0613 10.7708 45.05 13C45.8689 14.4601 46.8777 15.8051 48.05 17L45.05 19C46.84 20.91 47.56 23 48.84 25.34L45.25 26.42C45.6083 28.8928 45.7322 31.3939 45.62 33.89L42.17 33.09L43.26 39.64" stroke="#333333" stroke-width="1.5" stroke-linecap="round" stroke-linejoin="round"/>
<path d="M34.7201 10.73C35.5785 11.4119 36.2601 12.2903 36.7074 13.2911C37.1547 14.2919 37.3546 15.3857 37.2901 16.48V20.48C39.2901 20.48 39.8101 21.48 39.8101 24.61C39.8101 27 39.4701 28.61 37.1501 29.44C37.0686 30.9261 36.702 32.3826 36.0701 33.73C35.1918 35.6278 33.6678 37.1518 31.7701 38.03C31.2601 39.03 29.2601 40.28 27.0601 40.28C24.8601 40.28 22.8601 39 22.3501 38C20.4523 37.1218 18.9284 35.5978 18.0501 33.7C17.437 32.3652 17.0808 30.9268 17.0001 29.46C14.6801 28.63 14.3401 27.02 14.3401 24.63C14.3401 21.5 14.8601 20.5 16.8601 20.5V16.5C16.7956 15.3811 17.0084 14.2636 17.4793 13.2466C17.9503 12.2296 18.6651 11.3446 19.5601 10.67" stroke="#333333" stroke-width="1.5" stroke-linejoin="round"/>
<path d="M16.53 38.52C16.53 38.52 9.44 39.8 7 40.52C4.56 41.24 2.65 42.52 2 45.08L1 48.85C9.1477 52.6221 18.0215 54.5675 27 54.55C35.9785 54.5675 44.8523 52.6221 53 48.85L52 45.08C51.36 42.54 49.59 41.23 47.06 40.54C44.21 39.76 37.76 38.54 37.76 38.54" stroke="#333333" stroke-width="1.5" stroke-linejoin="round"/>
<path d="M27.1799 48.51V50.75" stroke="#333333" stroke-width="1.5" stroke-linecap="round" stroke-linejoin="round"/>
<path d="M23.94 43.73L16.53 47.27V38.52L19.3 35.73C20.2004 38.7225 21.7896 41.4624 23.94 43.73V43.73Z" stroke="#333333" stroke-width="1.5" stroke-linejoin="round"/>
<path d="M35.0699 35.73L37.7999 38.56V47.31L30.4299 43.73C32.3099 41.48 34.8599 37.9 35.0699 35.73Z" fill="white"/>
<path d="M30.4299 43.73L27.1799 48.52" stroke="#333333" stroke-width="1.5" stroke-linejoin="round"/>
<path d="M30.4299 43.73L37.7999 47.28V38.52L35.0699 35.73C34.1695 38.7225 32.5804 41.4624 30.4299 43.73V43.73Z" stroke="#333333" stroke-width="1.5" stroke-linejoin="round"/>
<path d="M16.83 18.09V23.49C16.83 23.49 16.83 20.93 15.22 20.93" stroke="#333333" stroke-width="1.5" stroke-linejoin="round"/>
<path d="M37.29 18.09V23.49C37.29 23.49 37.29 20.93 38.9 20.93" stroke="#333333" stroke-width="1.5" stroke-linejoin="round"/>
<path d="M30.7701 33.55C30.71 33.344 30.6331 33.1434 30.5401 32.95C30.4401 32.75 30.3401 32.55 30.2201 32.35C29.983 31.9499 29.6975 31.5804 29.3701 31.25C29.8066 31.4537 30.2191 31.7053 30.6001 32C30.7901 32.16 30.9701 32.32 31.1501 32.5C31.3357 32.679 31.5063 32.873 31.6601 33.08L30.7701 33.55Z" fill="#8C8584"/>
<path d="M29.44 33.83C29.4 33.4582 29.3298 33.0903 29.23 32.73C29.1236 32.3389 28.9761 31.9601 28.79 31.6C29.1204 31.8652 29.416 32.1709 29.67 32.51C29.9484 32.8429 30.1898 33.205 30.39 33.59L29.44 33.83Z" fill="#8C8584"/>
<path d="M31.6901 33.18C31.5853 32.7179 31.3888 32.2815 31.1122 31.8967C30.8357 31.512 30.4847 31.1866 30.0801 30.94C30.5944 31.0218 31.0777 31.2393 31.4801 31.57C31.9012 31.9011 32.2718 32.2919 32.5801 32.73L31.6901 33.18Z" fill="#8C8584"/>
<path d="M28.36 34.16L27.7 31.95L29.2299 33.67L28.36 34.16Z" fill="#8C8584"/>
<path d="M26.5901 34.05L26.7001 32.12L27.5601 33.82L26.5901 34.05Z" fill="#8C8584"/>
<path d="M19.1399 23.29C19.1137 22.8871 19.1723 22.4831 19.3118 22.1042C19.4513 21.7253 19.6687 21.3798 19.9499 21.09C20.4198 20.5798 21.0208 20.2084 21.6874 20.0162C22.3539 19.824 23.0604 19.8184 23.7299 20C24.4846 20.1777 25.1595 20.5995 25.6499 21.2V21.4C24.5086 21.448 23.3772 21.6327 22.2799 21.95C21.7321 22.0994 21.1998 22.3003 20.6899 22.55C20.1866 22.8011 19.7164 23.1135 19.2899 23.48L19.1399 23.29Z" fill="#8C8584"/>
<path d="M35.08 23.43C34.6534 23.0635 34.1832 22.7511 33.68 22.5C33.1701 22.2503 32.6377 22.0494 32.09 21.9C30.9927 21.5827 29.8612 21.398 28.72 21.35V21.15C29.2157 20.5704 29.8858 20.167 30.63 20C31.2975 19.8107 32.0051 19.8144 32.6706 20.0109C33.3361 20.2074 33.9323 20.5885 34.39 21.11C34.6702 21.4005 34.8869 21.7461 35.0263 22.1248C35.1658 22.5036 35.2249 22.9072 35.2 23.31L35.08 23.43Z" fill="#8C8584"/>
</svg>
