<svg width="21" height="21" viewBox="0 0 21 21" fill="none" xmlns="http://www.w3.org/2000/svg">
<path d="M10.9028 0.145508C5.39656 0.145508 0.927734 4.61974 0.927734 10.1326C0.927734 15.6455 5.39656 20.1198 10.9028 20.1198H15.8903V18.1223H10.9028C6.57362 18.1223 2.92275 14.467 2.92275 10.1326C2.92275 5.79822 6.57362 2.14293 10.9028 2.14293C15.232 2.14293 18.8828 5.79822 18.8828 10.1326V11.5608C18.8828 12.3498 18.1746 13.1288 17.3866 13.1288C16.5986 13.1288 15.8903 12.3498 15.8903 11.5608V10.1326C15.8903 7.37618 13.6559 5.13907 10.9028 5.13907C8.14968 5.13907 5.91527 7.37618 5.91527 10.1326C5.91527 12.8891 8.14968 15.1262 10.9028 15.1262C12.2794 15.1262 13.5362 14.5669 14.434 13.6581C15.0823 14.5469 16.1996 15.1262 17.3866 15.1262C19.3517 15.1262 20.8779 13.5283 20.8779 11.5608V10.1326C20.8779 4.61974 16.409 0.145508 10.9028 0.145508ZM10.9028 13.1288C9.24694 13.1288 7.91028 11.7905 7.91028 10.1326C7.91028 8.47477 9.24694 7.13649 10.9028 7.13649C12.5587 7.13649 13.8953 8.47477 13.8953 10.1326C13.8953 11.7905 12.5587 13.1288 10.9028 13.1288Z" fill="#4B4B4B"/>
</svg>
