<svg width="16" height="14" viewBox="0 0 16 14" fill="none" xmlns="http://www.w3.org/2000/svg">
<path d="M15.75 2.5C15.75 3.05228 15.3023 3.5 14.75 3.5H1C0.447715 3.5 0 3.05228 0 2.5V1C0 0.447715 0.447715 0 1 0H14.75C15.3023 0 15.75 0.447715 15.75 1V2.5ZM15.75 6.25C15.75 5.69772 15.3023 5.25 14.75 5.25H1C0.447715 5.25 0 5.69772 0 6.25V7.75C0 8.30229 0.447715 8.75 1 8.75H14.75C15.3023 8.75 15.75 8.30228 15.75 7.75V6.25ZM15.75 11.5C15.75 10.9477 15.3023 10.5 14.75 10.5H1C0.447715 10.5 0 10.9477 0 11.5V13C0 13.5523 0.447715 14 1 14H14.75C15.3023 14 15.75 13.5523 15.75 13V11.5Z" fill="#ACACAC"/>
</svg>
