<svg width="53" height="48" viewBox="0 0 53 48" fill="none" xmlns="http://www.w3.org/2000/svg">
<path d="M50.82 39.5301C49.88 36.7101 48.35 35.3901 46.12 34.8301C38.31 32.8801 38.05 33.0001 26.38 33.0001C14.71 33.0001 14.38 32.9501 6.64 34.8801C4.41 35.4401 2.88 36.7601 1.94 39.5801L1 42.3501C9.09284 45.4915 17.6988 47.1022 26.38 47.1001C35.0602 47.0916 43.6642 45.4813 51.76 42.3501L50.82 39.5301Z" fill="#E4E9EA"/>
<path d="M46.53 38.0001L42 36.8301C36.9076 35.5311 31.6754 34.8594 26.42 34.8301C21.1646 34.8594 15.9324 35.5311 10.84 36.8301L6.23 38.0001C5.23352 38.2522 4.31969 38.759 3.57812 39.4707C2.83656 40.1825 2.29274 41.0748 2 42.0601C9.70496 45.3806 18.01 47.0824 26.4 47.0601C34.79 47.0824 43.095 45.3806 50.8 42.0601C50.5038 41.0699 49.9539 40.1744 49.2049 39.4622C48.4559 38.7501 47.5338 38.246 46.53 38.0001Z" fill="#D3DBDD"/>
<g opacity="0.15">
<path opacity="0.15" d="M40.8001 37.4601C40.3393 39.3202 39.4604 41.0508 38.2301 42.5201C37.5875 43.249 36.8351 43.8732 36.0001 44.3701C35.1842 44.8796 34.2934 45.2575 33.3601 45.4901C33.3044 45.5022 33.2463 45.4924 33.1978 45.4625C33.1493 45.4327 33.1143 45.3852 33.1001 45.3301C33.089 45.2798 33.096 45.2272 33.1198 45.1815C33.1435 45.1359 33.1826 45.1 33.2301 45.0801C34.06 44.729 34.8427 44.2754 35.5601 43.7301C36.2614 43.1771 36.9108 42.5612 37.5001 41.8901C38.7112 40.544 39.685 39.0021 40.3801 37.3301C40.3909 37.3042 40.4069 37.2808 40.4269 37.2612C40.447 37.2416 40.4708 37.2263 40.4969 37.216C40.523 37.2058 40.5508 37.2008 40.5789 37.2015C40.6069 37.2022 40.6345 37.2085 40.6601 37.2201C40.7074 37.2379 40.7472 37.2715 40.7727 37.3152C40.7982 37.3589 40.8079 37.4101 40.8001 37.4601Z" fill="#333333"/>
<path opacity="0.15" d="M45.8402 38.6801C44.9783 40.6747 43.5969 42.4014 41.8402 43.6801C40.9654 44.2904 40.0094 44.7751 39.0002 45.1201C37.9966 45.4816 36.9519 45.7168 35.8902 45.8201C35.8618 45.8228 35.8331 45.8198 35.806 45.8111C35.7788 45.8024 35.7537 45.7882 35.7322 45.7695C35.7107 45.7508 35.6932 45.7279 35.6808 45.7022C35.6684 45.6765 35.6614 45.6486 35.6602 45.6201C35.656 45.5691 35.6696 45.5183 35.6988 45.4763C35.728 45.4344 35.7709 45.4039 35.8202 45.3901C36.8134 45.1505 37.7812 44.8156 38.7102 44.3901C39.6187 43.9549 40.4885 43.443 41.3102 42.8601C42.9875 41.7129 44.3992 40.2193 45.4502 38.4801C45.4645 38.4564 45.4834 38.4357 45.5058 38.4193C45.5282 38.4029 45.5536 38.3912 45.5806 38.3846C45.6075 38.3781 45.6355 38.377 45.6629 38.3814C45.6903 38.3858 45.7166 38.3955 45.7402 38.4101C45.7881 38.4339 45.8251 38.4751 45.8437 38.5253C45.8623 38.5754 45.861 38.6308 45.8402 38.6801Z" fill="#333333"/>
<path opacity="0.15" d="M48.77 40.0601C48.2091 41.4722 47.2718 42.7035 46.06 43.6201C45.4499 44.0564 44.775 44.3939 44.06 44.6201C43.3493 44.8668 42.6099 45.0214 41.86 45.0801C41.8043 45.0894 41.7472 45.0762 41.7012 45.0433C41.6553 45.0105 41.6242 44.9608 41.615 44.9051C41.6057 44.8494 41.6189 44.7923 41.6517 44.7464C41.6845 44.7004 41.7343 44.6694 41.79 44.6601C42.4791 44.4749 43.1489 44.2237 43.79 43.9101C44.4042 43.5933 44.9927 43.2289 45.55 42.8201C46.705 42.0276 47.6853 41.0066 48.43 39.8201C48.4608 39.7715 48.5096 39.7369 48.5657 39.7238C48.6218 39.7107 48.6807 39.7202 48.73 39.7501C48.7542 39.7668 48.7747 39.7885 48.7901 39.8137C48.8055 39.8388 48.8153 39.8669 48.8191 39.8962C48.8229 39.9254 48.8205 39.9551 48.812 39.9834C48.8035 40.0116 48.7892 40.0378 48.77 40.0601Z" fill="#333333"/>
</g>
<path d="M50.82 39.5301C49.88 36.7101 48.35 35.3901 46.12 34.8301C38.31 32.8801 38.05 33.0001 26.38 33.0001C14.71 33.0001 14.38 32.9501 6.64 34.8801C4.41 35.4401 2.88 36.7601 1.94 39.5801L1 42.3501C9.09284 45.4915 17.6988 47.1022 26.38 47.1001C35.0602 47.0916 43.6642 45.4813 51.76 42.3501L50.82 39.5301Z" stroke="#333333" stroke-width="1.41" stroke-linejoin="round"/>
<path d="M26.3499 44.6301C34.3139 44.6301 40.7699 40.5424 40.7699 35.5001C40.7699 30.4577 34.3139 26.3701 26.3499 26.3701C18.386 26.3701 11.9299 30.4577 11.9299 35.5001C11.9299 40.5424 18.386 44.6301 26.3499 44.6301Z" fill="#D3DBDD"/>
<path d="M33 33.8901V27.3101H19.8V33.8901L17 34.8301C19.1271 38.5706 22.412 41.5186 26.36 43.2301C31.36 41.0101 33.89 38.8401 35.8 34.8301L33 33.8901Z" fill="#AD8064"/>
<path d="M28.8101 41.7601C31.8479 40.2911 34.3106 37.853 35.8101 34.8301L33 33.8901V27.3101H19.8V33.8901L28.8101 41.7601Z" fill="#A0775C"/>
<g opacity="0.15">
<path opacity="0.15" d="M12.2999 37.3201C13.2031 39.3148 14.4988 41.1071 16.1099 42.5901C16.897 43.3333 17.7506 44.0028 18.6599 44.5901C19.6022 45.1742 20.6089 45.6474 21.6599 46.0001C21.6863 46.009 21.7107 46.0232 21.7316 46.0417C21.7525 46.0602 21.7695 46.0826 21.7816 46.1078C21.7937 46.1329 21.8006 46.1602 21.8021 46.1881C21.8035 46.2159 21.7994 46.2438 21.7899 46.2701C21.7721 46.3174 21.7385 46.3572 21.6948 46.3827C21.6511 46.4082 21.5999 46.4179 21.5499 46.4101C20.4259 46.1758 19.3391 45.7889 18.3199 45.2601C17.2868 44.7355 16.3366 44.0616 15.4999 43.2601C13.8522 41.6484 12.6321 39.6516 11.9499 37.4501C11.9364 37.3957 11.9432 37.3383 11.9689 37.2886C11.9947 37.2389 12.0377 37.2003 12.0899 37.1801C12.1348 37.1804 12.1785 37.1938 12.2158 37.2187C12.2532 37.2436 12.2824 37.2788 12.2999 37.3201Z" fill="#333333"/>
<path opacity="0.15" d="M7.2399 38.48C8.28809 40.2214 9.70035 41.7155 11.3799 42.86C12.2079 43.444 13.0845 43.9558 13.9999 44.39C14.9253 44.8243 15.894 45.1595 16.8899 45.39C16.9179 45.3959 16.9444 45.4074 16.9678 45.4238C16.9912 45.4402 17.0109 45.4612 17.0259 45.4856C17.0409 45.5099 17.0508 45.5371 17.0549 45.5653C17.059 45.5936 17.0573 45.6224 17.0499 45.65C17.0361 45.6993 17.0056 45.7422 16.9637 45.7714C16.9217 45.8006 16.8709 45.8143 16.8199 45.81C15.7574 45.7115 14.7121 45.4762 13.7099 45.11C12.6897 44.7584 11.7262 44.2598 10.8499 43.63C9.09552 42.3489 7.7147 40.6229 6.8499 38.63C6.83837 38.6045 6.83206 38.5769 6.83136 38.5489C6.83067 38.5208 6.83559 38.4929 6.84584 38.4668C6.85609 38.4407 6.87147 38.417 6.89106 38.3969C6.91065 38.3769 6.93406 38.3609 6.9599 38.35C7.01441 38.3353 7.07237 38.3403 7.12358 38.3641C7.17479 38.3878 7.21598 38.4289 7.2399 38.48Z" fill="#333333"/>
<path opacity="0.15" d="M4.29995 39.8701C5.04731 41.0545 6.02705 42.075 7.17995 42.8701C7.742 43.2717 8.32994 43.6359 8.93995 43.9601C9.58101 44.2737 10.2508 44.5248 10.94 44.7101C10.9954 44.7264 11.0422 44.7638 11.0703 44.8143C11.0984 44.8649 11.1054 44.9244 11.09 44.9801C11.0765 45.0276 11.0475 45.0691 11.0076 45.0982C10.9677 45.1272 10.9193 45.1419 10.87 45.1401C10.1194 45.0853 9.37956 44.9306 8.66995 44.6801C7.95823 44.4457 7.28448 44.1088 6.66995 43.6801C5.46576 42.7541 4.53312 41.5209 3.96995 40.1101C3.9589 40.0833 3.95352 40.0545 3.95415 40.0255C3.95478 39.9965 3.96142 39.9679 3.97363 39.9416C3.98584 39.9153 4.00337 39.8918 4.02511 39.8726C4.04686 39.8534 4.07234 39.8389 4.09995 39.8301C4.13381 39.8182 4.17025 39.8156 4.20544 39.8227C4.24062 39.8297 4.27327 39.8461 4.29995 39.8701Z" fill="#333333"/>
</g>
<path d="M26.38 29.1901C33.59 29.1901 39.54 33.0101 40.38 37.5401C40.4484 37.1808 40.4819 36.8158 40.48 36.4501C40.48 31.4501 34.17 27.3201 26.38 27.3201C18.59 27.3201 12.28 31.4101 12.28 36.4501C12.2827 36.8156 12.3161 37.1802 12.38 37.5401C13.22 33.0001 19.16 29.1901 26.38 29.1901Z" fill="#E4E9EA"/>
<path d="M12.28 35.7701C12.28 30.1301 18.42 27.3101 26.38 27.3101C34.34 27.3101 40.48 30.1301 40.48 35.7701" stroke="#333333" stroke-width="1.41" stroke-linecap="round" stroke-linejoin="round"/>
<path d="M35.78 34.8301C34.86 34.5001 34.1 34.2301 32.96 33.8901" stroke="#333333" stroke-width="1.41" stroke-linecap="round" stroke-linejoin="round"/>
<path d="M19.8 33.8901C18.8904 34.2883 17.9465 34.6029 16.98 34.8301" stroke="#333333" stroke-width="1.41" stroke-linejoin="round"/>
<path d="M17.59 34.4801C19.8829 38.3834 23.3972 41.4233 27.59 43.1301C31.754 44.9235 36.3222 45.5691 40.82 45.0001C40.9274 44.9859 41.036 45.0147 41.1222 45.0803C41.2084 45.1458 41.2651 45.2428 41.28 45.3501C41.2945 45.456 41.267 45.5633 41.2035 45.6492C41.14 45.7351 41.0455 45.7928 40.94 45.8101C38.6237 46.1803 36.266 46.214 33.94 45.9101C31.6025 45.6254 29.3128 45.0336 27.13 44.1501C24.9175 43.2735 22.8506 42.0664 21 40.5701C19.1507 39.0551 17.5775 37.2316 16.35 35.1801C16.2742 35.021 16.2603 34.8394 16.311 34.6706C16.3617 34.5018 16.4733 34.3578 16.6242 34.2668C16.7751 34.1758 16.9545 34.1441 17.1275 34.178C17.3004 34.2119 17.4546 34.3089 17.56 34.4501L17.59 34.4801Z" fill="#333333"/>
<path opacity="0.24" d="M28.26 34.8301C27.7723 35.3667 27.1019 35.7019 26.38 35.7701C25.6605 35.6937 24.9928 35.3599 24.5 34.8301" stroke="#59402F" stroke-width="0.94" stroke-miterlimit="10" stroke-linecap="round"/>
<path d="M26.1599 42.8601C28.0525 41.9338 29.8199 40.7712 31.4199 39.4001C32.9589 38.0083 34.227 36.3436 35.1599 34.4901L36.3899 35.1701C35.2987 37.1111 33.8578 38.8334 32.1399 40.2501C30.4131 41.596 28.5252 42.7213 26.5199 43.6001L26.1599 42.8601Z" fill="#333333"/>
<path d="M26.38 33.0001C27.65 33.0001 29.48 33.2901 31.08 31.1201C33.31 28.1201 36.64 27.4101 36.72 22.6601C39.54 22.6601 40.48 19.9001 40.48 17.9601C40.48 14.2601 37.66 15.1401 37.66 15.1401V11.3301C37.7 7.15006 34.6 1.00006 26.38 1.00006C18.16 1.00006 15.06 7.16006 15.1 11.3301V15.0901C15.1 15.0901 12.28 14.2101 12.28 17.9101C12.28 19.8501 13.22 22.6101 16.04 22.6101C16.12 27.3601 19.45 28.0701 21.68 31.0701C23.28 33.2401 25.11 33.0001 26.38 33.0001Z" fill="#AD8064"/>
<path d="M37.66 15.0901V11.3301C37.7 7.15008 34.6 1.00008 26.38 1.00008C25.3168 0.996382 24.2566 1.11381 23.22 1.35009V13.0001C23.1849 13.519 22.9629 14.0075 22.5952 14.3753C22.2274 14.743 21.7388 14.965 21.22 15.0001C21.22 15.0001 24.22 15.0001 25.22 17.0001H26.22V20.4401C26.2325 20.6652 26.2957 20.8847 26.4048 21.082C26.5139 21.2794 26.666 21.4496 26.85 21.5801C26.966 21.6742 27.0595 21.7931 27.1235 21.9281C27.1875 22.0631 27.2205 22.2107 27.22 22.3601C27.22 22.6253 27.1146 22.8797 26.9271 23.0672C26.7395 23.2547 26.4852 23.3601 26.22 23.3601C25.44 23.3601 23.85 22.2001 23.62 23.2301C23.49 23.8001 24.18 23.8001 24.78 24.0001C25.2402 24.1705 25.7295 24.2486 26.22 24.2301C26.22 24.3201 26.22 25.1201 26.22 27.5801C26.2231 27.7842 26.2995 27.9805 26.4354 28.1329C26.5713 28.2853 26.7575 28.3837 26.96 28.4101C27.1489 28.4272 27.3324 28.4825 27.4994 28.5728C27.6663 28.663 27.8131 28.7862 27.931 28.9349C28.0488 29.0836 28.1352 29.2547 28.1849 29.4378C28.2346 29.6209 28.2465 29.8122 28.22 30.0001C28.22 32.6701 23.56 29.9301 23.3 32.5001C24.2704 32.9139 25.3317 33.069 26.38 32.9501C27.65 32.9501 29.48 33.2401 31.08 31.0701C33.31 28.0701 36.64 27.3601 36.72 22.6101C39.54 22.6101 40.48 19.8501 40.48 17.9101C40.48 14.2101 37.66 15.0901 37.66 15.0901Z" fill="#A0775C"/>
<path d="M40.4799 17.9101C40.4799 14.2101 37.6599 15.0901 37.6599 15.0901C36.9099 15.4901 36.9099 16.1501 36.9099 16.9601V22.6001C39.5799 22.4701 40.4799 19.8101 40.4799 17.9101Z" fill="#916953"/>
<path d="M12.28 17.9101C12.28 14.2101 15.1 15.0901 15.1 15.0901C15.85 15.4901 15.85 16.1501 15.85 16.9601V22.6001C13.18 22.4701 12.28 19.8101 12.28 17.9101Z" fill="#A0775C"/>
<path d="M24.4401 19.0001C24.4401 19.5539 24.2759 20.0952 23.9682 20.5557C23.6605 21.0161 23.2232 21.375 22.7116 21.5869C22.2 21.7989 21.637 21.8543 21.0938 21.7463C20.5507 21.6382 20.0518 21.3716 19.6602 20.98C19.2686 20.5884 19.0019 20.0895 18.8939 19.5463C18.7859 19.0032 18.8413 18.4402 19.0532 17.9286C19.2652 17.4169 19.624 16.9796 20.0845 16.672C20.545 16.3643 21.0863 16.2001 21.6401 16.2001C22.3827 16.2001 23.0949 16.4951 23.62 17.0202C24.1451 17.5453 24.4401 18.2575 24.4401 19.0001Z" fill="#B29383"/>
<path d="M22.3801 16.9201C21.6375 16.9201 20.9253 17.2151 20.4002 17.7402C19.8751 18.2653 19.5801 18.9775 19.5801 19.7201C19.5822 20.3241 19.7825 20.9108 20.1501 21.3901C20.5745 21.6608 21.0642 21.8116 21.5674 21.8266C22.0706 21.8415 22.5684 21.7201 23.0082 21.4751C23.4479 21.2301 23.8132 20.8707 24.0653 20.435C24.3174 19.9992 24.4469 19.5034 24.4401 19.0001C24.4379 18.3961 24.2377 17.8094 23.8701 17.3301C23.4217 17.0564 22.9054 16.9143 22.3801 16.9201Z" fill="#B7978A"/>
<path d="M24.3399 18.3401C24.2211 17.8529 23.9723 17.407 23.6199 17.0501L19.6699 21.0001C20.0268 21.3525 20.4727 21.6013 20.9599 21.7201L24.3399 18.3401Z" fill="#B79D95"/>
<path d="M21.67 18.9301C22.0621 18.9301 22.38 18.6122 22.38 18.2201C22.38 17.8279 22.0621 17.5101 21.67 17.5101C21.2778 17.5101 20.96 17.8279 20.96 18.2201C20.96 18.6122 21.2778 18.9301 21.67 18.9301Z" fill="#6C7881"/>
<path d="M33.87 19.0001C33.87 19.5539 33.7058 20.0952 33.3981 20.5557C33.0905 21.0161 32.6532 21.375 32.1415 21.5869C31.6299 21.7989 31.0669 21.8543 30.5238 21.7463C29.9806 21.6382 29.4817 21.3716 29.0901 20.98C28.6985 20.5884 28.4319 20.0895 28.3238 19.5463C28.2158 19.0032 28.2712 18.4402 28.4832 17.9286C28.6951 17.4169 29.054 16.9796 29.5144 16.672C29.9749 16.3643 30.5162 16.2001 31.07 16.2001C31.8126 16.2001 32.5248 16.4951 33.0499 17.0202C33.575 17.5453 33.87 18.2575 33.87 19.0001Z" fill="#B29383"/>
<path d="M31.82 16.9201C31.0774 16.9201 30.3652 17.2151 29.8401 17.7402C29.315 18.2653 29.02 18.9775 29.02 19.7201C29.0222 20.3241 29.2224 20.9108 29.59 21.3901C30.0144 21.6608 30.5042 21.8116 31.0074 21.8266C31.5105 21.8415 32.0084 21.7201 32.4481 21.4751C32.8879 21.2301 33.2531 20.8707 33.5052 20.435C33.7573 19.9992 33.8868 19.5034 33.88 19.0001C33.8779 18.3961 33.6776 17.8094 33.31 17.3301C32.8606 17.0588 32.345 16.9169 31.82 16.9201Z" fill="#B7978A"/>
<path d="M33.7699 18.34C33.6511 17.8528 33.4022 17.4069 33.0499 17.05L29.0999 21C29.4567 21.3524 29.9026 21.6013 30.3899 21.72L33.7699 18.34Z" fill="#B79D95"/>
<path d="M31.0498 18.9301C31.442 18.9301 31.7598 18.6122 31.7598 18.2201C31.7598 17.8279 31.442 17.5101 31.0498 17.5101C30.6577 17.5101 30.3398 17.8279 30.3398 18.2201C30.3398 18.6122 30.6577 18.9301 31.0498 18.9301Z" fill="#6C7881"/>
<path d="M24.4401 19.0001C24.4401 19.5539 24.2759 20.0952 23.9682 20.5557C23.6605 21.0161 23.2232 21.375 22.7116 21.5869C22.2 21.7989 21.637 21.8543 21.0938 21.7463C20.5507 21.6382 20.0518 21.3716 19.6602 20.98C19.2686 20.5884 19.0019 20.0895 18.8939 19.5463C18.7859 19.0032 18.8413 18.4402 19.0532 17.9286C19.2652 17.4169 19.624 16.9796 20.0845 16.672C20.545 16.3643 21.0863 16.2001 21.6401 16.2001C22.3827 16.2001 23.0949 16.4951 23.62 17.0202C24.1451 17.5453 24.4401 18.2575 24.4401 19.0001V19.0001Z" stroke="#333333" stroke-width="0.94" stroke-miterlimit="10" stroke-linecap="round"/>
<path d="M33.87 19.0001C33.87 19.5539 33.7058 20.0952 33.3981 20.5557C33.0905 21.0161 32.6532 21.375 32.1415 21.5869C31.6299 21.7989 31.0669 21.8543 30.5238 21.7463C29.9806 21.6382 29.4817 21.3716 29.0901 20.98C28.6985 20.5884 28.4319 20.0895 28.3238 19.5463C28.2158 19.0032 28.2712 18.4402 28.4832 17.9286C28.6951 17.4169 29.054 16.9796 29.5144 16.672C29.9749 16.3643 30.5162 16.2001 31.07 16.2001C31.8126 16.2001 32.5248 16.4951 33.0499 17.0202C33.575 17.5453 33.87 18.2575 33.87 19.0001V19.0001Z" stroke="#333333" stroke-width="0.94" stroke-miterlimit="10" stroke-linecap="round"/>
<path d="M24.3801 20.2001C24.3801 19.6696 24.5908 19.1609 24.9659 18.7859C25.341 18.4108 25.8497 18.2001 26.3801 18.2001C26.9106 18.2001 27.4193 18.4108 27.7943 18.7859C28.1694 19.1609 28.3801 19.6696 28.3801 20.2001" stroke="#333333" stroke-width="0.94" stroke-miterlimit="10" stroke-linecap="round"/>
<path d="M18.71 15.8801C19.0626 15.4532 19.507 15.1114 20.01 14.8801C20.5343 14.6412 21.1039 14.5184 21.68 14.5201C22.2471 14.5341 22.8039 14.6741 23.31 14.9301C23.8244 15.1615 24.2818 15.5029 24.65 15.9301C24.6754 15.9712 24.6865 16.0195 24.6817 16.0675C24.6769 16.1155 24.6564 16.1606 24.6234 16.1958C24.5905 16.2311 24.5468 16.2545 24.4992 16.2625C24.4516 16.2705 24.4027 16.2626 24.36 16.2401C23.9632 15.9758 23.5233 15.7829 23.06 15.6701C22.6038 15.5627 22.1384 15.4991 21.67 15.4801C20.7269 15.4039 19.7883 15.6741 19.03 16.2401C19.0073 16.2572 18.9813 16.2695 18.9537 16.2762C18.9261 16.283 18.8974 16.2841 18.8693 16.2794C18.8413 16.2747 18.8145 16.2644 18.7905 16.249C18.7666 16.2337 18.746 16.2136 18.73 16.1901C18.6864 16.1516 18.6597 16.0973 18.656 16.0392C18.6522 15.9811 18.6717 15.9239 18.71 15.8801Z" fill="#B2B2B2"/>
<path d="M33.7499 16.1801C32.9917 15.6141 32.0531 15.3439 31.1099 15.4201C30.6416 15.4391 30.1762 15.5027 29.7199 15.6101C29.2567 15.7229 28.8167 15.9158 28.4199 16.1801C28.3966 16.1967 28.3701 16.2084 28.3421 16.2144C28.314 16.2204 28.2851 16.2205 28.257 16.2149C28.2289 16.2093 28.2022 16.198 28.1786 16.1817C28.1551 16.1654 28.1351 16.1444 28.1199 16.1201C28.0958 16.0829 28.083 16.0394 28.083 15.9951C28.083 15.9507 28.0958 15.9073 28.1199 15.8701C28.4882 15.4429 28.9456 15.1015 29.4599 14.8701C29.9681 14.6195 30.5237 14.4798 31.0899 14.4601C31.6655 14.4638 32.234 14.5864 32.7599 14.8201C33.2662 15.0461 33.7117 15.3888 34.0599 15.8201C34.0799 15.8396 34.0957 15.863 34.1066 15.8887C34.1174 15.9145 34.123 15.9421 34.123 15.9701C34.123 15.998 34.1174 16.0257 34.1066 16.0514C34.0957 16.0772 34.0799 16.1005 34.0599 16.1201C34.0237 16.1511 33.9776 16.1681 33.9299 16.1681C33.8823 16.1681 33.8362 16.1511 33.7999 16.1201L33.7499 16.1801Z" fill="#B2B2B2"/>
<path d="M24.5 27.3101H28.26" stroke="#A17261" stroke-width="0.94" stroke-miterlimit="10" stroke-linecap="round"/>
<path d="M24.5 23.5501C25.43 23.9501 25.57 24.4901 26.38 24.4901C27.19 24.4901 27.32 23.9301 28.26 23.5501" stroke="#674848" stroke-width="0.75" stroke-miterlimit="10" stroke-linecap="round"/>
<path d="M25.9099 29.1901H26.8499" stroke="#997059" stroke-width="0.75" stroke-miterlimit="10" stroke-linecap="round"/>
<path d="M26.38 33.0001C27.65 33.0001 29.48 33.2901 31.08 31.1201C33.31 28.1201 36.64 27.4101 36.72 22.6601C39.54 22.6601 40.48 19.9001 40.48 17.9601C40.48 14.2601 37.66 15.1401 37.66 15.1401V11.3301C37.7 7.15006 34.6 1.00006 26.38 1.00006C18.16 1.00006 15.06 7.16006 15.1 11.3301V15.0901C15.1 15.0901 12.28 14.2101 12.28 17.9101C12.28 19.8501 13.22 22.6101 16.04 22.6101C16.12 27.3601 19.45 28.0701 21.68 31.0701C23.28 33.2401 25.11 33.0001 26.38 33.0001Z" stroke="#333333" stroke-width="1.41" stroke-linejoin="round"/>
<path d="M22.54 26.2101C23.13 25.8901 23.66 25.5901 24.33 25.2901C24.702 25.1599 25.0993 25.1188 25.49 25.1701C25.7809 25.2482 26.0792 25.2952 26.38 25.3101C26.677 25.2848 26.9714 25.2346 27.26 25.1601C27.654 25.1045 28.0555 25.1457 28.43 25.2801C29.1 25.5801 29.64 25.8501 30.23 26.1701C30.2722 26.198 30.3034 26.2396 30.3185 26.2879C30.3336 26.3362 30.3315 26.3882 30.3127 26.4352C30.294 26.4821 30.2596 26.5212 30.2154 26.5458C30.1711 26.5703 30.1198 26.5789 30.07 26.5701C29.44 26.4101 28.78 26.1701 28.21 26.0201C27.9529 25.965 27.6871 25.965 27.43 26.0201C27.1126 26.1515 26.7735 26.2227 26.43 26.2301C26.0869 26.2051 25.7496 26.1275 25.43 26.0001C25.1701 25.9402 24.8999 25.9402 24.64 26.0001C24.08 26.1701 23.41 26.4001 22.79 26.5801C22.7357 26.5936 22.6783 26.5869 22.6286 26.5611C22.5789 26.5353 22.5403 26.4923 22.52 26.4401C22.5017 26.4037 22.4939 26.3629 22.4974 26.3222C22.5009 26.2816 22.5157 26.2428 22.54 26.2101Z" fill="#CCCCCC"/>
<path d="M19.8 29.1901V33.8901" stroke="#333333" stroke-width="1.41" stroke-linecap="round" stroke-linejoin="round"/>
<path d="M32.96 29.1901V33.8901" stroke="#333333" stroke-width="1.41" stroke-linecap="round" stroke-linejoin="round"/>
<path d="M27.5 27.0601C27.1192 27.0706 26.7405 27.1208 26.37 27.2101C25.9951 27.1272 25.6137 27.077 25.23 27.0601C24.4 27.0601 24.23 27.3701 23.29 27.3801L24.29 28.1201C24.6063 28.3793 25.0011 28.5238 25.41 28.5301H27.23C27.639 28.5238 28.0337 28.3793 28.35 28.1201L29.44 27.4101C28.58 27.4001 28.36 27.0601 27.5 27.0601Z" fill="#916953"/>
<path d="M29.4801 27.5601C29.1991 27.583 28.9163 27.5661 28.6401 27.5101C28.3969 27.4418 28.1497 27.3884 27.9001 27.3501C27.4072 27.3378 26.9152 27.3984 26.4401 27.5301H26.3101C25.8393 27.4118 25.3554 27.3547 24.8701 27.3601C24.6175 27.3918 24.3671 27.4386 24.1201 27.5001C23.8452 27.545 23.5649 27.545 23.2901 27.5001C23.2494 27.4951 23.2122 27.4746 23.1861 27.443C23.1601 27.4114 23.1472 27.371 23.1501 27.3301C23.1558 27.295 23.1725 27.2627 23.1976 27.2376C23.2227 27.2125 23.255 27.1959 23.2901 27.1901C23.534 27.1613 23.7749 27.1111 24.0101 27.0401C24.2606 26.9389 24.5179 26.8554 24.7801 26.7901C25.3315 26.6937 25.897 26.7141 26.4401 26.8501H26.3001C26.8603 26.7352 27.4373 26.7284 28.0001 26.8301C28.4893 27.006 28.9906 27.1463 29.5001 27.2501C29.5198 27.2513 29.539 27.2565 29.5567 27.2652C29.5745 27.274 29.5903 27.2861 29.6033 27.301C29.6163 27.3159 29.6262 27.3331 29.6326 27.3519C29.6389 27.3706 29.6414 27.3904 29.6401 27.4101C29.6375 27.4508 29.6195 27.4889 29.5898 27.5168C29.5601 27.5447 29.5208 27.5602 29.4801 27.5601Z" fill="#674848"/>
</svg>
