<svg width="54" height="48" viewBox="0 0 54 48" fill="none" xmlns="http://www.w3.org/2000/svg">
<path d="M20.5699 27.8079V32.0125C20.5699 32.0125 22.2056 35.7088 27.2603 38.9247C32.3151 35.6996 33.9137 32.0217 33.9137 32.0125V27.8079H20.5699Z" fill="#E5C2BA"/>
<path d="M27.1956 36.8085C27.1956 36.8085 27.2418 40.32 27.2603 40.3293C29.9054 38.0125 32.153 35.278 33.9137 32.2343V27.7987H20.5699L25.4953 33.4449C26.4056 34.3565 27.0013 35.5349 27.1956 36.8085Z" fill="#D8B3AD"/>
<path d="M20.5144 27.8541V32.0125" stroke="#333333" stroke-width="1.5" stroke-linejoin="round"/>
<path d="M33.9136 27.8541V32.0125" stroke="#333333" stroke-width="1.5" stroke-linejoin="round"/>
<path d="M37.4252 13.9836V11.2114C37.4252 5.34343 34.385 1.27747 27.2603 1.27747C20.1356 1.27747 17.0954 5.34343 17.0954 11.2114V13.9836C15.3304 14.0298 14.9792 15.7117 15.3951 17.68C15.7462 19.3156 16.6333 21.6073 18.0195 21.6073V23.9175C18.0195 26.0429 21.0227 29.2864 24.0907 30.8944C25.0877 31.2514 26.1491 31.3932 27.2049 31.3102C28.2606 31.3926 29.3219 31.2509 30.319 30.8944C33.3777 29.2864 36.5104 26.0429 36.5104 23.9175V21.6073C37.8965 21.6073 38.9222 19.3156 39.2826 17.6892C39.68 15.7117 39.1995 14.0298 37.4252 13.9836Z" fill="#EED1C9"/>
<path d="M37.4252 13.9836V11.2114C37.4252 5.34345 34.385 1.27749 27.2603 1.27749C26.3309 1.27604 25.4033 1.35644 24.488 1.51775V12.2094C24.488 12.7102 24.3837 13.2055 24.1816 13.6637C23.9796 14.122 23.6842 14.533 23.3144 14.8708C23.2586 14.9218 23.2178 14.987 23.1963 15.0595C23.1749 15.132 23.1735 15.209 23.1926 15.2822C23.2116 15.3554 23.2502 15.422 23.3042 15.4749C23.3582 15.5277 23.4257 15.5649 23.4992 15.5823C24.8854 15.9797 25.6246 16.2384 26.484 16.0166C26.7705 15.9427 27.2787 16.2661 27.2787 16.5618V18.0126C27.2679 18.2597 27.3158 18.5058 27.4186 18.7307C27.5214 18.9557 27.6762 19.1529 27.8702 19.3064C28.0474 19.4309 28.1802 19.6088 28.2493 19.8142C28.3183 20.0195 28.3199 20.2415 28.2539 20.4479C28.1879 20.6542 28.0576 20.834 27.8822 20.9611C27.7068 21.0883 27.4954 21.156 27.2787 21.1545C26.5302 21.1545 26.2623 20.6463 25.2458 20.6463C24.6451 20.6463 24.7375 21.4318 24.719 21.404C25.0745 21.4099 25.4233 21.5018 25.7355 21.672C26.2015 21.9326 26.7264 22.0694 27.2603 22.0694V25.1281C27.2663 25.4841 27.3799 25.8299 27.586 26.1201C27.7922 26.4104 28.0813 26.6315 28.4154 26.7545C28.707 26.874 28.9512 27.0863 29.1099 27.3587C29.2686 27.631 29.333 27.9481 29.2933 28.2607C29.2933 31.033 24.3586 28.0389 24.2847 30.9683C25.2276 31.2516 26.2128 31.3673 27.1956 31.3102C28.2513 31.3926 29.3126 31.2509 30.3097 30.8944C33.3685 29.2865 36.5011 26.0429 36.5011 23.9175V21.6073C37.8872 21.6073 38.913 19.3156 39.2734 17.6892C39.68 15.7117 39.1994 14.0298 37.4252 13.9836Z" fill="#E5C2BA"/>
<path d="M27.2603 22.3281V23.2522" stroke="#DDB7B1" stroke-width="0.75" stroke-miterlimit="10" stroke-linecap="round"/>
<path d="M26.41 26.7822H28.2582" stroke="#DDB7B1" stroke-width="0.75" stroke-miterlimit="10" stroke-linecap="round"/>
<path d="M27.1401 29.5082H27.3712" stroke="#DDB7B1" stroke-width="0.75" stroke-miterlimit="10" stroke-linecap="round"/>
<path d="M28.517 24.0469C28.1491 24.0094 27.7775 24.0504 27.4266 24.1671C27.3013 24.213 27.1638 24.213 27.0385 24.1671C26.6873 24.0515 26.3159 24.0105 25.9481 24.0469C25.3289 24.1393 25.2642 24.5275 24.0167 25.202L25.1164 25.8766C25.4613 26.1166 25.8698 26.2485 26.29 26.2555H28.2028C28.6237 26.2532 29.0336 26.1208 29.3764 25.8766L30.513 25.2298C29.2932 24.5552 29.1361 24.1301 28.517 24.0469Z" fill="#D6B3B0"/>
<path d="M30.5038 25.2297C29.5797 25.2297 29.3394 24.8693 28.4338 24.8693C28.0323 24.8831 27.6331 24.9357 27.2417 25.0264C26.8497 24.9397 26.4508 24.8871 26.0497 24.8693C25.181 24.8693 24.987 25.202 24.0074 25.202" stroke="#AF8582" stroke-width="0.75" stroke-miterlimit="10" stroke-linecap="round"/>
<path d="M24.9222 21.5242C25.3258 21.5257 25.7227 21.6273 26.0773 21.8199V21.8199C26.4309 22.0157 26.8283 22.1184 27.2325 22.1184C27.6366 22.1184 28.034 22.0157 28.3876 21.8199C28.7422 21.6273 29.1391 21.5257 29.5427 21.5242" stroke="#AF8582" stroke-width="0.75" stroke-miterlimit="10" stroke-linecap="round"/>
<path d="M37.4252 13.7064V11.2114C37.4252 5.34343 34.3849 1.27747 27.2603 1.27747C20.1356 1.27747 17.0953 5.34343 17.0953 11.2114V13.6879C17.5257 13.9009 17.8972 14.2162 18.1775 14.606C18.4578 14.9958 18.6383 15.4484 18.7032 15.9242C18.9641 15.8692 19.1982 15.7263 19.3664 15.5194C19.5346 15.3125 19.6267 15.0542 19.6273 14.7876V14.2701C19.5279 13.5098 19.705 12.7391 20.1263 12.0985C20.4015 11.7372 20.5508 11.2958 20.5514 10.8417V9.80676C20.5514 9.10445 20.8841 7.66288 21.9098 7.66288C22.4357 7.72815 22.944 7.89446 23.4068 8.15265C24.6037 8.74237 25.9169 9.05805 27.251 9.07673C28.5349 9.06041 29.8044 8.80338 30.9936 8.31898C31.4922 8.10214 32.0228 7.96793 32.5645 7.92163C33.5902 7.92163 33.9506 8.91964 33.9506 9.7698V10.8048C33.9471 11.2596 34.0968 11.7023 34.3757 12.0615C34.7855 12.7919 34.9598 13.631 34.8747 14.4641V14.8245C35.0022 15.3744 35.3321 15.8561 35.7988 16.1737C35.8324 15.6566 36 15.1573 36.2852 14.7246C36.5704 14.292 36.9633 13.9411 37.4252 13.7064Z" fill="#E5C2BA"/>
<path d="M37.3697 13.7434V11.8952C37.3697 6.02729 34.3295 1.96132 27.2048 1.96132C26.4129 1.96014 25.6221 2.01883 24.8391 2.1369V8.78106C25.6219 9.04629 26.443 9.18054 27.2695 9.17842C28.5534 9.16209 29.8228 8.90506 31.012 8.42067C31.5106 8.20382 32.0412 8.06962 32.5829 8.02331C33.6087 8.02331 33.9691 9.02132 33.9691 9.87148V10.9065C33.9655 11.3612 34.1153 11.804 34.3941 12.1632C34.8039 12.8936 34.9782 13.7327 34.8931 14.5658V14.9262C35.0206 15.4761 35.3506 15.9578 35.8172 16.2754C35.8259 15.7531 35.9745 15.2426 36.2475 14.7973C36.5206 14.3519 36.9081 13.988 37.3697 13.7434Z" fill="#D8B3AD"/>
<path d="M27.2603 1.27747C20.1356 1.27747 17.0953 5.34343 17.0953 11.2114V14.2146C18.0194 14.2146 18.4815 14.7414 18.4815 16.0628V14.2793C18.3771 13.2741 18.6433 12.2653 19.23 11.4424C19.3448 11.2838 19.4062 11.0929 19.4055 10.8972V9.82524C19.4055 8.43912 20.1356 6.52626 21.9191 6.52626C23.4161 6.52626 24.7375 7.97707 27.2603 7.97707C29.783 7.97707 31.0767 6.82197 32.5737 6.82197C34.3572 6.82197 35.115 8.43912 35.115 9.82524V10.8602C35.1143 11.056 35.1758 11.2469 35.2905 11.4054C35.8703 12.3318 36.133 13.4216 36.0391 14.5103V16.0628C36.1592 15.0463 36.6582 14.113 37.4252 14.2146V11.6919C37.4252 5.34343 34.3849 1.27747 27.2603 1.27747Z" fill="#333333"/>
<path d="M18.2504 14.8615V12.3665C18.2504 5.57445 21.9468 2.43257 28.8774 2.66359C31.102 2.69377 33.284 3.27817 35.2258 4.3639C34.3365 3.30736 33.1865 2.50145 31.8899 2.02597H31.816C31.513 1.91499 31.2046 1.81938 30.8919 1.73951H30.7533C30.4483 1.66558 30.1249 1.59165 29.8292 1.53621H29.6721C29.3302 1.48076 28.979 1.4438 28.6094 1.41608H28.4985C28.1104 1.41608 27.713 1.41608 27.288 1.41608C20.1633 1.41608 17.123 5.48205 17.123 11.35V14.2146C17.3538 14.1994 17.5839 14.2527 17.7845 14.3677C17.985 14.4828 18.1471 14.6546 18.2504 14.8615Z" fill="#594632"/>
<path d="M37.4252 13.9836V11.2114C37.4252 5.34343 34.385 1.27747 27.2603 1.27747C20.1356 1.27747 17.0954 5.34343 17.0954 11.2114V13.9836C15.3304 14.0298 14.9792 15.7117 15.3951 17.68C15.7462 19.3156 16.6333 21.6073 18.0195 21.6073V23.9175C18.0195 26.0429 21.0227 29.2864 24.0907 30.8943C25.0877 31.2514 26.1491 31.3932 27.2049 31.3102C28.2606 31.3926 29.3219 31.2509 30.319 30.8943C33.3777 29.2864 36.5104 26.0429 36.5104 23.9175V21.6073C37.8965 21.6073 38.9222 19.3156 39.2826 17.6892C39.68 15.7117 39.1995 14.0298 37.4252 13.9836Z" stroke="#333333" stroke-width="1.5" stroke-linejoin="round"/>
<path d="M27.2603 1.27747C20.1356 1.27747 17.0953 5.34343 17.0953 11.2114V14.2146C18.0194 14.3902 18.4815 14.649 18.4815 16.0074V14.2793C18.3771 13.2741 18.6433 12.2653 19.23 11.4424C19.3448 11.2838 19.4062 11.0929 19.4055 10.8972V9.82524C19.4055 8.43912 20.1356 6.52626 21.9191 6.52626C23.4161 6.52626 24.7375 7.97707 27.2603 7.97707C29.783 7.97707 31.0767 6.82197 32.5737 6.82197C34.3572 6.82197 35.115 8.43912 35.115 9.82524V10.8602C35.1143 11.056 35.1758 11.2469 35.2905 11.4054C35.8703 12.3318 36.133 13.4216 36.0391 14.5103V16.0628C36.1592 15.0463 36.6674 14.2146 37.4252 14.2146V11.6826C37.4252 5.34343 34.3849 1.27747 27.2603 1.27747Z" stroke="#333333" stroke-width="1.0215" stroke-linecap="round" stroke-linejoin="round"/>
<path d="M33.5718 15.878H29.7554C29.4324 15.8776 29.1172 15.9768 28.8527 16.162C28.5881 16.3472 28.387 16.6094 28.2768 16.913C27.7523 16.7008 27.1658 16.7008 26.6412 16.913C26.5263 16.6169 26.3264 16.3615 26.0665 16.179C25.8067 15.9964 25.4986 15.8949 25.1812 15.8872H21.3647C20.2004 15.9334 19.8122 17.0331 19.8122 18.2436C19.7793 18.9553 20.0272 19.6514 20.5025 20.182C20.9778 20.7126 21.6425 21.0353 22.3535 21.0806C23.9614 21.0806 24.9779 21.2654 25.6524 20.1565C26.5765 18.6225 26.7429 18.4377 26.7891 17.8833C26.9947 17.7473 27.2357 17.6749 27.4821 17.6749C27.7286 17.6749 27.9696 17.7473 28.1752 17.8833C28.2214 18.41 28.36 18.5486 29.3118 20.138C29.9679 21.3116 31.0491 21.1175 32.5553 21.1175C32.9086 21.101 33.2551 21.0149 33.5751 20.8642C33.895 20.7135 34.1821 20.5011 34.4199 20.2393C34.6577 19.9775 34.8414 19.6714 34.9607 19.3385C35.08 19.0055 35.1325 18.6523 35.1151 18.2991C35.1058 17.0423 34.7177 15.9427 33.5718 15.878Z" fill="#D8B3AD"/>
<path d="M20.7916 15.7209H24.8114C24.9705 15.7206 25.1277 15.7542 25.2728 15.8196C25.4178 15.8849 25.5472 15.9804 25.6523 16.0998C25.8711 16.3434 26.0061 16.6506 26.0377 16.9765C26.0693 17.3024 25.9958 17.6299 25.8279 17.911L24.9038 19.4727C24.7703 19.704 24.5794 19.897 24.3496 20.033C24.1197 20.1689 23.8586 20.2433 23.5916 20.2489H21.8174C21.1914 20.2107 20.6056 19.9275 20.1871 19.4604C19.7685 18.9934 19.5508 18.3803 19.5811 17.7539V17.144C19.5555 16.7953 19.6681 16.4506 19.8946 16.1843C20.1212 15.918 20.4434 15.7515 20.7916 15.7209V15.7209Z" stroke="#333333" stroke-linejoin="round"/>
<path d="M33.6641 15.7209H29.6444C29.4841 15.7216 29.3258 15.7557 29.1794 15.8209C29.0331 15.8861 28.9019 15.9811 28.7942 16.0998C28.5769 16.3444 28.4436 16.6522 28.4137 16.9781C28.3837 17.3039 28.4588 17.6308 28.6279 17.911L29.552 19.4727C29.6863 19.7073 29.88 19.9025 30.1135 20.0387C30.3471 20.1749 30.6123 20.2474 30.8826 20.2489H32.6292C33.2519 20.2038 33.8321 19.9162 34.245 19.4479C34.658 18.9797 34.8708 18.3681 34.8377 17.7446V17.1347C34.8637 16.7929 34.7559 16.4543 34.5369 16.1905C34.3179 15.9266 34.0049 15.7583 33.6641 15.7209Z" stroke="#333333" stroke-linejoin="round"/>
<path d="M33.6641 15.7209H29.6444C29.4841 15.7216 29.3258 15.7557 29.1794 15.8209C29.0331 15.8861 28.9019 15.9811 28.7942 16.0998C28.5769 16.3444 28.4436 16.6522 28.4137 16.9781C28.3837 17.3039 28.4588 17.6308 28.6279 17.911L29.552 19.4727C29.6863 19.7073 29.88 19.9025 30.1135 20.0387C30.3471 20.1749 30.6123 20.2474 30.8826 20.2489H32.6292C33.2519 20.2038 33.8321 19.9162 34.245 19.4479C34.658 18.9797 34.8708 18.3681 34.8377 17.7446V17.1347C34.8634 16.7885 34.7517 16.4461 34.5269 16.1815C34.3021 15.917 33.9822 15.7515 33.6364 15.7209" fill="#333333"/>
<path d="M26.022 17.0793C26.3574 16.7905 26.7853 16.6317 27.2279 16.6317C27.6705 16.6317 28.0984 16.7905 28.4338 17.0793" stroke="#333333" stroke-miterlimit="10"/>
<path d="M21.8175 20.2212H23.5547C23.8254 20.216 24.0902 20.141 24.3233 20.0033C24.5565 19.8657 24.7501 19.6702 24.8854 19.4357L25.8095 17.8463C25.9707 17.5686 26.0414 17.2476 26.0116 16.9279C25.9818 16.6082 25.853 16.3058 25.6432 16.0628C25.5337 15.9559 25.4033 15.8728 25.2602 15.8187C25.1171 15.7646 24.9643 15.7407 24.8115 15.7486H20.7917C20.4444 15.77 20.1195 15.9276 19.8877 16.1872C19.6559 16.4467 19.5358 16.7872 19.5535 17.1347V17.7446C19.5231 18.371 19.7408 18.9842 20.1594 19.4512C20.578 19.9182 21.1637 20.2015 21.7897 20.2396" fill="#333333"/>
<path d="M32.0655 35.1822C30.6034 35.7929 29.0291 36.0889 27.445 36.0508C25.7247 36.1113 24.0154 35.7529 22.4642 35.0066L27.2787 40.7174L32.0655 35.1822Z" fill="#B2B2B2" stroke="#333333" stroke-width="1.5" stroke-miterlimit="10"/>
<path d="M52.3953 38.7676C52.0989 37.6212 51.4873 36.5808 50.6298 35.7641C49.7724 34.9475 48.7033 34.3874 47.5438 34.1472C39.6984 32.299 36.9169 31.606 36.9169 31.606H34.0892C33.1004 33.9624 31.1691 36.06 27.214 40.7174C23.2959 36.1987 21.3461 33.9993 20.3388 31.606H17.5111C17.5111 31.606 14.7389 32.299 6.88416 34.1472C5.72468 34.3874 4.65565 34.9475 3.7982 35.7641C2.94075 36.5808 2.32916 37.6212 2.03272 38.7676L1.57068 41.0778C9.65873 44.6169 18.3856 46.4629 27.214 46.5022C36.0424 46.4629 44.7693 44.6169 52.8573 41.0778L52.3953 38.7676Z" fill="#5A5B5B"/>
<path d="M47.5439 36.9194C39.6985 35.0712 36.917 34.3782 36.917 34.3782H32.4629C31.3078 35.9584 29.6906 37.8527 27.2141 40.7174C24.7745 37.9451 23.1019 35.9953 21.9468 34.3782H17.5112C17.5112 34.3782 14.739 35.0712 6.88425 36.9194C5.76472 37.1571 4.72935 37.6905 3.88588 38.4641C3.04241 39.2377 2.42167 40.2232 2.08826 41.318C10.0396 44.6866 18.5788 46.4485 27.2141 46.5022C35.8493 46.4485 44.3886 44.6866 52.3399 41.318C52.0083 40.2222 51.3881 39.2358 50.5443 38.4619C49.7006 37.6881 48.6643 37.1553 47.5439 36.9194Z" fill="#4D4D4D"/>
<path d="M34.3757 30.3307L30.2173 37.1412L27.2325 40.7266L27.9164 40.9761L31.816 38.4811L35.383 40.4309C35.4983 40.4854 35.6256 40.5098 35.753 40.502C35.8803 40.4941 36.0036 40.4543 36.1114 40.3861C36.2193 40.3179 36.3081 40.2236 36.3698 40.1119C36.4314 40.0002 36.4639 39.8747 36.4641 39.7471V32.8627L34.3757 30.3307Z" fill="#424242"/>
<path d="M20.2926 31.4951L18.8972 32.8627V40.2554C18.8975 40.3424 18.9214 40.4277 18.9663 40.5021C19.0113 40.5766 19.0756 40.6375 19.1524 40.6783C19.2293 40.7191 19.3157 40.7383 19.4026 40.7338C19.4895 40.7292 19.5735 40.7012 19.6457 40.6527L24.4417 37.4554L20.2926 31.4951Z" fill="#424242"/>
<path d="M36.9169 31.606C36.9169 31.606 39.6891 32.299 47.5438 34.1472C48.7033 34.3874 49.7724 34.9475 50.6298 35.7641C51.4873 36.5808 52.0989 37.6212 52.3953 38.7676L52.8573 41.0778C44.7693 44.6169 36.0424 46.4629 27.214 46.5022C18.3856 46.4629 9.65873 44.6169 1.57068 41.0778L2.03272 38.7676C2.32916 37.6212 2.94075 36.5808 3.7982 35.7641C4.65565 34.9475 5.72468 34.3874 6.88416 34.1472C14.7296 32.299 17.5111 31.606 17.5111 31.606" stroke="#333333" stroke-width="1.5" stroke-linejoin="round"/>
<path d="M27.214 40.7359V46.5114" stroke="#333333" stroke-width="1.5" stroke-linejoin="round"/>
<path d="M17.5111 31.4858V39.5715L23.7487 36.5683C21.5309 34.1287 20.2279 32.2251 19.5903 28.9446L17.5111 31.4858Z" fill="#5A5B5B"/>
<path d="M34.8377 29.1848C34.1813 31.9958 32.7354 34.5608 30.67 36.5775L36.9076 39.5808V31.4765L34.8377 29.1848Z" fill="#5A5B5B"/>
<path d="M19.5903 28.9446L17.5111 31.4858V39.5715L23.7487 36.5683" stroke="#333333" stroke-width="1.5" stroke-linejoin="round"/>
<path d="M30.6793 36.5682L36.9169 39.5715V31.4858L34.8469 29.1848" stroke="#333333" stroke-width="1.5" stroke-linejoin="round"/>
<path d="M19.5903 28.9446C20.2279 32.7518 21.9375 34.6369 27.214 40.7174C32.4813 34.5445 34.1631 32.8442 34.8377 29.0555" stroke="#333333" stroke-width="1.5" stroke-linecap="round" stroke-linejoin="round"/>
<path d="M29.7552 43.2679C30.138 43.2679 30.4483 42.9576 30.4483 42.5748C30.4483 42.1921 30.138 41.8818 29.7552 41.8818C29.3724 41.8818 29.0621 42.1921 29.0621 42.5748C29.0621 42.9576 29.3724 43.2679 29.7552 43.2679Z" fill="#333333"/>
<path d="M6.52383 32.3082L12.9924 30.8666C13.0519 30.853 13.1135 30.8513 13.1736 30.8616C13.2338 30.8719 13.2913 30.894 13.3428 30.9267C13.3944 30.9593 13.4389 31.0019 13.474 31.0518C13.509 31.1018 13.5338 31.1582 13.5469 31.2178L14.1937 33.9901C14.2074 34.0495 14.2091 34.1111 14.1988 34.1713C14.1885 34.2314 14.1663 34.2889 14.1337 34.3405C14.101 34.392 14.0585 34.4366 14.0085 34.4716C13.9586 34.5066 13.9022 34.5314 13.8426 34.5445L7.37399 35.9861C7.31451 35.9997 7.25292 36.0014 7.19278 35.9911C7.13264 35.9808 7.07514 35.9587 7.02359 35.926C6.97204 35.8934 6.92746 35.8509 6.89244 35.8009C6.85742 35.7509 6.83264 35.6945 6.81954 35.6349L6.17268 32.8627C6.15905 32.8032 6.15734 32.7416 6.16765 32.6815C6.17795 32.6213 6.20006 32.5638 6.23271 32.5123C6.26536 32.4607 6.30789 32.4161 6.35786 32.3811C6.40783 32.3461 6.46424 32.3213 6.52383 32.3082Z" fill="#FFE5A2"/>
<path d="M6.46838 34.1472L6.79181 35.561C6.80712 35.6329 6.83655 35.7009 6.8784 35.7613C6.92025 35.8217 6.97368 35.8732 7.03558 35.9127C7.09748 35.9523 7.16663 35.9791 7.239 35.9917C7.31137 36.0043 7.38553 36.0024 7.45715 35.9861L13.7317 34.5907C13.8035 34.5754 13.8716 34.546 13.932 34.5041C13.9924 34.4623 14.0438 34.4089 14.0834 34.347C14.1229 34.2851 14.1498 34.2159 14.1624 34.1435C14.175 34.0712 14.1731 33.997 14.1568 33.9254L13.8333 32.5115L6.46838 34.1472Z" fill="#FFD080"/>
<path d="M6.52383 32.3082L12.9924 30.8666C13.0519 30.853 13.1135 30.8513 13.1736 30.8616C13.2338 30.8719 13.2913 30.894 13.3428 30.9267C13.3944 30.9593 13.4389 31.0019 13.474 31.0518C13.509 31.1018 13.5338 31.1582 13.5469 31.2178L14.1937 33.9901C14.2074 34.0495 14.2091 34.1111 14.1988 34.1713C14.1885 34.2314 14.1663 34.2889 14.1337 34.3405C14.101 34.392 14.0585 34.4366 14.0085 34.4716C13.9586 34.5066 13.9022 34.5314 13.8426 34.5445L7.37399 35.9861C7.31451 35.9997 7.25292 36.0014 7.19278 35.9911C7.13264 35.9808 7.07514 35.9587 7.02359 35.926C6.97204 35.8934 6.92746 35.8509 6.89244 35.8009C6.85742 35.7509 6.83264 35.6945 6.81954 35.6349L6.17268 32.8627C6.15905 32.8032 6.15734 32.7416 6.16765 32.6815C6.17795 32.6213 6.20006 32.5638 6.23271 32.5123C6.26536 32.4607 6.30789 32.4161 6.35786 32.3811C6.40783 32.3461 6.46424 32.3213 6.52383 32.3082V32.3082Z" stroke="#333333" stroke-width="1.5" stroke-linejoin="round"/>
<path d="M6.9026 35.9214L6.16333 32.6871" stroke="#333333" stroke-width="1.5" stroke-linejoin="round"/>
<path d="M9.34217 35.3577L8.60291 32.1234" stroke="#333333" stroke-width="1.5" stroke-linejoin="round"/>
<path d="M11.791 34.794L11.0425 31.5597" stroke="#333333" stroke-width="1.5" stroke-linejoin="round"/>
<path d="M47.9042 32.3082L41.4356 30.8666C41.3762 30.853 41.3146 30.8513 41.2544 30.8616C41.1943 30.8719 41.1368 30.894 41.0852 30.9267C41.0337 30.9593 40.9891 31.0019 40.9541 31.0518C40.9191 31.1018 40.8943 31.1582 40.8812 31.2178L40.2343 33.9901C40.2207 34.0495 40.219 34.1111 40.2293 34.1713C40.2396 34.2314 40.2617 34.2889 40.2944 34.3405C40.327 34.392 40.3695 34.4366 40.4195 34.4716C40.4695 34.5066 40.5259 34.5314 40.5855 34.5445L47.0541 35.9861C47.1135 35.9997 47.1751 36.0014 47.2353 35.9911C47.2954 35.9808 47.3529 35.9587 47.4045 35.926C47.456 35.8934 47.5006 35.8509 47.5356 35.8009C47.5706 35.7509 47.5954 35.6945 47.6085 35.6349L48.2554 32.8627C48.269 32.8032 48.2707 32.7416 48.2604 32.6815C48.2501 32.6213 48.228 32.5638 48.1953 32.5123C48.1627 32.4607 48.1202 32.4161 48.0702 32.3811C48.0202 32.3461 47.9638 32.3213 47.9042 32.3082Z" fill="#FFE5A2"/>
<path d="M47.9597 34.1472L47.6362 35.561C47.6209 35.6329 47.5915 35.7009 47.5496 35.7613C47.5078 35.8217 47.4544 35.8732 47.3925 35.9127C47.3305 35.9523 47.2614 35.9791 47.189 35.9917C47.1167 36.0043 47.0425 36.0024 46.9709 35.9861L40.6964 34.5907C40.6245 34.5754 40.5564 34.546 40.496 34.5041C40.4357 34.4623 40.3842 34.4089 40.3447 34.347C40.3051 34.2851 40.2783 34.2159 40.2657 34.1435C40.2531 34.0712 40.255 33.997 40.2713 33.9254L40.5947 32.5115L47.9597 34.1472Z" fill="#FFD080"/>
<path d="M47.9042 32.3082L41.4356 30.8666C41.3762 30.853 41.3146 30.8513 41.2544 30.8616C41.1943 30.8719 41.1368 30.894 41.0852 30.9267C41.0337 30.9593 40.9891 31.0019 40.9541 31.0518C40.9191 31.1018 40.8943 31.1582 40.8812 31.2178L40.2343 33.9901C40.2207 34.0495 40.219 34.1111 40.2293 34.1713C40.2396 34.2314 40.2617 34.2889 40.2944 34.3405C40.327 34.392 40.3695 34.4366 40.4195 34.4716C40.4695 34.5066 40.5259 34.5314 40.5855 34.5445L47.0541 35.9861C47.1135 35.9997 47.1751 36.0014 47.2353 35.9911C47.2954 35.9808 47.3529 35.9587 47.4045 35.926C47.456 35.8934 47.5006 35.8509 47.5356 35.8009C47.5706 35.7509 47.5954 35.6945 47.6085 35.6349L48.2554 32.8627C48.269 32.8032 48.2707 32.7416 48.2604 32.6815C48.2501 32.6213 48.228 32.5638 48.1953 32.5123C48.1627 32.4607 48.1202 32.4161 48.0702 32.3811C48.0202 32.3461 47.9638 32.3213 47.9042 32.3082V32.3082Z" stroke="#333333" stroke-width="1.5" stroke-linejoin="round"/>
<path d="M47.5254 35.9214L48.2647 32.6871" stroke="#333333" stroke-width="1.5" stroke-linejoin="round"/>
<path d="M45.0857 35.3577L45.825 32.1234" stroke="#333333" stroke-width="1.5" stroke-linejoin="round"/>
<path d="M42.637 34.794L43.3855 31.5597" stroke="#333333" stroke-width="1.5" stroke-linejoin="round"/>
<path d="M43.4132 39.2296C43.4609 39.2309 43.5083 39.2224 43.5526 39.2048C43.5969 39.1871 43.6372 39.1606 43.6709 39.1269C43.7046 39.0932 43.7311 39.0529 43.7488 39.0086C43.7665 38.9643 43.7749 38.9169 43.7736 38.8692V37.8435C43.7703 37.6899 43.721 37.5409 43.6321 37.4157C43.5431 37.2904 43.4186 37.1948 43.2746 37.1412L41.5466 36.4574C41.3659 36.3839 41.1636 36.3839 40.9829 36.4574L39.2456 37.1412C39.1041 37.1973 38.9822 37.2938 38.8952 37.4187C38.8081 37.5436 38.7596 37.6913 38.7559 37.8435V38.8692C38.7581 38.9625 38.7955 39.0516 38.8606 39.1184C38.9258 39.1853 39.0138 39.225 39.107 39.2296C39.2295 39.2296 39.3471 39.2783 39.4337 39.365C39.5204 39.4516 39.5691 39.5691 39.5691 39.6917C39.5691 39.8142 39.5204 39.9317 39.4337 40.0184C39.3471 40.105 39.2295 40.1537 39.107 40.1537C39.0572 40.1557 39.0083 40.1682 38.9637 40.1905C38.9191 40.2128 38.8797 40.2444 38.8483 40.2831C38.7867 40.3617 38.757 40.4607 38.7651 40.5603C38.861 41.1557 39.1123 41.7153 39.4936 42.1826C39.8748 42.6498 40.3726 43.0083 40.9367 43.2217C41.0316 43.2574 41.1312 43.2791 41.2324 43.2864C41.3376 43.2873 41.4416 43.2652 41.5373 43.2217C42.0996 43.0145 42.5982 42.6644 42.9839 42.2058C43.3696 41.7472 43.629 41.196 43.7367 40.6065C43.75 40.5111 43.7256 40.4143 43.6687 40.3366C43.6117 40.259 43.5267 40.2066 43.4317 40.1907C43.3092 40.1907 43.1917 40.142 43.105 40.0553C43.0184 39.9687 42.9697 39.8512 42.9697 39.7286C42.9697 39.6061 43.0184 39.4886 43.105 39.4019C43.1917 39.3153 43.3092 39.2666 43.4317 39.2666L43.4132 39.2296Z" fill="#FFD080"/>
<path d="M43.2746 37.1412L41.5465 36.4574C41.4706 36.4226 41.3894 36.4007 41.3063 36.3927V43.3233C41.4103 43.3221 41.5134 43.3034 41.6112 43.2679C42.1743 43.0529 42.6711 42.694 43.0522 42.227C43.4332 41.76 43.6851 41.2013 43.7828 40.6065C43.7962 40.5111 43.7718 40.4143 43.7148 40.3366C43.6579 40.259 43.5729 40.2066 43.4779 40.1907C43.3553 40.1907 43.2378 40.142 43.1512 40.0554C43.0645 39.9687 43.0158 39.8512 43.0158 39.7286C43.0158 39.6061 43.0645 39.4886 43.1512 39.4019C43.2378 39.3153 43.3553 39.2666 43.4779 39.2666C43.5255 39.2679 43.573 39.2594 43.6173 39.2418C43.6616 39.2241 43.7018 39.1976 43.7355 39.1639C43.7693 39.1302 43.7958 39.0899 43.8134 39.0456C43.8311 39.0013 43.8395 38.9539 43.8383 38.9062V37.8435C43.8364 37.6803 43.7798 37.5224 43.6776 37.3951C43.5754 37.2678 43.4335 37.1784 43.2746 37.1412Z" fill="#F9C472"/>
<path d="M43.4132 39.2296C43.4609 39.2309 43.5083 39.2224 43.5526 39.2048C43.5969 39.1871 43.6372 39.1606 43.6709 39.1269C43.7046 39.0932 43.7311 39.0529 43.7488 39.0086C43.7665 38.9643 43.7749 38.9169 43.7736 38.8692V37.8435C43.7703 37.6899 43.721 37.5409 43.6321 37.4157C43.5431 37.2904 43.4186 37.1948 43.2746 37.1412L41.5466 36.4574C41.3659 36.3839 41.1636 36.3839 40.9829 36.4574L39.2456 37.1412C39.1041 37.1973 38.9822 37.2938 38.8952 37.4187C38.8081 37.5436 38.7596 37.6913 38.7559 37.8435V38.8692C38.7581 38.9625 38.7955 39.0516 38.8606 39.1184C38.9258 39.1853 39.0138 39.225 39.107 39.2296C39.2295 39.2296 39.3471 39.2783 39.4337 39.365C39.5204 39.4516 39.5691 39.5691 39.5691 39.6917C39.5691 39.8142 39.5204 39.9317 39.4337 40.0184C39.3471 40.105 39.2295 40.1537 39.107 40.1537C39.0572 40.1557 39.0083 40.1682 38.9637 40.1905C38.9191 40.2128 38.8797 40.2444 38.8483 40.2831C38.7867 40.3617 38.757 40.4607 38.7651 40.5603C38.861 41.1557 39.1123 41.7153 39.4936 42.1826C39.8748 42.6498 40.3726 43.0083 40.9367 43.2217C41.0316 43.2574 41.1312 43.2791 41.2324 43.2864C41.3376 43.2873 41.4416 43.2652 41.5373 43.2217C42.0996 43.0145 42.5982 42.6644 42.9839 42.2058C43.3696 41.7472 43.629 41.196 43.7367 40.6065C43.75 40.5111 43.7256 40.4143 43.6687 40.3366C43.6117 40.259 43.5267 40.2066 43.4317 40.1907V40.1907C43.3092 40.1907 43.1917 40.142 43.105 40.0553C43.0184 39.9687 42.9697 39.8512 42.9697 39.7286C42.9697 39.6061 43.0184 39.4886 43.105 39.4019C43.1917 39.3153 43.3092 39.2666 43.4317 39.2666L43.4132 39.2296Z" stroke="#333333" stroke-width="0.75" stroke-linecap="round" stroke-linejoin="round"/>
<path d="M8.96338 39.0078H14.5079" stroke="#F4C55D" stroke-miterlimit="10"/>
<path d="M8.96338 40.856H14.5079" stroke="#F4C55D" stroke-miterlimit="10"/>
<path d="M32.9895 15.8595L29.9862 19.3618C29.9448 19.4087 29.9143 19.4641 29.8968 19.5242C29.8792 19.5842 29.8752 19.6474 29.8849 19.7091C29.8946 19.7709 29.9178 19.8298 29.9529 19.8816C29.988 19.9333 30.0341 19.9767 30.0878 20.0087C30.4795 20.2134 30.9253 20.2909 31.3631 20.2305C31.4258 20.2307 31.4879 20.2177 31.5453 20.1922C31.6026 20.1667 31.6539 20.1294 31.6957 20.0826L34.5512 16.7559C35.1333 16.109 33.4515 15.3605 32.9895 15.8595Z" fill="#424242"/>
<path d="M24.8114 15.7209H23.8226C23.7216 15.7222 23.6219 15.7442 23.5297 15.7855C23.4375 15.8268 23.3548 15.8866 23.2866 15.9612L20.5144 19.1677C19.9507 19.8238 21.6417 20.5631 22.1038 20.0179L25.3288 16.2569C25.5968 16.0628 25.375 15.6932 24.8114 15.7209Z" fill="#424242"/>
</svg>
