<svg width="45" height="49" viewBox="0 0 45 49" fill="none" xmlns="http://www.w3.org/2000/svg">
<path d="M39.8712 19.2025C39.8703 18.7792 39.7632 18.3628 39.5598 17.9915C39.3564 17.6202 39.0631 17.3058 38.7068 17.0771C38.943 16.7376 39.1099 16.3548 39.1978 15.9507C39.2857 15.5465 39.2929 15.129 39.2191 14.722C39.1452 14.3151 38.9918 13.9267 38.7675 13.5792C38.5432 13.2317 38.2525 12.9319 37.9121 12.697C37.6786 12.5333 37.4236 12.4027 37.1544 12.3089C37.2812 11.9175 37.3297 11.505 37.2971 11.0949C37.2645 10.6848 37.1514 10.2851 36.9644 9.91873C36.7773 9.55232 36.5199 9.22635 36.2068 8.95942C35.8938 8.69249 35.5312 8.48984 35.1399 8.36304C34.7133 8.22792 34.2631 8.18385 33.8184 8.23367C33.7824 7.33317 33.3904 6.48381 32.7285 5.87217C32.0666 5.26054 31.189 4.93665 30.2884 4.97165C30.1407 4.96257 29.9926 4.96257 29.8449 4.97165C29.737 4.58323 29.5537 4.21987 29.3053 3.90234C29.057 3.58481 28.7485 3.31933 28.3975 3.12109C28.0465 2.92284 27.6599 2.79572 27.2597 2.74698C26.8595 2.69823 26.4537 2.72883 26.0654 2.83702C25.7347 2.9232 25.4219 3.0671 25.1413 3.2621C24.8537 2.74517 24.4349 2.31322 23.9271 2.00983C23.4192 1.70643 22.8404 1.54233 22.2489 1.53406C21.6736 1.53327 21.1095 1.69281 20.6198 1.99478C20.1301 2.29676 19.7343 2.72921 19.4767 3.24362C19.1036 3.00825 18.6875 2.8492 18.2526 2.77569C17.8176 2.70218 17.3724 2.71566 16.9427 2.81535C16.513 2.91504 16.1074 3.09896 15.7492 3.35647C15.3911 3.61398 15.0876 3.93996 14.8562 4.31555C14.6976 4.57238 14.5734 4.84888 14.4866 5.13799C14.0898 5.04934 13.6794 5.03973 13.2788 5.10972C12.8783 5.17971 12.4955 5.32791 12.1522 5.54588C11.809 5.76384 11.512 6.04729 11.2783 6.38004C11.0446 6.71279 10.8788 7.08831 10.7903 7.48516C10.7332 7.72726 10.7084 7.97583 10.7163 8.22443C10.3067 8.1782 9.89188 8.2133 9.49579 8.32771C9.0997 8.44211 8.73009 8.63358 8.40815 8.89113C8.08621 9.14868 7.81827 9.46725 7.61971 9.82857C7.42114 10.1899 7.29586 10.5868 7.25103 10.9967C7.19657 11.4413 7.24074 11.8925 7.3804 12.3181C6.60706 12.6075 5.9782 13.1889 5.62912 13.9372C5.28003 14.6855 5.2386 15.5409 5.51375 16.3194C5.60636 16.5817 5.73379 16.8303 5.89262 17.0587C5.61326 17.2393 5.3724 17.4735 5.18389 17.7476C4.99539 18.0218 4.86297 18.3305 4.79426 18.656C4.72555 18.9815 4.7219 19.3174 4.78353 19.6443C4.84516 19.9713 4.97085 20.2828 5.15335 20.5609C5.32381 20.8222 5.53978 21.0506 5.79097 21.2355C5.35571 21.9456 5.21927 22.7991 5.41147 23.6095C5.60368 24.4199 6.10891 25.1213 6.81671 25.5602C7.0024 25.6777 7.2008 25.7738 7.40812 25.8467C7.27996 26.2399 7.23066 26.6544 7.26306 27.0667C7.29546 27.4789 7.40893 27.8807 7.59694 28.249C7.78495 28.6173 8.04382 28.9449 8.3587 29.2129C8.67358 29.481 9.03827 29.6842 9.43186 29.811C9.84985 29.9415 10.29 29.9855 10.7256 29.9404C10.7256 31.6592 13.6826 33.4242 15.8635 32.9437H28.8376C30.6858 33.378 33.8554 32.0196 33.8554 29.9404C34.6769 30.0233 35.4978 29.7786 36.1398 29.2595C36.7818 28.7404 37.1929 27.9888 37.2837 27.1681C37.333 26.7326 37.2889 26.2916 37.1544 25.8744C37.9352 25.5904 38.5727 25.0103 38.9289 24.2597C39.2852 23.5091 39.3316 22.6484 39.058 21.8639C38.9813 21.6582 38.8854 21.4602 38.7715 21.2725C39.1098 21.0433 39.3868 20.7349 39.5785 20.3741C39.7701 20.0133 39.8706 19.6111 39.8712 19.2025Z" fill="#444E51"/>
<path d="M43.161 41.0386C42.9707 40.13 42.5197 39.2965 41.8633 38.6401C41.2068 37.9836 40.3733 37.5327 39.4647 37.3423L35.3063 36.4182C31.0537 35.509 26.7179 35.0444 22.3692 35.0321C18.0204 35.0444 13.6847 35.509 9.43199 36.4182L5.27361 37.3423C4.36498 37.5327 3.5315 37.9836 2.87506 38.6401C2.21861 39.2965 1.76764 40.13 1.57728 41.0386L1.11523 42.8868C1.37398 43.0901 10.0326 47.5072 22.3692 47.5072C34.7057 47.5072 43.3643 43.0901 43.6231 42.8868L43.161 41.0386Z" fill="#F79694"/>
<path d="M43.6231 42.8868C43.1148 41.2327 41.1927 40.3918 39.4647 39.9575L35.3063 39.0334C31.0482 38.1767 26.7125 37.7648 22.3692 37.8044C18.0258 37.7648 13.6902 38.1767 9.43199 39.0334L5.27361 39.9575C3.54557 40.3918 1.62348 41.2697 1.11523 42.8868C1.37398 43.0901 10.0326 47.5072 22.3692 47.5072C34.7057 47.5072 43.3643 43.1178 43.6231 42.8868Z" fill="#F4827C"/>
<path d="M27.9137 35.7252H16.8247C14.0524 43.1178 17.7488 44.966 22.3692 46.8142C26.9896 44.966 30.6859 43.1178 27.9137 35.7252Z" fill="white"/>
<path d="M16.8246 36.0301V31.3358H27.9136V36.0301C26.1856 41.0386 18.2477 40.1053 16.8246 36.0301Z" fill="#A0775C"/>
<path d="M16.8247 35.0321C16.8247 35.0321 9.23793 36.4552 5.27361 37.3423C4.36498 37.5327 3.5315 37.9836 2.87506 38.6401C2.21861 39.2965 1.76764 40.13 1.57728 41.0386L1.11523 42.8868C1.37398 43.0901 10.0326 47.5072 22.3692 47.5072C34.7057 47.5072 43.3643 43.0901 43.6231 42.8868L43.161 41.0386C42.9707 40.13 42.5197 39.2965 41.8633 38.6401C41.2068 37.9836 40.3733 37.5327 39.4647 37.3423C35.5096 36.4182 27.9137 35.0321 27.9137 35.0321" stroke="#333333" stroke-width="1.5" stroke-linecap="round" stroke-linejoin="round"/>
<path d="M32.072 18.3894V16.5412C32.072 11.4402 29.9466 7.76239 22.3692 7.76239C14.7917 7.76239 12.6663 11.4587 12.6663 16.5412V18.3894C10.0788 18.3894 9.94947 20.4778 10.3561 22.5477C10.6887 24.2758 11.5481 26.013 13.1283 26.2441C13.1283 30.4024 15.2999 32.4909 18.2108 34.0988C19.791 35.7159 19.8372 35.9469 22.3692 35.9469C24.9011 35.9469 24.9474 35.7067 26.5275 34.0988C29.4384 32.4909 31.61 30.4024 31.61 26.2441C33.1902 26.013 34.0496 24.2758 34.3822 22.5477C34.7888 20.4778 34.6595 18.3894 32.072 18.3894Z" fill="#AC8164"/>
<path d="M32.072 18.3894V16.5412C32.072 11.4402 29.9466 7.76239 22.3691 7.76239C21.5101 7.76227 20.652 7.81783 19.8002 7.92873V18.0936C19.8 18.5847 19.6999 19.0705 19.5061 19.5217C19.3123 19.9728 19.0288 20.3798 18.6728 20.718C18.596 20.7973 18.5531 20.9034 18.5531 21.0138C18.5531 21.1241 18.596 21.2302 18.6728 21.3095C18.731 21.3686 18.8047 21.4102 18.8854 21.4296C19.2884 21.5465 19.6527 21.7693 19.9404 22.0749C20.2281 22.3804 20.4285 22.7575 20.521 23.1669C20.5455 23.2826 20.6143 23.3842 20.7128 23.4498C20.8112 23.5154 20.9314 23.5399 21.0477 23.518C21.1151 23.5004 21.178 23.469 21.2325 23.4256C21.3899 23.2947 21.5722 23.1972 21.7685 23.1391C21.8268 23.124 21.8875 23.1206 21.9471 23.1291C22.0067 23.1377 22.0639 23.1581 22.1156 23.1891C22.1672 23.22 22.2121 23.261 22.2477 23.3095C22.2833 23.3581 22.3089 23.4133 22.3229 23.4718C22.3275 23.5086 22.3275 23.5459 22.3229 23.5827V25.4863C22.3312 25.6705 22.3898 25.8489 22.4925 26.0021C22.5951 26.1553 22.7379 26.2773 22.9051 26.355C23.4318 26.6414 23.053 27.6487 22.3229 27.6487V32.0288C22.3233 32.1113 22.3519 32.1912 22.4041 32.2551C22.4562 32.319 22.5287 32.3631 22.6094 32.38C23.8292 32.6572 24.4576 34.6902 22.3229 35.1522C21.3989 35.3371 19.9665 34.7826 19.3104 35.2724C20.022 35.873 20.5764 35.9932 22.3322 35.9932C24.8642 35.9932 24.9104 35.7529 26.4906 34.145C29.4014 32.5371 31.573 30.4486 31.573 26.2903C33.1532 26.0592 34.0126 24.322 34.3453 22.5939C34.7888 20.4778 34.6595 18.3894 32.072 18.3894Z" fill="#A0775C"/>
<path d="M23.2932 23.9431V25.3292" stroke="#8E6551" stroke-width="0.75" stroke-miterlimit="10" stroke-linecap="round"/>
<path d="M14.9026 26.7523C15.0914 26.7523 15.2445 26.5992 15.2445 26.4104C15.2445 26.2216 15.0914 26.0685 14.9026 26.0685C14.7137 26.0685 14.5607 26.2216 14.5607 26.4104C14.5607 26.5992 14.7137 26.7523 14.9026 26.7523Z" fill="#996E56"/>
<path d="M15.4386 27.9998C15.5457 27.9998 15.6326 27.9129 15.6326 27.8058C15.6326 27.6986 15.5457 27.6117 15.4386 27.6117C15.3314 27.6117 15.2445 27.6986 15.2445 27.8058C15.2445 27.9129 15.3314 27.9998 15.4386 27.9998Z" fill="#996E56"/>
<path d="M16.9448 28.4988C17.052 28.4988 17.1388 28.412 17.1388 28.3048C17.1388 28.1976 17.052 28.1107 16.9448 28.1107C16.8376 28.1107 16.7507 28.1976 16.7507 28.3048C16.7507 28.412 16.8376 28.4988 16.9448 28.4988Z" fill="#996E56"/>
<path d="M17.6194 28.2124C17.7418 28.2124 17.8411 28.1131 17.8411 27.9906C17.8411 27.8681 17.7418 27.7688 17.6194 27.7688C17.4969 27.7688 17.3976 27.8681 17.3976 27.9906C17.3976 28.1131 17.4969 28.2124 17.6194 28.2124Z" fill="#996E56"/>
<path d="M25.9083 28.1384C26.0308 28.1384 26.1301 28.0391 26.1301 27.9167C26.1301 27.7942 26.0308 27.6949 25.9083 27.6949C25.7858 27.6949 25.6865 27.7942 25.6865 27.9167C25.6865 28.0391 25.7858 28.1384 25.9083 28.1384Z" fill="#8E6551"/>
<path d="M27.2113 28.1292C27.4155 28.1292 27.5809 27.9637 27.5809 27.7596C27.5809 27.5554 27.4155 27.39 27.2113 27.39C27.0072 27.39 26.8417 27.5554 26.8417 27.7596C26.8417 27.9637 27.0072 28.1292 27.2113 28.1292Z" fill="#8E6551"/>
<path d="M28.6992 28.4711C28.791 28.4711 28.8655 28.3966 28.8655 28.3048C28.8655 28.2129 28.791 28.1384 28.6992 28.1384C28.6073 28.1384 28.5328 28.2129 28.5328 28.3048C28.5328 28.3966 28.6073 28.4711 28.6992 28.4711Z" fill="#8E6551"/>
<path d="M29.0318 27.0757C29.2155 27.0757 29.3644 26.9268 29.3644 26.7431C29.3644 26.5593 29.2155 26.4104 29.0318 26.4104C28.848 26.4104 28.6991 26.5593 28.6991 26.7431C28.6991 26.9268 28.848 27.0757 29.0318 27.0757Z" fill="#8E6551"/>
<path d="M15.1889 21.9841C15.7076 21.3285 16.4524 20.8902 17.2773 20.755C17.6909 20.7166 18.108 20.7623 18.5034 20.8893C18.8989 21.0164 19.2645 21.2222 19.5783 21.4943C19.6103 21.5232 19.6318 21.562 19.6393 21.6045C19.6469 21.647 19.64 21.6907 19.6199 21.7289C19.5997 21.7671 19.5675 21.7974 19.5281 21.8152C19.4888 21.8329 19.4447 21.8371 19.4027 21.827C19.0757 21.7016 18.7342 21.6178 18.3862 21.5775C18.0577 21.5405 17.726 21.5405 17.3975 21.5775C17.0622 21.5994 16.7321 21.671 16.4179 21.79C16.0949 21.9082 15.7852 22.06 15.4939 22.2428C15.4728 22.2561 15.4492 22.2649 15.4246 22.2688C15.4 22.2728 15.3749 22.2717 15.3507 22.2656C15.3265 22.2596 15.3038 22.2487 15.284 22.2337C15.2641 22.2186 15.2475 22.1997 15.2351 22.1781C15.2075 22.1551 15.188 22.1238 15.1797 22.0888C15.1714 22.0538 15.1746 22.0171 15.1889 21.9841Z" fill="#4D585B"/>
<path d="M29.0502 22.252C28.76 22.0671 28.4501 21.9152 28.1261 21.7992C27.8108 21.6842 27.4813 21.6127 27.1466 21.5867C26.8181 21.5495 26.4864 21.5495 26.1578 21.5867C25.8095 21.64 25.4685 21.733 25.1413 21.8639C25.0923 21.8783 25.0396 21.8728 24.9946 21.8486C24.9497 21.8243 24.916 21.7834 24.9011 21.7345C24.8881 21.6982 24.8873 21.6586 24.899 21.6219C24.9107 21.5852 24.9342 21.5533 24.9658 21.5312C25.2798 21.2595 25.6455 21.054 26.0409 20.927C26.4363 20.8 26.8532 20.754 27.2667 20.7919C28.0896 20.9329 28.8324 21.3701 29.3552 22.021C29.3896 22.0571 29.4089 22.1051 29.4089 22.155C29.4089 22.2049 29.3896 22.2529 29.3552 22.289C29.3238 22.3145 29.2847 22.3284 29.2443 22.3284C29.2039 22.3284 29.1647 22.3145 29.1334 22.289L29.0502 22.252Z" fill="#4D585B"/>
<path d="M17.2867 22.5569C15.5401 22.5569 14.9857 23.019 13.5903 23.019V23.481C14.9765 23.9431 14.5144 26.7153 17.7487 26.7153C20.521 26.7153 20.521 24.4051 21.445 23.9431C20.2376 23.0583 18.7835 22.5736 17.2867 22.5569Z" fill="#C19D84"/>
<path d="M19.6893 25.5602C19.6893 25.7028 19.647 25.8421 19.5678 25.9606C19.4886 26.0792 19.376 26.1716 19.2443 26.2261C19.1126 26.2807 18.9677 26.2949 18.8278 26.2671C18.688 26.2393 18.5596 26.1707 18.4588 26.0699C18.358 25.9691 18.2893 25.8406 18.2615 25.7008C18.2337 25.561 18.248 25.4161 18.3025 25.2844C18.3571 25.1527 18.4495 25.0401 18.568 24.9609C18.6866 24.8817 18.8259 24.8394 18.9685 24.8394C19.1596 24.8394 19.343 24.9154 19.4781 25.0505C19.6133 25.1857 19.6893 25.369 19.6893 25.5602Z" fill="#CEAC95"/>
<path d="M17.2867 22.5569C15.5401 22.5569 14.9857 23.019 13.5903 23.019V23.481C14.9765 23.9431 14.5144 26.7153 17.7487 26.7153C20.521 26.7153 20.521 24.4051 21.445 23.9431C20.2376 23.0583 18.7835 22.5736 17.2867 22.5569Z" stroke="#333333" stroke-width="1.1" stroke-linecap="round" stroke-linejoin="round"/>
<path d="M27.4516 22.5569C29.1981 22.5569 29.7526 23.019 31.1479 23.019V23.481C29.7618 23.9431 30.2238 26.7153 26.9895 26.7153C24.2173 26.7153 24.2173 24.4051 23.2932 23.9431C24.5007 23.0583 25.9548 22.5736 27.4516 22.5569Z" fill="#C19D84"/>
<path d="M26.9341 25.5602C26.9341 25.7028 26.9764 25.8421 27.0556 25.9606C27.1348 26.0792 27.2473 26.1716 27.379 26.2261C27.5107 26.2807 27.6557 26.2949 27.7955 26.2671C27.9353 26.2393 28.0637 26.1707 28.1645 26.0699C28.2653 25.9691 28.334 25.8406 28.3618 25.7008C28.3896 25.561 28.3753 25.4161 28.3208 25.2844C28.2662 25.1527 28.1738 25.0401 28.0553 24.9609C27.9368 24.8817 27.7974 24.8394 27.6549 24.8394C27.4637 24.8394 27.2804 24.9154 27.1452 25.0505C27.01 25.1857 26.9341 25.369 26.9341 25.5602Z" fill="#CEAC95"/>
<path d="M27.4516 22.5569C29.1981 22.5569 29.7526 23.019 31.1479 23.019V23.481C29.7618 23.9431 30.2238 26.7153 26.9895 26.7153C24.2173 26.7153 24.2173 24.4051 23.2932 23.9431C24.5007 23.0583 25.9548 22.5736 27.4516 22.5569V22.5569Z" stroke="#333333" stroke-width="1.1" stroke-linecap="round" stroke-linejoin="round"/>
<path d="M21.4451 23.9431C21.701 23.7195 22.0293 23.5963 22.3692 23.5963C22.709 23.5963 23.0373 23.7195 23.2932 23.9431" stroke="#333333" stroke-miterlimit="10"/>
<path d="M32.0719 18.3894V16.5412C32.0719 11.4402 29.9465 7.76239 22.369 7.76239C14.7915 7.76239 12.6662 11.4587 12.6662 16.5412V18.3894C10.0787 18.3894 9.94935 20.4778 10.3559 22.5477C10.6886 24.2758 11.548 26.013 13.1282 26.2441C13.1282 30.4024 15.2998 32.4909 18.2107 34.0988C19.7908 35.7159 19.837 35.9469 22.369 35.9469C24.901 35.9469 24.9472 35.7067 26.5274 34.0988C29.4383 32.4909 31.6099 30.4024 31.6099 26.2441C33.1901 26.013 34.0495 24.2758 34.3821 22.5477C34.7887 20.4778 34.6593 18.3894 32.0719 18.3894Z" stroke="#333333" stroke-width="1.5" stroke-linecap="round" stroke-linejoin="round"/>
<path d="M39.8712 19.2025C39.8703 18.7792 39.7632 18.3628 39.5598 17.9915C39.3564 17.6202 39.0631 17.3058 38.7068 17.0771C38.943 16.7376 39.1099 16.3548 39.1978 15.9507C39.2857 15.5465 39.2929 15.129 39.2191 14.722C39.1452 14.3151 38.9918 13.9267 38.7675 13.5792C38.5432 13.2317 38.2525 12.9319 37.9121 12.697C37.6786 12.5333 37.4236 12.4027 37.1544 12.3089C37.2812 11.9175 37.3297 11.505 37.2971 11.0949C37.2645 10.6848 37.1514 10.2851 36.9644 9.91873C36.7773 9.55232 36.5199 9.22635 36.2068 8.95942C35.8938 8.69249 35.5312 8.48984 35.1399 8.36304C34.7133 8.22792 34.2631 8.18385 33.8184 8.23367C33.7824 7.33317 33.3904 6.48381 32.7285 5.87217C32.0666 5.26054 31.189 4.93665 30.2884 4.97165C30.1407 4.96257 29.9926 4.96257 29.8449 4.97165C29.737 4.58323 29.5537 4.21987 29.3053 3.90234C29.057 3.58481 28.7485 3.31933 28.3975 3.12109C28.0465 2.92284 27.6599 2.79572 27.2597 2.74698C26.8595 2.69823 26.4537 2.72883 26.0654 2.83702C25.7347 2.9232 25.4219 3.0671 25.1413 3.2621C24.8537 2.74517 24.4349 2.31322 23.9271 2.00983C23.4192 1.70643 22.8404 1.54233 22.2489 1.53406C21.6736 1.53327 21.1095 1.69281 20.6198 1.99478C20.1301 2.29676 19.7343 2.72921 19.4767 3.24362C19.1036 3.00825 18.6875 2.8492 18.2526 2.77569C17.8176 2.70218 17.3724 2.71566 16.9427 2.81535C16.513 2.91504 16.1074 3.09896 15.7492 3.35647C15.3911 3.61398 15.0876 3.93996 14.8562 4.31555C14.6976 4.57238 14.5734 4.84888 14.4866 5.13799C14.0898 5.04934 13.6794 5.03973 13.2788 5.10972C12.8783 5.17971 12.4955 5.32791 12.1522 5.54588C11.809 5.76384 11.512 6.04729 11.2783 6.38004C11.0446 6.71279 10.8788 7.08831 10.7903 7.48516C10.7332 7.72726 10.7084 7.97583 10.7163 8.22443C10.3067 8.1782 9.89188 8.2133 9.49579 8.32771C9.0997 8.44211 8.73009 8.63358 8.40815 8.89113C8.08621 9.14868 7.81827 9.46725 7.61971 9.82857C7.42114 10.1899 7.29586 10.5868 7.25103 10.9967C7.19657 11.4413 7.24074 11.8925 7.3804 12.3181C6.60706 12.6075 5.9782 13.1889 5.62912 13.9372C5.28003 14.6855 5.2386 15.5409 5.51375 16.3194C5.60636 16.5817 5.73379 16.8303 5.89262 17.0587C5.61326 17.2393 5.3724 17.4735 5.18389 17.7476C4.99539 18.0218 4.86297 18.3305 4.79426 18.656C4.72555 18.9815 4.7219 19.3174 4.78353 19.6443C4.84516 19.9713 4.97085 20.2828 5.15335 20.5609C5.32381 20.8222 5.53978 21.0506 5.79097 21.2355C5.35571 21.9456 5.21927 22.7991 5.41147 23.6095C5.60368 24.4199 6.10891 25.1213 6.81671 25.5602C7.0024 25.6777 7.2008 25.7738 7.40812 25.8467C7.35267 26.0315 7.58369 28.12 7.56521 28.3048C8.31372 28.3048 10.3375 28.3972 11.2615 28.3972C12.0683 28.3449 12.8216 27.9753 13.3566 27.3692C13.8917 26.7632 14.1651 25.9699 14.117 25.1629C14.1232 24.489 13.9338 23.8277 13.5718 23.2593C13.9342 22.9926 14.2389 22.6554 14.4675 22.2679C14.6962 21.8804 14.8442 21.4507 14.9024 21.0045C15.5786 20.9728 16.2233 20.7093 16.7281 20.2583C17.233 19.8073 17.5672 19.1963 17.6747 18.528C17.9703 18.6383 18.2833 18.6947 18.5988 18.6943C18.9978 18.6903 19.3909 18.5969 19.7491 18.421C20.1073 18.2451 20.4216 17.9911 20.6687 17.6778C21.1261 18.0368 21.6906 18.2319 22.272 18.2319C22.8534 18.2319 23.418 18.0368 23.8753 17.6778C24.1243 17.9913 24.4402 18.2453 24.7999 18.4212C25.1597 18.597 25.5541 18.6903 25.9545 18.6943C26.27 18.6947 26.583 18.6383 26.8786 18.528C26.986 19.1963 27.3203 19.8073 27.8251 20.2583C28.3299 20.7093 28.9746 20.9728 29.6508 21.0045C29.7092 21.4517 29.8581 21.8823 30.0885 22.2699C30.3189 22.6576 30.6259 22.9942 30.9907 23.2593C30.6204 23.8244 30.4273 24.4873 30.4363 25.1629C30.424 25.5701 30.4927 25.9756 30.6383 26.3561C30.784 26.7365 31.0038 27.0843 31.2848 27.3791C31.5659 27.674 31.9028 27.9101 32.2758 28.0737C32.6489 28.2374 33.0507 28.3253 33.458 28.3325C34.3821 28.3325 36.3689 28.3972 37.1544 28.3325C37.2006 27.5138 37.2006 26.6931 37.1544 25.8744C37.9352 25.5904 38.5727 25.0103 38.9289 24.2597C39.2852 23.5091 39.3316 22.6484 39.058 21.8639C38.9813 21.6582 38.8854 21.4602 38.7715 21.2725C39.1098 21.0433 39.3868 20.7349 39.5785 20.3741C39.7701 20.0133 39.8706 19.6111 39.8712 19.2025Z" fill="#728084"/>
<path d="M38.8085 21.254C39.0785 21.0641 39.3085 20.8229 39.4853 20.5441C39.6621 20.2653 39.7822 19.9544 39.8389 19.6292C39.8955 19.304 39.8875 18.9708 39.8154 18.6486C39.7432 18.3265 39.6083 18.0217 39.4184 17.7517C39.226 17.4838 38.9846 17.2549 38.7068 17.0771C38.943 16.7376 39.1099 16.3548 39.1978 15.9506C39.2857 15.5465 39.2929 15.129 39.2191 14.722C39.1452 14.3151 38.9918 13.9267 38.7675 13.5792C38.5432 13.2317 38.2525 12.9319 37.9121 12.697C37.6786 12.5333 37.4236 12.4027 37.1544 12.3089C37.2812 11.9175 37.3297 11.505 37.2971 11.0949C37.2645 10.6848 37.1514 10.2851 36.9644 9.9187C36.7773 9.5523 36.5199 9.22632 36.2068 8.9594C35.8938 8.69247 35.5312 8.48982 35.1399 8.36302C34.7133 8.2279 34.2631 8.18383 33.8184 8.23364C33.7824 7.33315 33.3904 6.48379 32.7285 5.87215C32.0666 5.26051 31.189 4.93662 30.2884 4.97163C30.1407 4.96255 29.9926 4.96255 29.8449 4.97163C29.8007 4.82876 29.7451 4.68969 29.6785 4.55579C28.7479 4.52552 27.8242 4.7255 26.9895 5.13796C26.7057 4.6236 26.2935 4.19152 25.7931 3.88382C25.2927 3.57612 24.7211 3.40331 24.134 3.38221C23.5587 3.38142 22.9946 3.54096 22.5049 3.84293C22.0152 4.1449 21.6194 4.57735 21.3618 5.09176C20.9898 4.85557 20.5747 4.69541 20.1405 4.62052C19.7063 4.54563 19.2616 4.5575 18.832 4.65545C18.4024 4.7534 17.9965 4.93548 17.6376 5.19118C17.2788 5.44688 16.9742 5.77113 16.7414 6.14522C16.5897 6.39463 16.4686 6.66147 16.381 6.93993C15.5771 6.76395 14.7363 6.91426 14.0433 7.35783C13.3502 7.8014 12.8615 8.50195 12.6846 9.30558C12.6278 9.54457 12.6029 9.79007 12.6107 10.0356C12.2008 9.98812 11.7856 10.0223 11.389 10.1362C10.9924 10.2502 10.6223 10.4415 10.3001 10.6993C9.97789 10.9571 9.70995 11.2761 9.51176 11.638C9.31356 11.9999 9.18905 12.3975 9.1454 12.8079C9.09048 13.2555 9.13464 13.7098 9.27477 14.1385C8.49468 14.4279 7.86019 15.0133 7.509 15.7676C7.1578 16.5219 7.11823 17.3843 7.39888 18.1675C7.49152 18.4269 7.61898 18.6725 7.77775 18.8976C7.49839 19.0782 7.25753 19.3124 7.06902 19.5865C6.88052 19.8607 6.7481 20.1694 6.67939 20.4949C6.61068 20.8204 6.60703 21.1563 6.66866 21.4832C6.73029 21.8102 6.85598 22.1217 7.03849 22.3998C7.20894 22.6611 7.42491 22.8895 7.6761 23.0744C7.42265 23.4854 7.26671 23.9489 7.22025 24.4294C7.1738 24.91 7.23807 25.3948 7.40812 25.8467C7.37444 26.7012 7.5389 27.552 7.88864 28.3325L11.4186 28.4711C12.2169 28.365 12.9411 27.9485 13.4341 27.3119C13.9272 26.6752 14.1493 25.8698 14.0523 25.0705C14.0585 24.3965 13.8691 23.7353 13.5071 23.1668C13.8681 22.9042 14.1727 22.5717 14.4028 22.1892C14.633 21.8066 14.784 21.3818 14.847 20.9398C15.5232 20.9081 16.1679 20.6446 16.6727 20.1936C17.1775 19.7426 17.5118 19.1316 17.6192 18.4633C17.9148 18.5736 18.2278 18.6299 18.5433 18.6296C18.9424 18.6256 19.3355 18.5322 19.6937 18.3563C20.0519 18.1804 20.3661 17.9264 20.6133 17.6131C21.0722 17.9725 21.6383 18.1678 22.2212 18.1675C22.8014 18.1686 23.3649 17.9731 23.8198 17.6131C24.0689 17.9266 24.3848 18.1806 24.7445 18.3565C25.1042 18.5323 25.4987 18.6256 25.899 18.6296C26.2145 18.6299 26.5275 18.5736 26.8231 18.4633C26.9822 19.2821 27.4568 20.0056 28.1446 20.4778C28.3363 20.4533 28.5251 20.4099 28.7083 20.3484V20.7827C28.9814 20.8803 29.2684 20.9333 29.5584 20.9398C29.6168 21.387 29.7657 21.8175 29.9961 22.2052C30.2265 22.5929 30.5335 22.9295 30.8983 23.1946C30.528 23.7597 30.3349 24.4226 30.3439 25.0982C30.2958 25.9067 30.5705 26.7013 31.1075 27.3076C31.6445 27.9139 32.4001 28.2825 33.2085 28.3325H33.458C34.3821 28.3325 36.3689 28.3972 37.1544 28.3325C37.2006 27.5138 37.2006 26.6931 37.1544 25.8744C37.9434 25.5998 38.5911 25.023 38.955 24.2709C39.3189 23.5189 39.3692 22.6531 39.095 21.8639C39.0222 21.6507 38.9261 21.4461 38.8085 21.254Z" fill="#566266"/>
<path d="M27.9137 35.7252C30.6859 43.1178 26.9896 44.966 22.3692 46.8142C17.7488 44.966 14.0524 43.1178 16.8247 35.7252" stroke="#333333" stroke-width="1.5" stroke-linecap="round" stroke-linejoin="round"/>
<path d="M22.3691 41.0386C22.5062 41.0386 22.6402 41.0793 22.7541 41.1554C22.8681 41.2316 22.9569 41.3398 23.0094 41.4665C23.0619 41.5931 23.0756 41.7325 23.0488 41.8669C23.0221 42.0013 22.9561 42.1248 22.8592 42.2218C22.7622 42.3187 22.6387 42.3847 22.5043 42.4114C22.3699 42.4382 22.2305 42.4245 22.1039 42.372C21.9772 42.3195 21.869 42.2307 21.7928 42.1167C21.7167 42.0028 21.676 41.8688 21.676 41.7317C21.6807 41.5494 21.7552 41.3758 21.8842 41.2468C22.0132 41.1178 22.1868 41.0433 22.3691 41.0386Z" fill="#3A3A3A"/>
<path d="M22.3691 43.8109C22.5062 43.8109 22.6402 43.8516 22.7541 43.9277C22.8681 44.0039 22.9569 44.1121 23.0094 44.2388C23.0619 44.3654 23.0756 44.5047 23.0488 44.6392C23.0221 44.7736 22.9561 44.8971 22.8592 44.994C22.7622 45.091 22.6387 45.157 22.5043 45.1837C22.3699 45.2105 22.2305 45.1967 22.1039 45.1443C21.9772 45.0918 21.869 45.003 21.7928 44.889C21.7167 44.775 21.676 44.6411 21.676 44.504C21.6807 44.3216 21.7552 44.1481 21.8842 44.0191C22.0132 43.8901 22.1868 43.8156 22.3691 43.8109Z" fill="#3A3A3A"/>
<path d="M29.2442 32.9529C31.1386 33.3872 33.8646 32.0288 33.8646 29.9496C34.6856 30.0301 35.5053 29.7845 36.1467 29.2658C36.7882 28.7472 37.1999 27.997 37.293 27.1774C37.3354 26.7382 37.2882 26.2949 37.1544 25.8744C37.9351 25.5904 38.5727 25.0103 38.9289 24.2597C39.2852 23.5091 39.3316 22.6484 39.058 21.8639C38.9813 21.6582 38.8854 21.4602 38.7715 21.2725C39.0416 21.0826 39.2715 20.8414 39.4483 20.5626C39.6251 20.2838 39.7453 19.9729 39.8019 19.6477C39.8586 19.3225 39.8506 18.9893 39.7784 18.6671C39.7063 18.345 39.5714 18.0402 39.3814 17.7702C39.1891 17.5024 38.9476 17.2734 38.6699 17.0956C38.9072 16.7565 39.0754 16.3739 39.1649 15.9697C39.2543 15.5656 39.2632 15.1477 39.1912 14.7401C39.1191 14.3325 38.9674 13.9431 38.7448 13.5941C38.5221 13.2451 38.2329 12.9434 37.8936 12.7062C37.6642 12.5492 37.4158 12.4219 37.1544 12.3274C37.2812 11.936 37.3297 11.5235 37.2971 11.1134C37.2645 10.7033 37.1514 10.3036 36.9644 9.93721C36.7773 9.5708 36.5199 9.24483 36.2068 8.9779C35.8938 8.71098 35.5312 8.50833 35.1399 8.38152C34.7133 8.24641 34.2631 8.20233 33.8184 8.25215C33.7824 7.35165 33.3903 6.50229 32.7285 5.89066C32.0666 5.27902 31.189 4.95513 30.2884 4.99013C30.1407 4.98105 29.9926 4.98105 29.8449 4.99013V4.99013C29.739 4.60004 29.5571 4.23472 29.3096 3.91515C29.0621 3.59558 28.7539 3.32808 28.4027 3.128C28.0514 2.92792 27.6642 2.79921 27.263 2.74928C26.8619 2.69934 26.4549 2.72916 26.0654 2.83702C25.7347 2.9232 25.4219 3.0671 25.1413 3.2621C24.8537 2.74517 24.4349 2.31322 23.9271 2.00983C23.4192 1.70643 22.8404 1.54233 22.2489 1.53406C21.6736 1.53327 21.1095 1.69281 20.6198 1.99478C20.1301 2.29676 19.7343 2.72921 19.4767 3.24362C19.1036 3.00825 18.6875 2.8492 18.2526 2.77569C17.8176 2.70218 17.3724 2.71566 16.9427 2.81535C16.513 2.91504 16.1074 3.09896 15.7492 3.35647C15.3911 3.61398 15.0876 3.93996 14.8562 4.31555C14.6976 4.57238 14.5734 4.84888 14.4866 5.13799V5.13799C14.0898 5.04934 13.6794 5.03973 13.2788 5.10972C12.8783 5.17971 12.4955 5.32791 12.1522 5.54588C11.809 5.76384 11.512 6.04729 11.2783 6.38004C11.0446 6.71279 10.8788 7.08831 10.7903 7.48516C10.7332 7.72726 10.7084 7.97583 10.7163 8.22443C10.3067 8.1782 9.89188 8.2133 9.49579 8.32771C9.0997 8.44211 8.73009 8.63358 8.40815 8.89113C8.08621 9.14868 7.81827 9.46725 7.61971 9.82857C7.42114 10.1899 7.29586 10.5868 7.25103 10.9967C7.19657 11.4413 7.24074 11.8925 7.3804 12.3181C6.60706 12.6075 5.9782 13.1889 5.62912 13.9372C5.28003 14.6855 5.2386 15.5409 5.51375 16.3194C5.60636 16.5817 5.73379 16.8303 5.89262 17.0587C5.61326 17.2393 5.3724 17.4735 5.18389 17.7476C4.99539 18.0218 4.86297 18.3305 4.79426 18.656C4.72555 18.9815 4.7219 19.3174 4.78353 19.6443C4.84516 19.9713 4.97085 20.2828 5.15335 20.5609C5.32381 20.8222 5.53978 21.0506 5.79097 21.2355C5.35571 21.9456 5.21927 22.7991 5.41147 23.6095C5.60368 24.4199 6.10891 25.1213 6.81671 25.5602C7.0024 25.6777 7.2008 25.7738 7.40812 25.8467C7.27996 26.2399 7.23066 26.6544 7.26306 27.0667C7.29546 27.4789 7.40893 27.8807 7.59694 28.249C7.78495 28.6173 8.04382 28.9449 8.3587 29.2129C8.67358 29.481 9.03827 29.6842 9.43186 29.811C9.84985 29.9415 10.29 29.9855 10.7256 29.9404C10.7256 31.6592 13.1652 33.4242 15.346 32.9437" stroke="#333333" stroke-width="1.5" stroke-linecap="round" stroke-linejoin="round"/>
<path d="M11.2801 28.1107C11.7771 28.083 12.2527 27.8986 12.6385 27.584C13.0215 27.2663 13.312 26.8513 13.4794 26.3827C13.6485 25.9187 13.7049 25.4211 13.6438 24.9311C13.5828 24.441 13.4061 23.9725 13.1282 23.5642C13.0568 23.4573 13.0286 23.3274 13.0491 23.2005C13.0697 23.0736 13.1376 22.9592 13.2391 22.8804C13.5502 22.6525 13.8104 22.3622 14.0029 22.028C14.1954 21.6939 14.3161 21.3233 14.3573 20.9398C14.3709 20.8066 14.433 20.6831 14.5319 20.5927C14.6307 20.5024 14.7593 20.4516 14.8932 20.4501C15.4277 20.4429 15.9383 20.2274 16.3163 19.8494C16.7107 19.4616 16.9754 18.9613 17.0741 18.4171C17.0896 18.3356 17.121 18.258 17.1666 18.1888C17.2122 18.1196 17.2711 18.06 17.3398 18.0137C17.4085 17.9673 17.4858 17.935 17.567 17.9185C17.6483 17.9021 17.732 17.902 17.8133 17.9181H17.9058C18.3082 18.0656 18.7475 18.0797 19.1585 17.9582C19.5696 17.8367 19.9306 17.5861 20.1882 17.2435C20.2415 17.1753 20.3077 17.1183 20.383 17.0758C20.4583 17.0333 20.5413 17.0061 20.6272 16.9958C20.7131 16.9855 20.8002 16.9923 20.8834 17.0158C20.9667 17.0392 21.0445 17.0789 21.1123 17.1326C21.4481 17.3972 21.8631 17.541 22.2905 17.541C22.718 17.541 23.133 17.3972 23.4687 17.1326C23.6072 17.0299 23.7794 16.9834 23.9507 17.0022C24.1221 17.0211 24.28 17.1039 24.3928 17.2342C24.6472 17.5625 24.9971 17.8036 25.3944 17.9245C25.7916 18.0453 26.2166 18.0398 26.6106 17.9088C26.7712 17.8523 26.9476 17.8613 27.1016 17.934C27.2555 18.0066 27.3746 18.137 27.4331 18.2969V18.3986C27.5074 18.9333 27.7624 19.4266 28.1558 19.7964C28.5491 20.1662 29.0571 20.3903 29.5954 20.4316C29.7328 20.4329 29.8649 20.4844 29.967 20.5762C30.0691 20.6681 30.1341 20.7941 30.1499 20.9306C30.1868 21.3041 30.2992 21.6663 30.4803 21.9951C30.6614 22.3239 30.9074 22.6125 31.2033 22.8434C31.2555 22.881 31.2998 22.9286 31.3336 22.9833C31.3674 23.038 31.3901 23.0989 31.4004 23.1624C31.4107 23.2259 31.4084 23.2908 31.3936 23.3534C31.3788 23.416 31.3518 23.4751 31.3142 23.5273C31.041 23.9379 30.8691 24.4075 30.8129 24.8975C30.7567 25.3875 30.8176 25.8839 30.9908 26.3457C31.1608 26.8154 31.4545 27.2305 31.8409 27.547C32.2226 27.8627 32.6955 28.0473 33.1901 28.0737C33.2314 28.0749 33.272 28.0843 33.3096 28.1012C33.3473 28.1181 33.3813 28.1422 33.4096 28.1723C33.4379 28.2023 33.46 28.2376 33.4747 28.2762C33.4894 28.3148 33.4963 28.3559 33.495 28.3972C33.4904 28.4781 33.4556 28.5544 33.3974 28.6109C33.3392 28.6674 33.2619 28.6999 33.1809 28.7021C32.5205 28.7263 31.8707 28.5314 31.3327 28.1477C30.8074 27.7756 30.3975 27.2632 30.1499 26.6691C29.895 26.0775 29.7846 25.4336 29.828 24.7908C29.8714 24.148 30.0673 23.5248 30.3994 22.9728L30.538 23.6751C30.1041 23.378 29.7369 22.9935 29.4601 22.5464C29.1832 22.0993 29.0027 21.5993 28.9301 21.0784L29.503 21.5774C28.6646 21.6044 27.8488 21.3026 27.2298 20.7365C26.6402 20.181 26.234 19.4589 26.0654 18.6666L26.9895 19.1471C26.3346 19.4017 25.6149 19.4373 24.938 19.2487C24.3271 19.0404 23.7864 18.666 23.3763 18.1676L24.3004 18.2785C23.7211 18.7205 23.0145 18.9635 22.2859 18.9715C21.552 18.9691 20.8398 18.7219 20.2622 18.2692L21.1862 18.1676C20.7422 18.6916 20.1543 19.074 19.4952 19.2672C18.8251 19.4606 18.1096 19.4248 17.4622 19.1656L18.3123 18.7035C18.1353 19.4941 17.7229 20.2126 17.1295 20.7642C16.5117 21.3272 15.7012 21.6316 14.8655 21.6144L15.4384 21.1246C15.3685 21.6397 15.1939 22.135 14.9253 22.58C14.6567 23.0249 14.2999 23.4102 13.8767 23.7121L14.0154 23.019C14.3518 23.5694 14.5502 24.1929 14.5937 24.8366C14.6371 25.4802 14.5243 26.1247 14.2649 26.7153C14.0225 27.2944 13.6302 27.7984 13.1282 28.1754C12.6059 28.5564 11.9726 28.7545 11.3263 28.7391C11.2429 28.7391 11.163 28.706 11.1041 28.6471C11.0452 28.5881 11.0121 28.5082 11.0121 28.4249C11.0121 28.3416 11.0452 28.2617 11.1041 28.2027C11.163 28.1438 11.2429 28.1107 11.3263 28.1107H11.2801Z" fill="#333333"/>
<path d="M27.9136 33.184V36.6493C26.0654 40.3456 18.6728 40.3456 16.8246 36.6493V33.184" stroke="#333333" stroke-width="1.5" stroke-linejoin="round"/>
<path d="M20.0036 27.048C19.5184 27.4274 19.1139 27.9 18.814 28.438C18.514 28.9759 18.3247 29.5685 18.2571 30.1807" stroke="#A0775C" stroke-width="0.75" stroke-miterlimit="10" stroke-linecap="round"/>
<path d="M24.4391 27.048C24.9243 27.4274 25.3288 27.9 25.6287 28.438C25.9286 28.9759 26.118 29.5685 26.1856 30.1807" stroke="#8E6551" stroke-width="0.75" stroke-miterlimit="10" stroke-linecap="round"/>
<path d="M22.2583 28.4711V29.1272" stroke="#966C54" stroke-width="0.75" stroke-miterlimit="10" stroke-linecap="round"/>
<path d="M18.1554 23.5088C17.6864 23.5974 17.2363 23.7662 16.8247 24.0078C17.1691 24.3362 17.6033 24.5549 18.0722 24.6362C18.5343 24.6362 18.9039 24.3589 18.9039 24.0078C18.9039 23.8322 18.5343 23.5088 18.1554 23.5088Z" fill="#566266"/>
<path d="M26.3427 23.5088C26.8117 23.5974 27.2619 23.7662 27.6734 24.0078C27.329 24.3362 26.8948 24.5549 26.4259 24.6362C25.9639 24.6362 25.5942 24.3589 25.5942 24.0078C25.5942 23.8322 25.9731 23.5088 26.3427 23.5088Z" fill="#566266"/>
<path d="M22.9698 29.9681C22.7413 30.0644 22.4969 30.1177 22.249 30.1252C22.0314 30.1141 21.8179 30.0607 21.6206 29.9681C20.8814 29.7279 20.8352 30.4764 19.4675 30.8922L20.3177 31.613C20.7336 31.912 21.2383 32.0618 21.75 32.0381H22.6741C23.2256 32.0495 23.7663 31.8844 24.2173 31.5668L25.012 30.883C23.7091 30.4949 23.6998 29.7279 22.9698 29.9681Z" fill="#936A55"/>
<path d="M24.9935 30.8553C24.0694 30.8553 23.6166 30.4025 22.2212 30.8553C20.8536 30.3932 20.3731 30.8553 19.449 30.8553" stroke="#755243" stroke-width="0.5" stroke-miterlimit="10" stroke-linecap="round"/>
<path d="M20.3823 27.7965C21.3064 27.7965 21.3064 28.2586 22.2305 28.2586C23.1546 28.2586 23.1546 27.7965 24.0787 27.7965" stroke="#755243" stroke-width="0.75" stroke-miterlimit="10" stroke-linecap="round"/>
</svg>
