<svg width="14" height="14" viewBox="0 0 14 14" fill="none" xmlns="http://www.w3.org/2000/svg">
<path d="M0 1C0 0.447715 0.447715 0 1 0H2.5C3.05228 0 3.5 0.447715 3.5 1V2.5C3.5 3.05228 3.05228 3.5 2.5 3.5H1C0.447715 3.5 0 3.05228 0 2.5V1ZM5.25 1C5.25 0.447715 5.69772 0 6.25 0H7.75C8.30229 0 8.75 0.447715 8.75 1V2.5C8.75 3.05228 8.30228 3.5 7.75 3.5H6.25C5.69772 3.5 5.25 3.05228 5.25 2.5V1ZM10.5 1C10.5 0.447715 10.9477 0 11.5 0H13C13.5523 0 14 0.447715 14 1V2.5C14 3.05228 13.5523 3.5 13 3.5H11.5C10.9477 3.5 10.5 3.05228 10.5 2.5V1ZM0 6.25C0 5.69772 0.447715 5.25 1 5.25H2.5C3.05228 5.25 3.5 5.69772 3.5 6.25V7.75C3.5 8.30229 3.05228 8.75 2.5 8.75H1C0.447715 8.75 0 8.30228 0 7.75V6.25ZM5.25 6.25C5.25 5.69772 5.69772 5.25 6.25 5.25H7.75C8.30229 5.25 8.75 5.69772 8.75 6.25V7.75C8.75 8.30229 8.30228 8.75 7.75 8.75H6.25C5.69772 8.75 5.25 8.30228 5.25 7.75V6.25ZM10.5 6.25C10.5 5.69772 10.9477 5.25 11.5 5.25H13C13.5523 5.25 14 5.69772 14 6.25V7.75C14 8.30229 13.5523 8.75 13 8.75H11.5C10.9477 8.75 10.5 8.30228 10.5 7.75V6.25ZM0 11.5C0 10.9477 0.447715 10.5 1 10.5H2.5C3.05228 10.5 3.5 10.9477 3.5 11.5V13C3.5 13.5523 3.05228 14 2.5 14H1C0.447715 14 0 13.5523 0 13V11.5ZM5.25 11.5C5.25 10.9477 5.69772 10.5 6.25 10.5H7.75C8.30229 10.5 8.75 10.9477 8.75 11.5V13C8.75 13.5523 8.30228 14 7.75 14H6.25C5.69772 14 5.25 13.5523 5.25 13V11.5ZM10.5 11.5C10.5 10.9477 10.9477 10.5 11.5 10.5H13C13.5523 10.5 14 10.9477 14 11.5V13C14 13.5523 13.5523 14 13 14H11.5C10.9477 14 10.5 13.5523 10.5 13V11.5Z" fill="#4B4B4B"/>
</svg>
