<svg width="89" height="49" viewBox="0 0 89 49" fill="none" xmlns="http://www.w3.org/2000/svg">
<path d="M30 49V43.9254C30 43.9254 29.3035 41.988 28.6232 41.6866C27.8433 41.341 26.4493 41.3134 26.4493 41.3134C26.4493 41.3134 26.3655 40.5084 26.3043 40.194C26.1737 39.5224 25 39 25 39H5.43478C5.43478 39 4.30588 39.066 3.98551 39.7463C3.75087 40.2445 3.62319 41.3134 3.62319 41.3134C3.62319 41.3134 2.02029 40.9763 1.15942 41.5373C0.614119 41.8927 0.217391 43.1791 0.217391 43.1791L0 49H30Z" fill="#4B4B4B"/>
<path d="M19.3691 31.857C11.5111 30.1078 8.18841 28.9416 7.50932 28.5771L7 27.7025L9.03727 18.8102L10.2014 18.3H11.3656L11.5839 17.0609C11.5839 17.0609 10.3907 16.6615 9.98314 15.8218C9.98314 15.8218 9.54658 14.8743 10.2014 12.9792C10.5514 11.9664 12.8935 12.0317 12.8935 12.0317L13.2573 10.7197C13.2573 10.7197 11.8825 10.4355 11.7294 9.69932C11.3656 7.95002 12.3114 6.20073 13.4028 1.39017C13.515 0.895981 14.0694 0.224626 14.4942 0.0782016C15.0047 -0.097752 15.8767 0.0782016 15.8767 0.0782016C15.8767 0.0782016 24.8261 2.04615 27.6637 2.9208C28.2449 3.09995 28.7234 3.56149 28.6096 4.15989C28.0275 7.22115 26.5723 13.0521 26.5723 13.0521C26.5723 13.0521 25.9175 13.4895 24.244 13.4895L24.0985 14.2183C24.0985 14.5884 24.8261 15.1659 24.8261 15.1659L59.8962 22.819L61.6424 21.1426L65.2076 21.9444L65.5714 21.2155C67.6294 21.2155 69.8642 22.0902 69.8642 22.0902L69.7187 23.1106L71.2467 23.4021L71.5377 22.5275L75.9033 23.6937V24.7141L77.213 24.9328L77.7223 24.0581L81.8696 25.2243V26.2447H83.1065L83.543 25.443L87.6176 26.4634V28.3585L89 30.3264V33.0961L88.3452 35.5014L85.2893 37.5423L84.8527 39L80.4871 38.1254V37.032L79.323 36.8134L78.9592 37.688L74.5209 36.4489V35.5014L73.2839 35.2827L72.8474 36.0845L68.5546 35.2099V34.1165L67.2449 33.8979L66.8083 34.6996L62.37 33.6063V32.6588L59.2413 31.7842L58.2955 29.4518L23.5892 19.8306C23.5892 19.8306 22.2677 20.1613 22.3523 20.8511C22.4383 21.5528 23.9254 21.6002 23.8075 22.3088L23.0799 26.5363C23.0799 26.5363 22.5705 30.0349 21.8429 31.3468C21.4012 32.1435 19.3691 31.857 19.3691 31.857Z" fill="#4B4B4B"/>
</svg>
