<svg width="43" height="51" viewBox="0 0 43 51" fill="none" xmlns="http://www.w3.org/2000/svg">
<path d="M41.3243 43.6911C41.2353 42.8356 40.8834 42.0288 40.317 41.3817C39.7505 40.7345 38.9974 40.2789 38.1613 40.0774C34.4358 38.9941 30.6358 38.186 26.7918 37.6597V32.7289H16.0983V37.6597C12.2538 38.1785 8.4534 38.9838 4.72885 40.0688C3.89274 40.2702 3.13963 40.7259 2.57318 41.373C2.00673 42.0202 1.65481 42.827 1.56585 43.6824L1.11523 45.5022C7.46718 48.5137 14.4155 50.0568 21.4451 50.017C28.4746 50.0568 35.423 48.5137 41.7749 45.5022L41.3243 43.6911Z" fill="#AC8164"/>
<path d="M16.0983 32.7289V33.7601L20.4311 38.249C21.0733 38.9103 21.431 39.7969 21.4277 40.7187C21.4277 41.3232 21.6678 41.9028 22.0952 42.3303C22.5226 42.7577 23.1023 42.9978 23.7068 42.9978H24.1574C24.8469 42.9978 25.5082 42.7239 25.9957 42.2363C26.4832 41.7488 26.7571 41.0876 26.7571 40.3981V32.7202H16.0983V32.7289Z" fill="#A0775C"/>
<path d="M16.0982 32.7289V37.6597C15.4223 37.7377 14.781 37.8243 14.1484 37.9197C15.0227 41.5654 16.3686 45.0815 18.152 48.3792C18.9319 45.5889 18.0654 39.6182 17.7881 32.7289H16.0982Z" fill="#A0775C"/>
<path d="M25.3793 36.7585C25.8819 36.2385 26.3672 35.7619 26.8265 35.3199V31.8536H16.0983V35.3199C16.5576 35.7619 17.0428 36.2385 17.5454 36.7585C19.2093 38.4916 20.3531 38.145 21.4537 38.145C22.5542 38.145 23.6895 38.4916 25.3793 36.7585Z" fill="#A0775C"/>
<path d="M41.3243 43.691C41.2353 42.8356 40.8834 42.0288 40.317 41.3816C39.7505 40.7345 38.9974 40.2788 38.1613 40.0774C35.04 39.1948 31.8758 38.4717 28.681 37.9109C28.8922 40.4018 28.3047 42.8952 27.0037 45.0298C25.7027 47.1644 23.7558 48.8292 21.4451 49.783C19.1336 48.8303 17.1858 47.1658 15.8847 45.0309C14.5835 42.896 13.9966 40.402 14.2092 37.9109C11.0164 38.464 7.85482 39.1843 4.73752 40.0687C3.90141 40.2702 3.14829 40.7258 2.58185 41.373C2.0154 42.0201 1.66348 42.8269 1.57452 43.6823L1.11523 45.5021C7.46718 48.5136 14.4155 50.0567 21.4451 50.017C28.4746 50.0567 35.423 48.5136 41.7749 45.5021L41.3243 43.691Z" fill="#555555"/>
<path d="M41.3936 43.9683C40.8038 43.1268 39.9136 42.5437 38.9066 42.3392C35.5204 41.4167 32.0866 40.679 28.6203 40.1294C28.4153 42.241 27.639 44.2569 26.3749 45.9607C25.1108 47.6645 23.4065 48.9919 21.4451 49.8004C19.4831 48.9927 17.7783 47.6655 16.5141 45.9616C15.2499 44.2576 14.474 42.2413 14.2698 40.1294C10.8034 40.6819 7.3696 41.4225 3.9836 42.3478C2.97789 42.5556 2.08881 43.138 1.49653 43.977L1.11523 45.5022C7.46718 48.5136 14.4155 50.0567 21.4451 50.017C28.4746 50.0567 35.423 48.5136 41.7749 45.5022L41.3936 43.9683Z" fill="#444444"/>
<path d="M14.2091 37.9197C13.9992 40.4103 14.5873 42.9032 15.8881 45.0375C17.1889 47.1718 19.1351 48.8368 21.445 49.7918C23.7557 48.838 25.7026 47.1731 27.0036 45.0385C28.3046 42.904 28.8921 40.4105 28.6809 37.9197" stroke="#333333" stroke-width="1.5" stroke-linejoin="round"/>
<path d="M16.0983 39.6268V32.7289H26.7918V39.6268" stroke="#333333" stroke-width="1.5" stroke-linecap="round" stroke-linejoin="round"/>
<path d="M16.0983 37.6683C12.2538 38.1871 8.4534 38.9924 4.72885 40.0774C3.89274 40.2788 3.13963 40.7345 2.57318 41.3816C2.00673 42.0288 1.65481 42.8356 1.56585 43.691L1.11523 45.5022C7.46718 48.5136 14.4155 50.0567 21.4451 50.017C28.4746 50.0567 35.423 48.5136 41.7749 45.5022L41.3243 43.691C41.2353 42.8356 40.8834 42.0288 40.317 41.3816C39.7505 40.7345 38.9974 40.2788 38.1613 40.0774C34.4358 38.9941 30.6358 38.186 26.7918 37.6597" stroke="#333333" stroke-width="1.5" stroke-linejoin="round"/>
<path d="M32.6758 18.2224L30.0241 27.4254C28.6895 35.9699 24.2094 36.1778 24.2094 47.9286C24.2094 47.9286 28.1956 43.8644 29.2355 39.6961C29.8681 41.7413 30.1021 44.6443 29.2355 48.8645C35.2928 36.2645 34.9115 26.5415 32.6758 18.2224Z" fill="#333333" stroke="#333333" stroke-width="1.5" stroke-linecap="round" stroke-linejoin="round"/>
<path d="M31.5665 22.9366C32.4331 29.3319 24.7466 37.6684 23.0654 48.2059" stroke="#333333" stroke-width="2" stroke-linecap="round" stroke-linejoin="round"/>
<path d="M31.3413 29.7999C31.3413 29.7999 31.6619 38.7776 27.5717 46.1955" stroke="#333333" stroke-width="2" stroke-linecap="round" stroke-linejoin="round"/>
<path d="M21.4449 8.93274C28.7068 8.93274 30.9339 13.4996 30.9339 18.3957C30.9339 18.6817 30.9339 19.4616 30.9339 19.7476C32.5024 19.7476 32.8577 21.3854 32.6064 23.4565C32.3898 25.1897 31.7398 27.3821 30.0067 27.4254V28.292C30.0067 31.0044 27.8403 32.4169 25.3272 35.0426C23.6634 36.7758 22.5282 36.4292 21.4276 36.4292C20.3271 36.4292 19.1832 36.7758 17.5193 35.0426C14.9976 32.4429 12.8398 31.0131 12.8398 28.292C12.8398 27.8414 12.8398 27.2608 12.8398 27.4254C11.1587 27.3735 10.4741 25.2157 10.2401 23.4565C9.98882 21.3854 10.3528 19.7476 11.9126 19.7476V18.3957C11.9559 13.4996 14.183 8.93274 21.4449 8.93274Z" fill="#A88064"/>
<path d="M30.804 16.4373C30.2407 12.347 27.7277 8.93274 21.445 8.93274C14.1831 8.93274 11.956 13.4996 11.956 18.3957V19.7476C10.3962 19.7476 10.0235 21.3854 10.2835 23.4565C10.5002 25.1897 11.1501 27.3821 12.8832 27.4254C12.8832 27.3041 12.8832 27.8761 12.8832 28.292C12.8832 30.9871 15.015 32.3996 17.5194 34.9906C17.1988 27.5208 17.814 18.5691 24.452 12.2864C25.825 12.1529 27.2024 12.4914 28.3572 13.246C29.5119 14.0006 30.375 15.1263 30.804 16.4373Z" fill="#A0775C"/>
<path d="M30.934 19.7476C30.934 19.4616 30.934 18.6817 30.934 18.3957C30.934 13.5082 28.7069 8.93272 21.445 8.93272C20.6057 8.92685 19.7675 8.99645 18.9406 9.14069V18.465C18.939 18.9537 18.8366 19.4369 18.6398 19.8842C18.4429 20.3315 18.156 20.7334 17.7967 21.0648C17.7401 21.1129 17.6981 21.1759 17.6753 21.2466C17.6526 21.3174 17.6501 21.3931 17.6682 21.4652C17.6862 21.5373 17.724 21.6029 17.7773 21.6547C17.8307 21.7064 17.8974 21.7422 17.9701 21.758C18.3914 21.8575 18.7767 22.0723 19.0828 22.3784C19.3889 22.6845 19.6037 23.0698 19.7032 23.4912C19.7171 23.5642 19.7495 23.6325 19.7974 23.6894C19.8454 23.7463 19.9071 23.7899 19.9768 23.816C20.0464 23.8422 20.1216 23.8499 20.1951 23.8385C20.2686 23.8272 20.338 23.7971 20.3965 23.7511C20.5516 23.6211 20.7314 23.5238 20.9251 23.4652C20.991 23.4478 21.06 23.4459 21.1267 23.4596C21.1935 23.4733 21.2562 23.5023 21.3099 23.5442C21.3636 23.5862 21.4068 23.64 21.4363 23.7014C21.4658 23.7629 21.4806 23.8303 21.4797 23.8985V25.7616C21.4854 25.9437 21.5409 26.1208 21.6402 26.2736C21.7395 26.4264 21.8788 26.549 22.043 26.6282C22.5629 26.9141 22.1903 27.8934 21.4797 27.8934C21.1972 27.8979 20.9188 27.826 20.6738 27.6854C20.0065 27.3474 19.3826 28.032 19.5212 28.3007C19.6599 28.5693 19.8245 28.3007 20.5005 28.6126C20.7995 28.7792 21.1375 28.8629 21.4797 28.8553V32.1742C21.4816 32.2534 21.51 32.3297 21.5602 32.3909C21.6105 32.4522 21.6797 32.4948 21.757 32.5122C22.9442 32.7895 23.5768 34.7653 21.4797 35.1899C21.2217 35.2346 20.9876 35.3683 20.8182 35.5678C20.6488 35.7674 20.5547 36.02 20.5525 36.2818V36.5591C20.8731 36.5591 21.1851 36.5591 21.4884 36.5591C22.5889 36.5591 23.7241 36.9057 25.3879 35.1726C27.9097 32.5729 30.0674 31.1344 30.0674 28.422V27.5554C31.7486 27.5034 32.4245 25.3456 32.6672 23.5865C32.8578 21.3854 32.5025 19.7476 30.934 19.7476Z" fill="#A0775C"/>
<path d="M22.7102 11.6451C29.1489 12.0437 29.9374 16.6539 30.0241 20.9781C30.0261 21.0192 30.0413 21.0586 30.0674 21.0903C30.0936 21.1221 30.1294 21.1445 30.1694 21.1542C30.2093 21.164 30.2514 21.1605 30.2892 21.1444C30.3271 21.1283 30.3587 21.1003 30.3794 21.0647C30.7833 20.4096 31.2632 19.8046 31.8092 19.2623" stroke="#936B55" stroke-width="2.0856" stroke-linecap="round" stroke-linejoin="round"/>
<path d="M18.9405 9.14068V16.9399C18.13 18.4815 17.4405 20.0837 16.8781 21.732C17.2216 21.76 17.5631 21.8092 17.9006 21.8793C18.1996 21.9278 18.4909 22.0152 18.7672 22.1393C19.7289 18.4288 21.682 15.0498 24.4173 12.3643C28.0482 12.217 29.8593 14.0542 30.8299 16.4632C30.0933 11.2811 26.601 8.9327 21.4449 8.9327C20.6056 8.92693 19.7674 8.99653 18.9405 9.14068Z" fill="#936B55"/>
<path d="M21.4449 8.93274C28.7068 8.93274 30.9339 13.4996 30.9339 18.3957C30.9339 18.6817 30.9339 19.4616 30.9339 19.7476C32.5024 19.7476 32.8577 21.3854 32.6064 23.4565C32.3898 25.1897 31.7398 27.3821 30.0067 27.4254V28.292C30.0067 31.0044 27.8403 32.4169 25.3272 35.0426C23.6634 36.7758 22.5282 36.4292 21.4276 36.4292C20.3271 36.4292 19.1832 36.7758 17.5193 35.0426C14.9976 32.4429 12.8398 31.0131 12.8398 28.292C12.8398 27.8414 12.8398 27.2608 12.8398 27.4254C11.1587 27.3735 10.4741 25.2157 10.2401 23.4565C9.98882 21.3854 10.3528 19.7476 11.9126 19.7476V18.3957C11.9559 13.4996 14.183 8.93274 21.4449 8.93274Z" stroke="#333333" stroke-width="1.5" stroke-linejoin="round"/>
<path d="M14.7378 21.8794C15.5096 21.5862 16.33 21.4421 17.1555 21.4548C18.0017 21.4757 18.8341 21.6734 19.5993 22.0354C19.7038 22.0848 19.7845 22.1737 19.8235 22.2826C19.8625 22.3915 19.8567 22.5114 19.8072 22.616C19.7578 22.7205 19.6689 22.8012 19.56 22.8402C19.4511 22.8792 19.3312 22.8734 19.2266 22.8239H19.1746C18.5465 22.4185 17.8414 22.1471 17.1035 22.0267C16.3506 21.8799 15.572 21.9398 14.8504 22.2C14.8322 22.208 14.8126 22.2123 14.7928 22.2127C14.7729 22.2131 14.7531 22.2095 14.7346 22.2023C14.7161 22.195 14.6992 22.1842 14.6849 22.1705C14.6706 22.1567 14.6591 22.1402 14.6511 22.122C14.6432 22.1038 14.6388 22.0842 14.6385 22.0643C14.6381 22.0445 14.6416 22.0247 14.6488 22.0062C14.6561 21.9877 14.6669 21.9708 14.6807 21.9565C14.6944 21.9421 14.7109 21.9307 14.7291 21.9227L14.7378 21.8794Z" fill="#333333"/>
<path d="M27.9097 22.1653C27.1872 21.9092 26.4097 21.8494 25.6566 21.992C24.9187 22.1124 24.2136 22.3838 23.5855 22.7892C23.4891 22.8442 23.3753 22.8601 23.2676 22.8337C23.1598 22.8072 23.0663 22.7405 23.0063 22.6472C22.9463 22.5538 22.9244 22.4411 22.9451 22.3321C22.9658 22.2231 23.0275 22.1261 23.1175 22.0613H23.1695C23.9347 21.6994 24.7671 21.5016 25.6133 21.4807C26.4384 21.4723 27.2581 21.6162 28.031 21.9053C28.0504 21.9121 28.0682 21.9227 28.0834 21.9364C28.0987 21.9501 28.1111 21.9667 28.1199 21.9852C28.1288 22.0037 28.1339 22.0238 28.135 22.0443C28.1361 22.0648 28.1332 22.0853 28.1263 22.1046C28.1195 22.124 28.1089 22.1418 28.0952 22.157C28.0815 22.1723 28.0649 22.1847 28.0464 22.1936C28.0279 22.2024 28.0078 22.2075 27.9874 22.2086C27.9669 22.2097 27.9464 22.2068 27.927 22.2L27.9097 22.1653Z" fill="#333333"/>
<path d="M25.414 24.6784C25.7729 24.6784 26.0639 24.3874 26.0639 24.0285C26.0639 23.6695 25.7729 23.3785 25.414 23.3785C25.055 23.3785 24.764 23.6695 24.764 24.0285C24.764 24.3874 25.055 24.6784 25.414 24.6784Z" fill="#333333"/>
<path d="M17.3462 24.6784C17.7052 24.6784 17.9962 24.3874 17.9962 24.0285C17.9962 23.6695 17.7052 23.3785 17.3462 23.3785C16.9873 23.3785 16.6963 23.6695 16.6963 24.0285C16.6963 24.3874 16.9873 24.6784 17.3462 24.6784Z" fill="#333333"/>
<path d="M17.5801 1.71419L20.6738 3.534C16.4363 3.8633 13.8279 5.76109 8.28179 7.66756L20.6131 5.57911C10.6475 7.67622 10.6909 12.6937 3.51562 14.3315C9.86762 12.8323 9.85895 12.0004 12.7446 9.64335C1.88646 18.5084 8.31645 28.76 6.31466 42.3999C9.15492 39.3544 10.8648 35.427 11.1588 31.2731C11.931 36.6259 13.6195 41.8058 16.1503 46.5854C17.7015 41.048 11.4361 22.4167 22.7536 11.6538C29.7902 12.0958 30.0761 17.5552 30.0761 22.1827C30.1715 21.0215 31.0727 20.1289 31.8093 19.271C35.6049 15.0854 35.1889 1.13359 17.5801 1.71419Z" fill="#333333"/>
<path d="M17.8314 1.79217C18.9146 2.31211 19.8592 2.65874 20.7951 3.26535C20.8307 3.28667 20.8617 3.31489 20.8862 3.34834C20.9108 3.38179 20.9284 3.4198 20.9381 3.46015C20.9478 3.5005 20.9493 3.54237 20.9426 3.58332C20.9359 3.62427 20.9211 3.66347 20.8991 3.69863C20.8727 3.74017 20.837 3.77506 20.795 3.80061C20.7529 3.82615 20.7055 3.84167 20.6565 3.84595C18.5136 4.08417 16.4239 4.66954 14.4691 5.5791C12.4673 6.44568 10.4482 7.31225 8.40309 8.04017L8.21244 7.29492L20.5351 5.13715C20.6463 5.11616 20.7613 5.13861 20.8564 5.19987C20.9515 5.26114 21.0195 5.35655 21.0464 5.46645C21.0669 5.57777 21.043 5.69268 20.9798 5.78661C20.9167 5.88054 20.8193 5.94603 20.7085 5.96906C19.1525 6.30589 17.6299 6.78152 16.1589 7.39024C14.7106 8.02929 13.3482 8.84736 12.1034 9.82532C10.8468 10.7959 9.63363 11.9051 8.23844 12.8237C6.83337 13.7491 5.27097 14.4099 3.62826 14.7735C3.49855 14.8024 3.36269 14.7796 3.24945 14.7101C3.13622 14.6405 3.05452 14.5296 3.02166 14.4008C2.99269 14.2734 3.01449 14.1397 3.08244 14.0281C3.15038 13.9165 3.25913 13.8357 3.38562 13.8029C5.0696 13.4425 6.71715 12.9291 8.30777 12.2691C9.06474 11.9166 9.76789 11.4585 10.3962 10.9085C11.0461 10.3539 11.7047 9.74732 12.398 9.17538L13.0739 10.042C10.8692 11.7918 9.14063 14.0687 8.04779 16.6626C7.08647 19.3284 6.67381 22.1611 6.83459 24.9904C6.89525 27.8587 7.19855 30.7531 7.31121 33.6561C7.46103 36.5956 7.3421 39.5427 6.95591 42.4605L5.82936 41.9492C7.16376 40.4596 8.2652 38.7768 9.09635 36.9578C9.85635 35.1105 10.3326 33.1588 10.5089 31.1691C10.5272 31.0107 10.6032 30.8647 10.7222 30.7586C10.8412 30.6526 10.9951 30.594 11.1545 30.594C11.3139 30.594 11.4677 30.6526 11.5867 30.7586C11.7058 30.8647 11.7817 31.0107 11.8001 31.1691C12.5573 36.4406 14.2196 41.5418 16.7135 46.2475L15.5263 46.3861C15.7897 44.9576 15.8538 43.4994 15.717 42.0532C15.639 40.5367 15.5177 39.0116 15.4137 37.4777C15.1637 34.3961 15.1261 31.3009 15.301 28.214C15.4679 25.0902 16.1108 22.0101 17.2075 19.0803C18.3366 16.125 20.1133 13.4601 22.4069 11.2812C22.4574 11.2328 22.5173 11.1955 22.583 11.1717C22.6486 11.1478 22.7185 11.1379 22.7882 11.1425C24.0795 11.2017 25.3461 11.5169 26.5145 12.0697C27.7061 12.6629 28.6819 13.6145 29.3049 14.7908C29.86 15.9444 30.2006 17.1895 30.3101 18.4651C30.4395 19.6998 30.4916 20.9414 30.4661 22.1827H29.5995C29.7815 20.5189 31.1073 19.5829 31.8266 18.6124C32.553 17.5298 33.016 16.2923 33.1785 14.9988C33.6016 12.4027 33.049 9.74187 31.6273 7.52889C30.1198 5.35238 27.9163 3.75396 25.3793 2.99671C24.1202 2.56878 22.8186 2.27823 21.497 2.13013C20.844 2.05291 20.1874 2.00952 19.5299 2.00015C19.1746 2.00015 18.8973 2.00015 18.6633 2.00015C18.4294 2.00015 18.1607 1.84416 17.8314 1.79217ZM17.2595 1.64485C17.6061 1.58419 17.9961 1.4802 18.4294 1.43687C18.8128 1.40288 19.1985 1.40288 19.5819 1.43687C20.2655 1.44855 20.9481 1.49483 21.627 1.57553C22.9935 1.72597 24.3408 2.01636 25.6479 2.4421C28.3376 3.21165 30.6868 4.87046 32.3119 7.1476C33.857 9.50846 34.4743 12.3574 34.045 15.1461C33.8601 16.5568 33.3466 17.9043 32.5459 19.0803C32.0952 19.6869 31.6186 20.1202 31.2287 20.6315C30.8403 21.0793 30.5905 21.6302 30.5094 22.2173C30.4893 22.3174 30.4351 22.4075 30.3562 22.4722C30.2772 22.5369 30.1782 22.5722 30.0761 22.5722C29.974 22.5722 29.8751 22.5369 29.7961 22.4722C29.7171 22.4075 29.663 22.3174 29.6428 22.2173C29.6523 21.0132 29.5915 19.8095 29.4609 18.6124C29.3407 17.4526 29.0088 16.3247 28.4816 15.2847C27.9484 14.2869 27.1104 13.4854 26.0899 12.997C25.0354 12.5141 23.8954 12.246 22.7362 12.2084L23.1175 12.0697C20.9667 14.1578 19.3063 16.6973 18.256 19.505C17.2404 22.3393 16.6561 25.3101 16.5229 28.318C16.3731 31.3543 16.431 34.3973 16.6962 37.4257C16.8089 38.9509 16.9389 40.4761 17.0255 42.0186C17.0255 42.7898 17.1035 43.5697 17.0862 44.3583C17.0595 45.1734 16.9344 45.9823 16.7135 46.7674C16.6925 46.8495 16.6552 46.9264 16.6039 46.9938C16.5525 47.0612 16.4882 47.1176 16.4146 47.1596C16.3411 47.2016 16.2598 47.2284 16.1757 47.2385C16.0916 47.2485 16.0063 47.2416 15.925 47.218C15.7581 47.1717 15.6155 47.0631 15.5263 46.9147C12.953 42.0728 11.2378 36.8217 10.4569 31.3944H11.7481C11.5561 33.5035 11.0478 35.5718 10.2402 37.5297C9.36644 39.4664 8.19706 41.2555 6.77393 42.8331C6.66344 42.9501 6.51301 43.0213 6.35248 43.0326C6.19195 43.0438 6.03306 42.9943 5.90735 42.8938C5.82638 42.8222 5.76426 42.7318 5.72648 42.6306C5.6887 42.5293 5.67641 42.4203 5.69071 42.3132C6.08826 39.4749 6.2217 36.6058 6.08933 33.7428C5.99401 30.8658 5.70804 27.9714 5.66471 25.077C5.5145 22.093 5.97145 19.1096 7.0079 16.3073C8.17429 13.5327 10.0223 11.0975 12.3807 9.22738C12.4956 9.13775 12.6414 9.09743 12.786 9.11531C12.9307 9.13319 13.0623 9.20779 13.1519 9.3227C13.2416 9.43762 13.2819 9.58343 13.264 9.72807C13.2461 9.87271 13.1715 10.0043 13.0566 10.094C12.3807 10.6312 11.7481 11.2205 11.0548 11.8271C10.3527 12.4097 9.57422 12.8937 8.74105 13.2656C7.08412 13.9507 5.36654 14.4787 3.61093 14.8428L3.38562 13.8636C4.92682 13.5381 6.39536 12.9331 7.7185 12.0784C9.03569 11.2118 10.2316 10.1459 11.5401 9.14072C12.8528 8.1243 14.2881 7.27707 15.8123 6.61899C17.3404 5.99707 18.9209 5.51275 20.5351 5.17181L20.6998 6.03838L8.30777 8.06617C8.25762 8.0748 8.20625 8.07331 8.15669 8.06177C8.10713 8.05024 8.06038 8.02891 8.01919 7.99903C7.97801 7.96915 7.94322 7.93132 7.91687 7.88779C7.89053 7.84425 7.87317 7.79589 7.86581 7.74554C7.84916 7.65516 7.86649 7.56181 7.91447 7.48344C7.96246 7.40506 8.03772 7.34718 8.12579 7.32092C10.1796 6.62766 12.1814 5.77841 14.1918 4.93784C16.2171 4.01306 18.3806 3.42754 20.5958 3.20469L20.4571 3.79396C19.3133 3.16136 18.2387 2.33811 17.2595 1.64485Z" fill="#333333"/>
<path d="M27.979 8.76807C9.88497 9.25335 14.5905 18.2224 1.92114 23.4998" stroke="#333333" stroke-width="2" stroke-linecap="round" stroke-linejoin="round"/>
<path d="M32.4592 19.6782C33.5386 17.4191 33.927 14.8916 33.5755 12.4126C33.224 9.93366 32.1483 7.61369 30.4834 5.74372C25.1799 0.440285 18.4466 3.37797 13.3079 1.13354" stroke="#333333" stroke-width="2" stroke-linecap="round" stroke-linejoin="round"/>
<path d="M28.1956 4.71251C18.2473 2.54607 16.4362 5.31911 8.2644 8.12681" stroke="#333333" stroke-width="2" stroke-linecap="round" stroke-linejoin="round"/>
<path d="M20.665 6.02972C10.6474 8.12684 10.7427 13.1443 3.5675 14.7821" stroke="#333333" stroke-width="2" stroke-linecap="round" stroke-linejoin="round"/>
<path d="M15.327 16.6712C10.0701 24.4905 6.79824 33.4732 5.79468 42.8418" stroke="#333333" stroke-width="2" stroke-linecap="round" stroke-linejoin="round"/>
<path d="M9.78096 27.0788C7.98635 31.4844 6.72941 36.0902 6.03735 40.7967" stroke="#3F3F3F" stroke-miterlimit="10" stroke-linecap="round" stroke-dasharray="1.75 1.17"/>
<path d="M13.5419 18.5084C8.04777 22.9106 6.65259 27.0181 1.5658 30.3718" stroke="#333333" stroke-width="2" stroke-linecap="round" stroke-linejoin="round"/>
<path d="M10.2142 32.2263C10.2662 35.9699 10.0063 43.4917 7.72717 46.2648" stroke="#333333" stroke-width="2" stroke-linecap="round" stroke-linejoin="round"/>
<path d="M12.3807 28.7513C12.4327 32.4949 11.1415 37.573 12.1554 45.6322" stroke="#333333" stroke-width="2" stroke-linecap="round" stroke-linejoin="round"/>
<path d="M16.1675 47.062C17.5801 35.0859 8.9663 24.8257 22.7102 10.3105" stroke="#222222" stroke-width="2" stroke-linecap="round" stroke-linejoin="round"/>
<path d="M16.1675 47.062C17.5801 35.0859 8.9663 24.8257 22.7102 10.3105" stroke="#333333" stroke-width="2" stroke-linecap="round" stroke-linejoin="round"/>
<path d="M16.1069 46.5767C16.8522 34.4447 9.36497 19.7129 26.1679 8.11816" stroke="#3F3F3F" stroke-miterlimit="10" stroke-linecap="round" stroke-dasharray="1.75 1.17"/>
<path d="M12.216 28.24C12.0673 30.9846 12.1252 33.7365 12.3894 36.4725" stroke="#3F3F3F" stroke-miterlimit="10" stroke-linecap="round" stroke-dasharray="1.75 1.17"/>
<path d="M25.674 6.09033C24.3135 9.40931 16.055 11.4804 12.6234 24.4357" stroke="#3F3F3F" stroke-miterlimit="10" stroke-linecap="round" stroke-dasharray="1.75 1.17"/>
<path d="M32.6064 14.7734C36.6967 27.1308 35.7781 34.8606 33.3604 45.9181" stroke="#333333" stroke-width="2" stroke-linecap="round" stroke-linejoin="round"/>
<path d="M31.8092 35.6666C30.83 38.1016 29.4695 41.0913 27.5717 45.0776" stroke="#3F3F3F" stroke-miterlimit="10" stroke-linecap="round" stroke-dasharray="1.75 1.17"/>
<path d="M19.5732 28.5779C20.4398 28.5779 20.4398 29.2885 21.3844 29.2885C22.329 29.2885 22.251 28.5779 23.1955 28.5779" stroke="#9C6F57" stroke-width="0.3823" stroke-miterlimit="10" stroke-linecap="round"/>
<path d="M21.3843 29.2886V29.7305" stroke="#9C6F57" stroke-width="0.5214" stroke-miterlimit="10" stroke-linecap="round"/>
<path d="M19.5039 32.2349C19.8909 32.5807 20.398 32.7611 20.9164 32.7375H21.783C22.3412 32.7493 22.8842 32.5549 23.3082 32.1916" stroke="#A3775D" stroke-width="0.75" stroke-miterlimit="10" stroke-linecap="round"/>
<path d="M23.2562 27.6681C23.3854 27.6681 23.4902 27.5633 23.4902 27.4341C23.4902 27.3049 23.3854 27.2001 23.2562 27.2001C23.127 27.2001 23.0222 27.3049 23.0222 27.4341C23.0222 27.5633 23.127 27.6681 23.2562 27.6681Z" fill="#936D58" stroke="#936D58" stroke-width="0.5214" stroke-miterlimit="10"/>
<path d="M23.2562 27.4341C23.3997 27.3728 23.5571 27.3513 23.7119 27.3721C23.8666 27.3928 24.0128 27.455 24.1351 27.552C24.2574 27.649 24.3513 27.7772 24.4067 27.9231C24.4622 28.069 24.4772 28.2272 24.4502 28.381C24.4232 28.5347 24.3551 28.6783 24.2532 28.7966C24.1513 28.9148 24.0194 29.0034 23.8713 29.0529C23.7233 29.1023 23.5646 29.1109 23.4121 29.0776C23.2596 29.0444 23.1189 28.9706 23.0048 28.8639C22.901 28.7596 22.8237 28.6318 22.7795 28.4913" stroke="#DBB61B" stroke-width="0.5214" stroke-miterlimit="10" stroke-linecap="round"/>
<path d="M19.5732 28.3527C20.4398 28.3527 20.4398 28.8033 21.3844 28.8033C22.329 28.8033 22.251 28.3527 23.1955 28.3527" stroke="#674848" stroke-width="0.75" stroke-miterlimit="10" stroke-linecap="round"/>
<path d="M26.8438 37.157C25.3905 40.4103 24.191 43.771 23.2562 47.2093" stroke="#3F3F3F" stroke-miterlimit="10" stroke-linecap="round" stroke-dasharray="1.75 1.17"/>
<path d="M3.5675 36.1779C8.351 25.233 2.25898 6.593 20.665 6.02972" stroke="#333333" stroke-width="2" stroke-linecap="round" stroke-linejoin="round"/>
<path d="M3.50696 35.6665C7.5452 26.4375 4.37353 12.0351 15.3877 6.203" stroke="#3F3F3F" stroke-miterlimit="10" stroke-linecap="round" stroke-dasharray="1.75 1.17"/>
<path d="M18.7847 30.9784L18.3514 31.845" stroke="#936B55" stroke-width="0.5" stroke-miterlimit="10" stroke-linecap="round"/>
<path d="M23.9841 30.9784L24.4174 31.845" stroke="#936B55" stroke-width="0.5" stroke-miterlimit="10" stroke-linecap="round"/>
<path d="M22.0603 30.3718C21.8506 30.4788 21.6197 30.538 21.3844 30.5451C21.2111 30.5451 21.1937 30.5451 20.7951 30.3718C20.1019 30.0945 20.0585 30.9437 18.776 31.4117L19.5732 32.2263C19.7542 32.3915 19.966 32.5195 20.1965 32.6027C20.427 32.686 20.6716 32.723 20.9164 32.7116H21.783C22.3128 32.721 22.8276 32.5361 23.2302 32.1916L23.9755 31.4117C22.7796 30.9697 22.7796 30.0945 22.0603 30.3718Z" fill="#925140"/>
<path d="M23.9841 31.4117C23.1175 31.4117 22.6929 30.9871 21.3844 31.4117C20.1019 30.9784 19.6512 31.4117 18.7847 31.4117" stroke="#743F40" stroke-width="0.5" stroke-miterlimit="10" stroke-linecap="round"/>
</svg>
