<svg width="54" height="61" viewBox="0 0 54 61" fill="none" xmlns="http://www.w3.org/2000/svg">
<path d="M43.1001 32.383C48.3301 17.613 41.5201 0.492988 30.1001 2.88299C18.7001 -4.59701 4.05007 11.343 10.0001 30.683C9.00007 41.003 19.6601 43.553 26.8101 45.213C27.0001 45.273 45.5201 42.003 43.1001 32.383Z" fill="#EADDC7"/>
<path d="M43.1 32.383C47.51 18.773 39.2 4.00298 29.57 6.21298C20 -0.677019 7.61004 14.003 12.63 31.823C11.76 41.323 20.77 43.683 26.8 45.213C27 45.263 44.89 42.223 43.1 32.383Z" fill="#CCBBA3"/>
<path d="M51.9 50.083C51.26 47.563 49.52 45.213 47 44.583C44.48 43.953 37.75 42.303 37 42.083C32.28 40.633 33.15 38.983 33.15 35.813H20.4C20.4 38.713 21.18 40.813 16.99 42.093C16.43 42.263 9.51 43.803 6.9 44.583C5.66825 45 4.56293 45.7236 3.68817 46.6859C2.81342 47.6481 2.19804 48.8172 1.9 50.083L1 53.883C9.06642 57.6903 17.8802 59.6512 26.8 59.623C35.7797 59.6515 44.6558 57.7056 52.8 53.923L51.9 50.083Z" fill="#EDCCC3"/>
<path d="M29.4399 48.283H33.7999C34.6456 48.2625 35.4507 47.916 36.047 47.316C36.6433 46.716 36.9847 45.9088 36.9999 45.063L36.8299 42.003C32.3799 40.563 33.2099 38.923 33.2099 35.803H20.3999C20.3999 36.223 20.3999 36.623 20.3999 37.013L25.5799 42.563C26.3406 43.4044 26.7612 44.4987 26.7599 45.633C26.7558 45.9847 26.8225 46.3336 26.9561 46.6589C27.0897 46.9843 27.2875 47.2794 27.5376 47.5267C27.7877 47.774 28.085 47.9684 28.4118 48.0983C28.7386 48.2283 29.0883 48.2911 29.4399 48.283Z" fill="#E5C2BA"/>
<path d="M37 42.083L47 44.583C49.52 45.213 51.26 47.583 51.9 50.083L52.8 53.923C44.6558 57.7056 35.7797 59.6516 26.8 59.623C17.8802 59.6512 9.06642 57.6903 1 53.883L1.9 50.083C2.19978 48.818 2.81578 47.6498 3.69029 46.6878C4.5648 45.7259 5.66919 45.0016 6.9 44.583C9.62 43.773 16.9 42.083 16.9 42.083C16.9 42.083 18.44 48.003 26.8 48.003C35.16 48.003 37 42.083 37 42.083Z" fill="#E2EBED"/>
<path d="M52.8 53.923L52.16 51.203C51.7291 50.3415 51.1217 49.5802 50.3775 48.9686C49.6333 48.357 48.7687 47.9088 47.84 47.653C46.56 47.343 40.93 45.893 35.55 44.493C34.14 46.133 31.5 48.003 26.8 48.003C22.3 48.003 19.8 46.283 18.42 44.703C13 46.003 7.43 47.273 6.07 47.653C5.12202 47.9389 4.23993 48.4095 3.47451 49.0376C2.70908 49.6657 2.07543 50.439 1.61 51.313L1 53.883C9.06642 57.6903 17.8802 59.6512 26.8 59.623C35.7802 59.6564 44.6574 57.7103 52.8 53.923Z" fill="#CCE4EA"/>
<path d="M32 37.503C33.3013 37.0537 34.4549 36.2573 35.3362 35.1997C36.2174 34.1422 36.7928 32.8639 37 31.503C37.8483 30.982 38.5853 30.2986 39.1688 29.4921C39.7522 28.6855 40.1707 27.7717 40.4 26.803C40.8281 25.362 40.7931 23.823 40.3 22.403C40.1 21.903 39.8 21.403 39.1 21.503C39.1 11.603 33.6 7.30298 27 7.30298C20.4 7.30298 14.9 11.603 14.9 21.503C14.2 21.403 13.9 21.903 13.7 22.403C13.2069 23.823 13.172 25.362 13.6 26.803C13.8294 27.7717 14.2478 28.6855 14.8313 29.4921C15.4148 30.2986 16.1518 30.982 17 31.503C17.2073 32.8639 17.7826 34.1422 18.6639 35.1997C19.5452 36.2573 20.6988 37.0537 22 37.503C23.3422 38.7983 25.1347 39.5222 27 39.5222C28.8653 39.5222 30.6579 38.7983 32 37.503Z" fill="#EDCCC3"/>
<path d="M26.11 13.423C32.53 14.123 30.62 21.953 39.89 28.213C40.0982 27.7587 40.2655 27.2869 40.39 26.803C40.8181 25.362 40.7831 23.823 40.29 22.403C40.09 21.903 39.79 21.403 39.09 21.503C39.09 11.603 33.59 7.30298 26.99 7.30298C20.39 7.30298 14.89 11.603 14.89 21.503C14.19 21.403 13.94 21.923 13.69 22.403C13.14 23.6613 13.0001 25.0607 13.29 26.403C23.6 22.693 25.1 14.543 26.11 13.423Z" fill="#E5C2BA"/>
<path d="M13.1399 21.603C14.0969 21.7817 14.9687 22.27 15.621 22.9928C16.2733 23.7156 16.67 24.6327 16.7499 25.603V20.143L13.1399 21.603Z" fill="#333333" stroke="#333333" stroke-linecap="round" stroke-linejoin="round"/>
<path d="M39.1 21.503C39.1 11.603 33.6 7.30298 27 7.30298C25.9906 7.30641 24.9846 7.42042 24 7.64298V18.133C23.9936 18.6762 23.8738 19.2121 23.6482 19.7064C23.4226 20.2006 23.0963 20.6422 22.69 21.003C22.6297 21.0582 22.5855 21.1288 22.5622 21.2073C22.539 21.2857 22.5376 21.369 22.5582 21.4482C22.5787 21.5274 22.6205 21.5995 22.679 21.6567C22.7374 21.7139 22.8104 21.7541 22.89 21.773C23.3445 21.8862 23.7597 22.121 24.0909 22.4522C24.4221 22.7834 24.6568 23.1985 24.77 23.653C24.7874 23.7329 24.8245 23.8072 24.878 23.8691C24.9315 23.9311 24.9996 23.9786 25.0762 24.0074C25.1527 24.0363 25.2353 24.0455 25.3163 24.0342C25.3973 24.023 25.4742 23.9916 25.54 23.943C25.7112 23.8004 25.9081 23.6917 26.12 23.623C26.1927 23.6046 26.2687 23.6032 26.342 23.6188C26.4154 23.6344 26.4842 23.6666 26.5431 23.713C26.602 23.7593 26.6495 23.8186 26.6819 23.8862C26.7143 23.9538 26.7308 24.028 26.73 24.103V26.783C26.7402 26.9807 26.803 27.1722 26.912 27.3374C27.021 27.5027 27.1723 27.6358 27.35 27.723C28.41 28.303 27.07 29.133 26.73 29.133C26.4108 29.146 26.0947 29.0661 25.82 28.903C25.08 28.533 24.39 29.293 24.55 29.583C24.71 29.873 24.89 29.583 25.63 29.933C25.9731 30.1009 26.3482 30.193 26.73 30.203V34.643C26.7337 34.7231 26.7615 34.8003 26.8096 34.8645C26.8578 34.9287 26.9241 34.977 27 35.003C28.31 35.313 29 37.493 26.69 38.003C26.411 38.058 26.1594 38.2073 25.9773 38.4257C25.7953 38.6442 25.6938 38.9186 25.69 39.203V39.403C26.1214 39.4888 26.5602 39.5324 27 39.533C28.8627 39.5382 30.6548 38.8213 32 37.533C33.3013 37.0837 34.4549 36.2873 35.3362 35.2297C36.2174 34.1722 36.7928 32.8939 37 31.533C37.8483 31.012 38.5853 30.3286 39.1688 29.5221C39.7522 28.7155 40.1707 27.8017 40.4 26.833C40.8281 25.392 40.7931 23.853 40.3 22.433C40.1 21.903 39.8 21.403 39.1 21.503Z" fill="#E5C2BA"/>
<path d="M40.66 24.163C40.3231 23.3861 39.7775 22.7178 39.0838 22.2324C38.39 21.7469 37.5752 21.4633 36.73 21.413C36.73 21.093 36.73 19.733 36.73 19.413C36.73 14.003 34.73 8.903 26.73 8.903C25.8011 8.89506 24.8736 8.97543 23.96 9.143V17.723C24.7708 16.3387 25.489 14.9022 26.11 13.423C33.58 14.173 31 21.553 40.16 27.353C40.4826 26.3201 40.6511 25.2451 40.66 24.163Z" fill="#DBB5AF"/>
<path d="M40.33 21.603C39.3729 21.7817 38.5011 22.27 37.8489 22.9928C37.1966 23.7156 36.7999 24.6327 36.72 25.603V20.143L40.33 21.603Z" fill="#333333" stroke="#333333" stroke-linecap="round" stroke-linejoin="round"/>
<path d="M20.4001 37.003C20.4001 39.663 20.4501 41.003 15.1001 42.503" stroke="#333333" stroke-width="1.5" stroke-linecap="round" stroke-linejoin="round"/>
<path d="M33.6001 37.003C33.6001 39.663 33.5501 41.003 38.9001 42.503" stroke="#333333" stroke-width="1.5" stroke-linecap="round" stroke-linejoin="round"/>
<path d="M21.71 25.043C22.1242 25.043 22.46 24.7072 22.46 24.293C22.46 23.8788 22.1242 23.543 21.71 23.543C21.2957 23.543 20.96 23.8788 20.96 24.293C20.96 24.7072 21.2957 25.043 21.71 25.043Z" fill="#333333"/>
<path d="M23.8199 24.463C23.2099 24.183 21.5599 22.403 19.8199 24.463C19.5604 24.375 19.3196 24.2394 19.1099 24.063C20.0029 23.5031 21.0776 23.3097 22.1099 23.523" fill="#333333"/>
<path d="M23.8199 24.463C23.2099 24.183 21.5599 22.403 19.8199 24.463C19.5604 24.375 19.3196 24.2394 19.1099 24.063C20.0029 23.5031 21.0776 23.3097 22.1099 23.523" stroke="#333333" stroke-width="0.5036" stroke-miterlimit="10" stroke-linecap="round"/>
<path d="M31.76 25.043C32.1742 25.043 32.51 24.7072 32.51 24.293C32.51 23.8788 32.1742 23.543 31.76 23.543C31.3458 23.543 31.01 23.8788 31.01 24.293C31.01 24.7072 31.3458 25.043 31.76 25.043Z" fill="#333333"/>
<path d="M29.6499 24.463C30.2599 24.183 31.9099 22.403 33.6499 24.463C33.9094 24.375 34.1502 24.2394 34.3599 24.063C33.4668 23.5031 32.3921 23.3097 31.3599 23.523" fill="#333333"/>
<path d="M29.6499 24.463C30.2599 24.183 31.9099 22.403 33.6499 24.463C33.9094 24.375 34.1502 24.2394 34.3599 24.063C33.4668 23.5031 32.3921 23.3097 31.3599 23.523" stroke="#333333" stroke-width="0.5036" stroke-miterlimit="10" stroke-linecap="round"/>
<path d="M34.5999 22.003C33.7489 21.8279 32.8646 21.9222 32.0699 22.273C31.6599 22.413 31.2499 22.593 30.8199 22.753C30.3605 22.9478 29.8755 23.0758 29.3799 23.133C29.3079 23.1526 29.2325 23.1563 29.159 23.1437C29.0855 23.131 29.0157 23.1024 28.9544 23.0599C28.8932 23.0173 28.842 22.9619 28.8045 22.8974C28.767 22.8329 28.7441 22.761 28.7374 22.6867C28.7307 22.6125 28.7404 22.5376 28.7658 22.4675C28.7912 22.3973 28.8316 22.3336 28.8843 22.2808C28.937 22.228 29.0006 22.1874 29.0707 22.1619C29.1407 22.1363 29.2156 22.1265 29.2899 22.133H29.3799C29.7852 22.1332 30.1887 22.0794 30.5799 21.973C31.0099 21.873 31.4499 21.753 31.9099 21.663C32.828 21.4531 33.7817 21.4531 34.6999 21.663C34.7463 21.6749 34.786 21.7048 34.8104 21.746C34.8348 21.7873 34.8418 21.8366 34.8299 21.883C34.8179 21.9294 34.788 21.9692 34.7468 21.9935C34.7055 22.0179 34.6563 22.0249 34.6099 22.013C34.6099 22.013 34.6099 22.003 34.5999 22.003Z" fill="#333333"/>
<path d="M18.77 21.613C19.687 21.3937 20.6429 21.3937 21.56 21.613C22.01 21.703 22.46 21.823 22.89 21.923C23.2811 22.0294 23.6846 22.0832 24.09 22.083C24.1625 22.064 24.2383 22.0613 24.312 22.0749C24.3857 22.0886 24.4555 22.1184 24.5163 22.1621C24.5772 22.2058 24.6277 22.2624 24.6643 22.3279C24.7008 22.3933 24.7225 22.466 24.7277 22.5408C24.7329 22.6156 24.7216 22.6906 24.6946 22.7605C24.6675 22.8304 24.6254 22.8934 24.5712 22.9452C24.517 22.997 24.452 23.0362 24.3809 23.06C24.3099 23.0838 24.2344 23.0916 24.16 23.083H24.08C23.5847 23.0233 23.1001 22.8954 22.64 22.703L21.39 22.223C20.5928 21.8911 19.7125 21.8143 18.87 22.003C18.8464 22.0147 18.8206 22.0212 18.7943 22.0218C18.768 22.0225 18.7418 22.0174 18.7177 22.0069C18.6936 21.9964 18.672 21.9807 18.6546 21.961C18.6372 21.9412 18.6244 21.9179 18.6169 21.8927C18.6095 21.8674 18.6077 21.8409 18.6117 21.8149C18.6156 21.7888 18.6252 21.764 18.6398 21.7421C18.6544 21.7202 18.6736 21.7018 18.6961 21.6881C18.7186 21.6744 18.7438 21.6658 18.77 21.663V21.613Z" fill="#333333"/>
<path d="M24.75 30.063C25.75 30.063 25.75 30.573 26.75 30.573C27.75 30.573 27.75 30.063 28.75 30.063" stroke="#D8B5AF" stroke-width="0.5" stroke-miterlimit="10" stroke-linecap="round"/>
<path d="M26.75 30.573V31.163" stroke="#D8B5AF" stroke-width="0.5" stroke-miterlimit="10" stroke-linecap="round"/>
<path d="M24.73 34.213C25.156 34.5978 25.7165 34.799 26.29 34.773H27.29C27.9069 34.7815 28.5065 34.5686 28.98 34.173" stroke="#D8B5AF" stroke-width="0.5" stroke-miterlimit="10" stroke-linecap="round"/>
<path d="M23.8 32.543L23.3 33.543" stroke="#D8B5AF" stroke-width="0.5" stroke-miterlimit="10" stroke-linecap="round"/>
<path d="M29.8 32.543L30.3 33.543" stroke="#D8B5AF" stroke-width="0.5" stroke-miterlimit="10" stroke-linecap="round"/>
<path d="M27.58 31.833C27.338 31.9564 27.0716 32.0247 26.8 32.033C26.6 32.033 26.58 32.033 26.12 31.833C25.32 31.513 25.27 32.493 23.79 33.033L24.71 33.973C24.9189 34.1637 25.1633 34.3113 25.4293 34.4074C25.6952 34.5035 25.9775 34.5462 26.26 34.533H27.26C27.8713 34.5439 28.4655 34.3305 28.93 33.933L29.79 33.033C28.38 32.523 28.38 31.523 27.58 31.833Z" fill="#A56659"/>
<path d="M29.79 33.003C28.79 33.003 28.3 32.513 26.79 33.003C25.31 32.503 24.79 33.003 23.79 33.003" stroke="#743F40" stroke-width="0.5" stroke-miterlimit="10" stroke-linecap="round"/>
<path d="M32 37.503C33.3013 37.0537 34.4549 36.2573 35.3362 35.1997C36.2174 34.1422 36.7928 32.8639 37 31.503C37.8483 30.982 38.5853 30.2986 39.1688 29.4921C39.7522 28.6855 40.1707 27.7717 40.4 26.803C40.8281 25.362 40.7931 23.823 40.3 22.403C40.1 21.903 39.8 21.403 39.1 21.503C39.1 11.603 33.6 7.30298 27 7.30298C20.4 7.30298 14.9 11.603 14.9 21.503C14.2 21.403 13.9 21.903 13.7 22.403C13.2069 23.823 13.172 25.362 13.6 26.803C13.8294 27.7717 14.2478 28.6855 14.8313 29.4921C15.4148 30.2986 16.1518 30.982 17 31.503C17.2073 32.8639 17.7826 34.1422 18.6639 35.1997C19.5452 36.2573 20.6988 37.0537 22 37.503C23.3422 38.7983 25.1347 39.5222 27 39.5222C28.8653 39.5222 30.6579 38.7983 32 37.503V37.503Z" stroke="#333333" stroke-width="1.5" stroke-linecap="round" stroke-linejoin="round"/>
<path d="M37 42.083L47 44.583C49.52 45.213 51.26 47.583 51.9 50.083L52.8 53.923C44.6558 57.7056 35.7797 59.6516 26.8 59.623C17.8802 59.6512 9.06642 57.6903 1 53.883L1.9 50.083C2.19978 48.818 2.81578 47.6498 3.69029 46.6878C4.5648 45.7259 5.66919 45.0016 6.9 44.583C9.62 43.773 16.9 42.083 16.9 42.083C16.9 42.083 18.44 48.003 26.8 48.003C35.16 48.003 37 42.083 37 42.083Z" stroke="#333333" stroke-width="1.5" stroke-linecap="round" stroke-linejoin="round"/>
<path d="M26.8 50.683C27.9046 50.683 28.8 49.7876 28.8 48.683C28.8 47.5784 27.9046 46.683 26.8 46.683C25.6955 46.683 24.8 47.5784 24.8 48.683C24.8 49.7876 25.6955 50.683 26.8 50.683Z" fill="white" stroke="#333333" stroke-width="1.5" stroke-linecap="round" stroke-linejoin="round"/>
<path d="M21.8 49.183C22.9046 49.183 23.8 48.2876 23.8 47.183C23.8 46.0784 22.9046 45.183 21.8 45.183C20.6955 45.183 19.8 46.0784 19.8 47.183C19.8 48.2876 20.6955 49.183 21.8 49.183Z" fill="white" stroke="#333333" stroke-width="1.5" stroke-linecap="round" stroke-linejoin="round"/>
<path d="M17.3 46.183C18.4046 46.183 19.3 45.2876 19.3 44.183C19.3 43.0784 18.4046 42.183 17.3 42.183C16.1955 42.183 15.3 43.0784 15.3 44.183C15.3 45.2876 16.1955 46.183 17.3 46.183Z" fill="white" stroke="#333333" stroke-width="1.5" stroke-linecap="round" stroke-linejoin="round"/>
<path d="M31.8 49.183C32.9046 49.183 33.8 48.2876 33.8 47.183C33.8 46.0784 32.9046 45.183 31.8 45.183C30.6955 45.183 29.8 46.0784 29.8 47.183C29.8 48.2876 30.6955 49.183 31.8 49.183Z" fill="white" stroke="#333333" stroke-width="1.5" stroke-linecap="round" stroke-linejoin="round"/>
<path d="M36.3 46.183C37.4046 46.183 38.3 45.2876 38.3 44.183C38.3 43.0784 37.4046 42.183 36.3 42.183C35.1955 42.183 34.3 43.0784 34.3 44.183C34.3 45.2876 35.1955 46.183 36.3 46.183Z" fill="white" stroke="#333333" stroke-width="1.5" stroke-linecap="round" stroke-linejoin="round"/>
<path d="M30.0999 2.88298C19.5799 -3.99702 6.29989 9.00299 8.99989 26.273C24.0799 22.573 21.7099 15.003 26.1099 11.833C36.6699 11.833 31.1099 23.253 44.2799 28.053C46.9999 14.483 40.4199 0.722984 30.0999 2.88298Z" fill="#EADDC7"/>
<path d="M11.48 25.623C12.2606 24.4829 12.9303 23.2707 13.48 22.003C13.9232 20.724 14.297 19.4222 14.6 18.103C14.9674 16.6767 15.5762 15.3239 16.4 14.103C17.2335 12.8908 18.3138 11.8685 19.57 11.103C18.94 12.433 18.28 13.643 17.77 14.893C17.2745 16.145 16.8603 17.4276 16.53 18.733C16.1912 20.1723 15.6276 21.5492 14.86 22.813C14.0127 24.0422 12.8433 25.0144 11.48 25.623Z" fill="#CCBBA3"/>
<path d="M42.91 11.363C39.36 5.00297 36.53 4.85297 31.12 4.85297C18.12 7.52297 21.97 18.053 11.22 25.673C22.63 22.803 23.91 13.423 26.27 11.673C36.04 11.963 31.75 23.503 44.27 28.023C45.83 20.533 44.44 14.113 42.91 11.363Z" fill="#CCBBA3"/>
<path d="M42.35 27.603C40.4544 26.7341 38.7303 25.5316 37.26 24.053C35.8425 22.5403 34.6381 20.8413 33.68 19.003C32.8425 17.2356 31.7731 15.5877 30.5 14.103C29.8794 13.4792 29.1279 13.001 28.3 12.703C27.86 12.623 27.44 12.503 27 12.443H25.63H25.48C25.3486 12.4391 25.2194 12.4093 25.0996 12.3554C24.9798 12.3015 24.8717 12.2246 24.7817 12.1289C24.6916 12.0333 24.6212 11.9208 24.5746 11.798C24.528 11.6751 24.506 11.5443 24.51 11.413C24.5139 11.2817 24.5437 11.1524 24.5976 11.0326C24.6515 10.9128 24.7284 10.8048 24.8241 10.7147C24.9197 10.6246 25.0322 10.5543 25.155 10.5077C25.2778 10.461 25.4087 10.4391 25.54 10.443H25.6L27.27 10.593C27.82 10.703 28.38 10.873 28.93 11.033C29.4597 11.2692 29.9682 11.5502 30.45 11.873C30.9142 12.2048 31.3401 12.5872 31.72 13.013C33.014 14.6736 34.0739 16.5041 34.87 18.453C35.6818 20.2539 36.7348 21.9359 38 23.453C39.318 24.9325 40.8893 26.1651 42.64 27.093C42.7145 27.1352 42.7697 27.2046 42.7939 27.2867C42.8182 27.3688 42.8096 27.4571 42.77 27.533C42.7174 27.5892 42.6478 27.6266 42.5718 27.6392C42.4959 27.6519 42.4179 27.6392 42.35 27.603Z" fill="#A3896C"/>
<path d="M11.48 25.623C21 24.003 23.55 11.163 29 9.06302L31.14 4.84302C18.82 7.90302 21.24 18.133 11.48 25.623Z" fill="#CCBBA3"/>
<path d="M11.48 16.303C12.6583 14.1594 14.1254 12.1876 15.84 10.443C17.6508 8.68561 19.8302 7.35339 22.22 6.54301C22.83 6.37301 23.43 6.18301 24.04 6.04301L25.89 5.72301C26.51 5.65301 27.14 5.65301 27.75 5.61301C28.3654 5.55795 28.9845 5.55795 29.6 5.61301C32.0412 5.77737 34.441 6.32752 36.71 7.24301C34.27 7.24301 31.92 6.99301 29.59 7.17301C27.2939 7.25349 25.021 7.66092 22.84 8.38301C20.6784 9.10975 18.6513 10.1875 16.84 11.573C15 13.003 13.35 14.743 11.48 16.303Z" fill="#CCBBA3"/>
<path d="M36.9999 41.923C40.9299 39.923 44.2499 36.813 43.1399 32.393C48.3699 17.623 41.5599 0.502998 30.1399 2.893C18.6999 -4.597 4.04991 11.343 9.99991 30.683C9.40991 36.623 12.7099 39.993 16.9999 42.103" stroke="#333333" stroke-width="1.5" stroke-linecap="round" stroke-linejoin="round"/>
<path d="M24.6499 29.623C25.6999 29.623 25.6999 30.143 26.7499 30.143C27.7999 30.143 27.7499 29.613 28.8499 29.623" stroke="#BA8D86" stroke-width="0.75" stroke-miterlimit="10" stroke-linecap="round"/>
<path d="M15.6799 8.15296C17.0596 6.80262 18.7487 5.81043 20.5999 5.26296C22.4572 4.66063 24.4111 4.41299 26.3599 4.53296C29.2622 4.74625 32.0629 5.69244 34.4999 7.28296C35.2768 7.82877 36.0183 8.4233 36.7199 9.06296C35.7899 8.80296 34.9499 8.44296 34.0699 8.16296L32.7599 7.76296C32.5399 7.70296 32.3299 7.62296 32.1199 7.55296L31.4599 7.40296C31.0199 7.30296 30.5899 7.19296 30.1599 7.07296L28.8499 6.84296L28.1999 6.72296L27.5399 6.66296C27.0999 6.66296 26.6699 6.54296 26.2299 6.53296C24.483 6.42623 22.7297 6.50669 20.9999 6.77296C19.1846 7.0525 17.4022 7.51485 15.6799 8.15296Z" fill="#CCBBA3"/>
<path d="M40.21 19.743C39.2159 18.3532 38.4496 16.8139 37.94 15.183C37.4118 13.6729 36.7837 12.1997 36.06 10.773C35.3536 9.41604 34.3809 8.21546 33.2 7.24298C31.904 6.27339 30.4933 5.46731 29 4.84298C30.8028 4.70876 32.6049 5.11216 34.1784 6.00215C35.7519 6.89215 37.0262 8.22877 37.84 9.84298C38.6449 11.4127 39.1951 13.1004 39.47 14.843C39.76 16.443 39.88 18.063 40.21 19.743Z" fill="#EADDC7"/>
<path d="M41.68 16.783C41.2929 15.2464 40.7292 13.7598 40 12.353C39.3098 11.0014 38.3816 9.78532 37.26 8.76299C36.9942 8.49612 36.7065 8.25194 36.4 8.03299C36.1129 7.79283 35.805 7.57866 35.48 7.39299L34.48 6.80299L33.48 6.32299L33 6.07299L32.45 5.89299L31.31 5.50299C30.55 5.27299 29.77 5.11299 28.99 4.85299C29.8075 4.77445 30.6293 4.75106 31.45 4.78299L32.68 5.00299L33.3 5.10299L33.9 5.28299C35.5504 5.72808 37.0684 6.56643 38.324 7.7263C39.5797 8.88616 40.5356 10.333 41.11 11.943C41.6825 13.488 41.8779 15.1473 41.68 16.783Z" fill="#EADDC7"/>
<path d="M31.1401 8.21296C29.1831 9.17672 27.4492 10.5392 26.0501 12.213C24.7235 13.996 23.5303 15.8744 22.4801 17.833C21.305 19.8587 19.7378 21.6299 17.8701 23.043C15.9764 24.4133 13.843 25.4172 11.5801 26.003C11.5361 26.0149 11.4901 26.0179 11.445 26.0117C11.3998 26.0055 11.3563 25.9903 11.3171 25.967C11.2779 25.9437 11.2438 25.9127 11.2169 25.8759C11.1899 25.8392 11.1706 25.7973 11.1601 25.753C11.1417 25.6708 11.1526 25.5849 11.191 25.51C11.2293 25.4351 11.2927 25.376 11.3701 25.343C13.4481 24.5914 15.385 23.4962 17.1001 22.103C18.7191 20.6629 20.0996 18.9753 21.1901 17.103C22.3361 15.1202 23.651 13.2399 25.1201 11.483C25.9186 10.6257 26.8109 9.86094 27.7801 9.20296C28.2801 8.91296 28.7801 8.57296 29.2901 8.32296L30.8701 7.61296C30.9108 7.59455 30.9548 7.58435 30.9994 7.58293C31.0441 7.58152 31.0886 7.58892 31.1303 7.6047C31.1721 7.62049 31.2104 7.64436 31.243 7.67495C31.2755 7.70553 31.3017 7.74224 31.3201 7.78296C31.3401 7.82208 31.3518 7.86489 31.3545 7.90873C31.3572 7.95256 31.3508 7.99648 31.3358 8.03776C31.3208 8.07903 31.2975 8.11677 31.2672 8.14864C31.237 8.1805 31.2005 8.2058 31.1601 8.22296L31.1401 8.21296Z" fill="#A3896C"/>
</svg>
