<svg width="43" height="44" viewBox="0 0 43 44" fill="none" xmlns="http://www.w3.org/2000/svg">
<path d="M41.3243 37.1008C41.232 36.2485 40.8785 35.4455 40.3123 34.8018C39.7461 34.158 38.9949 33.7049 38.1613 33.5045C35.163 32.7593 31.454 31.962 26.7918 31.0868V26.1386H16.0983V31.0695C11.3408 31.936 7.69254 32.8633 4.72885 33.4785C2.84838 33.8685 1.98181 35.2377 1.56585 37.0921L1.11523 38.9033C7.46718 41.9148 14.4155 43.4578 21.4451 43.4181C28.4746 43.4578 35.423 41.9148 41.7749 38.9033L41.3243 37.1008Z" fill="#E5C2BA"/>
<path d="M16.0983 26.1386V27.1699L20.4311 31.6587C21.0733 32.3201 21.431 33.2066 21.4277 34.1285C21.4277 34.7329 21.6678 35.3126 22.0952 35.74C22.5226 36.1674 23.1023 36.4075 23.7068 36.4075H24.1574C24.8469 36.4075 25.5082 36.1337 25.9957 35.6461C26.4832 35.1586 26.7571 34.4973 26.7571 33.8078V26.13H16.0983V26.1386Z" fill="#D8B3AD"/>
<path d="M41.3243 37.1008C40.9777 35.2377 40.0071 33.9205 38.1613 33.5045C35.5616 32.8893 32.4766 32.144 28.681 31.4767C28.8976 33.9507 28.3105 36.4285 27.0069 38.5423C25.7034 40.656 23.7529 42.293 21.4451 43.2102C19.135 42.292 17.1821 40.6541 15.8757 38.5392C14.5693 36.4243 13.9788 33.9448 14.1918 31.4681C10.4916 32.2567 7.48456 32.8633 4.72885 33.5045C2.87438 33.9378 1.93848 35.2377 1.56585 37.1181L1.11523 38.9033C7.46718 41.9148 14.4155 43.4578 21.4451 43.4181C28.4746 43.4578 35.423 41.9148 41.7749 38.9033L41.3243 37.1008Z" fill="#BED5FC"/>
<path d="M41.3936 37.3781C40.8038 36.5366 39.9136 35.9535 38.9066 35.749C35.5211 34.8148 32.0872 34.0656 28.6203 33.5045C28.4153 35.6162 27.639 37.6321 26.3749 39.3359C25.1108 41.0397 23.4065 42.3671 21.4451 43.1755C19.4831 42.3679 17.7783 41.0407 16.5141 39.3367C15.2499 37.6328 14.474 35.6164 14.2698 33.5045C10.8028 34.0685 7.36894 34.8206 3.9836 35.7576C2.97789 35.9655 2.08881 36.5479 1.49653 37.3868L1.11523 38.9033C7.46718 41.9148 14.4155 43.4579 21.4451 43.4182C28.4746 43.4579 35.423 41.9148 41.7749 38.9033L41.3936 37.3781Z" fill="#A9C6FF"/>
<path d="M14.1918 31.4508C13.9802 33.9273 14.5712 36.4062 15.8775 38.5208C17.1837 40.6354 19.1358 42.2735 21.4451 43.1929C23.7529 42.2757 25.7034 40.6387 27.0069 38.525C28.3105 36.4112 28.8975 33.9334 28.681 31.4594" stroke="#333333" stroke-width="1.5" stroke-linejoin="round"/>
<path d="M16.0983 33.0366V26.1387H26.7918V33.0279" stroke="#333333" stroke-width="1.5" stroke-linecap="round" stroke-linejoin="round"/>
<path d="M16.0983 31.0695C16.0983 31.0695 9.42569 32.4386 4.72885 33.5045C2.84838 33.8945 1.98181 35.2377 1.56585 37.0922L1.11523 38.9033C7.46718 41.9148 14.4155 43.4579 21.4451 43.4181C28.4746 43.4579 35.423 41.9148 41.7749 38.9033L41.3243 37.0922C41.2303 36.2414 40.8761 35.4403 40.31 34.7983C39.7439 34.1562 38.9936 33.7044 38.1613 33.5045C34.3917 32.56 26.8092 31.0175 26.7918 31.0868" stroke="#333333" stroke-width="1.5" stroke-linejoin="round"/>
<path d="M14.1138 24.2149C14.5558 23.8001 14.8895 23.2832 15.0855 22.7095C15.2815 22.1359 15.3339 21.5229 15.2381 20.9243C15.1424 20.3257 14.9013 19.7597 14.5361 19.2759C14.1709 18.792 13.6926 18.4051 13.1432 18.1489C12.6976 18.3538 12.297 18.6452 11.9647 19.006C11.6324 19.3668 11.375 19.79 11.2073 20.251C11.0397 20.712 10.9651 21.2017 10.9881 21.6917C11.011 22.1817 11.1308 22.6623 11.3408 23.1057C11.5397 23.5286 11.816 23.9107 12.1553 24.2322C11.4537 24.9063 11.045 25.8292 11.0174 26.8018C10.9899 27.7744 11.3456 28.7189 12.008 29.4317L12.1553 29.579C11.6251 30.0911 11.2595 30.7495 11.1051 31.4703C10.9508 32.1911 11.0147 32.9416 11.2888 33.6259C11.3845 33.8715 11.5277 34.0957 11.7103 34.2858C11.8929 34.4759 12.1113 34.628 12.3528 34.7335C12.5944 34.839 12.8544 34.8957 13.1179 34.9004C13.3814 34.9052 13.6433 34.8578 13.8885 34.7611C14.1354 34.6562 14.359 34.5035 14.5464 34.3116C14.7339 34.1197 14.8814 33.8925 14.9804 33.6432C15.2582 32.9567 15.3242 32.2027 15.1697 31.4783C15.0153 30.754 14.6475 30.0925 14.1138 29.579C14.8155 28.9049 15.2241 27.982 15.2517 27.0094C15.2792 26.0368 14.9235 25.0923 14.2611 24.3795L14.1138 24.1976V24.2149Z" fill="#BEAD87"/>
<path d="M12.8053 33.9899C12.5829 33.4347 12.499 32.8337 12.5609 32.2388C12.6228 31.6439 12.8286 31.073 13.1606 30.5755C13.2881 30.3827 13.356 30.1567 13.356 29.9256C13.356 29.6945 13.2881 29.4685 13.1606 29.2757C12.7622 28.6712 12.5498 27.9632 12.5498 27.2392C12.5498 26.5153 12.7622 25.8072 13.1606 25.2028C13.2881 25.01 13.356 24.784 13.356 24.5529C13.356 24.3217 13.2881 24.0957 13.1606 23.9029C12.754 23.2984 12.5368 22.5864 12.5367 21.8578C12.5365 21.2646 12.6779 20.6799 12.9492 20.1524C13.2205 19.6248 13.6139 19.1697 14.0965 18.8248C13.8108 18.5496 13.4832 18.3214 13.126 18.1489C12.6818 18.3554 12.283 18.6479 11.9525 19.0094C11.622 19.371 11.3663 19.7944 11.2004 20.2552C11.0344 20.7161 10.9613 21.2053 10.9855 21.6945C11.0096 22.1837 11.1303 22.6634 11.3408 23.1057C11.5398 23.5286 11.8161 23.9107 12.1554 24.2322C11.4537 24.9063 11.0451 25.8292 11.0175 26.8018C10.99 27.7744 11.3457 28.7189 12.0081 29.4317L12.1554 29.579C11.6252 30.0911 11.2595 30.7495 11.1052 31.4703C10.9508 32.1911 11.0148 32.9416 11.2888 33.6259C11.4558 34.0622 11.7721 34.4253 12.1814 34.6506C12.5907 34.8758 13.0666 34.9488 13.5246 34.8564C13.2069 34.6424 12.9572 34.3416 12.8053 33.9899Z" fill="#E5D2AC"/>
<path d="M14.1138 24.2149C14.5558 23.8001 14.8895 23.2832 15.0855 22.7095C15.2815 22.1359 15.3339 21.5229 15.2381 20.9243C15.1424 20.3257 14.9013 19.7597 14.5361 19.2759C14.1709 18.792 13.6926 18.4051 13.1432 18.1489C12.6976 18.3538 12.297 18.6452 11.9647 19.006C11.6324 19.3668 11.375 19.79 11.2073 20.251C11.0397 20.712 10.9651 21.2017 10.9881 21.6917C11.011 22.1817 11.1308 22.6623 11.3408 23.1057C11.5397 23.5286 11.816 23.9107 12.1553 24.2322C11.4537 24.9063 11.045 25.8292 11.0174 26.8018C10.9899 27.7744 11.3456 28.7189 12.008 29.4317L12.1553 29.579C11.6251 30.0911 11.2595 30.7495 11.1051 31.4703C10.9508 32.1911 11.0147 32.9416 11.2888 33.6259C11.3845 33.8715 11.5277 34.0957 11.7103 34.2858C11.8929 34.4759 12.1113 34.628 12.3528 34.7335C12.5944 34.839 12.8544 34.8957 13.1179 34.9004C13.3814 34.9052 13.6433 34.8578 13.8885 34.7611C14.1354 34.6562 14.359 34.5035 14.5464 34.3116C14.7339 34.1197 14.8814 33.8925 14.9804 33.6432C15.2582 32.9567 15.3242 32.2027 15.1697 31.4783C15.0153 30.754 14.6475 30.0925 14.1138 29.579C14.8155 28.9049 15.2241 27.982 15.2517 27.0094C15.2792 26.0368 14.9235 25.0923 14.2611 24.3795L14.1138 24.1976V24.2149Z" stroke="#333333" stroke-width="1.5" stroke-linecap="round" stroke-linejoin="round"/>
<path d="M13.1259 35.2377C11.8722 35.8379 10.8627 36.8505 10.2662 38.1061C10.1295 38.3735 10.0646 38.6719 10.0779 38.972C10.0912 39.2721 10.1823 39.5635 10.3422 39.8178C10.5021 40.0721 10.7253 40.2804 10.99 40.4224C11.2547 40.5644 11.5518 40.6352 11.8521 40.6278H14.3998C14.8595 40.6278 15.3003 40.4452 15.6253 40.1202C15.9503 39.7951 16.1329 39.3543 16.1329 38.8946C16.1327 38.6575 16.0886 38.4225 16.003 38.2014C15.4252 36.904 14.4056 35.8537 13.1259 35.2377Z" fill="#BEAD87"/>
<path d="M11.8001 39.5706C12.3924 38.3121 13.4032 37.2983 14.6598 36.7022C14.9306 36.8262 15.1914 36.971 15.4397 37.1355C14.8437 36.3152 14.047 35.6617 13.1259 35.2377C11.8722 35.8379 10.8627 36.8505 10.2663 38.1061C10.1649 38.3123 10.1056 38.5366 10.0918 38.766C10.0779 38.9954 10.1098 39.2252 10.1856 39.4421C10.2614 39.659 10.3796 39.8587 10.5333 40.0295C10.687 40.2004 10.8731 40.3389 11.0808 40.4371C11.2632 40.5256 11.4598 40.5813 11.6614 40.6018C11.6088 40.2519 11.6569 39.8942 11.8001 39.5706Z" fill="#E5D2AC"/>
<path d="M13.1259 35.2377C11.8722 35.8379 10.8627 36.8505 10.2662 38.1061C10.1295 38.3735 10.0646 38.6719 10.0779 38.972C10.0912 39.2721 10.1823 39.5635 10.3422 39.8178C10.5021 40.0721 10.7253 40.2804 10.99 40.4224C11.2547 40.5644 11.5518 40.6352 11.8521 40.6278H14.3998C14.8595 40.6278 15.3003 40.4452 15.6253 40.1202C15.9503 39.7951 16.1329 39.3543 16.1329 38.8946C16.1327 38.6575 16.0886 38.4225 16.003 38.2014C15.4252 36.904 14.4056 35.8537 13.1259 35.2377V35.2377Z" stroke="#333333" stroke-width="1.5" stroke-linecap="round" stroke-linejoin="round"/>
<path d="M29.1576 24.2149C28.7155 23.8001 28.3819 23.2832 28.1859 22.7095C27.9898 22.1359 27.9374 21.5229 28.0332 20.9243C28.129 20.3257 28.37 19.7597 28.7352 19.2759C29.1005 18.792 29.5787 18.4051 30.1281 18.1489C30.5723 18.3554 30.9711 18.6479 31.3016 19.0094C31.6321 19.371 31.8878 19.7944 32.0537 20.2552C32.2197 20.7161 32.2927 21.2053 32.2686 21.6945C32.2445 22.1837 32.1237 22.6634 31.9133 23.1057C31.7143 23.5286 31.438 23.9107 31.0987 24.2322C31.8003 24.9063 32.209 25.8292 32.2366 26.8018C32.2641 27.7744 31.9084 28.7189 31.246 29.4317L31.0987 29.579C31.6289 30.0911 31.9946 30.7495 32.1489 31.4703C32.3033 32.1911 32.2393 32.9416 31.9653 33.6259C31.8695 33.8715 31.7263 34.0957 31.5437 34.2858C31.3611 34.4759 31.1427 34.628 30.9012 34.7335C30.6596 34.839 30.3996 34.8957 30.1361 34.9004C29.8726 34.9052 29.6107 34.8578 29.3655 34.7611C29.109 34.6591 28.876 34.5058 28.6808 34.3106C28.4856 34.1154 28.3323 33.8824 28.2303 33.6259C27.9525 32.9394 27.8865 32.1854 28.041 31.461C28.1954 30.7367 28.5632 30.0751 29.0969 29.5617C28.3952 28.8875 27.9866 27.9647 27.959 26.9921C27.9315 26.0195 28.2872 25.075 28.9496 24.3622L29.0969 24.2149H29.1576Z" fill="#E5D2AC"/>
<path d="M30.4573 33.9899C30.6789 33.4349 30.763 32.8347 30.7027 32.2402C30.6423 31.6457 30.4392 31.0746 30.1107 30.5755C29.9832 30.3827 29.9153 30.1567 29.9153 29.9256C29.9153 29.6945 29.9832 29.4685 30.1107 29.2757C30.5091 28.6712 30.7215 27.9632 30.7215 27.2392C30.7215 26.5153 30.5091 25.8072 30.1107 25.2028C29.9832 25.01 29.9153 24.784 29.9153 24.5529C29.9153 24.3217 29.9832 24.0957 30.1107 23.9029C30.5173 23.2984 30.7345 22.5864 30.7346 21.8578C30.7348 21.2646 30.5934 20.6799 30.3221 20.1524C30.0508 19.6248 29.6575 19.1697 29.1748 18.8248C29.4606 18.5496 29.7881 18.3214 30.1454 18.1489C30.5895 18.3554 30.9884 18.6479 31.3189 19.0094C31.6494 19.371 31.905 19.7944 32.071 20.2552C32.2369 20.7161 32.31 21.2053 32.2859 21.6945C32.2618 22.1837 32.141 22.6634 31.9305 23.1057C31.7315 23.5286 31.4553 23.9107 31.1159 24.2322C31.8176 24.9063 32.2263 25.8292 32.2538 26.8018C32.2814 27.7744 31.9256 28.7189 31.2632 29.4317L31.1159 29.579C31.6462 30.0911 32.0118 30.7495 32.1662 31.4703C32.3205 32.1911 32.2566 32.9416 31.9825 33.6259C31.8155 34.0622 31.4993 34.4253 31.0899 34.6506C30.6806 34.8758 30.2047 34.9488 29.7467 34.8564C30.0572 34.6367 30.3027 34.3374 30.4573 33.9899Z" fill="#BEAD87"/>
<path d="M29.1576 24.2149C28.7155 23.8001 28.3819 23.2832 28.1859 22.7095C27.9898 22.1359 27.9374 21.5229 28.0332 20.9243C28.129 20.3257 28.37 19.7597 28.7352 19.2759C29.1005 18.792 29.5787 18.4051 30.1281 18.1489C30.5723 18.3554 30.9711 18.6479 31.3016 19.0094C31.6321 19.371 31.8878 19.7944 32.0537 20.2552C32.2197 20.7161 32.2927 21.2053 32.2686 21.6945C32.2445 22.1837 32.1237 22.6634 31.9133 23.1057C31.7143 23.5286 31.438 23.9107 31.0987 24.2322C31.8003 24.9063 32.209 25.8292 32.2366 26.8018C32.2641 27.7744 31.9084 28.7189 31.246 29.4317L31.0987 29.579C31.6289 30.0911 31.9946 30.7495 32.1489 31.4703C32.3033 32.1911 32.2393 32.9416 31.9653 33.6259C31.8695 33.8715 31.7263 34.0957 31.5437 34.2858C31.3611 34.4759 31.1427 34.628 30.9012 34.7335C30.6596 34.839 30.3996 34.8957 30.1361 34.9004C29.8726 34.9052 29.6107 34.8578 29.3655 34.7611C29.109 34.6591 28.876 34.5058 28.6808 34.3106C28.4856 34.1154 28.3323 33.8824 28.2303 33.6259C27.9525 32.9394 27.8865 32.1854 28.041 31.461C28.1954 30.7367 28.5632 30.0751 29.0969 29.5617C28.3952 28.8875 27.9866 27.9647 27.959 26.9921C27.9315 26.0195 28.2872 25.075 28.9496 24.3622L29.0969 24.2149H29.1576Z" stroke="#333333" stroke-width="1.5" stroke-linecap="round" stroke-linejoin="round"/>
<path d="M30.1281 35.2377C31.3818 35.8379 32.3914 36.8505 32.9878 38.1061C33.1208 38.3699 33.1841 38.6633 33.1717 38.9585C33.1593 39.2537 33.0717 39.5408 32.9172 39.7926C32.7626 40.0444 32.5463 40.2525 32.2887 40.3972C32.031 40.5418 31.7407 40.6182 31.4453 40.6191H28.8456C28.3859 40.6191 27.9451 40.4365 27.6201 40.1115C27.295 39.7865 27.1124 39.3456 27.1124 38.886C27.1127 38.6489 27.1567 38.4138 27.2424 38.1927C27.829 36.9005 28.8502 35.8548 30.1281 35.2377Z" fill="#E5D2AC"/>
<path d="M31.4454 39.5706C30.8531 38.3121 29.8423 37.2983 28.5857 36.7022C28.3149 36.8262 28.0541 36.971 27.8058 37.1355C28.4041 36.314 29.204 35.6604 30.1282 35.2377C31.3824 35.8343 32.3903 36.8482 32.9792 38.1061C33.0806 38.3123 33.1399 38.5366 33.1537 38.766C33.1676 38.9954 33.1356 39.2252 33.0598 39.4421C32.984 39.659 32.8659 39.8587 32.7122 40.0295C32.5585 40.2004 32.3724 40.3389 32.1647 40.4371C31.9822 40.5256 31.7857 40.5813 31.5841 40.6018C31.6445 40.252 31.5961 39.892 31.4454 39.5706Z" fill="#BEAD87"/>
<path d="M30.1281 35.2377C31.3818 35.8379 32.3914 36.8505 32.9878 38.1061C33.1208 38.3699 33.1841 38.6633 33.1717 38.9585C33.1593 39.2537 33.0717 39.5408 32.9172 39.7926C32.7626 40.0444 32.5463 40.2525 32.2887 40.3972C32.031 40.5418 31.7407 40.6182 31.4453 40.6191H28.8456C28.3859 40.6191 27.9451 40.4365 27.6201 40.1115C27.295 39.7865 27.1124 39.3456 27.1124 38.886C27.1127 38.6489 27.1567 38.4138 27.2424 38.1927C27.829 36.9005 28.8502 35.8548 30.1281 35.2377Z" stroke="#333333" stroke-width="1.5" stroke-linecap="round" stroke-linejoin="round"/>
<path d="M21.4449 2.30786C28.7068 2.30786 30.9339 6.90071 30.9339 11.8402C30.9339 12.1262 30.9339 12.9061 30.9339 13.192C32.5024 13.192 32.8577 14.8299 32.6064 16.901C32.3898 18.6341 31.7398 20.8266 30.0067 20.8699V21.7365C30.0067 24.4488 27.8403 25.8614 25.3272 28.4871C23.6634 30.2202 22.5282 29.8736 21.4276 29.8736C20.3271 29.8736 19.1832 30.2202 17.5193 28.4871C14.9976 25.8874 12.8398 24.4575 12.8398 21.7365C12.8398 21.2858 12.8398 20.7052 12.8398 20.8699C11.1587 20.8179 10.4741 18.6601 10.2401 16.901C9.98882 14.8299 10.3528 13.192 11.9126 13.192V11.8402C11.9559 6.90937 14.183 2.30786 21.4449 2.30786Z" fill="#EED1C9"/>
<path d="M32.6152 14.9251C32.4592 13.8592 31.9566 13.192 30.934 13.192C30.934 12.906 30.934 12.1261 30.934 11.8401C30.934 6.91798 28.7069 2.3078 21.445 2.3078C14.1831 2.3078 11.956 6.90931 11.956 11.8401V13.192C10.9162 13.192 10.4135 13.9199 10.2229 15.0118C13.9033 14.0622 17.6874 13.5732 21.4884 13.5559C25.2393 13.557 28.9759 14.0169 32.6152 14.9251Z" fill="#E5C2BA"/>
<path d="M30.934 13.1487C30.934 12.8627 30.934 12.0828 30.934 11.7968C30.934 6.90935 28.7069 2.30784 21.445 2.30784C20.6057 2.30197 19.7675 2.37157 18.9406 2.51582V11.8402C18.939 12.3289 18.8366 12.812 18.6398 13.2593C18.4429 13.7066 18.156 14.1085 17.7967 14.4399C17.7401 14.488 17.6981 14.551 17.6753 14.6218C17.6526 14.6925 17.6501 14.7682 17.6682 14.8403C17.6862 14.9124 17.724 14.9781 17.7773 15.0298C17.8307 15.0815 17.8974 15.1173 17.9701 15.1331C18.3914 15.2326 18.7767 15.4474 19.0828 15.7535C19.3889 16.0597 19.6037 16.445 19.7032 16.8663C19.7171 16.9394 19.7495 17.0076 19.7974 17.0645C19.8454 17.1214 19.9071 17.1651 19.9768 17.1912C20.0464 17.2173 20.1216 17.225 20.1951 17.2137C20.2686 17.2023 20.338 17.1722 20.3965 17.1263C20.5516 16.9962 20.7314 16.899 20.9251 16.8403C20.991 16.8229 21.06 16.821 21.1267 16.8347C21.1935 16.8484 21.2562 16.8774 21.3099 16.9194C21.3636 16.9613 21.4068 17.0151 21.4363 17.0766C21.4658 17.138 21.4806 17.2054 21.4797 17.2736V19.1367C21.4854 19.3189 21.5409 19.4959 21.6402 19.6487C21.7395 19.8015 21.8788 19.9242 22.043 20.0033C22.5629 20.2893 22.1903 21.2685 21.4797 21.2685C21.1972 21.273 20.9188 21.2012 20.6738 21.0605C20.0065 20.7225 19.3826 21.4071 19.5212 21.6758C19.6599 21.9444 19.8245 21.6758 20.5005 21.9877C20.7995 22.1543 21.1375 22.2381 21.4797 22.2304V25.5494C21.4816 25.6286 21.51 25.7048 21.5602 25.7661C21.6105 25.8273 21.6797 25.87 21.757 25.8873C22.9442 26.1646 23.5768 28.1404 21.4797 28.5651C21.2217 28.6097 20.9876 28.7434 20.8182 28.943C20.6488 29.1425 20.5547 29.3952 20.5525 29.6569V29.9342C20.8731 29.9342 21.1851 29.9342 21.4884 29.9342C22.5889 29.9342 23.7241 30.2809 25.3879 28.5477C27.9097 25.948 30.0674 24.5095 30.0674 21.7971V20.9305C31.7486 20.8785 32.4245 18.7208 32.6672 16.9616C32.8578 14.7865 32.5025 13.1487 30.934 13.1487Z" fill="#E5C2BA"/>
<path d="M18.9494 2.54181V11.8402C18.9471 12.4698 18.7733 13.0869 18.4468 13.6253C19.4347 13.556 20.4746 13.5126 21.5491 13.5126C25.287 13.5356 29.0084 14.0099 32.6326 14.9252C32.5546 14.8385 32.5286 13.192 30.9515 13.192C30.9515 12.906 30.9515 12.1261 30.9515 11.8402C31.0643 9.48223 30.3501 7.15893 28.9323 5.27152C26.5666 2.42048 22.1904 1.9612 18.9494 2.54181Z" fill="#D8B3AD"/>
<path d="M21.4449 2.30786C28.7068 2.30786 30.9339 6.90071 30.9339 11.8402C30.9339 12.1262 30.9339 12.9061 30.9339 13.192C32.5024 13.192 32.8577 14.8299 32.6064 16.901C32.3898 18.6341 31.7398 20.8266 30.0067 20.8699V21.7365C30.0067 24.4488 27.8403 25.8614 25.3272 28.4871C23.6634 30.2202 22.5282 29.8736 21.4276 29.8736C20.3271 29.8736 19.1832 30.2202 17.5193 28.4871C14.9976 25.8874 12.8398 24.4575 12.8398 21.7365C12.8398 21.2858 12.8398 20.7052 12.8398 20.8699C11.1587 20.8179 10.4741 18.6601 10.2401 16.901C9.98882 14.8299 10.3528 13.192 11.9126 13.192V11.8402C11.9559 6.90937 14.183 2.30786 21.4449 2.30786Z" stroke="#333333" stroke-width="1.5" stroke-linejoin="round"/>
<path d="M21.4451 1.24194C14.5125 1.24194 11.1935 5.85212 11.1935 9.43107C11.1935 11.7015 12.3807 15.3064 12.3807 17.6722C12.3807 11.4849 17.2075 12.1608 21.4797 9.87303C26.1332 12.7154 30.5788 10.8263 30.5788 17.6722C30.7607 14.5439 31.7313 11.7362 31.7313 9.43107C31.6966 5.85212 28.3863 1.24194 21.4451 1.24194Z" fill="#E5D2AC"/>
<path d="M12.8486 8.37385C13.334 6.73105 14.3805 5.31072 15.8058 4.36052C17.2311 3.41032 18.9447 2.99055 20.6478 3.1744C18.828 4.17963 17.1728 4.20562 12.8486 8.37385Z" fill="#BEAD87"/>
<path d="M31.1853 6.73604C29.6173 5.20724 27.6066 4.21251 25.44 3.89368C26.4744 4.42472 27.4405 5.07945 28.317 5.84347C28.8999 6.33394 29.3952 6.92002 29.7815 7.57662C29.3112 7.00506 28.7489 6.51596 28.1177 6.12944C26.8707 5.36058 25.5274 4.76031 24.1228 4.3443C23.7328 4.22298 23.3428 4.13632 22.9529 4.03233C22.9418 4.06004 22.9272 4.08625 22.9096 4.11032C25.1555 5.37389 27.1642 7.01897 28.8456 8.97181C26.8264 7.21223 24.5036 5.83503 21.991 4.90757C23.419 6.1743 24.6956 7.6021 25.7953 9.16245C24.2726 7.67077 22.5557 6.39116 20.6911 5.35819C18.2108 6.62264 16.1448 8.57136 14.7378 10.9736C15.4739 9.05828 16.5879 7.31067 18.0134 5.8348C14.9544 7.42064 13.0826 9.52641 11.9474 14.6045L12.3807 17.6722C12.3807 11.1469 17.6754 12.3428 21.4797 9.87304C26.4105 12.7067 30.5787 12.1435 30.5787 17.6722C30.5787 14.5439 32.7625 9.61307 31.1853 6.73604Z" fill="#BEAD87"/>
<path d="M12.0513 17.6722C11.9587 16.5184 12.2025 15.3626 12.7532 14.3445C13.4046 13.3741 14.3017 12.5937 15.3529 12.0828C16.3408 11.5542 17.3374 11.1469 18.3079 10.6963C19.2785 10.2456 20.1798 9.76902 21.1157 9.24041C21.2133 9.18953 21.3218 9.16296 21.432 9.16296C21.5421 9.16296 21.6506 9.18953 21.7483 9.24041C22.6668 9.73436 23.6114 10.211 24.5733 10.6616C25.5352 11.1122 26.5317 11.5282 27.511 12.0741C28.5565 12.5897 29.4518 13.3656 30.1107 14.3272C30.6794 15.3358 30.9301 16.4927 30.83 17.6462C30.8288 17.6849 30.8201 17.723 30.8042 17.7583C30.7884 17.7936 30.7657 17.8255 30.7376 17.852C30.7094 17.8786 30.6763 17.8993 30.6401 17.9131C30.6039 17.9268 30.5653 17.9333 30.5267 17.9322C30.4535 17.9282 30.3843 17.898 30.3318 17.847C30.2792 17.7961 30.2469 17.7278 30.2407 17.6549C30.2274 16.6417 29.9269 15.6531 29.3741 14.8038C28.7498 14.0338 27.9382 13.437 27.017 13.0707C25.0008 12.2902 23.0253 11.408 21.0983 10.4276H21.7396C19.7985 11.5108 17.684 12.1608 15.8035 13.0273C14.8809 13.4075 14.072 14.0194 13.4551 14.8038C12.9021 15.6561 12.6017 16.6476 12.5886 17.6635C12.5863 17.7022 12.5765 17.7401 12.5596 17.775C12.5427 17.8099 12.5191 17.8412 12.4901 17.8669C12.4612 17.8927 12.4274 17.9125 12.3907 17.9252C12.3541 17.9378 12.3153 17.9432 12.2766 17.9408C12.2138 17.9289 12.1571 17.8956 12.1161 17.8466C12.075 17.7977 12.0521 17.7361 12.0513 17.6722Z" fill="#A8956F"/>
<path d="M30.2495 17.6722C30.2616 16.6902 30.3719 15.7119 30.5788 14.7519C30.7607 13.8073 30.9341 12.8801 31.0554 11.9442C31.1832 11.0199 31.2296 10.0862 31.194 9.15379C31.1415 8.25327 30.918 7.37099 30.5354 6.55407C30.1639 5.74683 29.6503 5.01299 29.0189 4.38763C28.3602 3.78005 27.612 3.27734 26.8005 2.89712C25.1093 2.19738 23.2924 1.85229 21.4624 1.88323C19.6334 1.86023 17.8192 2.21421 16.133 2.92312C15.3245 3.30037 14.5791 3.80021 13.9232 4.40496C13.2841 5.0262 12.7617 5.75703 12.3807 6.56274C11.9933 7.3784 11.7668 8.26107 11.7134 9.16246C11.6722 10.0943 11.7128 11.028 11.8347 11.9528C12.0341 13.8246 12.6493 15.6618 12.658 17.6809C12.658 17.759 12.627 17.834 12.5717 17.8892C12.5164 17.9445 12.4415 17.9755 12.3634 17.9755C12.2852 17.9755 12.2103 17.9445 12.155 17.8892C12.0998 17.834 12.0687 17.759 12.0687 17.6809C12.0021 16.7459 11.8424 15.8198 11.5921 14.9165C11.3581 13.9893 11.1415 13.036 10.9855 12.0742C10.8202 11.1009 10.7419 10.1149 10.7515 9.1278C10.7803 8.10228 11.0008 7.09121 11.4015 6.14678C11.8113 5.17931 12.3992 4.29744 13.1346 3.54706C13.8704 2.84189 14.7126 2.25701 15.6303 1.81391C17.457 0.969145 19.4501 0.545645 21.4624 0.574704C23.481 0.547531 25.48 0.973976 27.3118 1.82257C28.2254 2.26829 29.0644 2.85295 29.7988 3.55572C30.5261 4.28972 31.1134 5.15014 31.532 6.09478C31.9391 7.03486 32.1655 8.04323 32.1993 9.06714C32.2118 10.054 32.1364 11.04 31.9739 12.0135C31.688 13.946 30.9774 15.7831 30.8907 17.6202C30.8896 17.6597 30.8806 17.6985 30.8642 17.7344C30.8478 17.7703 30.8244 17.8026 30.7953 17.8293C30.7662 17.8559 30.732 17.8765 30.6948 17.8897C30.6576 17.9029 30.6182 17.9085 30.5788 17.9062C30.5417 17.9136 30.5034 17.9134 30.4664 17.9055C30.4294 17.8977 30.3944 17.8823 30.3635 17.8604C30.3327 17.8385 30.3067 17.8105 30.287 17.7781C30.2674 17.7457 30.2546 17.7097 30.2495 17.6722Z" fill="#333333"/>
<path d="M11.0547 8.93715V12.7068C11.0541 12.7891 11.0728 12.8704 11.1092 12.9442C11.1456 13.018 11.1988 13.0823 11.2644 13.132C11.33 13.1816 11.4064 13.2153 11.4873 13.2302C11.5683 13.2451 11.6516 13.241 11.7306 13.218C14.933 12.3924 18.2341 12.0133 21.5403 12.0915C24.7866 12.0092 28.0282 12.3885 31.1679 13.218C31.2469 13.241 31.3303 13.2451 31.4112 13.2302C31.4921 13.2153 31.5685 13.1816 31.6341 13.132C31.6998 13.0823 31.7529 13.018 31.7893 12.9442C31.8257 12.8704 31.8444 12.7891 31.8438 12.7068V8.98048C31.8451 8.89309 31.8244 8.80678 31.7835 8.72953C31.7426 8.65228 31.6829 8.58659 31.6098 8.53853C28.5993 6.61164 25.114 5.55587 21.5403 5.48819C17.8907 5.44638 14.314 6.50975 11.28 8.53853C11.2131 8.58185 11.1576 8.64074 11.1184 8.71016C11.0791 8.77957 11.0573 8.85746 11.0547 8.93715Z" fill="#A8C2FF"/>
<path d="M31.8438 11.9008C30.9772 10.7656 29.842 9.35311 30.0327 8.76384C30.1367 8.43454 30.8992 8.53853 31.7658 8.61652C28.7202 6.61972 25.1727 5.52334 21.5316 5.45352C17.9465 5.40951 14.4283 6.42547 11.4186 8.37388C11.8259 8.52119 12.1206 8.69451 12.1986 8.93715C12.329 9.53094 12.3355 10.1453 12.2177 10.7417C12.0999 11.3381 11.8604 11.9038 11.514 12.4035C11.3727 12.5896 11.2193 12.7662 11.0547 12.9321V13.4C11.0547 13.4 14.4603 12.0482 21.5316 12.0482C28.6028 12.0482 31.8351 13.4 31.8351 13.4V11.9008H31.8438Z" fill="#CDF0CD"/>
<path d="M29.8768 7.50729C27.2643 6.15981 24.3673 5.45673 21.4277 5.45673C18.4882 5.45673 15.5912 6.15981 12.9786 7.50729C13.9319 7.72393 15.1451 7.61128 15.2664 7.99257C15.3877 8.37387 14.3998 9.25777 13.7586 10.0724C13.1173 10.8869 13.3686 11.2856 13.6372 11.6582C13.9059 12.0308 14.0619 12.0568 15.0671 11.7102C16.0723 11.3635 17.6668 10.4016 18.0394 10.6703C18.2474 10.8176 17.9961 11.4849 17.7448 12.2215C18.8627 12.1348 20.1279 12.0828 21.5404 12.0828C22.7796 12.0828 23.9061 12.1261 24.9114 12.1955C24.9057 11.8463 25.0222 11.506 25.2407 11.2336C26.1269 10.9644 27.0772 10.9948 27.9444 11.3202C28.9496 11.6668 29.6775 12.5421 29.9288 12.1868C30.1801 11.8315 29.3396 11.2682 28.6983 10.4536C28.1527 9.81096 27.86 8.99146 27.8751 8.14856C27.979 7.6806 28.9583 7.74127 29.8768 7.50729Z" fill="#ECD3BC"/>
<path d="M21.5317 5.4535C19.4971 5.45122 17.4753 5.77599 15.5437 6.4154C15.8029 6.54454 16.0725 6.65179 16.3496 6.73603C16.9302 6.90935 17.5022 6.97867 17.5802 7.22998C17.6313 7.47669 17.6323 7.73115 17.5832 7.97827C17.5341 8.22538 17.4358 8.4601 17.2942 8.6685C16.9129 9.17111 16.6962 9.08445 16.8609 9.30109C17.0255 9.51774 17.2682 10.0463 17.8661 9.84704C18.4641 9.64773 18.8107 9.15378 19.0187 9.30976C19.2266 9.46574 18.828 9.97702 18.8194 10.575C18.8197 10.8241 18.8875 11.0685 19.0157 11.2821C19.1439 11.4958 19.3276 11.6706 19.5473 11.7882C19.8028 11.8381 20.0669 11.8186 20.3123 11.7317C20.5577 11.6448 20.7753 11.4938 20.9425 11.2942C21.2804 10.8003 21.1678 9.37042 21.4364 9.37042C21.705 9.37042 21.8264 10.6443 22.1643 11.1036C22.437 11.5107 22.8062 11.8441 23.2389 12.0741H23.4555C23.664 11.8764 23.8306 11.6386 23.9452 11.3751C24.0598 11.1116 24.1202 10.8277 24.1228 10.5403C24.1228 9.94236 23.5162 9.25777 23.7242 9.11045C23.9321 8.96313 24.4088 9.69105 24.9807 9.8817C25.2394 9.96742 25.5148 9.99091 25.7843 9.95026C26.0538 9.9096 26.3099 9.80595 26.5319 9.64772C26.6879 9.43108 26.1852 8.95446 25.8039 8.45185C25.4227 7.94924 24.9374 7.35997 25.024 7.10866C25.1107 6.85735 26.0379 7.19532 26.6185 7.022C26.7625 6.98209 26.8903 6.89781 26.9836 6.78113C27.077 6.66445 27.1311 6.52131 27.1385 6.37207C25.3315 5.76471 23.438 5.45449 21.5317 5.4535Z" fill="#E5A1B5"/>
<path d="M21.5316 5.45352C17.8924 5.40968 14.325 6.46692 11.2974 8.48653C11.2217 8.54071 11.1601 8.61229 11.1179 8.69524C11.0757 8.77819 11.054 8.87007 11.0547 8.96315V12.6028C11.0537 12.6936 11.074 12.7835 11.1141 12.865C11.1541 12.9466 11.2127 13.0177 11.2852 13.0725C11.3577 13.1273 11.442 13.1643 11.5315 13.1805C11.6209 13.1968 11.7128 13.1918 11.8 13.166C14.9811 12.3543 18.2581 11.9811 21.5403 12.0568C24.7533 11.9824 27.9611 12.3528 31.0726 13.1574C31.1597 13.1831 31.2517 13.1881 31.3411 13.1719C31.4305 13.1556 31.5149 13.1186 31.5874 13.0638C31.6599 13.009 31.7185 12.938 31.7585 12.8564C31.7986 12.7748 31.8189 12.685 31.8179 12.5941V8.98048C31.8187 8.88307 31.7954 8.78697 31.7501 8.70077C31.7047 8.61457 31.6387 8.54096 31.5579 8.48653C28.5556 6.57869 25.088 5.52973 21.5316 5.45352V5.45352Z" stroke="#333333" stroke-width="1.5" stroke-linecap="round" stroke-linejoin="round"/>
<path d="M21.4451 22.1871V22.8543" stroke="#DDB7B1" stroke-width="0.75" stroke-miterlimit="10" stroke-linecap="round"/>
<path d="M18.6893 24.4835L18.386 25.0901" stroke="#DDB7B1" stroke-width="0.75" stroke-miterlimit="10" stroke-linecap="round"/>
<path d="M24.2094 24.4835L24.5646 25.2027" stroke="#DDB7B1" stroke-width="0.75" stroke-miterlimit="10" stroke-linecap="round"/>
<path d="M22.1555 23.7556C21.9382 23.8682 21.6983 23.9304 21.4536 23.9376C21.2716 23.9376 21.2543 23.9376 20.847 23.7556C20.1191 23.4696 20.0844 24.3535 18.7412 24.8388L19.6078 25.7054C19.9912 26.0515 20.4957 26.2321 21.0116 26.208H21.8782C22.4313 26.2204 22.9691 26.0257 23.3861 25.662L24.1573 24.8475C22.8748 24.3795 22.8748 23.4696 22.1555 23.7556Z" fill="#925140"/>
<path d="M24.1486 24.8388C23.2821 24.8388 22.7968 24.3882 21.4449 24.8388C20.1017 24.3882 19.6511 24.8388 18.7412 24.8388" stroke="#743F40" stroke-width="0.5214" stroke-miterlimit="10" stroke-linecap="round"/>
<path d="M19.6426 21.7365C20.5092 21.7365 20.5092 22.1871 21.4537 22.1871C22.3983 22.1871 22.3203 21.7365 23.2649 21.7365" stroke="#AF8582" stroke-width="0.75" stroke-miterlimit="10" stroke-linecap="round"/>
<path d="M14.7638 15.3065C15.1244 15.0695 15.5276 14.9047 15.951 14.8212C16.3732 14.7562 16.8028 14.7562 17.2249 14.8212C17.6408 14.8905 18.0395 14.9945 18.4294 15.0985C18.7895 15.2095 19.1574 15.2935 19.53 15.3498C19.5937 15.3508 19.6566 15.365 19.7146 15.3916C19.7726 15.4181 19.8244 15.4565 19.8667 15.5042C19.9091 15.5519 19.941 15.6079 19.9605 15.6686C19.98 15.7294 19.9866 15.7935 19.98 15.8569C19.9733 15.9203 19.9536 15.9817 19.9219 16.0371C19.8902 16.0924 19.8474 16.1406 19.7961 16.1785C19.7448 16.2164 19.6861 16.2432 19.6239 16.2572C19.5617 16.2711 19.4972 16.272 19.4347 16.2597H19.3653C18.9584 16.1408 18.5615 15.9901 18.1781 15.8091C17.8247 15.6489 17.4631 15.5072 17.0949 15.3845C16.737 15.2668 16.3624 15.2083 15.9857 15.2112C15.6117 15.2087 15.2469 15.3272 14.9458 15.5491C14.9122 15.565 14.8742 15.5691 14.838 15.5607C14.8017 15.5522 14.7694 15.5318 14.7463 15.5026C14.7232 15.4735 14.7107 15.4374 14.7107 15.4002C14.7107 15.363 14.7233 15.3269 14.7465 15.2978C14.7465 15.2978 14.7551 15.3065 14.7638 15.3065Z" fill="#333333"/>
<path d="M27.9791 15.5404C27.6804 15.3139 27.314 15.1948 26.9392 15.2025C26.5649 15.2033 26.1932 15.2648 25.8386 15.3845C25.4747 15.4971 25.1194 15.6531 24.7467 15.8091C24.3587 15.9907 23.9557 16.1386 23.5422 16.251C23.4347 16.2603 23.3275 16.2307 23.24 16.1676C23.1525 16.1045 23.0905 16.0121 23.0653 15.9072C23.0401 15.8023 23.0534 15.6919 23.1028 15.596C23.1521 15.5 23.2342 15.425 23.3342 15.3845H23.4122C23.7861 15.3265 24.1543 15.2366 24.5128 15.1158C24.9027 15.0118 25.3013 14.8992 25.7173 14.8298C26.1391 14.7605 26.5694 14.7605 26.9912 14.8298C27.4143 14.9096 27.8176 15.0715 28.1784 15.3065C28.2098 15.3317 28.2309 15.3676 28.2376 15.4073C28.2444 15.4471 28.2363 15.4879 28.2149 15.5221C28.1935 15.5563 28.1604 15.5815 28.1217 15.5928C28.083 15.6042 28.0415 15.601 28.0051 15.5838L27.9791 15.5404Z" fill="#333333"/>
<path d="M16.7135 20.3499C18.2737 20.3499 19.5385 19.0851 19.5385 17.5249C19.5385 15.9647 18.2737 14.6999 16.7135 14.6999C15.1532 14.6999 13.8884 15.9647 13.8884 17.5249C13.8884 19.0851 15.1532 20.3499 16.7135 20.3499Z" fill="#555555"/>
<path d="M19.5386 17.5249C19.5333 17.0508 19.4081 16.5857 19.1746 16.1731C18.6399 15.8678 18.0197 15.7469 17.4094 15.8287C16.7992 15.9106 16.2328 16.1908 15.7975 16.6262C15.3621 17.0615 15.0819 17.6279 15 18.2381C14.9182 18.8484 15.0391 19.4686 15.3443 20.0033C15.7729 20.2467 16.2579 20.373 16.7508 20.3695C17.2436 20.366 17.7268 20.2329 18.1519 19.9835C18.5769 19.7341 18.9289 19.3772 19.1723 18.9486C19.4157 18.5201 19.542 18.0351 19.5386 17.5422V17.5249Z" fill="#444444"/>
<path d="M25.8905 20.3499C27.4507 20.3499 28.7155 19.0851 28.7155 17.5249C28.7155 15.9647 27.4507 14.6999 25.8905 14.6999C24.3302 14.6999 23.0654 15.9647 23.0654 17.5249C23.0654 19.0851 24.3302 20.3499 25.8905 20.3499Z" fill="#555555"/>
<path d="M28.7156 17.5249C28.7104 17.0508 28.5852 16.5857 28.3516 16.173C27.8184 15.8692 27.2003 15.7484 26.5919 15.8292C25.9835 15.91 25.4184 16.1879 24.9829 16.6204C24.5475 17.0529 24.2657 17.6161 24.1808 18.224C24.0959 18.8318 24.2125 19.4507 24.5127 19.986C24.9412 20.2294 25.4263 20.3557 25.9191 20.3522C26.4119 20.3487 26.8952 20.2156 27.3202 19.9661C27.7453 19.7167 28.0972 19.3598 28.3406 18.9313C28.584 18.5028 28.7104 18.0177 28.7069 17.5249H28.7156Z" fill="#444444"/>
<path d="M19.0446 17.6896C18.5246 17.3863 17.1728 15.6531 15.4309 17.3863C15.2063 17.2836 15.001 17.1429 14.8243 16.9703C15.6771 16.5377 16.6631 16.4477 17.58 16.719" fill="#3A3A3A"/>
<path d="M19.0446 17.6896C18.5246 17.3863 17.1728 15.6531 15.4309 17.3863C15.2063 17.2836 15.001 17.1429 14.8243 16.9703C15.6771 16.5377 16.6631 16.4477 17.58 16.719" stroke="#3A3A3A" stroke-width="0.5252" stroke-miterlimit="10" stroke-linecap="round"/>
<path d="M17.4068 18.0275C17.7801 18.0275 18.0827 17.7249 18.0827 17.3516C18.0827 16.9783 17.7801 16.6757 17.4068 16.6757C17.0335 16.6757 16.7308 16.9783 16.7308 17.3516C16.7308 17.7249 17.0335 18.0275 17.4068 18.0275Z" fill="#3A3A3A"/>
<path d="M16.7135 20.3499C18.2737 20.3499 19.5385 19.0851 19.5385 17.5249C19.5385 15.9647 18.2737 14.6999 16.7135 14.6999C15.1532 14.6999 13.8884 15.9647 13.8884 17.5249C13.8884 19.0851 15.1532 20.3499 16.7135 20.3499Z" stroke="#333333" stroke-linejoin="round"/>
<path d="M23.9755 17.6895C24.4954 17.3862 25.8473 15.6531 27.5891 17.3862C27.8138 17.2836 28.019 17.1429 28.1957 16.9703C27.3454 16.5399 26.3629 16.45 25.4486 16.719" fill="#3A3A3A"/>
<path d="M23.9755 17.6895C24.4954 17.3862 25.8473 15.6531 27.5891 17.3862C27.8138 17.2836 28.019 17.1429 28.1957 16.9703C27.3454 16.5399 26.3629 16.45 25.4486 16.719" stroke="#3A3A3A" stroke-width="0.5252" stroke-miterlimit="10" stroke-linecap="round"/>
<path d="M25.544 18.0275C25.9173 18.0275 26.2199 17.7249 26.2199 17.3516C26.2199 16.9783 25.9173 16.6757 25.544 16.6757C25.1707 16.6757 24.868 16.9783 24.868 17.3516C24.868 17.7249 25.1707 18.0275 25.544 18.0275Z" fill="#3A3A3A"/>
<path d="M25.8905 20.3499C27.4507 20.3499 28.7155 19.0851 28.7155 17.5249C28.7155 15.9647 27.4507 14.6999 25.8905 14.6999C24.3302 14.6999 23.0654 15.9647 23.0654 17.5249C23.0654 19.0851 24.3302 20.3499 25.8905 20.3499Z" stroke="#333333" stroke-linejoin="round"/>
<path d="M23.0742 18.5821C23.0742 18.1064 22.8852 17.6501 22.5488 17.3137C22.2124 16.9773 21.7561 16.7883 21.2804 16.7883C20.8046 16.7883 20.3484 16.9773 20.012 17.3137C19.6756 17.6501 19.4866 18.1064 19.4866 18.5821" stroke="#333333" stroke-width="1.1123" stroke-miterlimit="10" stroke-linecap="round"/>
<path d="M14.3911 35.8616H11.8434C11.671 35.8616 11.5057 35.7932 11.3838 35.6713C11.262 35.5494 11.1935 35.3841 11.1935 35.2117C11.1935 35.0393 11.262 34.874 11.3838 34.7521C11.5057 34.6302 11.671 34.5618 11.8434 34.5618H14.3911C14.5635 34.5618 14.7288 34.6302 14.8507 34.7521C14.9726 34.874 15.0411 35.0393 15.0411 35.2117C15.0411 35.3841 14.9726 35.5494 14.8507 35.6713C14.7288 35.7932 14.5635 35.8616 14.3911 35.8616Z" fill="#B22B2B" stroke="#333333" stroke-miterlimit="10"/>
<path d="M31.3933 35.8616H28.8456C28.6732 35.8616 28.5079 35.7932 28.386 35.6713C28.2642 35.5494 28.1957 35.3841 28.1957 35.2117C28.1957 35.0393 28.2642 34.874 28.386 34.7521C28.5079 34.6302 28.6732 34.5618 28.8456 34.5618H31.3933C31.5657 34.5618 31.731 34.6302 31.8529 34.7521C31.9748 34.874 32.0433 35.0393 32.0433 35.2117C32.0433 35.3841 31.9748 35.5494 31.8529 35.6713C31.731 35.7932 31.5657 35.8616 31.3933 35.8616Z" fill="#B22B2B" stroke="#333333" stroke-miterlimit="10"/>
</svg>
