<svg width="52" height="54" viewBox="0 0 52 54" fill="none" xmlns="http://www.w3.org/2000/svg">
<path d="M19.7699 22.8C20.2707 22.8108 20.7716 22.7907 21.2699 22.74H22.7999L22.9099 23.21C22.6631 23.35 22.4056 23.4704 22.1399 23.57C21.8653 23.6763 21.5743 23.7338 21.2799 23.74C20.7028 23.721 20.1394 23.5595 19.6399 23.27L19.7699 22.8Z" fill="#343433"/>
<path d="M29.16 22.8C29.6641 22.8108 30.1684 22.7907 30.67 22.74H32.19L32.3 23.21C32.0532 23.35 31.7957 23.4704 31.53 23.57C31.2554 23.6763 30.9644 23.7338 30.67 23.74C30.0827 23.726 29.5084 23.5643 29 23.27L29.16 22.8Z" fill="#343433"/>
<path d="M41.06 21.58C41.06 6.74 35.42 0 26 0C21.91 0 19.77 2.13 19.43 2.6C8.97998 2.72 12.06 12.6 6.03998 17.6L9.27998 16.8C6.12998 22.03 8.22998 24.13 5.97998 28.05C6.9204 27.9678 7.81836 27.6211 8.56998 27.05C5.40998 31.98 8.32998 37.05 5.97998 40.36L44.21 40.86C47.16 27.75 41.06 24.73 41.06 21.58Z" fill="#343433"/>
<path d="M50.5 45.2C50.294 44.0824 49.7534 43.0537 48.9498 42.2502C48.1463 41.4466 47.1176 40.906 46 40.7L33 38.12V33.12H19V38.12L6 40.7C4.88241 40.906 3.85374 41.4466 3.05017 42.2502C2.2466 43.0537 1.70602 44.0824 1.5 45.2L1 47.7C1.13 47.78 10.73 53.2 26 53.2C41.09 53.2 50.83 47.82 51 47.7L50.5 45.2Z" fill="#EDCCC3"/>
<path d="M51 47.7L50.5 45.2C50.294 44.0824 49.7534 43.0537 48.9498 42.2502C48.1463 41.4466 47.1176 40.906 46 40.7L33.94 38.3L29 53.12C42.39 52.49 50.87 47.81 51 47.7Z" fill="white"/>
<path d="M42 51.1V40.1L42.07 39.9L33.94 38.3L29 53.12C33.394 52.9224 37.7532 52.245 42 51.1Z" fill="#61513D"/>
<path d="M1 47.7L1.5 45.2C1.70602 44.0824 2.2466 43.0537 3.05017 42.2502C3.85374 41.4466 4.88241 40.906 6 40.7L18.06 38.3L23 53.12C9.61 52.49 1.13 47.81 1 47.7Z" fill="white"/>
<path d="M9.99993 51.1V40.1L9.92993 39.9L18.0599 38.28L22.9999 53.12C18.6059 52.9224 14.2467 52.2451 9.99993 51.1Z" fill="#61513D"/>
<path d="M23 53.12L18 38.12" stroke="#343433" stroke-width="1.5" stroke-linejoin="round"/>
<path d="M10 40.12V51.12" stroke="#343433" stroke-width="1.5" stroke-linejoin="round"/>
<path d="M19 33.12V38.12C15.35 38.96 7.48 40.32 6 40.7C4.88241 40.906 3.85374 41.4466 3.05017 42.2502C2.2466 43.0537 1.70602 44.0824 1.5 45.2L1 47.7C1.13 47.78 10.73 53.2 26 53.2C41.09 53.2 50.83 47.82 51 47.7L50.5 45.2C50.294 44.0824 49.7534 43.0537 48.9498 42.2502C48.1463 41.4466 47.1176 40.906 46 40.7C44.67 40.36 36.79 38.96 33 38.12V33.12" stroke="#333333" stroke-width="1.5" stroke-linecap="round" stroke-linejoin="round"/>
<path d="M25.92 5.10004C33.63 5.10004 36.92 9.76004 36.92 16.1V19.1C38.83 19.15 39.37 20.96 38.92 23.1C38.54 24.86 37.92 27.1 35.92 27.1C35.92 27.1 35.92 28.78 35.92 29.1C35.92 31.39 32.92 33.1 29.92 36.1C28.92 37.1 26.92 37.1 25.92 37.1C24.92 37.1 22.92 37.1 21.92 36.1C18.92 33.1 15.92 31.38 15.92 29.1C15.92 28.79 15.92 27.1 15.92 27.1C13.92 27.1 13.29 24.86 12.92 23.1C12.46 20.96 13 19.15 14.92 19.1V16.1C14.92 9.74004 18.21 5.10004 25.92 5.10004Z" fill="#EDCCC3"/>
<path d="M25.93 5.10004C18.22 5.10004 14.93 9.76004 14.93 16.1V19.1C13.01 19.15 12.47 20.96 12.93 23.1C13.3 24.86 13.93 27.1 15.93 27.1C15.93 27.1 15.93 28.78 15.93 29.1C15.93 30.57 17.14 31.79 18.81 33.27V25.69C18.81 14.57 22.93 11.08 27.21 6.29004C27.51 5.96004 27.84 5.61004 28.21 5.29004C27.4554 5.17278 26.6935 5.10929 25.93 5.10004Z" fill="#E5C2BA"/>
<path d="M25.9299 5.10004C18.2199 5.10004 14.9299 9.76004 14.9299 16.1V18.84C16.4299 19.58 19.8699 20.44 25.9999 20.44C31.9299 20.44 35.3499 19.66 36.9299 18.91V16.12C36.9199 9.76004 33.6299 5.11004 25.9299 5.10004Z" fill="#E5C2BA"/>
<path d="M13.1699 22.36C13.5499 24.13 14.5099 26.61 16.0099 26.61V29.11C16.0099 30.81 17.7599 33.11 20.0099 34.96V31.14C20.0741 30.3928 19.9608 29.641 19.6792 28.9458C19.3977 28.2507 18.9559 27.632 18.3899 27.14C17.9181 26.8038 17.5425 26.35 17.3004 25.8237C17.0584 25.2974 16.9582 24.717 17.0099 24.14V20.61C17.0455 20.3271 17.0203 20.0399 16.9359 19.7677C16.8514 19.4954 16.7098 19.2443 16.5204 19.0312C16.331 18.8181 16.0982 18.648 15.8377 18.5322C15.5772 18.4165 15.295 18.3577 15.0099 18.36C13.1099 18.36 12.7199 20.22 13.1699 22.36Z" fill="#E5C2BA"/>
<path d="M36.9999 18.36V15.36C36.9999 9.00001 33.7199 4.61001 25.9999 4.61001C24.994 4.60358 23.9897 4.69062 22.9999 4.87001V16.3C22.9762 16.6486 22.8671 16.986 22.6823 17.2824C22.4974 17.5789 22.2425 17.8253 21.9399 18C21.9019 18.0221 21.8718 18.0556 21.8538 18.0958C21.8358 18.1359 21.8309 18.1807 21.8397 18.2238C21.8486 18.2669 21.8707 18.3061 21.903 18.3359C21.9354 18.3657 21.9763 18.3847 22.0199 18.39C22.6316 18.4532 23.2205 18.6567 23.7408 18.9844C24.2611 19.3122 24.6988 19.7556 25.0199 20.28C25.2851 20.28 25.5395 20.3854 25.727 20.5729C25.9146 20.7604 26.0199 21.0148 26.0199 21.28V23.28C26.0323 23.5172 26.097 23.7486 26.2094 23.9578C26.3218 24.167 26.479 24.3487 26.6699 24.49C26.781 24.585 26.8699 24.7032 26.9303 24.8362C26.9908 24.9692 27.0214 25.1139 27.0199 25.26C27.0199 25.5252 26.9146 25.7796 26.727 25.9671C26.5395 26.1547 26.2851 26.26 26.0199 26.26C25.2799 26.26 25.0199 25.76 24.0199 25.76C23.4299 25.76 23.5199 26.53 23.4999 26.51C23.8492 26.5157 24.1921 26.6048 24.4999 26.77C24.9571 27.0292 25.4744 27.1636 25.9999 27.16V30.63C25.9965 30.8764 26.0782 31.1164 26.2312 31.3096C26.3842 31.5027 26.5993 31.6371 26.8399 31.69C27.1968 31.7469 27.5176 31.9405 27.7341 32.2299C27.9507 32.5192 28.046 32.8815 27.9999 33.24C27.9999 35.99 23.0899 33.87 23.0499 36.82C24.0159 37.0484 25.0077 37.1492 25.9999 37.12C27.1075 37.189 28.2167 37.0149 29.2499 36.61C32.5699 34.86 35.9999 31.4 35.9999 29.11V26.61C37.4999 26.61 38.6099 24.13 38.9999 22.36C39.4499 20.22 38.9199 18.41 36.9999 18.36Z" fill="#E5C2BA"/>
<path d="M36.9999 18.36C36.7295 18.3279 36.4553 18.3575 36.198 18.4466C35.9407 18.5357 35.707 18.6821 35.5145 18.8746C35.322 19.0672 35.1756 19.3009 35.0865 19.5582C34.9973 19.8155 34.9677 20.0896 34.9999 20.36V24.15C35.0516 24.727 34.9514 25.3075 34.7093 25.8338C34.4672 26.36 34.0916 26.8138 33.6199 27.15C33.0538 27.642 32.612 28.2608 32.3305 28.9559C32.049 29.651 31.9357 30.4028 31.9999 31.15V34.78C34.2199 33 35.9999 30.78 35.9999 29.12V26.62C37.4999 26.62 38.6099 24.14 38.9999 22.37C39.4499 20.22 38.9199 18.38 36.9999 18.36Z" fill="#D8B3AD"/>
<path d="M27.4501 29.34C27.052 29.2942 26.6487 29.3386 26.2701 29.47C26.1329 29.51 25.9872 29.51 25.8501 29.47C25.4712 29.34 25.0682 29.2956 24.6701 29.34C24.0001 29.43 23.9301 29.86 22.5801 30.59L23.7701 31.32C24.141 31.5843 24.5846 31.7274 25.0401 31.73H27.1001C27.5555 31.7274 27.9991 31.5843 28.3701 31.32L29.6001 30.62C28.2501 29.89 28.1201 29.43 27.4501 29.34Z" fill="#D6B3B0"/>
<path d="M29.6001 30.62C28.6001 30.62 28.3501 30.23 27.3601 30.23C26.9289 30.2445 26.5001 30.3015 26.0801 30.4C25.6566 30.3018 25.2246 30.2448 24.7901 30.23C23.8401 30.23 23.6401 30.59 22.5801 30.59" stroke="#AF8582" stroke-width="0.6" stroke-miterlimit="10" stroke-linecap="round"/>
<path d="M25.92 5.09998C33.63 5.09998 36.92 9.75998 36.92 16.1V19.1C38.83 19.15 39.37 20.96 38.92 23.1C38.54 24.86 37.92 27.1 35.92 27.1C35.92 27.1 35.92 28.78 35.92 29.1C35.92 31.39 32.92 33.1 29.92 36.1C28.92 37.1 26.92 37.1 25.92 37.1C24.92 37.1 22.92 37.1 21.92 36.1C18.92 33.1 15.92 31.38 15.92 29.1C15.92 28.79 15.92 27.1 15.92 27.1C13.92 27.1 13.29 24.86 12.92 23.1C12.46 20.96 13 19.15 14.92 19.1V16.1C14.92 9.73998 18.21 5.09998 25.92 5.09998V5.09998Z" stroke="#333333" stroke-width="1.5" stroke-linejoin="round"/>
<path d="M29 53.12L34 38.12" stroke="#343433" stroke-width="1.5" stroke-linejoin="round"/>
<path d="M42 40.12V51.12" stroke="#343433" stroke-width="1.5" stroke-linejoin="round"/>
<path d="M16.9 44.4C16.9141 44.3161 16.9575 44.2399 17.0225 44.1849C17.0875 44.1299 17.1698 44.0998 17.255 44.0998C17.3401 44.0998 17.4224 44.1299 17.4874 44.1849C17.5524 44.2399 17.5958 44.3161 17.61 44.4C17.6616 44.3986 17.7129 44.4078 17.7608 44.4269C17.8088 44.446 17.8523 44.4747 17.8888 44.5112C17.9253 44.5477 17.954 44.5912 17.9731 44.6391C17.9922 44.6871 18.0013 44.7384 18 44.79C18 44.8934 17.9589 44.9926 17.8857 45.0658C17.8126 45.1389 17.7134 45.18 17.61 45.18C17.5114 45.1771 17.4166 45.142 17.34 45.08L17.1 45.32C16.9976 45.1481 16.8656 44.9957 16.71 44.87L16.94 44.65C16.9166 44.6132 16.9011 44.5721 16.8942 44.5291C16.8873 44.4861 16.8893 44.4422 16.9 44.4Z" fill="#D6AB56"/>
<path d="M13.5801 45C13.524 45.0501 13.4546 45.083 13.3803 45.0946C13.306 45.1062 13.2299 45.0961 13.1612 45.0655C13.0925 45.0348 13.0341 44.9849 12.9931 44.9219C12.9521 44.8588 12.9302 44.7852 12.9301 44.71C12.9287 44.6584 12.9378 44.6071 12.9569 44.5591C12.9761 44.5112 13.0047 44.4676 13.0412 44.4311C13.0777 44.3947 13.1213 44.366 13.1692 44.3469C13.2171 44.3278 13.2685 44.3186 13.3201 44.32C13.3342 44.2361 13.3776 44.1598 13.4426 44.1049C13.5076 44.0499 13.59 44.0198 13.6751 44.0198C13.7602 44.0198 13.8425 44.0499 13.9075 44.1049C13.9725 44.1598 14.0159 44.2361 14.0301 44.32C14.028 44.397 13.9998 44.4711 13.9501 44.53L14.1701 44.75C14.0194 44.8808 13.8881 45.0323 13.7801 45.2L13.5801 45Z" fill="#D6AB56"/>
<path d="M13.71 49C13.6066 49 13.5074 48.9589 13.4342 48.8857C13.3611 48.8126 13.32 48.7134 13.32 48.61C13.2325 48.6024 13.151 48.5623 13.0917 48.4974C13.0324 48.4326 12.9997 48.3478 13 48.26C13.0026 48.1662 13.0417 48.0772 13.1089 48.0118C13.1761 47.9465 13.2662 47.9099 13.36 47.91C13.4362 47.9067 13.511 47.9316 13.57 47.98L13.85 47.71L14.1 47.89V48.29L14 48.39C14.0675 48.4634 14.1034 48.5603 14.1 48.66C14.0878 48.7545 14.0414 48.8413 13.9695 48.9039C13.8976 48.9666 13.8053 49.0007 13.71 49Z" fill="#D6AB56"/>
<path d="M17.0602 46.28C17.0786 46.0732 17.056 45.8647 16.9939 45.6666C16.9317 45.4685 16.8311 45.2845 16.6979 45.1253C16.5646 44.966 16.4013 44.8346 16.2173 44.7385C16.0332 44.6423 15.832 44.5834 15.6252 44.565C15.4184 44.5466 15.2099 44.5691 15.0118 44.6313C14.8137 44.6935 14.6297 44.794 14.4705 44.9273C14.3112 45.0606 14.1798 45.2239 14.0837 45.4079C13.9875 45.592 13.9286 45.7932 13.9102 46C13.8997 46.083 13.8997 46.167 13.9102 46.25C13.9102 47.38 13.8202 47.17 14.5002 47.62V48.21H14.8902V47.82H15.2902V48.21H15.6802V47.82H16.0702V48.21H16.4702V47.62C17.1602 47.19 17.0602 47.4 17.0602 46.28ZM14.7002 47.06C14.5976 47.0575 14.4998 47.0156 14.4272 46.943C14.3546 46.8704 14.3127 46.7726 14.3102 46.67C14.3102 46.6188 14.3203 46.5681 14.3399 46.5207C14.3595 46.4734 14.3882 46.4304 14.4244 46.3942C14.4606 46.358 14.5036 46.3293 14.5509 46.3097C14.5983 46.2901 14.649 46.28 14.7002 46.28C14.7518 46.2786 14.8031 46.2878 14.851 46.3069C14.899 46.326 14.9425 46.3547 14.979 46.3912C15.0155 46.4276 15.0442 46.4712 15.0633 46.5191C15.0824 46.5671 15.0916 46.6184 15.0902 46.67C15.0902 46.7734 15.0491 46.8726 14.976 46.9458C14.9028 47.0189 14.8036 47.06 14.7002 47.06ZM15.2902 47.46C15.2902 47.24 15.3702 47.06 15.4802 47.06C15.5902 47.06 15.6802 47.24 15.6802 47.46H15.2902ZM16.2902 47.06C16.1876 47.0575 16.0898 47.0156 16.0172 46.943C15.9446 46.8704 15.9027 46.7726 15.9002 46.67C15.9002 46.5666 15.9413 46.4674 16.0144 46.3942C16.0876 46.3211 16.1868 46.28 16.2902 46.28C16.3418 46.2786 16.3931 46.2878 16.441 46.3069C16.489 46.326 16.5325 46.3547 16.569 46.3912C16.6055 46.4276 16.6342 46.4712 16.6533 46.5191C16.6724 46.5671 16.6816 46.6184 16.6802 46.67C16.6815 46.7199 16.673 46.7696 16.6551 46.8162C16.6372 46.8628 16.6104 46.9054 16.576 46.9417C16.5416 46.9779 16.5005 47.007 16.4549 47.0273C16.4093 47.0476 16.3601 47.0587 16.3102 47.06H16.2902Z" fill="#D6AB56"/>
<path d="M36.5 17.87V14.72C36.5 9.00001 34.5 4.20001 26 4.20001C17.5 4.20001 15.5 9.00001 15.5 14.7V17.85C13.39 17.85 12.98 20.77 13.4 23.1C13.83 25 14.97 26.77 16.55 27.3C16.2794 28.2209 16.2011 29.1876 16.32 30.14C16.67 33.62 18.05 32.86 21.24 35.69C22.57 36.87 22.83 36.75 26 36.75C29.17 36.75 29.44 36.87 30.77 35.69C33.96 32.86 34.77 33.35 35.15 29.87C35.32 28.19 35.43 27.32 35.43 27.32C37.01 26.79 38.18 25.02 38.6 23.12C39 20.79 38.62 17.87 36.5 17.87Z" stroke="#333333" stroke-width="1.5" stroke-linejoin="round"/>
<path d="M38.5999 18.9H34.3999V29.4H38.5999V18.9Z" fill="#333333"/>
<path d="M37.89 16.8V16.93C37.9044 17.0215 37.882 17.1149 37.8276 17.1899C37.7733 17.2649 37.6914 17.3152 37.6 17.33C37.5553 17.3386 37.5093 17.3381 37.4648 17.3286C37.4202 17.3191 37.378 17.3008 37.3407 17.2747C37.3034 17.2485 37.2717 17.2152 37.2476 17.1766C37.2234 17.138 37.2072 17.095 37.2 17.05C37.1898 17.0106 37.1898 16.9693 37.2 16.93V16.78C37.2052 16.6889 37.2457 16.6035 37.3129 16.5418C37.3802 16.4802 37.4688 16.4472 37.56 16.45C37.6024 16.4472 37.6448 16.4532 37.6848 16.4676C37.7247 16.4819 37.7613 16.5043 37.7923 16.5334C37.8232 16.5625 37.8478 16.5976 37.8646 16.6365C37.8815 16.6755 37.8901 16.7175 37.89 16.76V16.8Z" fill="#444444"/>
<path d="M35.0001 17.84V18.1C35.0001 18.2512 34.9401 18.3962 34.8332 18.5031C34.7263 18.61 34.5813 18.67 34.4301 18.67C34.2789 18.67 34.134 18.61 34.0271 18.5031C33.9202 18.3962 33.8601 18.2512 33.8601 18.1V17.81C33.88 17.6602 33.9586 17.5244 34.0786 17.4325C34.1987 17.3406 34.3503 17.3001 34.5001 17.32C34.6249 17.3348 34.7411 17.3912 34.83 17.4801C34.9189 17.569 34.9753 17.6852 34.9901 17.81L35.0001 17.84Z" fill="#444444"/>
<path d="M30.74 35.78C30.91 34.99 29.38 36.23 28.62 35.78C27.8841 35.1421 26.969 34.7474 26 34.65C25.0439 34.7509 24.1425 35.1457 23.42 35.78C22.65 36.23 21.12 34.99 21.3 35.78C21.48 36.57 23.11 38.33 26 38.35C28.93 38.33 30.56 36.57 30.74 35.78Z" fill="#343433"/>
<path d="M24.47 32.6L25.77 33.9C25.8299 33.9592 25.9108 33.9924 25.995 33.9924C26.0793 33.9924 26.1601 33.9592 26.22 33.9L27.53 32.6C27.5612 32.5693 27.5859 32.5327 27.6028 32.4923C27.6196 32.452 27.6283 32.4087 27.6283 32.365C27.6283 32.3212 27.6196 32.2779 27.6028 32.2376C27.5859 32.1973 27.5612 32.1607 27.53 32.13C27.469 32.0759 27.3914 32.0442 27.31 32.04H24.7C24.6563 32.0399 24.6129 32.0488 24.5728 32.0661C24.5326 32.0834 24.4964 32.1088 24.4664 32.1407C24.4364 32.1725 24.4132 32.2102 24.3984 32.2514C24.3835 32.2925 24.3773 32.3363 24.38 32.38C24.3798 32.4208 24.3877 32.4612 24.4031 32.4989C24.4185 32.5367 24.4413 32.571 24.47 32.6Z" fill="#343433"/>
<path d="M25.0001 39.66C25.0023 39.4709 24.9509 39.285 24.8518 39.1239C24.7527 38.9628 24.6099 38.8332 24.4401 38.75C24.6175 38.6717 24.7684 38.5436 24.8743 38.3811C24.9802 38.2187 25.0366 38.0289 25.0366 37.835C25.0366 37.641 24.9802 37.4513 24.8743 37.2888C24.7684 37.1264 24.6175 36.9982 24.4401 36.92H23.4401C23.2626 36.9982 23.1117 37.1264 23.0058 37.2888C22.8999 37.4513 22.8435 37.641 22.8435 37.835C22.8435 38.0289 22.8999 38.2187 23.0058 38.3811C23.1117 38.5436 23.2626 38.6717 23.4401 38.75C23.2626 38.8282 23.1117 38.9564 23.0058 39.1188C22.8999 39.2813 22.8435 39.4711 22.8435 39.665C22.8435 39.8589 22.8999 40.0487 23.0058 40.2111C23.1117 40.3736 23.2626 40.5017 23.4401 40.58C23.2655 40.6595 23.1174 40.7876 23.0136 40.949C22.9098 41.1103 22.8547 41.2981 22.8547 41.49C22.8547 41.6818 22.9098 41.8696 23.0136 42.031C23.1174 42.1924 23.2655 42.3204 23.4401 42.4C23.2626 42.4782 23.1117 42.6064 23.0058 42.7688C22.8999 42.9313 22.8435 43.121 22.8435 43.315C22.8435 43.5089 22.8999 43.6987 23.0058 43.8611C23.1117 44.0236 23.2626 44.1517 23.4401 44.23C23.1947 44.3626 23.0121 44.5872 22.9324 44.8545C22.8527 45.1217 22.8824 45.4097 23.0151 45.655C23.1477 45.9003 23.3723 46.0829 23.6395 46.1626C23.9068 46.2423 24.1947 46.2126 24.4401 46.08C24.5619 46.014 24.6695 45.9247 24.7566 45.8169C24.8438 45.7092 24.9087 45.5853 24.9478 45.4524C24.9868 45.3195 24.9992 45.1802 24.9841 45.0424C24.969 44.9047 24.9269 44.7713 24.8601 44.65C24.7658 44.4707 24.6194 44.3242 24.4401 44.23C24.6175 44.1517 24.7684 44.0236 24.8743 43.8611C24.9802 43.6987 25.0366 43.5089 25.0366 43.315C25.0366 43.121 24.9802 42.9313 24.8743 42.7688C24.7684 42.6064 24.6175 42.4782 24.4401 42.4C24.6146 42.3204 24.7627 42.1924 24.8665 42.031C24.9703 41.8696 25.0254 41.6818 25.0254 41.49C25.0254 41.2981 24.9703 41.1103 24.8665 40.949C24.7627 40.7876 24.6146 40.6595 24.4401 40.58C24.6115 40.4961 24.7553 40.3648 24.8545 40.2018C24.9537 40.0388 25.0042 39.8508 25.0001 39.66Z" fill="#343433"/>
<path d="M29.15 39.66C29.1522 39.4709 29.1008 39.285 29.0017 39.1239C28.9026 38.9628 28.7598 38.8332 28.59 38.75C28.7674 38.6717 28.9183 38.5436 29.0242 38.3811C29.1301 38.2187 29.1865 38.0289 29.1865 37.835C29.1865 37.641 29.1301 37.4513 29.0242 37.2888C28.9183 37.1264 28.7674 36.9982 28.59 36.92H27.59C27.4125 36.9982 27.2616 37.1264 27.1557 37.2888C27.0498 37.4513 26.9934 37.641 26.9934 37.835C26.9934 38.0289 27.0498 38.2187 27.1557 38.3811C27.2616 38.5436 27.4125 38.6717 27.59 38.75C27.4697 38.8031 27.3612 38.8794 27.2705 38.9745C27.1798 39.0696 27.1087 39.1817 27.0613 39.3043C27.014 39.4269 26.9912 39.5576 26.9944 39.689C26.9976 39.8204 27.0267 39.9498 27.08 40.07C27.1806 40.2975 27.3624 40.4793 27.59 40.58C27.4154 40.6595 27.2673 40.7876 27.1635 40.949C27.0598 41.1103 27.0046 41.2981 27.0046 41.49C27.0046 41.6818 27.0598 41.8696 27.1635 42.031C27.2673 42.1924 27.4154 42.3204 27.59 42.4C27.4125 42.4782 27.2616 42.6064 27.1557 42.7688C27.0498 42.9313 26.9934 43.121 26.9934 43.315C26.9934 43.5089 27.0498 43.6987 27.1557 43.8611C27.2616 44.0236 27.4125 44.1517 27.59 44.23C27.3446 44.3626 27.162 44.5872 27.0823 44.8545C27.0026 45.1217 27.0323 45.4097 27.165 45.655C27.2976 45.9003 27.5222 46.0829 27.7894 46.1626C28.0567 46.2423 28.3446 46.2126 28.59 46.08C28.711 46.0132 28.8176 45.9232 28.9037 45.8151C28.9898 45.707 29.0538 45.583 29.0919 45.4501C29.13 45.3173 29.1415 45.1782 29.1257 45.0409C29.1099 44.9036 29.0672 44.7707 29 44.65C28.9057 44.4707 28.7593 44.3242 28.58 44.23C28.7574 44.1517 28.9083 44.0236 29.0142 43.8611C29.1201 43.6987 29.1765 43.5089 29.1765 43.315C29.1765 43.121 29.1201 42.9313 29.0142 42.7688C28.9083 42.6064 28.7574 42.4782 28.58 42.4C28.7545 42.3204 28.9026 42.1924 29.0064 42.031C29.1102 41.8696 29.1653 41.6818 29.1653 41.49C29.1653 41.2981 29.1102 41.1103 29.0064 40.949C28.9026 40.7876 28.7545 40.6595 28.58 40.58C28.7532 40.4975 28.8991 40.3669 29.0002 40.2038C29.1012 40.0406 29.1532 39.8519 29.15 39.66Z" fill="#343433"/>
<path d="M40 17.74C35.3676 18.4479 30.6859 18.7823 26 18.74C17.6 18.74 14.45 17.74 14.45 17.74V12.5C14.45 12.5 16.55 5.12 26 5.12C28.7553 5.1204 31.4692 5.79053 33.908 7.07266C36.3469 8.35479 38.4375 10.2105 40 12.48V17.74Z" fill="#E16251"/>
<path d="M14.45 12.5V17.74C14.45 17.74 15.35 18.21 18.99 18.5C20.1899 11.78 22.41 7.89998 24.99 5.16998C16.42 5.67998 14.45 12.5 14.45 12.5Z" fill="#D1574A"/>
<path d="M39.9 17.74C35.3014 18.4499 30.6527 18.7844 26 18.74C17.6 18.74 14.45 17.74 14.45 17.74V12.5C14.45 12.5 16.55 5.12 26 5.12C28.7414 5.12037 31.4411 5.79121 33.8638 7.07404C36.2866 8.35688 38.3588 10.2128 39.9 12.48V17.74Z" stroke="#343433" stroke-width="1.5" stroke-linecap="round" stroke-linejoin="round"/>
<path fill-rule="evenodd" clip-rule="evenodd" d="M31.59 30.15C31.09 27.39 27.59 27.86 26 27.15C24.47 27.85 20.9 27.46 20.42 30.15C20.2335 30.9156 20.3556 31.7238 20.76 32.4C21.18 31.22 21.48 29.89 22.67 29.58C23.86 29.27 26 29.13 26 28.27C26 29.12 28.1 29.27 29.34 29.58C30.58 29.89 30.83 31.22 31.25 32.4C31.6494 31.722 31.7712 30.9158 31.59 30.15Z" fill="#343433"/>
<path d="M23.9001 44.11C24.3364 44.11 24.6901 43.7563 24.6901 43.32C24.6901 42.8837 24.3364 42.53 23.9001 42.53C23.4638 42.53 23.1101 42.8837 23.1101 43.32C23.1101 43.7563 23.4638 44.11 23.9001 44.11Z" fill="#D6AB56" stroke="#333333" stroke-width="0.525" stroke-miterlimit="10"/>
<path d="M28.1001 44.11C28.5364 44.11 28.8901 43.7563 28.8901 43.32C28.8901 42.8837 28.5364 42.53 28.1001 42.53C27.6638 42.53 27.3101 42.8837 27.3101 43.32C27.3101 43.7563 27.6638 44.11 28.1001 44.11Z" fill="#D6AB56" stroke="#333333" stroke-width="0.525" stroke-miterlimit="10"/>
<path d="M25.9999 0C21.7999 0 19.6399 2.27 19.3899 2.65C8.99994 2.6 11.9999 12.6 5.99994 17.6L9.23994 16.8C6.08994 22.03 8.18994 24.13 5.93994 28.05C7.01985 27.9492 8.03769 27.4999 8.83994 26.77C7.57161 28.4118 6.92036 30.4469 6.99994 32.52C6.99994 33.85 7.17994 35.13 7.17994 36.32C7.20715 37.7474 6.78376 39.147 5.96994 40.32C9.51994 39.32 14.5399 37.99 17.6699 37.32V25.69C17.6399 5.1 25.9999 4.61 25.9999 4.61C29.6199 4.53 35.2899 6.16 39.5299 11.81V10.5C39.5299 7 35.4499 0 25.9999 0Z" fill="#343433"/>
<path d="M26 5.12C28.7414 5.12037 31.4411 5.79121 33.8639 7.07404C36.2866 8.35688 38.3589 10.2128 39.9 12.48V17.72C35.3015 18.4299 30.6528 18.7644 26 18.72" stroke="#343433" stroke-width="1.5" stroke-linecap="round" stroke-linejoin="round"/>
<path d="M17.2101 31C17.2061 30.5774 17.0458 30.1713 16.7601 29.86C16.9584 29.5864 17.0667 29.2579 17.0701 28.92V28.67C17.0683 28.4459 17.0204 28.2245 16.9292 28.0198C16.838 27.815 16.7055 27.6313 16.5401 27.48C16.7971 27.2097 16.9434 26.8529 16.9501 26.48V26.32C16.9502 26.0969 16.8999 25.8768 16.8029 25.6759C16.706 25.475 16.5648 25.2987 16.3901 25.16C16.5232 25.0302 16.6282 24.8745 16.6987 24.7025C16.7692 24.5305 16.8037 24.3459 16.8001 24.16V24.04C16.8001 23.682 16.6579 23.3386 16.4047 23.0854C16.1515 22.8322 15.8082 22.69 15.4501 22.69C15.0921 22.69 14.7487 22.8322 14.4955 23.0854C14.2424 23.3386 14.1001 23.682 14.1001 24.04V24.16C14.0946 24.3452 14.1273 24.5296 14.1961 24.7016C14.2649 24.8737 14.3684 25.0297 14.5001 25.16C14.3387 25.3043 14.2105 25.4817 14.1242 25.6802C14.0379 25.8788 13.9956 26.0936 14.0001 26.31V26.47C14.0031 26.8417 14.1459 27.1987 14.4001 27.47C14.2078 27.65 14.0605 27.8726 13.9701 28.12C13.9048 27.8523 13.7742 27.605 13.5901 27.4C13.817 27.1161 13.9404 26.7634 13.9401 26.4V26.14C13.9385 25.7434 13.7887 25.3618 13.5201 25.07C13.7228 24.8095 13.8351 24.49 13.8401 24.16V24C13.8381 23.7846 13.7897 23.5722 13.6982 23.3773C13.6068 23.1823 13.4744 23.0093 13.3101 22.87C13.5587 22.6201 13.6988 22.2824 13.7001 21.93V21.79C13.7057 21.6051 13.6733 21.421 13.6048 21.2492C13.5363 21.0773 13.4332 20.9214 13.3019 20.791C13.1706 20.6607 13.014 20.5587 12.8416 20.4915C12.6693 20.4242 12.485 20.3931 12.3001 20.4C12.0353 20.3977 11.7758 20.4745 11.5549 20.6206C11.3339 20.7667 11.1617 20.9754 11.0601 21.22C10.9397 21.0234 10.7706 20.8612 10.5691 20.7491C10.3676 20.637 10.1407 20.5787 9.91012 20.58C9.55208 20.58 9.2087 20.7222 8.95553 20.9754C8.70235 21.2286 8.56012 21.572 8.56012 21.93V22.08C8.55926 22.428 8.69582 22.7622 8.94012 23.01C8.77712 23.1454 8.646 23.315 8.55612 23.5069C8.46623 23.6988 8.4198 23.9081 8.42012 24.12V24.36C8.41216 24.7264 8.54044 25.0827 8.78012 25.36C8.5012 25.65 8.34686 26.0376 8.35012 26.44V26.64C8.3515 26.9782 8.46003 27.3073 8.66012 27.58C8.40208 27.8767 8.26002 28.2568 8.26012 28.65V28.9C8.2476 29.2588 8.35686 29.6112 8.57012 29.9C8.32311 30.2018 8.18876 30.58 8.19012 30.97V31C8.2016 31.3647 8.33147 31.7157 8.56012 32C8.31312 32.3056 8.17893 32.687 8.18012 33.08V33.35C8.17496 33.7048 8.27594 34.053 8.47012 34.35C8.27538 34.6462 8.17753 34.9957 8.19012 35.35V35.53C8.19263 35.954 8.34899 36.3626 8.63012 36.68C8.3873 36.9988 8.25716 37.3892 8.26012 37.79C8.26049 38.223 8.429 38.6389 8.73012 38.95C8.48879 39.2277 8.3541 39.5821 8.35012 39.95V40.12C8.35115 40.5264 8.50873 40.9168 8.79012 41.21C8.57477 41.4719 8.45801 41.8009 8.46012 42.14V42.35C8.45918 42.5537 8.50147 42.7553 8.58422 42.9415C8.66696 43.1277 8.78826 43.2942 8.94012 43.43C8.70368 43.6781 8.57127 44.0073 8.57012 44.35V44.48C8.57012 44.838 8.71235 45.1814 8.96553 45.4346C9.2187 45.6878 9.56208 45.83 9.92012 45.83C10.2782 45.83 10.6215 45.6878 10.8747 45.4346C11.1279 45.1814 11.2701 44.838 11.2701 44.48V44.35C11.262 44.0165 11.1342 43.6971 10.9101 43.45C11.0502 43.3261 11.1656 43.1768 11.2501 43.01C11.37 43.1836 11.5296 43.3259 11.7158 43.4251C11.902 43.5243 12.1092 43.5774 12.3201 43.58C12.5918 43.5713 12.8553 43.4847 13.0793 43.3306C13.3033 43.1765 13.4783 42.9614 13.5836 42.7108C13.6889 42.4602 13.7201 42.1846 13.6734 41.9168C13.6266 41.649 13.504 41.4002 13.3201 41.2C13.4862 41.0617 13.6205 40.8891 13.7137 40.6941C13.8069 40.499 13.8568 40.2861 13.8601 40.07V39.83C13.8573 39.4853 13.7334 39.1526 13.5101 38.89C13.6817 38.7068 13.8114 38.4884 13.8901 38.25C13.8895 38.4655 13.9316 38.679 14.014 38.8781C14.0964 39.0772 14.2174 39.258 14.3701 39.41C14.1332 39.6882 14.0084 40.0447 14.0201 40.41V40.66C14.0195 40.8821 14.0686 41.1016 14.1638 41.3023C14.2589 41.503 14.3978 41.6799 14.5701 41.82C14.3012 42.1028 14.154 42.4798 14.1601 42.87C14.1588 43.0481 14.1927 43.2247 14.26 43.3897C14.3273 43.5546 14.4265 43.7046 14.552 43.8311C14.6775 43.9575 14.8267 44.0578 14.9912 44.1263C15.1556 44.1948 15.332 44.23 15.5101 44.23C15.7878 44.2265 16.0583 44.1417 16.2882 43.9861C16.5181 43.8304 16.6974 43.6108 16.8038 43.3543C16.9102 43.0979 16.9391 42.8159 16.8869 42.5431C16.8347 42.2704 16.7037 42.019 16.5101 41.82C16.6697 41.6748 16.7961 41.4969 16.8806 41.2985C16.9652 41.1 17.0059 40.8856 17.0001 40.67V40.42C17.0073 40.0519 16.8751 39.6948 16.6301 39.42C16.9343 39.1141 17.1066 38.7013 17.1101 38.27V38.02C17.1068 37.6555 16.9799 37.303 16.7501 37.02C17.0433 36.7045 17.2074 36.2906 17.2101 35.86V35.52C17.2168 35.1635 17.1119 34.8139 16.9101 34.52C17.0981 34.2387 17.199 33.9083 17.2001 33.57V33.3C17.188 32.9371 17.0621 32.5873 16.8401 32.3C17.0694 32.016 17.1994 31.6648 17.2101 31.3V31Z" fill="#343433"/>
<path d="M10.2601 21.93C10.2601 21.7367 10.1034 21.58 9.91006 21.58C9.71676 21.58 9.56006 21.7367 9.56006 21.93V22.08C9.56006 22.2733 9.71676 22.43 9.91006 22.43C10.1034 22.43 10.2601 22.2733 10.2601 22.08V21.93Z" fill="#444444"/>
<path d="M12.65 21.75C12.65 21.5567 12.4932 21.4 12.2999 21.4C12.1066 21.4 11.95 21.5567 11.95 21.75V21.89C11.95 22.0833 12.1066 22.24 12.2999 22.24C12.4932 22.24 12.65 22.0833 12.65 21.89V21.75Z" fill="#444444"/>
<path d="M10.3699 24.12C10.3699 23.8549 10.1573 23.64 9.89492 23.64C9.63259 23.64 9.41992 23.8549 9.41992 24.12V24.35C9.41992 24.6151 9.63259 24.83 9.89492 24.83C10.1573 24.83 10.3699 24.6151 10.3699 24.35V24.12Z" fill="#444444"/>
<path d="M12.79 23.96C12.79 23.6839 12.5662 23.46 12.29 23.46C12.0139 23.46 11.79 23.6839 11.79 23.96V24.19C11.79 24.4662 12.0139 24.69 12.29 24.69C12.5662 24.69 12.79 24.4662 12.79 24.19V23.96Z" fill="#444444"/>
<path d="M15.8001 24.06C15.8001 23.8667 15.6434 23.71 15.4501 23.71C15.2568 23.71 15.1001 23.8667 15.1001 24.06V24.18C15.1001 24.3733 15.2568 24.53 15.4501 24.53C15.6434 24.53 15.8001 24.3733 15.8001 24.18V24.06Z" fill="#444444"/>
<path d="M10.4801 26.4C10.4801 26.0852 10.2271 25.83 9.9151 25.83C9.60306 25.83 9.3501 26.0852 9.3501 26.4V26.6C9.3501 26.9148 9.60306 27.17 9.9151 27.17C10.2271 27.17 10.4801 26.9148 10.4801 26.6V26.4Z" fill="#444444"/>
<path d="M12.8899 26.19C12.8899 25.8587 12.6236 25.59 12.295 25.59C11.9663 25.59 11.7 25.8587 11.7 26.19V26.44C11.7 26.7714 11.9663 27.04 12.295 27.04C12.6236 27.04 12.8899 26.7714 12.8899 26.44V26.19Z" fill="#444444"/>
<path d="M15.95 26.3C15.95 26.0238 15.7261 25.8 15.45 25.8C15.1738 25.8 14.95 26.0238 14.95 26.3V26.47C14.95 26.7461 15.1738 26.97 15.45 26.97C15.7261 26.97 15.95 26.7461 15.95 26.47V26.3Z" fill="#444444"/>
<path d="M16.0701 28.68C16.0701 28.3376 15.7925 28.06 15.4501 28.06C15.1077 28.06 14.8301 28.3376 14.8301 28.68V28.93C14.8301 29.2724 15.1077 29.55 15.4501 29.55C15.7925 29.55 16.0701 29.2724 16.0701 28.93V28.68Z" fill="#444444"/>
<path d="M12.9799 28.55C12.9799 28.1744 12.6777 27.87 12.3049 27.87C11.9321 27.87 11.6299 28.1744 11.6299 28.55V28.72C11.6299 29.0956 11.9321 29.4 12.3049 29.4C12.6777 29.4 12.9799 29.0956 12.9799 28.72V28.55Z" fill="#444444"/>
<path d="M10.56 28.61C10.56 28.251 10.269 27.96 9.91001 27.96C9.55102 27.96 9.26001 28.251 9.26001 28.61V28.85C9.26001 29.209 9.55102 29.5 9.91001 29.5C10.269 29.5 10.56 29.209 10.56 28.85V28.61Z" fill="#444444"/>
<path d="M9.90994 30.16H9.89994C9.50782 30.16 9.18994 30.4779 9.18994 30.87V31.02C9.18994 31.4121 9.50782 31.73 9.89994 31.73H9.90994C10.3021 31.73 10.6199 31.4121 10.6199 31.02V30.87C10.6199 30.4779 10.3021 30.16 9.90994 30.16Z" fill="#444444"/>
<path d="M13.0301 30.72C13.0301 30.3168 12.7032 29.99 12.3001 29.99C11.8969 29.99 11.5701 30.3168 11.5701 30.72V31.01C11.5701 31.4132 11.8969 31.74 12.3001 31.74C12.7032 31.74 13.0301 31.4132 13.0301 31.01V30.72Z" fill="#444444"/>
<path d="M15.51 30.31H15.5C15.1135 30.31 14.8 30.6234 14.8 31.01V31.28C14.8 31.6666 15.1135 31.98 15.5 31.98H15.51C15.8966 31.98 16.21 31.6666 16.21 31.28V31.01C16.21 30.6234 15.8966 30.31 15.51 30.31Z" fill="#444444"/>
<path d="M10.6699 33.16C10.6699 32.7458 10.3364 32.41 9.92493 32.41C9.51348 32.41 9.17993 32.7458 9.17993 33.16V33.42C9.17993 33.8342 9.51348 34.17 9.92493 34.17C10.3364 34.17 10.6699 33.8342 10.6699 33.42V33.16Z" fill="#444444"/>
<path d="M13.0501 33.01C13.0501 32.5958 12.7165 32.26 12.3051 32.26C11.8936 32.26 11.5601 32.5958 11.5601 33.01V33.27C11.5601 33.6842 11.8936 34.02 12.3051 34.02C12.7165 34.02 13.0501 33.6842 13.0501 33.27V33.01Z" fill="#444444"/>
<path d="M16.1999 33.36C16.1999 32.9402 15.8597 32.6 15.4399 32.6C15.0202 32.6 14.6799 32.9402 14.6799 33.36V33.63C14.6799 34.0497 15.0202 34.39 15.4399 34.39C15.8597 34.39 16.1999 34.0497 16.1999 33.63V33.36Z" fill="#444444"/>
<path d="M16.21 35.55C16.21 35.1468 15.8832 34.82 15.48 34.82C15.0768 34.82 14.75 35.1468 14.75 35.55V35.89C14.75 36.2932 15.0768 36.62 15.48 36.62C15.8832 36.62 16.21 36.2932 16.21 35.89V35.55Z" fill="#444444"/>
<path d="M13.0299 35.28C13.0299 34.8934 12.7187 34.58 12.3349 34.58C11.9511 34.58 11.6399 34.8934 11.6399 35.28V35.46C11.6399 35.8466 11.9511 36.16 12.3349 36.16C12.7187 36.16 13.0299 35.8466 13.0299 35.46V35.28Z" fill="#444444"/>
<path d="M10.6699 35.34C10.6699 34.9313 10.3386 34.6 9.92994 34.6C9.52125 34.6 9.18994 34.9313 9.18994 35.34V35.52C9.18994 35.9287 9.52125 36.26 9.92994 36.26C10.3386 36.26 10.6699 35.9287 10.6699 35.52V35.34Z" fill="#444444"/>
<path d="M9.94001 37.02H9.93001C9.55998 37.02 9.26001 37.32 9.26001 37.69V37.79C9.26001 38.1601 9.55998 38.46 9.93001 38.46H9.94001C10.31 38.46 10.61 38.1601 10.61 37.79V37.69C10.61 37.32 10.31 37.02 9.94001 37.02Z" fill="#444444"/>
<path d="M12.94 37.55C12.94 37.2186 12.6714 36.95 12.34 36.95C12.0086 36.95 11.74 37.2186 11.74 37.55V37.79C11.74 38.1214 12.0086 38.39 12.34 38.39C12.6714 38.39 12.94 38.1214 12.94 37.79V37.55Z" fill="#444444"/>
<path d="M16.1101 38.06C16.1101 37.7121 15.8303 37.43 15.4851 37.43C15.1399 37.43 14.8601 37.7121 14.8601 38.06V38.3C14.8601 38.6479 15.1399 38.93 15.4851 38.93C15.8303 38.93 16.1101 38.6479 16.1101 38.3V38.06Z" fill="#444444"/>
<path d="M9.9301 39.38H9.9201C9.6053 39.38 9.3501 39.6352 9.3501 39.95V40.13C9.3501 40.4448 9.6053 40.7 9.9201 40.7H9.9301C10.2449 40.7 10.5001 40.4448 10.5001 40.13V39.95C10.5001 39.6352 10.2449 39.38 9.9301 39.38Z" fill="#444444"/>
<path d="M12.8301 39.83C12.8301 39.5594 12.6107 39.34 12.3401 39.34C12.0695 39.34 11.8501 39.5594 11.8501 39.83V40.07C11.8501 40.3406 12.0695 40.56 12.3401 40.56C12.6107 40.56 12.8301 40.3406 12.8301 40.07V39.83Z" fill="#444444"/>
<path d="M16 40.43C16 40.1483 15.7739 39.92 15.495 39.92C15.2161 39.92 14.99 40.1483 14.99 40.43V40.67C14.99 40.9516 15.2161 41.18 15.495 41.18C15.7739 41.18 16 40.9516 16 40.67V40.43Z" fill="#444444"/>
<path d="M15.8399 42.8C15.8399 42.6012 15.6809 42.44 15.4849 42.44C15.2888 42.44 15.1299 42.6012 15.1299 42.8V42.88C15.1299 43.0788 15.2888 43.24 15.4849 43.24C15.6809 43.24 15.8399 43.0788 15.8399 42.88V42.8Z" fill="#444444"/>
<path d="M12.67 42.14C12.67 41.9467 12.5133 41.79 12.32 41.79C12.1267 41.79 11.97 41.9467 11.97 42.14V42.23C11.97 42.4233 12.1267 42.58 12.32 42.58C12.5133 42.58 12.67 42.4233 12.67 42.23V42.14Z" fill="#444444"/>
<path d="M10.42 42.15C10.42 41.8849 10.2051 41.67 9.93996 41.67C9.67486 41.67 9.45996 41.8849 9.45996 42.15V42.36C9.45996 42.6251 9.67486 42.84 9.93996 42.84C10.2051 42.84 10.42 42.6251 10.42 42.36V42.15Z" fill="#444444"/>
<path d="M10.2701 44.36C10.2701 44.1667 10.1134 44.01 9.92007 44.01C9.72677 44.01 9.57007 44.1667 9.57007 44.36V44.48C9.57007 44.6733 9.72677 44.83 9.92007 44.83C10.1134 44.83 10.2701 44.6733 10.2701 44.48V44.36Z" fill="#444444"/>
<path d="M12.7701 30.59H11.93C11.5821 30.59 11.3 30.8721 11.3 31.22V32.39C11.3 32.738 11.5821 33.02 11.93 33.02H12.7701C13.118 33.02 13.4 32.738 13.4 32.39V31.22C13.4 30.8721 13.118 30.59 12.7701 30.59Z" fill="#D6AB56"/>
<path d="M32.3101 8.50003V8.36003C32.3053 8.21872 32.2617 8.08144 32.1841 7.96326C32.1065 7.84507 31.9979 7.75054 31.8701 7.69003C32.005 7.62974 32.1195 7.53142 32.1994 7.40709C32.2793 7.28276 32.3213 7.13782 32.3201 6.99003V6.85003C32.3201 6.64846 32.24 6.45515 32.0975 6.31263C31.9549 6.1701 31.7616 6.09003 31.5601 6.09003C31.3585 6.09003 31.1652 6.1701 31.0227 6.31263C30.8801 6.45515 30.8001 6.64846 30.8001 6.85003V7.00003C30.7996 7.14388 30.8422 7.28459 30.9224 7.40401C31.0026 7.52343 31.1167 7.61608 31.2501 7.67003C31.1204 7.72913 31.0097 7.82305 30.9303 7.94134C30.8508 8.05963 30.8057 8.19765 30.8001 8.34003V8.51003C30.7989 8.65528 30.8411 8.79758 30.9213 8.91871C31.0014 9.03985 31.1159 9.13432 31.2501 9.19003C31.1204 9.24913 31.0097 9.34306 30.9303 9.46134C30.8508 9.57963 30.8057 9.71765 30.8001 9.86003V10.03C30.7993 10.1884 30.8495 10.3429 30.9431 10.4707C31.0367 10.5985 31.1688 10.6929 31.3201 10.74C31.1771 10.7867 31.0539 10.8801 30.9705 11.0053C30.8871 11.1305 30.8482 11.2801 30.8601 11.43V11.57C30.87 11.6985 30.9142 11.8219 30.9881 11.9274C31.062 12.033 31.1628 12.1167 31.2801 12.17C31.1819 12.2217 31.1017 12.302 31.0499 12.4001C30.9981 12.4983 30.9773 12.6098 30.9901 12.72V12.86C31.0008 12.9587 31.0381 13.0527 31.098 13.1319C31.1579 13.2112 31.2381 13.2727 31.3301 13.31C31.2805 13.3444 31.2406 13.391 31.2143 13.4453C31.188 13.4996 31.1762 13.5598 31.1801 13.62V13.68C31.194 13.7615 31.2363 13.8353 31.2994 13.8886C31.3625 13.9419 31.4425 13.9711 31.5251 13.9711C31.6077 13.9711 31.6876 13.9419 31.7508 13.8886C31.8139 13.8353 31.8562 13.7615 31.8701 13.68V13.51C31.8575 13.4197 31.811 13.3374 31.7401 13.28C31.827 13.2421 31.9028 13.1828 31.9606 13.1076C32.0183 13.0324 32.056 12.9438 32.0701 12.85V12.59C32.0586 12.4968 32.0244 12.4079 31.9703 12.3311C31.9162 12.2544 31.844 12.1922 31.7601 12.15C31.8818 12.1049 31.9876 12.0248 32.0641 11.9199C32.1406 11.8149 32.1844 11.6898 32.1901 11.56V11.37C32.1828 11.2355 32.1363 11.1061 32.0563 10.9977C31.9764 10.8893 31.8664 10.8067 31.7401 10.76C31.8938 10.7105 32.0274 10.6128 32.1211 10.4812C32.2148 10.3497 32.2635 10.1915 32.2601 10.03V9.90003C32.2614 9.75731 32.2203 9.61743 32.1419 9.49814C32.0636 9.37884 31.9516 9.28552 31.8201 9.23003C31.9673 9.17412 32.0936 9.07385 32.1813 8.94307C32.2691 8.8123 32.3141 8.65748 32.3101 8.50003Z" fill="#343433"/>
<path d="M30.18 8.12002V8.00002C30.1762 7.84178 30.1284 7.68774 30.0418 7.55523C29.9552 7.42272 29.8334 7.31701 29.69 7.25002C29.8391 7.1813 29.9654 7.07133 30.054 6.93311C30.1426 6.79489 30.1898 6.6342 30.19 6.47002V6.31002C30.19 6.08459 30.1004 5.86839 29.941 5.70898C29.7816 5.54958 29.5654 5.46002 29.34 5.46002C29.1146 5.46002 28.8984 5.54958 28.7389 5.70898C28.5795 5.86839 28.49 6.08459 28.49 6.31002V6.50002C28.491 6.66021 28.5388 6.8166 28.6277 6.94989C28.7166 7.08317 28.8425 7.18751 28.99 7.25002C28.8468 7.31834 28.7247 7.42411 28.6367 7.55614C28.5486 7.68817 28.498 7.84154 28.49 8.00002V8.19002C28.4903 8.35162 28.5378 8.50962 28.6266 8.64463C28.7154 8.77963 28.8417 8.88577 28.99 8.95002C28.8475 9.01666 28.7258 9.12067 28.6378 9.25097C28.5497 9.38127 28.4987 9.533 28.49 9.69002V9.89002C28.4953 10.0637 28.5538 10.2316 28.6575 10.3711C28.7612 10.5106 28.9052 10.6149 29.07 10.67C28.9113 10.7231 28.7748 10.8277 28.6824 10.9672C28.59 11.1067 28.5469 11.2732 28.56 11.44V11.6C28.5693 11.7428 28.6181 11.8803 28.7012 11.9968C28.7842 12.1134 28.898 12.2046 29.03 12.26C28.9215 12.3203 28.8333 12.4114 28.7763 12.5217C28.7194 12.632 28.6963 12.7566 28.71 12.88V13C28.7201 13.1092 28.7599 13.2136 28.8251 13.3017C28.8904 13.3899 28.9785 13.4585 29.08 13.5C29.0253 13.5395 28.9819 13.5926 28.9538 13.6539C28.9258 13.7153 28.9141 13.7828 28.92 13.85V13.91C28.92 14.0108 28.96 14.1075 29.0313 14.1787C29.1026 14.25 29.1992 14.29 29.3 14.29C29.4017 14.2901 29.4994 14.2503 29.5723 14.1794C29.6451 14.1084 29.6874 14.0117 29.69 13.91V13.73C29.67 13.6314 29.6213 13.541 29.55 13.47C29.6459 13.4246 29.729 13.356 29.7919 13.2705C29.8547 13.185 29.8953 13.0851 29.91 12.98V12.7C29.8963 12.5959 29.8573 12.4967 29.7962 12.4113C29.7352 12.3258 29.6541 12.2567 29.56 12.21C29.6978 12.1579 29.8175 12.0668 29.9045 11.9478C29.9915 11.8289 30.0421 11.6872 30.05 11.54V11.34C30.0395 11.191 29.9869 11.048 29.8984 10.9277C29.8099 10.8073 29.6891 10.7145 29.55 10.66C29.7177 10.6015 29.8629 10.4919 29.9652 10.3466C30.0674 10.2013 30.1215 10.0277 30.12 9.85002V9.70002C30.12 9.54348 30.0747 9.39029 29.9895 9.25896C29.9044 9.12763 29.7829 9.0238 29.64 8.96002C29.8062 8.89362 29.9476 8.777 30.0444 8.62643C30.1412 8.47585 30.1886 8.29882 30.18 8.12002Z" fill="#343433"/>
<path d="M21.2401 20C21.1156 20.0056 20.9937 20.0363 20.8815 20.0904C20.7693 20.1445 20.6693 20.2208 20.5875 20.3147C20.5057 20.4086 20.4438 20.5181 20.4055 20.6366C20.3673 20.7551 20.3535 20.8802 20.365 21.0042C20.3765 21.1282 20.4131 21.2486 20.4725 21.358C20.5319 21.4674 20.613 21.5637 20.7107 21.6409C20.8084 21.7181 20.9207 21.7747 21.041 21.8072C21.1612 21.8397 21.2867 21.8475 21.4101 21.83C21.6362 21.8063 21.8456 21.6997 21.9978 21.5307C22.15 21.3618 22.2343 21.1424 22.2343 20.915C22.2343 20.6876 22.15 20.4682 21.9978 20.2993C21.8456 20.1303 21.6362 20.0237 21.4101 20H21.2401Z" fill="#343433"/>
<path d="M30.7301 20C30.912 20 31.0899 20.054 31.2412 20.155C31.3925 20.2561 31.5104 20.3998 31.58 20.5679C31.6497 20.736 31.6679 20.921 31.6324 21.0995C31.5969 21.2779 31.5093 21.4419 31.3806 21.5705C31.2519 21.6992 31.088 21.7868 30.9095 21.8223C30.7311 21.8578 30.5461 21.8396 30.378 21.77C30.2099 21.7003 30.0662 21.5824 29.9651 21.4311C29.864 21.2798 29.8101 21.102 29.8101 20.92C29.8101 20.7992 29.8339 20.6796 29.8801 20.5679C29.9263 20.4563 29.9941 20.3549 30.0795 20.2695C30.1649 20.184 30.2664 20.1163 30.378 20.07C30.4896 20.0238 30.6092 20 30.7301 20Z" fill="#343433"/>
<path d="M23.47 26.51C23.9067 26.5116 24.3362 26.6216 24.72 26.83V26.83C25.1025 27.0419 25.5327 27.153 25.97 27.153C26.4073 27.153 26.8374 27.0419 27.22 26.83V26.83C27.6038 26.6216 28.0333 26.5116 28.47 26.51" stroke="#AF8582" stroke-width="0.75" stroke-miterlimit="10" stroke-linecap="round"/>
<path d="M19.6399 21.57L21.4399 21.52L23.2399 21.57V21.67C22.997 21.9588 22.6883 22.1851 22.3399 22.33C22.0563 22.4551 21.7498 22.5197 21.4399 22.5197C21.13 22.5197 20.8235 22.4551 20.5399 22.33C20.1914 22.1851 19.8828 21.9588 19.6399 21.67V21.57Z" fill="#333333"/>
<path d="M29 21.57L30.8 21.52L32.6 21.57V21.67C32.3571 21.9588 32.0485 22.1851 31.7 22.33C31.4164 22.4551 31.1099 22.5197 30.8 22.5197C30.4901 22.5197 30.1836 22.4551 29.9 22.33C29.5515 22.1851 29.2429 21.9588 29 21.67V21.57Z" fill="#333333"/>
<path d="M41.7098 33.94C41.7062 33.3714 41.4883 32.8251 41.0998 32.41C41.2234 32.1685 41.2885 31.9013 41.2898 31.63V31.41C41.2929 30.9626 41.1206 30.5318 40.8098 30.21C41.0802 29.9034 41.2295 29.5088 41.2298 29.1V28.9C41.227 28.482 41.0704 28.0798 40.7898 27.77C41.0739 27.4664 41.2313 27.0658 41.2298 26.65V26.46C41.2315 26.0266 41.0627 25.6099 40.7598 25.3C40.9945 25.0192 41.1252 24.666 41.1298 24.3V24C41.1291 23.5759 40.96 23.1695 40.6598 22.87C40.9107 22.5966 41.053 22.241 41.0598 21.87V21.61C41.0593 21.3924 41.0126 21.1775 40.923 20.9793C40.8334 20.781 40.7028 20.6041 40.5398 20.46C40.8121 20.1974 40.9702 19.8382 40.9798 19.46V19.19C40.9496 18.8275 40.7843 18.4896 40.5166 18.2433C40.249 17.997 39.8985 17.8603 39.5348 17.8603C39.1711 17.8603 38.8206 17.997 38.5529 18.2433C38.2853 18.4896 38.12 18.8275 38.0898 19.19V19.46C38.0942 19.6483 38.1363 19.8338 38.2136 20.0055C38.2909 20.1773 38.4018 20.3318 38.5398 20.46C38.3749 20.5972 38.2414 20.7682 38.1483 20.9614C38.0551 21.1546 38.0045 21.3655 37.9998 21.58V21.84C38.0103 22.2121 38.156 22.5676 38.4098 22.84C38.2557 22.991 38.1338 23.1716 38.0513 23.3709C37.9688 23.5703 37.9275 23.7843 37.9298 24V24.28C37.9343 24.676 38.0837 25.0566 38.3498 25.35C38.0766 25.6556 37.9238 26.0501 37.9198 26.46V26.65C37.9238 27.0394 38.0655 27.4149 38.3198 27.71C38.1621 27.8656 38.0368 28.0508 37.9509 28.255C37.8651 28.4593 37.8206 28.6785 37.8198 28.9V29.1C37.8226 29.5179 37.9792 29.9202 38.2598 30.23C37.9583 30.5489 37.7902 30.9711 37.7898 31.41V31.63C37.7946 31.902 37.8631 32.1692 37.9898 32.41C37.5878 32.8258 37.363 33.3816 37.363 33.96C37.363 34.5384 37.5878 35.0941 37.9898 35.51C37.8664 35.7408 37.8012 35.9982 37.7998 36.26V36.52C37.8019 36.9188 37.9434 37.3044 38.1998 37.61C37.9832 37.8988 37.8641 38.249 37.8598 38.61V39C37.8632 39.413 38.0159 39.8108 38.2898 40.12C38.0586 40.4021 37.9315 40.7552 37.9298 41.12V41.39C37.9306 41.6095 37.9762 41.8265 38.0639 42.0277C38.1516 42.2289 38.2795 42.41 38.4398 42.56C38.1703 42.8287 38.013 43.1897 37.9998 43.57V43.88C37.9973 44.0869 38.0388 44.2919 38.1215 44.4816C38.2043 44.6712 38.3264 44.8411 38.4798 44.98C38.2202 45.2486 38.0735 45.6065 38.0698 45.98V46.29C38.0705 46.5185 38.1253 46.7436 38.2295 46.9469C38.3338 47.1502 38.4847 47.326 38.6698 47.46C38.5091 47.5968 38.3803 47.7669 38.2922 47.9587C38.2041 48.1504 38.1589 48.359 38.1598 48.57C38.1598 48.7473 38.1947 48.9228 38.2626 49.0866C38.3304 49.2504 38.4298 49.3992 38.5552 49.5246C38.6806 49.6499 38.8294 49.7494 38.9932 49.8172C39.157 49.8851 39.3325 49.92 39.5098 49.92C39.6941 49.9175 39.8759 49.8779 40.0445 49.8036C40.2131 49.7292 40.365 49.6215 40.4911 49.4871C40.6171 49.3527 40.7147 49.1942 40.7781 49.0211C40.8414 48.8481 40.8692 48.664 40.8598 48.48C40.8571 48.2885 40.8128 48.0998 40.7299 47.9271C40.647 47.7544 40.5276 47.6019 40.3798 47.48C40.57 47.3472 40.7255 47.1708 40.8334 46.9654C40.9413 46.7601 40.9984 46.5319 40.9998 46.3V46C40.9954 45.8117 40.9533 45.6262 40.876 45.4544C40.7987 45.2827 40.6878 45.1282 40.5498 45C40.6983 44.8546 40.815 44.68 40.8924 44.4872C40.9699 44.2944 41.0064 44.0877 40.9998 43.88V43.57C40.9931 43.1971 40.8468 42.8403 40.5898 42.57C40.7646 42.4204 40.9052 42.2349 41.0018 42.0261C41.0985 41.8173 41.1489 41.5901 41.1498 41.36V41.09C41.148 40.7252 41.0209 40.3722 40.7898 40.09C41.0679 39.793 41.231 39.4065 41.2498 39V38.67C41.2455 38.309 41.1264 37.9588 40.9098 37.67C41.1626 37.363 41.3005 36.9776 41.2998 36.58V36.32C41.2998 36.0441 41.2311 35.7726 41.0998 35.53C41.5027 35.0998 41.7216 34.5292 41.7098 33.94Z" fill="#333333"/>
<path d="M39.5399 35.16C40.1805 35.16 40.6999 34.6138 40.6999 33.94C40.6999 33.2662 40.1805 32.72 39.5399 32.72C38.8992 32.72 38.3799 33.2662 38.3799 33.94C38.3799 34.6138 38.8992 35.16 39.5399 35.16Z" fill="#D25949"/>
<path d="M39.9798 19.14C39.9798 18.8915 39.7806 18.69 39.5348 18.69C39.2891 18.69 39.0898 18.8915 39.0898 19.14V19.39C39.0898 19.6385 39.2891 19.84 39.5348 19.84C39.7806 19.84 39.9798 19.6385 39.9798 19.39V19.14Z" fill="#444444"/>
<path d="M40.06 21.58C40.06 21.2873 39.8227 21.05 39.53 21.05C39.2373 21.05 39 21.2873 39 21.58V21.84C39 22.1327 39.2373 22.37 39.53 22.37C39.8227 22.37 40.06 22.1327 40.06 21.84V21.58Z" fill="#444444"/>
<path d="M40.1299 24C40.1299 23.6686 39.8613 23.4 39.5299 23.4C39.1986 23.4 38.9299 23.6686 38.9299 24V24.28C38.9299 24.6113 39.1986 24.88 39.5299 24.88C39.8613 24.88 40.1299 24.6113 40.1299 24.28V24Z" fill="#444444"/>
<path d="M40.2299 26.46C40.2299 26.0955 39.9367 25.8 39.5749 25.8C39.2132 25.8 38.9199 26.0955 38.9199 26.46V26.65C38.9199 27.0145 39.2132 27.31 39.5749 27.31C39.9367 27.31 40.2299 27.0145 40.2299 26.65V26.46Z" fill="#444444"/>
<path d="M39.5298 28.2H39.5198C39.1332 28.2 38.8198 28.5134 38.8198 28.9V29.11C38.8198 29.4966 39.1332 29.81 39.5198 29.81H39.5298C39.9164 29.81 40.2298 29.4966 40.2298 29.11V28.9C40.2298 28.5134 39.9164 28.2 39.5298 28.2Z" fill="#444444"/>
<path d="M40.2898 31.41C40.2898 30.9958 39.954 30.66 39.5398 30.66C39.1256 30.66 38.7898 30.9958 38.7898 31.41V31.63C38.7898 32.0442 39.1256 32.38 39.5398 32.38C39.954 32.38 40.2898 32.0442 40.2898 31.63V31.41Z" fill="#444444"/>
<path d="M40.2998 36.27C40.2998 35.8613 39.9708 35.53 39.5648 35.53C39.1589 35.53 38.8298 35.8613 38.8298 36.27V36.52C38.8298 36.9287 39.1589 37.26 39.5648 37.26C39.9708 37.26 40.2998 36.9287 40.2998 36.52V36.27Z" fill="#444444"/>
<path d="M40.2499 38.62C40.2499 38.2444 39.9454 37.94 39.5699 37.94C39.1943 37.94 38.8899 38.2444 38.8899 38.62V38.95C38.8899 39.3256 39.1943 39.63 39.5699 39.63C39.9454 39.63 40.2499 39.3256 40.2499 38.95V38.62Z" fill="#444444"/>
<path d="M40.18 41.07C40.18 40.7331 39.9069 40.46 39.57 40.46C39.2331 40.46 38.96 40.7331 38.96 41.07V41.34C38.96 41.6769 39.2331 41.95 39.57 41.95C39.9069 41.95 40.18 41.6769 40.18 41.34V41.07Z" fill="#444444"/>
<path d="M40.0198 43.57C40.0198 43.2939 39.7982 43.07 39.5248 43.07C39.2514 43.07 39.0298 43.2939 39.0298 43.57V43.88C39.0298 44.1562 39.2514 44.38 39.5248 44.38C39.7982 44.38 40.0198 44.1562 40.0198 43.88V43.57Z" fill="#444444"/>
<path d="M40.0299 45.99C40.0299 45.7359 39.8239 45.53 39.5699 45.53C39.3158 45.53 39.1099 45.7359 39.1099 45.99V46.3C39.1099 46.554 39.3158 46.76 39.5699 46.76C39.8239 46.76 40.0299 46.554 40.0299 46.3V45.99Z" fill="#444444"/>
<path d="M39.9 48.49C39.9 48.2967 39.7432 48.14 39.5499 48.14C39.3566 48.14 39.2 48.2967 39.2 48.49V48.58C39.2 48.7733 39.3566 48.93 39.5499 48.93C39.7432 48.93 39.9 48.7733 39.9 48.58V48.49Z" fill="#444444"/>
<path d="M38.1399 29.53C38.1378 29.1423 38.0077 28.7662 37.7699 28.46C37.9805 28.1687 38.0958 27.8194 38.0999 27.46V27.22C38.0965 26.8339 37.9626 26.4603 37.7199 26.16C37.9613 25.8551 38.0949 25.4788 38.0999 25.09V24.8C38.0973 24.3964 37.9521 24.0068 37.6899 23.7C37.9225 23.418 38.0529 23.0655 38.0599 22.7V22.43C38.0578 22.0419 37.9198 21.6669 37.6699 21.37C37.9004 21.0881 38.0243 20.7341 38.0199 20.37V20.18C38.0199 19.7477 37.8482 19.3331 37.5425 19.0274C37.2368 18.7217 36.8222 18.55 36.3899 18.55C35.9576 18.55 35.543 18.7217 35.2373 19.0274C34.9316 19.3331 34.7599 19.7477 34.7599 20.18V20.37C34.7555 20.7341 34.8794 21.0881 35.1099 21.37C34.86 21.6669 34.722 22.0419 34.7199 22.43V22.7C34.7269 23.0655 34.8573 23.418 35.0899 23.7C34.8277 24.0068 34.6825 24.3964 34.6799 24.8V25.09C34.6833 25.4761 34.8172 25.8497 35.0599 26.15C34.8085 26.4499 34.6705 26.8286 34.6699 27.22V27.46C34.6749 27.8208 34.7939 28.1709 35.0099 28.46C34.7708 28.7616 34.6404 29.1351 34.6399 29.52V29.8C34.6439 30.2046 34.7849 30.5958 35.0399 30.91C34.7943 31.2196 34.6636 31.6048 34.6699 32V32.11C34.6698 32.3514 34.7204 32.5901 34.8186 32.8107C34.9169 33.0312 35.0604 33.2286 35.2399 33.39C35.0733 33.5488 34.9405 33.7396 34.8495 33.9509C34.7584 34.1623 34.7109 34.3899 34.7099 34.62V34.88C34.704 35.2911 34.85 35.6898 35.1199 36C34.8922 36.2841 34.7656 36.6359 34.7599 37V37.18C34.7594 37.3963 34.8026 37.6106 34.8868 37.8099C34.971 38.0092 35.0945 38.1895 35.2499 38.34C34.9999 38.6148 34.8548 38.9688 34.8399 39.34V39.6C34.8271 39.877 34.8879 40.1525 35.0161 40.3984C35.1443 40.6443 35.3354 40.8519 35.5699 41C35.3644 41.1376 35.1958 41.3235 35.079 41.5414C34.9622 41.7594 34.9007 42.0027 34.8999 42.25V42.51C34.9066 42.8829 35.0529 43.2397 35.3099 43.51C35.0916 43.767 34.9712 44.0928 34.9699 44.43V44.71C34.9719 45.0819 35.1149 45.4393 35.3699 45.71C35.1646 45.9691 35.0519 46.2894 35.0499 46.62C35.0499 46.978 35.1921 47.3214 35.4453 47.5746C35.6985 47.8278 36.0419 47.97 36.3999 47.97C36.5833 47.9675 36.7643 47.9282 36.9322 47.8544C37.1001 47.7807 37.2515 47.6739 37.3774 47.5406C37.5033 47.4072 37.6012 47.2499 37.6651 47.0781C37.7291 46.9062 37.7579 46.7232 37.7499 46.54C37.7414 46.2396 37.6322 45.9508 37.4399 45.72C37.7012 45.4525 37.8482 45.0939 37.8499 44.72V44.4C37.8486 44.0628 37.7281 43.737 37.5099 43.48C37.7669 43.2097 37.9132 42.8529 37.9199 42.48V42.2C37.913 41.9619 37.8496 41.7289 37.7348 41.5203C37.6201 41.3116 37.4573 41.1333 37.2599 41C37.4932 40.8548 37.6844 40.651 37.8142 40.4088C37.9441 40.1667 38.0081 39.8947 37.9999 39.62V39.36C37.9997 38.9661 37.8495 38.5871 37.5799 38.3C37.8631 37.9852 38.0136 37.5732 37.9999 37.15V37C37.9942 36.6359 37.8676 36.2841 37.6399 36C37.9088 35.6965 38.0581 35.3055 38.0599 34.9V34.6C38.0589 34.3699 38.0114 34.1423 37.9203 33.9309C37.8293 33.7196 37.6965 33.5288 37.5299 33.37C37.7094 33.2086 37.8529 33.0112 37.9511 32.7907C38.0493 32.5701 38.1 32.3314 38.0999 32.09V32C38.0974 31.6059 37.9598 31.2247 37.7099 30.92C37.9612 30.6122 38.0989 30.2273 38.0999 29.83L38.1399 29.53Z" fill="#333333"/>
<path d="M36.85 44.4C36.85 44.157 36.653 43.96 36.41 43.96C36.167 43.96 35.97 44.157 35.97 44.4V44.68C35.97 44.923 36.167 45.12 36.41 45.12C36.653 45.12 36.85 44.923 36.85 44.68V44.4Z" fill="#444444"/>
<path d="M36.7498 46.5C36.7498 46.3067 36.5931 46.15 36.3998 46.15C36.2065 46.15 36.0498 46.3067 36.0498 46.5V46.58C36.0498 46.7733 36.2065 46.93 36.3998 46.93C36.5931 46.93 36.7498 46.7733 36.7498 46.58V46.5Z" fill="#444444"/>
<path d="M36.9199 42.2C36.9199 41.9183 36.6916 41.69 36.4099 41.69C36.1282 41.69 35.8999 41.9183 35.8999 42.2V42.46C35.8999 42.7417 36.1282 42.97 36.4099 42.97C36.6916 42.97 36.9199 42.7417 36.9199 42.46V42.2Z" fill="#444444"/>
<path d="M36.9898 39.37C36.9898 39.0497 36.7324 38.79 36.4148 38.79C36.0973 38.79 35.8398 39.0497 35.8398 39.37V39.62C35.8398 39.9403 36.0973 40.2 36.4148 40.2C36.7324 40.2 36.9898 39.9403 36.9898 39.62V39.37Z" fill="#444444"/>
<path d="M37.04 36.97C37.04 36.6165 36.7535 36.33 36.4 36.33C36.0466 36.33 35.76 36.6165 35.76 36.97V37.15C35.76 37.5034 36.0466 37.79 36.4 37.79C36.7535 37.79 37.04 37.5034 37.04 37.15V36.97Z" fill="#444444"/>
<path d="M37.1 34.6C37.1 34.2134 36.7888 33.9 36.405 33.9C36.0211 33.9 35.71 34.2134 35.71 34.6V34.85C35.71 35.2366 36.0211 35.55 36.405 35.55C36.7888 35.55 37.1 35.2366 37.1 34.85V34.6Z" fill="#444444"/>
<path d="M36.4099 31.25H36.3999C35.9968 31.25 35.6699 31.5768 35.6699 31.98V32.1C35.6699 32.5032 35.9968 32.83 36.3999 32.83H36.4099C36.8131 32.83 37.1399 32.5032 37.1399 32.1V31.98C37.1399 31.5768 36.8131 31.25 36.4099 31.25Z" fill="#444444"/>
<path d="M37.1399 29.53C37.1399 29.1158 36.8041 28.78 36.3899 28.78C35.9757 28.78 35.6399 29.1158 35.6399 29.53V29.81C35.6399 30.2242 35.9757 30.56 36.3899 30.56C36.8041 30.56 37.1399 30.2242 37.1399 29.81V29.53Z" fill="#444444"/>
<path d="M37.0999 27.22C37.0999 26.8224 36.7798 26.5 36.3849 26.5C35.99 26.5 35.6699 26.8224 35.6699 27.22V27.45C35.6699 27.8476 35.99 28.17 36.3849 28.17C36.7798 28.17 37.0999 27.8476 37.0999 27.45V27.22Z" fill="#444444"/>
<path d="M37.0999 24.79C37.0999 24.3978 36.7821 24.08 36.3899 24.08C35.9978 24.08 35.6799 24.3978 35.6799 24.79V25.08C35.6799 25.4721 35.9978 25.79 36.3899 25.79C36.7821 25.79 37.0999 25.4721 37.0999 25.08V24.79Z" fill="#444444"/>
<path d="M37.06 22.39C37.06 22.0199 36.76 21.72 36.39 21.72C36.0199 21.72 35.72 22.0199 35.72 22.39V22.66C35.72 23.03 36.0199 23.33 36.39 23.33C36.76 23.33 37.06 23.03 37.06 22.66V22.39Z" fill="#444444"/>
<path d="M37.02 20.15C37.02 19.802 36.738 19.52 36.39 19.52C36.0421 19.52 35.76 19.802 35.76 20.15V20.34C35.76 20.6879 36.0421 20.97 36.39 20.97C36.738 20.97 37.02 20.6879 37.02 20.34V20.15Z" fill="#444444"/>
<path d="M44.3498 35.64C44.3498 35.2125 44.1932 34.7999 43.9098 34.48C44.1307 34.1928 44.2534 33.8422 44.2598 33.48V33.21C44.2578 32.9829 44.2098 32.7587 44.1188 32.5507C44.0277 32.3427 43.8954 32.1554 43.7298 32C43.9784 31.7252 44.1203 31.3704 44.1298 31V30.77C44.1283 30.5359 44.0735 30.3053 43.9696 30.0957C43.8656 29.886 43.7152 29.7028 43.5298 29.56C43.6611 29.4293 43.7643 29.2732 43.833 29.1012C43.9018 28.9293 43.9348 28.7451 43.9298 28.56V28.44C43.9007 28.1007 43.7453 27.7847 43.4944 27.5545C43.2435 27.3242 42.9154 27.1965 42.5748 27.1965C42.2343 27.1965 41.9062 27.3242 41.6553 27.5545C41.4044 27.7847 41.249 28.1007 41.2198 28.44V28.56C41.215 28.7469 41.25 28.9327 41.3224 29.1051C41.3948 29.2775 41.503 29.4325 41.6398 29.56C41.4556 29.7038 41.306 29.8872 41.2021 30.0967C41.0982 30.3061 41.0428 30.5362 41.0398 30.77V31C41.053 31.3715 41.1984 31.7261 41.4498 32C41.2808 32.1553 41.1456 32.3438 41.0527 32.5537C40.9598 32.7636 40.9112 32.9904 40.9098 33.22V33.49C40.9168 33.8555 41.0472 34.2079 41.2798 34.49C40.9895 34.8064 40.8289 35.2205 40.8298 35.65V35.92C40.8355 36.3386 40.9876 36.7419 41.2598 37.06C41.0419 37.3481 40.9227 37.6987 40.9198 38.06V38.32C40.9206 38.5439 40.9661 38.7654 41.0537 38.9715C41.1413 39.1775 41.2691 39.364 41.4298 39.52C41.1907 39.799 41.0564 40.1526 41.0498 40.52V40.81C41.0541 41.0417 41.1112 41.2694 41.2169 41.4756C41.3227 41.6819 41.4742 41.8612 41.6598 42C41.5281 42.1303 41.4246 42.2863 41.3558 42.4583C41.287 42.6304 41.2543 42.8148 41.2598 43V43.13C41.2437 43.3177 41.2667 43.5067 41.3275 43.6851C41.3883 43.8634 41.4854 44.0272 41.6128 44.166C41.7402 44.3048 41.8951 44.4157 42.0676 44.4915C42.2401 44.5673 42.4264 44.6065 42.6148 44.6065C42.8033 44.6065 42.9896 44.5673 43.1621 44.4915C43.3346 44.4157 43.4895 44.3048 43.6168 44.166C43.7442 44.0272 43.8414 43.8634 43.9022 43.6851C43.9629 43.5067 43.986 43.3177 43.9698 43.13V43C43.9754 42.8148 43.9427 42.6304 43.8739 42.4583C43.8051 42.2863 43.7016 42.1303 43.5698 42C43.7549 41.8546 43.9049 41.6694 44.0087 41.4583C44.1126 41.2471 44.1677 41.0153 44.1698 40.78V40.49C44.1681 40.1252 44.041 39.7721 43.8098 39.49C43.9708 39.3322 44.0988 39.1439 44.1864 38.9362C44.2739 38.7285 44.3193 38.5054 44.3198 38.28V38.02C44.3271 37.6542 44.2147 37.2961 43.9998 37C44.2584 36.6918 44.4001 36.3023 44.3998 35.9L44.3498 35.64Z" fill="#343433"/>
<path d="M42.93 28.4C42.93 28.2012 42.771 28.04 42.575 28.04C42.3789 28.04 42.22 28.2012 42.22 28.4V28.51C42.22 28.7088 42.3789 28.87 42.575 28.87C42.771 28.87 42.93 28.7088 42.93 28.51V28.4Z" fill="#444444"/>
<path d="M42.5898 30.15H42.5798C42.2816 30.15 42.0398 30.3917 42.0398 30.69V30.93C42.0398 31.2282 42.2816 31.47 42.5798 31.47H42.5898C42.888 31.47 43.1298 31.2282 43.1298 30.93V30.69C43.1298 30.3917 42.888 30.15 42.5898 30.15Z" fill="#444444"/>
<path d="M43.2599 33.1899C43.2599 32.8144 42.9577 32.5099 42.5849 32.5099C42.2121 32.5099 41.9099 32.8144 41.9099 33.1899V33.45C41.9099 33.8255 42.2121 34.13 42.5849 34.13C42.9577 34.13 43.2599 33.8255 43.2599 33.45V33.1899Z" fill="#444444"/>
<path d="M43.3498 35.64C43.3498 35.2203 43.0096 34.88 42.5898 34.88C42.1701 34.88 41.8298 35.2203 41.8298 35.64V35.91C41.8298 36.3297 42.1701 36.67 42.5898 36.67C43.0096 36.67 43.3498 36.3297 43.3498 35.91V35.64Z" fill="#444444"/>
<path d="M43.3199 38.06C43.3199 37.6734 43.0065 37.36 42.6199 37.36C42.2333 37.36 41.9199 37.6734 41.9199 38.06V38.32C41.9199 38.7066 42.2333 39.02 42.6199 39.02C43.0065 39.02 43.3199 38.7066 43.3199 38.32V38.06Z" fill="#444444"/>
<path d="M43.1698 40.53C43.1698 40.2207 42.9191 39.97 42.6098 39.97C42.3005 39.97 42.0498 40.2207 42.0498 40.53V40.82C42.0498 41.1292 42.3005 41.38 42.6098 41.38C42.9191 41.38 43.1698 41.1292 43.1698 40.82V40.53Z" fill="#444444"/>
<path d="M42.97 43.01C42.97 42.8111 42.8111 42.65 42.615 42.65C42.419 42.65 42.26 42.8111 42.26 43.01V43.13C42.26 43.3288 42.419 43.49 42.615 43.49C42.8111 43.49 42.97 43.3288 42.97 43.13V43.01Z" fill="#444444"/>
</svg>
