<svg width="75" height="51" viewBox="0 0 75 51" fill="none" xmlns="http://www.w3.org/2000/svg">
<path fill-rule="evenodd" clip-rule="evenodd" d="M25.7696 14.9928L25.2038 15.7438C25.3815 15.9571 25.5386 16.1635 25.6726 16.3606L47.6366 31.2612L49.5162 30.5946L64.9232 41.7638C65.9754 45.8322 64.4006 48.5277 59.6504 48.7563L44.2442 37.5874L44.3429 35.6292L23.3764 19.406C23.1448 19.3378 22.8979 19.251 22.6378 19.1474L22.0713 19.898C22.825 20.4446 23.1169 21.2556 22.7358 21.7605L18.8415 26.9255C18.4709 27.4164 17.5869 27.3961 16.877 26.8821L9.68262 21.6654C8.97188 21.151 8.69334 20.3279 9.06419 19.8363L12.9582 14.672C13.3393 14.1672 14.2159 14.2026 14.9688 14.7488L15.5529 13.9748C14.4301 12.5911 14.5764 12.4361 15.7505 11.5222C16.5159 9.90493 16.4058 9.97127 18.0837 10.618L18.667 9.84367C17.9141 9.29739 17.6222 8.4864 18.0033 7.98151L21.8976 2.81648C22.2674 2.32535 23.1517 2.34481 23.8621 2.85989L31.0567 8.07589C31.7672 8.59097 32.045 9.4138 31.6752 9.90494L27.7809 15.07C27.2968 15.711 26.2966 15.3746 25.7696 14.9928Z" fill="#4B4B4B"/>
<path fill-rule="evenodd" clip-rule="evenodd" d="M6.58487 39.6611H21.6636C23.3429 39.6611 24.7174 40.988 24.7174 42.609H28.2485V49.6107H0V42.609H3.53105C3.53105 40.988 4.90561 39.6611 6.58487 39.6611Z" fill="#4B4B4B"/>
</svg>
