<svg width="52" height="51" viewBox="0 0 52 51" fill="none" xmlns="http://www.w3.org/2000/svg">
<path d="M46.1 37.7467C42.98 36.9667 36.88 36.0967 32.22 35.4967V29.7467H19.88V35.3967C15.22 36.0367 9.13 36.9067 6 37.7467C2.28 38.6867 2.35 40.6767 1 44.7467C2.17 45.4467 12.74 49.7467 26.06 49.7467C39.38 49.7467 49.94 45.4467 51.06 44.7467C49.75 40.6167 49.82 38.6267 46.1 37.7467Z" fill="#FBD3CA"/>
<path d="M51.0999 44.7467C49.7499 40.6767 49.8199 38.6867 46.0999 37.7467C42.9799 36.9667 36.8799 36.0967 32.2199 35.4967V29.7467H19.8799V33.9267L24.8799 38.9267C25.635 39.7452 26.0622 40.8132 26.0799 41.9267V49.7467C39.3699 49.7467 49.9399 45.3867 51.0999 44.7467Z" fill="#F3CAC2"/>
<path d="M17.73 38.5367C19.46 38.2867 20 36.8367 20.05 35.4167C15.37 36.0167 9.17005 36.8967 6.05005 37.6867C3.42005 38.3467 2.69005 39.5467 2.05005 41.6867C14.37 39.1467 17.52 38.5767 17.73 38.5367Z" fill="#F9DCD7"/>
<path d="M34.3801 38.5367C32.6501 38.2867 32.1101 36.8367 32.0601 35.4167C36.7401 36.0167 42.9401 36.8967 46.0601 37.6867C48.6901 38.3467 49.4201 39.5467 50.0601 41.6867C37.7401 39.1467 34.5901 38.5767 34.3801 38.5367Z" fill="#FBD3CA"/>
<path d="M24.1099 49.4467C22.1609 47.2215 19.9286 45.2615 17.4699 43.6167C17.0933 43.3626 16.6493 43.2269 16.1949 43.2269C15.7406 43.2269 15.2966 43.3626 14.9199 43.6167C13.1442 44.7853 11.4714 46.1035 9.91992 47.5567C14.5665 48.7043 19.325 49.3381 24.1099 49.4467Z" fill="#333333"/>
<path d="M37.19 43.5867C36.8133 43.3326 36.3693 43.1968 35.915 43.1968C35.4607 43.1968 35.0167 43.3326 34.64 43.5867C32.1829 45.245 29.951 47.2148 28 49.4467C32.793 49.3252 37.5582 48.678 42.21 47.5167C40.6494 46.0687 38.9702 44.7541 37.19 43.5867Z" fill="#333333"/>
<path d="M32.22 37.0767V31.4167" stroke="#333333" stroke-width="1.5" stroke-linejoin="round"/>
<path d="M19.8799 31.4167V37.0767" stroke="#333333" stroke-width="1.5" stroke-linejoin="round"/>
<path d="M20.05 35.4167C15.37 36.0167 9.17005 36.8967 6.05005 37.6867C2.33005 38.6267 2.40005 40.6167 1.05005 44.6867C2.22005 45.3867 12.7901 49.6867 26.1101 49.6867C39.43 49.6867 49.9901 45.3867 51.1101 44.6867C49.7601 40.6167 49.8301 38.6267 46.1101 37.6867C42.9901 36.9067 36.89 36.0367 32.23 35.4367" stroke="#333333" stroke-width="1.5" stroke-linejoin="round"/>
<path d="M35.0001 17.7467V15.9267C35.0001 10.5167 34.1301 5.9267 26.0901 5.9267C18.0501 5.9267 16.4901 10.5167 16.4901 15.9267V17.7467C14.5801 16.6367 14.3801 18.6267 14.6401 20.9267C14.8601 22.8767 15.3101 24.9267 17.1801 24.9267C17.1801 32.3067 24.0201 35.0467 24.7001 35.1167C25.1601 35.1167 25.6301 35.1167 26.0901 35.1167C26.5501 35.1167 27.0201 35.1167 27.4801 35.1167C28.1001 35.0567 35.0001 32.1967 35.0001 24.9267C36.8701 24.9267 37.3201 22.8767 37.5401 20.9267C37.7901 18.6267 36.9001 16.6367 35.0001 17.7467Z" fill="#FBD3CA"/>
<path d="M35 17.7467V15.9267C35 10.5167 34.13 5.92668 26.09 5.92668C25.0563 5.92191 24.0246 6.01905 23.01 6.21668V13.5167C23.005 14.0973 22.8848 14.6711 22.6565 15.2049C22.4283 15.7388 22.0963 16.222 21.68 16.6267C21.6181 16.6846 21.573 16.7581 21.5495 16.8396C21.5259 16.921 21.5249 17.0073 21.5464 17.0893C21.5679 17.1713 21.6112 17.2459 21.6717 17.3053C21.7322 17.3647 21.8076 17.4067 21.89 17.4267C22.3733 17.5476 22.8146 17.7976 23.1668 18.1498C23.5191 18.5021 23.769 18.9434 23.89 19.4267C23.8874 19.5262 23.9146 19.6243 23.9681 19.7083C24.0216 19.7924 24.0989 19.8585 24.1903 19.8982C24.2816 19.938 24.3827 19.9496 24.4806 19.9315C24.5786 19.9134 24.6689 19.8664 24.74 19.7967C24.9133 19.6461 25.1184 19.5367 25.34 19.4767C25.4153 19.4547 25.4948 19.4507 25.5719 19.4652C25.6491 19.4796 25.7217 19.5119 25.7841 19.5596C25.8464 19.6074 25.8966 19.6691 25.9306 19.7398C25.9647 19.8105 25.9816 19.8882 25.98 19.9667V22.6067C25.9907 22.8171 26.0576 23.0208 26.1736 23.1967C26.2897 23.3725 26.4507 23.5141 26.64 23.6067C27.24 23.9367 26.81 25.0767 25.98 25.0767C25.6281 25.0649 25.2874 24.9502 25 24.7467C24.23 24.3667 23.5 25.1467 23.67 25.4567C23.84 25.7667 24.04 25.1867 24.83 25.5567C25.19 25.7267 25.56 26.0967 25.96 26.0967V30.8067C25.9617 30.8993 25.9941 30.9888 26.052 31.0611C26.1098 31.1335 26.19 31.1846 26.28 31.2067C27.66 31.5167 28.38 33.3167 25.96 33.8467C25.6826 33.9123 25.4345 34.0672 25.2538 34.2877C25.0731 34.5081 24.9699 34.7818 24.96 35.0667C25.34 35.0667 25.73 35.0667 26.11 35.0667C26.49 35.0667 27.04 35.0667 27.5 35.0667C28.12 35.0067 35.02 32.1467 35.02 24.8767C36.89 24.8767 37.34 22.8267 37.56 20.8767C37.79 18.6267 36.9 16.6367 35 17.7467Z" fill="#F3CAC2"/>
<path d="M32.8601 19.0067V31.2067C34.2673 29.4179 35.0222 27.2026 35.0001 24.9267C36.8701 24.9267 37.3201 22.8767 37.5401 20.9267C37.8001 18.6267 36.9101 16.6367 35.0001 17.7467V15.9267C35.0001 10.5167 34.1301 5.9267 26.0901 5.9267C18.0501 5.9267 16.4901 10.5167 16.4901 15.9267V17.7467C14.5801 16.6367 14.3801 18.6267 14.6401 20.9267C14.8601 22.8767 15.3101 24.9267 17.1801 24.9267C17.1503 27.5179 18.1127 30.0223 19.8701 31.9267V19.0067C24.1735 18.3278 28.5567 18.3278 32.8601 19.0067Z" fill="#EABDB7"/>
<path d="M28.76 18.5967C30.98 17.5967 33.31 18.1767 33.76 19.7167C33.76 20.5367 32.98 20.3567 32.44 20.6467C32.1624 20.3327 31.8088 20.0951 31.4131 19.9568C31.0174 19.8185 30.5929 19.784 30.18 19.8567C28.34 20.4067 28.18 22.0067 27.48 21.1367C26.5 20.0067 28 18.9267 28.76 18.5967Z" fill="#8B8BAB"/>
<path d="M35.0001 17.7467V15.9267C35.0001 10.5167 34.1301 5.9267 26.0901 5.9267C18.0501 5.9267 16.4901 10.5167 16.4901 15.9267V17.7467C14.5801 16.6367 14.3801 18.6267 14.6401 20.9267C14.8601 22.8767 15.3101 24.9267 17.1801 24.9267C17.1801 32.3067 24.0201 35.0467 24.7001 35.1167C25.1601 35.1167 25.6301 35.1167 26.0901 35.1167C26.5501 35.1167 27.0201 35.1167 27.4801 35.1167C28.1001 35.0567 35.0001 32.1967 35.0001 24.9267C36.8701 24.9267 37.3201 22.8767 37.5401 20.9267C37.7901 18.6267 36.9001 16.6367 35.0001 17.7467Z" stroke="#333333" stroke-width="1.5" stroke-linecap="round" stroke-linejoin="round"/>
<path d="M23.07 29.2967L23.05 30.1067" stroke="#E2B7B3" stroke-width="0.75" stroke-miterlimit="10" stroke-linecap="round"/>
<path d="M29.0601 29.2967L29.0801 30.1067" stroke="#E2B7B3" stroke-width="0.75" stroke-miterlimit="10" stroke-linecap="round"/>
<path d="M26.0801 26.1767V26.9067" stroke="#D89AA4" stroke-width="0.75" stroke-miterlimit="10" stroke-linecap="round"/>
<path d="M28.1899 25.6167C27.1899 25.0567 27.0199 26.1767 26.0599 26.1767C25.0999 26.1767 24.8899 25.0567 23.9299 25.6167" stroke="#C17C87" stroke-width="0.75" stroke-miterlimit="10" stroke-linecap="round"/>
<path d="M27.0701 28.5367C26.7227 28.4947 26.3712 28.5686 26.0701 28.7467C25.7684 28.5699 25.4174 28.4962 25.0701 28.5367C23.9701 28.6467 23.8501 29.4467 23.0701 29.4467V29.6467H29.0701V29.4467C28.2901 29.4467 28.1801 28.6467 27.0701 28.5367Z" fill="#C4230E"/>
<path d="M23.0701 29.6467C23.9301 29.6467 23.9201 31.1267 26.0701 31.1267C28.2201 31.1267 28.2001 29.6467 29.0701 29.6467H23.0701Z" fill="#C4230E"/>
<path d="M23.0701 29.6467H29.0701" stroke="#9E180D" stroke-width="0.5" stroke-miterlimit="10"/>
<path d="M21.8201 21.9767C21.3816 21.9564 20.9586 21.8083 20.6033 21.5507C20.2479 21.2931 19.9757 20.9371 19.8201 20.5267" stroke="#F3CAC2" stroke-width="0.5" stroke-miterlimit="10" stroke-linecap="round"/>
<path d="M30.1499 21.9767C30.5877 21.9539 31.0095 21.8049 31.3644 21.5476C31.7193 21.2902 31.9921 20.9357 32.1499 20.5267" stroke="#EABFB9" stroke-width="0.5" stroke-miterlimit="10" stroke-linecap="round"/>
<path d="M30.3799 21.2967C30.7776 21.2967 31.0999 20.9743 31.0999 20.5767C31.0999 20.179 30.7776 19.8567 30.3799 19.8567C29.9823 19.8567 29.6599 20.179 29.6599 20.5767C29.6599 20.9743 29.9823 21.2967 30.3799 21.2967Z" fill="#333333"/>
<path d="M28.6299 20.9767C29.2099 20.6467 30.6999 18.7267 32.6299 20.6467C32.8771 20.5314 33.1035 20.376 33.2999 20.1867C32.3711 19.7179 31.2994 19.6179 30.2999 19.9067" fill="#3A3A3A"/>
<path d="M28.6299 20.9767C29.2099 20.6467 30.6999 18.7267 32.6299 20.6467C32.8771 20.5314 33.1035 20.376 33.2999 20.1867C32.3711 19.7179 31.2994 19.6179 30.2999 19.9067" stroke="#333333" stroke-width="0.503427" stroke-miterlimit="10" stroke-linecap="round"/>
<path d="M23.1301 19.2367C23.1301 19.2367 19.7501 17.2367 17.9601 18.3767C16.1701 19.5167 17.9601 20.1267 17.9601 20.1267L20.1701 19.3867L22.8901 19.6367L23.1301 19.2367Z" fill="#FBD3CA"/>
<path d="M23.1299 18.5967C20.9099 17.5967 18.5799 18.1767 18.1299 19.7167C18.1299 20.5367 18.9199 20.3567 19.4599 20.6467C19.736 20.3335 20.0879 20.0964 20.4818 19.9581C20.8757 19.8198 21.2986 19.7849 21.7099 19.8567C23.5599 20.4067 23.7099 22.0067 24.4199 21.1367C25.3899 20.0067 23.9099 18.9267 23.1299 18.5967Z" fill="#8B8BAB"/>
<path d="M21.73 21.2967C22.1277 21.2967 22.45 20.9743 22.45 20.5767C22.45 20.179 22.1277 19.8567 21.73 19.8567C21.3324 19.8567 21.01 20.179 21.01 20.5767C21.01 20.9743 21.3324 21.2967 21.73 21.2967Z" fill="#333333"/>
<path d="M23.4801 20.9767C22.9001 20.6467 21.4101 18.7267 19.4801 20.6467C19.2329 20.5314 19.0065 20.376 18.8101 20.1867C19.7388 19.7179 20.8106 19.6179 21.8101 19.9067" fill="#3A3A3A"/>
<path d="M23.4801 20.9767C22.9001 20.6467 21.4101 18.7267 19.4801 20.6467C19.2329 20.5314 19.0065 20.376 18.8101 20.1867C19.7388 19.7179 20.8106 19.6179 21.8101 19.9067" stroke="#333333" stroke-width="0.503427" stroke-miterlimit="10" stroke-linecap="round"/>
<path d="M18.9999 18.5767C19.8174 18.0821 20.7662 17.8484 21.7199 17.9067C22.6833 17.9584 23.6229 18.2249 24.4699 18.6867C24.5258 18.7082 24.5765 18.7414 24.6186 18.7841C24.6606 18.8267 24.693 18.8779 24.7136 18.9342C24.7343 18.9904 24.7426 19.0505 24.7381 19.1102C24.7337 19.17 24.7164 19.228 24.6876 19.2806C24.6589 19.3331 24.6192 19.3789 24.5712 19.4148C24.5233 19.4508 24.4682 19.476 24.4097 19.4889C24.3512 19.5018 24.2906 19.502 24.232 19.4896C24.1734 19.4771 24.1181 19.4523 24.0699 19.4167C23.3731 18.9045 22.5553 18.5818 21.6964 18.4802C20.8376 18.3785 19.9671 18.5013 19.1699 18.8367C19.1354 18.8462 19.0986 18.8422 19.067 18.8255C19.0354 18.8088 19.0114 18.7806 18.9999 18.7467C18.9795 18.7231 18.9683 18.6929 18.9683 18.6617C18.9683 18.6305 18.9795 18.6003 18.9999 18.5767Z" fill="#333333"/>
<path d="M32.79 18.8067C31.9941 18.4732 31.1255 18.3513 30.2686 18.4529C29.4117 18.5546 28.5957 18.8763 27.9 19.3867C27.8075 19.4458 27.696 19.4674 27.5881 19.4469C27.4803 19.4265 27.3844 19.3656 27.32 19.2767C27.2583 19.185 27.2353 19.0727 27.2559 18.9641C27.2765 18.8555 27.339 18.7594 27.43 18.6967C28.276 18.2323 29.2162 17.9657 30.18 17.9167C31.1337 17.8583 32.0825 18.092 32.9 18.5867C32.9173 18.5902 32.9337 18.5972 32.9482 18.6072C32.9627 18.6173 32.975 18.6302 32.9844 18.6452C32.9937 18.6601 32.9999 18.6769 33.0026 18.6943C33.0053 18.7118 33.0044 18.7296 33 18.7467C32.9919 18.766 32.9795 18.7833 32.9638 18.7972C32.9481 18.8111 32.9295 18.8213 32.9094 18.827C32.8892 18.8328 32.868 18.834 32.8474 18.8304C32.8267 18.8269 32.8071 18.8188 32.79 18.8067Z" fill="#333333"/>
<path d="M18.3601 17.7467C23.6465 16.7457 29.0737 16.7457 34.3601 17.7467V32.7467C39.0506 33.0799 43.7646 32.7432 48.3601 31.7467C46.8774 26.7427 45.135 21.8194 43.1401 16.9967C40.1801 9.87667 38.3601 0.746674 26.3601 0.746674C14.3601 0.746674 11.8401 9.14667 9.19011 16.3867C6.46011 23.8667 4.36011 31.7467 4.36011 31.7467C8.97767 32.579 13.6711 32.9143 18.3601 32.7467V17.7467Z" fill="#E8E4CF"/>
<path d="M11.1901 16.9067C13.8401 9.66669 16.3601 1.26669 28.3601 1.26669C29.581 1.25491 30.8 1.36208 32.0001 1.58669C30.1805 0.992625 28.2739 0.708669 26.3601 0.746686C14.3601 0.746686 11.8401 9.14669 9.19011 16.3867C6.46011 23.8667 4.36011 31.7467 4.36011 31.7467C5.03011 31.8867 5.69011 32.0067 6.36011 32.1067C6.71011 30.9767 8.68011 23.7467 11.1901 16.9067Z" fill="#EFECDF"/>
<path d="M34.9201 17.5867L34.3601 17.5067V32.7467C35.0601 32.7467 35.7301 32.8067 36.3601 32.8267V19.2467C36.3594 18.8432 36.2136 18.4534 35.9492 18.1486C35.6848 17.8438 35.3195 17.6443 34.9201 17.5867Z" fill="#EFECDF"/>
<path d="M26.7799 7.57668L26.9999 14.7467C27.0198 14.9135 26.9733 15.0815 26.8704 15.2143C26.7675 15.3472 26.6165 15.4342 26.4499 15.4567C26.2842 15.4764 26.1174 15.4296 25.9862 15.3265C25.8549 15.2234 25.77 15.0724 25.7499 14.9067C25.7399 14.8538 25.7399 14.7995 25.7499 14.7467L26.0599 7.57668C26.0612 7.52939 26.0718 7.48283 26.0911 7.43965C26.1104 7.39646 26.1381 7.35751 26.1724 7.325C26.2068 7.2925 26.2472 7.26709 26.2914 7.25021C26.3356 7.23334 26.3827 7.22534 26.4299 7.22667C26.5212 7.23149 26.6075 7.26991 26.6721 7.33453C26.7367 7.39916 26.7751 7.48541 26.7799 7.57668Z" fill="#DBD4B9"/>
<path d="M24.66 3.96668C23.5643 5.68501 22.8262 7.60663 22.49 9.61668C22.1171 11.6378 21.9529 13.692 22 15.7467C22 15.912 21.935 16.0708 21.819 16.1887C21.703 16.3065 21.5453 16.3741 21.38 16.3767C21.2986 16.378 21.2177 16.3633 21.142 16.3333C21.0662 16.3034 20.9971 16.2588 20.9386 16.2022C20.8801 16.1455 20.8334 16.0779 20.801 16.0032C20.7686 15.9285 20.7513 15.8481 20.75 15.7667C20.793 13.635 21.0577 11.5135 21.54 9.43668C21.979 7.32467 22.8432 5.32408 24.08 3.55668C24.1069 3.5177 24.1414 3.48458 24.1814 3.45932C24.2214 3.43406 24.2661 3.41718 24.3129 3.4097C24.3596 3.40222 24.4074 3.4043 24.4533 3.41581C24.4992 3.42733 24.5423 3.44803 24.58 3.47668C24.6565 3.53269 24.7078 3.61662 24.7228 3.71024C24.7377 3.80385 24.7152 3.89959 24.66 3.97668V3.96668Z" fill="#DBD4B9"/>
<path d="M28.66 3.53668C29.8929 5.30625 30.7567 7.30602 31.2 9.41668C31.6759 11.4949 31.9439 13.6154 32 15.7467C32.0027 15.9121 31.9402 16.0719 31.8261 16.1917C31.712 16.3114 31.5553 16.3815 31.39 16.3867C31.3086 16.3894 31.2274 16.3759 31.1512 16.3472C31.0749 16.3185 31.0051 16.2751 30.9456 16.2193C30.8862 16.1636 30.8383 16.0967 30.8048 16.0225C30.7712 15.9482 30.7526 15.8681 30.75 15.7867C30.8017 13.7232 30.6476 11.6596 30.29 9.62668C29.9571 7.6173 29.2225 5.69567 28.13 3.97668C28.0899 3.89726 28.0798 3.80605 28.1015 3.71978C28.1232 3.6335 28.1753 3.55793 28.2482 3.50692C28.321 3.4559 28.4099 3.43285 28.4983 3.44199C28.5868 3.45113 28.6691 3.49185 28.73 3.55668L28.66 3.53668Z" fill="#DBD4B9"/>
<path d="M20.6 4.90668C19.33 7.00668 18.19 9.19668 17.12 11.4067C16.05 13.6167 15.12 15.8867 14.2 18.1667C13.28 20.4467 12.46 22.7467 11.73 25.0967C11 27.4467 10.42 29.8367 9.85998 32.2367C9.85308 32.2737 9.83853 32.3088 9.81725 32.3398C9.79598 32.3709 9.76845 32.3971 9.73644 32.4169C9.70442 32.4367 9.66863 32.4495 9.63135 32.4547C9.59408 32.4598 9.55614 32.4571 9.51998 32.4467C9.44926 32.4367 9.38502 32.4001 9.34041 32.3443C9.2958 32.2886 9.27418 32.2179 9.27998 32.1467C9.59975 29.6746 10.0808 27.226 10.72 24.8167C11.3141 22.4097 12.0759 20.0473 13 17.7467C13.9322 15.4371 14.9905 13.1804 16.17 10.9867C17.3358 8.78304 18.6453 6.65845 20.09 4.62668C20.1342 4.56497 20.2009 4.52308 20.2757 4.50999C20.3505 4.4969 20.4274 4.51367 20.49 4.55668C20.5482 4.5989 20.588 4.66192 20.601 4.73267C20.6141 4.80343 20.5994 4.87648 20.56 4.93668L20.6 4.90668Z" fill="#DBD4B9"/>
<path d="M32.6001 4.58668C34.0415 6.6186 35.3477 8.7432 36.5101 10.9467C37.6897 13.154 38.7479 15.424 39.6801 17.7467C40.6165 20.0603 41.3917 22.436 42.0001 24.8567C42.6192 27.2706 43.1 29.7179 43.4401 32.1867C43.4457 32.2242 43.4436 32.2626 43.4339 32.2993C43.4242 32.336 43.4072 32.3704 43.3838 32.4004C43.3604 32.4303 43.3311 32.4552 43.2978 32.4734C43.2645 32.4917 43.2279 32.503 43.1901 32.5067C43.1193 32.5139 43.0483 32.4957 42.9897 32.4554C42.931 32.4151 42.8887 32.3553 42.8701 32.2867C42.3201 29.8867 41.7801 27.4867 41.0101 25.1467C40.2401 22.8067 39.4201 20.5067 38.5301 18.2167C37.6401 15.9267 36.6901 13.6667 35.6101 11.4567C34.5301 9.24668 33.4101 7.05668 32.1401 4.95668C32.1026 4.89409 32.0911 4.81936 32.1079 4.7484C32.1247 4.67743 32.1685 4.61582 32.2301 4.57668C32.2824 4.53304 32.3488 4.50998 32.4169 4.51182C32.4851 4.51366 32.5502 4.54028 32.6001 4.58668Z" fill="#DBD4B9"/>
<path d="M34.3799 32.4067C39.0343 32.6812 43.7042 32.294 48.2499 31.2567L47.8799 31.8867C46.8799 28.6167 45.7699 25.3667 44.5599 22.1567C43.9499 20.5567 43.3199 18.9667 42.6499 17.3867C41.9799 15.8067 41.3699 14.1767 40.7299 12.5967C39.4699 9.44668 37.9099 6.36668 35.3799 4.29668C35.0499 4.05668 34.7499 3.78668 34.3799 3.57668L33.3799 2.96668C32.6493 2.60999 31.8857 2.32532 31.0999 2.11668C30.31 1.89537 29.5043 1.7349 28.6899 1.63668C27.8699 1.55668 27.0399 1.52668 26.2099 1.50668C22.907 1.40811 19.6612 2.38359 16.9599 4.28668C14.3699 6.28668 12.6999 9.28668 11.4299 12.3967C8.90273 18.7714 6.70975 25.2736 4.85989 31.8767L4.46989 31.2567C9.05096 32.1198 13.7092 32.5052 18.3699 32.4067C18.4513 32.4206 18.5252 32.4629 18.5785 32.526C18.6317 32.5891 18.6609 32.6691 18.6609 32.7517C18.6609 32.8343 18.6317 32.9142 18.5785 32.9774C18.5252 33.0405 18.4513 33.0828 18.3699 33.0967C13.6526 33.3205 8.92499 33.0321 4.26989 32.2367C4.20544 32.2271 4.14362 32.2045 4.08819 32.1703C4.03275 32.1361 3.98487 32.0909 3.94744 32.0376C3.91002 31.9843 3.88385 31.9239 3.87051 31.8601C3.85718 31.7964 3.85697 31.7305 3.86989 31.6667C3.86605 31.6502 3.86605 31.6331 3.86989 31.6167C5.61168 24.9344 7.70458 18.3486 10.1399 11.8867C11.3999 8.67668 13.1399 5.38668 16.0199 3.10668C18.9738 0.99253 22.5388 -0.0962697 26.1699 0.00668398C27.0599 0.00668398 27.9499 0.00668384 28.8399 0.146684C29.7386 0.27161 30.6251 0.472325 31.4899 0.746684C32.3623 1.0011 33.2093 1.33586 34.0199 1.74668L35.1899 2.45668C35.5799 2.69668 35.9199 3.00668 36.2799 3.27668C39.0999 5.64668 40.6699 8.98668 41.9099 12.1867C42.5399 13.8067 43.1199 15.4167 43.7599 16.9967C44.3999 18.5767 44.9999 20.1367 45.6199 21.7467C46.7999 24.9967 47.8799 28.2667 48.8399 31.5867C48.8774 31.7127 48.8638 31.8483 48.8021 31.9644C48.7403 32.0804 48.6353 32.1675 48.5099 32.2067C43.868 33.1632 39.113 33.4494 34.3899 33.0567C34.2997 33.0567 34.2132 33.0209 34.1495 32.9571C34.0857 32.8933 34.0499 32.8069 34.0499 32.7167C34.0499 32.6265 34.0857 32.54 34.1495 32.4763C34.2132 32.4125 34.2997 32.3767 34.3899 32.3767L34.3799 32.4067Z" fill="#333333"/>
<path d="M18.0001 32.7467C17.8801 28.9334 17.7967 25.1167 17.7501 21.2967L17.7001 18.4367C17.6879 18.2736 17.6879 18.1098 17.7001 17.9467C17.7543 17.6848 17.8952 17.4487 18.1001 17.2767C18.2062 17.1931 18.3242 17.1257 18.4501 17.0767H18.6401H18.7301L19.0901 17.0167C19.5601 16.9267 20.0401 16.8467 20.5201 16.7767C24.3645 16.1901 28.2757 16.1901 32.1201 16.7767C32.6001 16.8434 33.0801 16.9234 33.5601 17.0167L33.9201 17.0767H34.0101L34.2001 17.1267C34.3305 17.177 34.4521 17.2479 34.5601 17.3367C34.7732 17.5134 34.921 17.7563 34.9801 18.0267C34.9921 18.1931 34.9921 18.3603 34.9801 18.5267L35.0001 21.2967C34.9101 25.1167 34.8501 28.9367 34.7201 32.7467C34.7201 32.8422 34.6822 32.9337 34.6146 33.0013C34.5471 33.0688 34.4556 33.1067 34.3601 33.1067C34.2646 33.1067 34.173 33.0688 34.1055 33.0013C34.038 32.9337 34.0001 32.8422 34.0001 32.7467C33.8601 28.9367 33.8101 25.1167 33.7201 21.2967L33.6601 18.4367C33.6601 18.0567 33.6601 18.2767 33.6601 18.3167H33.7101H33.6501L33.3001 18.2667L32.0001 18.0967C30.1277 17.8788 28.245 17.762 26.3601 17.7467C24.4824 17.745 22.6062 17.8485 20.7401 18.0567L19.3401 18.2467L19.0001 18.2967H18.9101C18.9601 18.2967 18.9101 18.0867 18.9101 18.4567L19.0001 21.2967C18.9201 25.1167 18.8201 28.9334 18.7001 32.7467C18.6988 32.7914 18.6887 32.8353 18.6704 32.8761C18.6521 32.9168 18.626 32.9536 18.5935 32.9842C18.561 33.0149 18.5227 33.0388 18.481 33.0547C18.4392 33.0706 18.3947 33.078 18.3501 33.0767C18.3051 33.0794 18.26 33.0729 18.2176 33.0576C18.1753 33.0422 18.1365 33.0183 18.1037 32.9874C18.0709 32.9565 18.0448 32.9192 18.027 32.8778C18.0091 32.8364 18 32.7918 18.0001 32.7467Z" fill="#333333"/>
</svg>
