<svg width="44" height="47" viewBox="0 0 44 47" fill="none" xmlns="http://www.w3.org/2000/svg">
<path d="M33.259 27.8616C33.259 33.5647 28.3054 33.8906 22.1949 33.8906C16.0845 33.8906 11.1146 33.524 11.1146 27.8616C11.1146 22.1993 16.0763 17.6368 22.1949 17.6368C28.3136 17.6368 33.259 22.183 33.259 27.8616Z" fill="#333333"/>
<path d="M24.3704 17.7916C18.3006 17.7916 13.3552 22.4029 13.3552 28.0327C13.3552 31.9434 15.6935 33.3284 19.1561 33.8173H22.195C28.3055 33.8173 33.2753 33.4507 33.2753 27.7883C33.2591 22.8755 29.438 18.7204 24.3704 17.7916Z" fill="#333333"/>
<path d="M33.259 27.8616C33.259 33.5647 28.3054 33.8906 22.1949 33.8906C16.0845 33.8906 11.1146 33.524 11.1146 27.8616C11.1146 22.1993 16.0763 17.6368 22.1949 17.6368C28.3136 17.6368 33.259 22.183 33.259 27.8616Z" stroke="#333333" stroke-width="2.2519" stroke-linejoin="round"/>
<path d="M38.7094 35.4468C28.232 33.361 27.2625 33.1818 27.2625 33.1818V27.8127H16.5081V33.1818C16.5081 33.1818 15.5793 33.3529 5.10186 35.4468C1.72074 36.3022 1.48446 39.4389 1.19116 40.9054C7.27396 43.6516 13.8447 45.153 20.5165 45.3213C28.0779 45.5326 35.5917 44.0605 42.5142 41.0114C42.392 39.5123 42.2372 36.343 38.7094 35.4468Z" fill="#DFB89F"/>
<path d="M42.5388 41.0114C42.3921 39.5123 42.2373 36.3348 38.7095 35.4468C28.2321 33.361 27.2626 33.1818 27.2626 33.1818V27.8127H16.5082V30.4769L16.8096 31.1368L20.6714 35.5201C21.6625 36.7639 22.1742 38.3222 22.1135 39.9115C22.1135 39.9115 22.1135 42.4534 22.1135 45.3131C29.1456 45.302 36.0995 43.8374 42.5388 41.0114Z" fill="#CCA896"/>
<path d="M28.4765 33.4181L27.2626 33.1818V30.371" stroke="#333333" stroke-width="1.5" stroke-linecap="round" stroke-linejoin="round"/>
<path d="M31.6539 14.7526C31.6539 14.4512 31.6539 13.1232 31.6539 12.838C31.6458 7.6645 29.7637 2.77612 22.0564 2.77612C14.3491 2.77612 12.467 7.6645 12.467 12.838C12.467 13.1395 12.467 14.4675 12.467 14.7526C10.8376 14.7526 9.81103 16.3821 10.0799 18.59C10.308 20.4476 11.1961 22.3459 12.9559 22.4192C13.9906 29.0511 18.5449 32.4078 22.0564 32.4078C25.5679 32.4078 30.1059 29.1489 31.1569 22.4192C32.9249 22.3459 33.8048 20.4476 34.0329 18.59C34.3181 16.3902 33.316 14.7526 31.6539 14.7526Z" fill="#DFB89F"/>
<path d="M31.6539 14.7526C31.6539 14.4512 31.6539 13.1232 31.6539 12.838C31.6458 7.6645 29.7638 2.77613 22.0564 2.77613C21.2573 2.7738 20.4591 2.83373 19.6693 2.95537V14.3942C19.669 14.8708 19.5697 15.3422 19.3775 15.7784C19.1854 16.2146 18.9046 16.6061 18.5531 16.928C18.4986 16.9755 18.4584 17.0371 18.4369 17.106C18.4153 17.175 18.4133 17.2486 18.431 17.3186C18.4487 17.3886 18.4855 17.4524 18.5373 17.5028C18.589 17.5532 18.6537 17.5883 18.7242 17.6042C19.1164 17.7059 19.4742 17.9106 19.7607 18.1971C20.0472 18.4836 20.2519 18.8415 20.3536 19.2337C20.3704 19.3058 20.4047 19.3727 20.4536 19.4283C20.5025 19.4839 20.5645 19.5265 20.6339 19.5524C20.7033 19.5782 20.778 19.5864 20.8514 19.5763C20.9248 19.5662 20.9945 19.538 21.0543 19.4944C21.1921 19.3776 21.3532 19.2915 21.5268 19.2418C21.5926 19.2241 21.6616 19.222 21.7283 19.2355C21.795 19.249 21.8577 19.2778 21.9114 19.3197C21.9651 19.3615 22.0084 19.4153 22.0378 19.4767C22.0672 19.5381 22.0819 19.6055 22.0809 19.6736V21.466C22.0912 21.6381 22.1472 21.8043 22.2432 21.9475C22.3391 22.0907 22.4715 22.2057 22.6267 22.2807C23.1319 22.5577 22.7652 23.511 22.0809 23.511C21.7954 23.5226 21.5126 23.4519 21.2661 23.3073C20.6143 22.9814 20.0115 23.6495 20.15 23.9021C20.2885 24.1546 20.4433 23.9021 21.1032 24.2035C21.3999 24.3508 21.7253 24.4314 22.0564 24.4398V27.6417C22.0508 27.6883 22.0546 27.7357 22.0676 27.7808C22.0807 27.826 22.1027 27.8681 22.1323 27.9046C22.162 27.9411 22.1987 27.9712 22.2402 27.9933C22.2818 28.0153 22.3273 28.0287 22.3742 28.0327C23.5229 28.3097 24.1258 30.2162 22.089 30.6317C21.8309 30.6828 21.5987 30.8222 21.4322 31.0258C21.2657 31.2295 21.1753 31.4848 21.1765 31.7479V32.3671C21.4626 32.4084 21.7511 32.4302 22.0401 32.4323C25.4701 32.4323 30.0896 29.1733 31.1406 22.4437C32.9656 22.3296 33.7804 20.4557 34.0329 18.5982C34.3181 16.3902 33.316 14.7526 31.6539 14.7526Z" fill="#D4B09C"/>
<path d="M17.7874 20.0402C18.1518 20.0402 18.4473 19.7447 18.4473 19.3803C18.4473 19.0158 18.1518 18.7203 17.7874 18.7203C17.4229 18.7203 17.1274 19.0158 17.1274 19.3803C17.1274 19.7447 17.4229 20.0402 17.7874 20.0402Z" fill="#333333"/>
<path d="M19.6774 19.7143C19.1723 19.421 17.8606 17.7345 16.166 19.421C15.9461 19.3241 15.747 19.1858 15.5793 19.0137C16.4035 18.5947 17.3569 18.5073 18.2435 18.7692" fill="#333333"/>
<path d="M19.6774 19.7143C19.1723 19.421 17.8606 17.7345 16.166 19.421C15.9461 19.3241 15.747 19.1858 15.5793 19.0137C16.4035 18.5947 17.3569 18.5073 18.2435 18.7692" stroke="#333333" stroke-width="0.5427" stroke-miterlimit="10" stroke-linecap="round"/>
<path d="M24.4679 19.7143C24.973 19.421 26.2847 17.7345 27.9794 19.421C28.1992 19.3241 28.3984 19.1858 28.566 19.0137C27.7418 18.5947 26.7885 18.5073 25.9018 18.7692" fill="#333333"/>
<path d="M24.4679 19.7143C24.973 19.421 26.2847 17.7345 27.9794 19.421C28.1992 19.3241 28.3984 19.1858 28.566 19.0137C27.7418 18.5947 26.7885 18.5073 25.9018 18.7692" stroke="#333333" stroke-width="0.5427" stroke-miterlimit="10" stroke-linecap="round"/>
<path d="M26.3012 20.0402C26.6656 20.0402 26.9611 19.7447 26.9611 19.3803C26.9611 19.0158 26.6656 18.7203 26.3012 18.7203C25.9367 18.7203 25.6412 19.0158 25.6412 19.3803C25.6412 19.7447 25.9367 20.0402 26.3012 20.0402Z" fill="#333333"/>
<path d="M15.2128 17.3679C15.5618 17.1382 15.9518 16.9778 16.3615 16.8954C16.7717 16.8301 17.1897 16.8301 17.5999 16.8954C17.9959 16.9656 18.3876 17.0581 18.7731 17.1724C19.1217 17.2824 19.4787 17.3641 19.8404 17.4168C19.8988 17.4218 19.9555 17.4386 20.0071 17.4662C20.0588 17.4937 20.1043 17.5315 20.1409 17.5773C20.1774 17.623 20.2043 17.6757 20.2199 17.7321C20.2355 17.7886 20.2394 17.8476 20.2315 17.9056C20.2254 17.9635 20.2079 18.0197 20.18 18.0708C20.152 18.1219 20.1142 18.1669 20.0688 18.2033C20.0233 18.2397 19.9711 18.2666 19.9151 18.2827C19.8591 18.2987 19.8005 18.3035 19.7427 18.2967H19.6856C19.2883 18.1829 18.9013 18.0357 18.5287 17.8567C18.1897 17.6976 17.8414 17.5589 17.4859 17.4412C17.1385 17.3282 16.7756 17.2705 16.4104 17.2701C16.0462 17.2684 15.6915 17.3857 15.4001 17.6042C15.3841 17.617 15.3657 17.6266 15.3459 17.6323C15.3262 17.638 15.3055 17.6398 15.2851 17.6375C15.2647 17.6352 15.2449 17.629 15.2269 17.6191C15.2089 17.6091 15.193 17.5958 15.1802 17.5797C15.1673 17.5637 15.1578 17.5453 15.1521 17.5255C15.1463 17.5058 15.1446 17.4851 15.1468 17.4647C15.1491 17.4442 15.1554 17.4245 15.1653 17.4065C15.1752 17.3885 15.1886 17.3726 15.2046 17.3597C15.2046 17.3597 15.2128 17.376 15.2128 17.3679Z" fill="#333333"/>
<path d="M28.6231 17.6286C28.3321 17.4103 27.9765 17.2955 27.6128 17.3027C27.2469 17.3026 26.8835 17.3631 26.5374 17.482C26.187 17.596 25.8367 17.7427 25.4782 17.8975C25.1003 18.075 24.7078 18.2195 24.305 18.3293C24.1872 18.3552 24.064 18.3333 23.9624 18.2683C23.8608 18.2034 23.7891 18.1008 23.7632 17.983C23.7373 17.8652 23.7592 17.742 23.8241 17.6404C23.8891 17.5388 23.9917 17.4671 24.1095 17.4412H24.1828C24.5422 17.3946 24.8967 17.3155 25.2419 17.2049C25.6385 17.0947 26.0411 17.0076 26.4477 16.9442C26.8576 16.8748 27.2762 16.8748 27.6861 16.9442C28.0991 17.0194 28.4927 17.1774 28.843 17.4086C28.8658 17.4171 28.8864 17.4305 28.9033 17.448C28.9202 17.4654 28.933 17.4864 28.9407 17.5095C28.9484 17.5325 28.9509 17.557 28.948 17.5811C28.945 17.6052 28.9368 17.6283 28.9237 17.6488C28.9107 17.6693 28.8932 17.6866 28.8726 17.6995C28.852 17.7124 28.8288 17.7205 28.8047 17.7233C28.7805 17.726 28.7561 17.7233 28.7331 17.7154C28.7102 17.7075 28.6893 17.6945 28.6719 17.6775C28.6719 17.6775 28.6312 17.6286 28.6231 17.6286Z" fill="#333333"/>
<path d="M20.3864 24.4886C21.2663 24.4886 21.2663 24.9367 22.1462 24.9367C23.0261 24.9367 23.0261 24.4886 23.906 24.4886" stroke="#C8A18F" stroke-width="0.5389" stroke-miterlimit="10" stroke-linecap="round"/>
<path d="M22.1378 24.7982V25.45" stroke="#C8A18F" stroke-width="0.5389" stroke-miterlimit="10" stroke-linecap="round"/>
<path d="M20.3618 28.0327C20.739 28.3697 21.2334 28.5453 21.7387 28.5216H22.6268C23.1692 28.5325 23.6968 28.3441 24.1096 27.992" stroke="#C8A18F" stroke-width="0.5389" stroke-miterlimit="10" stroke-linecap="round"/>
<path d="M19.6855 26.7943L19.4004 27.3728" stroke="#C8A18F" stroke-width="0.5389" stroke-miterlimit="10" stroke-linecap="round"/>
<path d="M24.6392 26.7943L24.9325 27.3728" stroke="#C8A18F" stroke-width="0.5389" stroke-miterlimit="10" stroke-linecap="round"/>
<path d="M22.8141 25.9226C22.603 25.9248 22.3978 25.9932 22.2275 26.1181C22.2031 26.1373 22.173 26.1477 22.142 26.1477C22.111 26.1477 22.0808 26.1373 22.0565 26.1181C21.8871 25.9855 21.6767 25.9163 21.4617 25.9226C20.5818 25.9226 20.3292 26.7373 19.5063 27.0958L20.3211 27.9105C20.6928 28.2458 21.1816 28.4214 21.6817 28.3994H22.5616C23.0991 28.4101 23.6215 28.2214 24.0281 27.8698L24.7776 27.055C23.9466 26.7699 23.6941 25.9226 22.8141 25.9226Z" fill="#915241"/>
<path d="M24.7694 27.1039C23.8977 27.1039 23.4577 26.6721 22.146 27.1039C20.8424 26.664 20.4025 27.1039 19.5226 27.1039" stroke="#743F40" stroke-width="0.5389" stroke-miterlimit="10" stroke-linecap="round"/>
<path d="M20.427 24.0487C21.3069 24.0487 21.3069 24.4887 22.1868 24.4887C23.0667 24.4887 23.0667 24.0487 23.9466 24.0487" stroke="#674848" stroke-width="0.8083" stroke-miterlimit="10" stroke-linecap="round"/>
<path d="M31.6539 14.7526C31.6539 14.4512 31.6539 13.1232 31.6539 12.838C31.6458 7.6645 29.7637 2.77612 22.0564 2.77612C14.3491 2.77612 12.467 7.6645 12.467 12.838C12.467 13.1395 12.467 14.4675 12.467 14.7526C10.8376 14.7526 9.81103 16.3821 10.0799 18.59C10.308 20.4476 11.1961 22.3459 12.9559 22.4192C13.9906 29.0511 18.5449 32.4078 22.0564 32.4078C25.5679 32.4078 30.1059 29.1489 31.1569 22.4192C32.9249 22.3459 33.8048 20.4476 34.0329 18.59C34.3181 16.3902 33.316 14.7526 31.6539 14.7526Z" stroke="#333333" stroke-width="1.5" stroke-linejoin="round"/>
<path d="M11.3102 30.9576C11.4553 30.2425 11.6936 29.5495 12.019 28.8964C12.0656 28.7874 12.1536 28.7014 12.2635 28.6571C12.3734 28.6128 12.4965 28.6139 12.6056 28.6601C12.7048 28.7127 12.7846 28.7954 12.8337 28.8964C13.1591 29.5495 13.3974 30.2425 13.5425 30.9576C13.5096 31.2283 13.3788 31.4777 13.1746 31.6585C12.9705 31.8393 12.7072 31.9392 12.4345 31.9392C12.1618 31.9392 11.8985 31.8393 11.6944 31.6585C11.4902 31.4777 11.3594 31.2283 11.3265 30.9576H11.3102Z" fill="#F9CD5A"/>
<path d="M12.41 27.2343V21.5312" stroke="#F9CD5A" stroke-width="1.5" stroke-linecap="round" stroke-linejoin="round" stroke-dasharray="0.27 2.69"/>
<path d="M30.6273 30.9576C30.7724 30.2425 31.0107 29.5495 31.3361 28.8964C31.3828 28.7874 31.4707 28.7014 31.5806 28.6571C31.6906 28.6128 31.8136 28.6139 31.9227 28.6601C32.0219 28.7127 32.1018 28.7954 32.1509 28.8964C32.4763 29.5495 32.7146 30.2425 32.8597 30.9576C32.8268 31.2283 32.6959 31.4777 32.4918 31.6585C32.2876 31.8393 32.0244 31.9392 31.7516 31.9392C31.4789 31.9392 31.2156 31.8393 31.0115 31.6585C30.8074 31.4777 30.6765 31.2283 30.6436 30.9576H30.6273Z" fill="#F9CD5A"/>
<path d="M31.7272 27.2343V21.5312" stroke="#F9CD5A" stroke-width="1.5" stroke-linecap="round" stroke-linejoin="round" stroke-dasharray="0.27 2.69"/>
<path d="M33.7233 8.56884C30.0897 1.43181 24.7613 -0.189498 21.8609 2.13248C18.9605 -0.189498 13.6321 1.43181 9.99844 8.56884C8.84152 10.8501 7.44834 16.3251 10.2999 20.8794C15.9052 15.991 14.5609 12.5447 17.5347 11.2411C19.49 10.3857 22.0727 12.9358 22.0727 12.9358C22.0727 12.9358 24.6554 10.3857 26.6108 11.2411C29.5275 12.5203 28.2402 15.8688 33.5767 20.635C36.2246 16.1377 34.864 10.8093 33.7233 8.56884Z" fill="#444445"/>
<path d="M9.09399 15.8118C9.26854 17.7307 9.91204 19.5772 10.9679 21.189C16.5732 16.3006 14.5853 12.5529 17.5509 11.2574C19.5062 10.402 22.0889 12.9521 22.0889 12.9521C22.0889 12.9521 24.6716 10.402 26.627 11.2574C29.5437 12.5366 28.0446 16.3006 33.3322 21.0342C35.9882 16.5287 34.8802 10.7849 33.7395 8.54439C32.9792 7.01172 32.0145 5.58927 30.8717 4.31595C28.7491 3.6035 26.5046 3.3264 24.2724 3.50122C19.7588 9.53836 11.7826 11.4937 9.09399 15.8118Z" fill="#333333"/>
<path d="M12.1005 18.1175C13.127 18.1175 12.6871 20.415 13.7299 20.415V16.4473L12.1005 18.1175Z" fill="#333333"/>
<path d="M30.5215 16.4473V20.415C31.5399 20.415 31.1081 18.1175 32.1509 18.1175L30.5215 16.4473Z" fill="#333333"/>
<path d="M42.1069 38.3146C41.9902 37.6753 41.6851 37.0855 41.2307 36.6209C40.7763 36.1563 40.1933 35.8382 39.5568 35.7074C38.8154 35.5119 35.2224 34.6401 32.2242 33.8987C30.9899 35.4048 29.4371 36.6184 27.6776 37.4524C25.918 38.2864 23.9955 38.72 22.0483 38.7219C20.1022 38.7273 18.1796 38.2969 16.4215 37.4623C14.6635 36.6277 13.1146 35.4101 11.8886 33.8987C8.87409 34.6239 5.26484 35.5282 4.55603 35.7074C3.91947 35.8382 3.33655 36.1563 2.88214 36.6209C2.42774 37.0855 2.1226 37.6753 2.00592 38.3146L1.4845 41.1743C7.99179 43.9502 15.0068 45.3377 22.0808 45.2479C29.1548 45.3362 36.1695 43.9488 42.6772 41.1743L42.1069 38.3146Z" fill="#F4E2BD"/>
<path d="M42.1069 38.3146C41.9902 37.6753 41.6851 37.0855 41.2307 36.6209C40.7763 36.1563 40.1933 35.8382 39.5568 35.7074C38.8154 35.5119 35.2224 34.6401 32.2242 33.8987C30.9899 35.4048 29.4371 36.6184 27.6776 37.4524C25.918 38.2864 23.9955 38.72 22.0483 38.7219C20.1022 38.7273 18.1796 38.2969 16.4215 37.4623C14.6635 36.6277 13.1146 35.4101 11.8886 33.8987C8.87409 34.6239 5.26484 35.5282 4.55603 35.7074C3.91947 35.8382 3.33655 36.1563 2.88214 36.6209C2.42774 37.0855 2.1226 37.6753 2.00592 38.3146L1.4845 41.1743C7.99179 43.9502 15.0068 45.3377 22.0808 45.2479C29.1548 45.3362 36.1695 43.9488 42.6772 41.1743L42.1069 38.3146Z" fill="#F4E2BD"/>
<path d="M42.1069 38.3146C41.9902 37.6753 41.6851 37.0855 41.2307 36.6209C40.7763 36.1563 40.1934 35.8382 39.5568 35.7074C38.8154 35.5119 35.2225 34.6401 32.2243 33.8987C27.9388 39.3085 21.3395 38.7138 21.1765 38.6975L13.901 44.6939C16.5956 45.1158 19.3211 45.3094 22.0483 45.2724C29.1222 45.3607 36.1369 43.9733 42.6446 41.1987L42.1069 38.3146Z" fill="#F05E52"/>
<path d="M42.2047 38.3146C42.088 37.6753 41.7828 37.0855 41.3284 36.6209C40.874 36.1563 40.2911 35.8382 39.6546 35.7074C38.9132 35.5119 35.3202 34.6401 32.322 33.8987C31.0877 35.4048 29.5349 36.6184 27.7753 37.4524C26.0158 38.2864 24.0932 38.72 22.146 38.7219C20.1999 38.7273 18.2773 38.2969 16.5193 37.4623C14.7613 36.6277 13.2124 35.4101 11.9864 33.8987C8.97187 34.6239 5.37077 35.5282 4.6538 35.7074C4.01874 35.8397 3.43759 36.1584 2.98475 36.6229C2.5319 37.0873 2.22797 37.6764 2.11185 38.3146L1.58228 41.1743C8.0907 43.9465 15.1049 45.3338 22.1786 45.2479C29.2526 45.3362 36.2673 43.9488 42.775 41.1743L42.2047 38.3146Z" stroke="#333333" stroke-width="1.5" stroke-linecap="round" stroke-linejoin="round"/>
<path d="M21.0787 45.2642C26.627 40.4573 33.0064 35.4875 35.1898 34.3387L29.4867 32.8559C27.2625 33.9313 19.3108 39.8707 13.8928 44.6858C16.2717 45.0462 18.6729 45.2395 21.0787 45.2642Z" fill="#F4E2BD"/>
<path d="M19.5635 43.2193L19.6449 43.1459" stroke="#333333" stroke-width="1.5" stroke-linecap="round" stroke-linejoin="round"/>
<path d="M21.478 41.6143C24.0444 39.4715 26.676 37.3288 28.721 35.7319" stroke="#333333" stroke-width="1.5" stroke-linecap="round" stroke-linejoin="round" stroke-dasharray="0.29 2.94"/>
<path d="M29.7068 34.9986L29.7964 34.9335" stroke="#333333" stroke-width="1.5" stroke-linecap="round" stroke-linejoin="round"/>
<path d="M21.0787 45.2642C26.627 40.4573 33.0064 35.4875 35.1898 34.3387L29.4867 32.8559C27.2625 33.9313 19.3108 39.8707 13.8928 44.6858C16.2717 45.0462 18.6729 45.2395 21.0787 45.2642V45.2642Z" stroke="#333333" stroke-width="1.5" stroke-linecap="round" stroke-linejoin="round"/>
<path d="M16.5081 30.0125V33.1818C16.5081 33.1818 16.0437 33.2633 12.1085 34.0536" stroke="#333333" stroke-width="1.5" stroke-linecap="round" stroke-linejoin="round"/>
<path d="M35.2713 15.2659C34.9278 13.7682 34.3239 12.3425 33.487 11.0538C32.6789 9.77805 31.6785 8.63481 30.5214 7.66449C30.2444 7.41192 29.9185 7.20824 29.6252 6.98826L29.1771 6.65422L28.6964 6.36907C28.3705 6.18168 28.0528 5.98615 27.7269 5.80691L26.7085 5.34251L26.2033 5.11439L25.633 4.927L24.5739 4.56852C23.8895 4.40557 23.1888 4.21818 22.4393 4.03894H22.3497C22.186 3.95515 22.0555 3.81846 21.9794 3.6511C21.9032 3.48375 21.886 3.29556 21.9303 3.11714C21.9747 2.93871 22.0781 2.78054 22.2238 2.66834C22.3694 2.55613 22.5487 2.49649 22.7326 2.49911H22.7978C23.5555 2.75167 24.3213 2.9798 25.0627 3.26495L26.1626 3.74564L26.7085 3.99006L27.2299 4.28336L28.2646 4.86997C28.5986 5.08994 28.9164 5.32622 29.2423 5.55434L29.723 5.89653L30.1711 6.2876C30.4644 6.55646 30.7821 6.79273 31.051 7.10233C32.1724 8.2115 33.1126 9.4899 33.8373 10.8908C34.5673 12.2542 35.0526 13.735 35.2713 15.2659Z" fill="#444445"/>
<path d="M9.55847 13.4816C9.7336 12.0678 10.1937 10.7041 10.9109 9.47317C11.6119 8.21563 12.5178 7.0839 13.5914 6.12463C14.6578 5.15667 15.8811 4.377 17.2088 3.81895C18.5115 3.25075 19.9044 2.91702 21.3232 2.83313C20.6958 3.18346 20.0522 3.41973 19.4574 3.74563C18.8627 4.07152 18.2435 4.35667 17.6813 4.73145C16.5359 5.41032 15.463 6.20476 14.4794 7.10231C13.4857 7.98837 12.5824 8.97086 11.7827 10.0353C10.946 11.1198 10.202 12.2726 9.55847 13.4816Z" fill="#333333"/>
<path d="M32.8598 15.2659C32.3158 14.0515 31.6175 12.9124 30.7822 11.8766C29.9715 10.8463 29.0659 9.89434 28.0773 9.03321C27.0828 8.18393 26.0139 7.42589 24.8836 6.76826C24.3377 6.41793 23.7348 6.14907 23.1645 5.84762C22.5942 5.54617 21.975 5.32619 21.3802 5.03289H21.3151C21.1905 5.01619 21.0714 4.9709 20.9673 4.90055C20.8631 4.8302 20.7766 4.73671 20.7146 4.62738C20.6526 4.51804 20.6167 4.39585 20.6098 4.27034C20.6028 4.14484 20.625 4.01943 20.6746 3.90393C20.7242 3.78842 20.7999 3.68597 20.8956 3.60456C20.9914 3.52316 21.1047 3.46503 21.2267 3.43471C21.3487 3.40438 21.476 3.4027 21.5988 3.42978C21.7215 3.45686 21.8363 3.51198 21.9342 3.59082H21.9994C22.6023 3.933 23.2134 4.2426 23.7918 4.60108C24.3703 4.95956 24.9569 5.31804 25.4946 5.74985C26.6024 6.56362 27.6333 7.47723 28.5743 8.47919C29.5095 9.46236 30.3497 10.5317 31.0837 11.6729C31.8393 12.7825 32.4371 13.9917 32.8598 15.2659Z" fill="#444445"/>
<path d="M10.2184 15.8118C10.581 14.5223 11.1299 13.2927 11.8478 12.1618C12.5642 11.0233 13.4089 9.97088 14.3654 9.02511C14.846 8.55256 15.3593 8.11261 15.8808 7.68895C16.1496 7.48527 16.4348 7.29788 16.6955 7.10235C16.9645 6.8986 17.2507 6.71868 17.5509 6.56462C18.7113 5.85987 19.9847 5.36097 21.315 5.08997C20.2233 5.90469 19.1397 6.55648 18.1538 7.3875C17.1543 8.18107 16.2021 9.03256 15.3023 9.9376C13.4831 11.7843 11.785 13.7465 10.2184 15.8118Z" fill="#333333"/>
<path d="M33.7235 8.56884C30.0898 1.43181 24.7614 -0.189498 21.861 2.13248C18.9606 -0.189498 13.6322 1.43181 9.99856 8.56884C8.84164 10.8501 8.09209 16.6265 10.9681 21.1808C15.7831 16.1703 14.5855 12.5447 17.5511 11.2493C19.5064 10.4346 22.0891 12.9439 22.0891 12.9439C22.0891 12.9439 24.6066 10.5649 26.6272 11.2493C29.772 12.3247 27.8819 15.9747 33.1939 21.1808C36.078 16.6265 34.8641 10.8093 33.7235 8.56884Z" stroke="#333333" stroke-width="1.5" stroke-linecap="round" stroke-linejoin="round"/>
<path d="M22.0726 13.392C23.283 13.392 24.2642 12.4108 24.2642 11.2004C24.2642 9.99001 23.283 9.00879 22.0726 9.00879C20.8622 9.00879 19.881 9.99001 19.881 11.2004C19.881 12.4108 20.8622 13.392 22.0726 13.392Z" stroke="#F9CD5A" stroke-width="1.5" stroke-linecap="round" stroke-linejoin="round" stroke-dasharray="0.06 1.63"/>
<path d="M22.0726 6.85789V1.6925" stroke="#F9CD5A" stroke-width="1.5" stroke-linecap="round" stroke-linejoin="round" stroke-dasharray="0.27 2.69"/>
<path d="M22.8549 17.6857C22.7203 17.2475 22.5598 16.8176 22.3742 16.3984C22.3397 16.3155 22.2754 16.2486 22.1939 16.2109C22.1124 16.1732 22.0198 16.1674 21.9343 16.1947C21.8867 16.2102 21.8434 16.2368 21.808 16.2721C21.7726 16.3075 21.7461 16.3508 21.7306 16.3984C21.5451 16.8186 21.3819 17.2483 21.2417 17.6857C21.1434 17.9017 21.135 18.148 21.2183 18.3703C21.3015 18.5927 21.4697 18.7728 21.6858 18.8711C21.9019 18.9694 22.1481 18.9779 22.3705 18.8946C22.5928 18.8113 22.7729 18.6432 22.8712 18.4271V18.3619C22.9132 18.2537 22.9334 18.1382 22.9306 18.0222C22.9278 17.9061 22.9021 17.7917 22.8549 17.6857Z" fill="#9C1C49"/>
<path d="M22.0728 12.0966C22.5587 12.0966 22.9527 11.7027 22.9527 11.2167C22.9527 10.7307 22.5587 10.3368 22.0728 10.3368C21.5868 10.3368 21.1929 10.7307 21.1929 11.2167C21.1929 11.7027 21.5868 12.0966 22.0728 12.0966Z" fill="#F9CD5A"/>
<path d="M22.0727 15.7547C22.4371 15.7547 22.7326 15.4593 22.7326 15.0948C22.7326 14.7303 22.4371 14.4349 22.0727 14.4349C21.7082 14.4349 21.4127 14.7303 21.4127 15.0948C21.4127 15.4593 21.7082 15.7547 22.0727 15.7547Z" fill="#F9CD5A"/>
</svg>
