<svg width="51" height="53" viewBox="0 0 51 53" fill="none" xmlns="http://www.w3.org/2000/svg">
<path d="M10.45 23.0016V26.6516C10.45 28.2316 11.4999 29.0416 12.5499 29.8016C14.6499 31.3816 12.55 33.4816 18.85 33.4816H31.45C37.75 33.4816 35.65 31.3816 37.75 29.8016C38.75 29.0416 39.8499 28.2316 39.8499 26.6516V23.0016H10.45Z" fill="#BFB79B"/>
<path d="M10.45 23.0016V26.6516C10.45 28.2316 11.4999 29.0416 12.5499 29.8016C14.6499 31.3816 12.55 33.4816 18.85 33.4816H31.45C37.75 33.4816 35.65 31.3816 37.75 29.8016C38.75 29.0416 39.8499 28.2316 39.8499 26.6516V23.0016H10.45Z" stroke="#333333" stroke-width="1.5" stroke-linejoin="round"/>
<path d="M48.77 44.5315C48.5578 43.4989 48.048 42.5509 47.3034 41.8046C46.5589 41.0583 45.6121 40.5462 44.58 40.3316C42.92 40.0016 39 39.1015 34.77 38.2315C33.77 38.0015 32.56 37.8015 31.45 37.6415V32.4615H18.85V37.5915C17.68 37.7515 16.52 37.9615 15.36 38.2115L5.73 40.3116C4.69711 40.5268 3.74951 41.0389 3.00344 41.785C2.25738 42.5311 1.74529 43.4787 1.53 44.5115L1 46.6315C1.29 46.8516 11.15 51.8815 25.15 51.8815C39.15 51.8815 49.01 46.8815 49.3 46.6315L48.77 44.5315Z" fill="#EDCCC3"/>
<path d="M1.70996 43.8715L15.53 41.0815L16.23 40.9315C16.9669 40.7859 17.6306 40.3895 18.1083 39.8098C18.5859 39.23 18.848 38.5027 18.85 37.7515V37.5715H18.74C17.61 37.7315 16.49 37.9215 15.36 38.1715L5.72996 40.2715C4.80584 40.4729 3.9497 40.9103 3.24513 41.5413C2.54056 42.1723 2.01162 42.9751 1.70996 43.8715Z" fill="#EFD5CE"/>
<path d="M23.8901 41.3116C24.6893 42.167 25.1389 43.2909 25.1501 44.4615V51.8815C39.1501 51.8815 49.0101 46.8815 49.3001 46.6315L48.7701 44.5315C48.5579 43.4989 48.0481 42.5509 47.3035 41.8046C46.559 41.0583 45.6122 40.5462 44.5801 40.3316C42.9201 40.0016 39.0001 39.1015 34.7701 38.2315C33.7701 38.0015 32.5601 37.8015 31.4501 37.6415V32.4615H18.8501V36.1315L23.8901 41.3116Z" fill="#E5C2BA"/>
<path d="M44.58 40.3315C42.92 40.0015 39 39.1015 34.77 38.2315C33.77 38.0015 32.56 37.8015 31.45 37.6415V37.7515C31.4611 38.4984 31.7284 39.2189 32.2071 39.7923C32.6859 40.3657 33.347 40.7573 34.08 40.9015L34.77 41.0515L48.6399 44.0515C48.3535 43.1274 47.8266 42.2959 47.1133 41.6422C46.3999 40.9886 45.5256 40.5363 44.58 40.3315Z" fill="#E9C7BE"/>
<path d="M31.5701 51.5415C37.7249 50.9716 43.7289 49.309 49.3001 46.6315L48.7701 44.5315C48.5579 43.4989 48.0481 42.5509 47.3035 41.8046C46.5589 41.0583 45.6122 40.5462 44.5801 40.3315C43.4501 40.0815 41.2801 39.6015 38.6601 39.0415C37.2701 44.5315 34.7401 48.9415 31.5701 51.5415Z" fill="#DDE5E8"/>
<path d="M11.63 39.0016L5.73 40.3116C4.69711 40.5269 3.74951 41.0389 3.00344 41.785C2.25738 42.5311 1.74529 43.4787 1.53 44.5116L1 46.6316C6.5712 49.309 12.5751 50.9717 18.73 51.5416C15.56 48.9416 13 44.5316 11.63 39.0016Z" fill="#DDE5E8"/>
<path d="M11.6299 39.0016L6.90991 40.0016C4.46991 40.5316 2.52991 41.3416 1.65991 43.8016L12.3799 41.7316C12.1499 40.8516 11.8699 40.0016 11.6299 39.0016Z" fill="#EAEEEF"/>
<path d="M38.6701 39.0016L43.3901 40.0016C45.8401 40.5316 47.7701 41.3416 48.6401 43.8016L37.8701 41.7516C38.1501 40.8516 38.4301 40.0016 38.6701 39.0016Z" fill="#EAEEEF"/>
<path d="M18.8501 39.8216V33.5316" stroke="#333333" stroke-width="1.5" stroke-linejoin="round"/>
<path d="M31.45 39.8216V34.0316" stroke="#333333" stroke-width="1.5" stroke-linejoin="round"/>
<path d="M18.85 37.7516C18.85 37.7516 10.23 39.3216 5.73 40.3716C4.69711 40.5868 3.74951 41.0989 3.00344 41.845C2.25738 42.5911 1.74529 43.5387 1.53 44.5716L1 46.6716C8.56401 50.1777 16.8132 51.9574 25.15 51.8816C39.15 51.8816 49.01 46.8816 49.3 46.6316L48.77 44.5316C48.5578 43.4989 48.048 42.551 47.3034 41.8046C46.5589 41.0583 45.6121 40.5462 44.58 40.3316C40.08 39.3316 31.45 37.7516 31.45 37.7516" stroke="#333333" stroke-width="1.5" stroke-linecap="round" stroke-linejoin="round"/>
<path d="M25.1499 37.1815C26.0257 37.297 26.9165 37.1929 27.7422 36.8787C28.5678 36.5645 29.3024 36.0501 29.8799 35.3815C32.7999 32.3316 35.1499 30.6515 35.1499 27.5015V25.9315C37.2499 25.9315 38.0399 23.7715 38.2899 21.7315C38.5899 19.3115 38.0099 17.5315 36.1899 17.5315V15.4315C36.1899 9.75155 33.6099 4.93155 25.1899 4.93155C16.7699 4.93155 14.1899 9.75155 14.1899 15.4315V17.5315C12.3699 17.5315 11.7899 19.3115 12.0899 21.7315C12.3399 23.7315 13.1399 25.9315 15.2299 25.9315V27.5015C15.2299 30.6515 17.5599 32.3316 20.4799 35.3815C21.0554 36.047 21.7867 36.5596 22.6086 36.8737C23.4304 37.1878 24.3172 37.2936 25.1899 37.1815" fill="#EDCCC3"/>
<path d="M25.1501 4.92154C16.7501 4.92154 14.1501 9.73154 14.1501 15.4215V17.5215C12.3301 17.5215 11.7501 19.3015 12.0501 21.7215C12.3001 23.7215 13.1001 25.9215 15.1901 25.9215V27.4915C15.1932 28.2121 15.3358 28.9252 15.6101 29.5915L18.0501 22.3615C19.8501 18.5415 25.7701 18.9915 28.8201 16.9415C30.2756 15.8895 31.4624 14.5091 32.2843 12.9123C33.1061 11.3155 33.5398 9.54739 33.5501 7.75154C31.8201 6.00154 29.1501 4.92154 25.1501 4.92154Z" fill="#E5C2BA"/>
<path d="M36.13 17.7615V15.6615C36.13 9.98153 33.54 5.16153 25.13 5.16153C24.2027 5.16144 23.2767 5.23164 22.36 5.37153V16.9415C22.3683 17.4869 22.2632 18.028 22.0515 18.5306C21.8398 19.0333 21.526 19.4865 21.13 19.8615C21.0469 19.9473 21.0005 20.0621 21.0005 20.1815C21.0005 20.301 21.0469 20.4157 21.13 20.5015C21.193 20.5655 21.2727 20.6106 21.36 20.6315C21.8017 20.7534 22.2023 20.9925 22.5191 21.3235C22.836 21.6544 23.0575 22.0649 23.16 22.5115C23.1888 22.6376 23.2653 22.7476 23.3735 22.8184C23.4816 22.8893 23.613 22.9155 23.74 22.8915C23.8078 22.8719 23.8719 22.8415 23.93 22.8015C24.0996 22.6511 24.3015 22.5416 24.52 22.4815C24.6447 22.4435 24.7793 22.4557 24.8951 22.5155C25.0109 22.5753 25.0988 22.6779 25.14 22.8015C25.1456 22.848 25.1456 22.895 25.14 22.9415V25.0015C25.1512 25.199 25.2144 25.39 25.3233 25.5551C25.4322 25.7202 25.5829 25.8535 25.76 25.9415C26.34 26.2515 25.93 27.3415 25.14 27.3415C24.8276 27.3507 24.5189 27.271 24.25 27.1115C23.51 26.7415 22.82 27.5015 22.97 27.7815C23.12 28.0615 23.31 27.7815 24.06 28.1315C24.4026 28.3007 24.7781 28.3928 25.16 28.4015V32.0715C25.1604 32.1608 25.1914 32.2472 25.2478 32.3164C25.3043 32.3855 25.3827 32.4332 25.47 32.4515C26.78 32.7615 27.47 34.9415 25.16 35.4515C24.8793 35.503 24.6255 35.6513 24.4428 35.8705C24.2601 36.0898 24.16 36.3661 24.16 36.6515V37.1815H25.16C26.0106 37.2834 26.8731 37.168 27.667 36.8462C28.4609 36.5245 29.1604 36.0068 29.7 35.3415C32.61 32.3415 35.14 30.9415 35.14 27.7415V26.1615C37.25 26.1615 38.04 24.0115 38.3 21.9615C38.55 19.5515 38 17.7615 36.13 17.7615Z" fill="#E5C2BA"/>
<path d="M33.5301 8.00153C31.8201 6.24153 29.1401 5.13153 25.1301 5.13153C24.2231 5.13309 23.3175 5.19993 22.4201 5.33153L22.3601 5.49153V16.9415C22.3823 17.936 22.0247 18.9015 21.3601 19.6415C23.8301 18.6415 26.9701 18.3015 28.8901 16.9915C30.3005 15.9486 31.4523 14.5955 32.2569 13.0368C33.0614 11.4781 33.497 9.75532 33.5301 8.00153Z" fill="#DDB9B3"/>
<path d="M20.54 23.5415C20.9543 23.5415 21.29 23.2057 21.29 22.7915C21.29 22.3773 20.9543 22.0415 20.54 22.0415C20.1258 22.0415 19.79 22.3773 19.79 22.7915C19.79 23.2057 20.1258 23.5415 20.54 23.5415Z" fill="#333333"/>
<path d="M22.3499 23.1615C21.7699 22.8315 20.2799 20.9115 18.3499 22.8315C18.1002 22.7207 17.8731 22.5648 17.6799 22.3715C18.6111 21.9099 19.6813 21.8136 20.6799 22.1015" fill="#333333"/>
<path d="M22.3499 23.1615C21.7699 22.8315 20.2799 20.9115 18.3499 22.8315C18.1002 22.7207 17.8731 22.5648 17.6799 22.3715C18.6111 21.9099 19.6813 21.8136 20.6799 22.1015" stroke="#333333" stroke-width="0.503601" stroke-miterlimit="10" stroke-linecap="round"/>
<path d="M27.8 23.1615C28.38 22.8315 29.87 20.9115 31.8 22.8315C32.0498 22.7207 32.2769 22.5648 32.4701 22.3715C31.5389 21.9099 30.4687 21.8136 29.4701 22.1015" fill="#333333"/>
<path d="M27.8 23.1615C28.38 22.8315 29.87 20.9115 31.8 22.8315C32.0498 22.7207 32.2769 22.5648 32.4701 22.3715C31.5389 21.9099 30.4687 21.8136 29.4701 22.1015" stroke="#333333" stroke-width="0.503601" stroke-miterlimit="10" stroke-linecap="round"/>
<path d="M29.55 23.5415C29.9643 23.5415 30.3 23.2057 30.3 22.7915C30.3 22.3773 29.9643 22.0415 29.55 22.0415C29.1358 22.0415 28.8 22.3773 28.8 22.7915C28.8 23.2057 29.1358 23.5415 29.55 23.5415Z" fill="#333333"/>
<path d="M17.6199 20.5016C18.0109 20.2223 18.4579 20.0312 18.9299 19.9416C19.3965 19.8615 19.8733 19.8615 20.3399 19.9416C20.7887 20.02 21.2327 20.1235 21.6699 20.2516C22.0705 20.3696 22.4779 20.4631 22.8899 20.5316C22.9556 20.5388 23.0192 20.5589 23.0771 20.5907C23.135 20.6225 23.1861 20.6654 23.2274 20.7169C23.2687 20.7684 23.2995 20.8276 23.3179 20.891C23.3364 20.9545 23.3422 21.0209 23.3349 21.0866C23.3277 21.1522 23.3076 21.2158 23.2758 21.2737C23.244 21.3316 23.2011 21.3827 23.1496 21.424C23.0981 21.4653 23.0389 21.4961 22.9755 21.5145C22.912 21.533 22.8456 21.5388 22.7799 21.5316H22.7099C22.2577 21.3991 21.8164 21.2319 21.3899 21.0316C20.9899 20.8616 20.5899 20.6916 20.1899 20.5616C19.8051 20.4385 19.4039 20.3744 18.9999 20.3716C18.5855 20.3701 18.1819 20.5035 17.8499 20.7516C17.8164 20.7839 17.7716 20.802 17.7249 20.802C17.6783 20.802 17.6335 20.7839 17.5999 20.7516C17.5824 20.7348 17.5684 20.7146 17.5589 20.6922C17.5494 20.6699 17.5444 20.6459 17.5444 20.6216C17.5444 20.5973 17.5494 20.5732 17.5589 20.5509C17.5684 20.5285 17.5824 20.5084 17.5999 20.4916L17.6199 20.5016Z" fill="#333333"/>
<path d="M32.2 20.7915C31.868 20.5435 31.4644 20.4101 31.05 20.4115C30.6351 20.4203 30.2239 20.4911 29.83 20.6215C29.4173 20.753 29.0132 20.9099 28.62 21.0915C28.1921 21.2914 27.7469 21.452 27.29 21.5715C27.1575 21.6018 27.0184 21.579 26.9025 21.5079C26.7866 21.4369 26.7032 21.3233 26.67 21.1915C26.6401 21.0577 26.6643 20.9174 26.7373 20.8012C26.8104 20.6851 26.9264 20.6025 27.06 20.5715H27.13C27.5413 20.522 27.9466 20.4316 28.34 20.3015C28.7774 20.1769 29.2214 20.0767 29.67 20.0015C30.1529 19.9165 30.647 19.9165 31.13 20.0015C31.6027 20.0823 32.0527 20.263 32.45 20.5315C32.4898 20.5581 32.5174 20.5993 32.5268 20.6462C32.5362 20.6931 32.5265 20.7418 32.5 20.7815C32.4735 20.8213 32.4322 20.8489 32.3854 20.8583C32.3385 20.8677 32.2898 20.8581 32.25 20.8315L32.2 20.7915Z" fill="#333333"/>
<path d="M25.0801 28.7216V29.4716" stroke="#D8B5AF" stroke-width="0.5" stroke-miterlimit="10" stroke-linecap="round"/>
<path d="M22.1299 30.8215L21.6299 31.8215" stroke="#D8B5AF" stroke-width="0.5" stroke-miterlimit="10" stroke-linecap="round"/>
<path d="M28.1299 30.8215L28.6299 31.8215" stroke="#D8B5AF" stroke-width="0.5" stroke-miterlimit="10" stroke-linecap="round"/>
<path d="M25.9101 30.1115C25.6696 30.2404 25.4028 30.3122 25.1301 30.3215C24.9301 30.3215 24.9101 30.3215 24.4501 30.1115C23.6501 29.8015 23.6101 30.7815 22.1201 31.3115L23.0401 32.2515C23.4625 32.6357 24.0197 32.8371 24.5901 32.8115H25.5901C26.2016 32.8234 26.796 32.6098 27.2601 32.2115L28.1201 31.3115C26.7101 30.8015 26.7101 29.8015 25.9101 30.1115Z" fill="#A56659"/>
<path d="M28.1299 31.3115C27.1299 31.3115 26.6399 30.8215 25.1299 31.3115C23.6499 30.8115 23.1299 31.3115 22.1299 31.3115" stroke="#743F40" stroke-width="0.5" stroke-miterlimit="10" stroke-linecap="round"/>
<path d="M23.1299 27.8815C24.1299 27.8815 24.1299 28.3815 25.1299 28.3815C26.1299 28.3815 26.1299 27.8815 27.1299 27.8815" stroke="#BA8D86" stroke-width="0.75" stroke-miterlimit="10" stroke-linecap="round"/>
<path d="M38.2699 21.7515C38.5699 19.3315 37.9899 17.5515 36.1699 17.5515V15.4515C36.1699 11.4515 34.8699 7.82153 31.0999 6.07153C30.9459 6.1437 30.7957 6.22381 30.6499 6.31153L29.3499 9.00153C28.7869 10.1572 28.523 11.4357 28.5824 12.7199C28.6418 14.0041 29.0226 15.2528 29.6899 16.3515C30.3999 17.5215 30.5899 18.0315 31.4899 18.5415C32.011 18.8464 32.4488 19.2752 32.7645 19.7898C33.0802 20.3044 33.2641 20.8889 33.2999 21.4915C33.3403 21.8837 33.4605 22.2634 33.6531 22.6073C33.8458 22.9513 34.1067 23.2522 34.4199 23.4915C35.201 24.1732 36.0897 24.7206 37.0499 25.1115C37.7803 24.137 38.2049 22.9676 38.2699 21.7515Z" fill="#DDB9B3"/>
<path d="M36.1501 17.5315V15.4315C36.1501 9.75155 33.5601 4.93155 25.1501 4.93155C16.7401 4.93155 14.1501 9.75155 14.1501 15.4315V17.5315C12.3301 17.5315 11.7501 19.3115 12.0501 21.7315C12.3001 23.7315 13.1001 25.9315 15.2001 25.9315V27.5015C15.2001 30.6515 17.5201 32.3315 20.4501 35.3815C21.023 36.0476 21.7524 36.5608 22.5728 36.875C23.3932 37.1892 24.2789 37.2946 25.1501 37.1815C26.0259 37.297 26.9167 37.1929 27.7424 36.8787C28.568 36.5645 29.3026 36.0501 29.8801 35.3815C32.8001 32.3315 35.1501 30.6515 35.1501 27.5015V25.9315C37.2501 25.9315 38.0401 23.7715 38.3001 21.7315C38.5701 19.3115 38.0001 17.5315 36.1501 17.5315Z" stroke="#333333" stroke-width="1.5" stroke-linejoin="round"/>
<path d="M31.5701 51.5415C34.7201 48.9415 37.2701 44.5415 38.6601 39.0415" stroke="#333333" stroke-width="1.5" stroke-linejoin="round"/>
<path d="M11.6299 39.0016C13.0199 44.4716 15.5599 48.9216 18.7299 51.5216" stroke="#333333" stroke-width="1.5" stroke-linejoin="round"/>
<path d="M17.27 37.7516C18.85 41.4016 21 43.5016 25.15 45.1016C29.35 43.5216 31.45 41.4216 33.03 37.7516" stroke="#333333" stroke-width="1.05" stroke-linejoin="round"/>
<path d="M25.1501 47.1815C26.0227 47.1815 26.7301 46.4742 26.7301 45.6015C26.7301 44.7289 26.0227 44.0215 25.1501 44.0215C24.2775 44.0215 23.5701 44.7289 23.5701 45.6015C23.5701 46.4742 24.2775 47.1815 25.1501 47.1815Z" fill="#333333"/>
<path d="M29.18 29.5415C29.3954 29.5415 29.57 29.3669 29.57 29.1515C29.57 28.9361 29.3954 28.7615 29.18 28.7615C28.9646 28.7615 28.79 28.9361 28.79 29.1515C28.79 29.3669 28.9646 29.5415 29.18 29.5415Z" fill="#333333"/>
<path d="M40.3301 13.1116L40.0001 11.2616C39.7279 9.9548 39.165 8.7261 38.3531 7.66663C37.5412 6.60716 36.5011 5.74412 35.3101 5.14155C34.7672 4.83176 34.1493 4.67809 33.5246 4.6975C32.8999 4.71691 32.2927 4.90866 31.7701 5.25155L30.4001 7.90155C29.8326 9.05601 29.5661 10.3352 29.6256 11.6202C29.685 12.9053 30.0684 14.1544 30.7401 15.2516C31.4501 16.4216 31.6401 16.9316 32.5401 17.4416C33.0678 17.74 33.5132 18.1649 33.8361 18.6781C34.159 19.1913 34.3494 19.7766 34.3901 20.3816C34.4305 20.7737 34.5507 21.1534 34.7433 21.4973C34.9359 21.8413 35.1969 22.1422 35.5101 22.3816C36.0701 22.6416 38.2701 25.3316 40.4401 23.4316C41.0435 23.0169 41.51 22.4321 41.7801 21.7516L42.2601 20.2416C43.1501 17.3516 41.3001 15.5216 40.3301 13.1116Z" fill="#E8E4CF"/>
<path d="M33 5.68154C32.8299 4.8193 32.3742 4.03952 31.7065 3.46802C31.0389 2.89651 30.1981 2.56661 29.32 2.53154C27.74 2.53154 25.27 -0.408464 19.93 1.29154C12.68 3.61154 10.48 9.57153 8.84999 11.4615C8.35082 12.2461 8.08569 13.1567 8.08569 14.0865C8.08569 15.0164 8.35082 15.927 8.84999 16.7115V19.8615C8.86078 20.914 9.21156 21.9348 9.84999 22.7715L12.53 24.8715C13.0852 25.288 13.7826 25.4681 14.47 25.3725C15.1575 25.277 15.7793 24.9136 16.2 24.3615C16.385 24.11 16.5269 23.8295 16.62 23.5315L17.46 20.5915C19.25 16.7615 25.17 17.2315 28.23 15.1315C29.7318 14.0613 30.9508 12.6418 31.7818 10.9955C32.6128 9.34918 33.0309 7.52544 33 5.68154Z" fill="#E8E4CF"/>
<path d="M22.3699 2.08155C23.975 1.73025 25.6342 1.70305 27.2499 2.00155C24.9997 0.889993 22.4194 0.644419 19.9999 1.31155C12.7499 3.63155 10.5499 9.59155 8.91993 11.4815C7.61993 13.3215 8.49993 15.7915 8.91993 16.7315C8.99993 16.0615 14.1499 4.63155 22.3699 2.08155Z" fill="#EFECDF"/>
<path d="M22.2001 12.0016C18.7201 14.0016 18.0601 19.8216 18.0601 19.8216C22.5301 15.1516 25.0601 17.8816 28.8301 15.1516C32.0801 12.8116 32.2501 10.5516 32.8301 8.72156C27.7701 13.0016 26.7301 9.38156 22.2001 12.0016Z" fill="#BFB79B"/>
<path d="M32.7599 4.45156C33.3332 4.34946 33.9224 4.38371 34.4799 4.55156C35.0065 4.70084 35.5134 4.91233 35.9899 5.18156C36.9323 5.72119 37.7913 6.3949 38.5399 7.18156C39.2829 8.00511 39.8632 8.96198 40.2499 10.0016C40.6385 11.0033 40.8907 12.0527 40.9999 13.1216L40.9099 12.8216C41.4064 13.6581 41.8604 14.5192 42.2699 15.4016C42.7523 16.3138 43.0897 17.2955 43.2699 18.3116C43.3758 19.356 43.2842 20.411 42.9999 21.4216C42.6888 22.4804 42.0433 23.4101 41.1599 24.0716C40.6874 24.4208 40.1393 24.6537 39.5599 24.7516C38.7438 24.8937 37.9043 24.8051 37.1357 24.496C36.3672 24.1868 35.7003 23.6692 35.2099 23.0016C34.889 22.5985 34.6171 22.1587 34.3999 21.6916C34.1989 21.2471 34.0285 20.7893 33.8899 20.3216C33.607 19.4813 33.1807 18.6964 32.6299 18.0016C32.5664 17.9378 32.5308 17.8515 32.5308 17.7616C32.5308 17.6716 32.5664 17.5853 32.6299 17.5216C32.6946 17.4679 32.7759 17.4385 32.8599 17.4385C32.9439 17.4385 33.0253 17.4679 33.0899 17.5216C33.8061 18.2288 34.3739 19.072 34.7599 20.0016C34.9599 20.4816 35.0999 20.8816 35.3099 21.2716C35.5183 21.6501 35.7664 22.0055 36.0499 22.3316C36.5959 22.9392 37.3403 23.3326 38.1499 23.4416C38.923 23.5617 39.7125 23.3751 40.3499 22.9216C40.9585 22.4046 41.3801 21.7018 41.5499 20.9216C41.7836 20.0999 41.865 19.2425 41.7899 18.3916C41.6236 17.5358 41.355 16.7032 40.9899 15.9116C40.6299 15.0716 40.2099 14.2216 39.7799 13.4116L39.6999 13.2716V13.1116C39.6323 12.1565 39.4372 11.2149 39.1199 10.3116C38.8293 9.40457 38.3714 8.56002 37.7699 7.82156C37.1137 7.12727 36.3749 6.51605 35.5699 6.00156C35.1678 5.73967 34.7386 5.52176 34.2899 5.35156C33.8819 5.17989 33.4426 5.09476 32.9999 5.10156H32.9299C32.8405 5.1017 32.7543 5.06759 32.6893 5.00621C32.6242 4.94484 32.585 4.86087 32.5799 4.77156C32.5797 4.69958 32.6016 4.62927 32.6428 4.57022C32.684 4.51116 32.7423 4.46623 32.8099 4.44156L32.7599 4.45156Z" fill="#333333"/>
<path d="M32.6901 5.75154C32.5192 4.96692 32.0896 4.26252 31.4701 3.75154C30.8613 3.26825 30.1074 3.00406 29.3301 3.00154H29.2301L29.1501 2.95154C26.9799 1.70173 24.5029 1.08509 22.0001 1.17154C19.5338 1.38807 17.2107 2.42292 15.4001 4.11154C13.5476 5.81012 11.954 7.77094 10.6701 9.93155C10.3301 10.4715 10.0201 11.0115 9.67009 11.5815C9.36863 12.0644 9.14269 12.5905 9.00009 13.1415C8.86564 13.6803 8.83883 14.2403 8.9212 14.7894C9.00357 15.3385 9.19349 15.866 9.48009 16.3415L9.59009 16.5215V16.7515L9.54009 19.1715C9.49944 19.9098 9.58052 20.6497 9.78009 21.3615C10.0337 22.0238 10.4539 22.6093 11.0001 23.0615C11.5928 23.5678 12.2174 24.0354 12.8701 24.4615C13.2934 24.8228 13.8243 25.0338 14.3801 25.0615C14.651 25.0091 14.9081 24.9012 15.1353 24.7446C15.3624 24.588 15.5547 24.3861 15.7001 24.1515C16.0708 23.6268 16.3701 23.0551 16.5901 22.4515C16.822 21.8188 17.0092 21.1706 17.1501 20.5115C17.1571 20.4681 17.1731 20.4266 17.1969 20.3896C17.2207 20.3527 17.2519 20.321 17.2885 20.2966C17.325 20.2722 17.3663 20.2556 17.4096 20.2478C17.4529 20.2401 17.4973 20.2414 17.5401 20.2515C17.625 20.2686 17.7003 20.3174 17.7505 20.388C17.8006 20.4586 17.822 20.5457 17.8101 20.6315V20.7015C17.701 21.3794 17.5405 22.048 17.3301 22.7015C17.1274 23.4079 16.8243 24.0814 16.4301 24.7015C16.2231 25.0531 15.9426 25.3558 15.6078 25.5888C15.2729 25.8218 14.8917 25.9796 14.4901 26.0515C13.6776 26.0801 12.881 25.8217 12.2401 25.3215C11.5178 24.8933 10.8262 24.4155 10.1701 23.8915C9.46576 23.326 8.91831 22.5891 8.58009 21.7515C8.30312 20.9131 8.16793 20.0344 8.18009 19.1515L8.12009 16.7515L8.23009 17.1215C7.82858 16.4949 7.55552 15.7948 7.42678 15.0618C7.29803 14.3288 7.31615 13.5775 7.48009 12.8515C7.64425 12.1419 7.92833 11.4656 8.32009 10.8515C8.64009 10.3015 8.97009 9.73155 9.32009 9.17155C10.6976 6.85997 12.4479 4.79208 14.5001 3.05154C16.5711 1.24725 19.1788 0.175358 21.9201 0.0015447C24.625 -0.0385038 27.2842 0.700939 29.5801 2.13154L29.3701 2.07154C30.3409 2.12111 31.2658 2.49964 31.9928 3.14486C32.7198 3.79007 33.2056 4.66354 33.3701 5.62154C33.3873 5.71039 33.3686 5.80245 33.3179 5.87746C33.2673 5.95248 33.1889 6.0043 33.1001 6.02154C33.0112 6.03878 32.9192 6.02002 32.8442 5.96939C32.7692 5.91875 32.7173 5.84039 32.7001 5.75154H32.6901Z" fill="#333333"/>
<path d="M13.8901 18.2615C14.8481 17.1594 15.6924 15.9633 16.4101 14.6915C17.1801 13.4315 17.9001 12.1015 18.8301 10.8515C19.779 9.60315 20.9608 8.55042 22.3101 7.75154C23.6452 6.97205 25.0921 6.40208 26.6001 6.06154C26.6863 6.03236 26.7805 6.03863 26.8621 6.07895C26.9437 6.11927 27.0059 6.19034 27.0351 6.27654C27.0643 6.36273 27.058 6.45699 27.0177 6.53857C26.9774 6.62014 26.9063 6.68236 26.8201 6.71154C25.4712 7.22273 24.1887 7.89421 23.0001 8.71154C21.8697 9.57203 20.8606 10.5811 20.0001 11.7115C19.1001 12.8315 18.2901 14.0715 17.4201 15.3015C16.5548 16.568 15.5259 17.7146 14.3601 18.7115C14.2938 18.7739 14.2054 18.8073 14.1145 18.8045C14.0235 18.8017 13.9374 18.7628 13.8751 18.6965C13.8128 18.6302 13.7793 18.5419 13.7821 18.4509C13.785 18.36 13.8238 18.2739 13.8901 18.2115V18.2615Z" fill="#EFECDF"/>
<path d="M13.8501 12.8316C14.5111 11.7496 15.2891 10.7435 16.1701 9.83155C17.0811 8.91127 18.1222 8.12962 19.2601 7.51155C20.4184 6.95198 21.6509 6.56134 22.9201 6.35155C24.1581 6.13005 25.4125 6.01298 26.6701 6.00155C26.7602 5.99094 26.8509 6.01659 26.9222 6.07285C26.9935 6.12911 27.0395 6.21138 27.0501 6.30155C27.0607 6.39173 27.035 6.48242 26.9788 6.55368C26.9225 6.62495 26.8402 6.67094 26.7501 6.68155C25.5501 6.95155 24.3701 7.22155 23.2301 7.56155C22.1214 7.91461 21.0415 8.35257 20.0001 8.87155C18.9214 9.36298 17.9127 9.99515 17.0001 10.7516C16.0771 11.5278 15.2053 12.3629 14.3901 13.2516C14.3263 13.3151 14.24 13.3507 14.1501 13.3507C14.0601 13.3507 13.9738 13.3151 13.9101 13.2516C13.8555 13.1978 13.82 13.1276 13.8092 13.0517C13.7983 12.9758 13.8127 12.8985 13.8501 12.8316Z" fill="#EFECDF"/>
<path d="M30.31 14.1715L31.99 16.1715C32.0625 16.2598 32.0978 16.3728 32.0884 16.4867C32.0791 16.6005 32.0259 16.7062 31.94 16.7815C31.8644 16.845 31.7688 16.8798 31.67 16.8798C31.5712 16.8798 31.4757 16.845 31.4 16.7815L29.2 15.1515C29.1029 15.1057 29.0166 15.0399 28.9468 14.9584C28.877 14.8768 28.8252 14.7814 28.795 14.6784C28.7647 14.5754 28.7566 14.4671 28.7712 14.3608C28.7858 14.2544 28.8228 14.1524 28.8797 14.0613C28.9366 13.9703 29.0121 13.8923 29.1013 13.8326C29.1905 13.7729 29.2914 13.7327 29.3972 13.7148C29.5031 13.6969 29.6115 13.7016 29.7154 13.7286C29.8193 13.7556 29.9163 13.8043 30 13.8715L30.09 13.9315C30.1403 13.9633 30.1843 14.004 30.22 14.0515L30.31 14.1715Z" fill="#B2AA8E"/>
<path d="M17.82 19.5715C18.9056 18.1845 20.3516 17.1225 22 16.5015C23.71 15.9115 25.41 15.9515 26.77 15.4015C28.1847 14.8317 29.4503 13.9457 30.47 12.8115C30.9833 12.2382 31.4019 11.5867 31.71 10.8815C32.02 10.1615 32.26 9.38155 32.58 8.59155C32.6133 8.51291 32.6751 8.44971 32.7529 8.4145C32.8307 8.3793 32.9189 8.37467 33 8.40155C33.0748 8.43441 33.1357 8.49239 33.1722 8.56544C33.2087 8.63849 33.2186 8.72201 33.2 8.80155C33.04 9.62155 32.84 10.4315 32.6 11.2315C32.3316 12.0735 31.9298 12.8669 31.41 13.5815C30.8866 14.2929 30.2712 14.9318 29.58 15.4815C28.893 16.071 28.1031 16.5287 27.25 16.8315C25.48 17.4315 23.78 17.2515 22.33 17.6715C20.8262 18.13 19.4544 18.9427 18.33 20.0415C18.2663 20.1051 18.18 20.1407 18.09 20.1407C18 20.1407 17.9137 20.1051 17.85 20.0415C17.7874 19.981 17.7497 19.8993 17.7441 19.8123C17.7386 19.7254 17.7656 19.6396 17.82 19.5715Z" fill="#B2AA8E"/>
</svg>
