<svg width="30" height="29" viewBox="0 0 30 29" fill="none" xmlns="http://www.w3.org/2000/svg">
<path d="M6.50691 7.48203L7.28991 10.817L6.50691 14.1375L9.42141 15.9355L11.2049 18.85L14.5399 18.067L17.8749 18.85L19.6584 15.9355L22.5729 14.1375L21.7899 10.817L22.5729 7.48203L19.6729 5.68403L17.8749 2.76953L14.5399 3.56703L11.2194 2.78403L9.40691 5.68403L6.50691 7.48203ZM14.5544 16.675C13.0162 16.675 11.5409 16.064 10.4532 14.9763C9.36548 13.8885 8.75441 12.4133 8.75441 10.875C8.75441 9.33678 9.36548 7.86152 10.4532 6.77381C11.5409 5.6861 13.0162 5.07503 14.5544 5.07503C17.7444 5.07503 20.3399 7.67053 20.3399 10.8605C20.3399 14.0795 17.7444 16.675 14.5544 16.675ZM14.5254 15.225C12.1184 15.225 10.1899 13.282 10.1899 10.875C10.1899 8.48253 12.1184 6.52503 14.5254 6.52503C16.9324 6.52503 18.8899 8.48253 18.8899 10.875C18.8899 13.282 16.9324 15.225 14.5254 15.225ZM20.0934 16.82L18.2374 20.068L15.2214 19.3865L18.8899 27.84L20.9199 24.65H24.5449L20.0934 16.82ZM8.92841 16.9215L10.7409 20.184L13.8294 19.4445L10.1899 27.84L8.15991 24.65H4.53491L8.92841 16.9215Z" fill="#4B4B4B"/>
</svg>
