<svg width="20" height="25" viewBox="0 0 20 25" fill="none" xmlns="http://www.w3.org/2000/svg">
<path fill-rule="evenodd" clip-rule="evenodd" d="M10.3897 1.35897C9.77748 1.47146 9.6105 1.51958 9.29185 1.65361C7.57683 2.40909 6.62566 4.4237 7.0809 6.34178C7.0809 6.34178 7.15807 6.7678 7.3698 7.33489C7.58154 7.90199 7.94389 8.12052 7.70609 8.42075C7.70609 8.42075 6.78021 8.35767 6.20426 7.98521C5.48852 7.52236 4.90348 6.52473 4.90348 6.52473C4.63337 6.23868 4.27457 5.19394 5.58163 4.14205C6.10446 3.50679 5.814 2.21259 5.26213 2.21259C4.79709 2.21259 4.24552 2.08663 4.10029 1.6282C4.08203 1.58687 4.06439 1.5467 4.04724 1.50763C3.73705 0.801044 3.58491 0.454493 2.73513 0.0795746C2.73513 0.0795746 1.0619 0.0771999 0.376864 0.8685C-0.169489 1.49961 0.0113818 2.64206 0.107 3.24602C0.13127 3.39932 0.150047 3.51793 0.150046 3.58467C0.15004 3.91438 1.11702 5.77735 1.11702 5.77735C1.11702 5.77735 1.31667 7.07283 1.98342 8.6625C2.65018 10.2522 3.89043 11.6867 6.01491 12.5048C6.01491 13.8236 5.58462 14.6085 5.56381 14.6305L4.26303 17.808L3.74702 19.5708V20.1869C3.742 21.2586 4.06567 22.1425 4.75395 22.9195C5.34579 23.5785 5.94794 23.9428 6.7575 24.1196C7.3393 24.2481 14.1492 24.2481 14.7313 24.1196C15.9705 23.8496 16.9878 22.9327 17.4581 21.7455C17.8488 21.7087 19.1334 21.5364 19.6814 20.8335C20.2001 20.1683 19.9591 19.0264 19.8317 18.4227C19.7994 18.2695 19.7744 18.1509 19.7709 18.0837C19.754 17.7513 18.6833 15.9251 18.6833 15.9251C18.6833 15.9251 18.1943 15.006 17.8668 13.0064C17.6876 11.9125 17.1951 11.1127 17.1951 11.1127C17.1951 11.1127 16.9367 10.4187 15.9951 9.80705C15.9951 9.80705 15.6626 9.4515 14.8439 9.1469C14.7875 9.12594 14.7167 9.0814 14.6358 9.0448C14.4834 8.97589 14.3126 8.89866 14.251 8.81752C14.084 8.59787 13.982 8.45293 13.982 8.42075C13.982 8.41496 13.9765 8.39351 13.9682 8.36055C13.9225 8.17999 13.7894 7.65398 13.982 7.46375L14.377 6.47049L14.4073 6.34178C14.7918 4.71302 14.1695 2.98773 12.854 2.02855C12.5251 1.78736 12.0244 1.55708 11.6397 1.46054C11.3004 1.38024 10.5971 1.32148 10.3897 1.35897ZM16.3697 14.8877L17.1951 17.7277C17.717 19.5065 17.7897 19.8844 17.725 20.6133C18.2458 20.5446 18.779 20.2237 18.89 19.9895C19.0776 19.5935 18.8049 18.3167 18.8049 18.3167C18.8049 18.3167 18.2364 17.2557 17.747 16.4766C17.5452 16.1553 17.4993 15.8188 17.4519 15.471C17.4207 15.2419 17.3888 15.0079 17.3113 14.7699C17.1736 14.3477 16.9474 12.5019 16.5047 11.6868C16.1612 11.0544 15.5249 10.2521 14.8439 10.4047C15.0373 11.0827 15.7241 12.8253 15.9951 13.6887C16.1263 14.1065 16.2344 14.4511 16.2886 14.6305L16.3697 14.8877ZM12.6413 3.33609C12.3023 2.9771 11.8672 2.70904 11.427 2.58593C11.0576 2.48408 10.4047 2.4894 10.0409 2.59124C9.37799 2.77872 8.69499 3.34672 8.38137 3.9844C7.60722 5.52726 8.26987 7.38126 9.82319 8.02958C10.071 8.13674 10.2026 8.15269 10.744 8.15269C11.2854 8.15269 11.4169 8.13674 11.6648 8.02958C13.5217 7.25283 14.0277 4.80424 12.6413 3.33609ZM7.30548 9.64345C6.22934 9.50584 4.44708 8.04968 3.87516 6.9921C3.63637 6.55053 3.65252 6.29765 3.7006 5.54493C3.70584 5.46304 3.71144 5.37523 3.71714 5.28062C4.03147 4.47575 4.26683 4.20818 4.73924 3.67112L4.7628 3.64434C4.92931 3.45499 4.97869 3.21114 4.82644 3.11839C4.76114 3.07861 4.6419 3.08006 4.53434 3.08136C4.44413 3.08246 4.36215 3.08345 4.32711 3.05995C4.17772 2.99615 4.08321 2.9674 4.0047 2.94351C3.8695 2.90238 3.78175 2.87568 3.54287 2.70932C3.48247 2.66725 3.44382 2.49717 3.39609 2.28705C3.31596 1.93436 3.21021 1.46889 2.9329 1.30679C2.34268 0.96176 1.29206 1.41961 1.11702 1.74508C0.911602 2.12699 1.11702 3.40467 1.11702 3.40467C1.11702 3.40467 1.62584 4.48413 2.07057 5.28062C2.25399 5.60913 2.28241 5.94441 2.31178 6.29108C2.33113 6.51938 2.3509 6.75261 2.41562 6.9921C2.77682 8.32854 3.50693 9.8704 4.77183 10.6494C6.04118 11.4312 6.50194 11.6628 6.73487 11.3606C7.2648 10.673 7.30548 9.64345 7.30548 9.64345ZM12.3224 8.97813C11.3057 9.45492 10.1772 9.45492 9.18062 8.98344C8.91271 8.91453 8.69969 9.18813 8.60162 9.34629C8.5594 9.41437 8.53564 9.49126 8.51309 9.56813C8.41708 9.89537 8.15933 10.5077 7.84377 11.2572C7.34454 12.4431 6.70063 13.9727 6.32357 15.2611C5.74716 17.2291 5.36397 18.3585 5.13075 19.0459C4.93412 19.6254 4.8441 19.8907 4.8348 20.0795C4.82449 20.326 4.83982 20.6637 4.87522 20.8296C5.07259 21.7888 5.81108 22.6299 6.72183 22.9355C7.07588 23.0533 7.09623 23.0533 10.744 23.0533C14.3917 23.0533 14.4121 23.0533 14.7661 22.9355C15.5282 22.6819 16.1172 22.1096 16.4253 21.3769C16.5796 21.0102 16.6635 20.6033 16.6635 20.176C16.6635 19.7848 16.5927 19.5224 15.4441 15.595C14.7712 13.302 14.169 11.223 14.0982 10.9712C13.8808 10.1676 13.4506 9.47646 12.8638 8.98344L12.6614 8.81752L12.3224 8.97813Z" fill="#4B4B4B"/>
</svg>
