<svg width="25" height="16" viewBox="0 0 25 16" fill="none" xmlns="http://www.w3.org/2000/svg">
<path d="M24.8578 12.3589C24.8564 10.0714 24.1943 7.83313 22.9512 5.91382L21.7166 7.1508C22.6534 8.72613 23.1479 10.5255 23.1478 12.3589H24.8578Z" fill="#4B4B4B"/>
<path d="M23.1479 3.29711L21.9389 2.08667L14.614 9.42035C14.0928 9.10587 13.4964 8.93818 12.8878 8.93498C12.2114 8.93498 11.5502 9.1358 10.9877 9.51206C10.4253 9.88831 9.98696 10.4231 9.72811 11.0488C9.46926 11.6745 9.40153 12.3629 9.53349 13.0272C9.66545 13.6914 9.99118 14.3015 10.4695 14.7804C10.9478 15.2593 11.5572 15.5854 12.2206 15.7175C12.884 15.8496 13.5717 15.7818 14.1966 15.5226C14.8215 15.2635 15.3556 14.8246 15.7314 14.2615C16.1072 13.6984 16.3078 13.0364 16.3078 12.3591C16.3047 11.7495 16.1372 11.1521 15.823 10.6299L23.1479 3.29711ZM12.8878 14.0712C12.5496 14.0712 12.219 13.9708 11.9378 13.7827C11.6566 13.5946 11.4374 13.3272 11.308 13.0143C11.1785 12.7015 11.1447 12.3572 11.2106 12.0251C11.2766 11.693 11.4395 11.388 11.6786 11.1485C11.9178 10.9091 12.2225 10.746 12.5542 10.68C12.8859 10.6139 13.2297 10.6478 13.5422 10.7774C13.8547 10.907 14.1217 11.1264 14.3096 11.408C14.4975 11.6895 14.5978 12.0205 14.5978 12.3591C14.5974 12.8131 14.417 13.2483 14.0965 13.5693C13.7759 13.8902 13.3412 14.0708 12.8878 14.0712Z" fill="#4B4B4B"/>
<path d="M12.8878 2.08663C14.7186 2.08747 16.5153 2.58251 18.0888 3.51964L19.332 2.27581C17.5254 1.1126 15.439 0.458406 13.2924 0.382056C11.1458 0.305706 9.01833 0.810023 7.13382 1.84195C5.24931 2.87388 3.67742 4.39526 2.58353 6.24604C1.48964 8.09683 0.9142 10.2086 0.917741 12.3591H2.62775C2.63092 9.63567 3.7129 7.02466 5.63635 5.09888C7.5598 3.1731 10.1676 2.0898 12.8878 2.08663Z" fill="#4B4B4B"/>
</svg>
