<svg width="46" height="62" viewBox="0 0 46 62" fill="none" xmlns="http://www.w3.org/2000/svg">
<path d="M41 48.9124L31.74 46.3224C30.8002 46.0586 29.9735 45.4924 29.3878 44.7115C28.8021 43.9306 28.4901 42.9784 28.5 42.0024V38.4124H17.5V42.0024C17.5011 42.9716 17.1851 43.9146 16.6001 44.6874C16.015 45.4602 15.1932 46.0204 14.26 46.2824L5 48.9124C2 49.6524 1.32 52.6324 1 55.9124C7.90537 59.0351 15.4232 60.5694 23 60.4024C30.5768 60.5694 38.0946 59.0351 45 55.9124C44.68 52.6324 44 49.6524 41 48.9124Z" fill="#D69C85"/>
<path d="M17.5 38.4124V42.0024L34.8 59.3024C38.3238 58.5861 41.7485 57.4479 45 55.9124C44.68 52.6324 44 49.6524 41 48.9124L31.74 46.3224C30.8002 46.0586 29.9735 45.4924 29.3878 44.7115C28.8021 43.9306 28.4901 42.9784 28.5 42.0024V38.4124H17.5Z" fill="#C9917D"/>
<path d="M41 48.9124L35.26 47.3024C33.49 53.5324 28.67 58.0024 23 58.0024C17.33 58.0024 12.51 53.5324 10.74 47.3024L5 48.9124C2 49.6524 1.32 52.6324 1 55.9124C7.90537 59.0351 15.4232 60.5695 23 60.4024C30.5768 60.5695 38.0946 59.0351 45 55.9124C44.68 52.6324 44 49.6524 41 48.9124Z" fill="#145773"/>
<path d="M1.6499 52.3224L9.7999 51.9324" stroke="#333333" stroke-width="0.89" stroke-linejoin="round"/>
<path d="M2.75 56.6923L11.29 54.4724" stroke="#333333" stroke-width="0.89" stroke-linejoin="round"/>
<path d="M10.1599 59.0524L12.8599 56.2724" stroke="#333333" stroke-width="0.89" stroke-linejoin="round"/>
<path d="M44.3499 52.3224L36.2 51.9324" stroke="#333333" stroke-width="0.89" stroke-linejoin="round"/>
<path d="M43.25 56.6923L34.71 54.4724" stroke="#333333" stroke-width="0.89" stroke-linejoin="round"/>
<path d="M35.8399 59.0524L33.1399 56.2724" stroke="#333333" stroke-width="0.89" stroke-linejoin="round"/>
<path d="M28.5 38.4124V42.0024C28.4996 42.9781 28.8193 43.9271 29.4099 44.7038C30.0006 45.4804 30.8296 46.042 31.77 46.3024L41 48.9124C44 49.6524 44.68 52.6324 45 55.9124C38.0946 59.0351 30.5768 60.5694 23 60.4024C15.4232 60.5694 7.90537 59.0351 1 55.9124C1.32 52.6324 2 49.6524 5 48.9124L14.23 46.3224C15.1746 46.0626 16.007 45.4985 16.5982 44.7174C17.1895 43.9363 17.5064 42.9819 17.5 42.0024V38.4124" stroke="#333333" stroke-width="1.5" stroke-linejoin="round"/>
<path d="M32.9999 46.6523C32.805 49.163 31.6701 51.5076 29.8218 53.2179C27.9736 54.9283 25.5481 55.8783 23.0299 55.8783C20.5117 55.8783 18.0863 54.9283 16.238 53.2179C14.3898 51.5076 13.2548 49.163 13.0599 46.6523L8.65991 47.8923C9.14493 51.3585 10.8665 54.5326 13.5072 56.8295C16.148 59.1265 19.53 60.3916 23.0299 60.3916C26.5299 60.3916 29.9119 59.1265 32.5526 56.8295C35.1934 54.5326 36.9149 51.3585 37.3999 47.8923L32.9999 46.6523Z" fill="#EABF73"/>
<path d="M32.9999 46.6523C32.805 49.163 31.6701 51.5076 29.8218 53.2179C27.9736 54.9283 25.5481 55.8783 23.0299 55.8783C20.5117 55.8783 18.0863 54.9283 16.238 53.2179C14.3898 51.5076 13.2548 49.163 13.0599 46.6523L8.65991 47.8923C9.14493 51.3585 10.8665 54.5326 13.5072 56.8295C16.148 59.1265 19.53 60.3916 23.0299 60.3916C26.5299 60.3916 29.9119 59.1265 32.5526 56.8295C35.1934 54.5326 36.9149 51.3585 37.3999 47.8923L32.9999 46.6523Z" stroke="#333333" stroke-width="1.5" stroke-linejoin="round"/>
<path d="M33.4999 23.4924V18.0024C33.4999 12.4824 28.4999 8.00238 22.9999 8.00238C17.4999 8.00238 12.4999 12.4724 12.4999 18.0024V23.5024C9.98988 23.5024 9.61988 25.5024 10.0099 27.5024C10.3299 29.1024 11.6499 31.0324 13.3899 31.4124L14.9099 36.5124C15.1487 37.3145 15.5449 38.061 16.0755 38.7083C16.606 39.3556 17.2602 39.8907 17.9999 40.2824L20.5499 41.6724C21.3219 42.0381 22.1656 42.2278 23.0199 42.2278C23.8742 42.2278 24.7178 42.0381 25.4899 41.6724L27.6899 40.6724C28.5387 40.2881 29.2924 39.7215 29.8973 39.0129C30.5023 38.3043 30.9436 37.471 31.1899 36.5724L32.6299 31.4024C34.3699 31.0224 35.6899 29.0924 36.0099 27.4924C36.3799 25.4824 35.9999 23.4924 33.4999 23.4924Z" fill="#D69C85"/>
<path d="M33.5001 23.4924V18.0024C33.5001 12.4824 28.5001 8.00238 23.0001 8.00238C21.9842 8.00508 20.9739 8.15325 20.0001 8.44238V19.1724C20.0001 19.7143 19.8872 20.2503 19.6685 20.7462C19.4499 21.2421 19.1303 21.6869 18.7301 22.0524C18.6697 22.1076 18.6255 22.1782 18.6023 22.2567C18.579 22.3351 18.5776 22.4184 18.5982 22.4976C18.6188 22.5768 18.6605 22.6489 18.719 22.7061C18.7775 22.7633 18.8505 22.8035 18.9301 22.8224C19.3846 22.9356 19.7997 23.1704 20.1309 23.5016C20.4621 23.8328 20.6969 24.2479 20.8101 24.7024C20.8275 24.7823 20.8646 24.8566 20.918 24.9186C20.9715 24.9805 21.0396 25.028 21.1162 25.0568C21.1928 25.0857 21.2753 25.0949 21.3563 25.0836C21.4374 25.0724 21.5143 25.041 21.5801 24.9924C21.7513 24.8498 21.9481 24.7411 22.1601 24.6724C22.2328 24.654 22.3087 24.6526 22.3821 24.6682C22.4554 24.6838 22.5242 24.716 22.5831 24.7624C22.642 24.8087 22.6895 24.868 22.722 24.9356C22.7544 25.0033 22.7708 25.0774 22.7701 25.1524V29.7524C22.7802 29.9501 22.843 30.1416 22.952 30.3068C23.0611 30.4721 23.2123 30.6052 23.3901 30.6924C23.9601 31.0124 23.5501 32.0924 22.7701 32.0924C22.4579 32.0994 22.1498 32.0198 21.8801 31.8624C21.1401 31.4924 20.4501 32.2524 20.6101 32.5424C20.7701 32.8324 20.9501 32.5424 21.6901 32.8924C22.0331 33.0603 22.4083 33.1524 22.7901 33.1624V36.8424C22.7923 36.9311 22.8239 37.0167 22.88 37.0855C22.9361 37.1543 23.0136 37.2024 23.1001 37.2224C24.4101 37.5324 25.1001 39.7124 22.7901 40.2224C22.5111 40.2774 22.2594 40.4267 22.0774 40.6451C21.8953 40.8636 21.7939 41.138 21.7901 41.4224V42.1124C23.0486 42.3959 24.3658 42.248 25.5301 41.6924L27.7301 40.6924C28.5789 40.3081 29.3326 39.7415 29.9375 39.0329C30.5425 38.3243 30.9838 37.491 31.2301 36.5924L32.6701 31.4224C34.4101 31.0424 35.7301 29.1124 36.0501 27.5124C36.3801 25.4824 36.0001 23.4924 33.5001 23.4924Z" fill="#C9917D"/>
<path d="M23 8.00238C17.48 8.00238 12.5 12.4824 12.5 18.0024V23.2024L13.11 25.5924C12.27 22.2924 19.6 20.5924 23 20.5924C26 20.5924 33.73 22.2624 32.89 25.5924L33.5 23.2024V18.0024C33.5 12.4724 28.52 8.00238 23 8.00238Z" fill="#C9917D"/>
<path d="M33.4999 23.4924V18.0024C33.4999 12.4824 28.4999 8.00238 22.9999 8.00238C17.4999 8.00238 12.4999 12.4724 12.4999 18.0024V23.5024C9.98988 23.5024 9.61988 25.5024 10.0099 27.5024C10.3299 29.1024 11.6499 31.0324 13.3899 31.4124L14.9099 36.5124C15.1487 37.3145 15.5449 38.061 16.0755 38.7083C16.606 39.3556 17.2602 39.8907 17.9999 40.2824L20.5499 41.6724C21.3219 42.0381 22.1656 42.2278 23.0199 42.2278C23.8742 42.2278 24.7178 42.0381 25.4899 41.6724L27.6899 40.6724C28.5387 40.2881 29.2924 39.7215 29.8973 39.0129C30.5023 38.3043 30.9436 37.471 31.1899 36.5724L32.6299 31.4024C34.3699 31.0224 35.6899 29.0924 36.0099 27.4924C36.3799 25.4824 35.9999 23.4924 33.4999 23.4924Z" stroke="#333333" stroke-width="1.5" stroke-linejoin="round"/>
<path d="M13.34 21.0023L13.45 26.0023H12.55C12.4829 24.9675 12.2359 23.9523 11.82 23.0023C11.4392 21.9626 11.1808 20.8819 11.05 19.7823C10.7317 17.5483 11.0291 15.2698 11.91 13.1923C12.8429 11.0811 14.4695 9.35216 16.52 8.29235C18.5518 7.30065 20.7894 6.80378 23.05 6.84235C25.3127 6.76633 27.5612 7.22904 29.61 8.19235C31.6896 9.25232 33.3161 11.028 34.19 13.1923C35.0285 15.2921 35.2808 17.5803 34.92 19.8123C34.7303 20.8945 34.4596 21.9608 34.11 23.0023C33.7617 23.9697 33.5398 24.9781 33.45 26.0023H32.55L32.66 21.0023C32.66 20.9122 32.6958 20.8257 32.7596 20.7619C32.8234 20.6982 32.9098 20.6623 33 20.6623C33.0902 20.6623 33.1767 20.6982 33.2404 20.7619C33.3042 20.8257 33.34 20.9122 33.34 21.0023L33.45 26.0023C33.45 26.1217 33.4026 26.2362 33.3182 26.3205C33.2338 26.4049 33.1194 26.4523 33 26.4523C32.8807 26.4523 32.7662 26.4049 32.6818 26.3205C32.5974 26.2362 32.55 26.1217 32.55 26.0023C32.6092 24.8912 32.8109 23.7922 33.15 22.7323C33.452 21.7509 33.6793 20.7481 33.83 19.7323C34.0998 17.6932 33.8095 15.619 32.99 13.7323C32.1999 11.9076 30.7803 10.4276 28.99 9.56235C27.1374 8.74156 25.1257 8.34196 23.1 8.39235C21.0658 8.35307 19.0479 8.76279 17.19 9.59235C15.3526 10.4503 13.8711 11.9211 13 13.7523C12.1629 15.6165 11.8483 17.6732 12.09 19.7023C12.1802 20.7256 12.3986 21.7335 12.74 22.7023C13.1695 23.7518 13.4099 24.8691 13.45 26.0023C13.45 26.1217 13.4026 26.2362 13.3182 26.3205C13.2338 26.4049 13.1194 26.4523 13 26.4523C12.8807 26.4523 12.7662 26.4049 12.6818 26.3205C12.5974 26.2362 12.55 26.1217 12.55 26.0023L12.66 21.0023C12.6613 20.9577 12.6714 20.9137 12.6897 20.873C12.708 20.8322 12.7341 20.7955 12.7666 20.7648C12.7991 20.7342 12.8374 20.7102 12.8791 20.6944C12.9209 20.6785 12.9654 20.671 13.01 20.6723C13.0975 20.6723 13.1815 20.7071 13.2434 20.769C13.3052 20.8309 13.34 20.9148 13.34 21.0023Z" fill="#333333"/>
<path d="M38 8.43236C38.1763 7.82663 38.1572 7.18074 37.9453 6.58651C37.7335 5.99227 37.3397 5.47994 36.82 5.12236C32.7415 2.37122 27.9191 0.933557 23 1.00236C18.0978 0.943135 13.2941 2.3804 9.22997 5.12236C8.71024 5.47994 8.31646 5.99227 8.10462 6.58651C7.89277 7.18074 7.87365 7.82663 8.04997 8.43236L12.5 24.0024C11.6 20.7124 19.39 19.0024 23 19.0024C26.23 19.0024 34.4 20.6824 33.5 24.0024L38 8.43236Z" fill="#115A74"/>
<path d="M22.9999 5.24233C17.7642 5.22276 12.718 7.20044 8.88989 10.7723L10.1199 15.2623C11.6957 13.3779 13.6659 11.8622 15.8914 10.8222C18.1168 9.78214 20.5434 9.24311 22.9999 9.24311C25.4564 9.24311 27.883 9.78214 30.1084 10.8222C32.3339 11.8622 34.3041 13.3779 35.8799 15.2623L37.1099 10.7723C33.2817 7.20044 28.2356 5.22276 22.9999 5.24233Z" fill="#47AAB4"/>
<path d="M11.8799 8.46234C10.8124 9.14044 9.80829 9.91358 8.87988 10.7723L10.0699 15.1223C10.9649 14.1092 11.9713 13.2002 13.0699 12.4123L11.8799 8.46234Z" fill="#AD5142"/>
<path d="M16.0499 10.5924C17.1414 10.14 18.2777 9.80483 19.4399 9.59235L18.6899 5.66235C17.4827 5.92262 16.3013 6.29077 15.1599 6.76235L16.0499 10.5924Z" fill="#AD5142"/>
<path d="M26.5698 9.7023C27.7168 9.9242 28.8389 10.2592 29.9198 10.7023L30.8198 6.7723C29.6797 6.30664 28.5022 5.93865 27.2998 5.6723L26.5698 9.7023Z" fill="#AD5142"/>
<path d="M32.8198 12.4124C33.9232 13.1943 34.9302 14.1039 35.8198 15.1224L37.1298 10.7724C36.2089 9.89 35.2042 9.09959 34.1298 8.41235L32.8198 12.4124Z" fill="#AD5142"/>
<path d="M22.9999 5.24233C17.7642 5.22276 12.718 7.20044 8.88989 10.7723L10.1199 15.2623C11.6957 13.3779 13.6659 11.8622 15.8914 10.8222C18.1168 9.78214 20.5434 9.24311 22.9999 9.24311C25.4564 9.24311 27.883 9.78214 30.1084 10.8222C32.3339 11.8622 34.3041 13.3779 35.8799 15.2623L37.1099 10.7723C33.2817 7.20044 28.2356 5.22276 22.9999 5.24233V5.24233Z" stroke="#EABF73" stroke-width="0.5" stroke-miterlimit="10"/>
<path d="M18.6899 5.68231L19.4399 9.61231" stroke="#EABF73" stroke-width="0.5" stroke-miterlimit="10"/>
<path d="M34.1099 8.46234L32.9399 12.4123" stroke="#EABF73" stroke-width="0.5" stroke-miterlimit="10"/>
<path d="M30.8199 6.78235L29.9399 10.5823" stroke="#EABF73" stroke-width="0.5" stroke-miterlimit="10"/>
<path d="M27.2998 5.68231L26.5698 9.52231" stroke="#EABF73" stroke-width="0.5" stroke-miterlimit="10"/>
<path d="M13.0499 12.4123L11.8799 8.46234" stroke="#EABF73" stroke-width="0.5" stroke-miterlimit="10"/>
<path d="M15.1599 6.78235L16.0799 10.7123" stroke="#EABF73" stroke-width="0.5" stroke-miterlimit="10"/>
<path d="M12 23.7524C13.88 20.6224 17.56 19.0024 23 19.0024C28.44 19.0024 32.12 20.5924 34 23.7224" stroke="#333333" stroke-width="1.5" stroke-linejoin="round"/>
<path d="M33.5 23.4924L37.93 8.49237C38.1119 7.8849 38.0967 7.23539 37.8865 6.6371C37.6763 6.03882 37.2819 5.52253 36.76 5.16237C32.7008 2.41342 27.9022 0.962684 23 1.00237C18.0978 0.943146 13.2941 2.38041 9.22997 5.12237C8.71024 5.47995 8.31646 5.99228 8.10462 6.58652C7.89277 7.18075 7.87365 7.82665 8.04997 8.43237L12.5 23.4924" stroke="#333333" stroke-width="1.5" stroke-linejoin="round"/>
<path d="M18.0001 25.6224C16.4201 25.6224 16.1201 26.6224 14.5901 26.9424L15.6501 26.7224C16.1474 27.1923 16.7725 27.5047 17.4468 27.6204C18.1212 27.736 18.8146 27.6497 19.4401 27.3724H20.5601C20.319 26.8858 19.9569 26.4694 19.5087 26.163C19.0604 25.8565 18.541 25.6704 18.0001 25.6224Z" fill="white"/>
<path d="M28.0002 25.6224C27.4593 25.6704 26.9399 25.8565 26.4916 26.163C26.0433 26.4694 25.6813 26.8858 25.4402 27.3724H26.5602C27.1856 27.6497 27.8791 27.736 28.5535 27.6204C29.2278 27.5047 29.8529 27.1923 30.3502 26.7224L31.4102 26.9424C29.9102 26.6524 29.6002 25.6224 28.0002 25.6224Z" fill="white"/>
<path d="M28.08 27.3624C28.5605 27.3624 28.95 26.9729 28.95 26.4924C28.95 26.0119 28.5605 25.6224 28.08 25.6224C27.5995 25.6224 27.21 26.0119 27.21 26.4924C27.21 26.9729 27.5995 27.3624 28.08 27.3624Z" fill="#333333"/>
<path d="M17.92 27.3624C18.4005 27.3624 18.7901 26.9729 18.7901 26.4924C18.7901 26.0119 18.4005 25.6224 17.92 25.6224C17.4396 25.6224 17.05 26.0119 17.05 26.4924C17.05 26.9729 17.4396 27.3624 17.92 27.3624Z" fill="#333333"/>
<path d="M15.6301 26.7224C16.1274 27.1923 16.7525 27.5047 17.4268 27.6204C18.1012 27.736 18.7946 27.6497 19.4201 27.3724H20.5401C20.2985 26.8903 19.9389 26.4771 19.4949 26.1711C19.0508 25.8652 18.5366 25.6764 18.0001 25.6224C16.4201 25.6224 16.1201 26.6224 14.5901 26.9424" stroke="#333333" stroke-miterlimit="10"/>
<path d="M30.37 26.7224C29.8727 27.1923 29.2476 27.5047 28.5732 27.6204C27.8989 27.736 27.2054 27.6497 26.58 27.3724H25.46C25.7016 26.8903 26.0611 26.4771 26.5052 26.1711C26.9493 25.8652 27.4634 25.6764 28 25.6224C29.58 25.6224 29.89 26.6224 31.41 26.9424" stroke="#333333" stroke-miterlimit="10"/>
<path d="M20.6501 24.4224C20.1568 24.1191 19.6299 23.8741 19.0801 23.6924C18.5338 23.5231 17.9598 23.462 17.3901 23.5124C16.8113 23.5623 16.2493 23.7326 15.7401 24.0124C15.2225 24.2915 14.764 24.6684 14.3901 25.1224C14.3621 25.1499 14.3244 25.1653 14.2851 25.1653C14.2458 25.1653 14.2081 25.1499 14.1801 25.1224C14.1566 25.0924 14.1438 25.0555 14.1438 25.0174C14.1438 24.9793 14.1566 24.9423 14.1801 24.9124C14.7408 24.0954 15.5315 23.4634 16.452 23.0966C17.3725 22.7298 18.3812 22.6448 19.3501 22.8524C19.9961 22.9909 20.6213 23.2128 21.2101 23.5124C21.3299 23.5651 21.4242 23.6628 21.4728 23.7843C21.5215 23.9058 21.5205 24.0416 21.4701 24.1624C21.4135 24.2811 21.3133 24.3734 21.1903 24.42C21.0673 24.4666 20.9311 24.4638 20.8101 24.4124H20.6701L20.6501 24.4224Z" fill="#634B45"/>
<path d="M24.8599 23.5524C25.4487 23.2528 26.074 23.0309 26.7199 22.8924C27.6941 22.6685 28.7136 22.751 29.639 23.1287C30.5645 23.5064 31.3506 24.1608 31.8899 25.0024C31.9142 25.0339 31.9274 25.0726 31.9274 25.1124C31.9274 25.1522 31.9142 25.1909 31.8899 25.2224C31.86 25.2459 31.823 25.2587 31.7849 25.2587C31.7468 25.2587 31.7099 25.2459 31.6799 25.2224C31.2998 24.7183 30.8155 24.3022 30.2599 24.0024C29.7508 23.7226 29.1887 23.5523 28.6099 23.5024C28.0402 23.452 27.4662 23.5131 26.9199 23.6824C26.3701 23.8641 25.8432 24.1091 25.3499 24.4124C25.2904 24.4405 25.2257 24.4564 25.1599 24.4591C25.0941 24.4617 25.0284 24.451 24.9668 24.4277C24.9052 24.4043 24.8489 24.3688 24.8013 24.3232C24.7537 24.2776 24.7159 24.2229 24.6899 24.1624C24.6425 24.0578 24.6325 23.94 24.6616 23.829C24.6908 23.7179 24.7573 23.6202 24.8499 23.5524H24.8599Z" fill="#634B45"/>
<path d="M32 19.0024C32.1228 18.4888 32.2901 17.9869 32.5 17.5024C29.6815 15.6225 26.3869 14.5822 23 14.5024C19.5956 14.4715 16.2692 15.5219 13.5 17.5024C13.7099 17.9869 13.8772 18.4888 14 19.0024C14.1683 19.5481 14.1876 20.1289 14.0557 20.6846C13.9238 21.2403 13.6456 21.7505 13.25 22.1624C15.31 20.0924 18.57 19.0024 23 19.0024C27.43 19.0024 30.69 20.0624 32.75 22.1324C32.3605 21.7229 32.0861 21.2178 31.9544 20.6682C31.8227 20.1186 31.8384 19.5439 32 19.0024Z" fill="#EABF73"/>
<path d="M32 19.0024C32.1228 18.4888 32.2901 17.9869 32.5 17.5024C29.6815 15.6226 26.3869 14.5822 23 14.5024V17.5024C23 17.5952 22.9631 17.6842 22.8975 17.7499C22.8319 17.8155 22.7428 17.8524 22.65 17.8524C18.96 17.8524 16.11 18.7024 14.11 20.2324C14.0803 20.9503 13.7718 21.6283 13.25 22.1224C15.31 20.0924 18.57 19.0024 23 19.0024C27.43 19.0024 30.69 20.0624 32.75 22.1324C32.356 21.7257 32.0786 21.2206 31.9466 20.67C31.8147 20.1194 31.8331 19.5434 32 19.0024Z" fill="#E2B66F"/>
<path d="M32 19.0024C32.1228 18.4888 32.2901 17.9869 32.5 17.5024C29.6815 15.6225 26.3869 14.5822 23 14.5024C19.5956 14.4715 16.2692 15.5219 13.5 17.5024C13.7099 17.9869 13.8772 18.4888 14 19.0024C14.1683 19.5481 14.1876 20.1289 14.0557 20.6846C13.9238 21.2403 13.6456 21.7505 13.25 22.1624C15.31 20.0924 18.57 19.0024 23 19.0024C27.43 19.0024 30.69 20.0624 32.75 22.1324C32.3605 21.7229 32.0861 21.2178 31.9544 20.6682C31.8227 20.1186 31.8384 19.5439 32 19.0024V19.0024Z" stroke="#333333" stroke-linejoin="round"/>
<path d="M23 3.82239V12.5724" stroke="#F7D297" stroke-width="1.5" stroke-miterlimit="10" stroke-linecap="round"/>
<path d="M25.2901 8.45234C25.5868 8.37257 25.8928 8.33222 26.2001 8.33234C27.8501 8.33234 28.0901 9.42234 28.0901 9.89234C28.0712 10.1163 28.0083 10.3343 27.9051 10.534C27.8019 10.7336 27.6603 10.911 27.4885 11.0559C27.3167 11.2007 27.118 11.3103 26.9038 11.3784C26.6896 11.4464 26.464 11.4715 26.2401 11.4523C24.6101 11.4523 23.9501 10.6423 22.9801 9.70234C22.0101 8.76234 21.3401 8.00234 19.7201 8.00234C19.4948 7.98172 19.2677 8.00573 19.0517 8.07301C18.8358 8.14029 18.6352 8.24951 18.4615 8.39442C18.2878 8.53932 18.1444 8.71707 18.0395 8.91748C17.9345 9.11789 17.8702 9.33703 17.8501 9.56234V9.56234C17.8501 10.0323 18.1001 11.1223 19.7401 11.1223C20.0507 11.1225 20.36 11.0822 20.6601 11.0023" stroke="#F7D297" stroke-width="1.5" stroke-miterlimit="10" stroke-linecap="round"/>
<path d="M23 59.5024C23.6904 59.5024 24.25 58.9427 24.25 58.2524C24.25 57.562 23.6904 57.0024 23 57.0024C22.3096 57.0024 21.75 57.562 21.75 58.2524C21.75 58.9427 22.3096 59.5024 23 59.5024Z" fill="#E06CAB"/>
<path d="M23.0001 57.7823C22.7384 57.7854 22.4843 57.8699 22.2728 58.024C22.0613 58.1781 21.9031 58.3942 21.8201 58.6423C21.9209 58.9553 22.1419 59.2153 22.4344 59.3653C22.727 59.5153 23.0671 59.543 23.3801 59.4423C23.5677 59.3828 23.7383 59.279 23.8775 59.1398C24.0167 59.0006 24.1205 58.83 24.1801 58.6423C24.097 58.3942 23.9388 58.1781 23.7273 58.024C23.5159 57.8699 23.2617 57.7854 23.0001 57.7823Z" fill="#C6558E"/>
<path d="M23 59.5024C23.6904 59.5024 24.25 58.9427 24.25 58.2524C24.25 57.562 23.6904 57.0024 23 57.0024C22.3096 57.0024 21.75 57.562 21.75 58.2524C21.75 58.9427 22.3096 59.5024 23 59.5024Z" stroke="#333333" stroke-linejoin="round"/>
<path d="M23.8902 34.6023C23.6046 34.7344 23.2948 34.8059 22.9802 34.8123C22.7402 34.8123 22.7202 34.8123 22.1902 34.6023C21.2502 34.2723 21.1902 35.4223 19.4602 35.9823L20.5402 36.8423C20.7508 37.0435 21.0009 37.1989 21.2745 37.2987C21.5481 37.3986 21.8395 37.4406 22.1302 37.4223H23.7702C24.0826 37.4348 24.3945 37.3856 24.6879 37.2775C24.9813 37.1694 25.2505 37.0045 25.4802 36.7923L26.4802 35.9823C24.8402 35.4423 24.8402 34.2723 23.8902 34.6023Z" fill="#A37666"/>
<path d="M19.6501 35.7324L19.3601 36.3024" stroke="#936B55" stroke-width="0.75" stroke-miterlimit="10" stroke-linecap="round"/>
<path d="M26.29 35.7224L26.57 36.3023" stroke="#936B55" stroke-width="0.75" stroke-miterlimit="10" stroke-linecap="round"/>
<path d="M21 32.7324C22 32.7324 22 33.2324 23 33.2324C24 33.2324 24 32.7324 25 32.7324" stroke="#674848" stroke-width="0.75" stroke-miterlimit="10" stroke-linecap="round"/>
<path d="M19.6501 36.0023C20.5201 36.0023 20.3601 35.6923 21.6501 35.6423C22.0912 35.6398 22.531 35.6902 22.9601 35.7923C23.4237 35.6738 23.902 35.6233 24.3801 35.6423C25.7101 35.7123 25.4701 36.0923 26.2801 36.0123" stroke="#634B45" stroke-width="0.75" stroke-miterlimit="10" stroke-linecap="round"/>
</svg>
