<svg width="51" height="54" viewBox="0 0 51 54" fill="none" xmlns="http://www.w3.org/2000/svg">
<path d="M49.1115 42.6756C48.8977 41.5982 48.3789 40.6049 47.6167 39.814C46.8545 39.023 45.8812 38.4677 44.8124 38.2141L25.4761 34.2876L6.13024 38.2141C5.04406 38.5387 4.06826 39.1561 3.3099 39.9988C2.55153 40.8414 2.03991 41.8766 1.83116 42.9909L1 47.1275C8.69138 50.6355 17.0464 52.4509 25.5 52.4509C33.9536 52.4509 42.3086 50.6355 50 47.1275L49.1115 42.6756Z" fill="#434242"/>
<path d="M44.8124 41.405L25.4761 37.4689L6.13024 41.3763C5.04613 41.7047 4.07249 42.3234 3.31472 43.1653C2.55695 44.0073 2.04392 45.0405 1.83115 46.1531L1.58276 47.3759C9.1115 50.7254 17.2598 52.4562 25.5 52.4562C33.7402 52.4562 41.8885 50.7254 49.4172 47.3759L49.1115 45.8569C48.8961 44.7813 48.3765 43.79 47.6144 43.0009C46.8524 42.2118 45.8799 41.6579 44.8124 41.405Z" fill="#333333"/>
<path d="M18.7695 28.9854H32.1445V37.5836C30.2917 39.1673 27.8876 39.9538 25.457 39.7713C23.0275 39.9445 20.6269 39.1591 18.7695 37.5836V28.9854Z" fill="#D8B3AD"/>
<path d="M35.3927 15.0946V12.6871C35.3927 5.57926 31.8006 3.67811 25.5239 3.66855C19.2473 3.659 15.5978 5.51238 15.5978 12.6871V15.0946C12.2732 15.0946 14.1266 24.2182 16.4959 23.9316L17.1264 28.1924C17.3275 29.0473 17.7491 29.8346 18.3492 30.4757C19.3117 31.4897 20.3325 32.4467 21.4064 33.3418C22.5528 34.2971 24.2724 34.1825 25.4666 34.1825C26.6608 34.1825 28.39 34.2494 29.5555 33.3418C30.6267 32.447 31.6443 31.49 32.6031 30.4757C33.1951 29.8302 33.6127 29.0443 33.8164 28.1924L34.4374 23.9602C35.45 24.0844 36.3481 22.4317 36.9022 20.4445C37.4945 18.1517 37.141 15.0946 35.3927 15.0946Z" fill="#EDCCC3"/>
<path d="M35.3926 15.0946V12.6871C35.3926 5.57928 31.8005 3.67813 25.5239 3.66857C24.5949 3.66337 23.6665 3.71442 22.7438 3.82143V14.1583C22.7438 16.1646 20.7375 16.1646 20.7375 17.1677C21.9986 17.174 23.2492 17.397 24.4348 17.8269C24.664 17.9129 25.8869 16.8715 25.8869 18.3905V21.3808C25.8869 22.575 27.0811 24.2469 25.6098 24.2469C24.8742 24.2469 25.2468 24.0367 24.6545 23.8934C23.403 23.6259 23.1164 24.8487 23.4794 24.8487C25.0844 24.906 24.3583 25.3646 25.6863 25.3837V29.0714C25.6863 29.358 25.9347 29.8261 26.2117 29.8261C27.0429 29.8261 28.4281 30.0841 28.4377 30.6477C28.3215 31.1908 28.0657 31.6941 27.6954 32.1079C27.3251 32.5218 26.8532 32.8318 26.3264 33.0074H24.75C24.5276 33.024 24.3107 33.085 24.1122 33.1867C23.9136 33.2885 23.7375 33.4289 23.5941 33.5997C23.5941 33.7717 23.5941 33.9246 23.5941 34.0774C24.2102 34.133 24.8291 34.1521 25.4474 34.1347C26.613 34.1347 28.3708 34.2016 29.5363 33.294C30.6075 32.3993 31.6251 31.4423 32.5839 30.428C33.176 29.7825 33.5936 28.9966 33.7972 28.1447L34.4373 23.9602C35.45 24.0844 36.348 22.4317 36.9021 20.4446C37.4944 18.1517 37.1409 15.0946 35.3926 15.0946Z" fill="#E5C2BA"/>
<path d="M25.6577 25.4219V26.1002" stroke="#D8B3AD" stroke-width="0.75" stroke-miterlimit="10" stroke-linecap="round"/>
<path d="M27.7499 24.8869C27.6047 24.8031 27.4399 24.7589 27.2722 24.7589C27.1045 24.7589 26.9398 24.8031 26.7946 24.8869C26.422 25.0684 26.1545 25.4219 25.6577 25.4219C25.1609 25.4219 24.8743 25.0302 24.5113 24.8869C24.3682 24.797 24.2026 24.7493 24.0336 24.7493C23.8646 24.7493 23.699 24.797 23.5559 24.8869" stroke="#B58985" stroke-width="0.721215" stroke-miterlimit="10" stroke-linecap="round"/>
<path d="M22.0273 27.5237V28.3262" stroke="#E5C2BA" stroke-width="0.75" stroke-miterlimit="10" stroke-linecap="round"/>
<path d="M29.1924 27.5237V28.3262" stroke="#D8B3AD" stroke-width="0.75" stroke-miterlimit="10" stroke-linecap="round"/>
<path d="M16.4959 23.9603L17.1264 27.6479C17.3145 28.6827 17.7324 29.6621 18.3492 30.514C18.8365 30.9821 19.6485 31.8992 20.1835 32.31C19.9376 31.27 19.9839 30.1823 20.3173 29.1669C20.5274 26.7977 19.7918 25.7277 21.1198 24.0462C21.1198 23.5112 18.9607 23.5495 17.8811 22.6037C17.5258 22.2454 17.3266 21.7612 17.327 21.2566L17.4417 18.5721C17.4417 16.6614 16.1233 15.1328 15.5978 15.1328C12.2732 15.0946 14.1266 24.2182 16.4959 23.9603Z" fill="#E5C2BA"/>
<path d="M34.4372 23.9603L33.8067 27.6479C33.6186 28.6827 33.2007 29.6621 32.5839 30.514C32.0966 30.9821 31.2846 31.8992 30.7496 32.31C31.0027 31.2579 30.9564 30.1559 30.6158 29.1287C30.4057 26.7595 30.8165 25.7945 29.4885 24.1036C29.4885 23.5686 31.9724 23.5113 33.052 22.5655C33.4073 22.2072 33.6065 21.723 33.6061 21.2184L33.4819 18.5339C33.4819 16.6232 34.8003 15.0946 35.3257 15.0946C38.6886 15.0946 36.8352 24.2182 34.4372 23.9603Z" fill="#DDBAB6"/>
<path d="M24.6257 18.5339H26.4409" stroke="#333333" stroke-miterlimit="10"/>
<path d="M17.4035 16.8716C19.6008 15.7729 23.6133 17.0531 24.4062 17.8269C25.8966 19.3173 23.4509 21.3808 20.7568 21.3808C18.0627 21.3808 15.2062 17.9607 17.4035 16.8716Z" fill="#343433"/>
<path d="M33.5774 16.8716C31.3801 15.7729 27.3676 17.0531 26.5746 17.8269C25.0843 19.3173 27.53 21.3808 30.2241 21.3808C32.9182 21.3808 35.7747 17.9607 33.5774 16.8716Z" fill="#343433"/>
<path d="M18.7695 33.3322V30.9056" stroke="#343433" stroke-width="1.5" stroke-linejoin="round"/>
<path d="M33.3769 35.8066L44.8411 38.195C45.9283 38.5177 46.9052 39.1345 47.6639 39.9775C48.4225 40.8204 48.9335 41.8567 49.1402 42.9718L49.9713 47.1276C42.2864 50.6404 33.9355 52.4586 25.4857 52.4586C17.0359 52.4586 8.68498 50.6404 1 47.1276L1.85982 42.9909C2.06857 41.8766 2.58019 40.8414 3.33856 39.9988C4.09692 39.1562 5.07272 38.5387 6.1589 38.2141L17.6231 35.8257" stroke="#343433" stroke-width="1.5" stroke-linejoin="round"/>
<path d="M32.6316 32.7399L33.587 36.1696C31.8291 38.6058 29.9089 39.2841 27.3772 39.6758V37.1919C27.3811 36.8105 27.505 36.44 27.7314 36.133C27.9577 35.8261 28.2751 35.5982 28.6383 35.4818C30.173 34.9071 31.544 33.9658 32.6316 32.7399Z" fill="#444444" stroke="#343433" stroke-width="1.5" stroke-linejoin="round"/>
<path d="M18.3206 32.7399L17.3652 36.1696C19.1231 38.6058 21.0433 39.2841 23.575 39.6758V37.1919C23.5711 36.8105 23.4472 36.44 23.2208 36.133C22.9945 35.8261 22.6772 35.5982 22.314 35.4818C20.7792 34.9071 19.4083 33.9658 18.3206 32.7399Z" fill="#444444" stroke="#343433" stroke-width="1.5" stroke-linejoin="round"/>
<path d="M32.1731 33.3322V30.9056" stroke="#343433" stroke-width="1.5" stroke-linejoin="round"/>
<path d="M35.3927 15.0946V12.6871C35.3927 5.57926 31.8006 3.67811 25.5239 3.66855C19.2473 3.659 15.5978 5.51238 15.5978 12.6871V15.0946C12.2732 15.0946 14.1266 24.2182 16.4959 23.9316L17.1264 28.1924C17.3275 29.0473 17.7491 29.8346 18.3492 30.4757C19.3117 31.4897 20.3325 32.4467 21.4064 33.3418C22.5528 34.2971 24.2724 34.1825 25.4666 34.1825C26.6608 34.1825 28.39 34.2494 29.5555 33.3418C30.6267 32.447 31.6443 31.49 32.6031 30.4757C33.1951 29.8302 33.6127 29.0443 33.8164 28.1924L34.4374 23.9602C35.45 24.0844 36.3481 22.4317 36.9022 20.4445C37.4945 18.1517 37.141 15.0946 35.3927 15.0946Z" stroke="#343433" stroke-width="1.5" stroke-linejoin="round"/>
<path d="M20.6517 1.81519C15.808 1.81519 14.7762 5.16847 14.461 7.89123C14.1457 10.614 14.012 16.1168 14.012 16.1168C14.8929 16.6772 15.5281 17.5515 15.7889 18.5625C16.0182 19.2121 16.3717 19.9478 16.8876 19.9478C16.8876 19.9478 16.4577 15.4863 17.4799 13.5565C17.6556 13.2323 17.7065 12.8551 17.6232 12.496C16.1424 10.5853 20.9765 6.97409 22.6197 7.59507C23.9954 8.09185 24.3584 8.55042 25.4857 8.55042C26.6131 8.55042 26.9761 8.09185 28.3518 7.59507C30.2625 6.76391 35.0393 10.5376 33.3578 12.496C33.2588 12.8648 33.3032 13.2573 33.482 13.5947C34.5043 15.5054 34.103 19.986 34.0744 19.986C34.5902 19.986 34.9437 19.2504 35.173 18.6007C35.4179 17.6206 36.0346 16.7743 36.8926 16.241C36.2621 6.46775 36.1475 3.99339 33.1859 2.28331C30.0141 0.439482 22.0178 -1.5381 20.6517 1.81519Z" fill="#343433"/>
<path d="M23.5368 6.97413C23.2537 6.41093 23.0848 5.79727 23.04 5.16851C22.9822 4.52807 23.0306 3.88247 23.1833 3.25781C23.3378 2.62723 23.6207 2.03531 24.0144 1.51907C24.409 1.01042 24.9387 0.623062 25.543 0.401306C25.2014 0.904831 24.901 1.43519 24.645 1.98719C24.4184 2.495 24.2393 3.02269 24.11 3.56352C23.8617 4.69004 23.6704 5.82835 23.5368 6.97413Z" fill="#444444"/>
<path d="M25.4666 3.46791C25.4804 3.11594 25.5735 2.77164 25.7389 2.46066C25.9043 2.14968 26.1378 1.88004 26.4219 1.67185C26.7087 1.45372 27.0323 1.28871 27.3773 1.18462C27.7058 1.07335 28.0552 1.03743 28.3995 1.07953C27.8645 1.52855 27.3773 1.85336 26.9091 2.22595C26.4066 2.61412 25.9251 3.02869 25.4666 3.46791Z" fill="#444444"/>
<path d="M23.5367 6.97404C22.9916 6.70504 22.5221 6.30447 22.1706 5.80851C21.8003 5.30131 21.5608 4.71068 21.4732 4.08888C21.3879 3.45546 21.5014 2.81119 21.798 2.24505C22.0597 1.71256 22.4672 1.26531 22.9731 0.955322C22.77 1.46587 22.6008 1.98927 22.4667 2.5221C22.3507 3.00359 22.3248 3.50241 22.3903 3.99334C22.5805 5.05046 22.9695 6.0619 23.5367 6.97404Z" fill="#444444"/>
<path d="M23.3553 6.76394C22.5432 6.02831 21.8554 5.34046 21.1006 4.73859C20.7271 4.4338 20.3346 4.153 19.9256 3.89788C19.5243 3.61127 19.0849 3.39154 18.6072 3.08583C19.1574 2.99091 19.7227 3.03693 20.2504 3.21958C20.7782 3.39886 21.2699 3.67059 21.7025 4.02208C22.1239 4.37824 22.488 4.79712 22.7821 5.26403C23.0754 5.71867 23.2706 6.22953 23.3553 6.76394Z" fill="#444444"/>
<path d="M23.3553 6.76387C22.1898 6.37218 21.158 5.90406 20.0975 5.55058C19.5739 5.3732 19.0414 5.22332 18.5021 5.10156C17.9345 4.99497 17.3597 4.9311 16.7825 4.91049C17.3134 4.56776 17.9278 4.37619 18.5594 4.35639C19.1856 4.35057 19.8084 4.44739 20.4033 4.64299C20.9872 4.84593 21.5402 5.12886 22.0465 5.4837C22.5549 5.82977 22.9981 6.26319 23.3553 6.76387Z" fill="#444444"/>
<path d="M23.3553 6.7639C22.1042 6.43171 20.8249 6.21741 19.5339 6.12382C18.915 6.09183 18.2946 6.11742 17.6805 6.20024C17.0374 6.29446 16.3996 6.42201 15.7698 6.58239C16.2562 6.08392 16.8513 5.70465 17.5085 5.47418C18.1729 5.23811 18.8778 5.13742 19.5816 5.17802C20.278 5.20658 20.9638 5.35861 21.607 5.62703C22.264 5.87724 22.8601 6.26483 23.3553 6.7639Z" fill="#444444"/>
<path d="M27.3867 45.599C27.3867 45.41 27.4428 45.2253 27.5477 45.0682C27.6527 44.9111 27.8019 44.7886 27.9765 44.7163C28.151 44.644 28.3431 44.6251 28.5285 44.662C28.7138 44.6988 28.884 44.7898 29.0176 44.9234C29.1512 45.057 29.2422 45.2273 29.2791 45.4126C29.3159 45.5979 29.297 45.79 29.2247 45.9646C29.1524 46.1391 29.0299 46.2883 28.8728 46.3933C28.7157 46.4983 28.531 46.5543 28.3421 46.5543C28.0887 46.5543 27.8457 46.4537 27.6665 46.2745C27.4874 46.0953 27.3867 45.8523 27.3867 45.599Z" fill="#444444"/>
<path d="M27.3867 49.5828C27.3867 49.3938 27.4428 49.2091 27.5477 49.052C27.6527 48.8949 27.8019 48.7725 27.9765 48.7002C28.151 48.6279 28.3431 48.6089 28.5285 48.6458C28.7138 48.6827 28.884 48.7736 29.0176 48.9073C29.1512 49.0409 29.2422 49.2111 29.2791 49.3964C29.3159 49.5817 29.297 49.7738 29.2247 49.9484C29.1524 50.123 29.0299 50.2722 28.8728 50.3771C28.7157 50.4821 28.531 50.5381 28.3421 50.5381C28.0887 50.5381 27.8457 50.4375 27.6665 50.2583C27.4874 50.0792 27.3867 49.8362 27.3867 49.5828Z" fill="#444444"/>
<path d="M25.4761 41.4528V52.4489" stroke="#444444" stroke-linejoin="round"/>
<path d="M26.9761 26.7498C26.5947 26.6989 26.2068 26.7315 25.8392 26.8454C25.7082 26.8836 25.569 26.8836 25.4379 26.8454C25.0764 26.7343 24.6953 26.7017 24.3202 26.7498C23.6801 26.8358 23.3171 27.2466 22.0273 27.944L23.4604 28.6414C23.8127 28.898 24.2378 29.0352 24.6737 29.0331H26.6512C27.085 29.0408 27.5099 28.9103 27.8645 28.6605L29.1925 27.9918C27.9028 27.2466 27.6162 26.8071 26.9761 26.7498Z" fill="#DDBAB6"/>
<path d="M29.1925 27.9441C28.2371 27.9441 27.8359 27.5715 26.8996 27.5715C26.4854 27.5889 26.0732 27.64 25.6672 27.7243C25.2613 27.64 24.8491 27.5889 24.4348 27.5715C23.5368 27.5715 23.0496 27.9154 22.0273 27.9154" stroke="#AF8582" stroke-width="0.6" stroke-miterlimit="10" stroke-linecap="round"/>
</svg>
