<svg width="56" height="53" viewBox="0 0 56 53" fill="none" xmlns="http://www.w3.org/2000/svg">
<path d="M54.78 44.28C54.5448 43.0998 53.9791 42.0107 53.1487 41.1396C52.3184 40.2686 51.2576 39.6514 50.09 39.36C47.7 38.76 35.53 36.45 35.53 36.45V30.87H20.6V36.45C20.6 36.45 8.43 38.76 6 39.36C4.83239 39.6514 3.77161 40.2686 2.94127 41.1396C2.11092 42.0107 1.5452 43.0998 1.31 44.28L1 46.39L1.11 46.45C9.63193 50.1413 18.823 52.0374 28.11 52.02C37.3971 52.0377 46.5882 50.1416 55.11 46.45L55.22 46.39L54.78 44.28Z" fill="#D1AFAA"/>
<path d="M36.4599 36.56L49.9999 39.36C51.1675 39.6514 52.2283 40.2686 53.0586 41.1396C53.889 42.0107 54.4547 43.0998 54.6899 44.28L54.9999 46.39C53.8699 47.08 43.5199 51.57 30.4099 51.97C35.7699 46.57 36.3899 38.41 36.4599 36.56Z" fill="#444649"/>
<path d="M36.1799 39.41C39.175 39.7486 42.1447 40.2831 45.0699 41.01L49.9999 42.23C51.0757 42.5006 52.0618 43.0483 52.8601 43.8185C53.6584 44.5887 54.241 45.5546 54.5499 46.62C46.916 49.9052 38.7275 51.7105 30.4199 51.94C34.2699 48.09 35.6699 42.77 36.1799 39.41Z" fill="#383838"/>
<path d="M19.6701 36.56L6.16012 39.36C4.9925 39.6514 3.93173 40.2686 3.10139 41.1396C2.27104 42.0107 1.70531 43.0998 1.47012 44.28L1.12012 46.39C2.25012 47.08 12.6001 51.57 25.7101 51.97C20.3601 46.57 19.7401 38.41 19.6701 36.56Z" fill="#444649"/>
<path d="M19.9999 39.41C17.0048 39.7486 14.0351 40.2831 11.1099 41.01L6.20991 42.23C5.13413 42.5006 4.14799 43.0483 3.3497 43.8185C2.5514 44.5887 1.9688 45.5546 1.65991 46.62C9.26898 49.8953 17.4293 51.7004 25.7099 51.94C21.8599 48.09 20.4599 42.77 19.9999 39.41Z" fill="#383838"/>
<path d="M7.96997 38.98V48.94" stroke="#444649" stroke-width="1.05" stroke-miterlimit="10"/>
<path d="M9.01001 38.77V49.25" stroke="#383838" stroke-width="1.05" stroke-miterlimit="10"/>
<path d="M48.1699 38.98V48.94" stroke="#383838" stroke-width="1.05" stroke-miterlimit="10"/>
<path d="M47.1201 38.77V49.25" stroke="#444649" stroke-width="1.05" stroke-miterlimit="10"/>
<path d="M18.6101 20.73C18.575 20.0371 18.575 19.3429 18.6101 18.65C18.6101 18.3 18.6101 17.96 18.6901 17.6C18.7325 17.2399 18.796 16.8827 18.8801 16.53L18.9301 17.02C18.1755 15.9314 17.6858 14.6815 17.5001 13.37C17.3226 12.0068 17.5304 10.6211 18.1001 9.37L19.7901 10.23C19.2595 11.139 18.9928 12.1779 19.0201 13.23C19.0706 14.3421 19.3787 15.4273 19.9201 16.4V16.46C19.9724 16.527 20.007 16.606 20.021 16.6898C20.035 16.7737 20.0278 16.8597 20.0001 16.94C19.8906 17.2347 19.7971 17.5352 19.7201 17.84C19.6401 18.16 19.5701 18.4933 19.5101 18.84C19.3904 19.5016 19.3069 20.1693 19.2601 20.84L18.6101 20.73Z" fill="#343433"/>
<path d="M38.6001 16.16V13.04C38.6001 6.81002 35.6001 2.52002 28.0501 2.52002C20.5001 2.52002 17.5001 6.81002 17.5001 13.04V16.16C13.9401 16.16 16.2501 25.66 18.5501 26.01V27.01C18.538 28.0568 18.9118 29.0713 19.6001 29.86L23.8701 34.79C24.2719 35.2585 24.7706 35.6343 25.3316 35.8915C25.8927 36.1488 26.5029 36.2813 27.1201 36.28H29.0001C29.6172 36.2806 30.2272 36.1478 30.7881 35.8906C31.3491 35.6334 31.8478 35.258 32.2501 34.79L36.5201 29.86C37.2169 29.0493 37.5875 28.0086 37.5601 26.94V25.94C40.2601 25.29 42.0001 16.16 38.6001 16.16Z" fill="#EDCCC3"/>
<path d="M20.4301 22.68C18.5001 20.92 18.5901 20.17 18.5901 19.38V18.67L19.9201 17.34C20.0766 17.1861 20.2006 17.0024 20.2847 16.7997C20.3689 16.597 20.4115 16.3795 20.4101 16.16V5C18.4101 6.86 17.5001 9.66 17.5001 13V16.12C13.9401 16.12 16.2501 25.62 18.5501 25.97V26.97C18.538 28.0167 18.9118 29.0313 19.6001 29.82L21.6001 32.1V24.87C21.6158 24.4342 21.5158 24.002 21.3103 23.6173C21.1048 23.2326 20.8011 22.9093 20.4301 22.68Z" fill="#E5C2BA"/>
<path d="M38.56 8.93999C37.78 7.86999 36.66 8.93999 36.56 8.93999C36.24 9.14999 35.08 8.31999 33.28 7.86999C31.5681 7.43685 29.7667 7.51683 28.1 8.09999C27.348 7.82028 26.5602 7.64857 25.76 7.58999C23.02 7.30999 21.02 8.71999 19.76 9.25999C18.82 8.25999 17.76 8.52999 17.46 9.25999C16.9322 10.3992 16.7206 11.6595 16.8472 12.9086C16.9739 14.1578 17.4342 15.3499 18.18 16.36L18.6 20.04C18.828 20.0235 19.0457 19.9382 19.2242 19.7953C19.4028 19.6525 19.5338 19.4589 19.6 19.24C19.6902 18.2148 19.9155 17.2061 20.27 16.24C20.3163 16.1415 20.3404 16.0339 20.3404 15.925C20.3404 15.8161 20.3163 15.7085 20.27 15.61C19.88 14.74 18.9 13.73 19.34 11.68C20.72 12.05 21.9 11.16 23.48 10.77C24.7538 10.4326 26.1033 10.524 27.32 11.03C27.7362 11.2364 28.2156 11.2757 28.66 11.14C29.8874 10.5736 31.2575 10.3923 32.59 10.62C34.18 10.92 35.71 11.62 37.16 11.34C37.73 13.34 37 14.6 36.43 15.88C36.3661 15.9819 36.3322 16.0997 36.3322 16.22C36.3322 16.3403 36.3661 16.4581 36.43 16.56C36.7622 17.4863 36.9543 18.457 37 19.44C37.0214 19.6009 37.0998 19.7489 37.2208 19.8571C37.3419 19.9653 37.4976 20.0266 37.66 20.03L38 16.29C40 13.41 39.47 10.17 38.56 8.93999ZM19.79 9.31999C19.79 9.31999 19.82 9.33999 19.79 9.29999V9.31999Z" fill="#E5C2BA"/>
<path d="M38.6 16.16V13.04C38.6 6.80999 35.6 2.51999 28.05 2.51999C27.0093 2.51633 25.9708 2.61684 24.95 2.81999C24.95 7.01999 25.04 14.12 25.04 15.06C25.04 17.06 23.04 17.15 23.04 18.15H26.9C27.1153 17.9385 27.4019 17.8152 27.7034 17.8041C28.005 17.793 28.2998 17.8949 28.53 18.09V24.74C28.3763 24.8564 28.1923 24.9258 28 24.94C27.26 24.94 27 24.36 26 24.36C25.16 24.36 24.92 25.31 25.08 25.31C26.15 24.65 26.69 25.9 28.01 25.92V30.2C28.0126 30.3318 28.0661 30.4575 28.1593 30.5507C28.2525 30.6439 28.3782 30.6974 28.51 30.7C28.9079 30.7 29.2894 30.858 29.5707 31.1393C29.852 31.4206 30.01 31.8022 30.01 32.2C30.01 32.5978 29.852 32.9793 29.5707 33.2607C29.2894 33.542 28.9079 33.7 28.51 33.7H27C26.5162 33.6949 26.047 33.8653 25.6792 34.1798C25.3115 34.4942 25.0702 34.9313 25 35.41V35.7C25.6418 36.0716 26.3685 36.2714 27.11 36.28H29C29.6172 36.2806 30.2271 36.1478 30.7881 35.8906C31.349 35.6334 31.8478 35.258 32.25 34.79L36.52 29.86C37.2168 29.0493 37.5875 28.0086 37.56 26.94V25.94C40.26 25.29 42 16.16 38.6 16.16Z" fill="#E5C2BA"/>
<path d="M39 13.41C39.0426 11.6947 38.7188 9.99013 38.05 8.41002C37.628 8.45197 37.2261 8.61133 36.89 8.87002C36.57 9.08002 35.41 8.25002 33.61 7.80002C31.8982 7.36687 30.0967 7.44686 28.43 8.03002C27.678 7.75031 26.8902 7.5786 26.09 7.52002C25.84 7.52002 25.25 7.52002 25.02 7.52002C25.02 8.52002 25.02 9.63002 25.02 10.52C25.8543 10.5495 26.6797 10.7011 27.47 10.97C27.8588 11.1232 28.2912 11.1232 28.68 10.97C29.9053 10.3968 31.2756 10.2086 32.61 10.43C34.2 10.73 35.3 11.64 37.26 11.29C37.84 13.29 37.1 14.55 36.53 15.83C36.4693 15.9331 36.4373 16.0504 36.4373 16.17C36.4373 16.2896 36.4693 16.407 36.53 16.51C36.9003 17.4298 37.1263 18.4013 37.2 19.39C37.2215 19.551 37.2998 19.6989 37.4209 19.8071C37.5419 19.9153 37.6977 19.9767 37.86 19.98L38.32 16.26C38.5743 15.9147 38.8016 15.5503 39 15.17V13.41Z" fill="#DDB9B3"/>
<path d="M20.8701 23.14C21.2752 23.509 21.7737 23.7601 22.3113 23.8658C22.849 23.9716 23.4054 23.9281 23.9201 23.74C23.9807 23.7198 24.0464 23.7209 24.1063 23.7431C24.1661 23.7654 24.2166 23.8074 24.2493 23.8623C24.282 23.9172 24.2949 23.9816 24.286 24.0448C24.277 24.1081 24.2467 24.1664 24.2001 24.21C22.6345 25.5887 21.6752 27.5289 21.5301 29.61L20.8701 23.14Z" fill="#E9C7BE"/>
<path d="M35.2602 23.14C34.86 23.5 34.3703 23.7456 33.8425 23.8512C33.3146 23.9567 32.7681 23.9183 32.2602 23.74C32.1996 23.7198 32.134 23.7209 32.0741 23.7431C32.0142 23.7654 31.9637 23.8074 31.9311 23.8623C31.8984 23.9172 31.8854 23.9816 31.8944 24.0448C31.9033 24.1081 31.9336 24.1664 31.9802 24.21C33.5459 25.5887 34.5052 27.5289 34.6502 29.61L35.2602 23.14Z" fill="#E1BDB6"/>
<path d="M34.5399 24.86V32.08L36.5399 29.8C37.2197 29.0043 37.5827 27.9863 37.5599 26.94V25.99C39.8699 25.64 42.1699 16.14 38.6099 16.14V13.03C38.6099 9.65003 37.7199 6.85003 35.7099 5.03003V16.15C35.7085 16.3695 35.7511 16.587 35.8353 16.7897C35.9194 16.9924 36.0434 17.1761 36.1999 17.33L37.5299 18.66V19.37C37.5299 20.16 37.6099 20.91 35.6899 22.67C35.3226 22.9017 35.0229 23.2262 34.821 23.6107C34.6191 23.9952 34.5222 24.4261 34.5399 24.86Z" fill="#DDB9B3"/>
<path d="M38.57 16.16C42.13 16.16 39.83 25.66 36.75 27.04L37 21.14C37.92 20.01 37.26 16.94 38.57 16.16Z" fill="#D1AFAA"/>
<path d="M28.4899 28.94H24.6899L25.4499 30.68C25.5442 30.908 25.7137 31.0968 25.9302 31.215C26.1467 31.3333 26.3972 31.3739 26.6399 31.33C27.8629 31.1033 29.117 31.1033 30.3399 31.33C30.5827 31.3739 30.8332 31.3333 31.0497 31.215C31.2662 31.0968 31.4356 30.908 31.5299 30.68L32.2899 28.94H28.4899Z" fill="#E5C2BA"/>
<path d="M29.08 27.21C28.74 27.21 28.43 27.42 28.08 27.43C27.73 27.44 27.83 27.32 27.22 27.21C26.13 27.01 25 28.31 24.22 28.52L25.37 29.52C25.8881 29.9846 26.5543 30.2504 27.25 30.27H28.53C29.3583 30.2603 30.164 29.9987 30.84 29.52L31.93 28.52C30.35 27.94 30.35 27.03 29.08 27.21Z" fill="#D8B3AD"/>
<path d="M31.58 29.08C31.272 29.0999 30.9627 29.0798 30.66 29.02C30.384 28.9398 30.1035 28.8764 29.82 28.83C29.2684 28.8187 28.7175 28.8758 28.18 29H28.06C27.77 29 27.49 28.94 27.2 28.88C26.9255 28.8303 26.6444 28.8303 26.37 28.88C25.7744 29.0243 25.1627 29.0915 24.55 29.08C24.5332 29.0788 24.5169 29.0742 24.5021 29.0663C24.4873 29.0585 24.4742 29.0476 24.4639 29.0344C24.4535 29.0212 24.446 29.006 24.4419 28.9897C24.4378 28.9735 24.4371 28.9565 24.44 28.94C24.44 28.9082 24.4526 28.8776 24.4751 28.8551C24.4976 28.8326 24.5281 28.82 24.56 28.82C25.1481 28.7371 25.7272 28.5998 26.29 28.41C26.6154 28.3202 26.9561 28.2997 27.29 28.35C27.61 28.35 27.92 28.43 28.23 28.47H28.11C28.41 28.47 28.72 28.4 29.02 28.37C29.3276 28.3154 29.6424 28.3154 29.95 28.37C30.4961 28.5651 31.0583 28.7123 31.63 28.81C31.6479 28.8099 31.6657 28.8136 31.6821 28.8207C31.6986 28.8279 31.7134 28.8384 31.7256 28.8515C31.7378 28.8647 31.7472 28.8802 31.7531 28.8972C31.759 28.9141 31.7613 28.9321 31.76 28.95C31.7593 28.9714 31.7538 28.9925 31.7437 29.0114C31.7337 29.0304 31.7194 29.0468 31.702 29.0593C31.6846 29.0719 31.6645 29.0803 31.6434 29.0839C31.6222 29.0875 31.6005 29.0861 31.58 29.08Z" fill="#AF8582"/>
<path d="M17.5 16.16C13.94 16.16 16.25 25.66 19.33 27.04L19.05 21.14C18.16 20.01 18.81 16.94 17.5 16.16Z" fill="#DDB9B3"/>
<path d="M38.6101 16.16V13.04C38.6101 6.81002 35.6101 2.52002 28.0701 2.52002C20.5301 2.52002 17.5201 6.81002 17.5201 13.04V16.16C13.9501 16.16 16.2601 25.66 18.5701 26.01V27.01C18.558 28.0568 18.9318 29.0713 19.6201 29.86L23.8901 34.79C24.2923 35.258 24.7911 35.6334 25.352 35.8906C25.913 36.1478 26.5229 36.2806 27.1401 36.28H29.0001C29.6172 36.2806 30.2271 36.1478 30.7881 35.8906C31.3491 35.6334 31.8478 35.258 32.2501 34.79L36.5201 29.86C37.1903 29.064 37.546 28.0503 37.5201 27.01V26.01C39.8701 25.66 42.1801 16.16 38.6101 16.16Z" stroke="#333333" stroke-width="1.5" stroke-linejoin="round"/>
<path d="M37.5301 4.20999C35.2501 1.78999 31.3801 -0.210012 28.0601 1.69999C24.7301 -0.210012 20.8601 1.78999 18.5801 4.20999C13.5101 9.59999 17.5801 11.92 17.5801 16.21C18.5801 17.12 18.5801 18.63 18.5801 20.02C18.5486 18.6693 18.7171 17.3214 19.0801 16.02C17.2601 13.02 17.9601 11.16 18.5901 9.83999C20.1601 12.63 22.2301 7.27999 28.0601 9.83999C33.5501 7.42999 35.9801 11.92 37.5801 9.76999C38.2401 10.94 38.9101 12.94 37.0001 15.94C37.447 17.2236 37.634 18.5834 37.5501 19.94C37.5501 17.41 37.5501 17.06 38.6001 16.13C38.6301 11.94 42.6001 9.59999 37.5301 4.20999Z" fill="#343433"/>
<path d="M38.69 8.59003C39.2575 9.84185 39.4685 11.226 39.3 12.59C39.1142 13.9031 38.6208 15.1537 37.86 16.24V15.69C37.9874 16.0527 38.0745 16.4283 38.12 16.81C38.17 17.17 38.2 17.52 38.22 17.87C38.2601 18.5628 38.2601 19.2573 38.22 19.95H37.61C37.5665 19.2795 37.4864 18.6118 37.37 17.95C37.31 17.63 37.24 17.31 37.15 17C37.0784 16.7125 36.9744 16.4341 36.84 16.17C36.798 16.0952 36.7759 16.0108 36.7759 15.925C36.7759 15.8392 36.798 15.7548 36.84 15.68V15.61C37.3865 14.643 37.695 13.5598 37.74 12.45C37.7672 11.3992 37.5042 10.3612 36.98 9.45003L38.69 8.59003Z" fill="#343433"/>
<path d="M28.0699 28.3C27.4815 28.5896 26.8357 28.7434 26.1799 28.75H24.1799C24.0665 28.749 23.9558 28.7844 23.864 28.851C23.7722 28.9176 23.7041 29.0119 23.6699 29.12L23.4199 29.88H23.1599V28.45C23.1661 28.1562 23.2585 27.8706 23.4256 27.6288C23.5928 27.387 23.8272 27.1997 24.0999 27.09C24.4999 26.92 25.1899 26.63 25.8899 26.36C27.272 25.8002 28.8178 25.8002 30.1999 26.36C30.8999 26.63 31.5899 26.92 31.9899 27.09C32.2757 27.1885 32.525 27.3711 32.7053 27.6138C32.8855 27.8565 32.9882 28.1479 32.9999 28.45V29.88H32.7399L32.4899 29.12C32.4557 29.0119 32.3877 28.9176 32.2959 28.851C32.2041 28.7844 32.0933 28.749 31.9799 28.75H29.9999C29.3303 28.7523 28.6694 28.5982 28.0699 28.3Z" fill="#343433"/>
<path d="M37.15 19.94C37.15 19.25 37.09 18.57 37.15 17.82C37.1767 17.3972 37.2925 16.9848 37.49 16.61C37.7053 16.2681 37.9679 15.9583 38.27 15.69L38.07 16.13C37.99 13.96 39.07 12.05 39.33 10.33C39.4336 9.46343 39.3389 8.58465 39.053 7.76005C38.7672 6.93544 38.2977 6.18657 37.68 5.57C36.543 4.14876 35.0681 3.03488 33.39 2.33C32.6244 1.98488 31.7895 1.82069 30.9502 1.85017C30.1109 1.87965 29.2896 2.10201 28.55 2.5C28.4075 2.5835 28.2453 2.62751 28.08 2.62751C27.9148 2.62751 27.7526 2.5835 27.61 2.5C26.8695 2.11295 26.0504 1.90005 25.2151 1.87752C24.3798 1.855 23.5504 2.02343 22.79 2.37C21.1109 3.06359 19.635 4.17141 18.5 5.59C17.8802 6.20048 17.4097 6.94587 17.1252 7.76804C16.8408 8.59022 16.75 9.46699 16.86 10.33C17.15 12.05 18.22 13.96 18.15 16.13L17.95 15.69C18.5213 16.2578 18.8752 17.0081 18.95 17.81C19.0308 18.517 19.0476 19.2299 19 19.94C18.9842 20.044 18.9316 20.139 18.8518 20.2076C18.772 20.2761 18.6703 20.3139 18.565 20.3139C18.4598 20.3139 18.3581 20.2761 18.2783 20.2076C18.1984 20.139 18.1459 20.044 18.13 19.94C18.1221 19.2886 18.0551 18.6393 17.93 18C17.834 17.449 17.5516 16.9476 17.13 16.58C17.0684 16.53 17.0179 16.4678 16.9818 16.3972C16.9456 16.3266 16.9246 16.2492 16.92 16.17C16.8748 15.2584 16.6823 14.3601 16.35 13.51C15.9742 12.575 15.6602 11.6162 15.41 10.64C15.1665 9.54828 15.2252 8.4108 15.58 7.35C15.9408 6.34256 16.4681 5.40283 17.14 4.57C18.4222 2.88781 20.1026 1.551 22.03 0.680002C23.0454 0.234834 24.1414 0.00336706 25.25 1.91228e-06C26.3955 -0.000879325 27.5206 0.30283 28.51 0.880002H27.51C28.5053 0.311596 29.6339 0.0182286 30.78 0.0300021C31.8821 0.0436752 32.9703 0.278305 33.98 0.720002C35.9038 1.58314 37.5813 2.91346 38.86 4.59C39.5436 5.41084 40.0783 6.34491 40.44 7.35C40.7997 8.40216 40.8688 9.53186 40.64 10.62C40.3993 11.5998 40.0919 12.5621 39.72 13.5C39.3935 14.3553 39.2013 15.2559 39.15 16.17C39.1454 16.2467 39.1253 16.3217 39.0909 16.3904C39.0565 16.4592 39.0086 16.5203 38.95 16.57C38.7171 16.7448 38.5086 16.95 38.33 17.18C38.1913 17.4088 38.1026 17.6644 38.07 17.93C37.98 18.55 37.97 19.26 37.94 19.93C37.9388 19.986 37.9263 20.0412 37.9034 20.0924C37.8804 20.1435 37.8475 20.1896 37.8065 20.2278C37.7655 20.266 37.7172 20.2956 37.6646 20.3149C37.612 20.3341 37.556 20.3427 37.5 20.34C37.4061 20.3206 37.321 20.271 37.2578 20.1988C37.1946 20.1266 37.1568 20.0357 37.15 19.94Z" fill="#343433"/>
<path d="M30.7399 25.26C29.5299 24.7 29.2699 25.82 28.0699 25.82C26.8699 25.82 26.5899 24.7 25.3899 25.26" stroke="#B58985" stroke-width="0.791243" stroke-miterlimit="10" stroke-linecap="round"/>
<path d="M28.57 8.94001V2.46001C28.5672 2.39563 28.5793 2.33148 28.6053 2.27252C28.6313 2.21356 28.6706 2.16138 28.72 2.12001C29.2657 1.59939 29.9695 1.27565 30.72 1.20001C30.3337 1.71967 29.9988 2.27561 29.72 2.86001C29.6953 2.91709 29.6822 2.97849 29.6814 3.04067C29.6807 3.10284 29.6923 3.16455 29.7155 3.22221C29.7388 3.27988 29.7732 3.33236 29.8169 3.37661C29.8606 3.42086 29.9126 3.45601 29.97 3.48001C30.0161 3.49035 30.0639 3.49035 30.11 3.48001C30.5182 3.51467 30.9174 3.61955 31.29 3.79001C30.6224 4.15969 30.0663 4.70192 29.68 5.36001C29.6582 5.38058 29.6408 5.40538 29.6289 5.43289C29.6171 5.4604 29.611 5.49005 29.611 5.52001C29.611 5.54997 29.6171 5.57962 29.6289 5.60713C29.6408 5.63465 29.6582 5.65945 29.68 5.68001C29.7186 5.6946 29.7613 5.6946 29.8 5.68001C30.2566 5.71784 30.695 5.87662 31.07 6.14001C30.7442 6.23673 30.4427 6.40183 30.1858 6.62428C29.9289 6.84673 29.7223 7.12141 29.58 7.43001C29.9671 7.47052 30.3409 7.59426 30.6758 7.79276C31.0106 7.99126 31.2986 8.25981 31.52 8.58001C30.7115 8.68708 29.9211 8.90234 29.17 9.22001C29.1163 9.24245 29.0586 9.25376 29.0004 9.25325C28.9422 9.25274 28.8847 9.24043 28.8314 9.21706C28.7781 9.19368 28.7302 9.15974 28.6904 9.11727C28.6506 9.07481 28.6198 9.02471 28.6 8.97001C28.5894 8.96055 28.5794 8.95054 28.57 8.94001Z" fill="#444444"/>
<path fill-rule="evenodd" clip-rule="evenodd" d="M20.23 5C21.7786 3.47864 23.7336 2.4369 25.86 2C23.1 1.22 21.14 2.82 19.76 4.4C18.09 6.29 15.93 8.99 17.7 11.13C17.44 9.03 18.12 7.25 20.23 5Z" fill="#444444"/>
<path d="M28.1799 52.02C28.9399 52.02 29.6799 52.02 30.4099 52.02C36.4899 45.91 36.4699 36.23 36.4699 36.23L28.0699 43.37L19.6599 36.23C19.6599 36.23 19.6599 45.9 25.7099 52.01C26.5199 52 27.3499 52.02 28.1799 52.02Z" fill="#D1D8DB" stroke="#333333" stroke-width="1.5" stroke-linejoin="round"/>
<path d="M27.9999 52.02C28.8499 52.02 29.6799 52.02 30.4999 51.96L28.7299 47.51H27.1899L25.6799 51.94C26.4299 52 27.1799 52.02 27.9999 52.02Z" fill="#6E4847" stroke="#333333" stroke-width="1.14379" stroke-linejoin="round"/>
<path d="M38.7001 7.78999C38.6045 8.32093 38.464 8.8428 38.2801 9.34999C38.0814 9.9848 37.6536 10.523 37.0801 10.86C36.7399 11.0175 36.3613 11.0731 35.9901 11.02C35.6872 10.9848 35.3889 10.9178 35.1001 10.82L33.6401 10.33C32.7764 10.0159 31.8573 9.88316 30.9401 9.93999C30.035 10.0208 29.1514 10.2612 28.3301 10.65C28.0925 10.7446 27.8277 10.7446 27.5901 10.65C26.7914 10.3049 25.9452 10.0824 25.0801 9.98999C24.2111 9.93674 23.341 10.0732 22.5301 10.39C22.1001 10.54 21.6701 10.74 21.2001 10.94C20.6586 11.2282 20.0535 11.376 19.4401 11.37C19.0595 11.3224 18.7066 11.1459 18.4401 10.87C18.2257 10.6419 18.0531 10.3779 17.9301 10.09C17.734 9.59727 17.5801 9.08877 17.4701 8.56999C17.4487 8.4576 17.4709 8.34129 17.5322 8.24469C17.5935 8.1481 17.6893 8.07848 17.8001 8.04999C17.902 8.02648 18.009 8.04093 18.1011 8.09063C18.1931 8.14033 18.2639 8.22187 18.3001 8.31999C18.4585 8.75367 18.656 9.17206 18.8901 9.56999C18.9841 9.73031 19.106 9.87255 19.2501 9.98999C19.3302 10.0596 19.4341 10.0954 19.5401 10.09C19.9133 10.0014 20.2685 9.84917 20.5901 9.63999C21.0101 9.40999 21.4501 9.14999 21.9401 8.91999C22.9388 8.42704 24.0364 8.16718 25.1501 8.15999C26.2634 8.16921 27.3617 8.41819 28.3701 8.88999H27.6101C28.6542 8.4322 29.7801 8.19068 30.9201 8.17999C32.056 8.17952 33.1796 8.41446 34.2201 8.86999L35.6201 9.48999C35.9198 9.6714 36.2736 9.74216 36.6201 9.68999C36.8401 9.68999 37.1301 9.30999 37.3401 8.89999C37.5559 8.46474 37.7462 8.01732 37.9101 7.55999C37.9419 7.44992 38.0162 7.35701 38.1165 7.30169C38.1662 7.27429 38.2208 7.25695 38.2772 7.25066C38.3335 7.24436 38.3906 7.24923 38.4451 7.26499C38.4996 7.28075 38.5505 7.30708 38.5948 7.3425C38.6391 7.37791 38.676 7.42171 38.7034 7.47139C38.7308 7.52107 38.7481 7.57566 38.7544 7.63204C38.7607 7.68842 38.7559 7.74549 38.7401 7.79999L38.7001 7.78999Z" fill="#333333"/>
<path d="M38.5199 8.68998C39.0785 9.9125 39.2862 11.2662 39.1199 12.6C38.9414 13.8852 38.4654 15.111 37.7299 16.18V15.77C37.8563 16.1233 37.9468 16.4885 37.9999 16.86C38.0599 17.21 38.0899 17.55 38.1199 17.86C38.1598 18.5494 38.1598 19.2406 38.1199 19.93C38.1084 19.9865 38.0778 20.0373 38.0331 20.0738C37.9885 20.1103 37.9326 20.1302 37.8749 20.1302C37.8172 20.1302 37.7613 20.1103 37.7167 20.0738C37.672 20.0373 37.6414 19.9865 37.6299 19.93C37.6026 19.2604 37.5392 18.5927 37.4399 17.93C37.3799 17.6 37.3199 17.28 37.2399 16.93C37.1659 16.6316 37.0655 16.3405 36.9399 16.06L36.8899 15.94L36.9999 15.72C37.587 14.7389 37.93 13.6312 37.9999 12.49C38.0414 11.3951 37.7746 10.3106 37.2299 9.35998C37.1806 9.27396 37.1488 9.17909 37.1362 9.08077C37.1237 8.98246 37.1306 8.88263 37.1566 8.78699C37.1826 8.69134 37.2272 8.60176 37.2878 8.52334C37.3484 8.44493 37.4239 8.37922 37.5099 8.32998C37.5959 8.28073 37.6908 8.24891 37.7891 8.23633C37.8874 8.22375 37.9872 8.23066 38.0829 8.25666C38.1785 8.28266 38.2681 8.32724 38.3465 8.38786C38.4249 8.44849 38.4906 8.52396 38.5399 8.60998V8.66998L38.5199 8.68998Z" fill="#343433"/>
<path d="M18.6699 19.94C18.63 19.2539 18.63 18.5661 18.6699 17.88C18.6699 17.53 18.7199 17.19 18.7699 16.88C18.8199 16.57 18.8799 16.2 18.9699 15.83V16.19C18.2509 15.1429 17.7791 13.9461 17.5899 12.69C17.4075 11.3866 17.5874 10.058 18.1099 8.85002C18.191 8.66588 18.3419 8.52141 18.5293 8.4483C18.7168 8.3752 18.9256 8.37941 19.1099 8.46002C19.202 8.4991 19.2853 8.5562 19.355 8.62796C19.4246 8.69972 19.4792 8.78469 19.5156 8.87787C19.5519 8.97104 19.5693 9.07055 19.5666 9.17052C19.5639 9.2705 19.5412 9.36893 19.4999 9.46002V9.52002C18.992 10.4643 18.75 11.5289 18.7999 12.6C18.8657 13.7117 19.1874 14.7931 19.7399 15.76L19.8399 15.95L19.7799 16.12C19.6755 16.4214 19.5887 16.7286 19.5199 17.04C19.4399 17.36 19.3799 17.69 19.3299 18.04C19.2219 18.7019 19.1551 19.3699 19.1299 20.04C19.1185 20.0965 19.0878 20.1473 19.0432 20.1838C18.9985 20.2203 18.9426 20.2403 18.8849 20.2403C18.8273 20.2403 18.7714 20.2203 18.7267 20.1838C18.6821 20.1473 18.6514 20.0965 18.6399 20.04L18.6699 19.94Z" fill="#343433"/>
<path d="M15.3101 37.46L6.16012 39.36C4.98305 39.6319 3.9115 40.2429 3.07795 41.1173C2.2444 41.9917 1.68542 43.0913 1.47012 44.28L1.12012 46.39C9.64276 50.0859 18.8306 52.0018 28.1201 52.02C37.3692 51.986 46.5147 50.0705 55.0001 46.39L54.6501 44.28C54.4377 43.0965 53.8847 42.0006 53.0587 41.1267C52.2328 40.2528 51.1698 39.6388 50.0001 39.36L40.8501 37.46" stroke="#333333" stroke-width="1.5" stroke-linejoin="round"/>
<path d="M23.94 37.02C22.3299 35.787 20.9719 34.2558 19.94 32.51C19.933 32.4876 19.919 32.4681 19.9001 32.4542C19.8813 32.4403 19.8584 32.4328 19.835 32.4328C19.8115 32.4328 19.7887 32.4403 19.7698 32.4542C19.7509 32.4681 19.737 32.4876 19.73 32.51V36.4C19.73 36.4 21 41.54 28.07 42.82L23.94 37.02Z" fill="#D1D8DB" stroke="#333333" stroke-width="1.5" stroke-linejoin="round"/>
<path d="M32.1901 37.02C33.8001 35.787 35.1581 34.2558 36.1901 32.51C36.1971 32.4876 36.211 32.4681 36.2299 32.4542C36.2488 32.4403 36.2716 32.4328 36.2951 32.4328C36.3185 32.4328 36.3413 32.4403 36.3602 32.4542C36.3791 32.4681 36.3931 32.4876 36.4001 32.51V36.4C36.4001 36.4 35.1401 41.49 28.0701 42.77L32.1901 37.02Z" fill="#D1D8DB" stroke="#333333" stroke-width="1.5" stroke-linejoin="round"/>
<path d="M19.6899 36.17C19.7643 37.5742 19.9178 38.9731 20.1499 40.36L28.0699 44.74L35.9999 40.53C36.2436 39.1677 36.4039 37.7918 36.4799 36.41L28.1099 43.32L19.6899 36.17Z" fill="#6E4847" stroke="#333333" stroke-width="1.19296" stroke-linejoin="round"/>
<path d="M25.25 42.82L26.99 47.94H29.16L30.88 42.82H25.25Z" fill="#6E4847" stroke="#333333" stroke-width="1.14379" stroke-linejoin="round"/>
<path d="M23.9399 37.02L23.8999 42.82H28.0599L23.9399 37.02Z" fill="#D1D8DB" stroke="#333333" stroke-width="1.52649" stroke-linejoin="round"/>
<path d="M32.1901 37.02L32.2301 42.82H28.0601L32.1901 37.02Z" fill="#D1D8DB" stroke="#333333" stroke-width="1.52649" stroke-linejoin="round"/>
<path d="M20.26 18.94L21.21 18.2C21.3744 18.0615 21.5482 17.9346 21.73 17.82C21.9416 17.7027 22.1782 17.6375 22.42 17.63H25.86C25.9926 17.63 26.1198 17.6827 26.2136 17.7765C26.3074 17.8702 26.36 17.9974 26.36 18.13C26.3574 18.2635 26.3025 18.3907 26.2072 18.4842C26.1118 18.5777 25.9836 18.63 25.85 18.63H25.79L22.38 18.16C22.2192 18.1484 22.058 18.1758 21.91 18.24C21.7432 18.3248 21.5827 18.4217 21.43 18.53L20.43 19.17C20.4127 19.1825 20.393 19.1913 20.3721 19.1955C20.3511 19.1998 20.3295 19.1996 20.3087 19.1949C20.2879 19.1901 20.2683 19.181 20.2513 19.1681C20.2343 19.1552 20.2202 19.1388 20.21 19.12C20.1985 19.0885 20.1971 19.0542 20.206 19.0219C20.215 18.9897 20.2339 18.961 20.26 18.94Z" fill="#333333"/>
<path d="M35.6899 19.2L34.6899 18.56C34.5372 18.4517 34.3768 18.3548 34.2099 18.27C34.062 18.2058 33.9008 18.1784 33.7399 18.19L30.3299 18.66C30.1992 18.6744 30.0679 18.6377 29.9635 18.5575C29.8591 18.4774 29.7898 18.36 29.7699 18.23C29.7601 18.1642 29.7634 18.0972 29.7798 18.0327C29.7962 17.9683 29.8252 17.9078 29.8652 17.8547C29.9053 17.8016 29.9555 17.757 30.013 17.7236C30.0704 17.6902 30.134 17.6685 30.1999 17.66H30.2599H33.6999C33.9418 17.6675 34.1783 17.7326 34.3899 17.85C34.5718 17.9645 34.7455 18.0915 34.9099 18.23L35.8599 18.97C35.8881 18.9997 35.9037 19.0391 35.9037 19.08C35.9037 19.1209 35.8881 19.1603 35.8599 19.19C35.836 19.2087 35.8069 19.2197 35.7765 19.2214C35.7461 19.2232 35.7159 19.2157 35.6899 19.2Z" fill="#333333"/>
<path d="M23.53 19.22C23.3817 19.22 23.2367 19.264 23.1134 19.3464C22.99 19.4288 22.8939 19.546 22.8371 19.683C22.7804 19.8201 22.7655 19.9709 22.7944 20.1163C22.8234 20.2618 22.8948 20.3955 22.9997 20.5004C23.1046 20.6052 23.2382 20.6767 23.3837 20.7056C23.5292 20.7346 23.68 20.7197 23.817 20.6629C23.9541 20.6062 24.0712 20.51 24.1536 20.3867C24.236 20.2634 24.28 20.1184 24.28 19.97C24.2774 19.7719 24.1976 19.5827 24.0575 19.4426C23.9174 19.3025 23.7281 19.2226 23.53 19.22Z" fill="#333333"/>
<path d="M20.8399 19.94C21.3148 19.8676 21.7535 19.643 22.0899 19.3C22.5196 18.9953 23.0331 18.8311 23.5599 18.83C24.0917 18.8396 24.6106 18.9953 25.0599 19.28C25.5011 19.5646 25.8929 19.9193 26.2199 20.33C26.2657 20.3767 26.2914 20.4396 26.2914 20.505C26.2914 20.5705 26.2657 20.6333 26.2199 20.68C26.1974 20.7039 26.1703 20.723 26.1402 20.736C26.1101 20.7491 26.0777 20.7558 26.0449 20.7558C26.0121 20.7558 25.9796 20.7491 25.9495 20.736C25.9194 20.723 25.8923 20.7039 25.8699 20.68C25.6249 20.2875 25.2961 19.9539 24.9071 19.7033C24.5182 19.4526 24.0786 19.291 23.6199 19.23C23.1518 19.2007 22.6864 19.3197 22.2899 19.57C21.9033 19.913 21.4152 20.1202 20.8999 20.16C20.8787 20.16 20.8583 20.1516 20.8433 20.1366C20.8283 20.1216 20.8199 20.1012 20.8199 20.08C20.7699 19.94 20.7999 19.94 20.8399 19.94Z" fill="#E5C2BA"/>
<path d="M20.8399 19.76C21.3799 19.81 21.9799 19.41 22.6399 19.29C23.3058 19.1764 23.9886 19.2106 24.6399 19.39C24.0066 19.2984 23.3608 19.3497 22.7499 19.54C22.4517 19.643 22.1638 19.7736 21.8899 19.93C21.5855 20.1136 21.2438 20.2264 20.8899 20.26C20.8252 20.2628 20.762 20.2404 20.7135 20.1975C20.665 20.1546 20.635 20.0946 20.6299 20.03C20.6269 19.9643 20.649 19.8998 20.6917 19.8497C20.7344 19.7996 20.7945 19.7676 20.8599 19.76H20.8399Z" fill="#333333"/>
<path d="M22.72 20.85H24.34" stroke="#E5C2BA" stroke-width="0.5" stroke-miterlimit="10" stroke-linecap="round"/>
<path d="M32.6001 19.22C32.7484 19.22 32.8934 19.264 33.0168 19.3464C33.1401 19.4288 33.2362 19.546 33.293 19.683C33.3498 19.8201 33.3646 19.9709 33.3357 20.1163C33.3068 20.2618 33.2353 20.3955 33.1304 20.5004C33.0255 20.6052 32.8919 20.6767 32.7464 20.7056C32.6009 20.7346 32.4501 20.7197 32.3131 20.6629C32.176 20.6062 32.0589 20.51 31.9765 20.3867C31.8941 20.2634 31.8501 20.1184 31.8501 19.97C31.8527 19.7719 31.9325 19.5827 32.0726 19.4426C32.2127 19.3025 32.402 19.2226 32.6001 19.22Z" fill="#333333"/>
<path d="M35.2901 20.09C34.7748 20.0502 34.2867 19.843 33.9001 19.5C33.5036 19.2496 33.0382 19.1307 32.5701 19.16C32.1114 19.221 31.6718 19.3826 31.2829 19.6332C30.8939 19.8839 30.5651 20.2175 30.3201 20.61C30.3011 20.6369 30.2769 20.6598 30.249 20.6774C30.2211 20.695 30.19 20.7069 30.1575 20.7125C30.125 20.7181 30.0918 20.7172 30.0596 20.7099C30.0274 20.7026 29.997 20.689 29.9701 20.67C29.9432 20.651 29.9203 20.6268 29.9027 20.5989C29.8851 20.571 29.8732 20.5399 29.8676 20.5074C29.8621 20.4749 29.8629 20.4417 29.8702 20.4095C29.8775 20.3773 29.8911 20.3469 29.9101 20.32C30.2371 19.9093 30.6289 19.5546 31.0701 19.27C31.5194 18.9853 32.0383 18.8296 32.5701 18.82C33.0969 18.8211 33.6104 18.9853 34.0401 19.29C34.3765 19.633 34.8152 19.8576 35.2901 19.93C35.3106 19.9322 35.3297 19.9413 35.3443 19.9559C35.3588 19.9704 35.3679 19.9895 35.3701 20.01C35.3701 20.0312 35.3617 20.0516 35.3467 20.0666C35.3317 20.0816 35.3113 20.09 35.2901 20.09Z" fill="#DDB9B3"/>
<path d="M35.29 20.26C34.9362 20.2264 34.5944 20.1136 34.29 19.93C34.0161 19.7736 33.7282 19.643 33.43 19.54C32.8191 19.3497 32.1733 19.2984 31.54 19.39C32.1913 19.2106 32.8741 19.1764 33.54 19.29C34.2 19.41 34.8 19.81 35.34 19.76C35.4063 19.76 35.4699 19.7864 35.5168 19.8332C35.5637 19.8801 35.59 19.9437 35.59 20.01C35.59 20.0763 35.5637 20.1399 35.5168 20.1868C35.4699 20.2337 35.4063 20.26 35.34 20.26H35.29Z" fill="#333333"/>
<path d="M33.41 20.85H31.79" stroke="#DDB9B3" stroke-width="0.5" stroke-miterlimit="10" stroke-linecap="round"/>
<path d="M14.51 40.38C14.94 43.76 18.31 48.83 21.37 51.65C23.76 51.9 25.4999 51.96 25.7099 51.96C19.7099 45.27 19.6399 34.66 19.6299 34.2L14.2 36.64L16.4599 38.31L14.51 40.38Z" fill="#444649" stroke="#333333" stroke-width="1.5" stroke-linejoin="round"/>
<path d="M41.6199 40.38C41.1899 43.76 37.8099 48.84 34.7499 51.66C33.3499 51.81 31.8999 51.91 30.4099 51.97C36.4099 45.28 36.4799 34.66 36.4899 34.2L41.9199 36.64L39.6599 38.31L41.6199 40.38Z" fill="#444649" stroke="#333333" stroke-width="1.5" stroke-linejoin="round"/>
<path d="M20.6001 33.54V30.87" stroke="#333333" stroke-width="1.5" stroke-linejoin="round"/>
<path d="M35.53 33.54V30.87" stroke="#333333" stroke-width="1.5" stroke-linejoin="round"/>
</svg>
