<svg width="99" height="57" viewBox="0 0 99 57" fill="none" xmlns="http://www.w3.org/2000/svg">
<path d="M46.4976 46.0602C33.5189 46.0602 22.9976 35.9732 22.9976 23.5301C22.9976 11.0871 33.5189 1 46.4976 1C59.4762 1 69.9976 11.0871 69.9976 23.5301C69.9976 23.5301 69.9976 43.9398 48.7419 56V46.0602C47.5377 46.2427 47.7553 46.0602 46.4976 46.0602Z" fill="#E4E4E4"/>
<path fill-rule="evenodd" clip-rule="evenodd" d="M46.1265 12.2208C41.38 12.5161 38.8997 15.2041 38.6831 20.0648H43.4712C43.5312 18.381 44.4709 17.1223 46.2207 16.9367C47.9383 16.7544 49.5678 17.1635 50.0613 18.3378C50.5944 19.6063 49.3977 21.0804 48.8287 21.6991C47.7756 22.8465 46.0649 23.6835 45.1782 24.9214C44.309 26.1344 44.1544 27.7305 44.0875 29.6838H48.3074C48.3666 28.4349 48.4498 27.2385 49.018 26.4624C49.9422 25.2012 51.3225 24.6102 52.4792 23.6141C53.5842 22.6621 54.7466 21.5148 54.944 19.7389C55.5367 14.4238 51.1981 11.9043 46.1265 12.2208Z" fill="white"/>
<path d="M46.2351 36.6671C47.7065 36.6671 48.8993 35.4923 48.8993 34.0432C48.8993 32.5941 47.7065 31.4193 46.2351 31.4193C44.7636 31.4193 43.5708 32.5941 43.5708 34.0432C43.5708 35.4923 44.7636 36.6671 46.2351 36.6671Z" fill="white"/>
<path opacity="0.2" d="M19.4059 0.736135L21.7354 2.02035L13.4353 17.076L21.3064 21.4153L20.1439 23.5241L9.94329 17.9006L19.4059 0.736135ZM26.6345 27.422C25.4084 26.7461 24.4946 25.8906 23.8929 24.8555C23.3002 23.804 23.0282 22.6736 23.0768 21.4641C23.1254 20.2546 23.4742 19.0614 24.123 17.8844C24.7719 16.7074 25.5947 15.7755 26.5915 15.0887C27.5882 14.4019 28.6849 14.0366 29.8814 13.9928C31.0869 13.9327 32.3026 14.2406 33.5287 14.9165C34.7383 15.5834 35.6395 16.4426 36.2322 17.494C36.8502 18.5381 37.135 19.665 37.0863 20.8744C37.0377 22.0839 36.6889 23.2772 36.0401 24.4541C35.3912 25.6311 34.5684 26.563 33.5716 27.2498C32.5749 27.9366 31.4656 28.3055 30.2437 28.3567C29.0472 28.4005 27.8441 28.0889 26.6345 27.422ZM27.7159 25.4604C28.8929 26.1092 30.0074 26.2334 31.0595 25.8329C32.128 25.4414 33.0362 24.5673 33.7842 23.2105C34.5322 21.8537 34.7865 20.619 34.5472 19.5066C34.3242 18.4032 33.6242 17.527 32.4472 16.8781C31.2702 16.2293 30.1475 16.1006 29.0791 16.4921C28.027 16.8926 27.1269 17.7712 26.3789 19.128C25.6309 20.4848 25.3684 21.715 25.5914 22.8184C25.8307 23.9309 26.5389 24.8115 27.7159 25.4604ZM40.3858 35.003C39.078 34.282 38.0987 33.3905 37.448 32.3283C36.8136 31.2752 36.5162 30.1521 36.5558 28.9589C36.6045 27.7494 36.9487 26.5644 37.5886 25.4037C38.634 23.5075 40.0079 22.2719 41.7103 21.697C43.4291 21.1312 45.3428 21.4295 47.4516 22.5921C48.694 23.277 49.6586 24.1178 50.3453 25.1146L48.9341 26.8625C48.1893 25.855 47.3183 25.0764 46.3211 24.5267C45.0133 23.8058 43.8007 23.6275 42.6832 23.9919C41.5748 24.34 40.6465 25.1925 39.8985 26.5493C39.1506 27.9061 38.8999 29.1534 39.1466 30.2912C39.4096 31.4381 40.2031 32.3765 41.5272 33.1064C42.5898 33.6922 43.7467 34.0103 44.9979 34.0606L44.3188 35.9883C43.824 36.0352 43.2083 35.9729 42.4716 35.8012C41.7513 35.6386 41.056 35.3725 40.3858 35.003ZM56.2527 19.4508L58.4595 20.6674L51.9574 32.4618L59.3586 29.476L62.0558 30.963L54.1922 33.9177L55.5546 43.0457L52.8573 41.5587L51.687 32.9523L48.321 39.0579L46.1141 37.8413L56.2527 19.4508ZM62.2063 47.0325C60.8331 46.2755 59.8093 45.3487 59.1349 44.2522C58.4859 43.1483 58.1738 41.9745 58.1987 40.7306C58.2237 39.4868 58.5606 38.2763 59.2095 37.0993C59.8313 35.9714 60.6279 35.0677 61.5993 34.3882C62.5961 33.7015 63.6845 33.3317 64.8647 33.2789C66.0702 33.2187 67.2778 33.5221 68.4875 34.189C70.0241 35.0361 71.0186 36.1706 71.4711 37.5924C71.9399 39.0232 71.7372 40.5314 70.8631 42.1171C70.6378 42.5257 70.3888 42.9001 70.1161 43.24L61.4113 38.4411C60.7023 40.0752 60.568 41.4399 61.0086 42.5354C61.4491 43.6309 62.2987 44.5256 63.5574 45.2195C64.8162 45.9134 66.0993 46.3118 67.4069 46.4145L66.7413 48.3176C65.0094 48.1728 63.4977 47.7444 62.2063 47.0325ZM68.7719 40.5166C69.2495 39.6502 69.3783 38.8366 69.1583 38.0758C68.9382 37.3151 68.3378 36.6643 67.357 36.1236C66.4088 35.6009 65.5344 35.4279 64.7336 35.6046C63.9418 35.7649 63.1791 36.2397 62.4456 37.0289L68.7719 40.5166ZM89.9073 38.0043L79.7687 56.3948L77.8071 55.3133L78.373 53.7069C77.6579 54.0374 76.8923 54.1696 76.0762 54.1033C75.2601 54.0371 74.4842 53.8012 73.7486 53.3957C72.7351 52.8369 71.9647 52.0498 71.4374 51.0344C70.9101 50.019 70.6626 48.9021 70.6949 47.6836C70.7435 46.4741 71.0832 45.2972 71.7141 44.1529C72.3269 43.0413 73.1198 42.1249 74.0929 41.4038C75.0824 40.6916 76.1516 40.2793 77.3008 40.1667C78.4499 40.0542 79.5639 40.2953 80.6428 40.8901C81.3621 41.2867 81.9684 41.7914 82.4617 42.4045C82.9551 43.0175 83.2819 43.7199 83.4422 44.5117L87.7004 36.7877L89.9073 38.0043ZM75.2224 51.6503C75.8109 51.9747 76.456 52.1385 77.1576 52.1417C77.8683 52.1285 78.571 51.8977 79.2658 51.4494C79.9606 51.0012 80.5738 50.2948 81.1055 49.3303C81.6012 48.4312 81.8576 47.5601 81.8748 46.717C81.892 45.8738 81.7128 45.1356 81.3372 44.5022C80.987 43.8615 80.5258 43.3835 79.9537 43.0681C78.8421 42.4553 77.734 42.3773 76.6296 42.8342C75.5504 43.2837 74.6639 44.1378 73.97 45.3966C73.3031 46.6062 73.0713 47.8 73.2746 48.9778C73.4779 50.1557 74.1271 51.0465 75.2224 51.6503Z" fill="#4B4B4B"/>
</svg>
