<svg width="50" height="49" viewBox="0 0 50 49" fill="none" xmlns="http://www.w3.org/2000/svg">
<path d="M48.3431 41.2564C48.134 40.2089 47.6323 39.2422 46.8961 38.4683C46.1599 37.6945 45.2194 37.1452 44.1837 36.8841C40.92 36.0682 37.0887 35.1813 33.6388 34.4275C27.9095 33.1459 21.9678 33.1459 16.2384 34.4275C12.9038 35.1813 9.14346 36.0505 5.89752 36.8575C4.86179 37.1185 3.92129 37.6679 3.18509 38.4417C2.44889 39.2156 1.94716 40.1823 1.7381 41.2298L1.41882 43.1188L1.51638 43.172C8.92657 46.4391 16.9377 48.1217 25.0362 48.1119C33.1312 48.1248 41.1395 46.4453 48.5471 43.1809L48.3431 41.2564Z" fill="#494847"/>
<path d="M44.1483 39.2343C40.8846 38.4184 37.0533 37.5315 33.6034 36.7777C27.874 35.4961 21.9323 35.4961 16.203 36.7777C12.8683 37.5315 9.10802 38.4007 5.86207 39.2077C4.87848 39.4559 3.98019 39.9652 3.2621 40.6817C2.54402 41.3982 2.0328 42.2954 1.78247 43.2785C9.10853 46.4628 17.0125 48.1022 25.0007 48.0942C32.99 48.1113 40.897 46.481 48.2279 43.3051C47.9775 42.322 47.4663 41.4248 46.7482 40.7083C46.0301 39.9918 45.1318 39.4825 44.1483 39.2343Z" fill="#333333"/>
<path d="M37.0267 38.8707H12.9925C12.8678 38.8707 12.7483 38.8212 12.6601 38.733C12.572 38.6449 12.5225 38.5253 12.5225 38.4007V38.1612C12.5295 35.5996 13.5502 33.1448 15.3616 31.3334C17.173 29.5221 19.6277 28.5013 22.1893 28.4943H27.821C30.3826 28.5013 32.8374 29.5221 34.6487 31.3334C36.4601 33.1448 37.4808 35.5996 37.4879 38.1612V38.445C37.4789 38.5611 37.4264 38.6695 37.3408 38.7484C37.2553 38.8274 37.1431 38.871 37.0267 38.8707Z" fill="#333333"/>
<path d="M27.821 28.4589H22.1893C19.6216 28.4659 17.1615 29.4915 15.3491 31.3105C13.5367 33.1296 12.5201 35.5934 12.5225 38.1612V38.445C12.5244 38.5211 12.5448 38.5955 12.5819 38.6619C12.619 38.7283 12.6716 38.7848 12.7353 38.8264C13.2007 36.6623 14.392 34.7224 16.1117 33.3286C17.8313 31.9349 19.9758 31.171 22.1893 31.1638H27.821C30.0345 31.171 32.179 31.9349 33.8987 33.3286C35.6183 34.7224 36.8096 36.6623 37.275 38.8264C37.3392 38.7853 37.3923 38.729 37.4294 38.6625C37.4666 38.5959 37.4866 38.5212 37.4879 38.445V38.1612C37.4902 35.5934 36.4736 33.1296 34.6612 31.3105C32.8489 29.4915 30.3888 28.4659 27.821 28.4589Z" fill="#494847"/>
<path d="M37.0267 38.8707H12.9925C12.8678 38.8707 12.7483 38.8212 12.6601 38.733C12.572 38.6449 12.5225 38.5253 12.5225 38.4007V38.1612C12.5295 35.5996 13.5502 33.1448 15.3616 31.3334C17.173 29.5221 19.6277 28.5013 22.1893 28.4943H27.821C30.3826 28.5013 32.8374 29.5221 34.6487 31.3334C36.4601 33.1448 37.4808 35.5996 37.4879 38.1612V38.445C37.4789 38.5611 37.4264 38.6695 37.3408 38.7484C37.2553 38.8274 37.1431 38.871 37.0267 38.8707V38.8707Z" stroke="#333333" stroke-width="1.5" stroke-linejoin="round"/>
<path d="M19.848 47.9168C21.2049 48.0144 22.5707 48.0765 23.9542 48.0765C26.0547 48.0764 28.1537 47.9639 30.2422 47.7394C31.3848 44.1461 31.9651 40.3976 31.9627 36.627L31.5725 36.5826C30.4905 37.975 28.025 39.0481 25.0096 39.0481C21.8169 39.0481 19.1563 37.7976 18.2694 36.2456H18.0654C18.1367 40.1981 18.7363 44.1233 19.848 47.9168Z" fill="#A03D30"/>
<path d="M30.2155 47.7749C30.4018 47.2162 30.5614 46.6663 30.7122 46.1342C29.0478 44.9466 27.0542 44.3082 25.0096 44.3082C22.965 44.3082 20.9714 44.9466 19.307 46.1342C19.4548 46.7255 19.6233 47.3463 19.8125 47.9966C21.1694 48.0942 22.5352 48.1563 23.9187 48.1563C26.0228 48.1368 28.1245 48.0095 30.2155 47.7749Z" fill="#EFB54D"/>
<path d="M19.4224 39.864C21.1634 40.7103 23.0739 41.1501 25.0096 41.1501C26.9454 41.1501 28.8559 40.7103 30.5969 39.864" stroke="#87312A" stroke-width="1.05" stroke-linecap="round" stroke-linejoin="round"/>
<path d="M18.358 30.7559V36.5737C20.2052 38.1726 22.5665 39.0526 25.0096 39.0526C27.4526 39.0526 29.8139 38.1726 31.6611 36.5737V30.747L18.358 30.7559Z" fill="#A88064"/>
<path d="M18.429 30.7559V31.6428C19.9987 32.9465 23.6083 36.2989 26.4108 38.9506C28.3781 38.6933 30.2275 37.8672 31.732 36.5738V30.7559H18.429Z" fill="#A0775C"/>
<path d="M18.358 30.7559V36.5737C20.2052 38.1726 22.5665 39.0526 25.0096 39.0526C27.4526 39.0526 29.8139 38.1726 31.6611 36.5737V30.747L18.358 30.7559Z" stroke="#333333" stroke-width="1.5" stroke-linejoin="round"/>
<path d="M12.9481 35.27L5.85317 36.8841C4.81745 37.1452 3.87695 37.6945 3.14075 38.4683C2.40455 39.2422 1.90282 40.2089 1.69375 41.2564L1.41882 43.1188L1.51638 43.172C8.92657 46.4391 16.9377 48.1217 25.0362 48.1119C33.1312 48.1249 41.1395 46.4453 48.5471 43.1809V43.1809L48.2988 41.2919C48.0897 40.2444 47.588 39.2777 46.8518 38.5038C46.1156 37.7299 45.1751 37.1806 44.1394 36.9196L37.0444 35.3055" stroke="#333333" stroke-width="1.5" stroke-linejoin="round"/>
<path d="M34.7651 18.6501V17.1246C34.7651 11.8034 32.9115 6.41125 25.0095 6.41125C17.1075 6.41125 15.2539 11.8478 15.2539 17.1246V18.6501C15.1741 18.6501 12.3361 18.6501 13.3028 23.519C13.4549 24.2354 13.8115 24.8923 14.3294 25.4102C14.8473 25.9281 15.5042 26.2847 16.2206 26.4368C16.2206 29.8956 17.1962 30.3301 20.4865 33.718C21.7547 35.3321 23.2979 35.1991 24.9829 35.1991C26.668 35.1991 28.22 35.3321 29.4793 33.718C32.7696 30.3301 33.7452 29.8956 33.7452 26.4368C34.4616 26.2847 35.1185 25.9281 35.6364 25.4102C36.1543 24.8923 36.5109 24.2354 36.663 23.519C37.6829 18.6501 34.836 18.5702 34.7651 18.6501Z" fill="#A88064"/>
<path d="M15.2894 18.6501C12.1942 18.6501 12.1853 25.5411 16.2649 26.4013V20.1134C16.2649 19.4305 16.2028 18.6501 15.2894 18.6501Z" fill="#A0775C"/>
<path d="M34.7652 18.6501V17.1247C34.7652 11.8035 32.9116 6.41129 25.0096 6.41129C24.031 6.40367 23.054 6.48979 22.0918 6.66849V16.9296C22.0712 17.2542 21.9745 17.5694 21.8097 17.8497C21.6449 18.1301 21.4164 18.3678 21.1429 18.5437C21.1021 18.5728 21.0708 18.6131 21.0527 18.6597C21.0345 18.7063 21.0304 18.7572 21.0407 18.8062C21.0511 18.8551 21.0755 18.9 21.111 18.9353C21.1464 18.9706 21.1914 18.9947 21.2404 19.0048C22.2536 19.0733 23.226 19.4303 24.0429 20.0336H25.0185V22.4016C25.008 22.6387 25.054 22.8749 25.1527 23.0907C25.2514 23.3066 25.3999 23.4959 25.5861 23.6432C25.7562 23.7627 25.8837 23.9335 25.9499 24.1305C26.0162 24.3276 26.0177 24.5407 25.9543 24.7387C25.891 24.9367 25.766 25.1093 25.5977 25.2313C25.4293 25.3533 25.2264 25.4184 25.0185 25.4169C24.3001 25.4169 24.0429 24.9291 23.0674 24.9291C22.4909 24.9291 22.5796 25.683 22.5618 25.6564C22.903 25.662 23.2378 25.7502 23.5374 25.9136C23.9846 26.1637 24.4884 26.2949 25.0007 26.2949V29.2305C25.0065 29.5721 25.1155 29.904 25.3134 30.1825C25.5112 30.4611 25.7887 30.6733 26.1093 30.7913C26.3876 30.9075 26.62 31.112 26.7706 31.3732C26.9212 31.6344 26.9818 31.9379 26.943 32.2369C26.943 34.8976 22.1273 31.9709 22.1273 34.8976C23.0623 35.1528 24.0342 35.2458 25.0007 35.1725C26.6858 35.1725 28.2378 35.3055 29.4972 33.6914C32.8052 30.3213 33.7807 29.8867 33.7807 26.4279C34.4972 26.2758 35.1541 25.9192 35.672 25.4014C36.1898 24.8835 36.5464 24.2266 36.6985 23.5101C37.683 18.6501 34.8361 18.5703 34.7652 18.6501Z" fill="#9C775B"/>
<path d="M34.783 18.5969C34.2331 18.6501 33.7897 19.5369 33.7897 20.2553V26.3925C38.0466 25.4878 37.621 18.4816 34.783 18.5969Z" fill="#916953"/>
<path d="M15.2895 18.65C15.2096 18.65 12.3717 18.65 13.3384 23.519C13.4905 24.2354 13.8471 24.8923 14.3649 25.4102C14.8828 25.9281 15.5397 26.2847 16.2562 26.4368C16.2562 29.8956 17.2317 30.3301 20.522 33.718C21.7902 35.3321 23.3334 35.199 25.0184 35.199C26.7035 35.199 28.2555 35.3321 29.5149 33.718C32.8052 30.3301 33.7807 29.8956 33.7807 26.4368C34.4971 26.2847 35.1541 25.9281 35.6719 25.4102C36.1898 24.8923 36.5464 24.2354 36.6985 23.519C37.6741 18.65 34.8272 18.6234 34.7474 18.65" stroke="#333333" stroke-width="1.6469" stroke-linecap="round" stroke-linejoin="round"/>
<path d="M25.0096 26.2772V27.164" stroke="#997059" stroke-width="0.75" stroke-miterlimit="10" stroke-linecap="round"/>
<path d="M22.7037 25.7451L21.0452 27.0044C20.8821 27.1297 20.7501 27.2909 20.6594 27.4755C20.5686 27.66 20.5216 27.863 20.522 28.0687V29.532" stroke="#A0775C" stroke-width="0.75" stroke-miterlimit="10" stroke-linecap="round"/>
<path d="M27.1823 25.7451L28.8407 27.0044C29.0038 27.1297 29.1358 27.2909 29.2266 27.4755C29.3173 27.66 29.3643 27.863 29.364 28.0687V29.532" stroke="#AB8166" stroke-width="0.75" stroke-miterlimit="10" stroke-linecap="round"/>
<path d="M26.2512 27.9178C25.8981 27.8819 25.5414 27.9212 25.2047 28.0331C25.0831 28.0686 24.9538 28.0686 24.8322 28.0331C24.4952 27.9222 24.1387 27.8829 23.7857 27.9178C23.1915 28.0065 23.1294 28.379 21.9321 29.0264L22.9875 29.6738C23.3185 29.9042 23.7106 30.0308 24.1138 30.0375H25.9497C26.3536 30.0352 26.747 29.9082 27.076 29.6738L28.1668 29.053C26.9252 28.4056 26.801 28.0065 26.2512 27.9178Z" fill="#916953"/>
<path d="M28.1225 29.053C27.2356 29.053 27.0051 28.7072 26.1359 28.7072C25.7506 28.7203 25.3675 28.7708 24.9919 28.8579C24.6156 28.7747 24.2328 28.7243 23.8478 28.7072C23.0141 28.7072 22.8279 29.0264 21.8878 29.0264" stroke="#674848" stroke-width="0.75" stroke-miterlimit="10" stroke-linecap="round"/>
<path d="M22.5618 25.4967C22.9685 25.4958 23.3686 25.5996 23.7236 25.7982V25.7982C24.0792 25.99 24.4769 26.0904 24.8809 26.0904C25.285 26.0904 25.6827 25.99 26.0383 25.7982V25.7982C26.3944 25.6025 26.7938 25.4989 27.2001 25.4967" stroke="#674848" stroke-width="0.75" stroke-miterlimit="10" stroke-linecap="round"/>
<path d="M18.2162 19.599C18.6219 19.3815 19.0542 19.2175 19.5021 19.1113C19.9717 19.0157 20.4527 18.9888 20.93 19.0314C21.8044 19.1962 22.6481 19.4954 23.431 19.9183C23.4801 19.9398 23.5188 19.9797 23.5388 20.0295C23.5587 20.0793 23.5582 20.1349 23.5374 20.1844C23.5197 20.2231 23.4908 20.2556 23.4545 20.2777C23.4181 20.2999 23.3759 20.3106 23.3334 20.3085C22.8916 20.2586 22.4532 20.1815 22.0208 20.0779C21.604 19.9981 21.1961 19.9538 20.8058 19.8917C19.9968 19.7547 19.1692 19.7728 18.3669 19.9449C18.3175 19.9626 18.2632 19.9598 18.2158 19.9374C18.1684 19.9149 18.1318 19.8746 18.1142 19.8252C18.0965 19.7758 18.0992 19.7214 18.1217 19.674C18.1442 19.6266 18.1845 19.5901 18.2339 19.5724L18.2162 19.599Z" fill="#333333"/>
<path d="M31.466 19.9715C30.6637 19.7992 29.836 19.7811 29.0271 19.9183C28.628 19.9804 28.2289 20.0247 27.8121 20.1045C27.3797 20.2081 26.9413 20.2851 26.4995 20.3351C26.4724 20.3376 26.4451 20.3344 26.4194 20.3257C26.3936 20.317 26.3699 20.303 26.3499 20.2846C26.3299 20.2663 26.3139 20.2439 26.303 20.219C26.2921 20.1941 26.2865 20.1672 26.2866 20.14C26.2833 20.0973 26.2935 20.0546 26.3158 20.0179C26.338 19.9813 26.3713 19.9527 26.4108 19.936C27.1937 19.5131 28.0373 19.2139 28.9118 19.0492C29.3804 19.018 29.851 19.0448 30.313 19.129C30.7637 19.2261 31.1972 19.3905 31.599 19.6168C31.6496 19.6367 31.6901 19.676 31.7117 19.7259C31.7334 19.7758 31.7343 19.8322 31.7143 19.8828C31.6943 19.9334 31.655 19.9739 31.6051 19.9956C31.5552 20.0172 31.4988 20.0181 31.4482 19.9981L31.466 19.9715Z" fill="#333333"/>
<path d="M20.9388 22.0734C21.2865 22.0734 21.5684 21.7915 21.5684 21.4437C21.5684 21.0959 21.2865 20.814 20.9388 20.814C20.591 20.814 20.3091 21.0959 20.3091 21.4437C20.3091 21.7915 20.591 22.0734 20.9388 22.0734Z" fill="#333333"/>
<path d="M28.8851 22.0734C29.2328 22.0734 29.5147 21.7915 29.5147 21.4437C29.5147 21.0959 29.2328 20.814 28.8851 20.814C28.5373 20.814 28.2554 21.0959 28.2554 21.4437C28.2554 21.7915 28.5373 22.0734 28.8851 22.0734Z" fill="#333333"/>
<path d="M33.0091 27.1729L30.3485 29.8335V28.5032C30.3485 28.0328 30.1616 27.5816 29.829 27.249C29.4964 26.9164 29.0452 26.7295 28.5748 26.7295H21.4798C21.0094 26.7295 20.5582 26.9164 20.2256 27.249C19.8929 27.5816 19.7061 28.0328 19.7061 28.5032V29.8335L17.1519 27.1729C17.1519 25.3992 16.265 25.4967 16.265 22.0734V26.2861C16.265 31.6073 18.7571 30.9421 20.6462 33.6293C21.9853 35.545 23.9719 35.1725 25.0273 35.1548C26.0827 35.137 28.0693 35.545 29.4084 33.6293C31.2975 30.9687 33.896 31.6073 33.896 26.2861V22.0734C33.896 25.4967 33.0091 25.4967 33.0091 27.1729ZM29.2311 30.5785L28.3442 31.6605C28.2365 31.7913 28.101 31.8966 27.9476 31.9687C27.7943 32.0408 27.6268 32.0779 27.4573 32.0773C27.1977 32.0644 26.9483 31.9725 26.7422 31.8141C26.5362 31.6556 26.3835 31.438 26.3044 31.1904H23.7768C23.6988 31.4387 23.5464 31.6569 23.3401 31.8156C23.1339 31.9743 22.8838 32.0656 22.6239 32.0773C22.4544 32.0779 22.2869 32.0408 22.1335 31.9687C21.9802 31.8966 21.8447 31.7913 21.737 31.6605L20.8501 30.5785V28.3259C20.8478 28.235 20.8633 28.1446 20.8959 28.0598C20.9285 27.9749 20.9775 27.8973 21.0401 27.8314C21.1027 27.7656 21.1777 27.7127 21.2607 27.6757C21.3438 27.6388 21.4333 27.6187 21.5242 27.6164H23.7945C24.0189 27.6053 24.2374 27.5407 24.4317 27.4281C24.6261 27.3155 24.7908 27.1581 24.912 26.9689C24.9294 26.9468 24.9517 26.9289 24.977 26.9166C25.0023 26.9043 25.0302 26.8979 25.0583 26.8979C25.0865 26.8979 25.1143 26.9043 25.1397 26.9166C25.165 26.9289 25.1872 26.9468 25.2047 26.9689C25.3253 27.1586 25.4899 27.3164 25.6844 27.4291C25.8788 27.5417 26.0976 27.606 26.3221 27.6164H28.5925C28.6834 27.6187 28.7729 27.6388 28.8559 27.6757C28.939 27.7127 29.0139 27.7656 29.0765 27.8314C29.1391 27.8973 29.1881 27.9749 29.2207 28.0598C29.2533 28.1446 29.2689 28.235 29.2665 28.3259V30.5785H29.2311Z" fill="#333333" stroke="#333333" stroke-linecap="round" stroke-linejoin="round"/>
<path d="M39.5542 7.92782C39.5743 7.89901 39.5866 7.86548 39.59 7.83049C39.5934 7.7955 39.5876 7.76023 39.5734 7.72811C39.5591 7.69599 39.5368 7.6681 39.5085 7.64715C39.4803 7.6262 39.4471 7.6129 39.4123 7.60855L38.7294 7.45778C38.6486 7.44662 38.5713 7.41765 38.5032 7.37295C38.435 7.32826 38.3776 7.26896 38.3351 7.19935C38.2927 7.12974 38.2663 7.05157 38.2577 6.97049C38.2492 6.88941 38.2589 6.80745 38.2859 6.73055L38.6141 5.75499C38.6307 5.6971 38.6265 5.63522 38.6022 5.58011C38.5779 5.52501 38.535 5.48018 38.481 5.45345C38.4251 5.41892 38.3606 5.40063 38.2948 5.40063C38.229 5.40063 38.1645 5.41892 38.1086 5.45345C38.0295 5.50433 37.9409 5.53856 37.8482 5.55406C37.7555 5.56955 37.6606 5.56599 37.5693 5.54358C37.478 5.52117 37.3922 5.48039 37.3172 5.42372C37.2422 5.36705 37.1795 5.29569 37.133 5.214L36.2461 3.28062C36.1823 3.17013 36.0905 3.07838 35.98 3.01459C35.8694 2.9508 35.7441 2.91722 35.6165 2.91722C35.4888 2.91722 35.3635 2.9508 35.2529 3.01459C35.1424 3.07838 35.0506 3.17013 34.9868 3.28062L34.4192 2.33167C34.3597 2.24513 34.2815 2.17306 34.1904 2.12081C34.0993 2.06855 33.9977 2.03744 33.8929 2.02978C33.7882 2.02212 33.6831 2.0381 33.5853 2.07653C33.4876 2.11497 33.3998 2.17489 33.3283 2.25185L32.876 2.78397C32.8104 2.85634 32.7303 2.91416 32.6409 2.95373C32.5516 2.9933 32.4549 3.01374 32.3572 3.01374C32.2595 3.01374 32.1628 2.9933 32.0735 2.95373C31.9841 2.91416 31.9041 2.85634 31.8384 2.78397L31.2708 2.08335C31.1495 1.94664 30.9797 1.86271 30.7974 1.84946C30.6152 1.8362 30.435 1.89467 30.2952 2.0124L30.1179 2.16316C30.0166 2.24639 29.8944 2.3003 29.7647 2.31906C29.6349 2.33782 29.5025 2.32071 29.3818 2.26959L24.2468 0.0878885C24.1558 0.0504609 24.0574 0.0342779 23.9592 0.0405702C23.861 0.0468626 23.7655 0.0754645 23.68 0.124201C23.5945 0.172938 23.5212 0.240527 23.4657 0.321831C23.4103 0.403135 23.3741 0.496012 23.3599 0.593404V1.00136C23.3485 1.15983 23.2751 1.3074 23.1555 1.41202C23.0359 1.51663 22.8799 1.56985 22.7214 1.56009H21.2403C21.0511 1.5479 20.8648 1.61097 20.7219 1.73557C20.5791 1.86016 20.4912 2.03617 20.4776 2.22525L18.358 1.70199C18.207 1.65773 18.0451 1.66921 17.9018 1.73433C17.7586 1.79944 17.6435 1.91387 17.5775 2.05674L17.3824 2.57112C17.329 2.68512 17.2435 2.78108 17.1364 2.84723C17.0293 2.91339 16.9052 2.94688 16.7793 2.94361H14.1187C13.9859 2.93967 13.855 2.97671 13.744 3.04969C13.6329 3.12268 13.547 3.22807 13.4979 3.35157L12.8771 5.25834C12.8284 5.33542 12.7649 5.4021 12.6903 5.45455C12.6157 5.507 12.5315 5.54419 12.4425 5.56397C12.3534 5.58375 12.2614 5.58573 12.1716 5.56981C12.0818 5.55389 11.9961 5.52037 11.9193 5.47119C11.8633 5.43666 11.7988 5.41837 11.733 5.41837C11.6673 5.41837 11.6028 5.43666 11.5468 5.47119C11.4928 5.49792 11.4499 5.54275 11.4256 5.59785C11.4013 5.65295 11.3971 5.71484 11.4138 5.77273L11.7419 6.74828C11.769 6.82519 11.7786 6.90714 11.7701 6.98823C11.7616 7.06931 11.7351 7.14748 11.6927 7.21709C11.6503 7.2867 11.5929 7.34599 11.5247 7.39069C11.4565 7.43539 11.3792 7.46436 11.2985 7.47552L10.6156 7.62628C10.5807 7.63064 10.5475 7.64394 10.5193 7.66489C10.4911 7.68584 10.4687 7.71372 10.4545 7.74585C10.4402 7.77797 10.4345 7.81324 10.4378 7.84823C10.4412 7.88322 10.4535 7.91675 10.4737 7.94556L12.0612 10.0918C12.1027 10.1731 12.1205 10.2644 12.1126 10.3553C12.1048 10.4463 12.0716 10.5332 12.0168 10.6062L11.6798 11.0851C11.6071 11.1873 11.575 11.3129 11.5898 11.4375C11.6046 11.562 11.6651 11.6767 11.7596 11.7591L15.8836 19.7409C15.9228 19.8068 15.9809 19.8593 16.0504 19.8917C16.1199 19.924 16.1976 19.9346 16.2732 19.9222C16.3489 19.9097 16.419 19.8748 16.4745 19.8219C16.5299 19.769 16.5682 19.7006 16.5842 19.6256C16.7556 18.2865 17.0891 16.9732 17.5775 15.7145V13.8432C17.5775 10.9875 24.9297 11.0585 25.0361 11.0585C27.9716 11.0585 32.4947 12.0429 32.4947 13.8432V15.6968C32.9029 16.9982 33.2229 18.3256 33.4525 19.67C33.474 19.7427 33.5163 19.8076 33.5742 19.8567C33.632 19.9058 33.7029 19.9369 33.7782 19.9463C33.8535 19.9558 33.9299 19.943 33.9981 19.9097C34.0662 19.8763 34.1232 19.8239 34.162 19.7587L38.3037 11.7768C38.3982 11.6944 38.4588 11.5798 38.4735 11.4552C38.4883 11.3306 38.4562 11.205 38.3835 11.1028L38.0465 10.6239C37.9944 10.5497 37.9629 10.463 37.9551 10.3727C37.9473 10.2823 37.9635 10.1916 38.0021 10.1095L39.5542 7.92782Z" fill="#333333"/>
</svg>
