<svg width="26" height="26" viewBox="0 0 26 26" fill="none" xmlns="http://www.w3.org/2000/svg">
<mask id="path-1-outside-1" maskUnits="userSpaceOnUse" x="0.039917" y="0" width="26" height="26" fill="black">
<rect fill="white" x="0.039917" width="26" height="26"/>
<path d="M22.284 1.96601C20.9938 0.677997 18.9043 0.677997 17.614 1.96601L16.445 3.14142L4.00107 15.5788L3.97463 15.6054C3.96822 15.6118 3.96822 15.6186 3.9614 15.6186C3.94818 15.6385 3.92834 15.6581 3.91533 15.6779C3.91533 15.6845 3.90851 15.6845 3.90851 15.6911C3.89529 15.711 3.88888 15.7242 3.87545 15.744C3.86905 15.7507 3.86905 15.7571 3.86244 15.7639C3.85582 15.7837 3.84921 15.7969 3.84239 15.8168C3.84239 15.8232 3.83599 15.8232 3.83599 15.83L1.07505 24.1324C0.994061 24.3688 1.05563 24.6306 1.23352 24.806C1.35852 24.9293 1.52712 24.9983 1.70253 24.9977C1.77422 24.9965 1.8453 24.9853 1.91389 24.9647L10.2099 22.1971C10.2163 22.1971 10.2163 22.1971 10.2231 22.1907C10.244 22.1845 10.2641 22.1756 10.2824 22.1641C10.2876 22.1634 10.2922 22.1612 10.2959 22.1576C10.3155 22.1444 10.342 22.131 10.3618 22.1178C10.3814 22.1048 10.4015 22.0849 10.4213 22.0717C10.4279 22.0649 10.4343 22.0649 10.4343 22.0585C10.4411 22.0519 10.4543 22.0455 10.461 22.032L24.0739 8.41908C25.3619 7.12879 25.3619 5.03934 24.0739 3.74926L22.284 1.96601ZM9.99856 20.6448L5.40148 16.048L16.9074 4.54203L21.5045 9.13891L9.99856 20.6448ZM4.75396 17.2699L8.77006 21.2857L2.73951 23.2936L4.75396 17.2699ZM23.1427 7.49429L22.4425 8.2011L17.8452 3.60381L18.5522 2.8972C19.3256 2.12448 20.5791 2.12448 21.3526 2.8972L23.1491 4.69368C23.9167 5.47054 23.9138 6.72115 23.1427 7.49429Z"/>
</mask>
<path d="M22.284 1.96601C20.9938 0.677997 18.9043 0.677997 17.614 1.96601L16.445 3.14142L4.00107 15.5788L3.97463 15.6054C3.96822 15.6118 3.96822 15.6186 3.9614 15.6186C3.94818 15.6385 3.92834 15.6581 3.91533 15.6779C3.91533 15.6845 3.90851 15.6845 3.90851 15.6911C3.89529 15.711 3.88888 15.7242 3.87545 15.744C3.86905 15.7507 3.86905 15.7571 3.86244 15.7639C3.85582 15.7837 3.84921 15.7969 3.84239 15.8168C3.84239 15.8232 3.83599 15.8232 3.83599 15.83L1.07505 24.1324C0.994061 24.3688 1.05563 24.6306 1.23352 24.806C1.35852 24.9293 1.52712 24.9983 1.70253 24.9977C1.77422 24.9965 1.8453 24.9853 1.91389 24.9647L10.2099 22.1971C10.2163 22.1971 10.2163 22.1971 10.2231 22.1907C10.244 22.1845 10.2641 22.1756 10.2824 22.1641C10.2876 22.1634 10.2922 22.1612 10.2959 22.1576C10.3155 22.1444 10.342 22.131 10.3618 22.1178C10.3814 22.1048 10.4015 22.0849 10.4213 22.0717C10.4279 22.0649 10.4343 22.0649 10.4343 22.0585C10.4411 22.0519 10.4543 22.0455 10.461 22.032L24.0739 8.41908C25.3619 7.12879 25.3619 5.03934 24.0739 3.74926L22.284 1.96601ZM9.99856 20.6448L5.40148 16.048L16.9074 4.54203L21.5045 9.13891L9.99856 20.6448ZM4.75396 17.2699L8.77006 21.2857L2.73951 23.2936L4.75396 17.2699ZM23.1427 7.49429L22.4425 8.2011L17.8452 3.60381L18.5522 2.8972C19.3256 2.12448 20.5791 2.12448 21.3526 2.8972L23.1491 4.69368C23.9167 5.47054 23.9138 6.72115 23.1427 7.49429Z" fill="#565656"/>
<path d="M22.284 1.96601L21.9308 2.31987L21.9311 2.32021L22.284 1.96601ZM17.614 1.96601L17.2608 1.61214L17.2595 1.61342L17.614 1.96601ZM16.445 3.14142L16.7985 3.49506L16.7995 3.494L16.445 3.14142ZM4.00107 15.5788L3.64761 15.2251L3.64615 15.2266L4.00107 15.5788ZM3.97463 15.6054L4.32818 15.959L4.32955 15.9576L3.97463 15.6054ZM3.9614 15.6186V15.1186H3.69381L3.54538 15.3413L3.9614 15.6186ZM3.91533 15.6779L3.4973 15.4036L3.41533 15.5285V15.6779H3.91533ZM3.90851 15.6911L4.32454 15.9685L4.40851 15.8425V15.6911H3.90851ZM3.87545 15.744L4.23457 16.0919L4.26498 16.0606L4.28948 16.0244L3.87545 15.744ZM3.86244 15.7639L3.50349 15.4158L3.42414 15.4976L3.38809 15.6058L3.86244 15.7639ZM3.84239 15.8168L3.36955 15.6542L3.34239 15.7332V15.8168H3.84239ZM3.83599 15.83L4.31044 15.9878L4.33599 15.9109V15.83H3.83599ZM1.07505 24.1324L1.54807 24.2945L1.54951 24.2902L1.07505 24.1324ZM1.23352 24.806L1.58472 24.4501L1.58459 24.45L1.23352 24.806ZM1.70253 24.9977L1.7043 25.4978L1.71117 25.4976L1.70253 24.9977ZM1.91389 24.9647L2.05809 25.4434L2.06514 25.4413L2.07212 25.439L1.91389 24.9647ZM10.2099 22.1971V21.6971H10.1287L10.0517 21.7228L10.2099 22.1971ZM10.2231 22.1907L10.0808 21.7114L9.96718 21.7451L9.88081 21.8263L10.2231 22.1907ZM10.2824 22.1641L10.2229 21.6676L10.1113 21.681L10.0162 21.7409L10.2824 22.1641ZM10.2959 22.1576L10.0165 21.743L9.98244 21.7659L9.95257 21.7941L10.2959 22.1576ZM10.3618 22.1178L10.0854 21.7011L10.0844 21.7017L10.3618 22.1178ZM10.4213 22.0717L10.6986 22.4877L10.7431 22.4581L10.7802 22.4198L10.4213 22.0717ZM10.4343 22.0585L10.0862 21.6995L9.93431 21.8468V22.0585H10.4343ZM10.461 22.032L10.1074 21.6785L10.0489 21.737L10.0124 21.8112L10.461 22.032ZM24.0739 8.41908L24.4275 8.77263L24.4278 8.77232L24.0739 8.41908ZM24.0739 3.74926L24.4277 3.39599L24.4268 3.39506L24.0739 3.74926ZM9.99856 20.6448L9.64502 20.9984L9.99857 21.3519L10.3521 20.9984L9.99856 20.6448ZM5.40148 16.048L5.04792 15.6944L4.69436 16.048L5.04793 16.4015L5.40148 16.048ZM16.9074 4.54203L17.261 4.18847L16.9074 3.83493L16.5539 4.18848L16.9074 4.54203ZM21.5045 9.13891L21.8581 9.49246L22.2116 9.1389L21.858 8.78535L21.5045 9.13891ZM4.75396 17.2699L5.1075 16.9163L4.53607 16.3449L4.27977 17.1113L4.75396 17.2699ZM8.77006 21.2857L8.92801 21.7601L9.69592 21.5045L9.1236 20.9322L8.77006 21.2857ZM2.73951 23.2936L2.26532 23.135L1.94792 24.0841L2.89746 23.768L2.73951 23.2936ZM23.1427 7.49429L22.7887 7.1412L22.7875 7.1424L23.1427 7.49429ZM22.4425 8.2011L22.089 8.55466L22.4442 8.90987L22.7977 8.55299L22.4425 8.2011ZM17.8452 3.60381L17.4918 3.25015L17.138 3.60371L17.4917 3.95736L17.8452 3.60381ZM18.5522 2.8972L18.1988 2.54351L18.1988 2.54354L18.5522 2.8972ZM21.3526 2.8972L21.7062 2.54365L21.706 2.54346L21.3526 2.8972ZM23.1491 4.69368L23.5048 4.34226L23.5027 4.34013L23.1491 4.69368ZM22.6373 1.61214C21.1518 0.129286 18.7463 0.129286 17.2608 1.61214L17.9673 2.31987C19.0624 1.22671 20.8357 1.22671 21.9308 2.31987L22.6373 1.61214ZM17.2595 1.61342L16.0905 2.78883L16.7995 3.494L17.9685 2.31859L17.2595 1.61342ZM16.0916 2.78777L3.64761 15.2251L4.35453 15.9324L16.7985 3.49506L16.0916 2.78777ZM3.64615 15.2266L3.6197 15.2532L4.32955 15.9576L4.356 15.9309L3.64615 15.2266ZM3.62107 15.2519C3.58746 15.2855 3.56514 15.317 3.55238 15.3365C3.54669 15.3452 3.54219 15.3527 3.54207 15.3528C3.54035 15.3557 3.54507 15.3478 3.55082 15.3391C3.56068 15.3241 3.60175 15.2616 3.67922 15.2075C3.76998 15.1441 3.87078 15.1186 3.9614 15.1186V16.1186C4.05543 16.1186 4.15879 16.0923 4.25167 16.0274C4.33125 15.9719 4.37401 15.9072 4.38551 15.8898C4.3893 15.884 4.39225 15.8793 4.39393 15.8766C4.39481 15.8752 4.39553 15.874 4.39597 15.8733C4.39638 15.8726 4.39677 15.872 4.39678 15.872C4.39752 15.8707 4.39393 15.8767 4.38925 15.8839C4.37851 15.9003 4.35859 15.9286 4.32818 15.959L3.62107 15.2519ZM3.54538 15.3413C3.5525 15.3306 3.55795 15.3237 3.5589 15.3225C3.55954 15.3217 3.55959 15.3217 3.55451 15.3278C3.55095 15.332 3.54247 15.3422 3.53361 15.3534C3.5245 15.3649 3.5113 15.3823 3.4973 15.4036L4.33335 15.9523C4.32586 15.9637 4.32002 15.9711 4.31871 15.9728C4.31764 15.9741 4.31738 15.9744 4.32207 15.9688C4.32522 15.965 4.33353 15.9551 4.34201 15.9444C4.35081 15.9333 4.36369 15.9166 4.37743 15.896L3.54538 15.3413ZM3.41533 15.6779C3.41533 15.6568 3.4167 15.6345 3.41987 15.6113C3.42305 15.588 3.42795 15.5647 3.43466 15.5414C3.44138 15.5182 3.44962 15.496 3.45906 15.4751C3.46848 15.4543 3.47872 15.4355 3.48907 15.4188C3.50958 15.3856 3.53005 15.3614 3.54335 15.3468C3.55002 15.3394 3.5556 15.3338 3.55892 15.3304C3.56193 15.3274 3.56453 15.3249 3.56385 15.3256C3.56382 15.3256 3.56359 15.3258 3.56334 15.3261C3.56306 15.3264 3.56264 15.3268 3.56213 15.3273C3.56113 15.3282 3.55955 15.3298 3.55765 15.3317C3.5539 15.3354 3.54792 15.3415 3.54085 15.3493C3.52675 15.3648 3.50553 15.39 3.48439 15.4241C3.47371 15.4414 3.46318 15.4607 3.4535 15.4821C3.4438 15.5036 3.43533 15.5263 3.42843 15.5502C3.42153 15.5741 3.41649 15.5982 3.41321 15.6222C3.40993 15.6461 3.40851 15.6692 3.40851 15.6911H4.40851C4.40851 15.7123 4.40714 15.7346 4.40397 15.7578C4.40078 15.781 4.39589 15.8044 4.38918 15.8277C4.38246 15.8509 4.37422 15.8731 4.36478 15.8939C4.35536 15.9148 4.34512 15.9336 4.33476 15.9503C4.31426 15.9835 4.29379 16.0077 4.28048 16.0223C4.27382 16.0296 4.26824 16.0353 4.26492 16.0386C4.26191 16.0416 4.25931 16.0441 4.25999 16.0435C4.26002 16.0435 4.26024 16.0432 4.2605 16.043C4.26078 16.0427 4.2612 16.0423 4.26171 16.0418C4.26271 16.0408 4.26429 16.0393 4.26619 16.0374C4.26993 16.0336 4.27592 16.0275 4.28299 16.0198C4.29709 16.0043 4.31831 15.9791 4.33945 15.9449C4.35013 15.9277 4.36066 15.9084 4.37034 15.8869C4.38004 15.8655 4.38851 15.8427 4.39541 15.8188C4.40231 15.7949 4.40735 15.7709 4.41063 15.7469C4.41391 15.723 4.41533 15.6999 4.41533 15.6779H3.41533ZM3.49249 15.4138C3.478 15.4355 3.46711 15.454 3.46272 15.4613C3.45831 15.4687 3.45955 15.4665 3.46143 15.4637L4.28948 16.0244C4.30478 16.0018 4.31595 15.983 4.3214 15.9739C4.32688 15.9647 4.3258 15.9666 4.32454 15.9685L3.49249 15.4138ZM3.51633 15.3961C3.50133 15.4116 3.48781 15.4275 3.47566 15.4434C3.46354 15.4593 3.45357 15.4743 3.44544 15.4875C3.43744 15.5006 3.4314 15.5117 3.42746 15.5192C3.42549 15.523 3.42391 15.5261 3.42289 15.5281C3.42197 15.5299 3.42112 15.5317 3.4211 15.5317C3.42044 15.533 3.4227 15.5284 3.42565 15.5228C3.42895 15.5166 3.43421 15.507 3.4413 15.4955C3.4485 15.4839 3.45733 15.4708 3.46801 15.4569C3.47873 15.4429 3.49054 15.4292 3.50349 15.4158L4.22139 16.1119C4.23598 16.0969 4.24924 16.0814 4.26125 16.0658C4.27323 16.0502 4.28319 16.0354 4.29142 16.0221C4.29954 16.009 4.30572 15.9978 4.3099 15.9899C4.31372 15.9826 4.31679 15.9764 4.31694 15.9761C4.31733 15.9753 4.31689 15.9762 4.31637 15.9772C4.31577 15.9784 4.3146 15.9807 4.31307 15.9836C4.30998 15.9895 4.30485 15.999 4.29785 16.0104C4.29073 16.022 4.28185 16.0353 4.27099 16.0496C4.26009 16.0639 4.24797 16.0781 4.23457 16.0919L3.51633 15.3961ZM3.38809 15.6058C3.39008 15.5998 3.39189 15.5956 3.38876 15.6034C3.3861 15.61 3.37786 15.6301 3.36955 15.6542L4.31524 15.9793C4.31375 15.9836 4.31222 15.9872 4.31623 15.9773C4.31976 15.9685 4.32818 15.9478 4.33678 15.922L3.38809 15.6058ZM3.34239 15.8168C3.34239 15.7963 3.34368 15.7746 3.34667 15.7521C3.34966 15.7296 3.35427 15.7069 3.36059 15.6842C3.36692 15.6616 3.3747 15.64 3.3836 15.6197C3.39249 15.5993 3.40215 15.5809 3.41192 15.5645C3.43125 15.5321 3.45051 15.5084 3.46269 15.4943C3.46878 15.4873 3.47382 15.4819 3.47661 15.479C3.47803 15.4774 3.47916 15.4763 3.47969 15.4757C3.48005 15.4754 3.48063 15.4748 3.48007 15.4753C3.47977 15.4756 3.4766 15.4789 3.47278 15.483C3.46874 15.4873 3.46267 15.494 3.45561 15.5024C3.44139 15.5193 3.42147 15.5451 3.40206 15.5793C3.39231 15.5965 3.38293 15.6154 3.37443 15.636C3.36592 15.6566 3.35863 15.6781 3.35275 15.7004C3.34085 15.7456 3.33599 15.7894 3.33599 15.83H4.33599C4.33599 15.8689 4.33133 15.9112 4.31978 15.9551C4.31408 15.9767 4.307 15.9976 4.29873 16.0176C4.29048 16.0376 4.28137 16.0559 4.27193 16.0726C4.25311 16.1058 4.23389 16.1306 4.22042 16.1466C4.21374 16.1546 4.20805 16.1608 4.20441 16.1647C4.20255 16.1667 4.20103 16.1683 4.20004 16.1693C4.19909 16.1703 4.19836 16.1711 4.19831 16.1711C4.19796 16.1715 4.19874 16.1707 4.19929 16.1701C4.20003 16.1693 4.20135 16.168 4.20297 16.1663C4.20615 16.1629 4.21159 16.1571 4.21805 16.1496C4.23098 16.1347 4.25094 16.11 4.27087 16.0766C4.28094 16.0597 4.29087 16.0408 4.3 16.0199C4.30916 15.999 4.31714 15.9768 4.32365 15.9535C4.33015 15.9303 4.33489 15.9069 4.33798 15.8837C4.34106 15.8605 4.34239 15.8381 4.34239 15.8168H3.34239ZM3.36154 15.6722L0.600599 23.9747L1.54951 24.2902L4.31044 15.9878L3.36154 15.6722ZM0.602051 23.9704C0.458794 24.3884 0.567687 24.8516 0.882459 25.162L1.58459 24.45C1.54358 24.4095 1.52933 24.3492 1.54805 24.2945L0.602051 23.9704ZM0.882331 25.1619C1.10103 25.3777 1.39639 25.4988 1.7043 25.4977L1.70076 24.4977C1.65784 24.4979 1.61601 24.481 1.58472 24.4501L0.882331 25.1619ZM1.71117 25.4976C1.82905 25.4956 1.94573 25.4773 2.05809 25.4434L1.76969 24.4859C1.74486 24.4934 1.71939 24.4973 1.69388 24.4978L1.71117 25.4976ZM2.07212 25.439L10.3682 22.6714L10.0517 21.7228L1.75566 24.4904L2.07212 25.439ZM10.2099 22.6971C10.2101 22.6971 10.2116 22.6971 10.2133 22.6971C10.215 22.6971 10.2182 22.6971 10.222 22.697C10.229 22.6969 10.2442 22.6964 10.2632 22.6946C10.3082 22.6901 10.3688 22.678 10.4343 22.6463C10.4912 22.6188 10.5295 22.5868 10.5431 22.5753C10.5509 22.5686 10.557 22.563 10.5598 22.5605C10.5625 22.5579 10.5651 22.5555 10.5655 22.5551L9.88081 21.8263C9.87544 21.8313 9.88461 21.8225 9.89515 21.8136C9.90656 21.8038 9.94326 21.773 9.99842 21.7463C10.0623 21.7154 10.1213 21.7037 10.1643 21.6995C10.1935 21.6966 10.2206 21.6971 10.2099 21.6971V22.6971ZM10.3655 22.67C10.4274 22.6516 10.4895 22.6245 10.5487 22.5872L10.0162 21.7409C10.0386 21.7267 10.0606 21.7174 10.0808 21.7114L10.3655 22.67ZM10.342 22.6605C10.4615 22.6461 10.5636 22.5925 10.6392 22.5212L9.95257 21.7941C10.0207 21.7298 10.1137 21.6807 10.2229 21.6676L10.342 22.6605ZM10.5752 22.5723C10.5701 22.5758 10.5672 22.5774 10.5687 22.5766C10.5702 22.5757 10.5725 22.5743 10.5787 22.5708C10.5837 22.5679 10.5927 22.5627 10.602 22.5571C10.6114 22.5515 10.6246 22.5435 10.6391 22.5338L10.0844 21.7017C10.0891 21.6987 10.0915 21.6973 10.0898 21.6983C10.0879 21.6994 10.0854 21.7009 10.0788 21.7047C10.0735 21.7077 10.0643 21.713 10.0547 21.7188C10.045 21.7246 10.0315 21.7329 10.0165 21.743L10.5752 22.5723ZM10.6381 22.5345C10.6584 22.521 10.6749 22.5084 10.6859 22.4998C10.6966 22.4914 10.7063 22.4832 10.7105 22.4798C10.7163 22.475 10.7166 22.4748 10.716 22.4753C10.715 22.476 10.7087 22.481 10.6986 22.4877L10.1439 21.6557C10.124 21.669 10.1077 21.6814 10.0968 21.69C10.0862 21.6983 10.0765 21.7064 10.0725 21.7098C10.0666 21.7146 10.0665 21.7147 10.0673 21.7141C10.0683 21.7133 10.075 21.708 10.0854 21.7011L10.6381 22.5345ZM10.7802 22.4198C10.7364 22.465 10.6613 22.5125 10.7117 22.4782C10.7257 22.4687 10.7887 22.4264 10.8431 22.3487C10.9076 22.2563 10.9343 22.1531 10.9343 22.0585H9.93431C9.93431 21.9671 9.96018 21.8663 10.0233 21.7759C10.0762 21.7002 10.1372 21.6595 10.1489 21.6516C10.1944 21.6206 10.1128 21.6716 10.0623 21.7236L10.7802 22.4198ZM10.7824 22.4174C10.7693 22.4301 10.7583 22.4393 10.7524 22.4441C10.7465 22.4489 10.742 22.4523 10.7419 22.4523C10.7378 22.4554 10.7527 22.4444 10.7656 22.4337C10.7954 22.4092 10.8614 22.3507 10.9095 22.2529L10.0124 21.8112C10.0539 21.7268 10.11 21.6782 10.1298 21.6619C10.1378 21.6553 10.1477 21.648 10.1389 21.6546C10.1366 21.6563 10.1299 21.6614 10.1219 21.6679C10.1139 21.6744 10.101 21.6852 10.0862 21.6995L10.7824 22.4174ZM10.8145 22.3856L24.4275 8.77263L23.7204 8.06552L10.1074 21.6785L10.8145 22.3856ZM24.4278 8.77232C25.9106 7.28686 25.9107 4.88128 24.4277 3.39599L23.7201 4.10253C24.8132 5.1974 24.8132 6.97073 23.72 8.06583L24.4278 8.77232ZM24.4268 3.39506L22.6369 1.6118L21.9311 2.32021L23.721 4.10347L24.4268 3.39506ZM10.3521 20.2913L5.75502 15.6944L5.04793 16.4015L9.64502 20.9984L10.3521 20.2913ZM5.75503 16.4015L17.261 4.89558L16.5539 4.18848L5.04792 15.6944L5.75503 16.4015ZM16.5539 4.89559L21.151 9.49247L21.858 8.78535L17.261 4.18847L16.5539 4.89559ZM21.1509 8.78535L9.64501 20.2913L10.3521 20.9984L21.8581 9.49246L21.1509 8.78535ZM4.40042 17.6234L8.41651 21.6393L9.1236 20.9322L5.1075 16.9163L4.40042 17.6234ZM8.61211 20.8114L2.58156 22.8192L2.89746 23.768L8.92801 21.7601L8.61211 20.8114ZM3.21369 23.4522L5.22815 17.4284L4.27977 17.1113L2.26532 23.135L3.21369 23.4522ZM22.7875 7.1424L22.0873 7.84921L22.7977 8.55299L23.4979 7.84618L22.7875 7.1424ZM22.7961 7.84755L18.1988 3.25026L17.4917 3.95736L22.089 8.55466L22.7961 7.84755ZM18.1987 3.95747L18.9057 3.25086L18.1988 2.54354L17.4918 3.25015L18.1987 3.95747ZM18.9057 3.2509C19.4837 2.67327 20.4209 2.6732 20.9993 3.25094L21.706 2.54346C20.7373 1.57575 19.1674 1.57568 18.1988 2.54351L18.9057 3.2509ZM20.9991 3.25076L22.7956 5.04723L23.5027 4.34013L21.7062 2.54365L20.9991 3.25076ZM22.7934 5.0451C23.368 5.62657 23.3657 6.56261 22.7887 7.14121L23.4967 7.84737C24.4618 6.87969 24.4654 5.3145 23.5048 4.34226L22.7934 5.0451Z" fill="#565656" mask="url(#path-1-outside-1)"/>
</svg>
