<svg width="20" height="20" viewBox="0 0 20 20" fill="none" xmlns="http://www.w3.org/2000/svg">
<path fill-rule="evenodd" clip-rule="evenodd" d="M19.4813 0.835117C19.741 1.09513 19.7699 1.49875 19.5679 1.79067L19.4813 1.89441C19.4813 1.89441 18.6013 2.77583 18.1612 3.21654C18.0696 3.30835 17.9355 3.4426 17.8179 3.56042C17.6745 3.704 17.6614 3.93202 17.7848 4.0931C17.9102 4.25691 18.0608 4.45787 18.153 4.59632C19.0792 5.9866 19.6159 7.63807 19.6159 9.40965C19.6159 14.2586 15.5949 18.2078 10.573 18.3639L10.2643 18.3687C9.82252 18.3687 9.18225 18.4831 8.13282 18.1845C7.0834 17.8859 5.30742 18.2111 4.71652 18.443L4.48244 18.5439L4.07984 18.7289C2.40541 19.51 1.75186 19.4687 1.25664 18.9647C1.22939 18.937 1.20048 18.8998 1.17142 18.8576C0.982342 18.5826 1.06168 18.2148 1.2975 17.9787L18.4233 0.835117C18.7155 0.542601 19.1892 0.542601 19.4813 0.835117ZM10.2643 0.450439C11.6002 0.450439 12.8706 0.718759 14.02 1.20221C14.1183 1.24355 14.2356 1.29865 14.3587 1.35936C14.834 1.59385 14.9197 2.22536 14.5449 2.60013C14.3954 2.7496 14.25 2.89504 14.1375 3.00756C11.1627 5.98239 5.40392 11.7411 3.25141 13.8936C2.84944 14.2956 2.17165 14.1584 1.95154 13.6343L1.94184 13.6112C1.25576 12.1427 0.91272 10.7421 0.91272 9.40942C0.91272 4.46151 5.09958 0.450439 10.2643 0.450439Z" fill="#4B4B4B"/>
</svg>
