<svg width="25" height="24" viewBox="0 0 25 24" fill="none" xmlns="http://www.w3.org/2000/svg">
<path d="M12.0399 2C12.5703 2 13.0791 2.21071 13.4541 2.58579C13.8292 2.96086 14.0399 3.46957 14.0399 4C14.0399 4.74 13.6399 5.39 13.0399 5.73V7H14.0399C15.8964 7 17.6769 7.7375 18.9897 9.05025C20.3024 10.363 21.0399 12.1435 21.0399 14H22.0399C22.3051 14 22.5595 14.1054 22.747 14.2929C22.9346 14.4804 23.0399 14.7348 23.0399 15V18C23.0399 18.2652 22.9346 18.5196 22.747 18.7071C22.5595 18.8946 22.3051 19 22.0399 19H21.0399V20C21.0399 20.5304 20.8292 21.0391 20.4541 21.4142C20.0791 21.7893 19.5704 22 19.0399 22H5.03992C4.50948 22 4.00078 21.7893 3.6257 21.4142C3.25063 21.0391 3.03992 20.5304 3.03992 20V19H2.03992C1.7747 19 1.52035 18.8946 1.33281 18.7071C1.14527 18.5196 1.03992 18.2652 1.03992 18V15C1.03992 14.7348 1.14527 14.4804 1.33281 14.2929C1.52035 14.1054 1.7747 14 2.03992 14H3.03992C3.03992 12.1435 3.77741 10.363 5.09017 9.05025C6.40292 7.7375 8.1834 7 10.0399 7H11.0399V5.73C10.4399 5.39 10.0399 4.74 10.0399 4C10.0399 3.46957 10.2506 2.96086 10.6257 2.58579C11.0008 2.21071 11.5095 2 12.0399 2ZM7.53992 13C6.87688 13 6.24099 13.2634 5.77215 13.7322C5.30331 14.2011 5.03992 14.837 5.03992 15.5C5.03992 16.163 5.30331 16.7989 5.77215 17.2678C6.24099 17.7366 6.87688 18 7.53992 18C8.20296 18 8.83884 17.7366 9.30768 17.2678C9.77652 16.7989 10.0399 16.163 10.0399 15.5C10.0399 14.837 9.77652 14.2011 9.30768 13.7322C8.83884 13.2634 8.20296 13 7.53992 13ZM16.5399 13C15.8769 13 15.241 13.2634 14.7722 13.7322C14.3033 14.2011 14.0399 14.837 14.0399 15.5C14.0399 16.163 14.3033 16.7989 14.7722 17.2678C15.241 17.7366 15.8769 18 16.5399 18C17.203 18 17.8388 17.7366 18.3077 17.2678C18.7765 16.7989 19.0399 16.163 19.0399 15.5C19.0399 14.837 18.7765 14.2011 18.3077 13.7322C17.8388 13.2634 17.203 13 16.5399 13Z" fill="#4B4B4B"/>
</svg>
