<svg width="12" height="12" viewBox="0 0 12 12" fill="none" xmlns="http://www.w3.org/2000/svg">
<path d="M4.86506 3.94115e-09C5.77194 -3.64917e-05 6.66077 0.253394 7.43127 0.731692C8.20176 1.20999 8.82324 1.89412 9.22557 2.70687C9.6279 3.51962 9.79506 4.42864 9.70819 5.33135C9.62132 6.23406 9.28388 7.09452 8.73395 7.81564L11.8108 10.8938C11.9271 11.0105 11.9947 11.1671 11.9997 11.3319C12.0047 11.4966 11.9469 11.6571 11.8379 11.7807C11.7289 11.9043 11.5769 11.9818 11.4128 11.9975C11.2487 12.0131 11.0849 11.9657 10.9545 11.8649L10.8935 11.811L7.81538 8.73421C7.20105 9.20264 6.48401 9.51804 5.72358 9.65432C4.96316 9.7906 4.18121 9.74384 3.44244 9.51791C2.70367 9.29198 2.02933 8.89337 1.4752 8.35507C0.921076 7.81677 0.503105 7.15425 0.255872 6.42233C0.00863869 5.69042 -0.0607479 4.91015 0.0534535 4.1461C0.167655 3.38204 0.462161 2.65616 0.912602 2.02853C1.36304 1.40089 1.95647 0.889546 2.64378 0.536797C3.33108 0.184048 4.09251 4.07746e-05 4.86506 3.94115e-09ZM4.86506 1.29742C3.91879 1.29742 3.01128 1.67332 2.34217 2.34243C1.67306 3.01154 1.29716 3.91905 1.29716 4.86531C1.29716 5.81158 1.67306 6.71908 2.34217 7.3882C3.01128 8.05731 3.91879 8.43321 4.86506 8.43321C5.81132 8.43321 6.71883 8.05731 7.38794 7.3882C8.05705 6.71908 8.43295 5.81158 8.43295 4.86531C8.43295 3.91905 8.05705 3.01154 7.38794 2.34243C6.71883 1.67332 5.81132 1.29742 4.86506 1.29742Z" fill="#4B4B4B"/>
</svg>
