<svg width="55" height="64" viewBox="0 0 55 64" fill="none" xmlns="http://www.w3.org/2000/svg">
<path d="M17.1 47.56C17.1 47.56 9.49 49.3 6 50.17C4.83846 50.4687 3.78527 51.0903 2.96234 51.9628C2.13941 52.8353 1.5804 53.923 1.35 55.1L1 57.2C9.3907 60.9015 18.4591 62.8187 27.63 62.83C36.7762 62.8287 45.8218 60.9215 54.19 57.23L53.91 55.1C53.6548 53.9275 53.0825 52.8476 52.2554 51.9782C51.4283 51.1088 50.3783 50.4833 49.22 50.17C43.85 48.61 38.1 47.56 38.1 47.56" fill="#676767"/>
<path d="M48.68 52.76C46.41 52.31 42.76 49.63 38.89 48.63C31.5599 46.74 23.8702 46.74 16.54 48.63C12.54 49.63 8.82004 52.34 6.54004 52.8C5.38574 53.0782 4.32119 53.6455 3.44651 54.4484C2.57183 55.2514 1.91577 56.2636 1.54004 57.39C9.77182 60.9394 18.6357 62.7898 27.6 62.83C36.5494 62.7926 45.3969 60.9279 53.6 57.35C53.2315 56.2332 52.5876 55.2273 51.7277 54.425C50.8678 53.6228 49.8197 53.0502 48.68 52.76Z" fill="#555555"/>
<path d="M45.6299 60.58C41.141 61.7019 36.5583 62.4082 31.9399 62.69L39.6599 45.49L45.6599 47.28L45.6299 60.58Z" fill="#42423F"/>
<path d="M45.6299 47.28V60.58" stroke="#333333" stroke-width="1.5" stroke-linejoin="round"/>
<path d="M31.8799 62.71L39.6099 45.52" stroke="#333333" stroke-width="1.5" stroke-linejoin="round"/>
<path d="M9.63009 60.58C14.119 61.7019 18.7017 62.4082 23.3201 62.69L15.5901 45.49C13.3901 46.16 11.7901 46.62 9.59009 47.28L9.63009 60.58Z" fill="#42423F"/>
<path d="M9.62988 47.28V60.58" stroke="#333333" stroke-width="1.5" stroke-linejoin="round"/>
<path d="M50.6199 22.34C50.6199 18.59 46.5599 14.07 39.9499 14.8C39.5217 13.5784 39.2987 12.2944 39.2899 11C39.2899 8.5 40.1399 9 41.4999 7C41.7183 6.71147 41.8407 6.36173 41.8499 6C41.8499 3.38 35.5399 0 27.7499 0C19.9599 0 13.6599 3.38 13.6599 6C13.6701 6.35994 13.7885 6.70845 13.9999 7C15.3599 8.94 16.2099 8.45 16.2099 11C16.207 12.308 15.9839 13.6061 15.5499 14.84C8.90988 14.11 4.87988 18.59 4.87988 22.38C4.87988 31 22.1999 32.74 27.6299 32.74C38.5899 32.7 50.6199 29.39 50.6199 22.34Z" fill="#333333"/>
<path d="M19.6001 39.83V45.83C21.6514 48.3231 24.4603 50.0786 27.6001 50.83C30.7351 50.0671 33.5406 48.3137 35.6001 45.83V39.83H19.6001Z" fill="#E8B992"/>
<path d="M19.6001 42.14L29.2301 50.29C31.7261 49.4231 33.9317 47.8789 35.6001 45.83V39.83H19.6001V42.14Z" fill="#DBA983"/>
<path d="M19.6001 39.83V45.83C21.6514 48.3231 24.4603 50.0786 27.6001 50.83C30.7351 50.0671 33.5406 48.3137 35.6001 45.83V39.83H19.6001Z" stroke="#333333" stroke-width="1.5" stroke-linecap="square" stroke-linejoin="round"/>
<path d="M37.8899 26.89C37.8899 26.89 37.8899 26.04 37.8899 22.89C37.8899 18.53 33.8899 13.29 27.6499 13.18C21.3999 13.29 17.4099 18.53 17.4099 22.89C17.4099 26.04 17.4099 26.89 17.4099 26.89C15.6499 26.36 14.6599 26.97 15.4099 31.2C15.6899 32.8 16.2999 35.07 17.6899 35.2C17.8886 36.4918 18.2238 37.7589 18.6899 38.98C19.4399 41.35 20.9299 42.39 23.6099 44.6C24.7799 45.5082 26.2188 46.0011 27.6999 46.0011C29.181 46.0011 30.6199 45.5082 31.7899 44.6C34.4699 42.39 35.9599 41.35 36.7099 38.98C37.176 37.7589 37.5113 36.4918 37.7099 35.2C39.0999 35.07 39.7099 32.8 39.9899 31.2C40.6399 27 39.6499 26.36 37.8899 26.89Z" fill="#E8B992"/>
<path d="M37.8499 27L38.0499 23C38.0224 20.8355 37.1672 18.7637 35.6599 17.21C34.6708 16.0403 33.4483 15.0901 32.0707 14.4202C30.6931 13.7504 29.1908 13.3756 27.6599 13.32C26.6125 13.3575 25.5756 13.5427 24.5799 13.87C24.5799 17.45 24.6899 23.55 24.6899 24.95C24.6899 26.95 22.6899 26.95 22.6899 27.95C23.323 27.9851 23.9352 28.1891 24.4627 28.5408C24.9903 28.8925 25.4141 29.3791 25.6899 29.95H27.1899C27.3225 29.95 27.4497 30.0027 27.5435 30.0965C27.6373 30.1902 27.6899 30.3174 27.6899 30.45V32C27.6899 34.08 28.5399 35.13 27.6899 35.61C26.9499 35.61 26.8199 35.03 25.4599 35.03C24.8099 35.03 24.5299 35.71 24.8299 36.03C26.4699 36.1 26.3899 36.66 27.7099 36.68V40.46C27.7149 40.591 27.7692 40.7154 27.8619 40.8081C27.9546 40.9008 28.0789 40.9551 28.2099 40.96C28.6078 40.96 28.9893 41.118 29.2706 41.3993C29.5519 41.6807 29.7099 42.0622 29.7099 42.46C29.7099 42.8578 29.5519 43.2394 29.2706 43.5207C28.9893 43.802 28.6078 43.96 28.2099 43.96H26.6099C26.1261 43.9549 25.6569 44.1253 25.2891 44.4398C24.9214 44.7542 24.6801 45.1913 24.6099 45.67V45.76C25.5484 46.1083 26.5531 46.2416 27.5499 46.15C29.1028 46.2933 30.6567 45.8862 31.9399 45C34.8299 42.82 36.6999 40.9 37.0599 38.94C37.313 37.7416 37.4967 36.5296 37.6099 35.31C39.0099 35.2 39.6099 32.93 39.8899 31.31C40.6099 27.07 39.6099 26.46 37.8499 27Z" fill="#DDAD8A"/>
<path d="M20.41 36.21C20.41 36.21 18.73 37.47 19.63 41.5L17.47 36.09L17.6 35L19.22 35.59L20.56 35.73L20.41 36.21Z" fill="#CEA284"/>
<path d="M36.27 27.32C34.91 27.1 30 26.48 28.9 29C28.082 28.6702 27.1681 28.6702 26.35 29C25.22 26.46 20.35 27.13 18.98 27.3C18.0868 27.4117 17.2676 27.8531 16.683 28.5376C16.0984 29.2221 15.7906 30.1003 15.82 31C15.88 33.43 17.45 36 19.75 36.16C21.4167 36.2984 23.0702 35.7695 24.3471 34.6894C25.6241 33.6094 26.42 32.0666 26.56 30.4C26.8801 30.1973 27.2512 30.0897 27.63 30.0897C28.0089 30.0897 28.38 30.1973 28.7 30.4C28.7669 31.2247 28.9956 32.0282 29.3731 32.7645C29.7505 33.5009 30.2693 34.1556 30.8999 34.6915C31.5304 35.2273 32.2603 35.6336 33.0479 35.8873C33.8355 36.141 34.6653 36.2371 35.49 36.17C37.79 36.03 39.36 33.43 39.42 31.01C39.4361 30.1164 39.1246 29.2478 38.5443 28.5681C37.964 27.8883 37.1551 27.4444 36.27 27.32Z" fill="#CEA284"/>
<path d="M34.87 36.21C34.87 36.21 36.55 37.47 35.65 41.5L37.81 36.09L37.68 35L36.06 35.59L34.72 35.73L34.87 36.21Z" fill="#CEA284"/>
<path d="M37.8899 26.89C37.8899 26.89 37.8899 26.04 37.8899 22.89C37.8899 18.53 33.8899 13.29 27.6499 13.18C21.3999 13.29 17.4099 18.53 17.4099 22.89C17.4099 26.04 17.4099 26.89 17.4099 26.89C15.6499 26.36 14.6599 26.97 15.4099 31.2C15.6899 32.8 16.2999 35.07 17.6899 35.2C17.8886 36.4918 18.2238 37.7589 18.6899 38.98C19.4399 41.35 20.9299 42.39 23.6099 44.6C24.7799 45.5082 26.2188 46.0011 27.6999 46.0011C29.181 46.0011 30.6199 45.5082 31.7899 44.6C34.4699 42.39 35.9599 41.35 36.7099 38.98C37.176 37.7589 37.5113 36.4918 37.7099 35.2C39.0999 35.07 39.7099 32.8 39.9899 31.2C40.6399 27 39.6499 26.36 37.8899 26.89Z" stroke="#333333" stroke-width="1.5" stroke-linecap="round" stroke-linejoin="round"/>
<path d="M23.9399 39C23.9576 39.9333 24.3129 40.8285 24.9399 41.52C25.0772 41.6763 25.2669 41.7769 25.4733 41.8027C25.6798 41.8285 25.8885 41.7777 26.0599 41.66C26.5269 41.393 27.064 41.2744 27.5999 41.32C28.2699 41.32 29.1499 41.32 29.4399 41.63C29.7299 41.94 29.9799 41.84 30.2699 41.52C30.8917 40.7703 31.2438 39.8336 31.2699 38.86L23.9399 39Z" fill="#DDAD8A"/>
<path d="M23.7799 38.93L23.4099 39.28" stroke="#CE9E7E" stroke-width="0.75" stroke-miterlimit="10" stroke-linecap="round"/>
<path d="M31.3799 38.81L31.8299 39.35" stroke="#CE9E7E" stroke-width="0.75" stroke-miterlimit="10" stroke-linecap="round"/>
<path d="M27.6299 36.66V37.47" stroke="#CE9E7E" stroke-width="0.75" stroke-miterlimit="10" stroke-linecap="round"/>
<path d="M17.1 47.56C17.1 47.56 9.49 49.3 6 50.17C4.83846 50.4687 3.78527 51.0903 2.96234 51.9628C2.13941 52.8353 1.5804 53.923 1.35 55.1L1 57.2C9.3907 60.9015 18.4591 62.8187 27.63 62.83C36.7762 62.8287 45.8218 60.9215 54.19 57.23L53.91 55.1C53.6548 53.9275 53.0825 52.8476 52.2554 51.9782C51.4283 51.1088 50.3783 50.4833 49.22 50.17C43.85 48.61 38.1 47.56 38.1 47.56" stroke="#333333" stroke-width="1.5" stroke-linejoin="round"/>
<path d="M51.35 49.45C51.8535 48.8675 52.1239 48.1194 52.1091 47.3496C52.0944 46.5798 51.7955 45.8427 51.27 45.28C51.7801 44.7461 52.0754 44.0429 52.0994 43.3048C52.1234 42.5668 51.8744 41.8458 51.4 41.28C51.7525 40.9363 52.0149 40.5111 52.1643 40.042C52.3136 39.5729 52.3452 39.0743 52.2563 38.59C52.1673 38.1058 51.9606 37.6509 51.6543 37.2655C51.348 36.8801 50.9516 36.576 50.5 36.38C50.6632 35.9626 50.7291 35.5135 50.6928 35.0668C50.6565 34.6201 50.5189 34.1876 50.2905 33.802C50.062 33.4164 49.7487 33.088 49.3744 32.8416C49 32.5952 48.5744 32.4373 48.13 32.38C48.2131 32.053 48.2567 31.7173 48.26 31.38C48.2646 30.8062 48.1404 30.2388 47.8963 29.7195C47.6523 29.2003 47.2947 28.7425 46.85 28.38C47.18 23 39.44 12.85 27.6 12.85C17 12.85 8.65996 23.06 8.65996 28.42C8.21523 28.7825 7.85764 29.2403 7.61359 29.7595C7.36954 30.2788 7.24527 30.8462 7.24996 31.42C7.25316 31.7573 7.29681 32.093 7.37996 32.42C6.67285 32.5223 6.02549 32.8737 5.55436 33.4108C5.08323 33.9479 4.81926 34.6356 4.80996 35.35C4.81587 35.6917 4.88012 36.0299 4.99996 36.35C4.63791 36.5066 4.3103 36.7331 4.03588 37.0164C3.76146 37.2998 3.54563 37.6345 3.40072 38.0014C3.25582 38.3683 3.1847 38.7602 3.19144 39.1546C3.19817 39.549 3.28262 39.9382 3.43996 40.3C3.59329 40.6728 3.81742 41.0124 4.09996 41.3C3.62555 41.8658 3.3765 42.5868 3.40048 43.3248C3.42447 44.0629 3.71981 44.7661 4.22996 45.3C3.94903 45.6011 3.73029 45.9547 3.58626 46.3404C3.44222 46.7262 3.37573 47.1367 3.3906 47.5482C3.40546 47.9597 3.50138 48.3643 3.67287 48.7387C3.84436 49.113 4.08805 49.4499 4.38996 49.73C4.03817 49.9411 3.74254 50.2341 3.52815 50.5839C3.31376 50.9337 3.18695 51.3301 3.15849 51.7394C3.13002 52.1487 3.20074 52.5589 3.36465 52.935C3.52855 53.3111 3.78079 53.6422 4.09996 53.9C4.39372 54.2277 4.77262 54.4676 5.19455 54.593C5.61647 54.7183 6.06489 54.7242 6.48996 54.61C6.67807 55.2157 7.05331 55.7462 7.56177 56.1253C8.07023 56.5044 8.68576 56.7126 9.31996 56.72H9.47996C9.68569 57.3019 10.0659 57.8062 10.5688 58.1642C11.0717 58.5221 11.6727 58.7162 12.29 58.72H12.4C12.4947 59.3082 12.7908 59.8452 13.2377 60.2392C13.6846 60.6332 14.2545 60.8597 14.85 60.88C15.1987 60.8725 15.5418 60.7901 15.8558 60.6382C16.1699 60.4864 16.4475 60.2687 16.67 60C16.9748 59.7437 17.2078 59.4127 17.3463 59.0393C17.4848 58.666 17.5239 58.263 17.46 57.87C17.9483 57.6795 18.3814 57.3701 18.72 56.97H18.77C19.1023 56.9783 19.4328 56.9197 19.7421 56.7978C20.0513 56.6758 20.3328 56.4929 20.57 56.26C20.9614 55.8779 21.2202 55.3805 21.3084 54.8406C21.3966 54.3007 21.3095 53.7468 21.06 53.26V53.2C21.2762 52.3835 21.3035 51.5286 21.14 50.7C20.8789 49.8511 20.331 49.1194 19.59 48.63C20.3381 48.1307 20.8883 47.3859 21.1458 46.5241C21.4032 45.6624 21.3516 44.7378 21 43.91C21.088 43.3504 20.9886 42.7774 20.7174 42.28C20.4461 41.7827 20.0181 41.389 19.5 41.16C19.3042 41.0802 19.1387 40.9405 19.0273 40.7608C18.9159 40.5811 18.8643 40.3708 18.88 40.16C18.954 39.5857 18.8951 39.0021 18.7078 38.4542C18.5206 37.9064 18.21 37.4088 17.8 37C18.028 36.634 18.2095 36.241 18.34 35.83C18.6293 34.6155 18.5098 33.3395 18 32.2L19 31.94C21.13 31.41 22.89 30.61 22.59 28.44H22.86C23.143 28.4841 23.4319 28.472 23.7102 28.4044C23.9886 28.3368 24.2509 28.215 24.4821 28.046C24.7134 27.8769 24.909 27.664 25.0579 27.4193C25.2068 27.1746 25.3061 26.903 25.35 26.62C25.375 26.4208 25.375 26.2192 25.35 26.02C25.8226 25.5795 26.168 25.0199 26.35 24.4C26.8612 24.3284 27.3315 24.0808 27.68 23.7C28.0325 24.0809 28.5059 24.3282 29.02 24.4C29.1995 25.0106 29.5376 25.5626 30 26V26.14C30.0431 26.9332 30.3077 27.6984 30.7637 28.3489C31.2198 28.9994 31.849 29.509 32.58 29.82L32.66 30.34C32.7068 30.7555 32.8362 31.1574 33.0404 31.5222C33.2447 31.887 33.5198 32.2074 33.8495 32.4645C34.1792 32.7215 34.557 32.9102 34.9606 33.0193C35.3643 33.1285 35.7856 33.1559 36.2 33.1C36.3693 33.0821 36.5367 33.0486 36.7 33C36.8385 33.1768 36.9961 33.3378 37.17 33.48C36.8804 34.0358 36.7295 34.6533 36.73 35.28C36.7395 35.8799 36.8902 36.4692 37.17 37C36.8609 37.2905 36.6315 37.6553 36.5037 38.0598C36.3759 38.4642 36.3539 38.8946 36.44 39.31C36.4798 39.5281 36.4599 39.7528 36.3824 39.9606C36.305 40.1683 36.1728 40.3512 36 40.49C35.4804 40.9074 35.0704 41.4452 34.8056 42.0569C34.5407 42.6685 34.4289 43.3354 34.48 44C34.2699 44.4687 34.1609 44.9764 34.16 45.49C34.1606 46.1263 34.3189 46.7526 34.6208 47.3128C34.9227 47.873 35.3588 48.3496 35.89 48.7L35.66 48.86C34.9676 49.3461 34.4668 50.0589 34.244 50.875C34.0212 51.6912 34.0906 52.5595 34.44 53.33C34.2586 53.6792 34.1627 54.0665 34.16 54.46C34.1679 55.1364 34.4421 55.7824 34.9232 56.2579C35.4043 56.7334 36.0535 57 36.73 57H36.78C37.1185 57.4001 37.5516 57.7095 38.04 57.9C37.9844 58.2618 38.0152 58.6316 38.1299 58.9792C38.2446 59.3268 38.44 59.6423 38.7 59.9C38.9289 60.1751 39.2124 60.3998 39.5325 60.5599C39.8527 60.7199 40.2025 60.8119 40.56 60.83C41.1716 60.8327 41.7639 60.6164 42.2298 60.2202C42.6957 59.824 43.0044 59.2741 43.1 58.67H43.21C43.8272 58.6662 44.4282 58.4721 44.9311 58.1142C45.434 57.7562 45.8142 57.2519 46.02 56.67H46.18C46.8162 56.6585 47.4323 56.4449 47.9393 56.0603C48.4462 55.6756 48.8176 55.1397 49 54.53C49.4493 54.6467 49.9221 54.6375 50.3666 54.5035C50.8111 54.3694 51.2101 54.1157 51.52 53.77C52.0693 53.3202 52.4186 52.6715 52.4917 51.9653C52.5647 51.2591 52.3556 50.5527 51.91 50C51.7407 49.7922 51.5419 49.6103 51.32 49.46L51.35 49.45Z" fill="#333333"/>
<path d="M5.58991 42.61C5.60019 42.2076 5.73169 41.8176 5.9672 41.4911C6.20271 41.1646 6.53127 40.9168 6.90991 40.78C6.73184 40.6309 6.58506 40.4479 6.47803 40.2417C6.371 40.0356 6.30585 39.8102 6.28633 39.5788C6.26681 39.3473 6.2933 39.1142 6.36428 38.893C6.43527 38.6719 6.54934 38.4669 6.69991 38.29C6.97028 37.963 7.3508 37.7461 7.76991 37.68C7.65893 37.4103 7.6012 37.1217 7.59991 36.83C7.60099 36.3458 7.75964 35.8751 8.05191 35.489C8.34417 35.1029 8.75416 34.8225 9.21991 34.69C9.28254 34.3997 9.41564 34.1293 9.60748 33.9026C9.79931 33.6759 10.044 33.4998 10.3199 33.39C10.2136 33.1154 10.1561 32.8244 10.1499 32.53C10.1513 31.9257 10.3797 31.3439 10.7899 30.9L9.78991 29.9C9.49503 30.1236 9.25584 30.4123 9.09104 30.7437C8.92624 31.075 8.84029 31.44 8.83991 31.81C8.84112 32.1082 8.8988 32.4034 9.00991 32.68C8.76281 32.8124 8.55005 33.0007 8.38859 33.2299C8.22713 33.4591 8.12143 33.7228 8.07991 34C7.60772 34.0053 7.1565 34.1958 6.82353 34.5307C6.49056 34.8655 6.30251 35.3178 6.29991 35.79C6.30084 36.0327 6.35196 36.2726 6.45005 36.4946C6.54814 36.7166 6.69109 36.9159 6.86991 37.08H6.68991C6.30563 37.0818 5.93224 37.2079 5.62556 37.4395C5.31889 37.6711 5.09539 37.9957 4.98848 38.3648C4.88157 38.7339 4.89699 39.1277 5.03243 39.4874C5.16788 39.847 5.41607 40.1531 5.73991 40.36C5.44655 40.6913 5.28313 41.1176 5.27991 41.56C5.27172 41.9337 5.38006 42.3007 5.58991 42.61Z" fill="#3C3C41"/>
<path d="M6.61 51.21C6.61016 50.8598 6.71367 50.5173 6.90756 50.2256C7.10145 49.9339 7.37711 49.7058 7.7 49.57C7.27072 49.2595 6.98223 48.7912 6.89786 48.2681C6.81349 47.745 6.94014 47.2098 7.25 46.78C7.46773 46.4777 7.76559 46.2422 8.11 46.1C7.96902 45.786 7.90065 45.4442 7.91 45.1C7.91 44.4582 8.16496 43.8427 8.6188 43.3888C9.07264 42.935 9.68818 42.68 10.33 42.68C10.4659 42.6601 10.6041 42.6601 10.74 42.68C10.5156 42.4028 10.2322 42.1791 9.91045 42.0251C9.5887 41.8712 9.23668 41.7908 8.88 41.79C8.23818 41.79 7.62264 42.045 7.1688 42.4988C6.71496 42.9527 6.46 43.5682 6.46 44.21C6.4595 44.6632 6.58782 45.1071 6.83 45.49C6.4141 45.5431 6.02539 45.7255 5.7188 46.0115C5.4122 46.2974 5.20324 46.6726 5.12144 47.0838C5.03964 47.495 5.08914 47.9215 5.26294 48.303C5.43675 48.6846 5.72606 49.0019 6.09 49.21C5.78304 49.5604 5.62751 50.0182 5.6575 50.4831C5.68749 50.948 5.90056 51.382 6.25 51.69C6.42945 51.857 6.64506 51.9802 6.88 52.05C6.72054 51.7973 6.62765 51.5083 6.61 51.21Z" fill="#3C3C41"/>
<path d="M36.2701 26.53C34.9101 26.31 30.0301 25.69 28.9001 28.24C28.4962 28.0714 28.0628 27.9846 27.6251 27.9846C27.1874 27.9846 26.754 28.0714 26.3501 28.24C25.2201 25.7 20.3501 26.37 18.9801 26.54C18.086 26.6495 17.2654 27.0903 16.6804 27.7753C16.0954 28.4603 15.7884 29.3397 15.8201 30.24C15.8801 32.67 17.4501 35.24 19.7501 35.4C21.4168 35.5384 23.0703 35.0095 24.3472 33.9294C25.6241 32.8494 26.4201 31.3066 26.5601 29.64C26.8802 29.4373 27.2512 29.3297 27.6301 29.3297C28.009 29.3297 28.38 29.4373 28.7001 29.64C28.767 30.4647 28.9957 31.2682 29.3731 32.0046C29.7506 32.7409 30.2694 33.3957 30.8999 33.9315C31.5304 34.4673 32.2603 34.8736 33.0479 35.1273C33.8355 35.381 34.6654 35.4771 35.4901 35.41C37.7901 35.27 39.3601 32.67 39.4201 30.25C39.4436 29.3513 39.1354 28.4754 38.5545 27.7893C37.9735 27.1032 37.1604 26.655 36.2701 26.53Z" fill="#333333"/>
<path d="M21.1001 27.41C20.8021 27.3987 20.5038 27.4189 20.2101 27.47L17.6001 32.7C17.7426 32.9528 17.9101 33.1907 18.1001 33.41L21.1001 27.41Z" fill="#444444"/>
<path d="M21.6501 34.15L24.6501 27.96C23.8546 27.5899 22.9876 27.3987 22.1101 27.4L18.8901 34C18.8901 34 19.6801 34.62 21.6501 34.15Z" fill="#444444"/>
<path d="M33.7899 27.38H32.9299L30.6299 32C30.783 32.2414 30.957 32.469 31.1499 32.68L33.7899 27.38Z" fill="#444444"/>
<path d="M34.8701 27.44L31.8701 33.38C32.5707 33.8751 33.3869 34.1816 34.2401 34.27L37.3301 28.09C36.5913 27.6375 35.736 27.4115 34.8701 27.44Z" fill="#444444"/>
<path d="M35.6001 45.83L27.6301 54.49L19.6001 45.83" stroke="#333333" stroke-linecap="square" stroke-linejoin="round"/>
<path d="M23.3801 62.71L15.6401 45.52" stroke="#333333" stroke-width="1.5" stroke-linejoin="round"/>
<path d="M30.3299 54.5C30.3299 54.3806 30.2825 54.2662 30.1981 54.1818C30.1137 54.0974 29.9993 54.05 29.8799 54.05C29.7606 54.05 29.6461 54.0974 29.5617 54.1818C29.4773 54.2662 29.4299 54.3806 29.4299 54.5C29.4 54.5943 29.4 54.6956 29.4299 54.79L25.1599 59.1C25.0938 59.0474 25.0143 59.0146 24.9303 59.0051C24.8464 58.9956 24.7615 59.01 24.6854 59.0465C24.6092 59.083 24.5449 59.1402 24.4997 59.2116C24.4545 59.2829 24.4304 59.3655 24.4299 59.45C24.4317 59.5621 24.4743 59.6697 24.5498 59.7525C24.6253 59.8354 24.7285 59.8878 24.8399 59.9V60C24.8399 60.1246 24.8894 60.2442 24.9776 60.3323C25.0657 60.4205 25.1853 60.47 25.3099 60.47C25.4425 60.47 25.5697 60.4173 25.6635 60.3235C25.7573 60.2298 25.8099 60.1026 25.8099 59.97C25.8075 59.848 25.7614 59.7309 25.6799 59.64L29.9999 55.37C30.0436 55.4124 30.0953 55.4458 30.1519 55.4681C30.2085 55.4904 30.2691 55.5012 30.3299 55.5C30.4625 55.5 30.5897 55.4473 30.6835 55.3535C30.7773 55.2598 30.8299 55.1326 30.8299 55C30.8299 54.8674 30.7773 54.7402 30.6835 54.6464C30.5897 54.5527 30.4625 54.5 30.3299 54.5Z" fill="#EEEEEE"/>
<path d="M30.3299 59.06C30.2323 59.0673 30.1387 59.1019 30.0599 59.16L25.7399 54.81C25.7991 54.7287 25.8306 54.6306 25.8299 54.53C25.8299 54.4107 25.7825 54.2962 25.6981 54.2118C25.6137 54.1274 25.4992 54.08 25.3799 54.08C25.2689 54.082 25.1626 54.125 25.0813 54.2007C25.0001 54.2764 24.9497 54.3794 24.9399 54.49H24.8799C24.7489 54.495 24.6245 54.5492 24.5318 54.6419C24.4391 54.7347 24.3848 54.859 24.3799 54.99C24.3799 55.1226 24.4326 55.2498 24.5263 55.3436C24.6201 55.4373 24.7473 55.49 24.8799 55.49C24.9426 55.4945 25.0056 55.4852 25.0643 55.4628C25.1231 55.4403 25.1762 55.4052 25.2199 55.36L29.5199 59.68C29.4486 59.751 29.3999 59.8414 29.3799 59.94C29.3799 60.0726 29.4326 60.1998 29.5263 60.2936C29.6201 60.3873 29.7473 60.44 29.8799 60.44C30.0125 60.44 30.1397 60.3873 30.2334 60.2936C30.3272 60.1998 30.3799 60.0726 30.3799 59.94C30.4878 59.9302 30.5883 59.8809 30.6621 59.8015C30.7359 59.7222 30.7779 59.6184 30.7799 59.51C30.7799 59.3907 30.7325 59.2762 30.6481 59.1918C30.5637 59.1074 30.4492 59.06 30.3299 59.06Z" fill="#EEEEEE"/>
<path d="M28.8801 58.74V59.49H28.3801V59H27.8801V59.5H27.3801V59H26.8801V59.5H26.3801V58.75C25.5201 58.18 25.6301 58.45 25.6301 57C25.6301 56.4696 25.8408 55.9609 26.2158 55.5858C26.5909 55.2107 27.0996 55 27.6301 55C28.1605 55 28.6692 55.2107 29.0443 55.5858C29.4193 55.9609 29.6301 56.4696 29.6301 57C29.6201 58.41 29.7701 58.15 28.8801 58.74Z" fill="white"/>
<path d="M28.6299 57.99C28.906 57.99 29.1299 57.7661 29.1299 57.49C29.1299 57.2138 28.906 56.99 28.6299 56.99C28.3537 56.99 28.1299 57.2138 28.1299 57.49C28.1299 57.7661 28.3537 57.99 28.6299 57.99Z" fill="#666666"/>
<path d="M26.6299 57.99C26.906 57.99 27.1299 57.7661 27.1299 57.49C27.1299 57.2138 26.906 56.99 26.6299 56.99C26.3537 56.99 26.1299 57.2138 26.1299 57.49C26.1299 57.7661 26.3537 57.99 26.6299 57.99Z" fill="#666666"/>
<path d="M27.6201 58C27.4901 58 27.3701 58.23 27.3701 58.5H27.8701C27.8801 58.22 27.7701 58 27.6201 58Z" fill="#666666"/>
<path d="M9.32999 19.68C9.20274 19.6786 9.07723 19.6503 8.96174 19.5968C8.84625 19.5434 8.7434 19.4661 8.65999 19.37C8.58276 19.2815 8.52381 19.1786 8.48651 19.0673C8.44922 18.956 8.43433 18.8383 8.44269 18.7212C8.45106 18.6041 8.48252 18.4898 8.53526 18.3849C8.588 18.28 8.66097 18.1865 8.74999 18.11C10.06 16.97 12.07 16.38 14.75 16.38C15.5906 16.3797 16.4288 16.4702 17.25 16.65C20.7177 17.3573 24.2511 17.6926 27.79 17.65C31.3157 17.693 34.8358 17.3577 38.29 16.65C39.121 16.4672 39.9691 16.3733 40.82 16.37C42.886 16.3409 44.9167 16.9067 46.67 18C46.8476 18.1405 46.9656 18.3429 47.0006 18.5666C47.0356 18.7904 46.9849 19.0191 46.8587 19.2072C46.7325 19.3953 46.54 19.5288 46.3197 19.5812C46.0994 19.6336 45.8674 19.601 45.67 19.49C44.2013 18.575 42.5001 18.1028 40.77 18.13C40.0503 18.1263 39.3325 18.2034 38.63 18.36C35.0481 19.1009 31.3976 19.4595 27.74 19.43C24.0719 19.4611 20.411 19.099 16.82 18.35C16.123 18.2021 15.4124 18.1284 14.7 18.13C12.53 18.13 10.86 18.57 9.89999 19.42C9.74531 19.5693 9.54413 19.661 9.32999 19.68Z" fill="#444445"/>
<path d="M27.64 40.86C30.32 40.86 30.71 39.95 31.89 39.17C31.8979 39.1563 31.9021 39.1408 31.9021 39.125C31.9021 39.1092 31.8979 39.0937 31.89 39.08C31.8849 39.0646 31.8756 39.0509 31.8633 39.0404C31.851 39.0298 31.836 39.0228 31.82 39.02C30 38.86 30 38.29 29 38.13C28.7587 38.0968 28.5131 38.1143 28.2789 38.1814C28.0447 38.2486 27.8271 38.3639 27.64 38.52C27.453 38.3639 27.2354 38.2486 27.0012 38.1814C26.767 38.1143 26.5214 38.0968 26.28 38.13C25.28 38.29 25.28 38.86 23.43 39.02C23.4147 39.0244 23.4005 39.032 23.3885 39.0423C23.3764 39.0527 23.3667 39.0655 23.36 39.08C23.351 39.0933 23.3462 39.109 23.3462 39.125C23.3462 39.1411 23.351 39.1567 23.36 39.17C24.57 40 25 40.86 27.64 40.86Z" fill="#C69377"/>
<path d="M31.6701 39.31C30.9847 39.4847 30.2747 39.5422 29.5701 39.48C29.2301 39.48 28.9001 39.48 28.5701 39.48C28.4239 39.4643 28.2764 39.4643 28.1301 39.48H27.9301C27.8087 39.5105 27.6849 39.5306 27.5601 39.54C27.4624 39.5486 27.3652 39.519 27.2887 39.4575C27.2123 39.396 27.1627 39.3073 27.1501 39.21C27.1446 39.1601 27.149 39.1095 27.1631 39.0613C27.1773 39.013 27.2008 38.9681 27.2325 38.929C27.2641 38.89 27.3031 38.8576 27.3474 38.8337C27.3916 38.8098 27.4401 38.795 27.4901 38.79H27.7301C27.7845 38.7811 27.8402 38.7841 27.8932 38.7989C27.9463 38.8136 27.9956 38.8397 28.0376 38.8754C28.0796 38.9111 28.1133 38.9554 28.1364 39.0055C28.1596 39.0555 28.1716 39.1099 28.1716 39.165C28.1716 39.2201 28.1596 39.2745 28.1364 39.3246C28.1133 39.3746 28.0796 39.4189 28.0376 39.4546C27.9956 39.4903 27.9463 39.5164 27.8932 39.5311C27.8402 39.5459 27.7845 39.5489 27.7301 39.54H27.3601L27.1601 39.49H26.7201C26.4001 39.49 26.0701 39.49 25.7201 39.49C25.0156 39.5576 24.3046 39.5001 23.6201 39.32C23.5783 39.3076 23.5429 39.2796 23.5212 39.2418C23.4994 39.204 23.4931 39.1594 23.5033 39.117C23.5136 39.0746 23.5397 39.0378 23.5764 39.0142C23.613 38.9906 23.6573 38.9819 23.7001 38.99C24.3521 39.0421 25.0081 39.0051 25.6501 38.88C25.9901 38.88 26.3301 38.78 26.6501 38.76C26.8396 38.7404 27.0306 38.7404 27.2201 38.76C27.3214 38.7775 27.4216 38.8009 27.5201 38.83H27.6601V39.58H27.5401V38.83H27.6801L27.9801 38.77C28.1698 38.7552 28.3604 38.7552 28.5501 38.77C28.9101 38.77 29.2501 38.83 29.5501 38.87C30.2085 38.999 30.8816 39.036 31.5501 38.98C31.5725 38.9757 31.5955 38.9759 31.6177 38.9807C31.64 38.9854 31.6611 38.9946 31.6798 39.0077C31.6984 39.0207 31.7143 39.0374 31.7263 39.0567C31.7384 39.076 31.7465 39.0975 31.7501 39.12C31.7594 39.1561 31.7567 39.1942 31.7422 39.2285C31.7278 39.2628 31.7024 39.2915 31.6701 39.31Z" fill="#674848"/>
<path d="M25.6 36C25.5433 36.1732 25.4403 36.3275 25.3023 36.4464C25.1642 36.5654 24.9963 36.6443 24.8166 36.6747C24.637 36.7051 24.4524 36.6859 24.2829 36.6191C24.1134 36.5522 23.9653 36.4404 23.8548 36.2955C23.7442 36.1507 23.6753 35.9784 23.6556 35.7973C23.6358 35.6161 23.6659 35.433 23.7426 35.2677C23.8193 35.1025 23.9397 34.9613 24.0908 34.8595C24.2419 34.7576 24.418 34.699 24.6 34.69C24.7829 34.6882 24.9627 34.7367 25.12 34.83" stroke="white" stroke-width="0.5" stroke-miterlimit="10" stroke-linecap="round"/>
<path d="M24.5899 36.97C24.6948 36.97 24.7799 36.8849 24.7799 36.78C24.7799 36.675 24.6948 36.59 24.5899 36.59C24.485 36.59 24.3999 36.675 24.3999 36.78C24.3999 36.8849 24.485 36.97 24.5899 36.97Z" stroke="white" stroke-width="0.5" stroke-miterlimit="10" stroke-linecap="round"/>
<path d="M24.67 35.45C24.79 35.93 25.35 35.55 26.11 35.65C26.4213 35.7444 26.7175 35.8824 26.99 36.06C27.1852 36.18 27.4031 36.2583 27.63 36.29C27.8545 36.2551 28.0692 36.1733 28.26 36.05C28.5346 35.8721 28.8347 35.7372 29.15 35.65C29.92 35.56 30.46 35.92 30.59 35.45C30.5958 35.4283 30.6059 35.4079 30.6196 35.3901C30.6333 35.3722 30.6504 35.3573 30.67 35.3461C30.6895 35.335 30.711 35.3278 30.7334 35.325C30.7557 35.3223 30.7784 35.324 30.8 35.33C30.8408 35.3374 30.8771 35.3602 30.9013 35.3938C30.9256 35.4273 30.9359 35.469 30.93 35.51C30.9228 35.6115 30.8941 35.7104 30.8458 35.8C30.7975 35.8897 30.7308 35.968 30.65 36.03C30.4891 36.134 30.3016 36.1895 30.11 36.19C29.8419 36.1789 29.5735 36.199 29.31 36.25C28.89 36.37 28.5 36.98 27.63 37.04C27.2657 37.0105 26.9181 36.8749 26.63 36.65C26.4196 36.488 26.1915 36.3504 25.95 36.24C25.6855 36.1983 25.4177 36.1815 25.15 36.19C24.9584 36.1895 24.771 36.134 24.61 36.03C24.4521 35.9001 24.3516 35.7133 24.33 35.51C24.3221 35.4649 24.3323 35.4185 24.3586 35.381C24.3849 35.3435 24.4249 35.318 24.47 35.31C24.5151 35.302 24.5615 35.3123 24.599 35.3386C24.6365 35.3648 24.6621 35.4049 24.67 35.45Z" fill="#674848"/>
<path d="M30.4799 13.89H30.4099L30.4799 13.83C30.6863 13.6189 30.8019 13.3353 30.8019 13.04C30.8019 12.7447 30.6863 12.4612 30.4799 12.25C30.2704 12.0442 29.9885 11.9289 29.6949 11.9289C29.4012 11.9289 29.1193 12.0442 28.9099 12.25V12.31C28.9099 12.31 28.9099 12.23 28.9099 12.21C28.8836 11.9325 28.7547 11.6748 28.5485 11.4872C28.3424 11.2997 28.0736 11.1957 27.7949 11.1957C27.5161 11.1957 27.2474 11.2997 27.0412 11.4872C26.835 11.6748 26.7062 11.9325 26.6799 12.21C26.6799 12.21 26.6799 12.28 26.6799 12.31V12.25C26.469 12.0272 26.1783 11.8973 25.8717 11.8889C25.5651 11.8805 25.2677 11.9942 25.0449 12.205C24.8221 12.4159 24.6922 12.7066 24.6838 13.0132C24.6753 13.3198 24.789 13.6172 24.9999 13.84L25.0699 13.9H24.9999C24.8446 13.8853 24.6879 13.9032 24.5399 13.9525C24.392 14.0019 24.2559 14.0816 24.1405 14.1865C24.0251 14.2915 23.9329 14.4194 23.8698 14.5621C23.8068 14.7048 23.7742 14.859 23.7742 15.015C23.7742 15.171 23.8068 15.3253 23.8698 15.468C23.9329 15.6106 24.0251 15.7386 24.1405 15.8435C24.2559 15.9485 24.392 16.0282 24.5399 16.0775C24.6879 16.1269 24.8446 16.1448 24.9999 16.13C25.6598 16.0793 26.3027 15.8956 26.8899 15.59C26.9858 15.7332 27.1151 15.8508 27.2667 15.9327C27.4183 16.0146 27.5876 16.0583 27.7599 16.06C27.926 16.0577 28.0893 16.0167 28.2368 15.9404C28.3844 15.864 28.5121 15.7543 28.6099 15.62C29.1866 15.9019 29.8104 16.0748 30.4499 16.13C30.6052 16.1448 30.7618 16.1269 30.9098 16.0775C31.0578 16.0282 31.1939 15.9485 31.3093 15.8435C31.4246 15.7386 31.5168 15.6106 31.5799 15.468C31.643 15.3253 31.6756 15.171 31.6756 15.015C31.6756 14.859 31.643 14.7048 31.5799 14.5621C31.5168 14.4194 31.4246 14.2915 31.3093 14.1865C31.1939 14.0816 31.0578 14.0019 30.9098 13.9525C30.7618 13.9032 30.6052 13.8853 30.4499 13.9L30.4799 13.89ZM29.3699 12.72C29.4585 12.6385 29.5745 12.5933 29.6949 12.5933C29.8153 12.5933 29.9313 12.6385 30.0199 12.72C30.1066 12.808 30.1552 12.9265 30.1552 13.05C30.1552 13.1735 30.1066 13.2921 30.0199 13.38C29.5927 13.7509 29.0917 14.027 28.5499 14.19C28.7225 13.6503 29.0013 13.1505 29.3699 12.72ZM27.7499 11.72C27.8728 11.72 27.9909 11.7681 28.0787 11.8541C28.1666 11.9401 28.2173 12.0571 28.2199 12.18C28.1775 12.7468 28.0174 13.2986 27.7499 13.8C27.4858 13.2978 27.3292 12.7461 27.2899 12.18C27.3021 12.0659 27.3556 11.9602 27.4403 11.8829C27.525 11.8055 27.6352 11.7618 27.7499 11.76V11.72ZM25.4899 12.72C25.5756 12.6368 25.6904 12.5901 25.8099 12.59C25.9323 12.5906 26.05 12.637 26.1399 12.72C26.5228 13.147 26.8153 13.647 26.9999 14.19C26.4569 14.0299 25.9553 13.7535 25.5299 13.38C25.4376 13.2975 25.3817 13.1818 25.3742 13.0583C25.3667 12.9347 25.4083 12.8131 25.4899 12.72ZM24.9999 15.47C24.9331 15.4798 24.865 15.4752 24.8002 15.4563C24.7354 15.4374 24.6754 15.4048 24.6243 15.3607C24.5732 15.3166 24.5322 15.262 24.5041 15.2006C24.476 15.1392 24.4615 15.0725 24.4615 15.005C24.4615 14.9375 24.476 14.8708 24.5041 14.8094C24.5322 14.7481 24.5732 14.6935 24.6243 14.6493C24.6754 14.6052 24.7354 14.5726 24.8002 14.5538C24.865 14.5349 24.9331 14.5302 24.9999 14.54C25.5633 14.5838 26.1114 14.7438 26.6099 15.01C26.1107 15.2728 25.5625 15.4294 24.9999 15.47ZM30.4499 15.47C29.8963 15.4248 29.3582 15.2647 28.8699 15C29.3673 14.7313 29.916 14.5712 30.4799 14.53C30.5915 14.5464 30.6935 14.6024 30.7672 14.6878C30.8409 14.7732 30.8815 14.8822 30.8815 14.995C30.8815 15.1078 30.8409 15.2169 30.7672 15.3022C30.6935 15.3876 30.5915 15.4436 30.4799 15.46L30.4499 15.47Z" fill="#666666"/>
</svg>
