<svg width="56" height="51" viewBox="0 0 56 51" fill="none" xmlns="http://www.w3.org/2000/svg">
<path d="M54.03 41.0013C53.53 38.5913 51.91 37.0963 49.53 36.5013C48.195 36.1663 44.815 35.3463 41.03 34.5013C32.4731 32.551 23.5869 32.551 15.03 34.5013C11.38 35.3463 7.995 36.1413 6.53 36.5013C4.145 37.0913 2 39.1163 1.5 41.5263L1 44.0263C1.135 44.1113 12.76 48.9963 28.06 48.9963C43.155 48.9963 54.885 44.0713 55.03 43.9513L54.03 41.0013Z" fill="#707756"/>
<path d="M55.03 43.9513C54.53 41.5413 51.91 39.5913 49.53 38.9963C48.195 38.6613 44.815 37.8413 41.03 36.9963C32.4731 35.046 23.5869 35.046 15.03 36.9963C11.38 37.8413 7.995 38.6363 6.53 38.9963C4.145 39.5913 1.5 41.6163 1 44.0263C1.135 44.1113 12.76 48.9963 28.06 48.9963C43.155 49.0013 54.885 44.0713 55.03 43.9513Z" fill="#595E49"/>
<path d="M20.53 31.8463C22.34 36.0613 26.115 38.3963 28 39.7413C30.095 38.2413 33.79 35.9113 35.535 31.6913V29.5013H20.535L20.53 31.8463Z" fill="#EDCCC3"/>
<path d="M20.53 30.5013C23.53 33.0013 25.34 34.3113 26.03 35.0013C27.03 36.0263 27.92 38.2263 28.03 39.7313C30.13 38.2313 33.8 35.8963 35.53 31.6963V29.5013H20.53V30.5013Z" fill="#E5C2BA"/>
<path d="M20.53 29.4963V32.9963" stroke="#333333" stroke-width="3" stroke-linejoin="round"/>
<path d="M35.53 29.4963L35.525 32.9963" stroke="#333333" stroke-width="3" stroke-linejoin="round"/>
<path d="M30 39.0013L28 40.0013L30 41.0313L33.59 47.3063C33.6366 47.3933 33.7032 47.4678 33.7843 47.5238C33.8655 47.5798 33.9588 47.6157 34.0566 47.6284C34.1544 47.6411 34.2538 47.6303 34.3465 47.5969C34.4393 47.5635 34.5228 47.5085 34.59 47.4363L36.03 46.0013L30 39.0013Z" fill="#484C38"/>
<path d="M26.035 39.0013L28.035 40.0013L26.035 41.0313L22.44 47.3063C22.3935 47.3933 22.3268 47.4678 22.2457 47.5238C22.1646 47.5798 22.0712 47.6157 21.9734 47.6284C21.8757 47.6411 21.7763 47.6303 21.6835 47.5969C21.5907 47.5635 21.5073 47.5085 21.44 47.4363L20.03 46.0013L26.035 39.0013Z" fill="#484C38"/>
<path d="M28.03 43.0013C28.5823 43.0013 29.03 42.5536 29.03 42.0013C29.03 41.4491 28.5823 41.0013 28.03 41.0013C27.4777 41.0013 27.03 41.4491 27.03 42.0013C27.03 42.5536 27.4777 43.0013 28.03 43.0013Z" fill="#FFCA76" stroke="#333333" stroke-width="0.8" stroke-linecap="round"/>
<path d="M28.03 48.0013C28.5823 48.0013 29.03 47.5536 29.03 47.0013C29.03 46.4491 28.5823 46.0013 28.03 46.0013C27.4777 46.0013 27.03 46.4491 27.03 47.0013C27.03 47.5536 27.4777 48.0013 28.03 48.0013Z" fill="#FFCA76" stroke="#333333" stroke-width="0.8" stroke-linecap="round"/>
<path d="M25.03 40.0013V49.0013" stroke="#454935" stroke-width="2" stroke-linecap="round" stroke-linejoin="round"/>
<path d="M28.03 33.0013C29.29 33.0013 32.835 33.3363 34.425 31.1813C36.66 28.1813 38.03 29.3963 38.03 23.0013C39.825 22.9113 40.785 21.6563 41.03 20.0013C41.91 14.0363 39.135 14.9563 39.03 15.0013C39.03 15.0013 38.995 12.3713 38.995 11.0713C39.035 6.92634 36.205 1.00134 28.03 1.00134C19.855 1.00134 17 6.92634 17.06 11.0763C17.06 12.3763 17.03 15.0063 17.03 15.0063C16.48 14.7763 14.25 14.7263 15.03 20.0063C15.275 21.6613 16.23 22.9163 18.03 23.0063C18.03 29.4013 19.395 28.1763 21.63 31.1863C23.22 33.3413 26.77 33.0013 28.03 33.0013Z" fill="#EDCCC3"/>
<path d="M39.03 15.0013C39.03 15.0013 39 12.3763 39 11.0763C39.035 6.92634 36.205 1.00134 28.03 1.00134C27.585 1.00134 27.165 1.02634 26.75 1.06134C24.79 8.82634 23.47 17.1163 23.575 23.6513C23.575 25.8713 23.795 29.2663 24.11 32.7313C25.3975 33.0046 26.7169 33.0972 28.03 33.0063C29.29 33.0063 32.835 33.3413 34.425 31.1863C36.66 28.1863 38.03 29.4013 38.03 23.0063C39.825 22.9163 40.78 21.6613 41.03 20.0063C41.91 14.0413 39.135 14.9613 39.03 15.0013Z" fill="#E5C2BA"/>
<path d="M28.1265 24.8647C27.9939 24.8647 27.8667 24.812 27.7729 24.7182C27.6791 24.6245 27.6265 24.4973 27.6265 24.3647V23.6647C27.6265 23.5321 27.6791 23.4049 27.7729 23.3111C27.8667 23.2174 27.9939 23.1647 28.1265 23.1647C28.2591 23.1647 28.3862 23.2174 28.48 23.3111C28.5738 23.4049 28.6265 23.5321 28.6265 23.6647V24.3647C28.6265 24.4973 28.5738 24.6245 28.48 24.7182C28.3862 24.812 28.2591 24.8647 28.1265 24.8647Z" fill="#D8B3AD"/>
<path d="M28.0659 23.5038C27.569 23.4918 27.0867 23.3338 26.6792 23.0494C26.531 22.9126 26.3439 22.8253 26.1438 22.7997C25.9438 22.7742 25.7407 22.8116 25.563 22.9068C25.4678 22.9512 25.359 22.9559 25.2604 22.92C25.1618 22.8842 25.0814 22.8106 25.0371 22.7154C24.9927 22.6203 24.988 22.5115 25.0239 22.4129C25.0597 22.3142 25.1333 22.2339 25.2285 22.1896C25.5233 22.0399 25.8548 21.9775 26.1839 22.0096C26.513 22.0417 26.8261 22.1671 27.0864 22.371C27.3649 22.5922 27.7101 22.7126 28.0658 22.7128C28.4214 22.7129 28.7667 22.5927 29.0454 22.3717C29.3073 22.1675 29.6217 22.042 29.9522 22.0097C30.2827 21.9773 30.6156 22.0396 30.9121 22.1891C31.0064 22.2337 31.0792 22.3137 31.1148 22.4118C31.1504 22.5099 31.1458 22.618 31.102 22.7127C31.0583 22.8074 30.9788 22.881 30.8811 22.9175C30.7833 22.9539 30.6751 22.9503 30.5801 22.9073C30.4003 22.8115 30.1952 22.7738 29.993 22.7995C29.7909 22.8251 29.6017 22.9129 29.4516 23.0506C29.0441 23.3342 28.5622 23.4918 28.0659 23.5038Z" fill="#B58985"/>
<path d="M25.7267 17.2047C25.2467 17.0847 24.7867 16.9547 24.3267 16.8547C23.8799 16.7434 23.4252 16.6665 22.9667 16.6247C22.5231 16.5205 22.0715 16.4536 21.6167 16.4247C21.1792 16.4056 20.7427 16.4806 20.3367 16.6447C20.2821 16.672 20.219 16.6765 20.1611 16.6572C20.1032 16.6379 20.0554 16.5964 20.0281 16.5418C20.0238 16.533 20.0199 16.524 20.0167 16.5147C19.999 16.4688 19.9953 16.4187 20.006 16.3707C20.0166 16.3226 20.0412 16.2788 20.0767 16.2447C20.5041 15.895 21.0197 15.6701 21.5667 15.5947C22.0899 15.5099 22.6234 15.5099 23.1467 15.5947C23.6578 15.6834 24.1553 15.838 24.6267 16.0547C25.0868 16.2636 25.5284 16.5112 25.9467 16.7947C25.9728 16.8123 25.9953 16.8349 26.0127 16.8612C26.0301 16.8875 26.0422 16.9169 26.0482 16.9478C26.0542 16.9788 26.0541 17.0106 26.0479 17.0415C26.0416 17.0724 26.0293 17.1017 26.0117 17.1279L26.0069 17.1347C25.9742 17.1752 25.9291 17.204 25.8785 17.2166C25.828 17.2292 25.7747 17.2251 25.7267 17.2047Z" fill="#333333"/>
<path d="M23.5367 18.3046C23.9509 18.3046 24.2867 17.9688 24.2867 17.5546C24.2867 17.1404 23.9509 16.8046 23.5367 16.8046C23.1225 16.8046 22.7867 17.1404 22.7867 17.5546C22.7867 17.9688 23.1225 18.3046 23.5367 18.3046Z" fill="#3A3A3A"/>
<path d="M30.4267 16.7648C30.845 16.4812 31.2866 16.2337 31.7467 16.0248C32.2212 15.8073 32.7221 15.6526 33.2367 15.5648C33.7566 15.4802 34.2868 15.4802 34.8067 15.5648C35.3537 15.6402 35.8693 15.8651 36.2967 16.2148C36.3418 16.2597 36.3672 16.3207 36.3673 16.3843C36.3674 16.448 36.3422 16.5091 36.2973 16.5542L36.2967 16.5548C36.2618 16.5922 36.2162 16.6181 36.1661 16.6288C36.1161 16.6395 36.0639 16.6346 36.0167 16.6148C35.6112 16.4488 35.1743 16.3737 34.7367 16.3948C34.282 16.4243 33.8304 16.4912 33.3867 16.5948C32.9282 16.6373 32.4736 16.7141 32.0267 16.8248C31.5667 16.9248 31.1067 17.0548 30.6267 17.1748C30.5644 17.1904 30.4985 17.1814 30.4427 17.1498C30.3868 17.1181 30.3453 17.0662 30.3267 17.0048C30.3218 16.9596 30.3284 16.9139 30.3459 16.8719C30.3634 16.83 30.3912 16.7931 30.4267 16.7648Z" fill="#333333"/>
<path d="M32.8167 18.3046C33.2309 18.3046 33.5667 17.9688 33.5667 17.5546C33.5667 17.1404 33.2309 16.8046 32.8167 16.8046C32.4024 16.8046 32.0667 17.1404 32.0667 17.5546C32.0667 17.9688 32.4024 18.3046 32.8167 18.3046Z" fill="#3A3A3A"/>
<path d="M29.1767 25.3347C28.8367 25.3347 28.5267 25.5447 28.1767 25.5547C27.8267 25.5647 27.9167 25.4447 27.3067 25.3347C26.2267 25.1347 25.0867 26.4347 24.3067 26.6447L25.4667 27.6447C25.9822 28.1071 26.6445 28.3727 27.3367 28.3947H28.6267C29.455 28.385 30.2607 28.1234 30.9367 27.6447L32.0267 26.6447C30.4467 26.1147 30.4467 25.1947 29.1767 25.3347Z" fill="#D8B3AD"/>
<path d="M24.3467 27.6397C24.2472 27.6397 24.1518 27.6002 24.0815 27.5298C24.0112 27.4595 23.9717 27.3641 23.9717 27.2647V26.4247C23.9717 26.3252 24.0112 26.2298 24.0815 26.1595C24.1518 26.0892 24.2472 26.0497 24.3467 26.0497C24.4461 26.0497 24.5415 26.0892 24.6118 26.1595C24.6822 26.2298 24.7217 26.3252 24.7217 26.4247V27.2647C24.7217 27.3641 24.6822 27.4595 24.6118 27.5298C24.5415 27.6002 24.4461 27.6397 24.3467 27.6397Z" fill="#D8B3AD"/>
<path d="M31.8467 27.6397C31.7472 27.6397 31.6518 27.6002 31.5815 27.5298C31.5112 27.4595 31.4717 27.3641 31.4717 27.2647V26.4247C31.4717 26.3252 31.5112 26.2298 31.5815 26.1595C31.6518 26.0892 31.7472 26.0497 31.8467 26.0497C31.9461 26.0497 32.0415 26.0892 32.1118 26.1595C32.1822 26.2298 32.2217 26.3252 32.2217 26.4247V27.2647C32.2217 27.3641 32.1822 27.4595 32.1118 27.5298C32.0415 27.6002 31.9461 27.6397 31.8467 27.6397Z" fill="#D8B3AD"/>
<path d="M31.8467 27.1647C31.4078 27.1598 30.9721 27.0899 30.5537 26.9571C30.1958 26.8421 29.8227 26.7806 29.4468 26.7747C29.0336 26.7929 28.6226 26.8443 28.2178 26.9285L28.1572 26.9412L28.0962 26.9287C27.6805 26.8433 27.2585 26.7917 26.8345 26.7744C26.4649 26.7837 26.0978 26.8386 25.7417 26.9378C25.2803 27.0635 24.8048 27.1297 24.3267 27.1348C24.2471 27.1348 24.1708 27.1032 24.1145 27.0469C24.0583 26.9907 24.0267 26.9143 24.0267 26.8348C24.0267 26.7552 24.0583 26.6789 24.1145 26.6227C24.1708 26.5664 24.2471 26.5348 24.3267 26.5348C24.7579 26.5294 25.1867 26.4687 25.6025 26.3541C26.0082 26.2428 26.4261 26.1825 26.8467 26.1747C27.2865 26.1919 27.7244 26.2434 28.1562 26.3287C28.5776 26.2444 29.0048 26.1929 29.4341 26.1747H29.436C29.8698 26.179 30.3004 26.2479 30.7139 26.379C31.0802 26.4966 31.462 26.5591 31.8467 26.5646C31.9262 26.5646 32.0025 26.5962 32.0588 26.6525C32.1151 26.7087 32.1467 26.785 32.1467 26.8646C32.1467 26.9441 32.1151 27.0205 32.0588 27.0767C32.0025 27.133 31.9262 27.1646 31.8467 27.1646V27.1647Z" fill="#AF8582"/>
<path d="M28.03 33.0013C29.29 33.0013 32.835 33.3363 34.425 31.1813C36.66 28.1813 38.03 29.3963 38.03 23.0013C39.825 22.9113 40.785 21.6563 41.03 20.0013C41.91 14.0363 39.135 14.9563 39.03 15.0013C39.03 15.0013 38.995 12.3713 38.995 11.0713C39.035 6.92634 36.205 1.00134 28.03 1.00134C19.855 1.00134 17 6.92634 17.06 11.0763C17.06 12.3763 17.03 15.0063 17.03 15.0063C16.48 14.7763 14.25 14.7263 15.03 20.0063C15.275 21.6613 16.23 22.9163 18.03 23.0063C18.03 29.4013 19.395 28.1763 21.63 31.1863C23.22 33.3413 26.77 33.0013 28.03 33.0013Z" stroke="#333333" stroke-width="1.5" stroke-linejoin="round"/>
<path d="M4.99997 35.3213L18.325 32.3213L19.125 35.7713L5.79997 38.7713C5.73595 38.7861 5.66964 38.7882 5.60482 38.7773C5.54001 38.7665 5.47796 38.743 5.42224 38.7082C5.36651 38.6733 5.3182 38.6279 5.28006 38.5743C5.24192 38.5208 5.21471 38.4603 5.19997 38.3963L4.62497 35.8963C4.60228 35.7707 4.62848 35.6412 4.6982 35.5343C4.76792 35.4274 4.87589 35.3512 4.99997 35.3213Z" fill="#AA4343" stroke="#333333"/>
<path d="M43.775 40.0013H40.265C40.1269 40.0013 40.015 40.1133 40.015 40.2513V41.7513C40.015 41.8894 40.1269 42.0013 40.265 42.0013H43.775C43.9131 42.0013 44.025 41.8894 44.025 41.7513V40.2513C44.025 40.1133 43.9131 40.0013 43.775 40.0013Z" fill="#AA4343" stroke="#333333"/>
<path d="M42.03 44.0013V42.0013" stroke="#333333" stroke-width="1.99" stroke-linecap="round" stroke-linejoin="round"/>
<path d="M42.035 43.3013L42.65 44.5463L44.03 44.7463L43.03 45.7213L43.265 47.0913L42.035 46.4413L40.805 47.0913L41.04 45.7213L40.045 44.7463L41.42 44.5463L42.035 43.3013Z" fill="#FFCA76" stroke="#333333" stroke-width="0.7" stroke-linecap="round"/>
<path d="M8.52999 36.1647L8.00666 36.6747L8.12999 37.4014L7.47999 37.058L6.82999 37.398L6.95333 36.6747L6.42999 36.1647L7.15666 36.058L7.47999 35.4014L7.80333 36.058L8.52999 36.1647Z" fill="#FFCA76" stroke="#333333" stroke-width="0.4" stroke-linejoin="round"/>
<path d="M30.825 23.6162C30.6377 23.4766 30.4212 23.3812 30.1917 23.337C29.9623 23.2928 29.7258 23.3011 29.5 23.3612L28.41 23.6662C28.1445 23.7362 27.8655 23.7362 27.6 23.6662L26.5 23.3612C26.2728 23.2988 26.0343 23.2893 25.8029 23.3335C25.5714 23.3777 25.3532 23.4744 25.165 23.6162L22.285 25.4612C22.2039 25.5257 22.1388 25.6079 22.0945 25.7015C22.0503 25.7951 22.0282 25.8977 22.03 26.0012H26.03C26.5593 25.9887 27.0761 25.8388 27.53 25.5662L28.03 25.3512L28.505 25.5662C28.9809 25.8384 29.517 25.9879 30.065 26.0012H34.065C34.0658 25.8974 34.0428 25.7947 33.9977 25.7011C33.9526 25.6074 33.8867 25.5254 33.805 25.4612L30.825 23.6162Z" fill="#595959"/>
<path d="M22 26.2513H23.75L24.75 26.0013H26.156C26.6397 25.9917 27.1121 25.8764 27.527 25.6667L27.984 25.5013L28.4181 25.6667C28.8531 25.8761 29.3431 25.9911 29.844 26.0013L31.5 25.8763L32.25 26.0638L34 26.0013" stroke="#444444" stroke-miterlimit="10"/>
<path d="M40 7.0313C39.875 5.1913 37.23 2.9413 32.23 1.5663C29.4775 0.811233 26.5725 0.811233 23.82 1.5663C18.82 2.9413 16.175 5.1913 16.055 7.0313C15.835 10.3763 16.86 15.2913 17.02 16.0313L18.02 17.0313V14.0013L19.02 13.0013V11.0013C19.02 9.3663 19.98 8.0013 21.975 8.0013C23.65 8.0013 25.195 9.0013 28.02 9.0013C30.845 9.0013 32.34 8.0013 34.02 8.0013C34.4208 7.97478 34.8227 8.03421 35.1987 8.17559C35.5747 8.31698 35.9161 8.53706 36.2002 8.82111C36.4842 9.10515 36.7043 9.44661 36.8457 9.82261C36.9871 10.1986 37.0465 10.6005 37.02 11.0013V13.0013L38.02 14.0013V17.0013L39.02 16.0013C39.185 15.2963 40.23 10.3763 40 7.0313Z" fill="#666666"/>
<path d="M38.03 14.0013V17.0013L39.03 16.0013C39.185 15.2913 40.23 10.3713 40.03 7.0263C39.98 6.2663 39.495 5.4413 38.6 4.6363C37.2218 3.90448 35.7639 3.33404 34.255 2.9363C31.5025 2.18123 28.5975 2.18123 25.845 2.9363C20.845 4.3113 18.2 6.5613 18.075 8.4013C18.0112 10.1588 18.115 11.9185 18.385 13.6563L19.03 13.0013V11.0013C19.03 9.3663 19.99 8.0013 21.985 8.0013C23.66 8.0013 25.205 9.0013 28.03 9.0013C30.855 9.0013 32.35 8.0013 34.03 8.0013C34.4308 7.97478 34.8327 8.0342 35.2087 8.17559C35.5847 8.31697 35.9262 8.53706 36.2102 8.8211C36.4942 9.10515 36.7143 9.44661 36.8557 9.8226C36.9971 10.1986 37.0565 10.6005 37.03 11.0013V13.0013L38.03 14.0013Z" fill="#595959"/>
<path d="M40 7.0313C39.875 5.1913 37.23 2.9413 32.23 1.5663C29.4775 0.811233 26.5725 0.811233 23.82 1.5663C18.82 2.9413 16.175 5.1913 16.055 7.0313C15.835 10.3763 16.86 15.2913 17.02 16.0313L18.02 17.0313V14.0013L19.02 13.0013V11.0013C19.02 9.3663 19.98 8.0013 21.975 8.0013C23.65 8.0013 25.195 9.0013 28.02 9.0013C30.845 9.0013 32.34 8.0013 34.02 8.0013C34.4208 7.97478 34.8227 8.03421 35.1987 8.17559C35.5747 8.31698 35.9161 8.53706 36.2002 8.82111C36.4842 9.10515 36.7043 9.44661 36.8457 9.82261C36.9871 10.1986 37.0465 10.6005 37.02 11.0013V13.0013L38.02 14.0013V17.0013L39.02 16.0013C39.185 15.2963 40.23 10.3763 40 7.0313Z" stroke="#333333" stroke-width="1.5" stroke-linecap="round" stroke-linejoin="round"/>
<path d="M28.03 8.00134C27.7226 7.92294 27.4372 7.77545 27.1955 7.5701C26.9537 7.36476 26.762 7.10696 26.635 6.81634C26.3541 6.25283 26.2102 5.63097 26.215 5.00134C26.2098 4.37211 26.3574 3.75102 26.645 3.19134C26.7758 2.90445 26.9674 2.64944 27.2065 2.44396C27.4457 2.23848 27.7267 2.08745 28.03 2.00134C27.6997 2.4446 27.4756 2.95779 27.375 3.50134C27.2687 3.99428 27.2151 4.49709 27.215 5.00134C27.2135 5.51699 27.2655 6.0314 27.37 6.53634C27.4616 7.07293 27.6888 7.57721 28.03 8.00134Z" fill="#666666"/>
<path d="M29.53 7.00134C29.09 6.88797 28.7016 6.62812 28.429 6.26459C28.1563 5.90106 28.0156 5.45553 28.03 5.00134C28.0259 4.53789 28.1675 4.08486 28.435 3.70634C28.5622 3.52263 28.7244 3.3658 28.9123 3.24483C29.1002 3.12386 29.3101 3.04112 29.53 3.00134C29.3711 3.34056 29.2439 3.69373 29.15 4.05634C29.0769 4.36603 29.04 4.68315 29.04 5.00134C29.0396 5.31985 29.0783 5.63721 29.155 5.94634C29.2464 6.30905 29.372 6.66229 29.53 7.00134Z" fill="#666666"/>
<path d="M26 7.00134C25.5606 6.91284 25.1731 6.6563 24.92 6.28634C24.6513 5.91134 24.5047 5.46266 24.5 5.00134C24.4959 4.53789 24.6376 4.08486 24.905 3.70634C25.0316 3.52206 25.1937 3.36482 25.3817 3.24378C25.5697 3.12274 25.7799 3.04033 26 3.00134C25.839 3.33966 25.7117 3.69304 25.62 4.05634C25.5408 4.36511 25.5005 4.68257 25.5 5.00134C25.4997 5.31985 25.5383 5.63721 25.615 5.94634C25.7097 6.3094 25.8386 6.66265 26 7.00134Z" fill="#666666"/>
<path d="M20.03 30.0013L17.03 33.0013C17.03 36.9413 17.03 40.0013 20.03 46.0013L26.03 39.0013" fill="#808761"/>
<path d="M20.03 30.0013L17.03 33.0013C17.03 36.9413 17.03 40.0013 20.03 46.0013L26.03 39.0013" stroke="#333333" stroke-linecap="round" stroke-linejoin="round"/>
<path d="M36.03 30.0013L39.03 33.0013C39.03 36.9413 38.285 40.1013 37.03 44.0013L30.03 39.0013" fill="#808761"/>
<path d="M36.03 30.0013L39.03 33.0013C39.03 36.9413 38.285 40.1013 37.03 44.0013L30.03 39.0013" stroke="#333333" stroke-width="2" stroke-linecap="round" stroke-linejoin="round"/>
<path d="M18.635 38.0713L20.365 37.0713C20.4792 37.0057 20.6147 36.9878 20.742 37.0215C20.8693 37.0552 20.9782 37.1378 21.045 37.2513L23.64 41.7213L21.5 44.1613L18.45 38.7563C18.4169 38.6993 18.3955 38.6362 18.3869 38.5708C18.3783 38.5054 18.3827 38.439 18.3999 38.3753C18.4171 38.3117 18.4467 38.252 18.4871 38.1998C18.5274 38.1477 18.5777 38.104 18.635 38.0713Z" fill="#AA4343" stroke="#333333"/>
<path d="M20.505 40.3013C21.0573 40.3013 21.505 39.8536 21.505 39.3013C21.505 38.749 21.0573 38.3013 20.505 38.3013C19.9527 38.3013 19.505 38.749 19.505 39.3013C19.505 39.8536 19.9527 40.3013 20.505 40.3013Z" fill="#FFCA76" stroke="#333333" stroke-width="0.8" stroke-linecap="round"/>
<path d="M51.07 35.3213L37.745 32.3213L36.945 35.7713L50.27 38.7713C50.334 38.7861 50.4003 38.7882 50.4652 38.7773C50.53 38.7665 50.592 38.743 50.6477 38.7082C50.7035 38.6733 50.7518 38.6279 50.7899 38.5743C50.8281 38.5208 50.8553 38.4603 50.87 38.3963L51.445 35.8963C51.4677 35.7707 51.4415 35.6412 51.3718 35.5343C51.3021 35.4274 51.1941 35.3512 51.07 35.3213Z" fill="#AA4343" stroke="#333333"/>
<path d="M36.03 30.0013L39.03 33.0013C39.03 36.9413 39.03 40.0013 36.03 46.0013L30.03 39.0013" fill="#808761"/>
<path d="M36.03 30.0013L39.03 33.0013C39.03 36.9413 39.03 40.0013 36.03 46.0013L30.03 39.0013" stroke="#333333" stroke-linecap="round" stroke-linejoin="round"/>
<path d="M4.895 37.1462C4.05002 37.5927 3.31007 38.2144 2.7246 38.9697C2.13912 39.725 1.72162 40.5966 1.5 41.5262L1 44.0262C1.135 44.1112 12.725 49.0262 28.03 49.0262C43.335 49.0262 54.92 44.1362 55.055 44.0262L54.555 41.5262C54.3334 40.5966 53.9159 39.725 53.3304 38.9697C52.7449 38.2144 52.005 37.5927 51.16 37.1462" stroke="#333333" stroke-linecap="round" stroke-linejoin="round"/>
<path d="M37.42 38.0713L35.69 37.0713C35.6331 37.0373 35.5699 37.0149 35.5042 37.0055C35.4384 36.9961 35.3715 36.9999 35.3073 37.0167C35.2431 37.0334 35.1828 37.0628 35.1301 37.1031C35.0773 37.1434 35.0331 37.1938 35 37.2513L32.405 41.7213L34.53 44.1613L37.595 38.7563C37.6626 38.6423 37.6822 38.506 37.6494 38.3776C37.6165 38.2491 37.5341 38.1389 37.42 38.0713Z" fill="#AA4343" stroke="#333333"/>
<path d="M35.555 40.3013C36.1073 40.3013 36.555 39.8536 36.555 39.3013C36.555 38.749 36.1073 38.3013 35.555 38.3013C35.0027 38.3013 34.555 38.749 34.555 39.3013C34.555 39.8536 35.0027 40.3013 35.555 40.3013Z" fill="#FFCA76" stroke="#333333" stroke-width="0.8" stroke-linecap="round"/>
<path d="M47 36.1635L47.5225 36.6727L47.3994 37.3982L48.0483 37.0554L48.6973 37.3949L48.5742 36.6727L49.1 36.1635L48.3745 36.057L48.0483 35.4014L47.7255 36.057L47 36.1635Z" fill="#FFCA76" stroke="#333333" stroke-width="0.4" stroke-linejoin="round"/>
<path d="M20.03 30.0013C21.29 34.4113 23.755 37.3963 26.03 39.0013H30.03C32.4 37.3163 34.78 34.3763 36.03 30.0013" stroke="#333333" stroke-width="2" stroke-linecap="round" stroke-linejoin="round"/>
</svg>
