<svg width="52" height="51" viewBox="0 0 52 51" fill="none" xmlns="http://www.w3.org/2000/svg">
<path d="M50.33 43.13C50.1442 41.969 49.6346 40.8839 48.8598 39.9994C48.085 39.115 47.0765 38.467 45.95 38.13L33.34 34.5V28.5H18.34V34.41L5.7 38.11C4.57712 38.4518 3.57249 39.1014 2.80007 39.9852C2.02766 40.8689 1.51837 41.9515 1.33 43.11L1 44.27L1.1 44.33C8.81003 48.0614 17.2645 49.9998 25.83 50C34.3883 50.0031 42.8363 48.068 50.54 44.34L50.33 43.13Z" fill="#F3D2C9"/>
<path d="M50.33 43.13C50.1442 41.969 49.6346 40.8839 48.8598 39.9994C48.085 39.115 47.0765 38.467 45.95 38.13L33.34 34.5V33.5C28.3938 34.4863 23.3073 34.5439 18.34 33.67V34.41L5.7 38.11C4.57712 38.4518 3.57249 39.1014 2.80007 39.9852C2.02766 40.8689 1.51837 41.9515 1.33 43.11L1 44.27L1.1 44.33C8.81003 48.0614 17.2645 49.9998 25.83 50C34.3883 50.0031 42.8363 48.068 50.54 44.34L50.33 43.13Z" fill="#3C3D3D"/>
<path d="M27.07 38.17C28.6114 39.7101 30.7011 40.5752 32.88 40.5752C35.0589 40.5752 37.1487 39.7101 38.69 38.17L40.29 36.5L33.29 34.5V33.5C29.9167 34.1909 26.4664 34.4297 23.03 34.21L27.07 38.17Z" fill="#333333"/>
<path d="M18.34 34.41L5.7 38.11C4.57712 38.4518 3.57249 39.1014 2.80007 39.9852C2.02766 40.8689 1.51837 41.9515 1.33 43.11L1 44.27L1.1 44.33C8.81003 48.0614 17.2645 49.9998 25.83 50C34.3883 50.0031 42.8363 48.068 50.54 44.34V44.34L50.28 43.17C50.0942 42.009 49.5846 40.9239 48.8098 40.0394C48.035 39.155 47.0265 38.507 45.9 38.17L33.34 34.5" stroke="#333333" stroke-width="1.6129" stroke-linejoin="round"/>
<path d="M33.34 36V28.94" stroke="#333333" stroke-width="1.5" stroke-linecap="round" stroke-linejoin="round"/>
<path d="M18.34 36V28.94" stroke="#333333" stroke-width="1.5" stroke-linecap="round" stroke-linejoin="round"/>
<path d="M33.34 33.66C30.8449 34.0761 28.3195 34.2835 25.79 34.28C23.2939 34.2872 20.8016 34.0832 18.34 33.67" stroke="#333333" stroke-width="1.6129" stroke-linejoin="round"/>
<path d="M36.37 15.47V13C36.37 7.13 32.37 1.05 25.83 1.05C19.29 1.05 15.34 7.11 15.34 13V15.52C13.45 15.52 13.11 17.1 13.55 19.16C13.91 20.84 14.84 23.02 16.34 23.02C16.34 23.02 16.55 24.89 16.65 25.44C17.05 27.61 19.51 30.68 22.65 32.34C23.6428 32.7896 24.7201 33.0222 25.81 33.0222C26.8999 33.0222 27.9772 32.7896 28.97 32.34C32.12 30.68 34.59 27.61 34.97 25.44C35.08 24.89 35.31 23.02 35.31 23.02C36.81 23.02 37.72 20.84 38.08 19.16C38.54 17.08 38.26 15.47 36.37 15.47Z" fill="#EDCCC3"/>
<path d="M38.11 19.14C38.54 17.08 38.26 15.47 36.37 15.47V13C36.37 7.13 32.37 1.05 25.83 1.05C24.8356 1.05302 23.8475 1.20815 22.9 1.51V12.62C22.9 14.62 20.9 14.55 20.9 15.55C24.34 15.76 24.08 16.81 25.4 16.81C25.4595 16.8073 25.5188 16.8167 25.5746 16.8376C25.6303 16.8585 25.6812 16.8905 25.7242 16.9316C25.7672 16.9727 25.8014 17.0221 25.8247 17.0769C25.8481 17.1316 25.8601 17.1905 25.86 17.25V20C25.86 20.9 27.26 23 25.86 23C25.2829 22.9592 24.7125 22.8518 24.16 22.68C23.56 22.57 23.71 23.25 23.71 23.25C24.94 23.5 24.57 23.84 25.82 23.85V28.85C25.8276 28.9889 25.8875 29.1198 25.9877 29.2163C26.0879 29.3127 26.2209 29.3677 26.36 29.37C26.5544 29.362 26.7485 29.3923 26.9311 29.4594C27.1138 29.5264 27.2814 29.6288 27.4245 29.7607C27.5675 29.8926 27.6831 30.0514 27.7647 30.228C27.8463 30.4046 27.8923 30.5956 27.9 30.79C27.9 31.62 27.23 31.79 26.4 31.79H24.9C24.5603 31.7418 24.2138 31.786 23.8971 31.918C23.5804 32.05 23.305 32.2648 23.1 32.54C23.9672 32.8486 24.8796 33.0108 25.8 33.02C26.9064 33.0158 27.9985 32.7701 29 32.3C32.15 30.64 34.62 27.57 35 25.4C35.11 24.85 35.34 22.98 35.34 22.98C36.84 23 37.75 20.82 38.11 19.14Z" fill="#E5C2BA"/>
<path d="M26.9999 25.51C26.6124 25.5199 26.227 25.5702 25.8499 25.66C25.4695 25.5701 25.0807 25.5199 24.6899 25.51C23.8499 25.51 23.6899 25.83 22.6899 25.83L23.7599 26.58C24.0939 26.7983 24.4934 26.8938 24.8899 26.85H26.7499C27.1583 26.9012 27.5717 26.8093 27.9199 26.59L29.0199 25.87C28.0799 25.85 27.8999 25.51 26.9999 25.51Z" fill="#DDBAB6"/>
<path d="M29 26C28.7185 26.0196 28.4357 25.9994 28.16 25.94C27.9103 25.868 27.6565 25.8113 27.4 25.77C26.8906 25.7412 26.3801 25.7987 25.89 25.94H25.78C25.2928 25.8189 24.7919 25.7617 24.29 25.77C24.033 25.7997 23.7789 25.8499 23.53 25.92C23.2547 25.9599 22.9752 25.9599 22.7 25.92C22.6681 25.92 22.6376 25.9074 22.6151 25.8849C22.5926 25.8623 22.58 25.8318 22.58 25.8C22.5844 25.7707 22.5988 25.7439 22.6206 25.7239C22.6424 25.7039 22.6704 25.6919 22.7 25.69C22.9518 25.6699 23.2002 25.6196 23.44 25.54C23.68 25.47 23.94 25.36 24.22 25.3C24.7755 25.2081 25.344 25.232 25.89 25.37H25.78C26.3306 25.2402 26.9014 25.2198 27.46 25.31C27.9593 25.4923 28.475 25.6262 29 25.71C29.0327 25.7125 29.0632 25.7273 29.0855 25.7514C29.1077 25.7755 29.1201 25.8072 29.12 25.84C29.1228 25.8584 29.1219 25.8772 29.1174 25.8953C29.1128 25.9133 29.1047 25.9303 29.0936 25.9452C29.0824 25.9601 29.0684 25.9726 29.0523 25.982C29.0362 25.9914 29.0184 25.9976 29 26Z" fill="#AF8582"/>
<path d="M27.74 16.06L29 15.75C29.42 15.65 29.83 15.54 30.26 15.46C30.6899 15.3936 31.1251 15.3668 31.56 15.38C32.0055 15.3814 32.4503 15.4182 32.89 15.49C32.9483 15.5043 32.9992 15.54 33.0325 15.59C33.0659 15.64 33.0792 15.7006 33.07 15.76C33.0605 15.8052 33.0386 15.8469 33.0068 15.8804C32.9751 15.914 32.9346 15.9381 32.89 15.95C32.47 16.04 32.06 16.1 31.65 16.21C31.2432 16.323 30.8288 16.4066 30.41 16.46L29.13 16.56C28.6842 16.6 28.2357 16.6 27.79 16.56C27.761 16.5575 27.7329 16.5493 27.7071 16.5358C27.6814 16.5224 27.6586 16.504 27.64 16.4817C27.6214 16.4594 27.6074 16.4336 27.5988 16.4058C27.5902 16.3781 27.5872 16.3489 27.59 16.32C27.5931 16.2728 27.6113 16.2279 27.6419 16.1919C27.6725 16.1558 27.7139 16.1306 27.76 16.12L27.74 16.06Z" fill="#333333"/>
<path d="M24.33 19.91C24.33 19.5122 24.488 19.1306 24.7693 18.8493C25.0506 18.568 25.4321 18.41 25.83 18.41C26.2278 18.41 26.6093 18.568 26.8906 18.8493C27.1719 19.1306 27.33 19.5122 27.33 19.91" stroke="#888888" stroke-width="0.550779" stroke-miterlimit="10" stroke-linecap="round"/>
<path d="M23.9 16.51C23.0569 16.62 22.2031 16.62 21.36 16.51C20.949 16.4489 20.5441 16.3518 20.15 16.22C19.75 16.09 19.35 15.98 18.96 15.82C18.902 15.7956 18.856 15.7495 18.8317 15.6916C18.8074 15.6336 18.8068 15.5684 18.83 15.51C18.8485 15.4695 18.878 15.4349 18.9151 15.4102C18.9522 15.3854 18.9954 15.3715 19.04 15.37H20.29C20.7024 15.3802 21.1134 15.4203 21.52 15.49L22.72 15.77C23.12 15.86 23.52 15.98 23.9 16.07C23.9578 16.0843 24.0077 16.1204 24.0394 16.1707C24.0711 16.2211 24.0821 16.2817 24.07 16.34C24.0625 16.3823 24.0421 16.4213 24.0117 16.4517C23.9813 16.4821 23.9423 16.5025 23.9 16.51Z" fill="#333333"/>
<path d="M32.77 18.66C32.77 19.203 32.6092 19.7339 32.3079 20.1857C32.0066 20.6375 31.5783 20.99 31.077 21.1987C30.5756 21.4074 30.0237 21.463 29.4908 21.3585C28.9579 21.254 28.4679 20.9941 28.0825 20.6115C27.6972 20.2289 27.4337 19.7408 27.3253 19.2087C27.217 18.6765 27.2686 18.1242 27.4737 17.6214C27.6787 17.1186 28.0281 16.6877 28.4777 16.3832C28.9273 16.0786 29.457 15.9139 30 15.91C30.3628 15.9074 30.7226 15.9765 31.0585 16.1136C31.3945 16.2506 31.7 16.4527 31.9575 16.7084C32.215 16.964 32.4193 17.268 32.5588 17.603C32.6982 17.9379 32.77 18.2972 32.77 18.66Z" fill="#EED1C9"/>
<path d="M30.5601 16.45C29.8307 16.45 29.1312 16.7397 28.6155 17.2555C28.0998 17.7712 27.8101 18.4707 27.8101 19.2C27.8107 19.7965 28.0075 20.3763 28.3701 20.85C28.8438 21.2125 29.4235 21.4093 30.0201 21.41C30.7494 21.41 31.4489 21.1203 31.9646 20.6045C32.4803 20.0888 32.7701 19.3893 32.7701 18.66C32.7716 18.06 32.5747 17.4764 32.2101 17C31.7351 16.641 31.1554 16.4478 30.5601 16.45Z" fill="#EDD8D3"/>
<path d="M32.73 18.17C32.6307 17.6355 32.3769 17.1418 32 16.75L28.11 20.64C28.5036 21.0347 29.0104 21.2969 29.56 21.39L32.73 18.17Z" fill="#ECDED9"/>
<path d="M31.48 16.34C30.9856 16.0202 30.3999 15.8715 29.8128 15.9167C29.2257 15.9618 28.6697 16.1984 28.23 16.59C29.3196 16.6974 30.4196 16.6128 31.48 16.34Z" fill="#AA9E9D"/>
<path d="M24.38 18.66C24.38 19.2039 24.2187 19.7356 23.9165 20.1878C23.6144 20.6401 23.1849 20.9925 22.6824 21.2007C22.1799 21.4088 21.627 21.4633 21.0935 21.3572C20.5601 21.251 20.0701 20.9891 19.6855 20.6045C19.3009 20.2199 19.039 19.7299 18.9328 19.1965C18.8267 18.6631 18.8812 18.1101 19.0893 17.6076C19.2975 17.1051 19.65 16.6756 20.1022 16.3735C20.5544 16.0713 21.0861 15.91 21.63 15.91C22.3594 15.91 23.0588 16.1997 23.5745 16.7155C24.0903 17.2312 24.38 17.9307 24.38 18.66Z" fill="#EED1C9"/>
<path d="M22.17 16.45C21.4407 16.45 20.7412 16.7397 20.2255 17.2555C19.7098 17.7712 19.42 18.4707 19.42 19.2C19.4265 19.7989 19.6303 20.3789 20 20.85C20.4738 21.2125 21.0535 21.4093 21.65 21.41C22.3794 21.41 23.0789 21.1203 23.5946 20.6045C24.1103 20.0888 24.4 19.3893 24.4 18.66C24.3958 18.0577 24.1918 17.4739 23.82 17C23.3451 16.641 22.7654 16.4478 22.17 16.45Z" fill="#EDD8D3"/>
<path d="M23.43 16.59C22.988 16.1991 22.4304 15.9631 21.842 15.918C21.2536 15.8729 20.6665 16.021 20.17 16.34C21.2338 16.6127 22.3371 16.6973 23.43 16.59Z" fill="#AA9E9D"/>
<path d="M24.3399 18.17C24.2323 17.632 23.9678 17.138 23.5799 16.75L19.6899 20.64C20.0835 21.0347 20.5904 21.2969 21.1399 21.39L24.3399 18.17Z" fill="#ECDED9"/>
<path d="M35.07 17.28L33.82 22.9C33.6717 23.3248 33.3728 23.6806 32.98 23.9L32.36 24.26C32.1925 24.3693 32.0714 24.5367 32.02 24.73L31.74 25.73C31.6693 25.9748 31.5686 26.21 31.44 26.43C31.347 26.571 31.2635 26.718 31.19 26.87L31 27.27C30.9851 27.3041 30.9594 27.3323 30.9268 27.3504C30.8943 27.3684 30.8568 27.3753 30.82 27.37C30.7811 27.3646 30.7448 27.3473 30.7162 27.3204C30.6875 27.2936 30.6679 27.2585 30.66 27.22C30.17 24.69 30.56 25.15 27.48 23.81C27.3583 23.76 27.2217 23.76 27.1 23.81L26.18 24.12C26.0537 24.1594 25.9223 24.1797 25.79 24.18C25.6609 24.1804 25.5326 24.1601 25.41 24.12L24.48 23.81C24.3583 23.76 24.2217 23.76 24.1 23.81C21.1 25.13 21.42 24.65 20.92 27.22C20.9157 27.2583 20.8985 27.294 20.8713 27.3213C20.844 27.3485 20.8083 27.3657 20.77 27.37C20.7319 27.3744 20.6934 27.3673 20.6595 27.3494C20.6256 27.3316 20.5979 27.3039 20.58 27.27C20.2994 26.7806 20.0522 26.2727 19.84 25.75C19.61 24.93 19.6 24.56 19.22 24.31C18.58 23.94 18.02 23.71 17.76 22.92L16.6 17.28C16.53 17.12 16.15 17.11 16.16 17.28L16.29 22.85C16.29 22.85 16.51 24.72 16.61 25.28C17.01 27.45 19.47 30.52 22.61 32.17C23.5835 32.6969 24.673 32.9728 25.78 32.9728C26.8869 32.9728 27.9765 32.6969 28.95 32.17C32.11 30.52 34.57 27.45 34.95 25.28C35.05 24.72 35.26 22.85 35.26 22.85L35.47 17.28C35.52 17.11 35.14 17.12 35.07 17.28ZM28.72 27.75H28.24L28 27.31C27.935 27.2074 27.8448 27.1232 27.738 27.0654C27.6312 27.0077 27.5114 26.9783 27.39 26.98H24.25C24.1286 26.9783 24.0087 27.0077 23.9019 27.0654C23.7952 27.1232 23.705 27.2074 23.64 27.31L23.34 27.75H22.9C22.49 27.75 22.06 26.75 22.06 26.36C22.0633 26.2076 22.1143 26.0601 22.2058 25.9381C22.2973 25.8162 22.4246 25.7259 22.57 25.68L24.64 25C25.4087 24.7626 26.2312 24.7626 27 25L29.07 25.66C29.2162 25.7046 29.3444 25.7945 29.436 25.9167C29.5277 26.039 29.5781 26.1872 29.58 26.34C29.56 26.75 29.14 27.75 28.72 27.75Z" fill="#B79C9A"/>
<path d="M35.07 17.28L33.82 22.9C33.6717 23.3248 33.3729 23.6806 32.98 23.9L32.36 24.26C32.1925 24.3693 32.0714 24.5367 32.02 24.73L31.74 25.73C31.6694 25.9748 31.5686 26.21 31.44 26.43C31.3471 26.571 31.2636 26.718 31.19 26.87L31 27.27C30.9851 27.3041 30.9594 27.3323 30.9269 27.3504C30.8944 27.3684 30.8568 27.3753 30.82 27.37C30.7811 27.3646 30.7448 27.3473 30.7162 27.3204C30.6875 27.2936 30.6679 27.2585 30.66 27.22C30.17 24.69 30.56 25.15 27.48 23.81C27.3583 23.76 27.2217 23.76 27.1 23.81L26.18 24.12C26.0538 24.1594 25.9223 24.1797 25.79 24.18C25.661 24.1804 25.5327 24.1601 25.41 24.12L24.48 23.81C24.3583 23.76 24.2218 23.76 24.1 23.81C21.28 25.04 21.39 24.71 21.02 26.73V31.2C21.5173 31.5726 22.0421 31.9069 22.59 32.2C23.5635 32.7269 24.6531 33.0028 25.76 33.0028C26.867 33.0028 27.9565 32.7269 28.93 32.2C32.09 30.55 34.55 27.48 34.93 25.31C35.03 24.75 35.24 22.88 35.24 22.88L35.45 17.31C35.52 17.11 35.14 17.12 35.07 17.28ZM28.72 27.75H28.24L28 27.31C27.935 27.2074 27.8448 27.1232 27.7381 27.0655C27.6313 27.0077 27.5114 26.9783 27.39 26.98H24.25C24.1286 26.9783 24.0088 27.0077 23.902 27.0655C23.7952 27.1232 23.705 27.2074 23.64 27.31L23.34 27.75H22.9C22.49 27.75 22.06 26.75 22.06 26.36C22.0634 26.2076 22.1144 26.0601 22.2058 25.9381C22.2973 25.8162 22.4247 25.7259 22.57 25.68L24.64 25C25.4088 24.7627 26.2313 24.7627 27 25L29.07 25.66C29.2162 25.7046 29.3444 25.7945 29.4361 25.9167C29.5278 26.039 29.5782 26.1872 29.58 26.34C29.56 26.75 29.14 27.75 28.72 27.75Z" fill="#AD9493"/>
<path d="M25.83 1C19.35 1 15.35 7.12 15.35 13V15L16.16 17.31H16.6V13.84C16.6504 13.0705 16.9407 12.3361 17.43 11.74C17.7373 11.2149 17.827 10.5904 17.68 10C17.5655 9.18254 17.6615 8.34938 17.959 7.57941C18.2565 6.80944 18.7456 6.12813 19.38 5.6C19.6361 5.41332 19.952 5.32746 20.2674 5.35882C20.5828 5.39017 20.8756 5.53654 21.09 5.77L23 7.7C23.4398 8.03638 23.9289 8.30285 24.45 8.49C24.8812 8.61772 25.3308 8.67181 25.78 8.65C26.2292 8.67181 26.6788 8.61772 27.11 8.49C27.6329 8.30685 28.1226 8.04005 28.56 7.7L30.56 5.75C30.7743 5.51654 31.0672 5.37017 31.3825 5.33882C31.6979 5.30746 32.0138 5.39332 32.27 5.58C32.9132 6.11026 33.4063 6.79983 33.7 7.58C34.56 9.58 33.39 10.38 34.23 11.74C34.7122 12.3393 34.9985 13.0725 35.05 13.84V17.31H35.48L36.28 15V13C36.31 7.12 32.31 1 25.83 1Z" fill="#666666"/>
<path d="M36.37 15.47V13C36.37 7.13 32.37 1.05 25.83 1.05C19.29 1.05 15.34 7.11 15.34 13V15.52C13.45 15.52 13.11 17.1 13.55 19.16C13.91 20.84 14.84 23.02 16.34 23.02C16.34 23.02 16.55 24.89 16.65 25.44C17.05 27.61 19.51 30.68 22.65 32.34C23.6428 32.7896 24.7201 33.0222 25.81 33.0222C26.8999 33.0222 27.9772 32.7896 28.97 32.34C32.12 30.68 34.59 27.61 34.97 25.44C35.08 24.89 35.31 23.02 35.31 23.02C36.81 23.02 37.72 20.84 38.08 19.16C38.54 17.08 38.26 15.47 36.37 15.47Z" stroke="#333333" stroke-width="1.5" stroke-linejoin="round"/>
<path d="M23.79 23.17C24.79 23.47 24.93 23.87 25.79 23.87C26.65 23.87 26.79 23.46 27.79 23.17" stroke="#AF8582" stroke-width="0.75" stroke-miterlimit="10" stroke-linecap="round"/>
<path d="M25.48 28.5H25.6H25.99H26.11" stroke="#8E7676" stroke-miterlimit="10" stroke-linecap="round"/>
<path d="M21.63 18.12C22.0442 18.12 22.38 17.7842 22.38 17.37C22.38 16.9558 22.0442 16.62 21.63 16.62C21.2158 16.62 20.88 16.9558 20.88 17.37C20.88 17.7842 21.2158 18.12 21.63 18.12Z" fill="#707070"/>
<path d="M30.02 18.12C30.4342 18.12 30.77 17.7842 30.77 17.37C30.77 16.9558 30.4342 16.62 30.02 16.62C29.6058 16.62 29.27 16.9558 29.27 17.37C29.27 17.7842 29.6058 18.12 30.02 18.12Z" fill="#707070"/>
<path d="M32.77 18.66C32.77 19.203 32.6092 19.7339 32.3079 20.1857C32.0066 20.6375 31.5783 20.99 31.077 21.1987C30.5756 21.4074 30.0237 21.463 29.4908 21.3585C28.9579 21.254 28.4679 20.9941 28.0825 20.6115C27.6972 20.2289 27.4337 19.7408 27.3253 19.2087C27.217 18.6765 27.2686 18.1242 27.4737 17.6214C27.6787 17.1186 28.0281 16.6877 28.4777 16.3832C28.9273 16.0786 29.457 15.9139 30 15.91C30.3628 15.9074 30.7226 15.9765 31.0585 16.1136C31.3945 16.2506 31.7 16.4527 31.9575 16.7084C32.215 16.964 32.4193 17.268 32.5588 17.603C32.6982 17.9379 32.77 18.2972 32.77 18.66V18.66Z" stroke="#888888" stroke-width="0.5" stroke-miterlimit="10"/>
<path d="M24.38 18.66C24.38 19.2039 24.2187 19.7356 23.9165 20.1878C23.6144 20.6401 23.1849 20.9925 22.6824 21.2007C22.1799 21.4088 21.627 21.4633 21.0935 21.3572C20.5601 21.251 20.0701 20.9891 19.6855 20.6045C19.3009 20.2199 19.039 19.7299 18.9328 19.1965C18.8267 18.6631 18.8812 18.1101 19.0893 17.6076C19.2975 17.1051 19.65 16.6756 20.1022 16.3735C20.5544 16.0713 21.0861 15.91 21.63 15.91C22.3594 15.91 23.0588 16.1997 23.5745 16.7155C24.0903 17.2312 24.38 17.9307 24.38 18.66Z" stroke="#888888" stroke-width="0.5" stroke-miterlimit="10"/>
<path d="M18.79 18.66H18.34" stroke="#888888" stroke-width="0.550779" stroke-miterlimit="10" stroke-linecap="round"/>
<path d="M33.32 18.66H32.84" stroke="#888888" stroke-width="0.550779" stroke-miterlimit="10" stroke-linecap="round"/>
</svg>
