<svg width="57" height="54" viewBox="0 0 57 54" fill="none" xmlns="http://www.w3.org/2000/svg">
<path d="M37.19 34V29H19.73V30.67L29.36 40.3C30.1707 41.1112 31.1333 41.7548 32.1929 42.1939C33.2524 42.6329 34.3881 42.8589 35.535 42.8589C36.6819 42.8589 37.8176 42.6329 38.8771 42.1939C39.9366 41.7548 40.8993 41.1112 41.71 40.3L44.86 37.16C42.3986 35.8888 39.8325 34.8316 37.19 34Z" fill="#E8ECEF"/>
<path d="M47 38.39C43.9354 36.512 40.6416 35.0365 37.2 34V29H19.74V34C16.2772 35.0138 12.9697 36.4976 9.91 38.41C4.68 39.67 2.09 40.05 1 46.85C9.62401 50.6795 18.954 52.662 28.39 52.67H28.57C37.9985 52.6513 47.3197 50.6692 55.94 46.85C54.84 40.05 52.26 39.67 47 38.39Z" fill="#AF6E51"/>
<path d="M9.91 41.46C12.1984 40.0083 14.644 38.8207 17.2 37.92C17.9414 37.654 18.5825 37.1653 19.0354 36.5209C19.4883 35.8764 19.7309 35.1077 19.73 34.32V34C16.2703 35.0138 12.9662 36.4977 9.91 38.41C4.68 39.67 2.09 40.05 1 46.85L1.64 47.12C3 43.35 5.65 42.49 9.91 41.46Z" fill="#B7765C"/>
<path d="M55.94 46.85C54.84 40.05 52.26 39.67 47.02 38.39C43.9504 36.5079 40.6495 35.0322 37.2 34V29H19.74V34L27.2 41.56C28.0665 42.4977 28.5546 43.7233 28.57 45V52.66C37.9978 52.6448 47.319 50.6661 55.94 46.85Z" fill="#A3634A"/>
<path d="M47.09 41.46C44.8016 40.0083 42.356 38.8207 39.8 37.92C38.9963 37.6418 38.3058 37.1078 37.8344 36.3998C37.363 35.6919 37.1367 34.8489 37.19 34C40.6774 35.0071 44.0089 36.4911 47.09 38.41C52.32 39.69 54.91 40.07 56 46.87L55.36 47.14C54 43.35 51.35 42.49 47.09 41.46Z" fill="#AF6E51"/>
<path d="M30.7199 51.7V51.47H30.9999C31.3659 51.47 31.7169 51.3246 31.9757 51.0658C32.2345 50.807 32.3799 50.456 32.3799 50.09V49.8C32.3799 49.434 32.2345 49.083 31.9757 48.8242C31.7169 48.5654 31.3659 48.42 30.9999 48.42H30.7499V48.18C30.7466 47.9647 30.6953 47.7529 30.5999 47.56C33.563 47.2204 36.308 45.836 38.3424 43.655C40.3767 41.4741 41.5671 38.6395 41.6999 35.66L40.7899 35.28C40.7262 38.3013 39.4869 41.1788 37.3353 43.3009C35.1837 45.423 32.2895 46.6226 29.2675 46.6447C26.2456 46.6669 23.3341 45.5098 21.1517 43.4194C18.9693 41.329 17.6879 38.4701 17.5799 35.45V34.78C17.5843 34.7602 17.5843 34.7397 17.5799 34.72L16.6799 35.06V35.46C16.7669 38.4817 17.9417 41.3706 19.9883 43.5954C22.035 45.8202 24.8159 47.2316 27.8199 47.57C27.7278 47.7601 27.68 47.9687 27.6799 48.18V48.42H27.4499C27.0839 48.42 26.7329 48.5654 26.4741 48.8242C26.2153 49.083 26.0699 49.434 26.0699 49.8V50.09C26.0699 50.456 26.2153 50.807 26.4741 51.0658C26.7329 51.3246 27.0839 51.47 27.4499 51.47H27.6799V51.7C27.6754 51.8842 27.7076 52.0675 27.7745 52.2391C27.8415 52.4108 27.9419 52.5675 28.0699 52.7H28.5699C29.1699 52.7 29.7599 52.7 30.3599 52.65C30.5972 52.3911 30.7261 52.0511 30.7199 51.7Z" fill="#995B48"/>
<path d="M37.2 29.5V34C40.6487 35.0175 43.9449 36.494 47 38.39C52.24 39.67 54.82 40.05 55.92 46.81C47.3011 50.6337 37.979 52.616 28.55 52.63H28.36C18.9371 52.629 9.61819 50.6603 1 46.85C2.11 40.08 4.68 39.71 9.92 38.43C12.971 36.5097 16.272 35.019 19.73 34V29.5" stroke="#333333" stroke-width="1.84" stroke-linejoin="round"/>
<path d="M40.5699 34.21C40.6588 37.4112 39.4723 40.5165 37.2716 42.8429C35.0709 45.1693 32.0361 46.5262 28.8349 46.615C25.6338 46.7039 22.5284 45.5174 20.202 43.3167C17.8756 41.1159 16.5188 38.0812 16.4299 34.88V34.21" stroke="#E2AE61" stroke-width="0.92" stroke-linecap="round" stroke-linejoin="round"/>
<path d="M28.65 46.69H28.3699C27.8618 46.69 27.45 47.1019 27.45 47.61V51.13C27.45 51.6381 27.8618 52.05 28.3699 52.05H28.65C29.1581 52.05 29.57 51.6381 29.57 51.13V47.61C29.57 47.1019 29.1581 46.69 28.65 46.69Z" stroke="#E2AE61" stroke-width="0.92" stroke-linecap="round" stroke-linejoin="round"/>
<path d="M30.2798 48.31H26.7598C26.2517 48.31 25.8398 48.7219 25.8398 49.23V49.52C25.8398 50.0281 26.2517 50.44 26.7598 50.44H30.2798C30.7879 50.44 31.1998 50.0281 31.1998 49.52V49.23C31.1998 48.7219 30.7879 48.31 30.2798 48.31Z" stroke="#E2AE61" stroke-width="0.92" stroke-linecap="round" stroke-linejoin="round"/>
<path d="M39.5 17.29V11.06C39.5 5.36 33 1 28.5 1C24 1 17.5 5.36 17.5 11.06V17.29C14.06 16.47 15.09 25 18 25V26C18 29 20 30.5 24.61 34.59C25.1905 35.1716 25.9782 35.4989 26.8 35.5H30.2C31.0217 35.4989 31.8094 35.1716 32.39 34.59C37 30.5 39 29 39 26V25C41.91 25 42.94 16.47 39.5 17.29Z" fill="#AF6E51"/>
<path d="M41.6401 20.05C41.5801 18.34 40.9201 16.9 39.4201 17.26V10.72H17.4201C17.4201 11.14 17.4201 12.52 17.3501 17.21C17.3522 17.3466 17.3906 17.4802 17.4614 17.5971C17.5322 17.714 17.6328 17.81 17.7529 17.8751C17.873 17.9403 18.0083 17.9723 18.1449 17.9679C18.2815 17.9634 18.4144 17.9228 18.5301 17.85C21.4101 15.98 25.5901 13.05 28.4201 11.41C32.2801 13.61 38.3801 17.63 41.6401 20.05Z" fill="#A3634A"/>
<path d="M39.5 17.29V11.06C39.5 5.36 33 1 28.5 1C27.4408 1.02077 26.3928 1.22024 25.4 1.59C25.4 5.59 25.5 11.06 25.5 12.14C25.5 14.14 23.5 13.99 23.5 14.99C24.35 15.04 26.22 15.73 26.64 16.81C26.6635 16.8805 26.7048 16.9437 26.7599 16.9934C26.8151 17.0432 26.8822 17.0778 26.9547 17.0939C27.0272 17.11 27.1026 17.1071 27.1737 17.0854C27.2447 17.0636 27.3089 17.0239 27.36 16.97C27.61 16.73 27.87 16.51 28 16.51C28.1326 16.51 28.2598 16.5627 28.3536 16.6564C28.4473 16.7502 28.5 16.8774 28.5 17.01V18.85C28.5324 19.6871 28.8222 20.4938 29.33 21.16C29.5758 21.4682 29.7097 21.8508 29.7097 22.245C29.7097 22.6392 29.5758 23.0218 29.33 23.33C29.2351 23.4634 29.1088 23.5715 28.9624 23.6447C28.8159 23.718 28.6537 23.7541 28.49 23.75C27.75 23.75 27.49 23.17 26.49 23.17C25.65 23.17 25.41 24.12 25.56 24.12C26.63 23.46 27.17 24.71 28.49 24.73V29C28.495 29.131 28.5492 29.2553 28.6419 29.3481C28.7347 29.4408 28.859 29.4951 28.99 29.5C29.3878 29.5 29.7694 29.658 30.0507 29.9393C30.332 30.2206 30.49 30.6022 30.49 31C30.49 31.3978 30.332 31.7794 30.0507 32.0607C29.7694 32.342 29.3878 32.5 28.99 32.5H27.47C26.9862 32.4949 26.5169 32.6653 26.1492 32.9798C25.7814 33.2942 25.5401 33.7313 25.47 34.21V35.21C25.8836 35.4142 26.3387 35.5203 26.8 35.52H30.2C31.0218 35.5189 31.8095 35.1916 32.39 34.61C37 30.5 39 29 39 26V25C41.91 25 42.94 16.47 39.5 17.29Z" fill="#A3634A"/>
<path d="M40.4698 17.35C40.1521 17.2206 39.8007 17.1995 39.4698 17.29H39.3898V10.72H25.4898C25.4898 11.39 25.4898 11.89 25.4898 12.14C25.5043 12.4372 25.4496 12.7338 25.3298 13.0063C25.2101 13.2788 25.0286 13.5197 24.7998 13.71C26.1098 12.84 27.3798 12.03 28.4598 11.41C32.2698 13.61 38.3698 17.63 41.6298 20.05C41.5898 18.81 41.2298 17.72 40.4698 17.35Z" fill="#995B48"/>
<path d="M28.4999 27.18C26.5699 26.13 25.5699 28.18 24.6399 28.32C24.8899 28.32 25.5499 29.04 25.8999 29.42C26.2443 29.7421 26.657 29.9823 27.1072 30.1226C27.5574 30.2628 28.0335 30.2995 28.4999 30.23C28.9663 30.2995 29.4424 30.2628 29.8926 30.1226C30.3428 29.9823 30.7555 29.7421 31.0999 29.42C31.4499 29.04 32.0999 28.32 32.3599 28.32C31.4299 28.16 30.4299 26.13 28.4999 27.18Z" fill="#895240"/>
<path d="M20.9399 24.38C19.0099 22.62 18.5299 21.21 18.5299 20.38V17.61C18.5979 17.1899 18.5391 16.759 18.3609 16.3724C18.1828 15.9859 17.8935 15.6613 17.5299 15.44V17.29C14.0599 16.47 15.0899 25 17.9999 25V26C17.9999 28.21 19.6599 30.27 22.0799 32.49V26.57C22.0967 26.1374 22.0004 25.7078 21.8004 25.3238C21.6005 24.9397 21.3039 24.6144 20.9399 24.38Z" fill="#A3634A"/>
<path d="M39.5 17.29V15.44C39.1364 15.6613 38.847 15.9859 38.6689 16.3724C38.4908 16.759 38.432 17.1899 38.5 17.61V20.42C38.5 21.21 38.02 22.51 36.09 24.28C35.7267 24.5128 35.4305 24.8364 35.2306 25.2187C35.0307 25.601 34.9339 26.0289 34.95 26.46V32.38C37.34 30.16 39 28.21 39 26V25C41.91 25 42.94 16.47 39.5 17.29Z" fill="#995B48"/>
<path d="M19.87 16.45C20.2147 15.8909 20.6586 15.3995 21.18 15C21.7061 14.5917 22.3027 14.2833 22.94 14.09C23.607 13.8805 24.3173 13.8495 25 14C25.6563 14.1221 26.2839 14.3663 26.85 14.72C27.0197 14.793 27.1535 14.9303 27.222 15.1019C27.2904 15.2735 27.2879 15.4653 27.215 15.635C27.1421 15.8048 27.0047 15.9386 26.8331 16.007C26.6615 16.0755 26.4697 16.073 26.3 16H26.23C25.7383 15.8552 25.2371 15.7449 24.73 15.67C24.241 15.6249 23.749 15.6249 23.26 15.67C22.7457 15.7197 22.2427 15.8513 21.77 16.06C21.2814 16.2868 20.8243 16.5759 20.41 16.92C20.3483 16.9742 20.2692 17.0043 20.1871 17.0047C20.105 17.0051 20.0255 16.9758 19.9634 16.9221C19.9012 16.8685 19.8605 16.7942 19.8489 16.7129C19.8373 16.6317 19.8554 16.5489 19.9 16.48L19.87 16.45Z" fill="#333333"/>
<path d="M36.5901 16.87C36.1763 16.5223 35.7191 16.2299 35.23 16C34.7574 15.7913 34.2544 15.6596 33.7401 15.61C33.2511 15.5649 32.759 15.5649 32.2701 15.61C31.763 15.6849 31.2618 15.7952 30.7701 15.94H30.7001C30.5402 15.9782 30.372 15.9581 30.2257 15.8834C30.0793 15.8086 29.9645 15.684 29.9018 15.5321C29.8391 15.3802 29.8327 15.2109 29.8837 15.0547C29.9347 14.8985 30.0398 14.7656 30.1801 14.68C30.7399 14.3437 31.3568 14.1133 32.0001 14C32.6653 13.8665 33.3535 13.9043 34.0001 14.11C34.6374 14.3033 35.2339 14.6117 35.76 15.02C36.2787 15.4106 36.7225 15.8916 37.07 16.44C37.0939 16.478 37.1099 16.5204 37.1173 16.5647C37.1246 16.6089 37.1232 16.6542 37.1129 16.6979C37.1027 16.7416 37.0839 16.7828 37.0577 16.8192C37.0315 16.8556 36.9983 16.8865 36.96 16.91C36.9026 16.9538 36.8323 16.9775 36.76 16.9775C36.6878 16.9775 36.6175 16.9538 36.5601 16.91L36.5901 16.87Z" fill="#333333"/>
<path d="M39.5 17.29V11.06C39.5 5.36 33 1 28.5 1C24 1 17.5 5.36 17.5 11.06V17.29C14.06 16.47 15.09 25 18 25V26C18 29 20 30.5 24.61 34.59C25.1905 35.1716 25.9782 35.4989 26.8 35.5H30.2C31.0217 35.4989 31.8094 35.1716 32.39 34.59C37 30.5 39 29 39 26V25C41.91 25 42.94 16.47 39.5 17.29Z" stroke="#333333" stroke-width="1.47" stroke-linejoin="round"/>
<path d="M24.66 27.99L24.53 28.67" stroke="#9B5B48" stroke-width="0.75" stroke-miterlimit="10" stroke-linecap="round"/>
<path d="M32.1699 27.85L32.4199 28.74" stroke="#9B5B48" stroke-width="0.75" stroke-miterlimit="10" stroke-linecap="round"/>
<path d="M32.38 28.49C31.72 28.49 31.08 28.49 30.47 28.49C29.8813 28.4719 29.2953 28.5775 28.75 28.8L28.62 28.86L28.47 28.8C27.8816 28.5962 27.2626 28.4947 26.64 28.5C25.99 28.5 25.31 28.57 24.64 28.5C24.6167 28.4988 24.5939 28.4928 24.5731 28.4824C24.5522 28.4721 24.5337 28.4575 24.5187 28.4397C24.5037 28.4219 24.4925 28.4012 24.4859 28.3789C24.4792 28.3566 24.4772 28.3331 24.48 28.31C24.4864 28.2708 24.5056 28.2349 24.5345 28.2078C24.5634 28.1807 24.6005 28.1639 24.64 28.16C25.29 28.09 25.94 27.95 26.64 27.87C27.3604 27.7595 28.0971 27.8352 28.78 28.09H28.5C29.1417 27.8676 29.826 27.7957 30.5 27.88C31.16 27.95 31.77 28.1 32.38 28.16C32.4023 28.1613 32.4242 28.1669 32.4443 28.1767C32.4645 28.1864 32.4825 28.2 32.4973 28.2168C32.5122 28.2335 32.5236 28.253 32.5309 28.2741C32.5383 28.2953 32.5413 28.3177 32.54 28.34C32.5353 28.3799 32.5167 28.4168 32.4874 28.4442C32.4581 28.4717 32.4201 28.4879 32.38 28.49Z" fill="#68342A"/>
<path d="M26.77 30.55C27.3418 30.733 27.9398 30.8209 28.54 30.81C29.1145 30.8278 29.6874 30.7397 30.23 30.55L28.5 32.12L26.77 30.55Z" fill="#333333"/>
<path d="M23.4399 17.23C23.241 17.23 23.0503 17.309 22.9096 17.4497C22.769 17.5903 22.6899 17.7811 22.6899 17.98C22.6899 18.1789 22.769 18.3697 22.9096 18.5103C23.0503 18.651 23.241 18.73 23.4399 18.73C23.6389 18.73 23.8296 18.651 23.9703 18.5103C24.1109 18.3697 24.1899 18.1789 24.1899 17.98C24.1899 17.7811 24.1109 17.5903 23.9703 17.4497C23.8296 17.309 23.6389 17.23 23.4399 17.23Z" fill="#333333"/>
<path d="M20.7498 17.9C21.2198 17.9 21.5498 17.57 21.9598 17.25C22.3995 16.9315 22.927 16.7568 23.4698 16.75C24.0117 16.7551 24.5415 16.9109 24.9998 17.2C25.4615 17.4807 25.8709 17.8393 26.2098 18.26C26.2483 18.2977 26.2782 18.3431 26.2978 18.3932C26.3173 18.4434 26.326 18.4971 26.3232 18.5509C26.3205 18.6046 26.3063 18.6571 26.2817 18.705C26.2571 18.7529 26.2226 18.795 26.1805 18.8285C26.1384 18.862 26.0897 18.8862 26.0375 18.8995C25.9854 18.9128 25.931 18.9148 25.878 18.9055C25.825 18.8962 25.7746 18.8758 25.7301 18.8455C25.6856 18.8152 25.648 18.7759 25.6198 18.73C25.3917 18.3447 25.0801 18.0154 24.7081 17.7663C24.3361 17.5171 23.913 17.3544 23.4698 17.29C23.0176 17.2505 22.5648 17.3593 22.1798 17.6C21.7831 17.9441 21.284 18.1479 20.7598 18.18C20.7435 18.1803 20.7274 18.1769 20.7126 18.1702C20.6977 18.1635 20.6846 18.1535 20.674 18.1411C20.6635 18.1286 20.6559 18.114 20.6517 18.0983C20.6475 18.0825 20.6469 18.066 20.6498 18.05C20.6454 18.0335 20.6446 18.0163 20.6473 17.9995C20.6501 17.9826 20.6564 17.9666 20.6659 17.9524C20.6754 17.9382 20.6878 17.9262 20.7022 17.9171C20.7167 17.9081 20.7329 17.9023 20.7498 17.9Z" fill="#A3634A"/>
<path d="M20.75 17.77C21.28 17.82 21.89 17.42 22.55 17.3C23.1996 17.1921 23.8648 17.2262 24.5 17.4C23.8665 17.3136 23.2219 17.3648 22.61 17.55C22.3118 17.6529 22.0239 17.7835 21.75 17.94C21.4469 18.1265 21.1045 18.2395 20.75 18.27C20.7171 18.2727 20.684 18.2689 20.6527 18.2588C20.6213 18.2487 20.5922 18.2325 20.5671 18.2112C20.542 18.1898 20.5214 18.1637 20.5064 18.1343C20.4915 18.1049 20.4825 18.0729 20.48 18.04C20.4772 17.9727 20.5006 17.9069 20.5454 17.8565C20.5902 17.8061 20.6528 17.7751 20.72 17.77H20.75Z" fill="#333333"/>
<path d="M22.6299 18.86H24.2499" stroke="#A3634A" stroke-width="0.5" stroke-miterlimit="10" stroke-linecap="round"/>
<path d="M33.5598 17.23C33.7587 17.23 33.9495 17.309 34.0901 17.4497C34.2308 17.5903 34.3098 17.7811 34.3098 17.98C34.3098 18.1789 34.2308 18.3697 34.0901 18.5103C33.9495 18.651 33.7587 18.73 33.5598 18.73C33.3609 18.73 33.1701 18.651 33.0295 18.5103C32.8888 18.3697 32.8098 18.1789 32.8098 17.98C32.8098 17.7811 32.8888 17.5903 33.0295 17.4497C33.1701 17.309 33.3609 17.23 33.5598 17.23Z" fill="#333333"/>
<path d="M36.2499 18.14C35.7257 18.1079 35.2266 17.9041 34.8299 17.56C34.445 17.3193 33.9921 17.2105 33.5399 17.25C33.0968 17.3144 32.6737 17.4771 32.3016 17.7263C31.9296 17.9754 31.6181 18.3047 31.3899 18.69C31.3314 18.7717 31.2437 18.8278 31.145 18.8464C31.0462 18.865 30.9441 18.8448 30.8599 18.79C30.8192 18.7611 30.7845 18.7245 30.758 18.6822C30.7314 18.64 30.7134 18.5929 30.7051 18.5436C30.6967 18.4944 30.6981 18.444 30.7093 18.3954C30.7204 18.3467 30.741 18.3007 30.7699 18.26C31.1148 17.8376 31.5311 17.4788 31.9999 17.2C32.464 16.9074 33.0012 16.7514 33.5499 16.75C34.0928 16.7568 34.6202 16.9315 35.0599 17.25C35.4699 17.57 35.7999 17.9 36.2699 17.9C36.3017 17.9 36.3322 17.9126 36.3547 17.9351C36.3772 17.9577 36.3899 17.9882 36.3899 18.02C36.3913 18.0353 36.3895 18.0506 36.3846 18.0652C36.3797 18.0797 36.3718 18.093 36.3614 18.1043C36.3511 18.1156 36.3385 18.1246 36.3244 18.1308C36.3104 18.1369 36.2952 18.1401 36.2799 18.14H36.2499Z" fill="#995B48"/>
<path d="M34.37 18.86H32.75" stroke="#995B48" stroke-width="0.5" stroke-miterlimit="10" stroke-linecap="round"/>
<path d="M27.7101 25.67C27.6201 25.42 27.6201 25.41 27.6201 25.41C27.577 25.2885 27.4878 25.1888 27.3717 25.1327C27.2556 25.0765 27.1221 25.0684 27.0001 25.11C27.0001 25.11 25.1801 25.77 24.3601 26.11C23.944 26.3443 23.5983 26.6859 23.3591 27.0992C23.1199 27.5125 22.9959 27.9824 23.0001 28.46C23.1254 28.1267 23.3205 27.824 23.5723 27.5722C23.8241 27.3204 24.1268 27.1253 24.4601 27C26.7801 26.43 27.3801 26.27 27.4101 26.26C27.5248 26.2169 27.6192 26.1325 27.6748 26.0233C27.7303 25.9141 27.7429 25.788 27.7101 25.67Z" fill="#333333" stroke="#333333" stroke-linejoin="round"/>
<path d="M29.2901 25.67C29.3801 25.42 29.3801 25.41 29.3801 25.41C29.4232 25.2885 29.5125 25.1888 29.6285 25.1327C29.7446 25.0765 29.8781 25.0684 30.0001 25.11C30.0001 25.11 31.8201 25.77 32.6401 26.11C33.0562 26.3443 33.4019 26.6859 33.6411 27.0992C33.8803 27.5125 34.0043 27.9824 34.0001 28.46C33.8748 28.1267 33.6797 27.824 33.4279 27.5722C33.1761 27.3204 32.8734 27.1253 32.5401 27C30.2201 26.43 29.6201 26.27 29.5901 26.26C29.4754 26.2169 29.381 26.1325 29.3254 26.0233C29.2699 25.9141 29.2573 25.788 29.2901 25.67Z" fill="#333333" stroke="#333333" stroke-linejoin="round"/>
<path d="M30 34H27C25.19 34 24.43 32 23.5 30.5L23.61 33.21C23.6922 34.1083 24.1069 34.9436 24.7728 35.5522C25.4388 36.1608 26.3079 36.4988 27.21 36.5H29.8C30.7059 36.5006 31.579 36.1606 32.2459 35.5474C32.9127 34.9343 33.3247 34.0928 33.4 33.19L33.5 30.5C32.57 32.05 31.81 34 30 34Z" fill="#333333" stroke="#333333" stroke-linecap="round" stroke-linejoin="round"/>
<path d="M31.6301 24.12C30.2101 23.52 29.9101 24.73 28.5001 24.73C27.0901 24.73 26.7701 23.52 25.3701 24.12" stroke="#7A3D2E" stroke-width="0.75" stroke-miterlimit="10" stroke-linecap="round"/>
<path d="M28.4999 9.35C33.4199 12.35 38.8099 16.17 39.4999 17.29C39.4999 17.29 39.8799 10.86 39.1599 8.1C38.4399 5.34 30.0699 4.81 28.4999 4.81C26.9299 4.81 18.4999 5.43 17.8399 8.1C17.1799 10.77 17.4999 17.29 17.4999 17.29C18.1899 16.17 23.5799 12.4 28.4999 9.35Z" fill="#DDDDDD"/>
<path d="M28.4999 9.35C33.4199 12.35 38.8099 16.17 39.4999 17.29C39.4999 17.29 39.8799 10.86 39.1599 8.1C38.4399 5.34 30.0699 4.81 28.4999 4.81C26.9299 4.81 18.4999 5.43 17.8399 8.1C17.1799 10.77 17.4999 17.29 17.4999 17.29C18.1899 16.17 23.5799 12.4 28.4999 9.35Z" stroke="#333333" stroke-width="1.44" stroke-linejoin="round"/>
<path d="M36.25 18.27C35.8955 18.2395 35.553 18.1265 35.25 17.94C34.9761 17.7835 34.6882 17.6529 34.39 17.55C33.7781 17.3648 33.1335 17.3136 32.5 17.4C33.151 17.2189 33.8342 17.1847 34.5 17.3C35.16 17.42 35.77 17.82 36.3 17.77C36.3674 17.7644 36.4344 17.7852 36.4867 17.8282C36.5389 17.8711 36.5724 17.9328 36.58 18C36.5827 18.0328 36.5789 18.0659 36.5688 18.0973C36.5588 18.1287 36.5425 18.1577 36.5212 18.1828C36.4998 18.2079 36.4737 18.2286 36.4443 18.2435C36.4149 18.2585 36.3829 18.2675 36.35 18.27H36.25Z" fill="#333333"/>
</svg>
