<svg width="52" height="60" viewBox="0 0 52 60" fill="none" xmlns="http://www.w3.org/2000/svg">
<path d="M44.5 37.1314C40.22 36.1314 32.5 34.7214 32.5 34.7214V29.4714H19.5V34.7214C19.5 34.7214 11.79 36.1814 7.5 37.1314C3.87 38.0414 3.08 40.8214 2.5 43.1314C9.87934 46.4786 17.8972 48.1845 26 48.1314C34.1028 48.1845 42.1207 46.4786 49.5 43.1314C48.92 40.8114 48.12 38.0014 44.5 37.1314Z" fill="#D8AD68"/>
<path d="M44.5 37.1314C40.22 36.1314 32.5 34.7214 32.5 34.7214V29.4714H19.5V34.7214L13.21 35.9414V46.7114C15.7777 47.2808 18.3799 47.6816 21 47.9114V36.2014C20.9986 36.1291 21.0116 36.0574 21.038 35.9901C21.0644 35.9229 21.1038 35.8615 21.154 35.8095C21.2041 35.7575 21.264 35.7159 21.3302 35.687C21.3965 35.6582 21.4677 35.6427 21.54 35.6414C21.6938 35.6414 21.8412 35.7026 21.95 35.8114L24.28 38.1414L24.99 48.1414H25.99C27.37 48.1414 28.71 48.0814 29.99 47.9914L30.21 44.9014C30.2125 44.8567 30.2239 44.813 30.2433 44.7727C30.2628 44.7324 30.2901 44.6964 30.3235 44.6666C30.357 44.6369 30.396 44.6141 30.4382 44.5994C30.4805 44.5848 30.5253 44.5787 30.57 44.5814C30.6524 44.5891 30.7299 44.6244 30.79 44.6814L33.72 47.6114C39.1823 46.9607 44.5078 45.4521 49.5 43.1414C48.92 40.8114 48.12 38.0014 44.5 37.1314Z" fill="#BF9051"/>
<path d="M24.5 46.2214H27.5C27.7652 46.2214 28.0196 46.3267 28.2071 46.5143C28.3946 46.7018 28.5 46.9562 28.5 47.2214V49.7214C28.5 50.1192 28.342 50.5007 28.0607 50.782C27.7794 51.0633 27.3978 51.2214 27 51.2214H25C24.6022 51.2214 24.2206 51.0633 23.9393 50.782C23.658 50.5007 23.5 50.1192 23.5 49.7214V47.2214C23.5 46.9562 23.6054 46.7018 23.7929 46.5143C23.9804 46.3267 24.2348 46.2214 24.5 46.2214Z" fill="#724F17" stroke="#333333" stroke-width="1.5" stroke-linecap="round" stroke-linejoin="round"/>
<path d="M22.5 34.2214L23.5 48.2214H28.5L29.5 34.2214H22.5Z" fill="#724F17" stroke="#333333" stroke-width="1.5" stroke-linejoin="round"/>
<path d="M23 37.2214H29" stroke="#333333" stroke-width="1.5" stroke-linejoin="round"/>
<path d="M29.23 37.5514L25 40.7214" stroke="#333333" stroke-linejoin="round"/>
<path d="M22.5 34.2214L23.5 48.2214" stroke="#333333" stroke-width="1.5" stroke-linejoin="round"/>
<path d="M28.5 48.2214L29.5 34.2214" stroke="#333333" stroke-width="1.5" stroke-linejoin="round"/>
<path d="M24.3301 37.2214L27.0001 39.2214" stroke="#333333" stroke-linejoin="round"/>
<path d="M29 40.7214L25 43.7214" stroke="#333333" stroke-linejoin="round"/>
<path d="M23 39.2214L27 42.2214" stroke="#333333" stroke-linejoin="round"/>
<path d="M28.66 43.9714L23.5 47.8514" stroke="#333333" stroke-linejoin="round"/>
<path d="M23.2 42.3713L27 45.2213" stroke="#333333" stroke-linejoin="round"/>
<path d="M19.5 34.7214C19.5 34.7214 11.79 36.1814 7.5 37.1314C3.87 38.0414 3.08 40.8214 2.5 43.1314C9.87934 46.4786 17.8972 48.1845 26 48.1314C34.1028 48.1845 42.1207 46.4786 49.5 43.1314C48.92 40.8014 48.12 38.0314 44.5 37.1314C40.22 36.1314 32.5 34.7214 32.5 34.7214" stroke="#333333" stroke-width="1.5" stroke-linecap="round" stroke-linejoin="round"/>
<path d="M32.5 32.2213V58.7213C40.17 58.7213 42.5 53.4613 42.5 49.7213V46.2213C42.5473 43.7751 43.4088 41.4145 44.9482 39.5128C46.4877 37.6111 48.6172 36.277 51 35.7213L42.46 7.93134C42.3958 7.71876 42.2627 7.5336 42.0816 7.40505C41.9006 7.27649 41.6819 7.21186 41.46 7.22134H39.68C35.9994 3.69358 31.0982 1.72406 26 1.72406C20.9018 1.72406 16.0006 3.69358 12.32 7.22134H10.5C10.2781 7.21186 10.0594 7.27649 9.87838 7.40505C9.69732 7.5336 9.56419 7.71876 9.5 7.93134L1 35.7213C3.38277 36.277 5.51229 37.6111 7.05175 39.5128C8.5912 41.4145 9.45271 43.7751 9.5 46.2213V49.7213C9.5 53.4313 11.78 58.7213 19.5 58.7213V32.2213H32.5Z" fill="#EABF73"/>
<path d="M42.48 8.00137V7.93137C42.4158 7.71879 42.2826 7.53363 42.1016 7.40508C41.9205 7.27652 41.7018 7.21189 41.48 7.22137C40.92 7.22137 36.98 8.22137 36.98 16.7214V18.4714C38.72 16.4714 41.87 18.4714 38.98 23.2214C38.6453 23.8344 38.4731 24.5229 38.48 25.2214C38.48 25.7214 38.48 27.2214 37.23 27.2214C35.98 27.2214 36 25.7214 36 25.7214V23.7214C36 26.5014 33.91 29.5914 31.46 32.2214H32.46V34.7714C36.8 35.5914 42.12 36.6114 44.46 37.1314C45.1692 37.3015 45.8452 37.5888 46.46 37.9814C47.7786 36.8878 49.3325 36.1143 51 35.7214L42.48 8.00137Z" fill="#D8AD68"/>
<path d="M17.3699 36.7214H16.9199L17.9999 35.7214C17.9999 35.5702 17.9399 35.4252 17.833 35.3183C17.7261 35.2114 17.5811 35.1514 17.4299 35.1514H17.3199C14.9999 35.5814 10.1599 36.5314 7.9999 37.0014C7.85548 37.0347 7.73017 37.124 7.65144 37.2496C7.57271 37.3752 7.54699 37.5268 7.5799 37.6714C7.60504 37.7731 7.65681 37.8663 7.7299 37.9414C9.36936 39.665 10.4409 41.8498 10.7999 44.2014C10.8216 44.3471 10.8954 44.48 11.0075 44.5756C11.1196 44.6712 11.2626 44.723 11.4099 44.7214C11.2833 44.7213 11.1616 44.7701 11.0703 44.8577C10.979 44.9454 10.9251 45.0649 10.9199 45.1914C10.9799 45.8914 10.9999 46.5714 11.0099 47.1914C11.0151 47.3205 11.07 47.4426 11.1632 47.5321C11.2565 47.6215 11.3807 47.6715 11.5099 47.6714C11.3798 47.6738 11.2555 47.7259 11.1626 47.817C11.0696 47.9081 11.015 48.0313 11.0099 48.1614V50.3014C11.0452 50.7073 11.1681 51.1008 11.3701 51.4547C11.5721 51.8086 11.8484 52.1145 12.1799 52.3514L12.6599 52.6914C12.5692 52.6965 12.4805 52.7194 12.3987 52.7589C12.3169 52.7984 12.2437 52.8536 12.1834 52.9214C12.123 52.9892 12.0766 53.0683 12.0468 53.1541C12.017 53.2399 12.0045 53.3307 12.0099 53.4214C12.0131 53.5154 12.037 53.6076 12.0799 53.6914C12.3729 54.1764 12.7332 54.6174 13.1499 55.0014C13.5628 55.4082 14.1202 55.6348 14.6999 55.6314H17.4499C17.5195 55.6314 17.5884 55.6177 17.6527 55.591C17.717 55.5644 17.7755 55.5253 17.8247 55.4761C17.8739 55.4269 17.9129 55.3685 17.9396 55.3042C17.9662 55.2399 17.9799 55.171 17.9799 55.1014V53.4114C17.9799 53.3194 17.9618 53.2284 17.9266 53.1435C17.8914 53.0586 17.8399 52.9814 17.7749 52.9164C17.7099 52.8514 17.6327 52.7998 17.5478 52.7646C17.4629 52.7295 17.3718 52.7114 17.2799 52.7114H16.7599L17.2899 52.2714C17.5098 52.0965 17.6878 51.8746 17.8106 51.622C17.9335 51.3693 17.9982 51.0923 17.9999 50.8114V48.8114C18.0018 48.6459 17.9626 48.4825 17.8858 48.3359C17.809 48.1893 17.697 48.064 17.5599 47.9714L17.1599 47.7014H17.4899C17.6252 47.7014 17.7549 47.6476 17.8505 47.552C17.9462 47.4563 17.9999 47.3266 17.9999 47.1914V45.1914C17.9999 45.127 17.9872 45.0633 17.9626 45.0038C17.938 44.9444 17.9019 44.8904 17.8564 44.8449C17.8109 44.7994 17.7569 44.7633 17.6974 44.7387C17.638 44.714 17.5743 44.7014 17.5099 44.7014H17.1799C17.4296 44.5383 17.6351 44.316 17.7781 44.0543C17.9212 43.7926 17.9974 43.4996 17.9999 43.2014V41.3714C17.9984 41.0908 17.9327 40.8142 17.8079 40.5629C17.6832 40.3116 17.5025 40.0922 17.2799 39.9214L17.0299 39.7214H17.3399C17.4274 39.7214 17.5141 39.704 17.5948 39.6702C17.6755 39.6364 17.7487 39.5869 17.8102 39.5245C17.8716 39.4622 17.92 39.3882 17.9526 39.307C17.9851 39.2258 18.0012 39.1389 17.9999 39.0514V37.3514C17.9999 37.1843 17.9335 37.024 17.8154 36.9059C17.6972 36.7877 17.537 36.7214 17.3699 36.7214Z" fill="#D8AD68"/>
<path d="M16 23.7214C15.3 13.9214 15.07 10.6114 12.39 8.17136C12.2459 8.05316 12.062 7.99457 11.8761 8.00758C11.6902 8.0206 11.5163 8.10424 11.39 8.24136C11.3281 8.3152 11.2806 8.40001 11.25 8.49136C10.92 9.49136 10.6 10.6014 10.25 11.7314C10.1816 11.9203 10.1869 12.1281 10.2647 12.3134C10.3425 12.4987 10.4872 12.6479 10.67 12.7314C10.24 12.7314 9.91001 12.8414 9.78001 13.2614L9.21001 15.1214C9.17608 15.2434 9.19172 15.3738 9.25353 15.4843C9.31534 15.5948 9.41831 15.6764 9.54001 15.7114C9.58954 15.7211 9.64049 15.7211 9.69001 15.7114C9.49269 15.7096 9.30016 15.7721 9.14143 15.8894C8.9827 16.0066 8.86639 16.1723 8.81002 16.3614C8.46002 17.4714 8.11001 18.6114 7.75001 19.7614C7.70418 19.945 7.72171 20.1387 7.79975 20.3112C7.8778 20.4836 8.01179 20.6246 8.18002 20.7114C7.76002 20.7114 7.44002 20.8114 7.31002 21.2114C6.90002 22.5114 7.16001 21.6614 6.73001 23.1014C6.69608 23.2234 6.71172 23.3538 6.77353 23.4643C6.83534 23.5748 6.93831 23.6564 7.06002 23.6914C7.10618 23.7011 7.15385 23.7011 7.20001 23.6914C7.01399 23.6925 6.83279 23.7506 6.68081 23.8579C6.52883 23.9652 6.41338 24.1165 6.35001 24.2914L5.28001 27.7214C5.22131 27.912 5.23234 28.1172 5.31112 28.3004C5.3899 28.4837 5.5313 28.6329 5.71001 28.7214C5.28001 28.7214 4.95001 28.8214 4.82001 29.2514C4.76001 29.4214 4.76001 29.4614 4.25001 31.1114C4.21608 31.2334 4.23172 31.3638 4.29353 31.4743C4.35534 31.5848 4.45831 31.6664 4.58001 31.7014C4.62954 31.7111 4.68049 31.7111 4.73001 31.7014C4.53886 31.7028 4.35278 31.763 4.19711 31.874C4.04144 31.9849 3.92373 32.1411 3.86001 32.3214L2.94001 35.3214C2.9108 35.4106 2.89984 35.5048 2.90779 35.5984C2.91573 35.692 2.94243 35.783 2.98628 35.866C3.03014 35.9491 3.09025 36.0224 3.16305 36.0818C3.23584 36.1411 3.31983 36.1852 3.41001 36.2114C3.47627 36.2218 3.54376 36.2218 3.61001 36.2114H18.81C18.9983 36.2114 19.1789 36.1366 19.3121 36.0034C19.4452 35.8703 19.52 35.6897 19.52 35.5014V32.9314C19.52 32.7314 19.52 32.2214 20.52 32.2214C18.09 29.5914 16.2 26.4914 16 23.7214Z" fill="#BF9051"/>
<path d="M34.6301 36.7213H35.0801L34.0001 35.7013C34.0001 35.5502 34.0601 35.4052 34.167 35.2983C34.2739 35.1914 34.4189 35.1313 34.5701 35.1313H34.6801C37.0001 35.5813 41.8401 36.5313 44.0001 37.0013C44.1445 37.0347 44.2698 37.124 44.3485 37.2495C44.4273 37.3751 44.453 37.5268 44.4201 37.6713C44.3949 37.7731 44.3432 37.8663 44.2701 37.9413C42.6306 39.6649 41.5591 41.8498 41.2001 44.2013C41.1783 44.3471 41.1046 44.48 40.9925 44.5756C40.8803 44.6712 40.7374 44.723 40.5901 44.7213C40.7166 44.7212 40.8383 44.7701 40.9297 44.8577C41.021 44.9453 41.0749 45.0649 41.0801 45.1913C41.0201 45.8913 41.0001 46.5713 40.9901 47.1913C40.9849 47.3205 40.93 47.4426 40.8367 47.532C40.7435 47.6215 40.6193 47.6714 40.4901 47.6713C40.6202 47.6738 40.7445 47.7259 40.8374 47.817C40.9304 47.9081 40.985 48.0313 40.9901 48.1613V50.3013C40.9547 50.7073 40.8319 51.1008 40.6299 51.4546C40.4279 51.8085 40.1516 52.1145 39.8201 52.3513L39.3401 52.6913C39.4307 52.6964 39.5195 52.7194 39.6013 52.7589C39.6831 52.7984 39.7562 52.8536 39.8166 52.9214C39.877 52.9892 39.9234 53.0683 39.9532 53.1541C39.9829 53.2399 39.9955 53.3307 39.9901 53.4213C39.9869 53.5154 39.963 53.6076 39.9201 53.6913C39.6271 54.1763 39.2668 54.6174 38.8501 55.0013C38.4372 55.4082 37.8798 55.6348 37.3001 55.6313H34.5301C34.3895 55.6313 34.2547 55.5755 34.1553 55.4761C34.0559 55.3767 34.0001 55.2419 34.0001 55.1013V53.4113C34.0001 53.3194 34.0182 53.2284 34.0534 53.1435C34.0885 53.0585 34.1401 52.9814 34.2051 52.9164C34.2701 52.8514 34.3473 52.7998 34.4322 52.7646C34.5171 52.7295 34.6082 52.7113 34.7001 52.7113H35.2201L34.6901 52.2713C34.4733 52.095 34.2988 51.8723 34.1794 51.6197C34.0599 51.367 33.9987 51.0908 34.0001 50.8113V48.8113C33.9982 48.6459 34.0374 48.4825 34.1142 48.3359C34.191 48.1893 34.303 48.064 34.4401 47.9713L34.8401 47.7013H34.5101C34.3748 47.7013 34.2451 47.6476 34.1495 47.552C34.0538 47.4563 34.0001 47.3266 34.0001 47.1913V45.1913C34.0001 45.127 34.0128 45.0633 34.0374 45.0038C34.062 44.9444 34.0981 44.8904 34.1436 44.8449C34.1891 44.7994 34.2431 44.7633 34.3026 44.7386C34.362 44.714 34.4257 44.7013 34.4901 44.7013H34.8201C34.5704 44.5382 34.3649 44.3159 34.2218 44.0543C34.0788 43.7926 34.0026 43.4996 34.0001 43.2013V41.3713C34.0016 41.0908 34.0672 40.8142 34.192 40.5629C34.3168 40.3116 34.4974 40.0921 34.7201 39.9213L34.9701 39.7213H34.6601C34.5726 39.7214 34.4859 39.704 34.4052 39.6702C34.3244 39.6364 34.2512 39.5869 34.1898 39.5245C34.1284 39.4622 34.08 39.3882 34.0474 39.307C34.0148 39.2258 33.9987 39.1389 34.0001 39.0513V37.3513C34.0001 37.1843 34.0665 37.024 34.1846 36.9059C34.3027 36.7877 34.463 36.7213 34.6301 36.7213Z" fill="#D8AD68"/>
<path d="M36 23.7214C36.7 13.9214 36.93 10.6114 39.61 8.17136C39.7541 8.05316 39.938 7.99457 40.1239 8.00758C40.3098 8.0206 40.4838 8.10424 40.61 8.24136C40.6719 8.3152 40.7194 8.40001 40.75 8.49136C41.08 9.49136 41.4 10.6014 41.75 11.7314C41.8184 11.9203 41.8132 12.1281 41.7353 12.3134C41.6575 12.4987 41.5128 12.6479 41.33 12.7314C41.76 12.7314 42.09 12.8414 42.22 13.2614L42.79 15.1214C42.8239 15.2434 42.8083 15.3738 42.7465 15.4843C42.6847 15.5948 42.5817 15.6764 42.46 15.7114C42.4105 15.7211 42.3595 15.7211 42.31 15.7114C42.5073 15.7096 42.6999 15.7721 42.8586 15.8894C43.0173 16.0066 43.1336 16.1723 43.19 16.3614C43.54 17.4714 43.89 18.6114 44.25 19.7614C44.2958 19.945 44.2783 20.1387 44.2003 20.3112C44.1222 20.4836 43.9882 20.6246 43.82 20.7114C44.24 20.7114 44.56 20.8114 44.69 21.2114C45.1 22.5114 44.84 21.6614 45.27 23.1014C45.3039 23.2234 45.2883 23.3538 45.2265 23.4643C45.1647 23.5748 45.0617 23.6564 44.94 23.6914C44.8938 23.7011 44.8462 23.7011 44.8 23.6914C44.986 23.6925 45.1672 23.7506 45.3192 23.8579C45.4712 23.9652 45.5866 24.1165 45.65 24.2914L46.72 27.7214C46.7787 27.912 46.7677 28.1172 46.6889 28.3004C46.6101 28.4837 46.4687 28.6329 46.29 28.7214C46.72 28.7214 47.05 28.8214 47.18 29.2514C47.24 29.4214 47.24 29.4614 47.75 31.1114C47.7839 31.2334 47.7683 31.3638 47.7065 31.4743C47.6447 31.5848 47.5417 31.6664 47.42 31.7014C47.3705 31.7111 47.3195 31.7111 47.27 31.7014C47.4612 31.7028 47.6472 31.763 47.8029 31.874C47.9586 31.9849 48.0763 32.1411 48.14 32.3214L49.06 35.3214C49.0892 35.4106 49.1002 35.5048 49.0922 35.5984C49.0843 35.692 49.0576 35.783 49.0137 35.866C48.9699 35.9491 48.9098 36.0224 48.837 36.0818C48.7642 36.1411 48.6802 36.1852 48.59 36.2114C48.5237 36.2218 48.4563 36.2218 48.39 36.2114H33.21C33.0217 36.2114 32.8411 36.1366 32.708 36.0034C32.5748 35.8703 32.5 35.6897 32.5 35.5014V32.9314C32.5 32.7314 32.5 32.2214 31.5 32.2214C33.91 29.5914 35.8 26.4914 36 23.7214Z" fill="#BF9051"/>
<path d="M45 16.2214H37L36 20.2214H46.5L45 16.2214Z" fill="#3459A5"/>
<path d="M47.5 24.2214H36L34.5 28.2214H48.5L47.5 24.2214Z" fill="#3459A5"/>
<path d="M50 32.2214H32.5V36.2214H51L50 32.2214Z" fill="#3459A5"/>
<path d="M37.5 12.2214H44L42.32 7.65139L41.89 7.3014C41.2802 7.29764 40.6806 7.45699 40.1531 7.76292C39.6256 8.06886 39.1895 8.51026 38.89 9.0414C38.1771 9.97384 37.7002 11.0648 37.5 12.2214Z" fill="#3459A5"/>
<path d="M32.5 34.7214V47.7214C35.8842 47.3405 39.2297 46.6714 42.5 45.7214C42.586 44.217 42.9864 42.7474 43.6753 41.4074C44.3643 40.0673 45.3266 38.8866 46.5 37.9414C45.8852 37.5488 45.2093 37.2615 44.5 37.0914C40.22 36.1814 32.5 34.7214 32.5 34.7214Z" fill="#EABF73"/>
<path d="M8.21997 12.2213H14.52C14.36 11.5513 13.61 8.10134 10.63 7.22134C10.4234 7.17072 10.2052 7.20036 10.0196 7.3043C9.83402 7.40824 9.69477 7.57873 9.62997 7.78134L8.21997 12.2213Z" fill="#4668BC"/>
<path d="M32.5 34.7214V47.8514C35.8676 47.3958 39.2064 46.7481 42.5 45.9114C42.6416 43.2293 43.7499 40.6892 45.62 38.7614L33.62 36.0914C33.3033 36.0287 33.0182 35.8576 32.8139 35.6076C32.6095 35.3576 32.4985 35.0443 32.5 34.7214Z" fill="#D8AD68"/>
<path d="M26 2.22137C18.33 2.22137 16 7.54137 16 13.2214V23.7214C16 26.8614 18.67 30.3914 21.5 33.2214C22.0415 33.8833 22.7307 34.4091 23.5122 34.7564C24.2937 35.1037 25.1458 35.263 26 35.2214C26.8542 35.263 27.7063 35.1037 28.4878 34.7564C29.2693 34.4091 29.9585 33.8833 30.5 33.2214C33.33 30.3914 36 26.8614 36 23.7214V13.2214C36 7.54137 33.67 2.22137 26 2.22137Z" fill="#F2C783"/>
<path d="M36 13.2214C36 7.54136 33.67 2.22136 26 2.22136C24.3557 2.17981 22.7218 2.49362 21.21 3.14136V27.0014C21.21 29.6914 23.16 32.6514 25.5 35.2314H26C26.8542 35.273 27.7062 35.1137 28.4878 34.7664C29.2693 34.4191 29.9584 33.8933 30.5 33.2314C33.33 30.4014 36 26.8714 36 23.7314V13.2214Z" fill="#EABF73"/>
<path d="M20.5801 18.2914C20.8129 18.5405 21.1302 18.6938 21.4701 18.7214C22.4902 18.8626 23.4337 19.3414 24.1501 20.0814C24.1875 20.118 24.2377 20.1386 24.2901 20.1386C24.3424 20.1386 24.3927 20.118 24.4301 20.0814C24.4605 20.0619 24.4848 20.0342 24.5001 20.0014V17.8214C24.5105 17.65 24.4682 17.4795 24.3788 17.3329C24.2894 17.1863 24.1572 17.0706 24.0001 17.0014C23.2062 16.6526 22.3627 16.4299 21.5001 16.3414C21.3464 16.3347 21.1929 16.3583 21.0484 16.411C20.9038 16.4637 20.7711 16.5444 20.6578 16.6484C20.5445 16.7524 20.4528 16.8778 20.388 17.0173C20.3232 17.1568 20.2865 17.3077 20.2801 17.4614C20.271 17.7661 20.3783 18.0629 20.5801 18.2914Z" fill="#D8AD68"/>
<path d="M33.4201 16.7813C31.4201 16.7213 31.42 17.7813 31.42 18.3113C31.42 18.6313 30.9101 18.7113 30.5901 18.7313C29.9079 18.8014 29.2365 18.9525 28.5901 19.1813C28.4897 19.2151 28.3835 19.2281 28.278 19.2194C28.1724 19.2108 28.0697 19.1808 27.9762 19.1312C27.8826 19.0816 27.8001 19.0135 27.7337 18.931C27.6674 18.8485 27.6185 18.7533 27.5901 18.6513C27.5803 18.5817 27.5803 18.511 27.5901 18.4413V17.8213C27.5703 17.6595 27.5986 17.4954 27.6716 17.3496C27.7445 17.2038 27.8587 17.0826 28.0001 17.0013C28.8388 16.5906 29.7538 16.359 30.6869 16.3211C31.62 16.2832 32.5508 16.44 33.4201 16.7813Z" fill="#D8AD68"/>
<path d="M32.4801 22.3814H30.2601C30.193 22.3759 30.1256 22.3838 30.0616 22.4045C29.9977 22.4252 29.9384 22.4583 29.8873 22.502C29.8362 22.5457 29.7942 22.599 29.7638 22.659C29.7334 22.7189 29.7151 22.7843 29.7101 22.8514C29.6856 22.9363 29.6856 23.0264 29.7101 23.1114L30.4701 24.5914C30.4985 24.6537 30.5143 24.7211 30.5166 24.7896C30.5189 24.8581 30.5077 24.9263 30.4835 24.9904C30.4594 25.0546 30.4228 25.1133 30.3758 25.1632C30.3289 25.2131 30.2726 25.2533 30.2101 25.2814C30.1312 25.3005 30.0489 25.3005 29.9701 25.2814H29.0701C29.0018 25.2773 28.9333 25.2868 28.8687 25.3092C28.804 25.3317 28.7444 25.3667 28.6933 25.4122C28.6423 25.4577 28.6006 25.5129 28.5709 25.5745C28.5412 25.6362 28.5239 25.7031 28.5201 25.7714C28.5096 25.8376 28.5096 25.9051 28.5201 25.9714C28.8601 26.8314 29.2301 27.7514 29.5201 28.5214C30.0101 29.6814 30.8301 29.2014 31.1601 28.7714C32.3084 27.3242 33.1705 25.6713 33.7001 23.9014C33.7683 23.5661 33.7016 23.2174 33.5144 22.931C33.3271 22.6445 33.0346 22.4435 32.7001 22.3714C32.6266 22.3673 32.5529 22.3706 32.4801 22.3814Z" fill="#E2B66F"/>
<path d="M29.07 28.7914L28.23 28.0014C28.0131 27.7814 27.7385 27.6271 27.4377 27.5563C27.137 27.4855 26.8223 27.5012 26.53 27.6014C26.1853 27.7116 25.8148 27.7116 25.47 27.6014C25.1778 27.5012 24.8631 27.4855 24.5624 27.5563C24.2616 27.6271 23.987 27.7814 23.77 28.0014L22.93 28.8414C22.8944 28.8758 22.8697 28.92 22.8592 28.9684C22.8487 29.0168 22.8528 29.0673 22.871 29.1133C22.8892 29.1594 22.9207 29.199 22.9615 29.2272C23.0023 29.2553 23.0505 29.2707 23.1 29.2714H28.9C28.9308 29.284 28.9638 29.2901 28.997 29.2893C29.0302 29.2885 29.0629 29.2808 29.093 29.2667C29.1231 29.2526 29.1499 29.2324 29.1718 29.2074C29.1936 29.1824 29.2101 29.1531 29.22 29.1214C29.2429 29.0577 29.24 28.9876 29.212 28.9259C29.184 28.8643 29.1331 28.8161 29.07 28.7914Z" fill="#BF9051"/>
<path d="M44 40.2214H32.5V44.2214H42.5L44 40.2214Z" fill="#3459A5"/>
<path d="M42.5 48.2214H32.5V52.2214H42.5V48.2214Z" fill="#3459A5"/>
<path d="M40 56.2214H32.5V58.7214H36L40 56.2214Z" fill="#3459A5"/>
<path d="M37 16.2214H43.16C43.56 17.5314 43.98 18.8714 44.39 20.2214H37V16.2214Z" fill="#2E5599"/>
<path d="M36 24.2214H45.64C46.06 25.5714 46.48 26.9114 46.88 28.2214H34.53C35.3052 27.0109 35.8068 25.6458 36 24.2214Z" fill="#2E5599"/>
<path d="M49.36 36.2214H32.5V32.2214H48.12C48.56 33.6314 49 35.0014 49.36 36.2214Z" fill="#2E5599"/>
<path d="M41.93 12.2214H37.48C37.6352 11.2796 37.9814 10.3794 38.4973 9.57633C39.0132 8.77323 39.6879 8.08413 40.48 7.55139C40.8165 7.38861 41.1937 7.32928 41.564 7.3809C41.9342 7.43252 42.2808 7.59277 42.56 7.84139C42.1813 7.8278 41.8126 7.96399 41.5337 8.22044C41.2548 8.47689 41.0882 8.83294 41.07 9.21139C41.0624 9.40959 41.0965 9.60716 41.17 9.79139C41.42 10.5714 41.67 11.3814 41.93 12.2214Z" fill="#2E5599"/>
<path d="M41.5 7.22137C41.7219 7.21189 41.9406 7.27652 42.1216 7.40508C42.3027 7.53363 42.4358 7.71879 42.5 7.93137V7.93137L51 35.7214C48.6172 36.277 46.4877 37.6111 44.9482 39.5128C43.4088 41.4145 42.5473 43.7751 42.5 46.2214V49.7214C42.5212 50.8823 42.3135 52.036 41.8887 53.1167C41.4639 54.1973 40.8304 55.1837 40.0244 56.0195C39.2183 56.8552 38.2555 57.524 37.191 57.9876C36.1264 58.4512 34.9809 58.7005 33.82 58.7214H32.5V31.2214" stroke="#333333" stroke-width="1.5" stroke-linecap="round" stroke-linejoin="round"/>
<path d="M39.59 7.22137H41.5C40.94 7.22137 37 8.22137 37 16.7214" stroke="#333333" stroke-width="1.5" stroke-linejoin="round"/>
<path d="M44 12.2214H37.5" stroke="#333333" stroke-linejoin="round"/>
<path d="M45 16.2214H37" stroke="#333333" stroke-linejoin="round"/>
<path d="M46 20.2214H40" stroke="#333333" stroke-linejoin="round"/>
<path d="M47.5 24.2214H38.5" stroke="#333333" stroke-linejoin="round"/>
<path d="M49 28.2214H34.5" stroke="#333333" stroke-linejoin="round"/>
<path d="M50 32.2214H32.5" stroke="#333333" stroke-linejoin="round"/>
<path d="M50 36.2214H32.5" stroke="#333333" stroke-linejoin="round"/>
<path d="M44.5 40.2214H32.5" stroke="#333333" stroke-linejoin="round"/>
<path d="M42.5 44.2214H32.5" stroke="#333333" stroke-linejoin="round"/>
<path d="M42.5 48.2214H32.5" stroke="#333333" stroke-linejoin="round"/>
<path d="M42.5 52.2214H32.5" stroke="#333333" stroke-linejoin="round"/>
<path d="M39.5 56.2214H32.5" stroke="#333333" stroke-linejoin="round"/>
<path d="M7 16.2214H15L16 20.2214H5.5L7 16.2214Z" fill="#4668BC"/>
<path d="M8.43007 17.5113L8.00007 18.8213C7.97214 18.908 7.96163 18.9993 7.96916 19.0901C7.97668 19.1808 8.0021 19.2692 8.04393 19.35C8.08576 19.4309 8.14318 19.5027 8.21289 19.5613C8.28259 19.6199 8.3632 19.6641 8.45007 19.6913C8.51974 19.7011 8.59041 19.7011 8.66007 19.6913H15.0001V16.6913H9.51007C9.26598 16.6944 9.02932 16.7757 8.8349 16.9233C8.64048 17.0709 8.49858 17.277 8.43007 17.5113Z" fill="#3459A5"/>
<path d="M4.5 24.2214H16L17.5 28.2214H3.5L4.5 24.2214Z" fill="#4668BC"/>
<path d="M6.05009 27.7214H17.1901C16.6511 26.7933 16.2788 25.7779 16.0901 24.7214H7.00009C6.75946 24.7221 6.52546 24.8003 6.33274 24.9444C6.14003 25.0885 5.99884 25.2908 5.93009 25.5214L5.50009 27.0014C5.48038 27.0736 5.47509 27.149 5.48453 27.2233C5.49396 27.2975 5.51794 27.3692 5.55508 27.4342C5.59223 27.4992 5.64181 27.5563 5.70101 27.6021C5.76021 27.648 5.82785 27.6817 5.90009 27.7014L6.05009 27.7214Z" fill="#3459A5"/>
<path d="M2 32.2214H19.5V36.2214H1L2 32.2214Z" fill="#4668BC"/>
<path d="M3.82005 35.7014H19.5001V32.7014H4.87005C4.53809 32.702 4.21511 32.8093 3.94868 33.0073C3.68225 33.2054 3.48643 33.4837 3.39005 33.8014L3.10005 34.7114C3.06259 34.8089 3.04566 34.9132 3.05031 35.0176C3.05497 35.122 3.0811 35.2243 3.12709 35.3182C3.17307 35.412 3.23792 35.4954 3.31758 35.563C3.39724 35.6307 3.48999 35.6812 3.59005 35.7114C3.66683 35.7178 3.74412 35.7144 3.82005 35.7014Z" fill="#3459A5"/>
<path d="M8 40.2214H19.5V44.2214H9.5L8 40.2214Z" fill="#4668BC"/>
<path d="M17.9999 43.1514V41.2814C17.9973 41.131 17.9365 40.9875 17.8301 40.8812C17.7238 40.7748 17.5803 40.7139 17.4299 40.7114H10.5499C10.4737 40.7127 10.3986 40.729 10.3287 40.7593C10.2588 40.7897 10.1956 40.8335 10.1427 40.8883C10.0898 40.9431 10.0481 41.0078 10.0202 41.0786C9.99228 41.1495 9.97858 41.2252 9.97991 41.3014C9.96959 41.3676 9.96959 41.4351 9.97991 41.5014C10.2225 42.0775 10.4165 42.6729 10.5599 43.2814C10.589 43.4057 10.6591 43.5167 10.7588 43.5965C10.8585 43.6763 10.9822 43.7203 11.1099 43.7214H17.3899C17.4634 43.7227 17.5365 43.7095 17.605 43.6826C17.6734 43.6557 17.7359 43.6155 17.7888 43.5644C17.8418 43.5134 17.8841 43.4524 17.9135 43.3849C17.9428 43.3175 17.9586 43.2449 17.9599 43.1714L17.9999 43.1514Z" fill="#3459A5"/>
<path d="M19.5 48.2214H9.5V52.2214H19.5V48.2214Z" fill="#4668BC"/>
<path d="M17.32 48.7214H11.68C11.5012 48.7264 11.3312 48.7997 11.2047 48.9261C11.0783 49.0526 11.005 49.2226 11 49.4014V49.7214C11.0015 50.2047 11.0484 50.6868 11.14 51.1614C11.1702 51.3167 11.2537 51.4566 11.376 51.557C11.4983 51.6574 11.6518 51.712 11.81 51.7114H17.32C17.4123 51.7129 17.5039 51.6954 17.5891 51.6598C17.6743 51.6243 17.7512 51.5716 17.8151 51.5049C17.8789 51.4382 17.9283 51.3591 17.9601 51.2724C17.9919 51.1858 18.0055 51.0935 18 51.0014V49.4014C18 49.221 17.9284 49.0481 17.8008 48.9205C17.6733 48.793 17.5003 48.7214 17.32 48.7214Z" fill="#3459A5"/>
<path d="M12 56.2214H19.5V58.7214H16L12 56.2214Z" fill="#4668BC"/>
<path d="M26 1.72137C24.8186 1.73968 23.6395 1.8332 22.47 2.00137C22.47 2.00137 24.47 9.18137 24.47 13.6814H27.47C27.47 9.18137 29.47 2.00137 29.47 2.00137C28.32 1.83818 27.1612 1.74468 26 1.72137Z" fill="#4668BC"/>
<path d="M34.53 3.65137C34.53 3.65137 31 8.72137 31 13.7214L34 14.2214C34 9.22137 37.5 5.22137 37.5 5.22137L34.53 3.65137Z" fill="#4668BC"/>
<path d="M34 14.2214C34 9.22137 37.5 5.22137 37.5 5.22137" stroke="#333333" stroke-width="1.5" stroke-linejoin="round"/>
<path d="M34.53 3.65137C34.53 3.65137 31 8.72137 31 13.7214" stroke="#333333" stroke-width="1.5" stroke-linejoin="round"/>
<path d="M21 13.7214C21 8.72137 17.47 3.65137 17.47 3.65137L14.47 5.22137C14.47 5.22137 17.97 9.22137 17.97 14.2214L21 13.7214Z" fill="#4668BC"/>
<path d="M11 11.7313H14.43C13.72 8.83134 12.48 8.14134 11.56 7.56134C11.2235 7.39856 10.8462 7.33923 10.476 7.39085C10.1058 7.44247 9.75914 7.60272 9.47998 7.85134C9.66995 7.84056 9.86017 7.86753 10.0397 7.93071C10.2191 7.99388 10.3843 8.09199 10.5257 8.21938C10.667 8.34677 10.7817 8.50091 10.8631 8.67289C10.9445 8.84487 10.991 9.03128 11 9.22134C11.0075 9.41954 10.9735 9.61711 10.9 9.80134L10.44 11.0013C10.3955 11.1433 10.4082 11.2969 10.4755 11.4296C10.5428 11.5622 10.6592 11.6634 10.8 11.7113C10.8653 11.7279 10.9327 11.7346 11 11.7313Z" fill="#3459A5"/>
<path d="M24.22 17.7714C22.8534 16.9526 21.2483 16.6246 19.67 16.8414C18.897 16.9834 18.1756 17.3285 17.58 17.8414C16.9691 18.3923 16.4934 19.0767 16.19 19.8414C16.1682 19.8886 16.1288 19.9254 16.0803 19.9441C16.0317 19.9627 15.9778 19.9618 15.93 19.9414C15.8849 19.9197 15.849 19.8825 15.8288 19.8367C15.8086 19.7908 15.8055 19.7393 15.82 19.6914C16.1013 18.8493 16.5619 18.0782 17.17 17.4314C17.7993 16.7531 18.6013 16.2588 19.49 16.0014C21.2735 15.6008 23.1404 15.8232 24.78 16.6314C24.8537 16.6666 24.9197 16.7161 24.9742 16.777C25.0287 16.8379 25.0706 16.9089 25.0976 16.9861C25.1245 17.0632 25.136 17.1449 25.1312 17.2265C25.1265 17.308 25.1057 17.3879 25.07 17.4614C25.0025 17.6062 24.8809 17.7187 24.7313 17.7748C24.5817 17.8309 24.4161 17.8261 24.27 17.7614L24.22 17.7714Z" fill="#333333"/>
<path d="M27.2199 16.6713C28.8547 15.8496 30.7218 15.6132 32.5099 16.0013C33.392 16.2381 34.1958 16.7038 34.8399 17.3513C35.448 17.9982 35.9086 18.7693 36.1899 19.6113C36.2056 19.6617 36.2008 19.7163 36.1764 19.7631C36.1521 19.81 36.1102 19.8453 36.0599 19.8613C36.0383 19.8714 36.0149 19.877 35.991 19.8779C35.9672 19.8788 35.9434 19.8749 35.9211 19.8665C35.8988 19.8582 35.8783 19.8454 35.861 19.8291C35.8436 19.8127 35.8296 19.7931 35.8199 19.7713C35.5165 19.0067 35.0409 18.3223 34.4299 17.7713C33.8343 17.2585 33.113 16.9134 32.3399 16.7713C30.7616 16.5545 29.1566 16.8826 27.7899 17.7013C27.6505 17.7815 27.4851 17.8033 27.3297 17.7621C27.1742 17.7209 27.0413 17.62 26.9599 17.4813C26.8796 17.3377 26.8588 17.1683 26.9018 17.0095C26.9447 16.8506 27.0482 16.7149 27.1899 16.6313L27.2199 16.6713Z" fill="#333333"/>
<path d="M27.25 31.2214H24.75" stroke="#BF9051" stroke-miterlimit="10" stroke-linecap="round"/>
<path d="M12.3201 7.22134C16.0007 3.69358 20.9018 1.72406 26.0001 1.72406C31.0983 1.72406 35.9995 3.69358 39.6801 7.22134" stroke="#333333" stroke-width="1.36" stroke-linecap="round" stroke-linejoin="round"/>
<path d="M10.5 7.22137C10.2781 7.21189 10.0594 7.27652 9.87838 7.40508C9.69732 7.53363 9.56419 7.71879 9.5 7.93137L1 35.7214C3.38277 36.277 5.51229 37.6111 7.05175 39.5128C8.5912 41.4145 9.45271 43.7751 9.5 46.2214V49.7214C9.4788 50.8823 9.68651 52.036 10.1113 53.1167C10.5361 54.1973 11.1696 55.1837 11.9756 56.0195C12.7817 56.8552 13.7445 57.524 14.809 57.9876C15.8736 58.4512 17.0191 58.7005 18.18 58.7214H19.5V31.2214" stroke="#333333" stroke-width="1.5" stroke-linecap="round" stroke-linejoin="round"/>
<path d="M16 20.7214H18.5C18.5 19.3514 19.62 18.7214 21 18.7214C22.38 18.7214 23.5 19.3414 23.5 20.7214H18.5" fill="white"/>
<path d="M36 20.7214H33.5C33.5 19.3514 32.38 18.7214 31 18.7214C29.62 18.7214 28.5 19.3414 28.5 20.7214H33.5" fill="white"/>
<path d="M21 20.7214C21.5523 20.7214 22 20.2737 22 19.7214C22 19.1691 21.5523 18.7214 21 18.7214C20.4477 18.7214 20 19.1691 20 19.7214C20 20.2737 20.4477 20.7214 21 20.7214Z" fill="#333333"/>
<path d="M31 20.7214C31.5523 20.7214 32 20.2737 32 19.7214C32 19.1691 31.5523 18.7214 31 18.7214C30.4477 18.7214 30 19.1691 30 19.7214C30 20.2737 30.4477 20.7214 31 20.7214Z" fill="#333333"/>
<path d="M14.5 5.22137C14.5 5.22137 18 9.22137 18 14.2214L14.5 5.22137Z" fill="#EABF73"/>
<path d="M14.5 5.22137C14.5 5.22137 18 9.22137 18 14.2214" stroke="#333333" stroke-width="1.5" stroke-linejoin="round"/>
<path d="M17.47 3.65137C17.47 3.65137 21 8.72137 21 13.7214L17.47 3.65137Z" fill="#EABF73"/>
<path d="M17.47 3.65137C17.47 3.65137 21 8.72137 21 13.7214" stroke="#333333" stroke-width="1.5" stroke-linejoin="round"/>
<path d="M29.53 2.00134C29.53 2.00134 27.53 9.18134 27.53 13.6813L29.53 2.00134Z" fill="#EABF73"/>
<path d="M29.53 2.00134C29.53 2.00134 27.53 9.18134 27.53 13.6813" stroke="#333333" stroke-width="1.5" stroke-linejoin="round"/>
<path d="M12.41 7.22137H10.5C11.06 7.22137 15 8.22137 15 16.7214" stroke="#333333" stroke-width="1.5" stroke-linejoin="round"/>
<path d="M8 12.2214H14.5" stroke="#333333" stroke-linejoin="round"/>
<path d="M7 16.2214H15" stroke="#333333" stroke-linejoin="round"/>
<path d="M6 20.2214H12" stroke="#333333" stroke-linejoin="round"/>
<path d="M4.5 24.2214H13.5" stroke="#333333" stroke-linejoin="round"/>
<path d="M3 28.2214H17.5" stroke="#333333" stroke-linejoin="round"/>
<path d="M2 32.2214H19.5" stroke="#333333" stroke-linejoin="round"/>
<path d="M2 36.2214H19.5" stroke="#333333" stroke-linejoin="round"/>
<path d="M7.5 40.2214H19.5" stroke="#333333" stroke-linejoin="round"/>
<path d="M9.5 44.2214H19.5" stroke="#333333" stroke-linejoin="round"/>
<path d="M9.5 48.2214H19.5" stroke="#333333" stroke-linejoin="round"/>
<path d="M9.5 52.2214H19.5" stroke="#333333" stroke-linejoin="round"/>
<path d="M12.5 56.2214H19.5" stroke="#333333" stroke-linejoin="round"/>
<path d="M32.0001 11.2214H20.0001C18.9651 11.2099 17.9454 11.4709 17.0432 11.9782C16.141 12.4854 15.3881 13.2211 14.8601 14.1114C15.0934 15.7312 15.2171 17.3649 15.2301 19.0014C15.2271 19.0174 15.2278 19.0339 15.232 19.0496C15.2361 19.0654 15.2438 19.08 15.2543 19.0924C15.2648 19.1049 15.278 19.1148 15.2928 19.1216C15.3077 19.1283 15.3238 19.1316 15.3401 19.1314C15.3651 19.1353 15.3907 19.1305 15.4126 19.1177C15.4344 19.105 15.4512 19.0851 15.4601 19.0614C17.3401 15.6014 18.0001 14.2214 20.0001 14.2214H32.0001C34.0001 14.2214 34.5901 15.5014 36.5401 19.0314C36.5549 19.0594 36.5788 19.0817 36.6079 19.0944C36.6369 19.1071 36.6695 19.1096 36.7001 19.1014C36.7246 19.0906 36.7448 19.072 36.7575 19.0484C36.7701 19.0249 36.7746 18.9977 36.7701 18.9714C36.7882 17.3451 36.9118 15.7217 37.1401 14.1114C36.6152 13.2183 35.863 12.4804 34.9601 11.9727C34.0572 11.4651 33.0358 11.2058 32.0001 11.2214Z" fill="#EABF73"/>
<path d="M32 11.2214H20.74C20.3422 11.2214 19.9606 11.3794 19.6793 11.6607C19.398 11.942 19.24 12.3235 19.24 12.7214C19.24 13.1192 19.398 13.5007 19.6793 13.782C19.9606 14.0633 20.3422 14.2214 20.74 14.2214H32C34 14.2214 34.59 15.5014 36.54 19.0314C36.5548 19.0594 36.5787 19.0817 36.6077 19.0944C36.6368 19.1071 36.6693 19.1096 36.7 19.1014C36.7245 19.0906 36.7447 19.072 36.7573 19.0484C36.77 19.0249 36.7745 18.9977 36.77 18.9714C36.7881 17.3451 36.9116 15.7217 37.14 14.1114C36.6151 13.2183 35.8629 12.4804 34.96 11.9727C34.0571 11.4651 33.0357 11.2058 32 11.2214Z" fill="#D8AD68"/>
<path d="M32.0001 11.2214H20.0001C18.9651 11.2099 17.9454 11.4709 17.0432 11.9782C16.141 12.4854 15.3881 13.2211 14.8601 14.1114C15.0934 15.7312 15.2171 17.3649 15.2301 19.0014C15.2271 19.0174 15.2278 19.0339 15.232 19.0496C15.2361 19.0654 15.2438 19.08 15.2543 19.0924C15.2648 19.1049 15.278 19.1148 15.2928 19.1216C15.3077 19.1283 15.3238 19.1316 15.3401 19.1314C15.3651 19.1353 15.3907 19.1305 15.4126 19.1177C15.4344 19.105 15.4512 19.0851 15.4601 19.0614C17.3401 15.6014 18.0001 14.2214 20.0001 14.2214H32.0001C34.0001 14.2214 34.5901 15.5014 36.5401 19.0314C36.5549 19.0594 36.5788 19.0817 36.6079 19.0944C36.6369 19.1071 36.6695 19.1096 36.7001 19.1014C36.7246 19.0906 36.7448 19.072 36.7575 19.0484C36.7701 19.0249 36.7746 18.9977 36.7701 18.9714C36.7882 17.3451 36.9118 15.7217 37.1401 14.1114C36.6152 13.2183 35.863 12.4804 34.9601 11.9727C34.0572 11.4651 33.0358 11.2058 32.0001 11.2214V11.2214Z" stroke="#333333" stroke-width="1.5" stroke-linejoin="round"/>
<path d="M29.63 1.60137C29.6703 1.96077 29.57 2.32183 29.35 2.6089C29.1301 2.89598 28.8075 3.08679 28.45 3.14137C28.0907 3.08912 27.7657 2.89929 27.5437 2.61196C27.3216 2.32463 27.2199 1.96227 27.26 1.60137C27.26 0.751367 27.79 1.05137 28.45 1.05137C29.11 1.05137 29.63 0.751367 29.63 1.60137Z" fill="#EABF73" stroke="#333333" stroke-width="1.24" stroke-linecap="round" stroke-linejoin="round"/>
<path d="M26.06 6.16137V6.24137H30.81V6.16137C30.86 5.54256 30.7115 4.9239 30.386 4.39522C30.0606 3.86654 29.5751 3.45536 29 3.22137H28C27.4016 3.43484 26.8888 3.83702 26.5389 4.36731C26.189 4.89759 26.0209 5.52725 26.06 6.16137Z" fill="#430E00"/>
<path d="M26.4601 9.27136H30.4601C30.66 8.28171 30.7903 7.27925 30.8501 6.27136H26.0701C26.1298 7.27925 26.2601 8.28171 26.4601 9.27136Z" fill="#8C0900"/>
<path d="M26.46 9.27136C26.74 10.8314 27.06 12.2714 27.06 12.2714H29.83C29.83 12.2714 30.15 10.8014 30.43 9.27136H26.46Z" fill="#79A48E"/>
<path d="M29.8301 12.3014C30.2986 10.279 30.6327 8.22788 30.8301 6.16138C30.8301 4.49138 29.7601 3.16138 28.4501 3.16138C27.1401 3.16138 26.0601 4.51138 26.0601 6.16138C26.2574 8.22788 26.5915 10.279 27.0601 12.3014C27.4699 12.5757 27.9519 12.7221 28.4451 12.7221C28.9382 12.7221 29.4202 12.5757 29.8301 12.3014Z" stroke="#333333" stroke-width="1.24" stroke-linecap="round" stroke-linejoin="round"/>
<path d="M26.0601 6.16138H30.8301" stroke="#333333" stroke-width="0.83" stroke-linejoin="round"/>
<path d="M26.4299 9.41138H30.5499" stroke="#333333" stroke-width="0.83" stroke-linejoin="round"/>
<path d="M21.3599 7.17139H23.9999V11.0914C23.9999 11.4362 23.8629 11.7668 23.6191 12.0106C23.3753 12.2544 23.0446 12.3914 22.6999 12.3914C22.3551 12.3914 22.0244 12.2544 21.7806 12.0106C21.5368 11.7668 21.3999 11.4362 21.3999 11.0914V7.17139H21.3599Z" fill="#EABF73" stroke="#333333" stroke-width="1.4" stroke-linecap="round" stroke-linejoin="round"/>
<path d="M24.41 3.05139H20.91L20.33 5.30139C20.309 5.62088 20.3539 5.94126 20.4618 6.24271C20.5697 6.54416 20.7382 6.82027 20.9571 7.05394C21.176 7.28762 21.4405 7.47389 21.7343 7.60123C22.028 7.72858 22.3448 7.79428 22.665 7.79428C22.9851 7.79428 23.3019 7.72858 23.5956 7.60123C23.8894 7.47389 24.1539 7.28762 24.3728 7.05394C24.5917 6.82027 24.7602 6.54416 24.8681 6.24271C24.976 5.94126 25.0209 5.62088 25 5.30139L24.41 3.05139Z" fill="#EABF73"/>
<path d="M20.9098 3.05139C20.9098 3.05139 22.5698 4.51139 20.3298 5.30139L20.9098 3.05139Z" fill="#BF9051"/>
<path d="M24.4101 3.05139C24.4101 3.05139 22.7501 4.51139 25.0001 5.30139L24.4101 3.05139Z" fill="#BF9051"/>
<path d="M21.5798 9.04138H23.9098" stroke="#333333" stroke-width="0.47" stroke-linecap="round" stroke-linejoin="round"/>
<path d="M21.5798 9.97137H23.9098" stroke="#333333" stroke-width="0.47" stroke-linecap="round" stroke-linejoin="round"/>
<path d="M21.5798 10.9014H23.9098" stroke="#333333" stroke-width="0.47" stroke-linecap="round" stroke-linejoin="round"/>
<path d="M23.27 6.0014C23.6382 5.74924 24.0737 5.61338 24.52 5.6114H24.6C24.1892 5.07718 23.6965 4.61141 23.14 4.2314C22.9915 4.13376 22.8177 4.08173 22.64 4.08173C22.4623 4.08173 22.2884 4.13376 22.14 4.2314C21.5786 4.60283 21.0932 5.078 20.71 5.6314H20.85C21.2834 5.63731 21.7063 5.76557 22.07 6.0014C22.2522 6.1301 22.4506 6.23432 22.66 6.3114C22.8791 6.24262 23.0852 6.13785 23.27 6.0014Z" fill="#BF9051"/>
<path d="M24.41 3.05139H20.91L20.33 5.30139C20.309 5.62088 20.3539 5.94126 20.4618 6.24271C20.5697 6.54416 20.7382 6.82027 20.9571 7.05394C21.176 7.28762 21.4405 7.47389 21.7343 7.60123C22.028 7.72858 22.3448 7.79428 22.665 7.79428C22.9851 7.79428 23.3019 7.72858 23.5956 7.60123C23.8894 7.47389 24.1539 7.28762 24.3728 7.05394C24.5917 6.82027 24.7602 6.54416 24.8681 6.24271C24.976 5.94126 25.0209 5.62088 25 5.30139L24.41 3.05139Z" stroke="#333333" stroke-width="1.17" stroke-linecap="round" stroke-linejoin="round"/>
<path d="M23.8799 25.2214L25.0399 25.5414C25.6523 25.7517 26.3174 25.7517 26.9299 25.5414L28.1199 25.2214" stroke="#BF9051" stroke-miterlimit="10" stroke-linecap="round"/>
<path d="M16 20.7214H18.5C18.5 19.3514 19.62 18.7214 21 18.7214C21.4974 18.6556 22.0027 18.755 22.4381 19.0043C22.8735 19.2537 23.2149 19.6391 23.41 20.1014C23.4285 20.1618 23.4349 20.2252 23.4288 20.2881C23.4227 20.351 23.4043 20.412 23.3746 20.4678C23.3448 20.5235 23.3044 20.5729 23.2556 20.6129C23.2067 20.653 23.1505 20.6831 23.09 20.7014H22.95H18.5" stroke="#333333" stroke-miterlimit="10"/>
<path d="M35.9999 20.7214H33.4999C33.4999 19.3514 32.3799 18.7214 30.9999 18.7214C30.5025 18.6556 29.9972 18.755 29.5618 19.0043C29.1264 19.2537 28.7849 19.6391 28.5899 20.1014C28.5714 20.1618 28.565 20.2252 28.5711 20.2881C28.5772 20.351 28.5956 20.412 28.6253 20.4678C28.655 20.5235 28.6955 20.5729 28.7443 20.6129C28.7932 20.653 28.8494 20.6831 28.9099 20.7014H29.0499H33.4999" stroke="#333333" stroke-miterlimit="10"/>
<path d="M13.0001 23.7214C13.3348 24.3344 13.5069 25.0229 13.5001 25.7214C13.5001 26.2214 13.5001 27.7214 14.7501 27.7214C16.0001 27.7214 16.0001 26.2214 16.0001 26.2214V22.2214C16.0001 16.0614 9.16006 17.3414 13.0001 23.7214Z" fill="#D8AD68"/>
<path d="M14.59 18.6014C13.5 19.1114 12.94 20.9814 14.75 23.9814C15.0885 24.5929 15.2609 25.2825 15.25 25.9814C15.221 26.4805 15.3173 26.9789 15.53 27.4314C15.8317 27.1005 15.9993 26.6691 16 26.2214V22.2214C16.0647 21.5497 15.9709 20.8723 15.726 20.2435C15.4811 19.6148 15.092 19.0523 14.59 18.6014Z" fill="#BF9051"/>
<path d="M13.0001 23.7214C13.3348 24.3344 13.5069 25.0229 13.5001 25.7214C13.5001 26.2214 13.5001 27.7214 14.7501 27.7214C16.0001 27.7214 16.0001 26.2214 16.0001 26.2214V22.2214C16.0001 16.0614 9.16006 17.3414 13.0001 23.7214Z" stroke="#333333" stroke-width="1.52" stroke-linecap="round" stroke-linejoin="round"/>
<path d="M16 18.0013V23.7113C16 26.8513 18.67 30.3813 21.5 33.2113C22.0415 33.8733 22.7307 34.399 23.5122 34.7464C24.2937 35.0937 25.1458 35.253 26 35.2113C26.8542 35.253 27.7063 35.0937 28.4878 34.7464C29.2693 34.399 29.9585 33.8733 30.5 33.2113C33.33 30.3813 36 26.8513 36 23.7113V18.0513" stroke="#333333" stroke-width="1.5" stroke-linejoin="round"/>
<path d="M39 23.7214C38.6653 24.3344 38.4932 25.0229 38.5 25.7214C38.5 26.2214 38.5 27.7214 37.25 27.7214C36 27.7214 36 26.2214 36 26.2214V22.2214C36 16.0614 42.84 17.3414 39 23.7214Z" fill="#BF9051"/>
<path d="M37.4101 18.6014C38.5001 19.1114 39.0601 20.9814 37.2501 23.9814C36.9116 24.5929 36.7392 25.2825 36.7501 25.9814C36.7791 26.4805 36.6828 26.9789 36.4701 27.4314C36.1684 27.1005 36.0008 26.6691 36.0001 26.2214V22.2214C35.9354 21.5497 36.0292 20.8723 36.2741 20.2435C36.519 19.6148 36.9081 19.0523 37.4101 18.6014Z" fill="#B2854F"/>
<path d="M39 23.7214C38.6653 24.3344 38.4932 25.0229 38.5 25.7214C38.5 26.2214 38.5 27.7214 37.25 27.7214C36 27.7214 36 26.2214 36 26.2214V22.2214C36 16.0614 42.84 17.3414 39 23.7214Z" stroke="#333333" stroke-width="1.52" stroke-linecap="round" stroke-linejoin="round"/>
</svg>
