<svg width="47" height="49" viewBox="0 0 47 49" fill="none" xmlns="http://www.w3.org/2000/svg">
<path d="M33.4773 32.4157C33.4773 37.8715 28.7135 38.4126 23.1069 38.4126C17.5003 38.4126 12.7365 37.8626 12.7365 32.4157C12.7365 26.9688 17.4914 22.5953 23.0891 22.5953C28.6869 22.5953 33.4773 26.9599 33.4773 32.4157Z" fill="#666666"/>
<path d="M24.748 23.1364C19.1769 23.1364 14.9276 26.9777 14.9276 32.4157C14.9276 38.4747 21.031 38.4126 23.1157 38.4126C28.7135 38.4126 33.4862 37.8626 33.4862 32.4157C33.4773 27.643 29.6538 23.1276 24.748 23.1364Z" fill="#444444"/>
<path d="M33.4773 32.4157C33.4773 37.8715 28.7135 38.4126 23.1069 38.4126C17.5003 38.4126 12.7365 37.8626 12.7365 32.4157C12.7365 26.9688 17.4914 22.5953 23.0891 22.5953C28.6869 22.5953 33.4773 26.9599 33.4773 32.4157Z" stroke="#333333" stroke-width="1.5" stroke-linejoin="round"/>
<path d="M40.5921 35.84C33.1225 34.6424 30.2571 34.1722 29.0595 33.977V30.9608H17.527V33.977C16.3293 34.1722 13.464 34.6424 5.9944 35.84C1.55879 36.5585 1.22169 42.2716 1.11523 42.9369C2.88948 44.0192 11.5655 47.7984 23.2932 47.8161C35.021 47.8338 43.697 44.0192 45.4713 42.9369C45.3648 42.2716 45.0543 36.5142 40.5921 35.84Z" fill="#E5C2BA"/>
<path d="M40.5921 35.8399C34.3823 34.8552 31.3927 34.3584 29.8579 34.0657C28.8289 36.1504 26.9393 38.1464 23.3553 42.3691C19.8069 38.3061 17.9528 36.1593 16.9148 34.0302C15.4334 34.2697 12.4171 34.7665 5.9944 35.8045C1.55879 36.523 1.22169 42.2361 1.11523 42.9014C2.88948 43.9837 11.5655 47.7628 23.2932 47.7806C35.021 47.7983 43.697 43.9837 45.4713 42.9014C45.3648 42.2716 45.0543 36.5142 40.5921 35.8399Z" fill="#604549"/>
<path d="M5.99432 38.5102C3.24424 38.9538 2.07325 41.2869 1.55872 43.1765C4.05152 44.4983 12.3195 47.7984 23.2932 47.8161C34.2668 47.8338 42.5259 44.4983 45.0365 43.1765C44.5131 41.2869 43.351 38.9538 40.6009 38.5102C34.391 37.5255 31.4014 37.0287 29.8667 36.736H28.0925C26.9836 38.1554 25.4311 39.8764 23.3375 42.3692C21.2173 39.9207 19.7003 38.182 18.5914 36.7094H16.9059L5.99432 38.5102Z" fill="#523638"/>
<path d="M15.1849 40.5772V41.757C15.185 41.821 15.2012 41.8839 15.2319 41.94C15.2627 41.9961 15.307 42.0435 15.3609 42.078C15.4148 42.1124 15.4765 42.1328 15.5403 42.1371C15.6041 42.1415 15.668 42.1298 15.7261 42.103L21.0488 39.5658L19.9576 38.2884L15.1849 40.5772Z" fill="#B2566C"/>
<path d="M31.3393 40.5772V41.757C31.3393 41.821 31.3231 41.8839 31.2923 41.94C31.2616 41.9961 31.2172 42.0435 31.1633 42.078C31.1095 42.1124 31.0478 42.1328 30.984 42.1371C30.9202 42.1415 30.8563 42.1298 30.7982 42.103L25.4755 39.5658L26.5666 38.2884L31.3393 40.5772Z" fill="#B2566C"/>
<path d="M23.2932 42.2805V47.825" stroke="#333333" stroke-width="1.5" stroke-linejoin="round"/>
<path d="M26.6288 38.0223L23.8699 40.728L25.0143 41.8724L28.6248 38.9804L26.6288 38.0223Z" fill="#555555" stroke="#333333" stroke-linejoin="round"/>
<path d="M19.9754 38.0223L22.6723 40.728L21.519 41.8724L17.9883 38.9804L19.9754 38.0223Z" fill="#555555" stroke="#333333" stroke-linejoin="round"/>
<path d="M21.0932 41.4998L22.69 43.6112C22.8078 43.7635 22.9805 43.8637 23.1712 43.8902C23.3619 43.9167 23.5554 43.8675 23.7102 43.7531C23.7639 43.7127 23.8117 43.6649 23.8522 43.6112L25.4667 41.4998C25.524 41.423 25.5656 41.3356 25.589 41.2427C25.6125 41.1498 25.6173 41.0532 25.6033 40.9584C25.5893 40.8636 25.5567 40.7725 25.5074 40.6903C25.4581 40.6082 25.393 40.5366 25.3159 40.4796C25.1913 40.3844 25.038 40.3344 24.8812 40.3377H21.6698C21.574 40.3376 21.479 40.3568 21.3907 40.394C21.3023 40.4312 21.2223 40.4858 21.1554 40.5544C21.0884 40.623 21.0358 40.7043 21.0008 40.7936C20.9657 40.8828 20.9489 40.9781 20.9513 41.074C20.9537 41.2271 21.0033 41.3758 21.0932 41.4998Z" fill="#444444"/>
<path d="M25.5819 41.145H24.2513C24.0094 41.1438 23.7696 41.1904 23.5458 41.2822C23.322 41.374 23.1185 41.509 22.947 41.6797C22.7756 41.8503 22.6395 42.0532 22.5467 42.2765C22.4538 42.4999 22.406 42.7394 22.406 42.9813C22.3925 43.0933 22.3925 43.2065 22.406 43.3184L22.6278 43.6112C22.7456 43.7635 22.9183 43.8637 23.109 43.8902C23.2997 43.9167 23.4932 43.8675 23.648 43.7531C23.7017 43.7127 23.7495 43.6649 23.79 43.6112L25.4223 41.491C25.5039 41.391 25.5588 41.272 25.5819 41.145Z" fill="#333333"/>
<path d="M21.0932 41.4998L22.69 43.6112C22.8078 43.7635 22.9805 43.8637 23.1712 43.8902C23.3619 43.9167 23.5554 43.8675 23.7102 43.7531C23.7639 43.7127 23.8117 43.6649 23.8522 43.6112L25.4667 41.4998C25.524 41.423 25.5656 41.3356 25.589 41.2427C25.6125 41.1498 25.6173 41.0532 25.6033 40.9584C25.5893 40.8636 25.5567 40.7725 25.5074 40.6903C25.4581 40.6082 25.393 40.5366 25.3159 40.4796C25.1913 40.3844 25.038 40.3344 24.8812 40.3377H21.6698C21.574 40.3376 21.479 40.3568 21.3907 40.394C21.3023 40.4312 21.2223 40.4858 21.1554 40.5544C21.0884 40.623 21.0358 40.7043 21.0008 40.7936C20.9657 40.8828 20.9489 40.9781 20.9513 41.074C20.9537 41.2271 21.0033 41.3758 21.0932 41.4998V41.4998Z" stroke="#333333" stroke-linejoin="round"/>
<path d="M22.7167 43.6111L20.8981 47.7629C21.6965 47.7629 22.4949 47.8161 23.2844 47.8161C24.074 47.8161 24.8458 47.8161 25.6176 47.7629L23.8433 43.6466C23.7193 43.7929 23.5425 43.8843 23.3515 43.9009C23.1604 43.9175 22.9705 43.858 22.8231 43.7353L22.7167 43.6111Z" fill="#444444"/>
<path d="M23.8255 43.6111L23.2932 47.8161C24.0739 47.8161 24.8545 47.8161 25.6263 47.7717L23.8255 43.6111Z" fill="#333333"/>
<path d="M22.7167 43.6111L20.8981 47.7629C21.6965 47.7629 22.4949 47.8161 23.2844 47.8161C24.074 47.8161 24.8458 47.8161 25.6176 47.7629L23.8433 43.6466C23.7193 43.7929 23.5425 43.8843 23.3515 43.9009C23.1604 43.9175 22.9705 43.858 22.8231 43.7353L22.7167 43.6111Z" stroke="#333333" stroke-linejoin="round"/>
<path d="M25.7239 44.2588C26.0767 44.2588 26.3627 43.9728 26.3627 43.62C26.3627 43.2673 26.0767 42.9813 25.7239 42.9813C25.3712 42.9813 25.0852 43.2673 25.0852 43.62C25.0852 43.9728 25.3712 44.2588 25.7239 44.2588Z" fill="#333333"/>
<path d="M27.8351 37.623C26.7795 38.8384 25.3512 40.1868 23.2753 42.2272C21.2971 40.2401 19.8599 38.8561 18.7954 37.623H15.6993C16.0005 41.0506 16.8387 44.4094 18.1833 47.5765H28.3497C29.7292 44.4212 30.5689 41.0566 30.8336 37.623H27.8351Z" fill="#A36D2C"/>
<path d="M15.1849 40.5772V41.757C15.185 41.821 15.2012 41.8839 15.2319 41.94C15.2627 41.9961 15.307 42.0435 15.3609 42.078C15.4148 42.1124 15.4765 42.1328 15.5403 42.1371C15.6041 42.1415 15.668 42.1298 15.7261 42.103L21.0488 39.5658L19.9576 38.2884L15.1849 40.5772Z" fill="#56370E"/>
<path d="M31.3393 40.5772V41.757C31.3393 41.821 31.3231 41.8839 31.2923 41.94C31.2616 41.9961 31.2172 42.0435 31.1633 42.078C31.1095 42.1124 31.0478 42.1328 30.984 42.1371C30.9202 42.1415 30.8563 42.1298 30.7982 42.103L25.4755 39.5658L26.5666 38.2884L31.3393 40.5772Z" fill="#56370E"/>
<path d="M28.749 47.5233C30.6765 47.3285 32.5924 47.0324 34.4887 46.6362L33.4774 42.5909H39.0751L33.5838 34.7399C33.3266 34.6867 32.4306 34.5448 31.0999 34.3318C31.0011 38.8239 30.2081 43.2737 28.749 47.5233Z" fill="#604549" stroke="#333333" stroke-width="1.5" stroke-linejoin="round"/>
<path d="M23.2932 42.2805V47.825" stroke="#333333" stroke-width="1.5" stroke-linejoin="round"/>
<path d="M26.6288 38.0223L23.8699 40.728L25.0143 41.8724L28.6248 38.9804L26.6288 38.0223Z" fill="#555555" stroke="#333333" stroke-linejoin="round"/>
<path d="M19.9754 38.0223L22.6723 40.728L21.519 41.8724L17.9883 38.9804L19.9754 38.0223Z" fill="#555555" stroke="#333333" stroke-linejoin="round"/>
<path d="M21.0932 41.4998L22.69 43.6112C22.8078 43.7635 22.9805 43.8637 23.1712 43.8902C23.3619 43.9167 23.5554 43.8675 23.7102 43.7531C23.7639 43.7127 23.8117 43.6649 23.8522 43.6112L25.4667 41.4998C25.524 41.423 25.5656 41.3356 25.589 41.2427C25.6125 41.1498 25.6173 41.0532 25.6033 40.9584C25.5893 40.8636 25.5567 40.7725 25.5074 40.6903C25.4581 40.6082 25.393 40.5366 25.3159 40.4796C25.1913 40.3844 25.038 40.3344 24.8812 40.3377H21.6698C21.574 40.3376 21.479 40.3568 21.3907 40.394C21.3023 40.4312 21.2223 40.4858 21.1554 40.5544C21.0884 40.623 21.0358 40.7043 21.0008 40.7936C20.9657 40.8828 20.9489 40.9781 20.9513 41.074C20.9537 41.2271 21.0033 41.3758 21.0932 41.4998Z" fill="#444444"/>
<path d="M25.5819 41.145H24.2513C24.0094 41.1438 23.7696 41.1904 23.5458 41.2822C23.322 41.374 23.1185 41.509 22.947 41.6797C22.7756 41.8503 22.6395 42.0532 22.5467 42.2765C22.4538 42.4999 22.406 42.7394 22.406 42.9813C22.3925 43.0933 22.3925 43.2065 22.406 43.3184L22.6278 43.6112C22.7456 43.7635 22.9183 43.8637 23.109 43.8902C23.2997 43.9167 23.4932 43.8675 23.648 43.7531C23.7017 43.7127 23.7495 43.6649 23.79 43.6112L25.4223 41.491C25.5039 41.391 25.5588 41.272 25.5819 41.145Z" fill="#333333"/>
<path d="M21.0932 41.4998L22.69 43.6112C22.8078 43.7635 22.9805 43.8637 23.1712 43.8902C23.3619 43.9167 23.5554 43.8675 23.7102 43.7531C23.7639 43.7127 23.8117 43.6649 23.8522 43.6112L25.4667 41.4998C25.524 41.423 25.5656 41.3356 25.589 41.2427C25.6125 41.1498 25.6173 41.0532 25.6033 40.9584C25.5893 40.8636 25.5567 40.7725 25.5074 40.6903C25.4581 40.6082 25.393 40.5366 25.3159 40.4796C25.1913 40.3844 25.038 40.3344 24.8812 40.3377H21.6698C21.574 40.3376 21.479 40.3568 21.3907 40.394C21.3023 40.4312 21.2223 40.4858 21.1554 40.5544C21.0884 40.623 21.0358 40.7043 21.0008 40.7936C20.9657 40.8828 20.9489 40.9781 20.9513 41.074C20.9537 41.2271 21.0033 41.3758 21.0932 41.4998V41.4998Z" stroke="#333333" stroke-linejoin="round"/>
<path d="M22.7167 43.6111L20.8981 47.7629C21.6965 47.7629 22.4949 47.8161 23.2844 47.8161C24.074 47.8161 24.8458 47.8161 25.6176 47.7629L23.8433 43.6466C23.7193 43.7929 23.5425 43.8843 23.3515 43.9009C23.1604 43.9175 22.9705 43.858 22.8231 43.7353L22.7167 43.6111Z" fill="#444444"/>
<path d="M23.8255 43.6111L23.2932 47.8161C24.0739 47.8161 24.8545 47.8161 25.6263 47.7717L23.8255 43.6111Z" fill="#333333"/>
<path d="M22.7167 43.6111L20.8981 47.7629C21.6965 47.7629 22.4949 47.8161 23.2844 47.8161C24.074 47.8161 24.8458 47.8161 25.6176 47.7629L23.8433 43.6466C23.7193 43.7929 23.5425 43.8843 23.3515 43.9009C23.1604 43.9175 22.9705 43.858 22.8231 43.7353L22.7167 43.6111Z" stroke="#333333" stroke-linejoin="round"/>
<path d="M25.7239 44.2588C26.0767 44.2588 26.3627 43.9728 26.3627 43.62C26.3627 43.2673 26.0767 42.9813 25.7239 42.9813C25.3712 42.9813 25.0852 43.2673 25.0852 43.62C25.0852 43.9728 25.3712 44.2588 25.7239 44.2588Z" fill="#333333"/>
<path d="M32.2443 33.631V41.3934L26.2562 38.5102C28.5361 36.1327 29.5829 34.6867 30.2483 31.6528L32.2443 33.631Z" fill="#A36D2C" stroke="#333333" stroke-width="1.5" stroke-linejoin="round"/>
<path d="M17.527 34.7932V30.9608" stroke="#333333" stroke-width="1.5" stroke-linejoin="round"/>
<path d="M29.0594 34.7932V30.9608" stroke="#333333" stroke-width="1.5" stroke-linejoin="round"/>
<path d="M32.6079 18.5412V14.9927C32.6079 12.5223 31.6266 10.153 29.8797 8.40615C28.1329 6.65929 25.7636 5.67792 23.2932 5.67792C20.8227 5.67792 18.4535 6.65929 16.7066 8.40615C14.9598 10.153 13.9784 12.5223 13.9784 14.9927V18.5412C12.6477 18.5412 10.5985 19.2686 12.2042 22.2937C12.6752 23.1195 13.0022 24.0195 13.1711 24.955C13.251 25.5849 13.9607 26.6849 15.7527 26.0639L16.0454 27.9535C16.143 29.0269 16.1962 30.0205 16.9946 30.7479L19.8157 33.3117C20.3466 33.7898 21.0352 34.0551 21.7496 34.0569H24.8368C25.5518 34.0585 26.2416 33.7927 26.7707 33.3117L29.5917 30.7479C30.3901 30.0205 30.4789 29.0269 30.541 27.9535L30.8337 26.0639C32.6079 26.6849 33.3265 25.5849 33.4152 24.955C33.5869 24.0202 33.9138 23.1207 34.3822 22.2937C35.9879 19.2686 33.9386 18.5412 32.6079 18.5412Z" fill="#EED1C9"/>
<path d="M19.5229 20.9808C19.8903 20.9808 20.1882 20.6829 20.1882 20.3154C20.1882 19.948 19.8903 19.6501 19.5229 19.6501C19.1554 19.6501 18.8575 19.948 18.8575 20.3154C18.8575 20.6829 19.1554 20.9808 19.5229 20.9808Z" fill="#333333"/>
<path d="M32.608 18.5412V14.9927C32.608 12.5223 31.6266 10.153 29.8797 8.40615C28.1329 6.65929 25.7636 5.67792 23.2932 5.67792V13.662C23.2932 16.3234 22.4061 17.0064 17.6334 18.2041C17.4914 18.2041 20.7738 17.8226 20.7738 19.5436C20.7738 20.2977 21.4569 19.588 21.9537 20.2001C21.9981 20.2559 22.0579 20.2974 22.1257 20.3195C22.1935 20.3416 22.2664 20.3433 22.3351 20.3243C22.4771 20.2756 22.6224 20.2371 22.7698 20.209C22.8336 20.1973 22.8992 20.1997 22.962 20.2162C23.0247 20.2326 23.0831 20.2626 23.133 20.304C23.183 20.3455 23.2232 20.3974 23.2508 20.4561C23.2785 20.5147 23.293 20.5788 23.2932 20.6436V23.305C23.294 23.3657 23.3156 23.4244 23.3543 23.4712C23.393 23.518 23.4466 23.5501 23.5061 23.5623C23.6813 23.589 23.8427 23.6732 23.9647 23.8017C24.0868 23.9302 24.1627 24.0956 24.1803 24.272C24.1844 24.3073 24.1844 24.343 24.1803 24.3784C23.8917 24.54 23.5664 24.6249 23.2355 24.6249C22.9047 24.6249 22.5794 24.54 22.2908 24.3784C21.9662 24.2181 21.6138 24.1217 21.2528 24.0945C21.1946 24.087 21.1354 24.0909 21.0787 24.1062C21.022 24.1215 20.9688 24.1478 20.9223 24.1837C20.8283 24.256 20.7669 24.3628 20.7516 24.4804C20.7363 24.5981 20.7684 24.717 20.8408 24.811C20.9131 24.905 21.0199 24.9664 21.1375 24.9817C21.3832 25.0153 21.6207 25.0935 21.8383 25.2123C22.2578 25.4396 22.7274 25.5585 23.2045 25.5583H23.2932V28.9382C23.2985 29.1787 23.3917 29.4089 23.5551 29.5854C23.7186 29.7619 23.941 29.8725 24.1803 29.8963C25.1207 29.8963 25.9546 30.3487 25.9546 31.4044C25.9546 33.1787 20.8714 31.5996 20.8004 33.8972C21.1021 34.0061 21.42 34.0631 21.7407 34.0658H24.8368C25.5518 34.0674 26.2416 33.8016 26.7707 33.3206L29.5918 30.7568C30.3902 30.0294 30.4789 29.0358 30.541 27.9624L30.8337 26.0728C32.608 26.6938 33.3265 25.5938 33.4153 24.9639C33.587 24.0291 33.9138 23.1296 34.3822 22.3026C35.9879 19.2686 33.9387 18.5412 32.608 18.5412Z" fill="#E5C2BA"/>
<path d="M23.2933 5.67792C20.8229 5.67792 18.4536 6.65929 16.7067 8.40615C14.9599 10.153 13.9785 12.5223 13.9785 14.9927V18.3637L32.608 16.4121V14.9838C32.6057 12.5149 31.6233 10.148 29.8767 8.40301C28.1301 6.65807 25.7622 5.67792 23.2933 5.67792Z" fill="#D8B3AD"/>
<path d="M27.0634 20.9808C27.4309 20.9808 27.7288 20.6829 27.7288 20.3154C27.7288 19.948 27.4309 19.6501 27.0634 19.6501C26.696 19.6501 26.3981 19.948 26.3981 20.3154C26.3981 20.6829 26.696 20.9808 27.0634 20.9808Z" fill="#333333"/>
<path d="M32.6079 18.5412V14.9927C32.6079 12.5223 31.6266 10.153 29.8797 8.40615C28.1329 6.65929 25.7636 5.67792 23.2932 5.67792C20.8227 5.67792 18.4535 6.65929 16.7066 8.40615C14.9598 10.153 13.9784 12.5223 13.9784 14.9927V18.5412C12.6477 18.5412 10.5985 19.2686 12.2042 22.2937C12.6752 23.1195 13.0022 24.0195 13.1711 24.955C13.251 25.5849 13.7655 27.297 15.5575 26.6761C15.5078 27.3374 15.6108 28.0013 15.8584 28.6166C16.1061 29.2319 16.4918 29.782 16.9858 30.2245L19.8068 33.2496C20.3377 33.7277 21.0263 33.993 21.7407 33.9948H24.8368C25.5518 33.9964 26.2416 33.7306 26.7707 33.2496L29.5917 30.3044C30.1072 29.8727 30.5163 29.328 30.7871 28.7126C31.0578 28.0972 31.1831 27.4276 31.1531 26.7559C32.7942 27.2438 33.3176 25.6559 33.4064 25.0349C33.5781 24.1001 33.9049 23.2005 34.3733 22.3735C35.9879 19.2686 33.9386 18.5412 32.6079 18.5412Z" stroke="#333333" stroke-width="1.5" stroke-linecap="round" stroke-linejoin="round"/>
<path d="M15.5309 20.3154C15.4532 20.831 15.4865 21.3573 15.6285 21.859C15.7781 22.3939 16.0413 22.8901 16.4003 23.3139C16.4383 23.3549 16.4594 23.4088 16.4594 23.4647C16.4594 23.5206 16.4383 23.5745 16.4003 23.6155C16.3613 23.643 16.3149 23.6578 16.2672 23.6578C16.2195 23.6578 16.1731 23.643 16.1341 23.6155C15.6159 23.2381 15.1811 22.7579 14.8567 22.205C14.5197 21.6216 14.3054 20.9756 14.2268 20.3066C14.2115 20.1313 14.2652 19.957 14.3766 19.8208C14.488 19.6846 14.6482 19.5973 14.823 19.5777C14.9979 19.558 15.1735 19.6074 15.3123 19.7154C15.4512 19.8234 15.5424 19.9814 15.5664 20.1557C15.5613 20.2102 15.5493 20.2639 15.5309 20.3154Z" fill="#D6B3B0"/>
<path d="M32.3862 20.3154C32.3159 20.9693 32.1099 21.6013 31.7815 22.171C31.4531 22.7408 31.0094 23.2358 30.4789 23.6244C30.4585 23.6436 30.4345 23.6586 30.4083 23.6686C30.3821 23.6785 30.3542 23.6832 30.3262 23.6824C30.2982 23.6816 30.2707 23.6752 30.2451 23.6638C30.2195 23.6523 30.1965 23.6359 30.1773 23.6155C30.158 23.5951 30.143 23.5711 30.1331 23.5449C30.1231 23.5188 30.1184 23.4909 30.1192 23.4629C30.1201 23.4348 30.1264 23.4073 30.1379 23.3817C30.1493 23.3562 30.1657 23.3331 30.1861 23.3139C30.5435 22.889 30.8066 22.3931 30.9579 21.859C31.0999 21.3573 31.1332 20.831 31.0555 20.3154C31.0355 20.225 31.0343 20.1314 31.0521 20.0405C31.0699 19.9495 31.1062 19.8633 31.1588 19.787C31.2114 19.7108 31.2791 19.6461 31.3578 19.5972C31.4364 19.5483 31.5243 19.5161 31.616 19.5027C31.7076 19.4892 31.8011 19.4948 31.8905 19.5191C31.9798 19.5434 32.0633 19.5858 32.1356 19.6437C32.2078 19.7017 32.2674 19.7739 32.3105 19.8559C32.3536 19.9379 32.3794 20.0279 32.3862 20.1202C32.3951 20.1761 32.3951 20.233 32.3862 20.2888V20.3154Z" fill="#D6B3B0"/>
<path d="M31.4458 10.4772C32.2841 10.6753 33.0388 11.1324 33.6025 11.7837C34.1663 12.4351 34.5105 13.2475 34.5862 14.1056C34.8169 16.1992 33.5128 16.6871 33.5128 18.5412C33.2743 18.5193 33.034 18.5503 32.8088 18.6317C32.5837 18.7132 32.3792 18.8431 32.2099 19.0125C32.0405 19.1818 31.9105 19.3863 31.8291 19.6114C31.7476 19.8366 31.7167 20.0769 31.7386 20.3154V15.4362C32.5458 13.7773 32.1644 12.1273 31.4458 10.4772Z" fill="#444444"/>
<path d="M34.595 14.1056C34.5192 13.2475 34.1751 12.4351 33.6113 11.7837C33.0476 11.1324 32.2929 10.6753 31.4546 10.4772C32.1998 12.1273 32.5546 13.7773 31.7207 15.4362V16.5718L34.1869 16.3145C34.5432 15.6364 34.6854 14.8662 34.595 14.1056Z" fill="#3F3F3F"/>
<path d="M31.4458 10.4772C32.2841 10.6753 33.0388 11.1324 33.6025 11.7837C34.1663 12.4351 34.5105 13.2475 34.5862 14.1056C34.8169 16.1992 33.5128 16.6871 33.5128 18.5412C33.2743 18.5193 33.034 18.5503 32.8088 18.6317C32.5837 18.7132 32.3792 18.8431 32.2099 19.0125C32.0405 19.1818 31.9105 19.3863 31.8291 19.6114C31.7476 19.8366 31.7167 20.0769 31.7386 20.3154V15.4362C32.5458 13.7773 32.1644 12.1273 31.4458 10.4772Z" stroke="#333333" stroke-linejoin="round"/>
<path d="M15.1405 10.4772C13.3663 10.9474 12.6743 12.5708 12.4792 14.416C12.2485 16.5097 13.0824 16.6871 13.0824 18.5412C13.3209 18.5193 13.5612 18.5503 13.7864 18.6317C14.0115 18.7132 14.216 18.8431 14.3854 19.0125C14.5547 19.1818 14.6847 19.3863 14.7661 19.6114C14.8476 19.8366 14.8785 20.0769 14.8567 20.3154V15.4362C14.0405 13.7773 14.422 12.1273 15.1405 10.4772Z" fill="#444444" stroke="#333333" stroke-linejoin="round"/>
<path d="M24.6238 21.2025V19.8718" stroke="#D6B3B0" stroke-width="0.65" stroke-miterlimit="10" stroke-linecap="round"/>
<path d="M20.6319 23.8639C19.5612 24.9814 18.7972 26.3565 18.4141 27.8559" stroke="#D6B3B0" stroke-width="0.65" stroke-miterlimit="10" stroke-linecap="round"/>
<path d="M25.9546 23.8639C27.0253 24.9814 27.7892 26.3565 28.1724 27.8559" stroke="#EED1C9" stroke-width="0.5" stroke-miterlimit="10" stroke-linecap="round"/>
<path d="M24.6238 22.5332V22.9768" stroke="#D6B3B0" stroke-width="0.65" stroke-miterlimit="10" stroke-linecap="round"/>
<path d="M16.3204 18.7718C16.6395 18.4143 17.0176 18.1143 17.4382 17.8847C17.8647 17.6595 18.322 17.4981 18.7955 17.4056C19.2891 17.3431 19.7906 17.3978 20.2592 17.5653C20.7246 17.7083 21.1521 17.9539 21.5101 18.2839C21.5461 18.3132 21.5753 18.3501 21.5956 18.3918C21.616 18.4336 21.6269 18.4793 21.6278 18.5258C21.6286 18.5722 21.6193 18.6183 21.6005 18.6608C21.5817 18.7033 21.5539 18.7412 21.5189 18.7718C21.4819 18.8138 21.4347 18.8456 21.382 18.8643C21.3292 18.8829 21.2725 18.8877 21.2173 18.8783H21.1729C20.7938 18.7966 20.4075 18.752 20.0197 18.7452C19.6572 18.7549 19.2957 18.7875 18.9374 18.8428C18.5613 18.8561 18.1872 18.9036 17.8196 18.9847C17.4297 19.0663 17.0446 19.17 16.6664 19.2952C16.6262 19.3075 16.584 19.3118 16.5421 19.3077C16.5003 19.3037 16.4597 19.2914 16.4226 19.2716C16.3855 19.2519 16.3527 19.2249 16.326 19.1925C16.2993 19.16 16.2793 19.1225 16.2672 19.0823C16.2432 19.0313 16.2354 18.9742 16.2449 18.9187C16.2544 18.8631 16.2808 18.8119 16.3204 18.7718Z" fill="#444444"/>
<path d="M29.8933 19.313C29.5151 19.1878 29.1301 19.0841 28.7401 19.0025C28.3726 18.9214 27.9984 18.8739 27.6223 18.8605C27.2586 18.8605 26.9126 18.763 26.54 18.763C26.1522 18.7698 25.766 18.8144 25.3868 18.896C25.3448 18.9036 25.3017 18.9027 25.26 18.8934C25.2184 18.884 25.179 18.8664 25.1443 18.8416C25.1095 18.8168 25.0801 18.7853 25.0578 18.7489C25.0354 18.7126 25.0206 18.6721 25.0142 18.6299C25.0056 18.5747 25.0108 18.5183 25.0294 18.4656C25.0479 18.413 25.0793 18.3658 25.1206 18.3283C25.484 18.0056 25.9097 17.761 26.3715 17.6097C26.8401 17.4422 27.3415 17.3875 27.8352 17.45C28.3086 17.5425 28.7659 17.7039 29.1925 17.9291C29.6112 18.1616 29.9888 18.4613 30.3103 18.8162C30.3401 18.8458 30.3637 18.8811 30.3798 18.9199C30.3959 18.9587 30.4042 19.0004 30.4042 19.0424C30.4042 19.0844 30.3959 19.126 30.3798 19.1649C30.3637 19.2037 30.3401 19.2389 30.3103 19.2686C30.2684 19.3051 30.2181 19.3307 30.1639 19.3431C30.1098 19.3555 30.0534 19.3543 29.9998 19.3396L29.8933 19.313Z" fill="#444444"/>
<path d="M16.5067 13.9547L16.9503 13.7152C17.6371 13.3512 18.3907 13.1304 19.1653 13.0664C19.94 13.0023 20.7196 13.0963 21.4568 13.3426V13.3426C22.6318 13.733 23.9014 13.733 25.0763 13.3426H25.1207C25.8642 13.0979 26.6498 13.0079 27.4294 13.0781C28.209 13.1483 28.966 13.3772 29.6538 13.7507L30.0353 13.9547" stroke="#A88064" stroke-width="0.5" stroke-miterlimit="10" stroke-linecap="round"/>
<path d="M17.8552 11.524C19.0211 11.1338 20.2822 11.1338 21.4481 11.524V11.524C22.623 11.9144 23.8926 11.9144 25.0675 11.524C26.2554 11.1205 27.5434 11.1205 28.7313 11.524" stroke="#A88064" stroke-width="0.5" stroke-miterlimit="10" stroke-linecap="round"/>
<path d="M16.5067 14.4161L16.9503 14.1766C17.6371 13.8125 18.3907 13.5918 19.1653 13.5278C19.94 13.4637 20.7196 13.5577 21.4568 13.804V13.804C22.6318 14.1943 23.9014 14.1943 25.0763 13.804H25.1207C25.8642 13.5593 26.6498 13.4693 27.4294 13.5395C28.209 13.6096 28.966 13.8385 29.6538 14.212L30.0353 14.4161" stroke="#9C775B" stroke-width="0.5" stroke-miterlimit="10" stroke-linecap="round"/>
<path d="M17.8552 11.9942C19.0211 11.604 20.2822 11.604 21.4481 11.9942V11.9942C22.623 12.3845 23.8926 12.3845 25.0675 11.9942C26.2554 11.5906 27.5434 11.5906 28.7313 11.9942" stroke="#9C775B" stroke-width="0.5" stroke-miterlimit="10" stroke-linecap="round"/>
<path d="M21.4481 9.98932C22.6223 10.3842 23.8934 10.3842 25.0676 9.98932" stroke="#9C775B" stroke-width="0.5" stroke-miterlimit="10" stroke-linecap="round"/>
<path d="M24.0739 27.2616L23.3908 27.5366L22.6368 27.368C22.2918 27.2866 21.9291 27.334 21.6166 27.5011L19.7448 28.3261C21.1553 28.5834 20.9512 29.16 22.3529 29.2665C22.3529 29.2665 23.719 29.2665 24.4287 29.2044C25.4312 29.0979 26.0344 28.9116 26.957 27.5454C26.2291 27.5527 25.5045 27.445 24.8102 27.2261C24.5688 27.1466 24.3065 27.1592 24.0739 27.2616Z" fill="#D6B3B0"/>
<path d="M26.9924 27.643C26.7363 27.8711 26.4336 28.0407 26.1053 28.1398L25.2181 28.2463C24.5972 28.2995 23.9673 28.3794 23.3286 28.4148C22.6899 28.4503 22.0689 28.4148 21.4479 28.4148C20.8269 28.4148 20.2148 28.4148 19.6204 28.4148C19.5867 28.4126 19.5551 28.3976 19.532 28.3729C19.5089 28.3481 19.4961 28.3156 19.4962 28.2818C19.498 28.2509 19.5105 28.2216 19.5315 28.1989C19.5526 28.1763 19.5809 28.1617 19.6115 28.1576H19.7624L21.5987 27.9181C22.2019 27.8471 22.7874 27.7672 23.3729 27.7406C23.9584 27.714 24.5439 27.7406 25.1472 27.6874H26.0343C26.3135 27.6402 26.5796 27.5344 26.815 27.3769C26.8505 27.3569 26.8924 27.3513 26.932 27.3612C26.9716 27.3711 27.0059 27.3957 27.0279 27.4301C27.0425 27.4654 27.0469 27.504 27.0406 27.5417C27.0343 27.5793 27.0176 27.6144 26.9924 27.643Z" fill="#AF8582"/>
<path d="M21.4481 9.53687C22.6223 9.93173 23.8934 9.93173 25.0676 9.53687V9.53687" stroke="#A88064" stroke-width="0.5" stroke-miterlimit="10" stroke-linecap="round"/>
<path d="M28.3587 28.956V27.6431C28.3592 27.1875 28.1845 26.7491 27.8707 26.4188C27.557 26.0885 27.1281 25.8916 26.6731 25.8688H19.9399C19.4849 25.8916 19.056 26.0885 18.7423 26.4188C18.4285 26.7491 18.2538 27.1875 18.2543 27.6431V28.9737C16.7196 27.2882 14.9897 25.993 14.9897 21.8768V25.4253C14.9897 30.748 17.3584 30.0826 19.1503 32.7706C20.4189 34.6868 22.2996 34.3142 23.3109 34.2965C24.3223 34.2787 26.2029 34.6868 27.4715 32.7706C29.2458 30.1092 31.7297 30.748 31.7297 25.4253V21.8768C31.7386 26.1616 29.7071 27.5366 28.3587 28.956ZM27.303 29.7012L26.4159 30.7835C26.3016 30.9197 26.155 31.0251 25.9895 31.09C25.824 31.155 25.6448 31.1775 25.4684 31.1554C25.2919 31.1334 25.1238 31.0675 24.9794 30.9638C24.835 30.8601 24.7189 30.7218 24.6416 30.5617C24.5975 30.479 24.5306 30.4108 24.4488 30.3652C24.367 30.3196 24.2738 30.2985 24.1803 30.3044H22.4061C22.3168 30.3025 22.2289 30.3256 22.1521 30.3711C22.0753 30.4166 22.0127 30.4826 21.9714 30.5617C21.895 30.723 21.7789 30.8623 21.6341 30.9666C21.4892 31.0709 21.3203 31.1368 21.1431 31.158C20.9658 31.1793 20.7861 31.1553 20.6207 31.0882C20.4553 31.0212 20.3095 30.9133 20.1971 30.7746L19.31 29.6923V27.7406C19.3052 27.6521 19.318 27.5634 19.3475 27.4798C19.377 27.3962 19.4228 27.3192 19.4821 27.2532C19.5414 27.1873 19.6132 27.1337 19.6933 27.0956C19.7734 27.0575 19.8602 27.0355 19.9487 27.0309H22.1045C22.3197 27.0167 22.5283 26.9503 22.7122 26.8374C22.8961 26.7246 23.0498 26.5688 23.1601 26.3833C23.1757 26.3614 23.1963 26.3435 23.2202 26.3311C23.2442 26.3187 23.2707 26.3123 23.2976 26.3123C23.3246 26.3123 23.3511 26.3187 23.375 26.3311C23.3989 26.3435 23.4196 26.3614 23.4351 26.3833C23.5448 26.5693 23.6984 26.7255 23.8824 26.8384C24.0665 26.9513 24.2753 27.0174 24.4908 27.0309H26.6465C26.7351 27.0355 26.8219 27.0575 26.902 27.0956C26.982 27.1337 27.0538 27.1873 27.1131 27.2532C27.1725 27.3192 27.2182 27.3962 27.2478 27.4798C27.2773 27.5634 27.29 27.6521 27.2852 27.7406V29.7012H27.303Z" fill="#444444"/>
<path d="M32.8297 9.69655L12.6477 13.7329L12.2751 5.41176C12.2581 5.08191 12.3712 4.75854 12.5902 4.51131C12.8093 4.26409 13.1166 4.11277 13.4461 4.08995L21.0487 3.7351L28.3497 1.07374C28.6652 0.96165 29.012 0.977859 29.3156 1.11888C29.6192 1.2599 29.8553 1.51446 29.9732 1.82779L32.8297 9.69655Z" fill="#E3D5C9"/>
<path d="M33.3798 11.4974L30.0886 2.48425L22.1045 5.36739C21.9706 5.4168 21.8578 5.5108 21.7851 5.63359C21.7124 5.75638 21.6842 5.90047 21.7053 6.04161L22.965 13.5821L33.3798 11.4974Z" fill="#CEBCAF"/>
<path d="M12.701 15.4628L12.5325 5.87307L21.04 5.68678C21.1829 5.68381 21.3224 5.73098 21.4342 5.8201C21.546 5.90923 21.6231 6.03468 21.6521 6.17469L23.1957 13.662L12.701 15.4628Z" fill="#D3C4BA"/>
<path d="M34.4976 13.591L12.5679 17.9734C11.9967 18.0881 11.4039 18.0225 10.8715 17.7857C10.3392 17.549 9.89348 17.1527 9.59609 16.6516L8.91301 15.4984C8.8432 15.394 8.80054 15.2739 8.78889 15.1489C8.77725 15.0239 8.797 14.898 8.84634 14.7826C8.89568 14.6672 8.97306 14.5659 9.07145 14.488C9.16985 14.41 9.28614 14.3579 9.40979 14.3362L36.0234 9.0135C36.1451 8.9892 36.2709 8.99531 36.3897 9.03129C36.5085 9.06727 36.6165 9.13201 36.7043 9.21976C36.792 9.30751 36.8568 9.41557 36.8927 9.53434C36.9287 9.65311 36.9348 9.77892 36.9105 9.90062L36.7242 11.2313C36.6411 11.806 36.3826 12.341 35.9841 12.7633C35.5856 13.1856 35.0664 13.4747 34.4976 13.591Z" fill="#E3D5C9"/>
<path d="M36.7242 11.2756C36.642 11.2622 36.5581 11.2622 36.4759 11.2756L9.86224 16.5983C9.77938 16.6191 9.70114 16.6552 9.63159 16.7048C9.93231 17.1944 10.3758 17.5802 10.9024 17.8102C11.4289 18.0401 12.0133 18.1033 12.5768 17.9911L34.5064 13.6088C35.0694 13.4913 35.5832 13.2051 35.9794 12.7882C36.3756 12.3714 36.6354 11.8438 36.7242 11.2756Z" fill="#CEBCAF"/>
<path d="M31.5877 6.63599L12.417 10.4683L12.6122 13.7418L32.8296 9.69655L31.5877 6.63599Z" fill="#A36D2C"/>
<path d="M22.0956 8.53442L22.6279 11.7369L32.8297 9.69655L31.5878 6.63599L22.0956 8.53442Z" fill="#996429"/>
<path d="M12.5237 12.2071L32.2444 8.25943L31.9073 7.42554L12.4705 11.3111L12.5237 12.2071Z" fill="#56370E"/>
<path d="M32.8297 9.69655L12.6477 13.7329L12.2751 5.41176C12.2581 5.08191 12.3712 4.75854 12.5902 4.51131C12.8093 4.26409 13.1166 4.11277 13.4461 4.08995L21.0487 3.7351L28.3497 1.07374C28.6652 0.96165 29.012 0.977859 29.3156 1.11888C29.6192 1.2599 29.8553 1.51446 29.9732 1.82779L32.8297 9.69655Z" stroke="#333333" stroke-width="1.5" stroke-miterlimit="10"/>
<path d="M34.4976 13.591L12.5679 17.9734C11.9967 18.0881 11.4039 18.0225 10.8715 17.7857C10.3392 17.549 9.89348 17.1527 9.59609 16.6516L8.91301 15.4984C8.8432 15.394 8.80054 15.2739 8.78889 15.1489C8.77725 15.0239 8.797 14.898 8.84634 14.7826C8.89568 14.6672 8.97306 14.5659 9.07145 14.488C9.16985 14.41 9.28614 14.3578 9.40979 14.3362L36.0234 9.0135C36.1451 8.9892 36.2709 8.99531 36.3897 9.03129C36.5085 9.06727 36.6165 9.13201 36.7043 9.21976C36.792 9.30751 36.8568 9.41557 36.8927 9.53434C36.9287 9.65311 36.9348 9.77892 36.9105 9.90062L36.7242 11.2313C36.6411 11.806 36.3826 12.341 35.9841 12.7633C35.5856 13.1856 35.0664 13.4747 34.4976 13.591V13.591Z" stroke="#333333" stroke-width="1.5" stroke-miterlimit="10"/>
<path d="M31.8893 21.8945C31.9129 22.5826 31.8743 23.2714 31.774 23.9526C31.5476 25.3455 30.9326 26.6462 29.9998 27.7051C29.5473 28.2374 29.0506 28.7076 28.5893 29.1866C28.5587 29.218 28.5221 29.2429 28.4817 29.26C28.4414 29.277 28.398 29.2858 28.3542 29.2858C28.3103 29.2858 28.267 29.277 28.2266 29.26C28.1862 29.2429 28.1497 29.218 28.1191 29.1866C28.0854 29.1565 28.0585 29.1196 28.0401 29.0783C28.0218 29.037 28.0124 28.9923 28.0126 28.9471V28.06C28.0359 27.7813 28.021 27.5007 27.9683 27.2261C27.9058 26.9756 27.7774 26.7465 27.5964 26.5624C27.4155 26.3783 27.1886 26.246 26.9392 26.1793C26.6456 26.1359 26.3488 26.1181 26.0521 26.126H25.165L23.2931 26.0107C23.2524 26.0084 23.214 25.9906 23.1859 25.9609C23.1579 25.9312 23.1423 25.8919 23.1423 25.851C23.1445 25.8117 23.161 25.7746 23.1889 25.7468C23.2167 25.7189 23.2538 25.7024 23.2931 25.7002L25.1472 25.6381H26.0343C26.3619 25.6077 26.6915 25.6077 27.0191 25.6381C27.3884 25.699 27.7334 25.8615 28.0155 26.1075C28.2975 26.3535 28.5054 26.6733 28.6159 27.0309C28.7007 27.361 28.7366 27.7017 28.7223 28.0422V28.9293L28.1457 28.6987C28.6247 28.193 29.1304 27.7495 29.574 27.2704C30.0229 26.7952 30.4049 26.2609 30.7095 25.6825C31.2734 24.4855 31.5758 23.182 31.5966 21.859C31.5964 21.8388 31.6006 21.8187 31.6088 21.8002C31.617 21.7818 31.6291 21.7652 31.6442 21.7518C31.6593 21.7384 31.6772 21.7283 31.6965 21.7223C31.7158 21.7163 31.7362 21.7145 31.7563 21.7171C31.777 21.7192 31.7971 21.7255 31.8152 21.7358C31.8334 21.746 31.8492 21.7599 31.8617 21.7766C31.8742 21.7933 31.8831 21.8124 31.8879 21.8326C31.8926 21.8529 31.8931 21.874 31.8893 21.8945Z" fill="#555555"/>
<path d="M23.2931 26.0018L21.439 26.0728H20.5519C20.2551 26.0602 19.9579 26.0781 19.6648 26.126C19.4127 26.1941 19.1832 26.3276 18.9994 26.513C18.8155 26.6984 18.684 26.9291 18.618 27.1817C18.5656 27.4564 18.5507 27.7369 18.5736 28.0156V28.9027C18.5748 28.9465 18.5672 28.9902 18.5512 29.031C18.5353 29.0719 18.5113 29.1091 18.4807 29.1406C18.4501 29.172 18.4135 29.1969 18.3731 29.214C18.3327 29.231 18.2892 29.2398 18.2454 29.2398C18.1987 29.2413 18.1523 29.2325 18.1094 29.2141C18.0664 29.1958 18.0281 29.1682 17.997 29.1333C16.9874 28.2007 16.1444 27.1027 15.5042 25.8865C14.9649 24.6127 14.731 23.2304 14.8211 21.8501C14.8211 21.8101 14.837 21.7717 14.8653 21.7435C14.8935 21.7152 14.9319 21.6993 14.9719 21.6993C15.0119 21.6993 15.0503 21.7152 15.0785 21.7435C15.1068 21.7717 15.1227 21.8101 15.1227 21.8501C15.1384 23.1652 15.4412 24.461 16.0098 25.647C16.6956 26.7721 17.5313 27.7988 18.4938 28.6987L17.9171 28.9204V28.0333C17.903 27.6957 17.9388 27.3579 18.0236 27.0309C18.1261 26.6844 18.3204 26.372 18.5859 26.1268C18.8513 25.8816 19.1781 25.7128 19.5317 25.6381C19.8563 25.6076 20.183 25.6076 20.5075 25.6381H21.3947L23.2487 25.7091C23.269 25.7089 23.289 25.7131 23.3075 25.7213C23.326 25.7295 23.3425 25.7416 23.3559 25.7567C23.3694 25.7718 23.3794 25.7896 23.3854 25.809C23.3914 25.8283 23.3932 25.8487 23.3907 25.8687C23.3935 25.899 23.3852 25.9293 23.3672 25.9538C23.3492 25.9784 23.3228 25.9954 23.2931 26.0018Z" fill="#555555"/>
<path d="M20.8536 24.9816C21.278 24.9818 21.6967 25.0789 22.0779 25.2655V25.2655C22.4569 25.4538 22.8744 25.5519 23.2977 25.5519C23.7209 25.5519 24.1384 25.4538 24.5174 25.2655C24.8986 25.0789 25.3173 24.9818 25.7417 24.9816" stroke="#AF8582" stroke-width="0.75" stroke-miterlimit="10" stroke-linecap="round"/>
<path d="M15.3091 21.8945L15.3712 23.7308V24.6179V25.0792V25.4518H14.5284V25.3808H15.3712C15.3617 26.6009 15.6446 27.8055 16.1962 28.8938C16.7285 29.8697 17.864 30.4286 18.8576 31.431C19.104 31.6805 19.3323 31.9473 19.5407 32.2294C19.7078 32.4645 19.8885 32.6896 20.0818 32.9036C20.4481 33.2709 20.9192 33.5157 21.4302 33.6044C22.0199 33.6691 22.6148 33.6691 23.2045 33.6044C23.8158 33.6498 24.4295 33.6498 25.0408 33.6044C25.5538 33.5428 26.0377 33.3332 26.4336 33.0012C26.6377 32.8321 26.8169 32.635 26.9659 32.4157C27.1673 32.1329 27.3866 31.8633 27.6223 31.6084C28.5893 30.5528 29.8047 30.0116 30.4256 29.1067C31.0296 28.0812 31.3368 26.9079 31.3128 25.7179L31.4458 21.8945C31.4458 21.8145 31.4776 21.7377 31.5342 21.6812C31.5907 21.6246 31.6675 21.5928 31.7474 21.5928C31.8274 21.5928 31.9042 21.6246 31.9607 21.6812C32.0173 21.7377 32.0491 21.8145 32.0491 21.8945C32.0491 23.1808 32.1555 24.4405 32.1644 25.7446C32.246 27.1234 31.9386 28.4974 31.2773 29.71C30.8832 30.2845 30.4012 30.7934 29.849 31.2181C29.3709 31.5902 28.9257 32.0028 28.5183 32.4512C28.3319 32.6726 28.1572 32.9035 27.9949 33.1431C27.795 33.4714 27.5502 33.77 27.2675 34.0303C26.6968 34.5515 25.977 34.8804 25.2094 34.9706C24.548 35.0232 23.8836 35.0232 23.2222 34.9706C22.5354 35.0358 21.8428 35.0059 21.1641 34.8819C20.4093 34.7234 19.7216 34.3362 19.1947 33.773C18.9619 33.5108 18.7485 33.2321 18.556 32.9391C18.391 32.6996 18.2102 32.4714 18.0148 32.256C17.5777 31.8159 17.1156 31.4012 16.6309 31.0141C16.0899 30.5735 15.6408 30.031 15.3091 29.4172C14.7587 28.1684 14.5212 26.8043 14.6172 25.4429C14.6172 25.3253 14.6639 25.2125 14.7471 25.1293C14.8303 25.0461 14.9431 24.9994 15.0607 24.9994C15.1784 24.9994 15.2912 25.0461 15.3744 25.1293C15.4575 25.2125 15.5043 25.3253 15.5043 25.4429V25.5139H14.6615V25.1413V24.68V23.7929L14.7236 21.9566C14.7248 21.9169 14.7337 21.8779 14.7499 21.8418C14.7662 21.8056 14.7894 21.773 14.8182 21.7458C14.847 21.7186 14.8809 21.6974 14.918 21.6833C14.955 21.6693 14.9945 21.6626 15.0341 21.6638C15.1005 21.661 15.1655 21.6831 15.2163 21.7258C15.2672 21.7685 15.3003 21.8286 15.3091 21.8945Z" fill="#333333"/>
<path d="M18.1478 47.5589C16.5418 43.3194 15.6428 38.8449 15.4864 34.3141L13.0025 34.7222L7.51123 42.6087H13.109L12.142 46.6629C14.1272 47.0645 16.1318 47.3636 18.1478 47.5589Z" fill="#604549" stroke="#333333" stroke-width="1.5" stroke-linejoin="round"/>
<path d="M14.3422 33.631V41.3934L20.3302 38.5102C18.0503 36.1327 17.0035 34.6867 16.3382 31.6528L14.3422 33.631Z" fill="#A36D2C" stroke="#333333" stroke-width="1.5" stroke-linejoin="round"/>
<path d="M14.3422 34.4916C13.1446 34.6867 13.4551 34.6424 5.9944 35.8311C1.55879 36.5497 1.22169 42.2628 1.11523 42.9281C2.88948 44.0104 11.5655 47.7895 23.2932 47.8073C35.021 47.825 43.697 44.0104 45.4713 42.9281C45.3648 42.2628 45.0543 36.5497 40.5921 35.8311L32.2443 34.4916" stroke="#333333" stroke-width="1.5" stroke-miterlimit="10"/>
</svg>
