<?xml version="1.0" encoding="UTF-8"?>
<svg xmlns="http://www.w3.org/2000/svg" xmlns:xlink="http://www.w3.org/1999/xlink" width="474.5pt" height="567.9pt" viewBox="0 0 474.5 567.9" version="1.1">
<defs>
<clipPath id="clip1">
  <path d="M 0 0 L 474.5 0 L 474.5 567 L 0 567 Z M 0 0 "/>
</clipPath>
</defs>
<g id="surface1">
<g clip-path="url(#clip1)" clip-rule="nonzero">
<path style=" stroke:none;fill-rule:evenodd;fill:rgb(100%,89.451599%,20.776367%);fill-opacity:1;" d="M 239.304688 0.988281 C 276.171875 17.574219 314.925781 32.824219 354.257813 42.402344 C 386.671875 50.292969 422.3125 54.917969 455.421875 48.875 C 460.6875 47.914063 466.964844 47.878906 470.929688 52.078125 C 473.070313 54.34375 473.953125 57.277344 473.953125 60.347656 C 473.953125 113.523438 474.53125 166.707031 473.953125 219.886719 C 473.710938 242.746094 473.152344 265.785156 469.992188 288.457031 C 459.933594 360.570313 433.710938 422.351563 384.722656 476.480469 C 374.253906 488.046875 362.863281 498.855469 350.894531 508.847656 C 323.269531 531.910156 286.539063 555.457031 251.421875 564.578125 C 242.40625 566.917969 236.230469 567.867188 226.996094 565.675781 C 194.242188 557.90625 160.070313 537.914063 133.671875 517.488281 C 97.035156 489.136719 65.898438 453.097656 43.84375 412.320313 C 27.113281 381.390625 15.542969 348.269531 8.585938 313.824219 C 2.515625 283.78125 0.03125 253.214844 0.03125 222.585938 L 0.03125 60.589844 C 0.03125 51.191406 9.765625 46.863281 17.929688 48.480469 C 85.878906 61.96875 173.738281 28.640625 234.835938 0.992188 L 237.070313 -0.0195313 Z M 239.304688 0.988281 "/>
</g>
<path style=" stroke:none;fill-rule:evenodd;fill:rgb(17.259216%,16.868591%,16.479492%);fill-opacity:1;" d="M 237.074219 5.945313 C 316.078125 41.492188 394.027344 65.605469 456.398438 54.222656 C 463.789063 52.875 468.519531 54.492188 468.519531 60.347656 C 468.519531 113.070313 469.089844 167.109375 468.519531 219.828125 C 468.246094 244.78125 467.554688 266.558594 464.605469 287.707031 C 452.886719 371.734375 420.441406 428.910156 380.691406 472.835938 C 344.269531 513.078125 292.054688 548.40625 250.054688 559.316406 C 241.734375 561.476563 236.523438 562.351563 228.253906 560.386719 C 177.3125 548.304688 95.726563 496.824219 48.628906 409.734375 C 33.695313 382.136719 21.464844 350.097656 13.914063 312.75 C 8.414063 285.496094 5.46875 255.84375 5.46875 222.585938 L 5.46875 60.589844 C 5.46875 54.933594 11.933594 52.835938 16.871094 53.8125 C 77.3125 65.8125 155.421875 42.898438 237.074219 5.945313 Z M 237.074219 5.945313 "/>
<path style=" stroke:none;fill-rule:evenodd;fill:rgb(100%,89.451599%,20.776367%);fill-opacity:1;" d="M 15.90625 143.890625 L 15.90625 219.6875 C 15.90625 268.777344 27.335938 327.359375 41.578125 366.144531 C 61.585938 420.644531 93.089844 470.191406 141.433594 507.601563 C 163.398438 524.597656 193.992188 544.199219 237.050781 554.65625 C 281.871094 545.109375 317.265625 520.855469 342.621094 499.691406 C 379.890625 468.578125 405.464844 430.828125 424.675781 386.28125 C 443.941406 341.609375 457.886719 277.613281 458.515625 219.746094 L 458.742188 143.707031 C 458.746094 142.5 458.503906 141.257813 456.234375 141.257813 L 18.386719 141.257813 C 17.089844 141.257813 15.90625 142.066406 15.90625 143.890625 Z M 15.90625 143.890625 "/>
<path style=" stroke:none;fill-rule:evenodd;fill:rgb(100%,89.451599%,20.776367%);fill-opacity:1;" d="M 97.566406 69.589844 C 97.632813 70.625 98.117188 71.253906 98.503906 72.183594 C 99.550781 78.238281 97.644531 87.59375 100.109375 92.078125 C 108.90625 93.390625 117.035156 90.410156 119.0625 97.679688 C 122.171875 108.8125 112.972656 115.878906 104.261719 118.609375 C 106.996094 123.675781 112.003906 125.246094 116.300781 123.6875 C 126.472656 120 136.414063 101.4375 129.3125 89.453125 C 125.527344 83.070313 115.738281 83.710938 109.921875 82.972656 C 110.21875 77.402344 110.171875 71.988281 107.472656 69.402344 C 105.257813 68.636719 99.714844 68.414063 97.566406 69.589844 Z M 97.566406 69.589844 "/>
<path style=" stroke:none;fill-rule:evenodd;fill:rgb(100%,89.451599%,20.776367%);fill-opacity:1;" d="M 311.945313 74.019531 C 312.640625 76.523438 313.539063 79.117188 313.285156 81.648438 C 312.898438 85.542969 310.882813 89.816406 310.796875 94.664063 C 317.433594 94.855469 320.863281 87.867188 320.835938 81.886719 C 320.808594 76.609375 319.007813 72.109375 311.945313 74.019531 Z M 311.945313 74.019531 "/>
<path style=" stroke:none;fill-rule:evenodd;fill:rgb(100%,89.451599%,20.776367%);fill-opacity:1;" d="M 322.675781 74.382813 C 323.382813 75.898438 323.773438 76.691406 323.976563 78.238281 C 324.367188 81.191406 324.089844 84.894531 324.078125 87.546875 C 323.609375 88.585938 322.058594 89.753906 321.289063 92.070313 C 320.789063 93.574219 323.039063 94.25 324.230469 94.132813 C 329.058594 93.640625 331.476563 88.570313 332.121094 83.6875 C 332.679688 79.4375 331.714844 75.214844 328.839844 73.953125 C 327.714844 73.457031 324.398438 73.320313 322.675781 74.382813 Z M 322.675781 74.382813 "/>
<path style=" stroke:none;fill-rule:evenodd;fill:rgb(100%,89.451599%,20.776367%);fill-opacity:1;" d="M 340.335938 91.371094 L 344.269531 91.296875 C 345.160156 91.28125 345.46875 91.167969 345.925781 92.105469 C 341.742188 96.046875 342.933594 105.34375 342.796875 113.320313 C 342.527344 114.222656 339.484375 114.164063 337.628906 114.804688 C 336.148438 115.3125 335.828125 116.660156 336.144531 117.953125 C 336.960938 121.265625 339.527344 123.058594 341.980469 123.597656 C 346.460938 124.582031 350.046875 123.015625 351.96875 120.253906 C 356.53125 113.71875 354.214844 99.722656 354.648438 92.210938 C 356.859375 90.820313 364.835938 90.578125 365.824219 93.496094 C 367.253906 101.121094 366.109375 113.285156 366.355469 120.863281 C 366.414063 122.679688 366.835938 122.949219 368.585938 123.152344 C 372.636719 123.617188 375.660156 120.957031 377.675781 118.9375 C 377.21875 110.636719 379.550781 96.664063 377.675781 88.984375 C 376.394531 83.730469 371.285156 82.179688 364.925781 82.085938 C 360.285156 82.019531 354.980469 82.71875 350.011719 82.792969 C 346.410156 82.851563 342.941406 82.628906 339.96875 81.8125 C 338.378906 81.375 337.960938 81.011719 337.730469 83.078125 C 337.410156 86.03125 339.386719 89.441406 340.335938 91.371094 Z M 340.335938 91.371094 "/>
<path style=" stroke:none;fill-rule:evenodd;fill:rgb(100%,89.451599%,20.776367%);fill-opacity:1;" d="M 396.660156 103.4375 C 396.054688 95.863281 398.273438 88.652344 395.40625 84.617188 C 393.476563 81.804688 387.289063 79.589844 383.34375 83.042969 C 382.714844 83.601563 382.644531 83.929688 382.871094 84.789063 C 383.296875 86.398438 384.820313 88.003906 385.285156 90.855469 C 386.214844 96.5625 385.109375 104.390625 384.945313 109.535156 C 386.925781 110.035156 389.109375 109.644531 390.835938 108.796875 C 393.347656 107.554688 395.203125 105.324219 396.660156 103.4375 Z M 396.660156 103.4375 "/>
<path style=" stroke:none;fill-rule:evenodd;fill:rgb(100%,89.451599%,20.776367%);fill-opacity:1;" d="M 404.554688 91.144531 C 402.613281 89.257813 401.40625 86.414063 400.945313 82.996094 C 400.589844 80.324219 403.441406 81.851563 405.6875 81.953125 C 414.570313 82.351563 423.613281 79.878906 428.644531 85.570313 C 431.683594 89.015625 433.980469 96.644531 432.601563 103.652344 C 431.851563 107.445313 430.308594 109.738281 428.894531 111.707031 C 427.523438 113.605469 428.824219 113.933594 429.753906 113.832031 C 430.710938 113.726563 432.660156 113.011719 433.628906 112.9375 C 437.558594 112.625 433.734375 119.617188 431.863281 121.625 C 430.308594 121.96875 427.839844 122.082031 425.890625 122.078125 L 401.269531 122.058594 C 400.464844 122.027344 400.34375 120.734375 400.921875 118.941406 C 401.492188 117.148438 403.050781 114.851563 404.742188 113.566406 C 407.820313 113.480469 411.152344 113.59375 413.71875 113.332031 C 417.019531 112.988281 418.925781 112.019531 420.386719 109.792969 C 421.179688 108.484375 421.386719 106.824219 421.421875 102.214844 C 421.410156 96.492188 420.0625 93.023438 417.109375 91.144531 Z M 404.554688 91.144531 "/>
<path style=" stroke:none;fill-rule:evenodd;fill:rgb(100%,89.451599%,20.776367%);fill-opacity:1;" d="M 81.003906 84.019531 C 80.714844 86.546875 83.042969 88.105469 83.554688 91.015625 C 84.359375 96.132813 82.839844 108.210938 84.195313 110.730469 C 88.207031 111.308594 91.378906 109.332031 93.179688 106.183594 C 97.617188 98.445313 95.257813 83.617188 87.496094 82.277344 C 85.714844 81.96875 83.246094 82.558594 81.003906 84.019531 Z M 81.003906 84.019531 "/>
<path style=" stroke:none;fill-rule:evenodd;fill:rgb(100%,89.451599%,20.776367%);fill-opacity:1;" d="M 239.15625 84.019531 C 238.867188 86.546875 241.632813 88.539063 242.144531 91.449219 C 242.949219 96.566406 240.703125 108.210938 242.058594 110.730469 C 246.066406 111.308594 249.589844 109.363281 251.335938 106.183594 C 255.578125 98.445313 254.363281 83.617188 245.652344 82.277344 C 243.863281 82 241.402344 82.558594 239.15625 84.019531 Z M 239.15625 84.019531 "/>
<path style=" stroke:none;fill-rule:evenodd;fill:rgb(100%,89.451599%,20.776367%);fill-opacity:1;" d="M 134.882813 83.792969 C 134.8125 87.972656 136.515625 88.738281 136.953125 91.480469 C 138.414063 100.671875 134.738281 110.847656 141.480469 118.605469 C 151.605469 130.242188 180.359375 125.085938 183.105469 108.953125 C 184.339844 101.703125 182.578125 95.445313 182.816406 87.113281 C 181.027344 83.976563 174.578125 80.980469 169.933594 83.269531 C 168.835938 83.8125 168.804688 84.898438 169.28125 86.050781 C 169.867188 87.472656 171.148438 88.890625 171.546875 91.011719 C 172.503906 96.140625 170.238281 103.304688 171.445313 108.328125 C 170.121094 117.167969 151.222656 118.941406 149.09375 109.867188 C 163.390625 117.859375 169.511719 97.042969 163.886719 84.617188 C 161.757813 82.875 156.539063 81.398438 153.015625 83.070313 C 152.242188 83.4375 151.453125 84.257813 151.898438 85.070313 C 154.253906 89.351563 157.421875 104.886719 148.660156 104.628906 C 148.574219 92.824219 148.253906 77.398438 134.882813 83.792969 Z M 134.882813 83.792969 "/>
<path style=" stroke:none;fill-rule:evenodd;fill:rgb(100%,89.451599%,20.776367%);fill-opacity:1;" d="M 201.410156 104.253906 C 201.148438 98.417969 201.296875 93.144531 200.671875 89.261719 C 200.21875 86.441406 199.171875 84.527344 197.335938 83.457031 C 195.246094 82.246094 192.230469 82.117188 189.429688 82.984375 C 188.277344 83.339844 187.164063 83.769531 187.164063 83.933594 C 187.164063 83.933594 188.273438 86.230469 188.59375 87.136719 C 189.859375 90.699219 190.34375 95.222656 190.488281 100.027344 C 190.734375 108.308594 189.96875 117.429688 190.421875 123.929688 C 195.15625 124.019531 198.019531 122.996094 199.671875 121.003906 C 202.507813 117.570313 201.742188 111.644531 201.410156 104.253906 Z M 201.410156 104.253906 "/>
<path style=" stroke:none;fill-rule:evenodd;fill:rgb(100%,89.451599%,20.776367%);fill-opacity:1;" d="M 208.636719 92.34375 C 210.3125 93.121094 216.628906 92.433594 220.964844 92.683594 C 226.191406 99.167969 221.925781 116.351563 224.003906 124.023438 C 224.152344 124.578125 225.964844 124.535156 228.386719 123.582031 C 230.480469 122.757813 232.613281 121.421875 234.21875 120.1875 C 235.46875 112.628906 235.839844 100.820313 234.84375 93.351563 C 234.128906 87.996094 231.070313 85.148438 226.867188 83.992188 C 222.664063 82.835938 217.316406 83.367188 212.035156 83.257813 C 209.34375 83.203125 207.644531 82.808594 204.972656 82.453125 C 204.683594 86.3125 205.796875 91.027344 208.636719 92.34375 Z M 208.636719 92.34375 "/>
<path style=" stroke:none;fill-rule:evenodd;fill:rgb(100%,89.451599%,20.776367%);fill-opacity:1;" d="M 278.316406 92.152344 L 292.171875 92.683594 C 295.464844 98.941406 294.238281 113.265625 293.925781 121.351563 C 293.867188 122.859375 293.804688 123.292969 295.546875 123.535156 C 298.449219 123.941406 303.109375 122.121094 304.660156 119.234375 C 305.914063 113.390625 306.089844 99.488281 305.09375 92.019531 C 304.382813 86.664063 302.515625 84.164063 295.40625 83.039063 C 291.121094 82.363281 287.269531 82.652344 282.339844 82.664063 C 279.382813 82.667969 277.433594 82.570313 275.414063 82.640625 C 275.304688 85.875 275.953125 88.730469 278.316406 92.152344 Z M 278.316406 92.152344 "/>
<path style=" stroke:none;fill-rule:evenodd;fill:rgb(100%,89.451599%,20.776367%);fill-opacity:1;" d="M 52.21875 114.902344 C 50.988281 108.222656 50.878906 101.160156 50.964844 93.160156 C 54.035156 92.566406 58.085938 92.605469 63.085938 92.855469 C 66.023438 97.039063 65.996094 108.210938 65.464844 114.28125 C 65.464844 114.28125 64.300781 114.738281 58.753906 114.96875 C 54.210938 115.15625 52.21875 114.902344 52.21875 114.902344 Z M 40.21875 122.683594 C 50.476563 123.71875 65.328125 123.71875 75.585938 122.683594 C 77.039063 114.710938 78.058594 97.855469 75.585938 90.855469 C 71.417969 79.09375 52.3125 86.785156 38.96875 82.742188 C 40.3125 92.375 41.285156 110.605469 40.21875 122.683594 Z M 40.21875 122.683594 "/>
<path style=" stroke:none;fill-rule:evenodd;fill:rgb(17.259216%,16.868591%,16.479492%);fill-opacity:1;" d="M 248.546875 370.898438 C 287.878906 374.414063 318.964844 391.726563 336.441406 417.160156 L 138.570313 417.160156 C 151.527344 394.707031 186.253906 372.976563 225.816406 370.898438 L 225.738281 338.042969 C 225.363281 332.960938 222.761719 334.621094 221.378906 335.59375 C 209.085938 339.121094 201.855469 335.550781 197.121094 329.898438 C 194.9375 327.140625 193.269531 326.597656 190.039063 327.953125 C 181.691406 330.417969 172.511719 326.550781 167.53125 319.390625 C 166.007813 316.496094 163.953125 316.164063 161.59375 316.230469 C 152.261719 315.816406 145.710938 310.28125 142.992188 301.367188 C 142.28125 298.261719 141.132813 297.226563 138.289063 296.824219 C 129.386719 295.453125 123.714844 289.238281 122.339844 279.820313 C 122.078125 276.839844 120.644531 275.742188 118.136719 274.960938 C 109.191406 272.191406 102.425781 261.960938 105.660156 252.664063 C 106.597656 249.96875 105.578125 248.1875 103.316406 246.828125 C 96.285156 242.589844 91.878906 233.835938 94.761719 225.460938 C 95.496094 223.320313 95.261719 220.378906 92.878906 218.015625 C 87.058594 212.25 85.597656 203.132813 89.472656 195.5 C 91.175781 192.136719 91.046875 190.597656 91.046875 185.164063 C 87.378906 184.1875 84.730469 181.554688 84.730469 178.472656 C 84.730469 174.585938 88.9375 171.410156 94.117188 171.375 C 93.96875 170.617188 93.894531 169.824219 93.894531 169.007813 C 93.894531 163.792969 97.089844 159.542969 101.003906 159.542969 C 104.921875 159.542969 108.109375 163.792969 108.109375 169.007813 C 108.109375 169.824219 108.03125 170.617188 107.882813 171.375 C 113.0625 171.410156 117.273438 174.585938 117.273438 178.472656 C 117.273438 181.554688 114.628906 184.183594 110.953125 185.164063 C 110.953125 189.675781 111.460938 191.523438 113.390625 193.609375 C 117.84375 197.964844 118.8125 207.828125 117.3125 213.347656 C 116.695313 215.625 116.910156 217.519531 119.097656 219.28125 C 125.804688 226.34375 125.339844 231.628906 124.492188 238.976563 C 124.164063 241.464844 124.867188 243.070313 127.039063 244.289063 C 133.828125 248.097656 136.398438 253.304688 136.679688 260.820313 C 136.777344 263.417969 137.699219 263.910156 140.210938 264.734375 C 145.949219 265.992188 152.394531 271.144531 154.015625 280.671875 C 153.976563 283.210938 155.683594 284.039063 158.449219 284.285156 C 165.472656 284.914063 171.757813 289.171875 174.003906 295.960938 C 174.761719 298.253906 175.988281 298.449219 178.449219 298.167969 C 185.933594 297.308594 193.539063 300.351563 196.90625 307.398438 C 198.003906 309.675781 199.808594 310.832031 203.089844 308.988281 C 208.59375 307.398438 217.980469 308.617188 222.972656 312.867188 C 224.769531 314.398438 225.710938 312.867188 225.710938 310.910156 L 225.710938 293.363281 C 217.058594 293.421875 210.96875 290.195313 208.007813 284.703125 C 206.882813 282.617188 206.085938 282.558594 203.722656 282.890625 C 193.683594 284.324219 185.382813 279.539063 182.777344 273.003906 C 181.828125 270.894531 181.089844 270.207031 178.632813 269.910156 C 168.886719 267.40625 163.425781 261.148438 162.796875 253.160156 C 162.460938 249.800781 161.902344 248.089844 158.410156 247.582031 C 149.242188 244.679688 143.03125 234.78125 144.777344 226.421875 C 145.640625 222.835938 144.714844 221.410156 142.683594 219.710938 C 136.488281 214.90625 133.714844 206.035156 136.699219 196.007813 C 138.359375 192.53125 137.753906 188.898438 137.675781 185.164063 C 134.003906 184.1875 131.359375 181.554688 131.359375 178.472656 C 131.359375 174.585938 135.570313 171.410156 140.746094 171.375 C 140.601563 170.617188 140.519531 169.824219 140.519531 169.007813 C 140.519531 163.792969 143.714844 159.542969 147.632813 159.542969 C 151.546875 159.542969 154.738281 163.792969 154.738281 169.007813 C 154.738281 169.824219 154.660156 170.617188 154.511719 171.375 C 159.691406 171.410156 163.902344 174.585938 163.902344 178.472656 C 163.902344 181.554688 161.257813 184.183594 157.585938 185.164063 C 157.585938 188.765625 156.941406 190.734375 160.058594 193.257813 C 165.089844 198.210938 166.109375 205.5625 165.355469 212.859375 C 164.730469 214.878906 164.890625 215.777344 166.941406 217.144531 C 173.648438 222.855469 175.878906 228.035156 175.558594 233.890625 C 175.5625 235.875 176.089844 237.324219 178.695313 237.566406 C 185.578125 238.203125 192.183594 243.316406 193.84375 250.121094 C 194.203125 251.605469 195.503906 252.269531 197.675781 252.480469 C 204.351563 253.140625 208.960938 256.5625 212.128906 262.195313 C 213.054688 263.84375 214.140625 263.699219 215.878906 263.210938 C 218.074219 262.597656 220.199219 262.203125 222.558594 262.277344 C 223.257813 262.296875 223.988281 261.671875 224.050781 260.558594 C 224.304688 255.996094 225.019531 250.515625 226.398438 244.300781 L 226.398438 240.828125 C 226.398438 238.378906 224.617188 239.425781 222.28125 239.585938 C 211.402344 240.335938 202.078125 233.644531 200.632813 225.691406 C 200.046875 221.664063 199.117188 221.050781 196.089844 220.4375 C 186.074219 216.742188 180.890625 206.449219 183.371094 196.300781 C 184.695313 192.859375 184.308594 188.808594 184.308594 185.164063 C 180.632813 184.1875 177.988281 181.554688 177.988281 178.472656 C 177.988281 174.585938 182.195313 171.410156 187.378906 171.375 C 187.226563 170.617188 187.152344 169.824219 187.152344 169.007813 C 187.152344 163.792969 190.34375 159.542969 194.261719 159.542969 C 198.175781 159.542969 201.367188 163.792969 201.367188 169.007813 C 201.367188 169.824219 201.289063 170.617188 201.144531 171.375 C 206.320313 171.410156 210.53125 174.585938 210.53125 178.472656 C 210.53125 181.554688 207.886719 184.183594 204.214844 185.164063 C 204.265625 187.785156 203.628906 189.347656 206.007813 190.972656 C 210.152344 194.335938 213.144531 199.585938 213.578125 204.6875 C 213.632813 206.964844 214.378906 208.039063 217.425781 208.363281 C 219.871094 208.621094 221.898438 209.582031 224.003906 211.039063 C 225.144531 211.828125 225.242188 210.9375 225.089844 209.519531 C 224.214844 201.214844 225.921875 193.445313 227.179688 185.164063 C 223.503906 184.183594 220.859375 181.554688 220.859375 178.472656 C 220.859375 174.585938 225.070313 171.410156 230.246094 171.375 C 230.101563 170.617188 230.019531 169.824219 230.019531 169.007813 C 230.019531 163.792969 233.214844 159.542969 237.128906 159.542969 L 237.132813 159.542969 C 237.132813 159.542969 237.128906 159.542969 237.132813 159.542969 C 241.050781 159.542969 244.242188 163.792969 244.242188 169.007813 C 244.242188 169.824219 244.160156 170.617188 244.015625 171.375 C 249.191406 171.410156 253.40625 174.585938 253.40625 178.472656 C 253.40625 181.554688 250.757813 184.183594 247.085938 185.164063 C 248.339844 193.445313 250.050781 201.214844 249.171875 209.519531 C 249.015625 210.9375 249.121094 211.828125 250.257813 211.039063 C 252.363281 209.582031 254.386719 208.621094 256.839844 208.363281 C 259.886719 208.039063 260.628906 206.964844 260.683594 204.6875 C 261.113281 199.585938 264.109375 194.335938 268.253906 190.972656 C 270.632813 189.347656 270.003906 187.785156 270.050781 185.164063 C 266.378906 184.183594 263.730469 181.554688 263.730469 178.472656 C 263.730469 174.585938 267.9375 171.410156 273.121094 171.375 C 272.972656 170.617188 272.894531 169.824219 272.894531 169.007813 C 272.894531 163.792969 276.089844 159.542969 280.003906 159.542969 C 283.921875 159.542969 287.113281 163.792969 287.113281 169.007813 C 287.113281 169.824219 287.035156 170.617188 286.886719 171.375 C 292.0625 171.410156 296.273438 174.585938 296.273438 178.472656 C 296.273438 181.554688 293.628906 184.1875 289.960938 185.164063 C 289.960938 188.808594 289.566406 192.859375 290.890625 196.300781 C 293.371094 206.449219 288.1875 216.742188 278.171875 220.4375 C 275.148438 221.050781 274.21875 221.664063 273.628906 225.691406 C 272.183594 233.644531 262.859375 240.335938 251.984375 239.585938 C 249.644531 239.425781 247.863281 238.378906 247.863281 240.828125 L 247.863281 244.300781 C 249.242188 250.515625 249.960938 255.996094 250.214844 260.558594 C 250.273438 261.671875 251.003906 262.296875 251.703125 262.277344 C 254.0625 262.203125 256.1875 262.597656 258.386719 263.210938 C 260.128906 263.699219 261.210938 263.84375 262.136719 262.195313 C 265.308594 256.5625 269.90625 253.140625 276.589844 252.480469 C 278.765625 252.269531 280.058594 251.605469 280.421875 250.121094 C 282.078125 243.316406 288.683594 238.203125 295.5625 237.566406 C 298.171875 237.324219 298.699219 235.875 298.699219 233.890625 C 298.386719 228.035156 300.613281 222.855469 307.316406 217.144531 C 309.371094 215.777344 309.527344 214.878906 308.910156 212.859375 C 308.152344 205.5625 309.179688 198.210938 314.210938 193.257813 C 317.320313 190.734375 316.679688 188.765625 316.679688 185.164063 C 313.003906 184.183594 310.359375 181.554688 310.359375 178.472656 C 310.359375 174.585938 314.574219 171.410156 319.753906 171.375 C 319.601563 170.617188 319.523438 169.824219 319.523438 169.007813 C 319.523438 163.792969 322.71875 159.542969 326.628906 159.542969 C 330.546875 159.542969 333.742188 163.792969 333.742188 169.007813 C 333.742188 169.824219 333.664063 170.617188 333.515625 171.375 C 338.695313 171.410156 342.902344 174.585938 342.902344 178.472656 C 342.902344 181.554688 340.261719 184.1875 336.589844 185.164063 C 336.507813 188.898438 335.898438 192.53125 337.5625 196.007813 C 340.550781 206.035156 337.773438 214.90625 331.585938 219.710938 C 329.550781 221.410156 328.617188 222.835938 329.484375 226.421875 C 331.234375 234.78125 325.027344 244.679688 315.851563 247.582031 C 312.363281 248.089844 311.808594 249.800781 311.46875 253.160156 C 310.839844 261.148438 305.378906 267.40625 295.628906 269.910156 C 293.171875 270.207031 292.433594 270.894531 291.488281 273.003906 C 288.878906 279.539063 280.585938 284.324219 270.539063 282.890625 C 268.183594 282.558594 267.378906 282.617188 266.257813 284.703125 C 263.296875 290.195313 257.203125 293.421875 248.558594 293.363281 L 248.558594 310.910156 C 248.558594 312.867188 249.492188 314.398438 251.289063 312.867188 C 256.28125 308.617188 265.671875 307.398438 271.179688 308.988281 C 274.453125 310.832031 276.265625 309.675781 277.355469 307.398438 C 280.722656 300.351563 288.335938 297.308594 295.816406 298.167969 C 298.277344 298.449219 299.496094 298.253906 300.257813 295.960938 C 302.503906 289.171875 308.785156 284.914063 315.8125 284.285156 C 318.585938 284.039063 320.285156 283.210938 320.246094 280.671875 C 321.867188 271.144531 328.308594 265.992188 334.058594 264.734375 C 336.5625 263.910156 337.484375 263.417969 337.585938 260.820313 C 337.867188 253.304688 340.4375 248.097656 347.226563 244.289063 C 349.398438 243.070313 350.101563 241.464844 349.773438 238.976563 C 348.929688 231.628906 348.460938 226.34375 355.164063 219.28125 C 357.351563 217.519531 357.566406 215.625 356.949219 213.347656 C 355.449219 207.828125 356.421875 197.964844 360.878906 193.609375 C 362.804688 191.523438 363.308594 189.675781 363.308594 185.164063 C 359.632813 184.183594 356.988281 181.554688 356.988281 178.472656 C 356.988281 174.585938 361.199219 171.410156 366.378906 171.375 C 366.230469 170.617188 366.152344 169.824219 366.152344 169.007813 C 366.152344 163.792969 369.34375 159.542969 373.257813 159.542969 C 377.175781 159.542969 380.371094 163.792969 380.371094 169.007813 C 380.371094 169.824219 380.296875 170.617188 380.144531 171.375 C 385.320313 171.410156 389.53125 174.585938 389.53125 178.472656 C 389.53125 181.554688 386.890625 184.1875 383.214844 185.164063 C 383.214844 190.597656 383.089844 192.136719 384.789063 195.5 C 388.671875 203.132813 387.203125 212.25 381.382813 218.015625 C 379.003906 220.378906 378.765625 223.320313 379.503906 225.460938 C 382.386719 233.835938 377.976563 242.589844 370.945313 246.828125 C 368.683594 248.1875 367.664063 249.96875 368.601563 252.664063 C 371.839844 261.960938 365.066406 272.191406 356.128906 274.960938 C 353.617188 275.742188 352.183594 276.839844 351.921875 279.820313 C 350.550781 289.238281 344.878906 295.453125 335.972656 296.824219 C 333.128906 297.226563 331.980469 298.261719 331.269531 301.367188 C 328.554688 310.28125 322.003906 315.816406 312.671875 316.230469 C 310.308594 316.164063 308.253906 316.496094 306.730469 319.390625 C 301.753906 326.550781 292.570313 330.417969 284.226563 327.953125 C 280.992188 326.597656 279.328125 327.140625 277.144531 329.898438 C 272.40625 335.550781 265.324219 339.121094 253.027344 335.59375 C 251.644531 334.621094 249.046875 332.960938 248.671875 338.042969 Z M 248.546875 370.898438 "/>
<path style=" stroke:none;fill-rule:evenodd;fill:rgb(17.259216%,16.868591%,16.479492%);fill-opacity:1;" d="M 191.628906 431.0625 L 196.84375 431 C 199.246094 431 201.078125 431.324219 202.339844 431.976563 C 203.601563 432.628906 204.230469 433.765625 204.230469 435.394531 C 204.230469 436.492188 203.949219 437.441406 203.390625 438.234375 C 202.835938 439.027344 202.136719 439.625 201.300781 440.035156 C 202.296875 440.277344 203.242188 440.777344 204.140625 441.527344 C 205.21875 442.425781 205.757813 443.710938 205.757813 445.390625 C 205.757813 447.066406 205.339844 448.425781 204.503906 449.464844 C 203.671875 450.5 202.609375 451.253906 201.316406 451.722656 C 200.023438 452.191406 198.402344 452.421875 196.449219 452.421875 C 193.273438 452.34375 191.648438 452.300781 191.566406 452.300781 L 189.128906 452.363281 L 189.128906 451.660156 C 189.53125 450.664063 189.734375 449.238281 189.734375 447.386719 L 189.734375 436.25 C 189.734375 434.253906 189.5625 432.730469 189.214844 431.671875 L 189.214844 431 C 189.785156 431.042969 190.589844 431.0625 191.628906 431.0625 Z M 195.136719 441.46875 L 194.066406 441.46875 C 194.066406 446.332031 194.097656 449.25 194.160156 450.226563 C 194.972656 450.347656 195.59375 450.410156 196.019531 450.410156 C 197.566406 450.410156 198.8125 449.992188 199.757813 449.160156 C 200.710938 448.324219 201.179688 447.207031 201.179688 445.800781 C 201.179688 442.914063 199.164063 441.46875 195.136719 441.46875 Z M 200.050781 436.25 C 200.050781 435.027344 199.746094 434.164063 199.132813 433.65625 C 198.523438 433.148438 197.664063 432.890625 196.554688 432.890625 C 195.445313 432.890625 194.628906 432.921875 194.097656 432.984375 C 194.078125 433.269531 194.066406 435.476563 194.066406 439.605469 L 196.144531 439.605469 C 198.746094 439.605469 200.050781 438.488281 200.050781 436.25 Z M 200.050781 436.25 "/>
<path style=" stroke:none;fill-rule:evenodd;fill:rgb(17.259216%,16.868591%,16.479492%);fill-opacity:1;" d="M 216.195313 433.167969 C 215.359375 433.167969 214.710938 433.1875 214.242188 433.226563 C 214.199219 434.164063 214.179688 436.453125 214.179688 440.09375 L 222.023438 439.941406 L 220.953125 442.476563 L 220.378906 442.476563 C 219.601563 442.3125 218.46875 442.230469 216.972656 442.230469 C 215.476563 442.230469 214.546875 442.25 214.179688 442.292969 L 214.179688 443.910156 C 214.179688 447.328125 214.214844 449.371094 214.269531 450.042969 C 214.738281 450.085938 215.515625 450.105469 216.605469 450.105469 C 217.695313 450.105469 219.003906 450.011719 220.527344 449.828125 C 222.054688 449.648438 223.171875 449.414063 223.882813 449.128906 L 224.464844 449.128906 L 223.882813 452.363281 L 209.265625 452.363281 L 209.265625 451.691406 C 209.613281 450.226563 209.785156 448.183594 209.785156 445.558594 L 209.785156 437.835938 C 209.785156 435.191406 209.613281 433.136719 209.265625 431.671875 L 209.265625 431 L 223.460938 430.910156 L 222.546875 433.59375 L 221.964844 433.59375 C 220.964844 433.308594 219.046875 433.167969 216.195313 433.167969 Z M 216.195313 433.167969 "/>
<path style=" stroke:none;fill-rule:evenodd;fill:rgb(17.259216%,16.868591%,16.479492%);fill-opacity:1;" d="M 232.367188 438.050781 L 232.367188 445.34375 C 232.367188 448.355469 232.53125 450.46875 232.855469 451.691406 L 232.855469 452.363281 L 227.546875 452.363281 L 227.546875 451.691406 C 227.871094 450.46875 228.035156 448.355469 228.035156 445.34375 L 228.035156 437.746094 C 228.035156 434.917969 227.871094 432.890625 227.546875 431.671875 L 227.546875 431 L 232.855469 431 L 232.855469 431.671875 C 232.714844 432.140625 232.597656 433.121094 232.503906 434.617188 C 232.414063 436.113281 232.367188 437.257813 232.367188 438.050781 Z M 232.367188 438.050781 "/>
<path style=" stroke:none;fill-rule:evenodd;fill:rgb(17.259216%,16.868591%,16.479492%);fill-opacity:1;" d="M 234.835938 434.023438 C 234.835938 433.105469 234.78125 432.070313 234.679688 430.910156 C 238.648438 430.96875 241.617188 431 243.589844 431 C 245.5625 431 248.535156 430.96875 252.503906 430.910156 C 252.398438 432.070313 252.347656 433.105469 252.347656 434.023438 L 251.769531 434.023438 C 249.46875 433.492188 247.496094 433.199219 245.847656 433.136719 C 245.765625 434.152344 245.726563 435.679688 245.726563 437.714844 L 245.726563 445.710938 C 245.726563 448.476563 245.890625 450.46875 246.214844 451.691406 L 246.214844 452.363281 L 240.964844 452.363281 L 240.964844 451.691406 C 241.253906 450.46875 241.394531 448.507813 241.394531 445.800781 L 241.394531 437.835938 C 241.394531 435.742188 241.351563 434.175781 241.269531 433.136719 C 239.746094 433.199219 237.796875 433.492188 235.410156 434.023438 Z M 234.835938 434.023438 "/>
<path style=" stroke:none;fill-rule:evenodd;fill:rgb(17.259216%,16.868591%,16.479492%);fill-opacity:1;" d="M 262.191406 445.160156 C 261.421875 445.140625 260.347656 445.128906 258.988281 445.128906 C 257.628906 445.128906 256.523438 445.140625 255.691406 445.160156 C 255.019531 447.480469 254.621094 448.910156 254.503906 449.449219 C 254.378906 449.988281 254.316406 450.734375 254.316406 451.691406 L 254.316406 452.363281 L 249.191406 452.363281 L 249.191406 451.691406 C 250.253906 450.957031 251.5625 448.253906 253.128906 443.574219 C 254.695313 438.894531 255.722656 435.796875 256.214844 434.28125 C 256.699219 432.765625 256.980469 431.671875 257.0625 431 L 261.761719 430.542969 C 261.761719 431.316406 262.433594 433.535156 263.777344 437.195313 C 266.28125 444.03125 268.019531 448.234375 268.996094 449.800781 C 269.464844 450.59375 269.992188 451.222656 270.585938 451.691406 L 270.585938 452.363281 L 264.113281 452.363281 L 264.113281 451.691406 C 264.113281 450.835938 263.472656 448.660156 262.191406 445.160156 Z M 258.804688 434.847656 C 258.132813 436.777344 257.289063 439.472656 256.269531 442.933594 L 261.550781 442.933594 C 261.429688 442.585938 261.246094 442.007813 261.003906 441.195313 C 260.472656 439.382813 259.738281 437.265625 258.804688 434.847656 Z M 258.804688 434.847656 "/>
<path style=" stroke:none;fill-rule:evenodd;fill:rgb(17.259216%,16.868591%,16.479492%);fill-opacity:1;" d="M 275.289063 431.0625 L 279.65625 431 C 282.277344 431 284.308594 431.398438 285.742188 432.191406 C 287.175781 432.984375 287.894531 434.320313 287.894531 436.203125 C 287.894531 438.085938 287.3125 439.597656 286.15625 440.734375 C 284.996094 441.875 283.449219 442.535156 281.515625 442.71875 L 284.996094 446.777344 C 286.480469 448.507813 287.628906 449.699219 288.429688 450.347656 C 289.230469 451 289.964844 451.425781 290.609375 451.628906 L 290.609375 452.363281 L 285.269531 452.363281 C 284.984375 451.933594 284.285156 451.011719 283.164063 449.585938 L 277.671875 442.902344 C 277.425781 442.902344 277.253906 442.890625 277.152344 442.871094 L 277.152344 447.113281 C 277.152344 449.109375 277.316406 450.632813 277.640625 451.691406 L 277.640625 452.363281 L 272.210938 452.363281 L 272.210938 451.691406 C 272.613281 450.632813 272.820313 449.210938 272.820313 447.417969 L 272.820313 436.464844 C 272.820313 434.429688 272.644531 432.832031 272.300781 431.671875 L 272.300781 431 C 272.871094 431.042969 273.867188 431.0625 275.289063 431.0625 Z M 283.378906 436.738281 C 283.378906 435.3125 283.066406 434.332031 282.445313 433.792969 C 281.828125 433.253906 280.859375 432.984375 279.546875 432.984375 C 278.234375 432.984375 277.460938 432.996094 277.214844 433.015625 C 277.171875 433.625 277.152344 436.269531 277.152344 440.949219 C 277.621094 441.011719 278.199219 441.039063 278.890625 441.039063 C 280.519531 441.039063 281.675781 440.679688 282.355469 439.957031 C 283.035156 439.234375 283.378906 438.160156 283.378906 436.738281 Z M 283.378906 436.738281 "/>
<path style=" stroke:none;fill-rule:evenodd;fill:rgb(17.259216%,16.868591%,16.479492%);fill-opacity:1;" d="M 155.664063 478.875 L 155.664063 470.453125 C 155.664063 467.460938 155.480469 465.4375 155.113281 464.378906 L 155.113281 463.707031 L 160.484375 463.707031 L 160.484375 464.378906 C 160.34375 464.847656 160.226563 465.828125 160.132813 467.324219 C 160.046875 468.820313 159.996094 469.964844 159.996094 470.757813 L 159.996094 480.15625 C 159.996094 482.148438 159.855469 483.578125 159.570313 484.445313 C 159.285156 485.308594 159.066406 485.96875 158.914063 486.425781 C 158.761719 486.886719 158.484375 487.363281 158.089844 487.863281 C 157.691406 488.359375 157.402344 488.730469 157.21875 488.976563 C 157.035156 489.21875 156.671875 489.566406 156.121094 490.011719 C 155.570313 490.460938 155.214844 490.746094 155.054688 490.867188 L 152.613281 492.636719 L 150.992188 491.171875 C 151.464844 490.847656 152.03125 490.410156 152.703125 489.859375 C 153.925781 488.824219 154.722656 487.570313 155.097656 486.105469 C 155.476563 484.640625 155.664063 482.230469 155.664063 478.875 Z M 155.664063 478.875 "/>
<path style=" stroke:none;fill-rule:evenodd;fill:rgb(17.259216%,16.868591%,16.479492%);fill-opacity:1;" d="M 173.132813 465.875 C 172.300781 465.875 171.648438 465.894531 171.179688 465.933594 C 171.140625 466.871094 171.121094 469.160156 171.121094 472.800781 L 178.964844 472.648438 L 177.894531 475.183594 L 177.316406 475.183594 C 176.546875 475.019531 175.40625 474.9375 173.914063 474.9375 C 172.421875 474.9375 171.488281 474.957031 171.121094 475 L 171.121094 476.617188 C 171.121094 480.035156 171.152344 482.078125 171.214844 482.75 C 171.679688 482.789063 172.460938 482.8125 173.546875 482.8125 C 174.636719 482.8125 175.941406 482.71875 177.46875 482.535156 C 178.992188 482.351563 180.113281 482.121094 180.824219 481.835938 L 181.40625 481.835938 L 180.824219 485.070313 L 166.210938 485.070313 L 166.210938 484.398438 C 166.554688 482.933594 166.726563 480.886719 166.726563 478.265625 L 166.726563 470.542969 C 166.726563 467.898438 166.554688 465.84375 166.210938 464.378906 L 166.210938 463.707031 L 180.398438 463.617188 L 179.480469 466.300781 L 178.902344 466.300781 C 177.90625 466.015625 175.984375 465.875 173.132813 465.875 Z M 173.132813 465.875 "/>
<path style=" stroke:none;fill-rule:evenodd;fill:rgb(17.259216%,16.868591%,16.479492%);fill-opacity:1;" d="M 187.476563 463.769531 L 191.84375 463.707031 C 194.464844 463.707031 196.496094 464.105469 197.929688 464.898438 C 199.363281 465.691406 200.085938 467.027344 200.085938 468.910156 C 200.085938 470.792969 199.503906 472.304688 198.34375 473.441406 C 197.183594 474.582031 195.636719 475.242188 193.703125 475.425781 L 197.183594 479.484375 C 198.671875 481.214844 199.8125 482.402344 200.617188 483.054688 C 201.421875 483.707031 202.148438 484.132813 202.796875 484.335938 L 202.796875 485.070313 L 197.460938 485.070313 C 197.171875 484.640625 196.46875 483.714844 195.351563 482.292969 L 189.859375 475.609375 C 189.613281 475.609375 189.441406 475.597656 189.339844 475.578125 L 189.339844 479.820313 C 189.339844 481.8125 189.503906 483.339844 189.828125 484.398438 L 189.828125 485.070313 L 184.394531 485.070313 L 184.394531 484.398438 C 184.800781 483.339844 185.007813 481.914063 185.007813 480.125 L 185.007813 469.167969 C 185.007813 467.136719 184.835938 465.539063 184.488281 464.378906 L 184.488281 463.707031 C 185.058594 463.746094 186.054688 463.769531 187.476563 463.769531 Z M 195.566406 469.445313 C 195.566406 468.019531 195.253906 467.039063 194.632813 466.5 C 194.015625 465.960938 193.046875 465.691406 191.734375 465.691406 C 190.421875 465.691406 189.644531 465.699219 189.402344 465.722656 C 189.359375 466.332031 189.339844 468.976563 189.339844 473.65625 C 189.808594 473.71875 190.386719 473.746094 191.078125 473.746094 C 192.710938 473.746094 193.859375 473.386719 194.546875 472.664063 C 195.222656 471.941406 195.566406 470.867188 195.566406 469.445313 Z M 195.566406 469.445313 "/>
<path style=" stroke:none;fill-rule:evenodd;fill:rgb(17.259216%,16.868591%,16.479492%);fill-opacity:1;" d="M 222.4375 470.085938 L 222.4375 475.546875 C 222.4375 479.25 221.757813 481.820313 220.40625 483.253906 C 219.054688 484.6875 216.78125 485.40625 213.589844 485.40625 C 210.390625 485.40625 208.085938 484.707031 206.65625 483.316406 C 205.234375 481.921875 204.523438 479.6875 204.523438 476.617188 L 204.523438 470.574219 C 204.523438 467.542969 204.359375 465.476563 204.035156 464.378906 L 204.035156 463.707031 L 209.28125 463.707031 L 209.28125 464.378906 C 208.996094 466.210938 208.855469 468.578125 208.855469 471.488281 L 208.855469 475.242188 C 208.855469 477.296875 208.984375 478.761719 209.238281 479.636719 C 209.492188 480.511719 209.800781 481.144531 210.171875 481.53125 C 211.003906 482.445313 212.277344 482.902344 213.996094 482.902344 C 215.71875 482.902344 216.992188 482.636719 217.828125 482.109375 C 218.355469 481.316406 218.691406 480.226563 218.839844 478.84375 C 218.976563 477.460938 219.046875 475.117188 219.046875 471.808594 C 219.046875 468.503906 218.886719 466.027344 218.558594 464.378906 L 218.558594 463.707031 L 222.925781 463.707031 L 222.925781 464.347656 C 222.78125 464.816406 222.664063 465.707031 222.574219 467.019531 C 222.480469 468.332031 222.4375 469.351563 222.4375 470.085938 Z M 222.4375 470.085938 "/>
<path style=" stroke:none;fill-rule:evenodd;fill:rgb(17.259216%,16.868591%,16.479492%);fill-opacity:1;" d="M 230.882813 469.902344 C 231.410156 470.371094 231.992188 470.75 232.621094 471.046875 C 233.253906 471.339844 233.816406 471.601563 234.316406 471.824219 C 234.8125 472.046875 235.132813 472.195313 235.277344 472.265625 C 235.421875 472.339844 235.757813 472.496094 236.296875 472.738281 C 236.839844 472.984375 237.179688 473.140625 237.320313 473.214844 C 237.464844 473.285156 237.777344 473.460938 238.265625 473.746094 C 238.753906 474.03125 239.089844 474.265625 239.273438 474.449219 C 239.460938 474.632813 239.722656 474.902344 240.066406 475.257813 C 240.414063 475.613281 240.65625 475.953125 240.800781 476.28125 C 241.1875 477.195313 241.378906 478.121094 241.378906 479.058594 C 241.378906 481.152344 240.632813 482.738281 239.136719 483.816406 C 237.640625 484.894531 235.597656 485.433594 233.003906 485.433594 C 230.410156 485.433594 228.046875 484.722656 225.90625 483.300781 C 225.96875 481.835938 226.527344 480.460938 227.589844 479.179688 C 228.5625 480.257813 229.660156 481.144531 230.882813 481.835938 C 232.101563 482.527344 233.214844 482.871094 234.222656 482.871094 C 235.230469 482.871094 236.121094 482.648438 236.894531 482.199219 C 237.28125 481.691406 237.472656 480.898438 237.472656 479.820313 C 237.472656 479.007813 237.238281 478.355469 236.769531 477.867188 C 236.488281 477.601563 236.246094 477.382813 236.054688 477.210938 C 235.859375 477.039063 235.519531 476.828125 235.03125 476.585938 C 234.546875 476.320313 233.550781 475.859375 232.054688 475.195313 C 230.5625 474.535156 229.519531 474.011719 228.929688 473.625 C 227.238281 472.484375 226.394531 470.953125 226.394531 469.03125 C 226.394531 467.109375 227.121094 465.679688 228.578125 464.746094 C 230.03125 463.808594 231.839844 463.339844 233.992188 463.339844 C 236.152344 463.339844 238.421875 463.847656 240.800781 464.867188 C 240.554688 466.269531 240.035156 467.632813 239.242188 468.957031 C 238.210938 468 237.105469 467.222656 235.949219 466.621094 C 234.789063 466.019531 233.738281 465.722656 232.804688 465.722656 C 231.867188 465.722656 231.128906 465.875 230.578125 466.179688 C 230.253906 466.566406 230.089844 467.164063 230.089844 467.980469 C 230.089844 468.792969 230.351563 469.433594 230.882813 469.902344 Z M 230.882813 469.902344 "/>
<path style=" stroke:none;fill-rule:evenodd;fill:rgb(17.259216%,16.868591%,16.479492%);fill-opacity:1;" d="M 254.433594 477.867188 C 253.660156 477.847656 252.59375 477.835938 251.230469 477.835938 C 249.867188 477.835938 248.765625 477.847656 247.933594 477.867188 C 247.261719 480.1875 246.863281 481.617188 246.742188 482.15625 C 246.621094 482.695313 246.558594 483.441406 246.558594 484.398438 L 246.558594 485.070313 L 241.433594 485.070313 L 241.433594 484.398438 C 242.492188 483.664063 243.804688 480.960938 245.371094 476.28125 C 246.9375 471.601563 247.964844 468.503906 248.453125 466.988281 C 248.941406 465.472656 249.226563 464.378906 249.304688 463.707031 L 254.007813 463.25 C 254.007813 464.023438 254.679688 466.238281 256.019531 469.902344 C 258.523438 476.738281 260.261719 480.9375 261.238281 482.507813 C 261.710938 483.300781 262.234375 483.929688 262.824219 484.398438 L 262.824219 485.070313 L 256.355469 485.070313 L 256.355469 484.398438 C 256.355469 483.542969 255.714844 481.367188 254.433594 477.867188 Z M 251.046875 467.550781 C 250.378906 469.484375 249.53125 472.179688 248.511719 475.640625 L 253.796875 475.640625 C 253.671875 475.292969 253.488281 474.714844 253.242188 473.898438 C 252.714844 472.089844 251.980469 469.972656 251.046875 467.550781 Z M 251.046875 467.550781 "/>
<path style=" stroke:none;fill-rule:evenodd;fill:rgb(17.259216%,16.868591%,16.479492%);fill-opacity:1;" d="M 264.160156 485.070313 L 264.160156 484.398438 C 264.488281 482.996094 264.648438 480.980469 264.648438 478.355469 L 264.648438 470.453125 C 264.648438 467.625 264.488281 465.597656 264.160156 464.378906 L 264.160156 463.707031 L 269.472656 463.707031 L 269.472656 464.378906 C 269.328125 464.847656 269.214844 465.800781 269.121094 467.246094 C 269.027344 468.691406 268.984375 469.789063 268.984375 470.542969 L 268.984375 478.691406 C 268.984375 480.175781 269.046875 481.53125 269.171875 482.75 C 269.550781 482.789063 270.355469 482.8125 271.578125 482.8125 C 274.796875 482.8125 277.171875 482.484375 278.71875 481.835938 L 279.296875 481.835938 L 278.753906 485.070313 Z M 264.160156 485.070313 "/>
<path style=" stroke:none;fill-rule:evenodd;fill:rgb(17.259216%,16.868591%,16.479492%);fill-opacity:1;" d="M 287.753906 465.875 C 286.921875 465.875 286.265625 465.894531 285.796875 465.933594 C 285.757813 466.871094 285.738281 469.160156 285.738281 472.800781 L 293.578125 472.648438 L 292.511719 475.183594 L 291.933594 475.183594 C 291.160156 475.019531 290.023438 474.9375 288.527344 474.9375 C 287.035156 474.9375 286.101563 474.957031 285.738281 475 L 285.738281 476.617188 C 285.738281 480.035156 285.765625 482.078125 285.828125 482.75 C 286.296875 482.789063 287.074219 482.8125 288.164063 482.8125 C 289.253906 482.8125 290.558594 482.71875 292.089844 482.535156 C 293.609375 482.351563 294.730469 482.121094 295.441406 481.835938 L 296.019531 481.835938 L 295.441406 485.070313 L 280.824219 485.070313 L 280.824219 484.398438 C 281.171875 482.933594 281.34375 480.886719 281.34375 478.265625 L 281.34375 470.542969 C 281.34375 467.898438 281.171875 465.84375 280.824219 464.378906 L 280.824219 463.707031 L 295.015625 463.617188 L 294.097656 466.300781 L 293.519531 466.300781 C 292.523438 466.015625 290.597656 465.875 287.753906 465.875 Z M 287.753906 465.875 "/>
<path style=" stroke:none;fill-rule:evenodd;fill:rgb(17.259216%,16.868591%,16.479492%);fill-opacity:1;" d="M 298.296875 484.398438 C 299.066406 479.78125 299.453125 474.410156 299.453125 468.285156 C 299.453125 466.65625 299.414063 465.34375 299.335938 464.347656 L 299.335938 463.675781 L 304.367188 463.28125 C 304.570313 464.257813 305.003906 465.773438 305.664063 467.828125 C 306.324219 469.882813 307.921875 474.144531 310.441406 480.613281 C 312.109375 475.996094 313.378906 472.253906 314.253906 469.382813 C 315.128906 466.515625 315.648438 464.632813 315.8125 463.738281 L 321.03125 463.1875 L 321.03125 463.859375 C 321.011719 464.285156 321.003906 465.144531 321.003906 466.4375 C 321.003906 467.730469 321.117188 470.089844 321.351563 473.519531 C 321.589844 476.945313 321.976563 480.574219 322.527344 484.398438 L 322.527344 485.070313 L 317.492188 485.070313 L 317.492188 484.398438 C 317.550781 483.199219 317.585938 481.84375 317.585938 480.339844 C 317.585938 476.554688 317.398438 472.996094 317.03125 469.65625 C 314.53125 476.65625 312.8125 481.773438 311.878906 485.007813 L 308.183594 485.375 C 308.183594 484.417969 306.363281 479.128906 302.71875 469.503906 C 302.496094 473.085938 302.382813 476.0625 302.382813 478.433594 C 302.382813 480.800781 302.414063 482.789063 302.476563 484.398438 L 302.476563 485.070313 L 298.296875 485.070313 Z M 298.296875 484.398438 "/>
<path style=" stroke:none;fill-rule:evenodd;fill:rgb(17.259216%,16.868591%,16.479492%);fill-opacity:1;" d="M 229.628906 507.71875 C 228.039063 507.265625 226.171875 507.042969 224.035156 507.042969 C 221.894531 507.042969 220.496094 507.070313 219.84375 507.125 C 219.761719 507.941406 219.71875 511.050781 219.71875 516.457031 L 229.496094 516.246094 L 227.925781 520.210938 L 227.117188 520.210938 C 225.753906 519.929688 224.308594 519.789063 222.777344 519.789063 C 221.253906 519.789063 220.226563 519.820313 219.71875 519.875 L 219.71875 523.800781 C 219.71875 527.796875 219.945313 530.640625 220.398438 532.328125 L 220.398438 533.253906 L 212.960938 533.253906 L 212.960938 532.328125 C 213.4375 530.300781 213.679688 527.472656 213.679688 523.84375 L 213.679688 513.164063 C 213.679688 509.503906 213.4375 506.664063 212.960938 504.636719 L 212.960938 503.707031 L 231.664063 503.582031 L 230.433594 507.71875 Z M 229.628906 507.71875 "/>
<path style=" stroke:none;fill-rule:evenodd;fill:rgb(17.259216%,16.868591%,16.479492%);fill-opacity:1;" d="M 239.734375 517.523438 C 239.734375 521.386719 240.71875 524.378906 242.6875 526.503906 C 244.660156 528.632813 247.117188 529.695313 250.066406 529.695313 C 252.277344 529.695313 255.394531 528.6875 259.421875 526.671875 L 260.996094 528.9375 C 258.867188 530.308594 257.414063 531.207031 256.636719 531.625 C 255.855469 532.046875 254.652344 532.507813 253.023438 533.011719 C 251.390625 533.515625 249.769531 533.765625 248.152344 533.765625 C 244.046875 533.765625 240.546875 532.410156 237.648438 529.695313 C 234.757813 526.980469 233.3125 523.34375 233.3125 518.785156 C 233.3125 514.222656 234.976563 510.515625 238.308594 507.660156 C 241.640625 504.808594 245.773438 503.382813 250.703125 503.382813 C 254.019531 503.382813 257.222656 504.109375 260.3125 505.5625 C 259.945313 507.324219 259.136719 509.046875 257.890625 510.726563 C 255.933594 509.296875 254.164063 508.3125 252.574219 507.765625 C 250.988281 507.222656 249.535156 506.949219 248.21875 506.949219 C 246.898438 506.949219 245.757813 507.019531 244.796875 507.15625 C 243.320313 508.164063 242.109375 509.535156 241.15625 511.269531 C 240.210938 513.003906 239.734375 515.089844 239.734375 517.523438 Z M 239.734375 517.523438 "/>
</g>
</svg>
